%TF.GenerationSoftware,KiCad,Pcbnew,10.0.5*%
%TF.CreationDate,2026-08-31T14:20:30+05:30*%
%TF.ProjectId,AuraForge_50X,41757261-466f-4726-9765-5f3530582e6b,v1.0*%
%TF.SameCoordinates,Original*%
%TF.FileFunction,Copper,L4,Bot*%
%TF.FilePolarity,Positive*%
%FSLAX46Y46*%
G04 Gerber Fmt 4.6, Leading zero omitted, Abs format (unit mm)*
G04 Created by KiCad (PCBNEW 10.0.5) date 2026-08-31 14:20:30*
%MOMM*%
%LPD*%
G01*
G04 APERTURE LIST*
G04 Aperture macros list*
%AMRoundRect*
0 Rectangle with rounded corners*
0 $1 Rounding radius*
0 $2 $3 $4 $5 $6 $7 $8 $9 X,Y pos of 4 corners*
0 Add a 4 corners polygon primitive as box body*
4,1,4,$2,$3,$4,$5,$6,$7,$8,$9,$2,$3,0*
0 Add four circle primitives for the rounded corners*
1,1,$1+$1,$2,$3*
1,1,$1+$1,$4,$5*
1,1,$1+$1,$6,$7*
1,1,$1+$1,$8,$9*
0 Add four rect primitives between the rounded corners*
20,1,$1+$1,$2,$3,$4,$5,0*
20,1,$1+$1,$4,$5,$6,$7,0*
20,1,$1+$1,$6,$7,$8,$9,0*
20,1,$1+$1,$8,$9,$2,$3,0*%
G04 Aperture macros list end*
%TA.AperFunction,ComponentPad*%
%ADD10C,0.600000*%
%TD*%
%TA.AperFunction,ComponentPad*%
%ADD11O,1.200000X2.000000*%
%TD*%
%TA.AperFunction,ComponentPad*%
%ADD12O,1.200000X1.800000*%
%TD*%
%TA.AperFunction,ComponentPad*%
%ADD13C,0.400000*%
%TD*%
%TA.AperFunction,ComponentPad*%
%ADD14O,4.500000X2.000000*%
%TD*%
%TA.AperFunction,ComponentPad*%
%ADD15O,4.000000X1.800000*%
%TD*%
%TA.AperFunction,ComponentPad*%
%ADD16O,1.800000X4.000000*%
%TD*%
%TA.AperFunction,ComponentPad*%
%ADD17C,1.700000*%
%TD*%
%TA.AperFunction,ComponentPad*%
%ADD18RoundRect,0.250000X-1.050000X-1.050000X1.050000X-1.050000X1.050000X1.050000X-1.050000X1.050000X0*%
%TD*%
%TA.AperFunction,ComponentPad*%
%ADD19C,2.600000*%
%TD*%
%TA.AperFunction,ComponentPad*%
%ADD20C,1.200000*%
%TD*%
%TA.AperFunction,ComponentPad*%
%ADD21O,1.000000X2.000000*%
%TD*%
%TA.AperFunction,ViaPad*%
%ADD22C,1.000000*%
%TD*%
%TA.AperFunction,ViaPad*%
%ADD23C,0.800000*%
%TD*%
%TA.AperFunction,ViaPad*%
%ADD24C,0.600000*%
%TD*%
%TA.AperFunction,Conductor*%
%ADD25C,1.000000*%
%TD*%
%TA.AperFunction,Conductor*%
%ADD26C,0.150000*%
%TD*%
%TA.AperFunction,Conductor*%
%ADD27C,0.300000*%
%TD*%
%TA.AperFunction,Conductor*%
%ADD28C,0.250000*%
%TD*%
G04 APERTURE END LIST*
D10*
%TO.P,J1,*%
%TO.N,*%
X12100000Y-72790000D03*
X17900000Y-72790000D03*
D11*
%TO.P,J1,1,EH_1*%
%TO.N,GND*%
X19330000Y-72290000D03*
D12*
%TO.P,J1,2,EH_2*%
X19330000Y-76470000D03*
%TO.P,J1,3,EH_3*%
X10670000Y-76470000D03*
D11*
%TO.P,J1,4,EH_4*%
X10670000Y-72290000D03*
%TD*%
D13*
%TO.P,U2,21*%
%TO.N,GND*%
X72730000Y-20000000D03*
X73480000Y-19230000D03*
X73480000Y-20000000D03*
X73480000Y-20770000D03*
X74530000Y-19230000D03*
X74530000Y-20000000D03*
X74530000Y-20770000D03*
X75280000Y-20000000D03*
%TD*%
D14*
%TO.P,J2,1,1_1*%
%TO.N,Net-(D3-A)*%
X46650000Y-69500000D03*
D15*
%TO.P,J2,2,2_2*%
%TO.N,GND*%
X46650000Y-75500000D03*
D16*
%TO.P,J2,3,3_3*%
X51350000Y-72500000D03*
%TD*%
D17*
%TO.P,J6,1,1_1*%
%TO.N,/+BAT_3V7*%
X7500000Y-48750000D03*
%TO.P,J6,2,2_2*%
%TO.N,/BAT_NEG*%
X7500000Y-46250000D03*
%TD*%
D18*
%TO.P,J4,1,Pin_1_1*%
%TO.N,/SPK_L_PLUS*%
X66000000Y-74000000D03*
D19*
%TO.P,J4,2,Pin_2_2*%
%TO.N,/SPK_L_MINUS*%
X71000000Y-74000000D03*
%TD*%
D18*
%TO.P,J5,1,Pin_1_1*%
%TO.N,/SPK_R_PLUS*%
X86000000Y-74000000D03*
D19*
%TO.P,J5,2,Pin_2_2*%
%TO.N,/SPK_R_MINUS*%
X91000000Y-74000000D03*
%TD*%
D20*
%TO.P,J3,*%
%TO.N,*%
X33000000Y-78600000D03*
X33000000Y-71600000D03*
D21*
%TO.P,J3,2,2_2*%
%TO.N,/AUDIO_L*%
X30600000Y-77000000D03*
%TO.P,J3,3,3_3*%
%TO.N,/AUDIO_R*%
X30600000Y-74000000D03*
%TO.P,J3,4,4_4*%
%TO.N,/I2S_LRCK*%
X30600000Y-70000000D03*
%TO.P,J3,5,5_5*%
%TO.N,GND*%
X35400000Y-69000000D03*
%TD*%
D22*
%TO.N,/+21V_BOOST*%
X77851500Y-42280000D03*
X68881281Y-46118719D03*
X66000000Y-51000000D03*
X80825000Y-25000000D03*
X84000000Y-36000000D03*
X67000000Y-46000000D03*
X83000000Y-26000000D03*
X84000000Y-22000000D03*
X53000000Y-64000000D03*
X69498500Y-42280000D03*
X75274000Y-16274000D03*
X84999999Y-45000001D03*
D23*
%TO.N,GND*%
X21000000Y-76000000D03*
X19000000Y-53000000D03*
X4000000Y-28000000D03*
X7000000Y-38000000D03*
X96000000Y-36000000D03*
X43000000Y-60000000D03*
X81000000Y-31000000D03*
X73830401Y-40955178D03*
X55000000Y-42000000D03*
X88000000Y-19000000D03*
X69000000Y-51000000D03*
X9000000Y-72000000D03*
X88000000Y-13000000D03*
X32000000Y-55000000D03*
X10000000Y-67000000D03*
X81000000Y-74000000D03*
X55000000Y-35000000D03*
X75000000Y-32000000D03*
X25000000Y-62000000D03*
X20000000Y-57000000D03*
X78880000Y-49720000D03*
X47000000Y-37000000D03*
X74000000Y-51000000D03*
X23000000Y-7000000D03*
X88000000Y-24000000D03*
X46000000Y-76000000D03*
X98000000Y-34000000D03*
X9000000Y-77000000D03*
X62000000Y-74000000D03*
X37000000Y-2000000D03*
X19000000Y-36000000D03*
X47000000Y-25000000D03*
X34970000Y-53970000D03*
X71000000Y-33000000D03*
X46000000Y-15000000D03*
X36000000Y-38000000D03*
X69000000Y-28000000D03*
X55000000Y-49000000D03*
X20290000Y-21710000D03*
X19000000Y-2000000D03*
X62000000Y-68000000D03*
X81000000Y-69000000D03*
X67000000Y-47150003D03*
X17000000Y-63000000D03*
X21000000Y-36000000D03*
X47000000Y-73000000D03*
X81000000Y-43000000D03*
X21000000Y-53000000D03*
X29000000Y-41000000D03*
X20000000Y-60000000D03*
X75629999Y-43484357D03*
X71927099Y-40886117D03*
X38000000Y-55000000D03*
X56225000Y-42000000D03*
X7000000Y-20000000D03*
X76000000Y-52000000D03*
X22000000Y-69000000D03*
X7000000Y-16000000D03*
X62000000Y-30000000D03*
X65000000Y-43000000D03*
X78880000Y-49720000D03*
X21000000Y-72000000D03*
X70816736Y-18978307D03*
X52000000Y-73000000D03*
X83000000Y-50000000D03*
X67000000Y-14000000D03*
X65000000Y-40000000D03*
D24*
%TO.N,Net-(U1-GVDD)*%
X73020000Y-49720000D03*
X62000000Y-36000000D03*
%TO.N,Net-(U1-RINP)*%
X71000000Y-48000000D03*
X59000000Y-39000000D03*
%TO.N,/AUDIO_L*%
X54000000Y-46000000D03*
X32000000Y-77000000D03*
%TO.N,Net-(U1-LINP)*%
X74000000Y-52000000D03*
X62000000Y-51000000D03*
D22*
%TO.N,/SPK_R_PLUS*%
X78000000Y-77000000D03*
X89000000Y-77000000D03*
X83000000Y-77000000D03*
X97000000Y-58000000D03*
D24*
%TO.N,Net-(U2-ILIM)*%
X70000000Y-26000000D03*
X70000000Y-18050000D03*
D22*
%TO.N,Net-(U1-OUTNR)*%
X81000000Y-61000000D03*
X74000000Y-47000000D03*
X76000000Y-58000000D03*
%TO.N,/SPK_R_MINUS*%
X91000000Y-71000000D03*
X78000000Y-66000000D03*
D24*
%TO.N,Net-(U1-BSNR)*%
X78672182Y-48227818D03*
X77275000Y-55000000D03*
%TO.N,Net-(U1-AVCC)*%
X79000000Y-36900000D03*
X67000000Y-39000000D03*
%TO.N,Net-(U1-BSPL)*%
X67000000Y-54000000D03*
X70000000Y-55000000D03*
D22*
%TO.N,Net-(U1-OUTPL)*%
X74000000Y-60000000D03*
X75000000Y-39000000D03*
X74000000Y-55000000D03*
D23*
%TO.N,/V_LDO_IN*%
X27000000Y-51000000D03*
X25000000Y-50000000D03*
D24*
%TO.N,/I2S_BCK*%
X33000000Y-32000000D03*
X39000000Y-47000000D03*
D23*
%TO.N,/+3V3_SYS*%
X32000000Y-45000000D03*
X20670000Y-31330000D03*
X6000000Y-25000000D03*
X32000000Y-37000000D03*
D22*
%TO.N,/+BAT_3V7*%
X67000000Y-17000000D03*
X77295034Y-20156222D03*
X75235714Y-23294067D03*
X46775000Y-19225000D03*
X27000000Y-59000000D03*
X71877998Y-21826413D03*
X43000000Y-44000000D03*
X27000000Y-59000000D03*
X37000000Y-60000000D03*
X43000000Y-49000000D03*
X47000000Y-21000000D03*
X10999999Y-52999999D03*
X27000000Y-59000000D03*
X50000000Y-21000000D03*
%TO.N,Net-(U1-OUTPR)*%
X71325000Y-44456893D03*
X92000000Y-61000000D03*
X85000000Y-55000000D03*
D24*
%TO.N,Net-(U5-VCC)*%
X12649998Y-48000000D03*
X11000000Y-56000000D03*
D22*
%TO.N,Net-(C12-Pad2)*%
X68000000Y-19000000D03*
X74250063Y-21825342D03*
%TO.N,Net-(U6-D12-Pad1)*%
X19730000Y-51200000D03*
X19730000Y-45000000D03*
X19730000Y-45000000D03*
D24*
%TO.N,Net-(U5-OD)*%
X16000000Y-49000000D03*
X21980000Y-51200000D03*
%TO.N,Net-(U5-OC)*%
X17000000Y-46000000D03*
X22030000Y-44800000D03*
D23*
%TO.N,/BAT_NEG*%
X17000000Y-45000000D03*
X21029997Y-44800000D03*
D24*
%TO.N,Net-(U1-RINN)*%
X71719999Y-51719999D03*
X62000000Y-49000000D03*
%TO.N,Net-(U3-D2)*%
X14000000Y-63000000D03*
X25640000Y-64910000D03*
%TO.N,Net-(U1-LINN)*%
X75000000Y-52000000D03*
X61000000Y-51000000D03*
%TO.N,Net-(U5-CS)*%
X17000000Y-48000000D03*
X16000000Y-52000000D03*
%TO.N,Net-(U1-FAULTZ)*%
X70500000Y-45500000D03*
X70000000Y-40000000D03*
D22*
%TO.N,Net-(U1-OUTNL)*%
X61000000Y-62000000D03*
X76000000Y-38000000D03*
D24*
%TO.N,Net-(U3-D1)*%
X19000000Y-65000000D03*
X12325000Y-65000000D03*
D22*
%TO.N,/SPK_L_PLUS*%
X66000000Y-71000000D03*
X66085411Y-65170822D03*
%TO.N,/SPK_L_MINUS*%
X57000000Y-58000000D03*
X68000000Y-77000000D03*
D24*
%TO.N,/ESP_IO0*%
X41000000Y-30000000D03*
X40000000Y-26000000D03*
%TO.N,/I2S_LRCK*%
X31000000Y-33000000D03*
X30600000Y-64400000D03*
%TO.N,/ESP_RXD0*%
X41000000Y-20000000D03*
X29000000Y-33000000D03*
%TO.N,/ESP_TXD0*%
X40000000Y-7000000D03*
X26000000Y-30000000D03*
D23*
%TO.N,/+5V_VBUS*%
X14000000Y-58000000D03*
X16550000Y-58000000D03*
%TO.N,Net-(D3-A)*%
X52000000Y-60000000D03*
D24*
%TO.N,Net-(U2-FSW)*%
X65000000Y-29000000D03*
X68000000Y-21000000D03*
%TD*%
%TO.N,/+21V_BOOST*%
D25*
X85000000Y-45000000D02*
X84999999Y-45000001D01*
%TO.N,Net-(U1-GVDD)*%
D26*
X73020000Y-49018000D02*
X73020000Y-49720000D01*
X70002000Y-46000000D02*
X73020000Y-49018000D01*
X70000000Y-46000000D02*
X70002000Y-46000000D01*
X65000000Y-36000000D02*
X66000000Y-37000000D01*
X69127000Y-45125000D02*
X69127000Y-45127000D01*
X69127000Y-45127000D02*
X70000000Y-46000000D01*
X66000000Y-41998000D02*
X69127000Y-45125000D01*
X62000000Y-36000000D02*
X65000000Y-36000000D01*
X66000000Y-37000000D02*
X66000000Y-41998000D01*
%TO.N,Net-(U1-RINP)*%
X71000000Y-48000000D02*
X65000000Y-48000000D01*
X65000000Y-48000000D02*
X59000000Y-42000000D01*
X59000000Y-42000000D02*
X59000000Y-39000000D01*
%TO.N,/AUDIO_L*%
X47000000Y-48000000D02*
X49000000Y-46000000D01*
X49000000Y-46000000D02*
X54000000Y-46000000D01*
X36000000Y-77000000D02*
X38000000Y-75000000D01*
X47000000Y-61000000D02*
X47000000Y-48000000D01*
X38000000Y-70000000D02*
X47000000Y-61000000D01*
X36000000Y-77000000D02*
X32000000Y-77000000D01*
X38000000Y-75000000D02*
X38000000Y-70000000D01*
%TO.N,Net-(U1-LINP)*%
X65250736Y-52675000D02*
X72279595Y-52675000D01*
X63575736Y-51000000D02*
X65250736Y-52675000D01*
X62000000Y-51000000D02*
X63575736Y-51000000D01*
X72279595Y-52675000D02*
X72954595Y-52000000D01*
X72954595Y-52000000D02*
X74000000Y-52000000D01*
%TO.N,/SPK_R_PLUS*%
D25*
X89000000Y-77000000D02*
X91323044Y-77000000D01*
X97000000Y-61423771D02*
X97000000Y-58000000D01*
X97518206Y-61941978D02*
X97000000Y-61423771D01*
X83000000Y-77000000D02*
X78000000Y-77000000D01*
X91323044Y-77000000D02*
X97000000Y-71323044D01*
X97518206Y-64013044D02*
X97518206Y-61941978D01*
X97000000Y-71323044D02*
X97000000Y-64531250D01*
X97000000Y-64531250D02*
X97518206Y-64013044D01*
%TO.N,Net-(U2-ILIM)*%
D26*
X70000000Y-26000000D02*
X70000000Y-18050000D01*
%TO.N,Net-(U1-OUTNR)*%
D25*
X79000000Y-47000000D02*
X74000000Y-47000000D01*
X76000000Y-58000000D02*
X81000000Y-53000000D01*
X78767766Y-61000000D02*
X81000000Y-61000000D01*
X81000000Y-49000000D02*
X79000000Y-47000000D01*
X81000000Y-53000000D02*
X81000000Y-49000000D01*
X76000000Y-58000000D02*
X76000000Y-58232234D01*
X76000000Y-58232234D02*
X78767766Y-61000000D01*
%TO.N,/SPK_R_MINUS*%
X86000000Y-66000000D02*
X78000000Y-66000000D01*
X91000000Y-71000000D02*
X86000000Y-66000000D01*
%TO.N,Net-(U1-BSNR)*%
D26*
X77275000Y-49625000D02*
X78672182Y-48227818D01*
X77275000Y-55000000D02*
X77275000Y-49625000D01*
%TO.N,Net-(U1-AVCC)*%
X78900000Y-37000000D02*
X79000000Y-36900000D01*
X67000000Y-39000000D02*
X69000000Y-37000000D01*
X69000000Y-37000000D02*
X78900000Y-37000000D01*
%TO.N,Net-(U1-BSPL)*%
X69000000Y-54000000D02*
X67000000Y-54000000D01*
X70000000Y-55000000D02*
X69000000Y-54000000D01*
%TO.N,Net-(U1-OUTPL)*%
D25*
X76000000Y-40000000D02*
X75000000Y-39000000D01*
X91000000Y-42000000D02*
X82000000Y-42000000D01*
X82000000Y-42000000D02*
X80000000Y-40000000D01*
X94000000Y-45000000D02*
X91000000Y-42000000D01*
X80000000Y-40000000D02*
X76000000Y-40000000D01*
X93000000Y-63000000D02*
X94000000Y-62000000D01*
X77000000Y-63000000D02*
X93000000Y-63000000D01*
X74000000Y-55000000D02*
X74000000Y-60000000D01*
X94000000Y-62000000D02*
X94000000Y-45000000D01*
X74000000Y-60000000D02*
X77000000Y-63000000D01*
%TO.N,/V_LDO_IN*%
D27*
X25000000Y-50000000D02*
X26000000Y-51000000D01*
X26000000Y-51000000D02*
X27000000Y-51000000D01*
%TO.N,/I2S_BCK*%
D26*
X33000000Y-37000000D02*
X39000000Y-43000000D01*
X33000000Y-32000000D02*
X33000000Y-37000000D01*
X39000000Y-43000000D02*
X39000000Y-47000000D01*
%TO.N,/+3V3_SYS*%
D27*
X20000000Y-31660000D02*
X20330000Y-31330000D01*
X20330000Y-31330000D02*
X20670000Y-31330000D01*
X20000000Y-34000000D02*
X20000000Y-31660000D01*
X18000000Y-36000000D02*
X20000000Y-34000000D01*
X32000000Y-45000000D02*
X32000000Y-37000000D01*
X4000000Y-25000000D02*
X3000000Y-26000000D01*
X3000000Y-30000000D02*
X9000000Y-36000000D01*
X3000000Y-26000000D02*
X3000000Y-30000000D01*
X6000000Y-25000000D02*
X4000000Y-25000000D01*
X9000000Y-36000000D02*
X18000000Y-36000000D01*
%TO.N,/+BAT_3V7*%
D25*
X71780000Y-21728415D02*
X71877998Y-21826413D01*
X67000000Y-17000000D02*
X72000000Y-17000000D01*
X71780000Y-19606497D02*
X71780000Y-21728415D01*
D28*
X72000000Y-21948415D02*
X72000000Y-24000000D01*
X77295034Y-22704966D02*
X77295034Y-20156222D01*
X71877998Y-21826413D02*
X72000000Y-21948415D01*
D25*
X72000000Y-19386497D02*
X71780000Y-19606497D01*
D28*
X74000000Y-24000000D02*
X74705933Y-23294067D01*
X74705933Y-23294067D02*
X75235714Y-23294067D01*
X72000000Y-24000000D02*
X74000000Y-24000000D01*
D25*
X72000000Y-17000000D02*
X72000000Y-19386497D01*
D28*
X76705933Y-23294067D02*
X77295034Y-22704966D01*
X75235714Y-23294067D02*
X76705933Y-23294067D01*
%TO.N,Net-(U1-OUTPR)*%
D25*
X79000000Y-45000000D02*
X82000000Y-48000000D01*
X85000000Y-55000000D02*
X86000000Y-55000000D01*
X82000000Y-48000000D02*
X85000000Y-48000000D01*
X86000000Y-55000000D02*
X92000000Y-61000000D01*
X71868107Y-45000000D02*
X79000000Y-45000000D01*
X85000000Y-48000000D02*
X85000000Y-55000000D01*
X71325000Y-44456893D02*
X71868107Y-45000000D01*
%TO.N,Net-(U5-VCC)*%
D26*
X12000000Y-55000000D02*
X12000000Y-48649998D01*
X12000000Y-48649998D02*
X12649998Y-48000000D01*
X11000000Y-56000000D02*
X12000000Y-55000000D01*
%TO.N,Net-(U5-OD)*%
X17000000Y-47000000D02*
X19000000Y-49000000D01*
X16000000Y-49000000D02*
X16000000Y-48000000D01*
X22000000Y-51180000D02*
X21980000Y-51200000D01*
X19000000Y-49000000D02*
X22000000Y-49000000D01*
X22000000Y-49000000D02*
X22000000Y-51180000D01*
X16000000Y-48000000D02*
X17000000Y-47000000D01*
%TO.N,Net-(U5-OC)*%
X18000000Y-47000000D02*
X22000000Y-47000000D01*
X22000000Y-44830000D02*
X22030000Y-44800000D01*
X17000000Y-46000000D02*
X18000000Y-47000000D01*
X22000000Y-47000000D02*
X22000000Y-44830000D01*
%TO.N,/BAT_NEG*%
D27*
X21029997Y-45043506D02*
X21029997Y-44800000D01*
X18950000Y-45950000D02*
X20123503Y-45950000D01*
X18000000Y-45000000D02*
X18950000Y-45950000D01*
X17000000Y-45000000D02*
X18000000Y-45000000D01*
X20123503Y-45950000D02*
X21029997Y-45043506D01*
%TO.N,Net-(U1-RINN)*%
D26*
X65000000Y-52000000D02*
X71439998Y-52000000D01*
X62000000Y-49000000D02*
X65000000Y-52000000D01*
X71439998Y-52000000D02*
X71719999Y-51719999D01*
%TO.N,Net-(U3-D2)*%
X25000000Y-66000000D02*
X25000000Y-65550000D01*
X23000000Y-66000000D02*
X25000000Y-66000000D01*
X25000000Y-65550000D02*
X25640000Y-64910000D01*
X15000000Y-64000000D02*
X21000000Y-64000000D01*
X21000000Y-64000000D02*
X23000000Y-66000000D01*
X14000000Y-63000000D02*
X15000000Y-64000000D01*
%TO.N,Net-(U1-LINN)*%
X64151472Y-52000000D02*
X65126472Y-52975000D01*
X65126472Y-52975000D02*
X72403859Y-52975000D01*
X74279595Y-52675000D02*
X74954595Y-52000000D01*
X62000000Y-52000000D02*
X64151472Y-52000000D01*
X74954595Y-52000000D02*
X75000000Y-52000000D01*
X72703859Y-52675000D02*
X74279595Y-52675000D01*
X72403859Y-52975000D02*
X72703859Y-52675000D01*
X61000000Y-51000000D02*
X62000000Y-52000000D01*
%TO.N,Net-(U5-CS)*%
X17000000Y-51000000D02*
X17000000Y-48000000D01*
X16000000Y-52000000D02*
X17000000Y-51000000D01*
%TO.N,Net-(U1-FAULTZ)*%
X70500000Y-40500000D02*
X70500000Y-45500000D01*
X70000000Y-40000000D02*
X70500000Y-40500000D01*
%TO.N,Net-(U1-OUTNL)*%
D25*
X88767766Y-38000000D02*
X76000000Y-38000000D01*
X76482234Y-64250000D02*
X93517766Y-64250000D01*
X93517766Y-64250000D02*
X95250000Y-62517766D01*
X95250000Y-44482234D02*
X88767766Y-38000000D01*
X74232234Y-62000000D02*
X76482234Y-64250000D01*
X61000000Y-62000000D02*
X74232234Y-62000000D01*
X95250000Y-62517766D02*
X95250000Y-44482234D01*
%TO.N,Net-(U3-D1)*%
D26*
X19000000Y-65000000D02*
X12325000Y-65000000D01*
%TO.N,/SPK_L_PLUS*%
D25*
X66000000Y-65085411D02*
X66085411Y-65170822D01*
X66000000Y-71000000D02*
X66000000Y-65085411D01*
%TO.N,/SPK_L_MINUS*%
X68000000Y-77000000D02*
X56000000Y-77000000D01*
X56000000Y-58000000D02*
X57000000Y-58000000D01*
X56000000Y-77000000D02*
X56000000Y-58000000D01*
%TO.N,/ESP_IO0*%
D26*
X41000000Y-30000000D02*
X40000000Y-29000000D01*
X40000000Y-29000000D02*
X40000000Y-26000000D01*
%TO.N,/I2S_LRCK*%
X31000000Y-64000000D02*
X31000000Y-33000000D01*
X30600000Y-64400000D02*
X31000000Y-64000000D01*
%TO.N,/ESP_RXD0*%
X29000000Y-27000000D02*
X31000000Y-25000000D01*
X31000000Y-25000000D02*
X35000000Y-25000000D01*
X40000000Y-20000000D02*
X41000000Y-20000000D01*
X35000000Y-25000000D02*
X40000000Y-20000000D01*
X29000000Y-33000000D02*
X29000000Y-27000000D01*
%TO.N,/ESP_TXD0*%
X40000000Y-19000000D02*
X40000000Y-7000000D01*
X35000000Y-24000000D02*
X40000000Y-19000000D01*
X31000000Y-24000000D02*
X35000000Y-24000000D01*
X26000000Y-29000000D02*
X31000000Y-24000000D01*
X26000000Y-30000000D02*
X26000000Y-29000000D01*
%TO.N,/+5V_VBUS*%
D27*
X14000000Y-58000000D02*
X16550000Y-58000000D01*
%TO.N,Net-(D3-A)*%
X48500000Y-69500000D02*
X52000000Y-66000000D01*
X46650000Y-69500000D02*
X48500000Y-69500000D01*
X52000000Y-66000000D02*
X52000000Y-60000000D01*
%TO.N,Net-(U2-FSW)*%
D26*
X65000000Y-26000000D02*
X65000000Y-29000000D01*
X68000000Y-21000000D02*
X68000000Y-23000000D01*
X68000000Y-23000000D02*
X65000000Y-26000000D01*
%TD*%
%TA.AperFunction,Conductor*%
%TO.N,GND*%
G36*
X79340963Y-48402765D02*
G01*
X79346687Y-48408054D01*
X80220504Y-49281871D01*
X80248281Y-49336388D01*
X80249500Y-49351875D01*
X80249500Y-52648123D01*
X80230593Y-52706314D01*
X80220504Y-52718127D01*
X77985973Y-54952657D01*
X77931456Y-54980434D01*
X77871024Y-54970863D01*
X77827759Y-54927598D01*
X77820342Y-54908277D01*
X77816562Y-54894169D01*
X77787984Y-54787515D01*
X77784272Y-54781085D01*
X77715512Y-54661989D01*
X77715510Y-54661987D01*
X77715509Y-54661985D01*
X77629494Y-54575970D01*
X77601719Y-54521456D01*
X77600500Y-54505969D01*
X77600500Y-49800833D01*
X77619407Y-49742642D01*
X77629490Y-49730835D01*
X78553011Y-48807313D01*
X78607528Y-48779537D01*
X78623015Y-48778318D01*
X78744656Y-48778318D01*
X78744657Y-48778318D01*
X78884667Y-48740802D01*
X78884669Y-48740800D01*
X78884671Y-48740800D01*
X79010192Y-48668330D01*
X79010192Y-48668329D01*
X79010197Y-48668327D01*
X79112691Y-48565833D01*
X79121544Y-48550500D01*
X79185159Y-48440316D01*
X79185160Y-48440312D01*
X79185166Y-48440303D01*
X79185168Y-48440292D01*
X79185211Y-48440191D01*
X79185274Y-48440116D01*
X79188411Y-48434684D01*
X79189416Y-48435264D01*
X79224938Y-48393657D01*
X79284430Y-48379362D01*
X79340963Y-48402765D01*
G37*
%TD.AperFunction*%
%TA.AperFunction,Conductor*%
G36*
X13959191Y-519407D02*
G01*
X13995155Y-568907D01*
X14000000Y-599500D01*
X14000000Y-1000000D01*
X14000001Y-1000000D01*
X39999999Y-1000000D01*
X40000000Y-1000000D01*
X40000000Y-599500D01*
X40018907Y-541309D01*
X40068407Y-505345D01*
X40099000Y-500500D01*
X94934108Y-500500D01*
X94997835Y-500500D01*
X95002152Y-500593D01*
X95387853Y-517434D01*
X95396433Y-518184D01*
X95777046Y-568293D01*
X95785551Y-569792D01*
X96160349Y-652884D01*
X96168660Y-655110D01*
X96534797Y-770553D01*
X96542913Y-773507D01*
X96897587Y-920418D01*
X96905398Y-924060D01*
X97051275Y-999999D01*
X97245910Y-1101320D01*
X97253390Y-1105638D01*
X97577167Y-1311906D01*
X97584241Y-1316860D01*
X97888797Y-1550554D01*
X97895398Y-1556093D01*
X98178459Y-1815470D01*
X98184529Y-1821540D01*
X98443905Y-2104599D01*
X98449445Y-2111202D01*
X98683139Y-2415758D01*
X98688093Y-2422832D01*
X98894361Y-2746609D01*
X98898679Y-2754089D01*
X99075935Y-3094593D01*
X99079585Y-3102420D01*
X99226492Y-3457086D01*
X99229446Y-3465202D01*
X99344884Y-3831324D01*
X99347119Y-3839666D01*
X99430206Y-4214447D01*
X99431706Y-4222953D01*
X99481813Y-4603554D01*
X99482566Y-4612158D01*
X99499406Y-4997847D01*
X99499500Y-5002165D01*
X99499500Y-74997834D01*
X99499406Y-75002152D01*
X99482566Y-75387841D01*
X99481813Y-75396445D01*
X99431706Y-75777046D01*
X99430206Y-75785552D01*
X99347119Y-76160333D01*
X99344884Y-76168675D01*
X99229446Y-76534797D01*
X99226492Y-76542913D01*
X99079585Y-76897579D01*
X99075935Y-76905406D01*
X98898679Y-77245910D01*
X98894361Y-77253390D01*
X98688093Y-77577167D01*
X98683139Y-77584241D01*
X98449445Y-77888797D01*
X98443895Y-77895411D01*
X98184540Y-78178447D01*
X98178447Y-78184540D01*
X97995787Y-78351918D01*
X97895413Y-78443894D01*
X97888797Y-78449445D01*
X97584241Y-78683139D01*
X97577167Y-78688093D01*
X97253390Y-78894361D01*
X97245910Y-78898679D01*
X96905406Y-79075935D01*
X96897579Y-79079585D01*
X96542913Y-79226492D01*
X96534797Y-79229446D01*
X96168675Y-79344884D01*
X96160333Y-79347119D01*
X95785552Y-79430206D01*
X95777046Y-79431706D01*
X95396445Y-79481813D01*
X95387841Y-79482566D01*
X95002153Y-79499406D01*
X94997835Y-79499500D01*
X33511021Y-79499500D01*
X33452830Y-79480593D01*
X33416866Y-79431093D01*
X33416866Y-79369907D01*
X33452830Y-79320407D01*
X33456019Y-79318185D01*
X33542162Y-79260626D01*
X33660626Y-79142162D01*
X33753703Y-79002863D01*
X33817816Y-78848082D01*
X33850500Y-78683767D01*
X33850500Y-78516233D01*
X33817816Y-78351918D01*
X33753703Y-78197137D01*
X33660626Y-78057838D01*
X33542162Y-77939374D01*
X33402863Y-77846297D01*
X33402864Y-77846297D01*
X33402862Y-77846296D01*
X33248085Y-77782185D01*
X33248079Y-77782183D01*
X33083769Y-77749500D01*
X33083767Y-77749500D01*
X32916233Y-77749500D01*
X32916230Y-77749500D01*
X32751920Y-77782183D01*
X32751914Y-77782185D01*
X32597137Y-77846296D01*
X32457838Y-77939374D01*
X32457834Y-77939377D01*
X32339377Y-78057834D01*
X32339374Y-78057838D01*
X32246296Y-78197137D01*
X32182185Y-78351914D01*
X32182183Y-78351920D01*
X32149500Y-78516230D01*
X32149500Y-78683769D01*
X32182183Y-78848079D01*
X32182185Y-78848085D01*
X32246296Y-79002862D01*
X32246297Y-79002863D01*
X32339374Y-79142162D01*
X32457838Y-79260626D01*
X32543981Y-79318185D01*
X32581860Y-79366235D01*
X32584262Y-79427373D01*
X32550269Y-79478247D01*
X32492865Y-79499424D01*
X32488979Y-79499500D01*
X5002165Y-79499500D01*
X4997847Y-79499406D01*
X4612158Y-79482566D01*
X4603554Y-79481813D01*
X4222953Y-79431706D01*
X4214447Y-79430206D01*
X3839666Y-79347119D01*
X3831324Y-79344884D01*
X3465202Y-79229446D01*
X3457086Y-79226492D01*
X3102420Y-79079585D01*
X3094593Y-79075935D01*
X2754089Y-78898679D01*
X2746609Y-78894361D01*
X2422832Y-78688093D01*
X2415758Y-78683139D01*
X2111202Y-78449445D01*
X2104599Y-78443905D01*
X1821540Y-78184529D01*
X1815470Y-78178459D01*
X1556093Y-77895398D01*
X1550554Y-77888797D01*
X1525000Y-77855495D01*
X1316859Y-77584240D01*
X1311906Y-77577167D01*
X1218303Y-77430240D01*
X1170049Y-77354496D01*
X1105638Y-77253390D01*
X1101320Y-77245910D01*
X940760Y-76937478D01*
X924060Y-76905398D01*
X920414Y-76897579D01*
X902245Y-76853716D01*
X773507Y-76542913D01*
X770553Y-76534797D01*
X731415Y-76410666D01*
X655110Y-76168660D01*
X652884Y-76160349D01*
X586813Y-75862324D01*
X1899500Y-75862324D01*
X1899500Y-76137675D01*
X1914222Y-76249500D01*
X1935440Y-76410666D01*
X1954974Y-76483568D01*
X2006704Y-76676631D01*
X2112074Y-76931016D01*
X2249753Y-77169482D01*
X2346837Y-77296005D01*
X2417372Y-77387928D01*
X2612072Y-77582628D01*
X2830521Y-77750249D01*
X3068979Y-77887923D01*
X3068980Y-77887923D01*
X3068983Y-77887925D01*
X3087061Y-77895413D01*
X3323368Y-77993295D01*
X3589334Y-78064560D01*
X3862326Y-78100500D01*
X3862327Y-78100500D01*
X4137673Y-78100500D01*
X4137674Y-78100500D01*
X4410666Y-78064560D01*
X4676632Y-77993295D01*
X4931021Y-77887923D01*
X5169479Y-77750249D01*
X5387928Y-77582628D01*
X5582628Y-77387928D01*
X5750249Y-77169479D01*
X5887923Y-76931021D01*
X5993295Y-76676632D01*
X6064560Y-76410666D01*
X6100500Y-76137674D01*
X6100500Y-76086279D01*
X9820000Y-76086279D01*
X9820000Y-76269999D01*
X9820001Y-76270000D01*
X10270001Y-76270000D01*
X10270001Y-76670000D01*
X9820001Y-76670000D01*
X9820000Y-76670001D01*
X9820000Y-76853720D01*
X9852664Y-77017934D01*
X9916739Y-77172625D01*
X10009759Y-77311840D01*
X10128159Y-77430240D01*
X10267374Y-77523260D01*
X10422065Y-77587335D01*
X10470000Y-77596870D01*
X10470000Y-77016409D01*
X10515606Y-77042740D01*
X10617339Y-77069999D01*
X10722661Y-77069999D01*
X10824394Y-77042740D01*
X10870000Y-77016409D01*
X10870000Y-77596869D01*
X10917934Y-77587335D01*
X11072625Y-77523260D01*
X11211840Y-77430240D01*
X11330240Y-77311840D01*
X11423260Y-77172625D01*
X11487335Y-77017934D01*
X11519999Y-76853720D01*
X11520000Y-76853716D01*
X11520000Y-76670001D01*
X11519999Y-76670000D01*
X11069999Y-76670000D01*
X11069999Y-76270000D01*
X11519999Y-76270000D01*
X11520000Y-76269999D01*
X11520000Y-76086283D01*
X11519999Y-76086279D01*
X18480000Y-76086279D01*
X18480000Y-76269999D01*
X18480001Y-76270000D01*
X18930001Y-76270000D01*
X18930001Y-76670000D01*
X18480001Y-76670000D01*
X18480000Y-76670001D01*
X18480000Y-76853720D01*
X18512664Y-77017934D01*
X18576739Y-77172625D01*
X18669759Y-77311840D01*
X18788159Y-77430240D01*
X18927374Y-77523260D01*
X19082065Y-77587335D01*
X19130000Y-77596870D01*
X19130000Y-77016409D01*
X19175606Y-77042740D01*
X19277339Y-77069999D01*
X19382661Y-77069999D01*
X19484394Y-77042740D01*
X19530000Y-77016409D01*
X19530000Y-77596869D01*
X19577934Y-77587335D01*
X19732625Y-77523260D01*
X19871840Y-77430240D01*
X19990240Y-77311840D01*
X20083260Y-77172625D01*
X20147335Y-77017934D01*
X20179999Y-76853720D01*
X20180000Y-76853716D01*
X20180000Y-76670001D01*
X20179999Y-76670000D01*
X19729999Y-76670000D01*
X19729999Y-76426081D01*
X29849500Y-76426081D01*
X29849500Y-77573918D01*
X29878342Y-77718914D01*
X29931106Y-77846297D01*
X29934916Y-77855495D01*
X30017049Y-77978416D01*
X30121584Y-78082951D01*
X30244505Y-78165084D01*
X30381087Y-78221658D01*
X30526082Y-78250500D01*
X30526083Y-78250500D01*
X30673917Y-78250500D01*
X30673918Y-78250500D01*
X30818913Y-78221658D01*
X30955495Y-78165084D01*
X31078416Y-78082951D01*
X31182951Y-77978416D01*
X31265084Y-77855495D01*
X31321658Y-77718913D01*
X31350500Y-77573918D01*
X31350500Y-77345505D01*
X31369407Y-77287314D01*
X31418907Y-77251350D01*
X31480093Y-77251350D01*
X31529593Y-77287314D01*
X31535231Y-77295997D01*
X31559491Y-77338015D01*
X31661985Y-77440509D01*
X31661987Y-77440510D01*
X31661989Y-77440512D01*
X31787511Y-77512982D01*
X31787512Y-77512982D01*
X31787515Y-77512984D01*
X31927525Y-77550500D01*
X31927526Y-77550500D01*
X32072474Y-77550500D01*
X32072475Y-77550500D01*
X32212485Y-77512984D01*
X32212487Y-77512982D01*
X32212489Y-77512982D01*
X32338010Y-77440512D01*
X32338010Y-77440511D01*
X32338015Y-77440509D01*
X32424029Y-77354494D01*
X32478544Y-77326719D01*
X32494031Y-77325500D01*
X36042851Y-77325500D01*
X36042853Y-77325500D01*
X36125639Y-77303318D01*
X36125641Y-77303316D01*
X36125643Y-77303316D01*
X36199857Y-77260468D01*
X36199857Y-77260467D01*
X36199862Y-77260465D01*
X38160328Y-75299999D01*
X44417341Y-75299999D01*
X44417342Y-75300000D01*
X45188124Y-75300000D01*
X45184078Y-75307008D01*
X45150003Y-75434174D01*
X45150003Y-75565826D01*
X45184078Y-75692992D01*
X45188124Y-75700000D01*
X44417341Y-75700000D01*
X44428316Y-75769289D01*
X44484250Y-75941440D01*
X44566431Y-76102730D01*
X44566433Y-76102734D01*
X44672824Y-76249169D01*
X44800830Y-76377175D01*
X44947265Y-76483566D01*
X44947269Y-76483568D01*
X45108559Y-76565749D01*
X45280710Y-76621683D01*
X45459490Y-76650000D01*
X46449999Y-76650000D01*
X46450000Y-76649999D01*
X46450000Y-75999999D01*
X46850000Y-75999999D01*
X46850000Y-76649999D01*
X46850001Y-76650000D01*
X47840510Y-76650000D01*
X48019289Y-76621683D01*
X48191440Y-76565749D01*
X48352730Y-76483568D01*
X48352734Y-76483566D01*
X48499169Y-76377175D01*
X48627175Y-76249169D01*
X48733566Y-76102734D01*
X48733568Y-76102730D01*
X48815749Y-75941440D01*
X48871683Y-75769289D01*
X48882658Y-75700000D01*
X48111876Y-75700000D01*
X48115922Y-75692992D01*
X48149997Y-75565826D01*
X48149997Y-75434174D01*
X48115922Y-75307008D01*
X48111876Y-75300000D01*
X48882658Y-75300000D01*
X48882658Y-75299999D01*
X48871683Y-75230710D01*
X48815749Y-75058559D01*
X48733568Y-74897269D01*
X48733566Y-74897265D01*
X48627175Y-74750830D01*
X48499169Y-74622824D01*
X48352734Y-74516433D01*
X48352730Y-74516431D01*
X48191440Y-74434250D01*
X48019289Y-74378316D01*
X47840510Y-74350000D01*
X46850001Y-74350000D01*
X46850000Y-74350001D01*
X46850000Y-75000001D01*
X46450000Y-75000001D01*
X46450000Y-74350001D01*
X46449999Y-74350000D01*
X45459490Y-74350000D01*
X45280710Y-74378316D01*
X45108559Y-74434250D01*
X44947269Y-74516431D01*
X44947265Y-74516433D01*
X44800830Y-74622824D01*
X44672824Y-74750830D01*
X44566433Y-74897265D01*
X44566431Y-74897269D01*
X44484250Y-75058559D01*
X44428316Y-75230710D01*
X44417341Y-75299999D01*
X38160328Y-75299999D01*
X38260465Y-75199862D01*
X38284933Y-75157483D01*
X38303316Y-75125643D01*
X38303316Y-75125641D01*
X38303318Y-75125639D01*
X38325500Y-75042853D01*
X38325500Y-74957147D01*
X38325500Y-71309489D01*
X50200000Y-71309489D01*
X50200000Y-72299999D01*
X50200001Y-72300000D01*
X50850001Y-72300000D01*
X50850001Y-72700000D01*
X50200001Y-72700000D01*
X50200000Y-72700001D01*
X50200000Y-73690510D01*
X50228316Y-73869289D01*
X50284250Y-74041440D01*
X50366431Y-74202730D01*
X50366433Y-74202734D01*
X50472824Y-74349169D01*
X50600830Y-74477175D01*
X50747265Y-74583566D01*
X50747269Y-74583568D01*
X50908559Y-74665749D01*
X51080710Y-74721683D01*
X51080711Y-74721684D01*
X51149999Y-74732657D01*
X51150000Y-74732656D01*
X51150000Y-73961875D01*
X51157008Y-73965922D01*
X51284174Y-73999997D01*
X51415826Y-73999997D01*
X51542992Y-73965922D01*
X51550000Y-73961875D01*
X51550000Y-74732657D01*
X51619288Y-74721684D01*
X51619289Y-74721683D01*
X51791440Y-74665749D01*
X51952730Y-74583568D01*
X51952734Y-74583566D01*
X52099169Y-74477175D01*
X52227175Y-74349169D01*
X52333566Y-74202734D01*
X52333568Y-74202730D01*
X52415749Y-74041440D01*
X52471683Y-73869289D01*
X52500000Y-73690510D01*
X52500000Y-72700001D01*
X52499999Y-72700000D01*
X51849999Y-72700000D01*
X51849999Y-72300000D01*
X52499999Y-72300000D01*
X52500000Y-72299999D01*
X52500000Y-71309489D01*
X52471683Y-71130710D01*
X52415749Y-70958559D01*
X52333568Y-70797269D01*
X52333566Y-70797265D01*
X52227175Y-70650830D01*
X52099169Y-70522824D01*
X51952734Y-70416433D01*
X51952730Y-70416431D01*
X51791440Y-70334250D01*
X51619289Y-70278316D01*
X51550000Y-70267341D01*
X51550000Y-71038124D01*
X51542992Y-71034078D01*
X51415826Y-71000003D01*
X51284174Y-71000003D01*
X51157008Y-71034078D01*
X51150000Y-71038124D01*
X51150000Y-70267342D01*
X51149999Y-70267341D01*
X51080710Y-70278316D01*
X50908559Y-70334250D01*
X50747269Y-70416431D01*
X50747265Y-70416433D01*
X50600830Y-70522824D01*
X50472824Y-70650830D01*
X50366433Y-70797265D01*
X50366431Y-70797269D01*
X50284250Y-70958559D01*
X50228316Y-71130710D01*
X50200000Y-71309489D01*
X38325500Y-71309489D01*
X38325500Y-70175834D01*
X38344407Y-70117643D01*
X38354490Y-70105836D01*
X39058747Y-69401579D01*
X44149500Y-69401579D01*
X44149500Y-69598420D01*
X44180289Y-69792821D01*
X44182668Y-69800142D01*
X44241116Y-69980025D01*
X44330476Y-70155405D01*
X44446172Y-70314646D01*
X44585354Y-70453828D01*
X44744595Y-70569524D01*
X44919975Y-70658884D01*
X45107174Y-70719709D01*
X45107175Y-70719709D01*
X45107178Y-70719710D01*
X45301580Y-70750500D01*
X45301583Y-70750500D01*
X47998420Y-70750500D01*
X48192821Y-70719710D01*
X48192822Y-70719709D01*
X48192826Y-70719709D01*
X48380025Y-70658884D01*
X48555405Y-70569524D01*
X48714646Y-70453828D01*
X48853828Y-70314646D01*
X48969524Y-70155405D01*
X49058884Y-69980025D01*
X49119709Y-69792826D01*
X49131439Y-69718764D01*
X49150500Y-69598420D01*
X49150500Y-69456900D01*
X49169407Y-69398709D01*
X49179490Y-69386902D01*
X52320480Y-66245913D01*
X52336069Y-66218912D01*
X52373207Y-66154587D01*
X52400500Y-66052727D01*
X52400500Y-64687260D01*
X52419407Y-64629069D01*
X52468907Y-64593105D01*
X52530093Y-64593105D01*
X52554496Y-64604942D01*
X52644505Y-64665084D01*
X52781087Y-64721658D01*
X52926082Y-64750500D01*
X52926083Y-64750500D01*
X53073917Y-64750500D01*
X53073918Y-64750500D01*
X53218913Y-64721658D01*
X53355495Y-64665084D01*
X53478416Y-64582951D01*
X53582951Y-64478416D01*
X53665084Y-64355495D01*
X53721658Y-64218913D01*
X53750500Y-64073918D01*
X53750500Y-63926082D01*
X53721658Y-63781087D01*
X53665084Y-63644505D01*
X53582951Y-63521584D01*
X53478416Y-63417049D01*
X53355495Y-63334916D01*
X53355493Y-63334915D01*
X53218914Y-63278342D01*
X53073918Y-63249500D01*
X52926082Y-63249500D01*
X52926081Y-63249500D01*
X52781085Y-63278342D01*
X52644505Y-63334915D01*
X52554502Y-63395054D01*
X52495613Y-63411663D01*
X52438210Y-63390485D01*
X52404217Y-63339612D01*
X52400500Y-63312739D01*
X52400500Y-60560452D01*
X52419407Y-60502261D01*
X52429497Y-60490448D01*
X52505268Y-60414677D01*
X52505276Y-60414669D01*
X52576465Y-60308127D01*
X52625501Y-60189744D01*
X52650500Y-60064069D01*
X52650500Y-59935931D01*
X52625501Y-59810256D01*
X52576465Y-59691873D01*
X52576463Y-59691870D01*
X52576461Y-59691866D01*
X52544815Y-59644505D01*
X52505276Y-59585331D01*
X52414669Y-59494724D01*
X52372226Y-59466365D01*
X52308133Y-59423538D01*
X52308125Y-59423534D01*
X52189747Y-59374500D01*
X52189745Y-59374499D01*
X52189744Y-59374499D01*
X52064069Y-59349500D01*
X51935931Y-59349500D01*
X51935930Y-59349500D01*
X51873093Y-59361999D01*
X51810256Y-59374499D01*
X51810255Y-59374499D01*
X51810252Y-59374500D01*
X51691874Y-59423534D01*
X51691866Y-59423538D01*
X51585331Y-59494724D01*
X51585327Y-59494727D01*
X51494727Y-59585327D01*
X51494724Y-59585331D01*
X51423538Y-59691866D01*
X51423534Y-59691874D01*
X51374500Y-59810252D01*
X51374499Y-59810257D01*
X51349500Y-59935930D01*
X51349500Y-60064069D01*
X51374499Y-60189742D01*
X51374500Y-60189747D01*
X51423534Y-60308125D01*
X51423538Y-60308133D01*
X51458522Y-60360489D01*
X51494724Y-60414669D01*
X51494727Y-60414672D01*
X51494731Y-60414677D01*
X51570503Y-60490448D01*
X51598281Y-60544964D01*
X51599500Y-60560452D01*
X51599500Y-65793098D01*
X51580593Y-65851289D01*
X51570504Y-65863102D01*
X48871043Y-68562562D01*
X48816526Y-68590339D01*
X48756094Y-68580768D01*
X48731038Y-68562564D01*
X48714646Y-68546172D01*
X48555405Y-68430476D01*
X48555404Y-68430475D01*
X48555402Y-68430474D01*
X48380025Y-68341116D01*
X48192821Y-68280289D01*
X47998420Y-68249500D01*
X47998417Y-68249500D01*
X45301583Y-68249500D01*
X45301580Y-68249500D01*
X45107178Y-68280289D01*
X44919974Y-68341116D01*
X44744597Y-68430474D01*
X44585355Y-68546171D01*
X44446171Y-68685355D01*
X44330474Y-68844597D01*
X44241116Y-69019974D01*
X44180289Y-69207178D01*
X44149500Y-69401579D01*
X39058747Y-69401579D01*
X47260465Y-61199862D01*
X47303318Y-61125639D01*
X47325500Y-61042853D01*
X47325500Y-60957147D01*
X47325500Y-57926081D01*
X55249500Y-57926081D01*
X55249500Y-77073918D01*
X55278342Y-77218914D01*
X55330778Y-77345505D01*
X55334916Y-77355495D01*
X55417049Y-77478416D01*
X55521584Y-77582951D01*
X55644505Y-77665084D01*
X55781087Y-77721658D01*
X55926082Y-77750500D01*
X55926083Y-77750500D01*
X68073917Y-77750500D01*
X68073918Y-77750500D01*
X68218913Y-77721658D01*
X68355495Y-77665084D01*
X68478416Y-77582951D01*
X68582951Y-77478416D01*
X68665084Y-77355495D01*
X68721658Y-77218913D01*
X68750500Y-77073918D01*
X68750500Y-76926082D01*
X68750500Y-76926081D01*
X77249500Y-76926081D01*
X77249500Y-77073918D01*
X77278342Y-77218914D01*
X77330778Y-77345505D01*
X77334916Y-77355495D01*
X77417049Y-77478416D01*
X77521584Y-77582951D01*
X77644505Y-77665084D01*
X77781087Y-77721658D01*
X77926082Y-77750500D01*
X77926083Y-77750500D01*
X83073917Y-77750500D01*
X83073918Y-77750500D01*
X83218913Y-77721658D01*
X83355495Y-77665084D01*
X83478416Y-77582951D01*
X83582951Y-77478416D01*
X83665084Y-77355495D01*
X83721658Y-77218913D01*
X83750500Y-77073918D01*
X83750500Y-76926082D01*
X83750500Y-76926081D01*
X88249500Y-76926081D01*
X88249500Y-77073918D01*
X88278342Y-77218914D01*
X88330778Y-77345505D01*
X88334916Y-77355495D01*
X88417049Y-77478416D01*
X88521584Y-77582951D01*
X88644505Y-77665084D01*
X88781087Y-77721658D01*
X88926082Y-77750500D01*
X88926083Y-77750500D01*
X91396961Y-77750500D01*
X91396962Y-77750500D01*
X91541957Y-77721658D01*
X91678539Y-77665084D01*
X91727773Y-77632186D01*
X91801460Y-77582952D01*
X93750498Y-75633911D01*
X93805013Y-75606136D01*
X93865445Y-75615707D01*
X93908710Y-75658972D01*
X93918653Y-75716839D01*
X93899500Y-75862324D01*
X93899500Y-76137675D01*
X93914222Y-76249500D01*
X93935440Y-76410666D01*
X93954974Y-76483568D01*
X94006704Y-76676631D01*
X94112074Y-76931016D01*
X94249753Y-77169482D01*
X94346837Y-77296005D01*
X94417372Y-77387928D01*
X94612072Y-77582628D01*
X94830521Y-77750249D01*
X95068979Y-77887923D01*
X95068980Y-77887923D01*
X95068983Y-77887925D01*
X95087061Y-77895413D01*
X95323368Y-77993295D01*
X95589334Y-78064560D01*
X95862326Y-78100500D01*
X95862327Y-78100500D01*
X96137673Y-78100500D01*
X96137674Y-78100500D01*
X96410666Y-78064560D01*
X96676632Y-77993295D01*
X96931021Y-77887923D01*
X97169479Y-77750249D01*
X97387928Y-77582628D01*
X97582628Y-77387928D01*
X97750249Y-77169479D01*
X97887923Y-76931021D01*
X97993295Y-76676632D01*
X98064560Y-76410666D01*
X98100500Y-76137674D01*
X98100500Y-75862326D01*
X98064560Y-75589334D01*
X97993295Y-75323368D01*
X97977788Y-75285932D01*
X97887925Y-75068983D01*
X97872838Y-75042851D01*
X97750249Y-74830521D01*
X97582628Y-74612072D01*
X97387928Y-74417372D01*
X97169479Y-74249751D01*
X96931021Y-74112077D01*
X96931016Y-74112074D01*
X96676631Y-74006704D01*
X96555521Y-73974253D01*
X96410666Y-73935440D01*
X96410659Y-73935439D01*
X96137675Y-73899500D01*
X96137674Y-73899500D01*
X95862326Y-73899500D01*
X95862324Y-73899500D01*
X95716839Y-73918653D01*
X95656678Y-73907503D01*
X95614561Y-73863120D01*
X95606575Y-73802458D01*
X95633911Y-73750498D01*
X97582951Y-71801460D01*
X97665084Y-71678539D01*
X97721658Y-71541957D01*
X97750500Y-71396962D01*
X97750500Y-71249127D01*
X97750500Y-64883125D01*
X97769407Y-64824934D01*
X97779490Y-64813127D01*
X98101158Y-64491460D01*
X98164262Y-64397016D01*
X98183290Y-64368539D01*
X98239864Y-64231957D01*
X98268706Y-64086962D01*
X98268706Y-61868060D01*
X98251406Y-61781087D01*
X98239865Y-61723066D01*
X98183291Y-61586484D01*
X98101158Y-61463563D01*
X97779496Y-61141900D01*
X97751719Y-61087384D01*
X97750500Y-61071897D01*
X97750500Y-57926083D01*
X97750500Y-57926082D01*
X97721658Y-57781087D01*
X97665084Y-57644505D01*
X97582951Y-57521584D01*
X97478416Y-57417049D01*
X97355495Y-57334916D01*
X97355493Y-57334915D01*
X97218914Y-57278342D01*
X97073918Y-57249500D01*
X96926082Y-57249500D01*
X96926081Y-57249500D01*
X96781085Y-57278342D01*
X96644506Y-57334915D01*
X96521585Y-57417048D01*
X96417048Y-57521585D01*
X96334915Y-57644506D01*
X96278342Y-57781085D01*
X96249500Y-57926081D01*
X96249500Y-61497690D01*
X96278340Y-61642680D01*
X96278342Y-61642686D01*
X96287620Y-61665084D01*
X96334915Y-61779265D01*
X96353322Y-61806812D01*
X96353323Y-61806814D01*
X96394246Y-61868061D01*
X96417048Y-61902186D01*
X96738711Y-62223849D01*
X96766487Y-62278364D01*
X96767706Y-62293851D01*
X96767706Y-63661168D01*
X96748799Y-63719359D01*
X96738710Y-63731171D01*
X96417052Y-64052829D01*
X96417047Y-64052835D01*
X96394246Y-64086961D01*
X96334914Y-64175757D01*
X96278342Y-64312335D01*
X96249500Y-64457331D01*
X96249500Y-70971168D01*
X96230593Y-71029359D01*
X96220504Y-71041172D01*
X92617989Y-74643686D01*
X92563472Y-74671463D01*
X92503040Y-74661892D01*
X92459775Y-74618627D01*
X92450204Y-74558195D01*
X92453831Y-74543089D01*
X92512321Y-74363077D01*
X92550500Y-74122030D01*
X92550500Y-73877969D01*
X92512322Y-73636928D01*
X92489219Y-73565824D01*
X92436904Y-73404815D01*
X92348769Y-73231840D01*
X92326107Y-73187362D01*
X92233910Y-73060464D01*
X92182655Y-72989917D01*
X92010083Y-72817345D01*
X91859128Y-72707670D01*
X91812637Y-72673892D01*
X91595185Y-72563096D01*
X91363071Y-72487677D01*
X91122030Y-72449500D01*
X91122027Y-72449500D01*
X90877973Y-72449500D01*
X90877970Y-72449500D01*
X90636928Y-72487677D01*
X90404814Y-72563096D01*
X90187362Y-72673892D01*
X89989918Y-72817344D01*
X89817344Y-72989918D01*
X89673892Y-73187362D01*
X89563096Y-73404814D01*
X89487677Y-73636928D01*
X89449500Y-73877969D01*
X89449500Y-74122030D01*
X89487677Y-74363071D01*
X89563096Y-74595185D01*
X89673892Y-74812637D01*
X89712062Y-74865173D01*
X89817345Y-75010083D01*
X89989917Y-75182655D01*
X90083297Y-75250499D01*
X90187362Y-75326107D01*
X90239480Y-75352662D01*
X90404815Y-75436904D01*
X90636924Y-75512321D01*
X90636925Y-75512321D01*
X90636928Y-75512322D01*
X90877970Y-75550500D01*
X90877973Y-75550500D01*
X91122030Y-75550500D01*
X91363077Y-75512321D01*
X91543089Y-75453831D01*
X91604274Y-75453830D01*
X91653774Y-75489794D01*
X91672682Y-75547984D01*
X91653775Y-75606175D01*
X91643686Y-75617989D01*
X91041172Y-76220504D01*
X90986655Y-76248281D01*
X90971168Y-76249500D01*
X88926081Y-76249500D01*
X88781085Y-76278342D01*
X88644506Y-76334915D01*
X88521585Y-76417048D01*
X88417048Y-76521585D01*
X88334915Y-76644506D01*
X88278342Y-76781085D01*
X88249500Y-76926081D01*
X83750500Y-76926081D01*
X83721658Y-76781087D01*
X83665084Y-76644505D01*
X83582951Y-76521584D01*
X83478416Y-76417049D01*
X83355495Y-76334916D01*
X83355493Y-76334915D01*
X83218914Y-76278342D01*
X83073918Y-76249500D01*
X77926082Y-76249500D01*
X77926081Y-76249500D01*
X77781085Y-76278342D01*
X77644506Y-76334915D01*
X77521585Y-76417048D01*
X77417048Y-76521585D01*
X77334915Y-76644506D01*
X77278342Y-76781085D01*
X77249500Y-76926081D01*
X68750500Y-76926081D01*
X68721658Y-76781087D01*
X68665084Y-76644505D01*
X68582951Y-76521584D01*
X68478416Y-76417049D01*
X68355495Y-76334916D01*
X68355493Y-76334915D01*
X68218914Y-76278342D01*
X68073918Y-76249500D01*
X56849500Y-76249500D01*
X56791309Y-76230593D01*
X56755345Y-76181093D01*
X56750500Y-76150500D01*
X56750500Y-72902129D01*
X64449500Y-72902129D01*
X64449500Y-75097866D01*
X64449501Y-75097870D01*
X64455908Y-75157480D01*
X64455909Y-75157485D01*
X64506202Y-75292329D01*
X64592450Y-75407541D01*
X64592454Y-75407546D01*
X64592457Y-75407548D01*
X64592458Y-75407549D01*
X64707670Y-75493797D01*
X64842511Y-75544089D01*
X64842512Y-75544089D01*
X64842517Y-75544091D01*
X64902127Y-75550500D01*
X67097872Y-75550499D01*
X67157483Y-75544091D01*
X67249532Y-75509759D01*
X67292329Y-75493797D01*
X67292329Y-75493796D01*
X67292331Y-75493796D01*
X67407546Y-75407546D01*
X67493796Y-75292331D01*
X67544091Y-75157483D01*
X67550500Y-75097873D01*
X67550499Y-73877969D01*
X69449500Y-73877969D01*
X69449500Y-74122030D01*
X69487677Y-74363071D01*
X69563096Y-74595185D01*
X69673892Y-74812637D01*
X69712062Y-74865173D01*
X69817345Y-75010083D01*
X69989917Y-75182655D01*
X70083297Y-75250499D01*
X70187362Y-75326107D01*
X70239480Y-75352662D01*
X70404815Y-75436904D01*
X70636924Y-75512321D01*
X70636925Y-75512321D01*
X70636928Y-75512322D01*
X70877970Y-75550500D01*
X70877973Y-75550500D01*
X71122030Y-75550500D01*
X71363071Y-75512322D01*
X71363072Y-75512321D01*
X71363076Y-75512321D01*
X71595185Y-75436904D01*
X71812639Y-75326106D01*
X72010083Y-75182655D01*
X72182655Y-75010083D01*
X72326106Y-74812639D01*
X72436904Y-74595185D01*
X72512321Y-74363076D01*
X72530270Y-74249753D01*
X72550500Y-74122030D01*
X72550500Y-73877969D01*
X72512322Y-73636928D01*
X72489219Y-73565824D01*
X72436904Y-73404815D01*
X72348769Y-73231840D01*
X72326107Y-73187362D01*
X72233910Y-73060464D01*
X72182655Y-72989917D01*
X72094867Y-72902129D01*
X84449500Y-72902129D01*
X84449500Y-75097866D01*
X84449501Y-75097870D01*
X84455908Y-75157480D01*
X84455909Y-75157485D01*
X84506202Y-75292329D01*
X84592450Y-75407541D01*
X84592454Y-75407546D01*
X84592457Y-75407548D01*
X84592458Y-75407549D01*
X84707670Y-75493797D01*
X84842511Y-75544089D01*
X84842512Y-75544089D01*
X84842517Y-75544091D01*
X84902127Y-75550500D01*
X87097872Y-75550499D01*
X87157483Y-75544091D01*
X87249532Y-75509759D01*
X87292329Y-75493797D01*
X87292329Y-75493796D01*
X87292331Y-75493796D01*
X87407546Y-75407546D01*
X87493796Y-75292331D01*
X87544091Y-75157483D01*
X87550500Y-75097873D01*
X87550499Y-72902128D01*
X87544091Y-72842517D01*
X87541256Y-72834915D01*
X87493797Y-72707670D01*
X87407549Y-72592458D01*
X87407548Y-72592457D01*
X87407546Y-72592454D01*
X87387590Y-72577515D01*
X87292329Y-72506202D01*
X87157488Y-72455910D01*
X87157483Y-72455909D01*
X87157481Y-72455908D01*
X87157477Y-72455908D01*
X87120995Y-72451986D01*
X87097873Y-72449500D01*
X87097870Y-72449500D01*
X84902133Y-72449500D01*
X84902129Y-72449500D01*
X84902128Y-72449501D01*
X84894949Y-72450272D01*
X84842519Y-72455908D01*
X84842514Y-72455909D01*
X84707670Y-72506202D01*
X84592458Y-72592450D01*
X84592450Y-72592458D01*
X84506202Y-72707670D01*
X84455910Y-72842511D01*
X84455908Y-72842522D01*
X84449500Y-72902129D01*
X72094867Y-72902129D01*
X72010083Y-72817345D01*
X71859128Y-72707670D01*
X71812637Y-72673892D01*
X71595185Y-72563096D01*
X71363071Y-72487677D01*
X71122030Y-72449500D01*
X71122027Y-72449500D01*
X70877973Y-72449500D01*
X70877970Y-72449500D01*
X70636928Y-72487677D01*
X70404814Y-72563096D01*
X70187362Y-72673892D01*
X69989918Y-72817344D01*
X69817344Y-72989918D01*
X69673892Y-73187362D01*
X69563096Y-73404814D01*
X69487677Y-73636928D01*
X69449500Y-73877969D01*
X67550499Y-73877969D01*
X67550499Y-72902128D01*
X67544091Y-72842517D01*
X67541256Y-72834915D01*
X67493797Y-72707670D01*
X67407549Y-72592458D01*
X67407548Y-72592457D01*
X67407546Y-72592454D01*
X67387590Y-72577515D01*
X67292329Y-72506202D01*
X67157488Y-72455910D01*
X67157483Y-72455909D01*
X67157481Y-72455908D01*
X67157477Y-72455908D01*
X67120995Y-72451986D01*
X67097873Y-72449500D01*
X67097870Y-72449500D01*
X64902133Y-72449500D01*
X64902129Y-72449500D01*
X64902128Y-72449501D01*
X64894949Y-72450272D01*
X64842519Y-72455908D01*
X64842514Y-72455909D01*
X64707670Y-72506202D01*
X64592458Y-72592450D01*
X64592450Y-72592458D01*
X64506202Y-72707670D01*
X64455910Y-72842511D01*
X64455908Y-72842522D01*
X64449500Y-72902129D01*
X56750500Y-72902129D01*
X56750500Y-65011492D01*
X65249500Y-65011492D01*
X65249500Y-71073918D01*
X65278342Y-71218914D01*
X65331877Y-71348159D01*
X65334916Y-71355495D01*
X65417049Y-71478416D01*
X65521584Y-71582951D01*
X65644505Y-71665084D01*
X65781087Y-71721658D01*
X65926082Y-71750500D01*
X65926083Y-71750500D01*
X66073917Y-71750500D01*
X66073918Y-71750500D01*
X66218913Y-71721658D01*
X66355495Y-71665084D01*
X66478416Y-71582951D01*
X66582951Y-71478416D01*
X66665084Y-71355495D01*
X66721658Y-71218913D01*
X66750500Y-71073918D01*
X66750500Y-65926082D01*
X77249500Y-65926082D01*
X77249500Y-66073918D01*
X77278342Y-66218913D01*
X77334916Y-66355495D01*
X77417049Y-66478416D01*
X77521584Y-66582951D01*
X77644505Y-66665084D01*
X77781087Y-66721658D01*
X77926082Y-66750500D01*
X85648124Y-66750500D01*
X85706315Y-66769407D01*
X85718128Y-66779496D01*
X90521584Y-71582952D01*
X90595268Y-71632184D01*
X90595269Y-71632186D01*
X90595270Y-71632186D01*
X90644505Y-71665084D01*
X90781087Y-71721658D01*
X90926082Y-71750500D01*
X90926083Y-71750500D01*
X91073917Y-71750500D01*
X91073918Y-71750500D01*
X91218913Y-71721658D01*
X91355495Y-71665084D01*
X91478416Y-71582952D01*
X91582952Y-71478416D01*
X91665084Y-71355495D01*
X91721658Y-71218913D01*
X91750500Y-71073918D01*
X91750500Y-70926083D01*
X91745411Y-70900496D01*
X91721658Y-70781087D01*
X91665085Y-70644507D01*
X91665085Y-70644506D01*
X91632186Y-70595270D01*
X91632185Y-70595268D01*
X91582956Y-70521589D01*
X91582954Y-70521587D01*
X91582952Y-70521584D01*
X86478416Y-65417048D01*
X86399034Y-65364008D01*
X86355495Y-65334916D01*
X86355494Y-65334915D01*
X86355492Y-65334914D01*
X86218914Y-65278342D01*
X86073918Y-65249500D01*
X77926082Y-65249500D01*
X77926081Y-65249500D01*
X77781085Y-65278342D01*
X77644506Y-65334915D01*
X77521585Y-65417048D01*
X77417048Y-65521585D01*
X77334915Y-65644506D01*
X77278342Y-65781085D01*
X77262028Y-65863102D01*
X77249500Y-65926082D01*
X66750500Y-65926082D01*
X66750500Y-65545996D01*
X66758036Y-65508110D01*
X66777757Y-65460500D01*
X66807069Y-65389735D01*
X66835911Y-65244740D01*
X66835911Y-65096904D01*
X66807069Y-64951909D01*
X66750495Y-64815327D01*
X66668362Y-64692406D01*
X66631549Y-64655593D01*
X66575461Y-64599504D01*
X66575455Y-64599499D01*
X66478421Y-64502463D01*
X66478411Y-64502454D01*
X66403986Y-64452727D01*
X66403984Y-64452726D01*
X66374864Y-64433269D01*
X66355496Y-64420327D01*
X66355490Y-64420324D01*
X66218914Y-64363753D01*
X66073918Y-64334911D01*
X65926082Y-64334911D01*
X65926081Y-64334911D01*
X65781085Y-64363753D01*
X65644509Y-64420324D01*
X65644497Y-64420330D01*
X65596016Y-64452726D01*
X65596014Y-64452727D01*
X65521589Y-64502454D01*
X65417043Y-64607000D01*
X65380306Y-64661984D01*
X65380305Y-64661986D01*
X65334919Y-64729908D01*
X65334913Y-64729920D01*
X65278342Y-64866496D01*
X65249500Y-65011492D01*
X56750500Y-65011492D01*
X56750500Y-58849500D01*
X56769407Y-58791309D01*
X56818907Y-58755345D01*
X56849500Y-58750500D01*
X57073917Y-58750500D01*
X57073918Y-58750500D01*
X57218913Y-58721658D01*
X57355495Y-58665084D01*
X57478416Y-58582951D01*
X57582951Y-58478416D01*
X57665084Y-58355495D01*
X57721658Y-58218913D01*
X57750500Y-58073918D01*
X57750500Y-57926082D01*
X57721658Y-57781087D01*
X57665084Y-57644505D01*
X57582951Y-57521584D01*
X57478416Y-57417049D01*
X57355495Y-57334916D01*
X57355493Y-57334915D01*
X57218914Y-57278342D01*
X57073918Y-57249500D01*
X56073918Y-57249500D01*
X55926082Y-57249500D01*
X55926081Y-57249500D01*
X55781085Y-57278342D01*
X55644506Y-57334915D01*
X55521585Y-57417048D01*
X55417048Y-57521585D01*
X55334915Y-57644506D01*
X55278342Y-57781085D01*
X55249500Y-57926081D01*
X47325500Y-57926081D01*
X47325500Y-50927525D01*
X60449500Y-50927525D01*
X60449500Y-51072475D01*
X60464251Y-51127525D01*
X60487017Y-51212489D01*
X60559487Y-51338010D01*
X60559489Y-51338012D01*
X60559491Y-51338015D01*
X60661985Y-51440509D01*
X60661987Y-51440510D01*
X60661989Y-51440512D01*
X60787511Y-51512982D01*
X60787512Y-51512982D01*
X60787515Y-51512984D01*
X60927525Y-51550500D01*
X60927526Y-51550500D01*
X61049166Y-51550500D01*
X61107357Y-51569407D01*
X61119170Y-51579496D01*
X61739533Y-52199859D01*
X61739535Y-52199862D01*
X61800138Y-52260465D01*
X61874362Y-52303318D01*
X61874364Y-52303318D01*
X61874365Y-52303319D01*
X61915755Y-52314409D01*
X61957145Y-52325500D01*
X61957147Y-52325501D01*
X61957148Y-52325501D01*
X62048916Y-52325501D01*
X62048932Y-52325500D01*
X63975637Y-52325500D01*
X64033828Y-52344407D01*
X64045641Y-52354496D01*
X64926610Y-53235465D01*
X64926612Y-53235466D01*
X64926613Y-53235467D01*
X64926614Y-53235468D01*
X65000829Y-53278316D01*
X65000827Y-53278316D01*
X65000831Y-53278317D01*
X65000833Y-53278318D01*
X65083619Y-53300500D01*
X65083621Y-53300500D01*
X66741097Y-53300500D01*
X66799288Y-53319407D01*
X66835252Y-53368907D01*
X66835252Y-53430093D01*
X66799288Y-53479593D01*
X66790597Y-53485236D01*
X66661989Y-53559487D01*
X66559487Y-53661989D01*
X66487017Y-53787510D01*
X66449500Y-53927525D01*
X66449500Y-54072474D01*
X66487017Y-54212489D01*
X66559487Y-54338010D01*
X66559489Y-54338012D01*
X66559491Y-54338015D01*
X66661985Y-54440509D01*
X66661987Y-54440510D01*
X66661989Y-54440512D01*
X66787511Y-54512982D01*
X66787512Y-54512982D01*
X66787515Y-54512984D01*
X66927525Y-54550500D01*
X66927526Y-54550500D01*
X67072474Y-54550500D01*
X67072475Y-54550500D01*
X67212485Y-54512984D01*
X67212487Y-54512982D01*
X67212489Y-54512982D01*
X67338010Y-54440512D01*
X67338010Y-54440511D01*
X67338015Y-54440509D01*
X67424029Y-54354494D01*
X67478544Y-54326719D01*
X67494031Y-54325500D01*
X68824165Y-54325500D01*
X68882356Y-54344407D01*
X68894169Y-54354496D01*
X69420504Y-54880830D01*
X69448281Y-54935347D01*
X69449500Y-54950834D01*
X69449500Y-55072474D01*
X69487017Y-55212489D01*
X69559487Y-55338010D01*
X69559489Y-55338012D01*
X69559491Y-55338015D01*
X69661985Y-55440509D01*
X69661987Y-55440510D01*
X69661989Y-55440512D01*
X69787511Y-55512982D01*
X69787512Y-55512982D01*
X69787515Y-55512984D01*
X69927525Y-55550500D01*
X69927526Y-55550500D01*
X70072474Y-55550500D01*
X70072475Y-55550500D01*
X70212485Y-55512984D01*
X70212487Y-55512982D01*
X70212489Y-55512982D01*
X70338010Y-55440512D01*
X70338010Y-55440511D01*
X70338015Y-55440509D01*
X70440509Y-55338015D01*
X70485283Y-55260465D01*
X70512982Y-55212489D01*
X70512982Y-55212487D01*
X70512984Y-55212485D01*
X70550500Y-55072475D01*
X70550500Y-54927525D01*
X70512984Y-54787515D01*
X70512982Y-54787512D01*
X70512982Y-54787510D01*
X70440512Y-54661989D01*
X70440510Y-54661987D01*
X70440509Y-54661985D01*
X70338015Y-54559491D01*
X70338012Y-54559489D01*
X70338010Y-54559487D01*
X70212488Y-54487017D01*
X70212489Y-54487017D01*
X70182896Y-54479087D01*
X70072475Y-54449500D01*
X69950834Y-54449500D01*
X69892643Y-54430593D01*
X69880830Y-54420504D01*
X69610826Y-54150500D01*
X69199862Y-53739535D01*
X69199859Y-53739533D01*
X69199857Y-53739531D01*
X69125642Y-53696683D01*
X69125644Y-53696683D01*
X69093521Y-53688076D01*
X69042853Y-53674500D01*
X69042851Y-53674500D01*
X67494031Y-53674500D01*
X67435840Y-53655593D01*
X67424033Y-53645509D01*
X67338015Y-53559491D01*
X67338012Y-53559489D01*
X67338010Y-53559487D01*
X67209403Y-53485236D01*
X67168462Y-53439767D01*
X67162066Y-53378917D01*
X67192659Y-53325929D01*
X67248555Y-53301042D01*
X67258903Y-53300500D01*
X72446710Y-53300500D01*
X72446712Y-53300500D01*
X72529498Y-53278318D01*
X72529500Y-53278316D01*
X72529502Y-53278316D01*
X72603716Y-53235468D01*
X72603716Y-53235467D01*
X72603721Y-53235465D01*
X72706706Y-53132480D01*
X72809691Y-53029496D01*
X72864207Y-53001719D01*
X72879694Y-53000500D01*
X74322446Y-53000500D01*
X74322448Y-53000500D01*
X74405234Y-52978318D01*
X74405236Y-52978316D01*
X74405238Y-52978316D01*
X74479452Y-52935468D01*
X74479452Y-52935467D01*
X74479457Y-52935465D01*
X74837341Y-52577579D01*
X74891856Y-52549803D01*
X74920869Y-52551334D01*
X74921091Y-52549653D01*
X74927524Y-52550500D01*
X74927525Y-52550500D01*
X75072474Y-52550500D01*
X75072475Y-52550500D01*
X75212485Y-52512984D01*
X75212487Y-52512982D01*
X75212489Y-52512982D01*
X75338010Y-52440512D01*
X75338010Y-52440511D01*
X75338015Y-52440509D01*
X75440509Y-52338015D01*
X75460541Y-52303319D01*
X75512982Y-52212489D01*
X75512982Y-52212487D01*
X75512984Y-52212485D01*
X75550500Y-52072475D01*
X75550500Y-51927525D01*
X75512984Y-51787515D01*
X75512982Y-51787512D01*
X75512982Y-51787510D01*
X75440512Y-51661989D01*
X75440510Y-51661987D01*
X75440509Y-51661985D01*
X75338015Y-51559491D01*
X75338012Y-51559489D01*
X75338010Y-51559487D01*
X75212488Y-51487017D01*
X75212489Y-51487017D01*
X75180382Y-51478414D01*
X75072475Y-51449500D01*
X74927525Y-51449500D01*
X74865790Y-51466041D01*
X74787510Y-51487017D01*
X74661989Y-51559487D01*
X74661988Y-51559488D01*
X74661985Y-51559490D01*
X74661985Y-51559491D01*
X74570001Y-51651474D01*
X74515487Y-51679250D01*
X74455055Y-51669679D01*
X74429999Y-51651475D01*
X74338015Y-51559491D01*
X74338012Y-51559489D01*
X74338010Y-51559487D01*
X74212488Y-51487017D01*
X74212489Y-51487017D01*
X74180382Y-51478414D01*
X74072475Y-51449500D01*
X73927525Y-51449500D01*
X73865790Y-51466041D01*
X73787510Y-51487017D01*
X73661989Y-51559487D01*
X73661988Y-51559488D01*
X73661985Y-51559490D01*
X73661985Y-51559491D01*
X73575970Y-51645505D01*
X73521456Y-51673281D01*
X73505969Y-51674500D01*
X72997448Y-51674500D01*
X72911742Y-51674500D01*
X72861073Y-51688076D01*
X72828951Y-51696683D01*
X72754737Y-51739531D01*
X72754732Y-51739535D01*
X72315562Y-52178704D01*
X72261046Y-52206481D01*
X72200614Y-52196910D01*
X72157349Y-52153645D01*
X72147778Y-52093213D01*
X72159823Y-52059199D01*
X72160506Y-52058015D01*
X72160508Y-52058014D01*
X72232983Y-51932484D01*
X72270499Y-51792474D01*
X72270499Y-51647524D01*
X72232983Y-51507514D01*
X72232981Y-51507511D01*
X72232981Y-51507509D01*
X72160511Y-51381988D01*
X72160509Y-51381986D01*
X72160508Y-51381984D01*
X72058014Y-51279490D01*
X72058011Y-51279488D01*
X72058009Y-51279486D01*
X71932487Y-51207016D01*
X71932488Y-51207016D01*
X71902895Y-51199086D01*
X71792474Y-51169499D01*
X71647524Y-51169499D01*
X71585789Y-51186040D01*
X71507509Y-51207016D01*
X71381988Y-51279486D01*
X71279486Y-51381988D01*
X71207016Y-51507509D01*
X71207015Y-51507514D01*
X71181931Y-51601124D01*
X71148609Y-51652437D01*
X71091487Y-51674364D01*
X71086306Y-51674500D01*
X66625874Y-51674500D01*
X66567683Y-51655593D01*
X66531719Y-51606093D01*
X66531719Y-51544907D01*
X66555868Y-51505498D01*
X66582951Y-51478416D01*
X66665084Y-51355495D01*
X66721658Y-51218913D01*
X66750500Y-51073918D01*
X66750500Y-50926082D01*
X66721658Y-50781087D01*
X66665084Y-50644505D01*
X66582951Y-50521584D01*
X66478416Y-50417049D01*
X66355495Y-50334916D01*
X66355493Y-50334915D01*
X66218914Y-50278342D01*
X66073918Y-50249500D01*
X65926082Y-50249500D01*
X65926081Y-50249500D01*
X65781085Y-50278342D01*
X65644506Y-50334915D01*
X65521585Y-50417048D01*
X65417048Y-50521585D01*
X65334915Y-50644506D01*
X65278342Y-50781085D01*
X65249500Y-50926081D01*
X65249500Y-51073918D01*
X65278342Y-51218914D01*
X65334915Y-51355493D01*
X65334916Y-51355495D01*
X65417049Y-51478416D01*
X65444131Y-51505498D01*
X65471907Y-51560013D01*
X65462336Y-51620445D01*
X65419071Y-51663710D01*
X65374126Y-51674500D01*
X65175834Y-51674500D01*
X65117643Y-51655593D01*
X65105830Y-51645504D01*
X62579496Y-49119170D01*
X62551719Y-49064653D01*
X62550500Y-49049166D01*
X62550500Y-48927525D01*
X62536255Y-48874362D01*
X62512984Y-48787515D01*
X62512982Y-48787512D01*
X62512982Y-48787510D01*
X62440512Y-48661989D01*
X62440510Y-48661987D01*
X62440509Y-48661985D01*
X62338015Y-48559491D01*
X62338012Y-48559489D01*
X62338010Y-48559487D01*
X62212488Y-48487017D01*
X62212489Y-48487017D01*
X62158453Y-48472538D01*
X62072475Y-48449500D01*
X61927525Y-48449500D01*
X61865790Y-48466041D01*
X61787510Y-48487017D01*
X61661989Y-48559487D01*
X61559487Y-48661989D01*
X61487017Y-48787510D01*
X61449500Y-48927525D01*
X61449500Y-49072474D01*
X61487017Y-49212489D01*
X61559487Y-49338010D01*
X61559489Y-49338012D01*
X61559491Y-49338015D01*
X61661985Y-49440509D01*
X61661987Y-49440510D01*
X61661989Y-49440512D01*
X61787511Y-49512982D01*
X61787512Y-49512982D01*
X61787515Y-49512984D01*
X61927525Y-49550500D01*
X61927526Y-49550500D01*
X62049166Y-49550500D01*
X62107357Y-49569407D01*
X62119170Y-49579496D01*
X63045169Y-50505496D01*
X63072946Y-50560013D01*
X63063375Y-50620445D01*
X63020110Y-50663710D01*
X62975165Y-50674500D01*
X62494031Y-50674500D01*
X62435840Y-50655593D01*
X62424033Y-50645509D01*
X62338015Y-50559491D01*
X62338012Y-50559489D01*
X62338010Y-50559487D01*
X62212488Y-50487017D01*
X62212489Y-50487017D01*
X62180114Y-50478342D01*
X62072475Y-50449500D01*
X61927525Y-50449500D01*
X61865790Y-50466041D01*
X61787510Y-50487017D01*
X61661989Y-50559487D01*
X61661988Y-50559488D01*
X61661985Y-50559490D01*
X61661985Y-50559491D01*
X61570001Y-50651474D01*
X61515487Y-50679250D01*
X61455055Y-50669679D01*
X61429999Y-50651475D01*
X61338015Y-50559491D01*
X61338012Y-50559489D01*
X61338010Y-50559487D01*
X61212488Y-50487017D01*
X61212489Y-50487017D01*
X61180114Y-50478342D01*
X61072475Y-50449500D01*
X60927525Y-50449500D01*
X60865790Y-50466041D01*
X60787510Y-50487017D01*
X60661989Y-50559487D01*
X60559487Y-50661989D01*
X60487017Y-50787510D01*
X60466207Y-50865173D01*
X60449500Y-50927525D01*
X47325500Y-50927525D01*
X47325500Y-48175835D01*
X47344407Y-48117644D01*
X47354496Y-48105831D01*
X49105831Y-46354496D01*
X49160348Y-46326719D01*
X49175835Y-46325500D01*
X53505969Y-46325500D01*
X53564160Y-46344407D01*
X53575966Y-46354490D01*
X53661985Y-46440509D01*
X53661987Y-46440510D01*
X53661989Y-46440512D01*
X53787511Y-46512982D01*
X53787512Y-46512982D01*
X53787515Y-46512984D01*
X53927525Y-46550500D01*
X53927526Y-46550500D01*
X54072474Y-46550500D01*
X54072475Y-46550500D01*
X54212485Y-46512984D01*
X54212487Y-46512982D01*
X54212489Y-46512982D01*
X54338010Y-46440512D01*
X54338010Y-46440511D01*
X54338015Y-46440509D01*
X54440509Y-46338015D01*
X54447735Y-46325500D01*
X54512982Y-46212489D01*
X54512982Y-46212487D01*
X54512984Y-46212485D01*
X54550500Y-46072475D01*
X54550500Y-45927525D01*
X54512984Y-45787515D01*
X54512982Y-45787512D01*
X54512982Y-45787510D01*
X54440512Y-45661989D01*
X54440510Y-45661987D01*
X54440509Y-45661985D01*
X54338015Y-45559491D01*
X54338012Y-45559489D01*
X54338010Y-45559487D01*
X54212488Y-45487017D01*
X54212489Y-45487017D01*
X54180379Y-45478413D01*
X54072475Y-45449500D01*
X53927525Y-45449500D01*
X53865790Y-45466041D01*
X53787510Y-45487017D01*
X53661989Y-45559487D01*
X53661988Y-45559488D01*
X53661985Y-45559490D01*
X53661985Y-45559491D01*
X53575970Y-45645505D01*
X53521456Y-45673281D01*
X53505969Y-45674500D01*
X49042853Y-45674500D01*
X48957147Y-45674500D01*
X48906478Y-45688076D01*
X48874356Y-45696683D01*
X48800142Y-45739531D01*
X46739531Y-47800142D01*
X46696683Y-47874356D01*
X46682437Y-47927525D01*
X46682436Y-47927524D01*
X46674500Y-47957144D01*
X46674500Y-60824165D01*
X46655593Y-60882356D01*
X46645504Y-60894169D01*
X37739531Y-69800142D01*
X37696682Y-69874360D01*
X37696681Y-69874360D01*
X37696682Y-69874361D01*
X37674500Y-69957147D01*
X37674500Y-74824165D01*
X37655593Y-74882356D01*
X37645504Y-74894169D01*
X35894169Y-76645504D01*
X35839652Y-76673281D01*
X35824165Y-76674500D01*
X32494031Y-76674500D01*
X32435840Y-76655593D01*
X32424033Y-76645509D01*
X32338015Y-76559491D01*
X32338012Y-76559489D01*
X32338010Y-76559487D01*
X32212488Y-76487017D01*
X32212489Y-76487017D01*
X32182896Y-76479087D01*
X32072475Y-76449500D01*
X31927525Y-76449500D01*
X31865790Y-76466041D01*
X31787510Y-76487017D01*
X31661989Y-76559487D01*
X31559489Y-76661987D01*
X31535236Y-76703995D01*
X31489766Y-76744935D01*
X31428916Y-76751330D01*
X31375928Y-76720737D01*
X31351042Y-76664842D01*
X31350500Y-76654494D01*
X31350500Y-76426083D01*
X31350500Y-76426082D01*
X31321658Y-76281087D01*
X31265084Y-76144505D01*
X31182951Y-76021584D01*
X31078416Y-75917049D01*
X30955495Y-75834916D01*
X30955493Y-75834915D01*
X30818914Y-75778342D01*
X30673918Y-75749500D01*
X30526082Y-75749500D01*
X30526081Y-75749500D01*
X30381085Y-75778342D01*
X30244506Y-75834915D01*
X30121585Y-75917048D01*
X30017048Y-76021585D01*
X29934915Y-76144506D01*
X29878342Y-76281085D01*
X29849500Y-76426081D01*
X19729999Y-76426081D01*
X19729999Y-76270000D01*
X20179999Y-76270000D01*
X20180000Y-76269999D01*
X20180000Y-76086283D01*
X20179999Y-76086279D01*
X20147335Y-75922065D01*
X20083260Y-75767374D01*
X19990240Y-75628159D01*
X19871840Y-75509759D01*
X19732625Y-75416739D01*
X19577934Y-75352664D01*
X19577928Y-75352662D01*
X19530001Y-75343128D01*
X19530000Y-75343129D01*
X19530000Y-75923590D01*
X19484394Y-75897260D01*
X19382661Y-75870001D01*
X19277339Y-75870001D01*
X19175606Y-75897260D01*
X19130000Y-75923590D01*
X19130000Y-75343129D01*
X19129998Y-75343128D01*
X19082071Y-75352662D01*
X19082065Y-75352664D01*
X18927374Y-75416739D01*
X18788159Y-75509759D01*
X18669759Y-75628159D01*
X18576739Y-75767374D01*
X18512664Y-75922065D01*
X18480000Y-76086279D01*
X11519999Y-76086279D01*
X11487335Y-75922065D01*
X11423260Y-75767374D01*
X11330240Y-75628159D01*
X11211840Y-75509759D01*
X11072625Y-75416739D01*
X10917934Y-75352664D01*
X10917928Y-75352662D01*
X10870001Y-75343128D01*
X10870000Y-75343129D01*
X10870000Y-75923590D01*
X10824394Y-75897260D01*
X10722661Y-75870001D01*
X10617339Y-75870001D01*
X10515606Y-75897260D01*
X10470000Y-75923590D01*
X10470000Y-75343129D01*
X10469998Y-75343128D01*
X10422071Y-75352662D01*
X10422065Y-75352664D01*
X10267374Y-75416739D01*
X10128159Y-75509759D01*
X10009759Y-75628159D01*
X9916739Y-75767374D01*
X9852664Y-75922065D01*
X9820000Y-76086279D01*
X6100500Y-76086279D01*
X6100500Y-75862326D01*
X6064560Y-75589334D01*
X5993295Y-75323368D01*
X5977788Y-75285932D01*
X5887925Y-75068983D01*
X5872838Y-75042851D01*
X5750249Y-74830521D01*
X5582628Y-74612072D01*
X5387928Y-74417372D01*
X5169479Y-74249751D01*
X4931021Y-74112077D01*
X4931016Y-74112074D01*
X4676631Y-74006704D01*
X4555521Y-73974253D01*
X4410666Y-73935440D01*
X4410659Y-73935439D01*
X4137675Y-73899500D01*
X4137674Y-73899500D01*
X3862326Y-73899500D01*
X3862324Y-73899500D01*
X3589340Y-73935439D01*
X3589338Y-73935439D01*
X3589334Y-73935440D01*
X3488805Y-73962376D01*
X3323368Y-74006704D01*
X3068983Y-74112074D01*
X2830517Y-74249753D01*
X2612075Y-74417369D01*
X2417369Y-74612075D01*
X2249753Y-74830517D01*
X2112074Y-75068983D01*
X2006704Y-75323368D01*
X1976283Y-75436904D01*
X1935440Y-75589334D01*
X1935439Y-75589338D01*
X1935439Y-75589340D01*
X1899500Y-75862324D01*
X586813Y-75862324D01*
X569793Y-75785551D01*
X568293Y-75777046D01*
X547353Y-75617989D01*
X518184Y-75396433D01*
X517434Y-75387853D01*
X500594Y-75002152D01*
X500500Y-74997834D01*
X500500Y-71806279D01*
X9820000Y-71806279D01*
X9820000Y-72089999D01*
X9820001Y-72090000D01*
X10270001Y-72090000D01*
X10270001Y-72490000D01*
X9820001Y-72490000D01*
X9820000Y-72490001D01*
X9820000Y-72773720D01*
X9852664Y-72937934D01*
X9916739Y-73092625D01*
X10009759Y-73231840D01*
X10128159Y-73350240D01*
X10267374Y-73443260D01*
X10422065Y-73507335D01*
X10470000Y-73516870D01*
X10470000Y-72986409D01*
X10515606Y-73012740D01*
X10617339Y-73039999D01*
X10722661Y-73039999D01*
X10824394Y-73012740D01*
X10870000Y-72986409D01*
X10870000Y-73516869D01*
X10917934Y-73507335D01*
X11072625Y-73443260D01*
X11211840Y-73350240D01*
X11330240Y-73231840D01*
X11423260Y-73092625D01*
X11436581Y-73060464D01*
X11476316Y-73013937D01*
X11535811Y-72999652D01*
X11592339Y-73023065D01*
X11613782Y-73048847D01*
X11659487Y-73128010D01*
X11659489Y-73128012D01*
X11659491Y-73128015D01*
X11761985Y-73230509D01*
X11761987Y-73230510D01*
X11761989Y-73230512D01*
X11887511Y-73302982D01*
X11887512Y-73302982D01*
X11887515Y-73302984D01*
X12027525Y-73340500D01*
X12027526Y-73340500D01*
X12172474Y-73340500D01*
X12172475Y-73340500D01*
X12312485Y-73302984D01*
X12312487Y-73302982D01*
X12312489Y-73302982D01*
X12438010Y-73230512D01*
X12438010Y-73230511D01*
X12438015Y-73230509D01*
X12540509Y-73128015D01*
X12540512Y-73128010D01*
X12612982Y-73002489D01*
X12612982Y-73002487D01*
X12612984Y-73002485D01*
X12650500Y-72862475D01*
X12650500Y-72717525D01*
X17349500Y-72717525D01*
X17349500Y-72862475D01*
X17364123Y-72917048D01*
X17387017Y-73002489D01*
X17459487Y-73128010D01*
X17459489Y-73128012D01*
X17459491Y-73128015D01*
X17561985Y-73230509D01*
X17561987Y-73230510D01*
X17561989Y-73230512D01*
X17687511Y-73302982D01*
X17687512Y-73302982D01*
X17687515Y-73302984D01*
X17827525Y-73340500D01*
X17827526Y-73340500D01*
X17972474Y-73340500D01*
X17972475Y-73340500D01*
X18112485Y-73302984D01*
X18112487Y-73302982D01*
X18112489Y-73302982D01*
X18238010Y-73230512D01*
X18238010Y-73230511D01*
X18238015Y-73230509D01*
X18340509Y-73128015D01*
X18386217Y-73048845D01*
X18431686Y-73007906D01*
X18492536Y-73001510D01*
X18545524Y-73032103D01*
X18563417Y-73060462D01*
X18576738Y-73092623D01*
X18669759Y-73231840D01*
X18788159Y-73350240D01*
X18927374Y-73443260D01*
X19082065Y-73507335D01*
X19130000Y-73516870D01*
X19130000Y-72986409D01*
X19175606Y-73012740D01*
X19277339Y-73039999D01*
X19382661Y-73039999D01*
X19484394Y-73012740D01*
X19530000Y-72986409D01*
X19530000Y-73516869D01*
X19577934Y-73507335D01*
X19732625Y-73443260D01*
X19758335Y-73426081D01*
X29849500Y-73426081D01*
X29849500Y-74573918D01*
X29878342Y-74718914D01*
X29924570Y-74830517D01*
X29934916Y-74855495D01*
X30017049Y-74978416D01*
X30121584Y-75082951D01*
X30244505Y-75165084D01*
X30381087Y-75221658D01*
X30526082Y-75250500D01*
X30526083Y-75250500D01*
X30673917Y-75250500D01*
X30673918Y-75250500D01*
X30818913Y-75221658D01*
X30955495Y-75165084D01*
X31078416Y-75082951D01*
X31182951Y-74978416D01*
X31265084Y-74855495D01*
X31321658Y-74718913D01*
X31350500Y-74573918D01*
X31350500Y-73426082D01*
X31321658Y-73281087D01*
X31265084Y-73144505D01*
X31182951Y-73021584D01*
X31078416Y-72917049D01*
X30955495Y-72834916D01*
X30913075Y-72817345D01*
X30818914Y-72778342D01*
X30673918Y-72749500D01*
X30526082Y-72749500D01*
X30526081Y-72749500D01*
X30381085Y-72778342D01*
X30244506Y-72834915D01*
X30121585Y-72917048D01*
X30017048Y-73021585D01*
X29934915Y-73144506D01*
X29878342Y-73281085D01*
X29849500Y-73426081D01*
X19758335Y-73426081D01*
X19871840Y-73350240D01*
X19990240Y-73231840D01*
X20083260Y-73092625D01*
X20147335Y-72937934D01*
X20179999Y-72773720D01*
X20180000Y-72773716D01*
X20180000Y-72490001D01*
X20179999Y-72490000D01*
X19729999Y-72490000D01*
X19729999Y-72090000D01*
X20179999Y-72090000D01*
X20180000Y-72089999D01*
X20180000Y-71806283D01*
X20179999Y-71806279D01*
X20147334Y-71642064D01*
X20147334Y-71642062D01*
X20108892Y-71549254D01*
X20095213Y-71516230D01*
X32149500Y-71516230D01*
X32149500Y-71683769D01*
X32182183Y-71848079D01*
X32182185Y-71848085D01*
X32246296Y-72002862D01*
X32246297Y-72002863D01*
X32339374Y-72142162D01*
X32457838Y-72260626D01*
X32597137Y-72353703D01*
X32751918Y-72417816D01*
X32916233Y-72450500D01*
X32916234Y-72450500D01*
X33083766Y-72450500D01*
X33083767Y-72450500D01*
X33248082Y-72417816D01*
X33402863Y-72353703D01*
X33542162Y-72260626D01*
X33660626Y-72142162D01*
X33753703Y-72002863D01*
X33817816Y-71848082D01*
X33850500Y-71683767D01*
X33850500Y-71516233D01*
X33817816Y-71351918D01*
X33753703Y-71197137D01*
X33660626Y-71057838D01*
X33542162Y-70939374D01*
X33402863Y-70846297D01*
X33402864Y-70846297D01*
X33402862Y-70846296D01*
X33248085Y-70782185D01*
X33248079Y-70782183D01*
X33083769Y-70749500D01*
X33083767Y-70749500D01*
X32916233Y-70749500D01*
X32916230Y-70749500D01*
X32751920Y-70782183D01*
X32751914Y-70782185D01*
X32597137Y-70846296D01*
X32457838Y-70939374D01*
X32457834Y-70939377D01*
X32339377Y-71057834D01*
X32339374Y-71057838D01*
X32246296Y-71197137D01*
X32182185Y-71351914D01*
X32182184Y-71351918D01*
X32149500Y-71516230D01*
X20095213Y-71516230D01*
X20083260Y-71487374D01*
X19990240Y-71348159D01*
X19871840Y-71229759D01*
X19732625Y-71136739D01*
X19577934Y-71072664D01*
X19577928Y-71072662D01*
X19530001Y-71063128D01*
X19530000Y-71063129D01*
X19530000Y-71593590D01*
X19484394Y-71567260D01*
X19382661Y-71540001D01*
X19277339Y-71540001D01*
X19175606Y-71567260D01*
X19130000Y-71593590D01*
X19130000Y-71063129D01*
X19129998Y-71063128D01*
X19082071Y-71072662D01*
X19082065Y-71072664D01*
X18927374Y-71136739D01*
X18788159Y-71229759D01*
X18669759Y-71348159D01*
X18576739Y-71487374D01*
X18512664Y-71642065D01*
X18480000Y-71806279D01*
X18480000Y-72089999D01*
X18480001Y-72090000D01*
X18930001Y-72090000D01*
X18930001Y-72490000D01*
X18463912Y-72490000D01*
X18442190Y-72501067D01*
X18381758Y-72491493D01*
X18345065Y-72456669D01*
X18344460Y-72457134D01*
X18341523Y-72453306D01*
X18340967Y-72452779D01*
X18340511Y-72451989D01*
X18340509Y-72451985D01*
X18238015Y-72349491D01*
X18238012Y-72349489D01*
X18238010Y-72349487D01*
X18112488Y-72277017D01*
X18112489Y-72277017D01*
X18051317Y-72260626D01*
X17972475Y-72239500D01*
X17827525Y-72239500D01*
X17765790Y-72256041D01*
X17687510Y-72277017D01*
X17561989Y-72349487D01*
X17459487Y-72451989D01*
X17387017Y-72577510D01*
X17361191Y-72673894D01*
X17349500Y-72717525D01*
X12650500Y-72717525D01*
X12612984Y-72577515D01*
X12612982Y-72577512D01*
X12612982Y-72577510D01*
X12540512Y-72451989D01*
X12540510Y-72451987D01*
X12540509Y-72451985D01*
X12438015Y-72349491D01*
X12438012Y-72349489D01*
X12438010Y-72349487D01*
X12312488Y-72277017D01*
X12312489Y-72277017D01*
X12251317Y-72260626D01*
X12172475Y-72239500D01*
X12027525Y-72239500D01*
X11965790Y-72256041D01*
X11887510Y-72277017D01*
X11761989Y-72349487D01*
X11659487Y-72451989D01*
X11659026Y-72452789D01*
X11658534Y-72453231D01*
X11655540Y-72457134D01*
X11654816Y-72456578D01*
X11613555Y-72493728D01*
X11552704Y-72500121D01*
X11534064Y-72490000D01*
X11069999Y-72490000D01*
X11069999Y-72090000D01*
X11519999Y-72090000D01*
X11520000Y-72089999D01*
X11520000Y-71806283D01*
X11519999Y-71806279D01*
X11487335Y-71642065D01*
X11423260Y-71487374D01*
X11330240Y-71348159D01*
X11211840Y-71229759D01*
X11072625Y-71136739D01*
X10917934Y-71072664D01*
X10917928Y-71072662D01*
X10870001Y-71063128D01*
X10870000Y-71063129D01*
X10870000Y-71593590D01*
X10824394Y-71567260D01*
X10722661Y-71540001D01*
X10617339Y-71540001D01*
X10515606Y-71567260D01*
X10470000Y-71593590D01*
X10470000Y-71063129D01*
X10469998Y-71063128D01*
X10422071Y-71072662D01*
X10422065Y-71072664D01*
X10267374Y-71136739D01*
X10128159Y-71229759D01*
X10009759Y-71348159D01*
X9916739Y-71487374D01*
X9852664Y-71642065D01*
X9820000Y-71806279D01*
X500500Y-71806279D01*
X500500Y-69426081D01*
X29849500Y-69426081D01*
X29849500Y-70573918D01*
X29878342Y-70718914D01*
X29931106Y-70846297D01*
X29934916Y-70855495D01*
X30017049Y-70978416D01*
X30121584Y-71082951D01*
X30244505Y-71165084D01*
X30381087Y-71221658D01*
X30526082Y-71250500D01*
X30526083Y-71250500D01*
X30673917Y-71250500D01*
X30673918Y-71250500D01*
X30818913Y-71221658D01*
X30955495Y-71165084D01*
X31078416Y-71082951D01*
X31182951Y-70978416D01*
X31265084Y-70855495D01*
X31321658Y-70718913D01*
X31350500Y-70573918D01*
X31350500Y-69426082D01*
X31321658Y-69281087D01*
X31291044Y-69207178D01*
X31286778Y-69196878D01*
X31265084Y-69144506D01*
X31265084Y-69144505D01*
X31182951Y-69021584D01*
X31078416Y-68917049D01*
X30955495Y-68834916D01*
X30955493Y-68834915D01*
X30818914Y-68778342D01*
X30673918Y-68749500D01*
X30526082Y-68749500D01*
X30526081Y-68749500D01*
X30381085Y-68778342D01*
X30244506Y-68834915D01*
X30121585Y-68917048D01*
X30017048Y-69021585D01*
X29934915Y-69144506D01*
X29878342Y-69281085D01*
X29849500Y-69426081D01*
X500500Y-69426081D01*
X500500Y-68426128D01*
X34650000Y-68426128D01*
X34650000Y-68799999D01*
X34650001Y-68800000D01*
X35149988Y-68800000D01*
X35149988Y-69200000D01*
X34650001Y-69200000D01*
X34650000Y-69200001D01*
X34650000Y-69573871D01*
X34678821Y-69718764D01*
X34678823Y-69718770D01*
X34735358Y-69855257D01*
X34817434Y-69978093D01*
X34921906Y-70082565D01*
X35044742Y-70164641D01*
X35181231Y-70221177D01*
X35200000Y-70224909D01*
X35200000Y-69653557D01*
X35258380Y-69711937D01*
X35350270Y-69749999D01*
X35449730Y-69749999D01*
X35541620Y-69711937D01*
X35600000Y-69653557D01*
X35600000Y-70224909D01*
X35618768Y-70221177D01*
X35755257Y-70164641D01*
X35878093Y-70082565D01*
X35982565Y-69978093D01*
X36064641Y-69855257D01*
X36121176Y-69718770D01*
X36121178Y-69718764D01*
X36149999Y-69573871D01*
X36150000Y-69573867D01*
X36150000Y-69200001D01*
X36149999Y-69200000D01*
X35650012Y-69200000D01*
X35650012Y-68800000D01*
X36149999Y-68800000D01*
X36150000Y-68799999D01*
X36150000Y-68426132D01*
X36149999Y-68426128D01*
X36121178Y-68281235D01*
X36121176Y-68281229D01*
X36064641Y-68144742D01*
X35982565Y-68021906D01*
X35878093Y-67917434D01*
X35755257Y-67835358D01*
X35618770Y-67778823D01*
X35618764Y-67778821D01*
X35600000Y-67775089D01*
X35600000Y-68346443D01*
X35541620Y-68288063D01*
X35449730Y-68250001D01*
X35350270Y-68250001D01*
X35258380Y-68288063D01*
X35200000Y-68346443D01*
X35200000Y-67775089D01*
X35181235Y-67778821D01*
X35181229Y-67778823D01*
X35044742Y-67835358D01*
X34921906Y-67917434D01*
X34817434Y-68021906D01*
X34735358Y-68144742D01*
X34678823Y-68281229D01*
X34678821Y-68281235D01*
X34650000Y-68426128D01*
X500500Y-68426128D01*
X500500Y-64927525D01*
X11774500Y-64927525D01*
X11774500Y-65072475D01*
X11804087Y-65182896D01*
X11812017Y-65212489D01*
X11884487Y-65338010D01*
X11884489Y-65338012D01*
X11884491Y-65338015D01*
X11986985Y-65440509D01*
X11986987Y-65440510D01*
X11986989Y-65440512D01*
X12112511Y-65512982D01*
X12112512Y-65512982D01*
X12112515Y-65512984D01*
X12252525Y-65550500D01*
X12252526Y-65550500D01*
X12397474Y-65550500D01*
X12397475Y-65550500D01*
X12537485Y-65512984D01*
X12537487Y-65512982D01*
X12537489Y-65512982D01*
X12663010Y-65440512D01*
X12663010Y-65440511D01*
X12663015Y-65440509D01*
X12749029Y-65354494D01*
X12803544Y-65326719D01*
X12819031Y-65325500D01*
X18505969Y-65325500D01*
X18564160Y-65344407D01*
X18575966Y-65354490D01*
X18661985Y-65440509D01*
X18661987Y-65440510D01*
X18661989Y-65440512D01*
X18787511Y-65512982D01*
X18787512Y-65512982D01*
X18787515Y-65512984D01*
X18927525Y-65550500D01*
X18927526Y-65550500D01*
X19072474Y-65550500D01*
X19072475Y-65550500D01*
X19212485Y-65512984D01*
X19212487Y-65512982D01*
X19212489Y-65512982D01*
X19338010Y-65440512D01*
X19338010Y-65440511D01*
X19338015Y-65440509D01*
X19440509Y-65338015D01*
X19447735Y-65325500D01*
X19512982Y-65212489D01*
X19512982Y-65212487D01*
X19512984Y-65212485D01*
X19550500Y-65072475D01*
X19550500Y-64927525D01*
X19512984Y-64787515D01*
X19512982Y-64787512D01*
X19512982Y-64787510D01*
X19440512Y-64661989D01*
X19440510Y-64661987D01*
X19440509Y-64661985D01*
X19338015Y-64559491D01*
X19338012Y-64559489D01*
X19338010Y-64559487D01*
X19252705Y-64510236D01*
X19211764Y-64464767D01*
X19205368Y-64403916D01*
X19235961Y-64350928D01*
X19291857Y-64326042D01*
X19302205Y-64325500D01*
X20824165Y-64325500D01*
X20882356Y-64344407D01*
X20894169Y-64354496D01*
X22800138Y-66260465D01*
X22800140Y-66260466D01*
X22800141Y-66260467D01*
X22800142Y-66260468D01*
X22874357Y-66303316D01*
X22874355Y-66303316D01*
X22874359Y-66303317D01*
X22874361Y-66303318D01*
X22957147Y-66325500D01*
X22957149Y-66325500D01*
X25042851Y-66325500D01*
X25042853Y-66325500D01*
X25125638Y-66303318D01*
X25199862Y-66260465D01*
X25260465Y-66199862D01*
X25303318Y-66125638D01*
X25325500Y-66042853D01*
X25325500Y-65725832D01*
X25344407Y-65667641D01*
X25354485Y-65655840D01*
X25520830Y-65489494D01*
X25575345Y-65461719D01*
X25590832Y-65460500D01*
X25712474Y-65460500D01*
X25712475Y-65460500D01*
X25852485Y-65422984D01*
X25852487Y-65422982D01*
X25852489Y-65422982D01*
X25978010Y-65350512D01*
X25978010Y-65350511D01*
X25978015Y-65350509D01*
X26080509Y-65248015D01*
X26152984Y-65122485D01*
X26190500Y-64982475D01*
X26190500Y-64837525D01*
X26152984Y-64697515D01*
X26152982Y-64697512D01*
X26152982Y-64697510D01*
X26080512Y-64571989D01*
X26080510Y-64571987D01*
X26080509Y-64571985D01*
X25978015Y-64469491D01*
X25978012Y-64469489D01*
X25978010Y-64469487D01*
X25869384Y-64406772D01*
X25869383Y-64406772D01*
X25852487Y-64397017D01*
X25852486Y-64397016D01*
X25852485Y-64397016D01*
X25712475Y-64359500D01*
X25567525Y-64359500D01*
X25505790Y-64376041D01*
X25427510Y-64397017D01*
X25301989Y-64469487D01*
X25199487Y-64571989D01*
X25127017Y-64697510D01*
X25089500Y-64837525D01*
X25089500Y-64959165D01*
X25070593Y-65017356D01*
X25060504Y-65029168D01*
X24739535Y-65350137D01*
X24739531Y-65350142D01*
X24696682Y-65424360D01*
X24696681Y-65424360D01*
X24696682Y-65424361D01*
X24674500Y-65507147D01*
X24674500Y-65575500D01*
X24655593Y-65633691D01*
X24606093Y-65669655D01*
X24575500Y-65674500D01*
X23175835Y-65674500D01*
X23117644Y-65655593D01*
X23105831Y-65645504D01*
X22157837Y-64697510D01*
X21787852Y-64327525D01*
X30049500Y-64327525D01*
X30049500Y-64472475D01*
X30058106Y-64504593D01*
X30087017Y-64612489D01*
X30159487Y-64738010D01*
X30159489Y-64738012D01*
X30159491Y-64738015D01*
X30261985Y-64840509D01*
X30261987Y-64840510D01*
X30261989Y-64840512D01*
X30387511Y-64912982D01*
X30387512Y-64912982D01*
X30387515Y-64912984D01*
X30527525Y-64950500D01*
X30527526Y-64950500D01*
X30672474Y-64950500D01*
X30672475Y-64950500D01*
X30812485Y-64912984D01*
X30812487Y-64912982D01*
X30812489Y-64912982D01*
X30938010Y-64840512D01*
X30938010Y-64840511D01*
X30938015Y-64840509D01*
X31040509Y-64738015D01*
X31063895Y-64697510D01*
X31112982Y-64612489D01*
X31112982Y-64612487D01*
X31112984Y-64612485D01*
X31150500Y-64472475D01*
X31150500Y-64350833D01*
X31169407Y-64292642D01*
X31179497Y-64280829D01*
X31199861Y-64260465D01*
X31260465Y-64199862D01*
X31264319Y-64193186D01*
X31303318Y-64125638D01*
X31325500Y-64042853D01*
X31325500Y-59926081D01*
X36249500Y-59926081D01*
X36249500Y-60073918D01*
X36278342Y-60218914D01*
X36326392Y-60334916D01*
X36334916Y-60355495D01*
X36417049Y-60478416D01*
X36521584Y-60582951D01*
X36644505Y-60665084D01*
X36781087Y-60721658D01*
X36926082Y-60750500D01*
X36926083Y-60750500D01*
X37073917Y-60750500D01*
X37073918Y-60750500D01*
X37218913Y-60721658D01*
X37355495Y-60665084D01*
X37478416Y-60582951D01*
X37582951Y-60478416D01*
X37665084Y-60355495D01*
X37721658Y-60218913D01*
X37750500Y-60073918D01*
X37750500Y-59926082D01*
X37721658Y-59781087D01*
X37665084Y-59644505D01*
X37582951Y-59521584D01*
X37478416Y-59417049D01*
X37355495Y-59334916D01*
X37355493Y-59334915D01*
X37218914Y-59278342D01*
X37073918Y-59249500D01*
X36926082Y-59249500D01*
X36926081Y-59249500D01*
X36781085Y-59278342D01*
X36644506Y-59334915D01*
X36521585Y-59417048D01*
X36417048Y-59521585D01*
X36334915Y-59644506D01*
X36278342Y-59781085D01*
X36249500Y-59926081D01*
X31325500Y-59926081D01*
X31325500Y-48926081D01*
X42249500Y-48926081D01*
X42249500Y-49073918D01*
X42278342Y-49218914D01*
X42334915Y-49355493D01*
X42334916Y-49355495D01*
X42417049Y-49478416D01*
X42521584Y-49582951D01*
X42644505Y-49665084D01*
X42781087Y-49721658D01*
X42926082Y-49750500D01*
X42926083Y-49750500D01*
X43073917Y-49750500D01*
X43073918Y-49750500D01*
X43218913Y-49721658D01*
X43355495Y-49665084D01*
X43478416Y-49582951D01*
X43582951Y-49478416D01*
X43665084Y-49355495D01*
X43721658Y-49218913D01*
X43750500Y-49073918D01*
X43750500Y-48926082D01*
X43721658Y-48781087D01*
X43665084Y-48644505D01*
X43582951Y-48521584D01*
X43478416Y-48417049D01*
X43355495Y-48334916D01*
X43355493Y-48334915D01*
X43218914Y-48278342D01*
X43073918Y-48249500D01*
X42926082Y-48249500D01*
X42926081Y-48249500D01*
X42781085Y-48278342D01*
X42644506Y-48334915D01*
X42521585Y-48417048D01*
X42417048Y-48521585D01*
X42334915Y-48644506D01*
X42278342Y-48781085D01*
X42249500Y-48926081D01*
X31325500Y-48926081D01*
X31325500Y-45484453D01*
X31344407Y-45426262D01*
X31393907Y-45390298D01*
X31455093Y-45390298D01*
X31494504Y-45414449D01*
X31494723Y-45414668D01*
X31494724Y-45414669D01*
X31585331Y-45505276D01*
X31630964Y-45535767D01*
X31691866Y-45576461D01*
X31691870Y-45576463D01*
X31691873Y-45576465D01*
X31810256Y-45625501D01*
X31935931Y-45650500D01*
X31935932Y-45650500D01*
X32064068Y-45650500D01*
X32064069Y-45650500D01*
X32189744Y-45625501D01*
X32308127Y-45576465D01*
X32414669Y-45505276D01*
X32505276Y-45414669D01*
X32576465Y-45308127D01*
X32625501Y-45189744D01*
X32650500Y-45064069D01*
X32650500Y-44935931D01*
X32625501Y-44810256D01*
X32576465Y-44691873D01*
X32576463Y-44691870D01*
X32576461Y-44691866D01*
X32544815Y-44644505D01*
X32505276Y-44585331D01*
X32429496Y-44509551D01*
X32401719Y-44455034D01*
X32400500Y-44439547D01*
X32400500Y-37560452D01*
X32419407Y-37502261D01*
X32429497Y-37490448D01*
X32505268Y-37414677D01*
X32505276Y-37414669D01*
X32576465Y-37308127D01*
X32599237Y-37253149D01*
X32638973Y-37206624D01*
X32698467Y-37192340D01*
X32754996Y-37215754D01*
X32760691Y-37221018D01*
X38645505Y-43105832D01*
X38673281Y-43160347D01*
X38674500Y-43175834D01*
X38674500Y-46505969D01*
X38655593Y-46564160D01*
X38645509Y-46575966D01*
X38587785Y-46633691D01*
X38559488Y-46661988D01*
X38559487Y-46661989D01*
X38487017Y-46787510D01*
X38449500Y-46927525D01*
X38449500Y-47072474D01*
X38487017Y-47212489D01*
X38559487Y-47338010D01*
X38559489Y-47338012D01*
X38559491Y-47338015D01*
X38661985Y-47440509D01*
X38661987Y-47440510D01*
X38661989Y-47440512D01*
X38787511Y-47512982D01*
X38787512Y-47512982D01*
X38787515Y-47512984D01*
X38927525Y-47550500D01*
X38927526Y-47550500D01*
X39072474Y-47550500D01*
X39072475Y-47550500D01*
X39212485Y-47512984D01*
X39212487Y-47512982D01*
X39212489Y-47512982D01*
X39338010Y-47440512D01*
X39338010Y-47440511D01*
X39338015Y-47440509D01*
X39440509Y-47338015D01*
X39448946Y-47323402D01*
X39512982Y-47212489D01*
X39512982Y-47212487D01*
X39512984Y-47212485D01*
X39550500Y-47072475D01*
X39550500Y-46927525D01*
X39512984Y-46787515D01*
X39512982Y-46787512D01*
X39512982Y-46787510D01*
X39440512Y-46661989D01*
X39440510Y-46661987D01*
X39440509Y-46661985D01*
X39354494Y-46575970D01*
X39326719Y-46521456D01*
X39325500Y-46505969D01*
X39325500Y-43926081D01*
X42249500Y-43926081D01*
X42249500Y-44073918D01*
X42278342Y-44218914D01*
X42326392Y-44334916D01*
X42334916Y-44355495D01*
X42417049Y-44478416D01*
X42521584Y-44582951D01*
X42644505Y-44665084D01*
X42781087Y-44721658D01*
X42926082Y-44750500D01*
X42926083Y-44750500D01*
X43073917Y-44750500D01*
X43073918Y-44750500D01*
X43218913Y-44721658D01*
X43355495Y-44665084D01*
X43478416Y-44582951D01*
X43582951Y-44478416D01*
X43665084Y-44355495D01*
X43721658Y-44218913D01*
X43750500Y-44073918D01*
X43750500Y-43926082D01*
X43721658Y-43781087D01*
X43665084Y-43644505D01*
X43582951Y-43521584D01*
X43478416Y-43417049D01*
X43355495Y-43334916D01*
X43355493Y-43334915D01*
X43218914Y-43278342D01*
X43073918Y-43249500D01*
X42926082Y-43249500D01*
X42926081Y-43249500D01*
X42781085Y-43278342D01*
X42644506Y-43334915D01*
X42521585Y-43417048D01*
X42417048Y-43521585D01*
X42334915Y-43644506D01*
X42278342Y-43781085D01*
X42249500Y-43926081D01*
X39325500Y-43926081D01*
X39325500Y-42957148D01*
X39325500Y-42957147D01*
X39303318Y-42874362D01*
X39260465Y-42800138D01*
X39239823Y-42779496D01*
X39199862Y-42739534D01*
X39199862Y-42739535D01*
X35387852Y-38927525D01*
X58449500Y-38927525D01*
X58449500Y-39072474D01*
X58487017Y-39212489D01*
X58559487Y-39338010D01*
X58559489Y-39338012D01*
X58559491Y-39338015D01*
X58645505Y-39424029D01*
X58673281Y-39478544D01*
X58674500Y-39494031D01*
X58674500Y-41957147D01*
X58674500Y-42042853D01*
X58679386Y-42061087D01*
X58696683Y-42125643D01*
X58739531Y-42199857D01*
X58739532Y-42199858D01*
X58739533Y-42199859D01*
X58739535Y-42199862D01*
X61754342Y-45214669D01*
X64739534Y-48199861D01*
X64739535Y-48199862D01*
X64739534Y-48199862D01*
X64783686Y-48244013D01*
X64800138Y-48260465D01*
X64874362Y-48303318D01*
X64957147Y-48325500D01*
X65042853Y-48325500D01*
X70505969Y-48325500D01*
X70564160Y-48344407D01*
X70575966Y-48354490D01*
X70661985Y-48440509D01*
X70661987Y-48440510D01*
X70661989Y-48440512D01*
X70787511Y-48512982D01*
X70787512Y-48512982D01*
X70787515Y-48512984D01*
X70927525Y-48550500D01*
X70927526Y-48550500D01*
X71072474Y-48550500D01*
X71072475Y-48550500D01*
X71212485Y-48512984D01*
X71212487Y-48512982D01*
X71212489Y-48512982D01*
X71338010Y-48440512D01*
X71338010Y-48440511D01*
X71338015Y-48440509D01*
X71440509Y-48338015D01*
X71454229Y-48314251D01*
X71512982Y-48212489D01*
X71512982Y-48212487D01*
X71512984Y-48212485D01*
X71519570Y-48187905D01*
X71552893Y-48136593D01*
X71610014Y-48114666D01*
X71669115Y-48130501D01*
X71685200Y-48143526D01*
X72665504Y-49123830D01*
X72693281Y-49178347D01*
X72694500Y-49193834D01*
X72694500Y-49225969D01*
X72675593Y-49284160D01*
X72665509Y-49295966D01*
X72617069Y-49344407D01*
X72579488Y-49381988D01*
X72579487Y-49381989D01*
X72507017Y-49507510D01*
X72487018Y-49582147D01*
X72469500Y-49647525D01*
X72469500Y-49792475D01*
X72474265Y-49810257D01*
X72507017Y-49932489D01*
X72579487Y-50058010D01*
X72579489Y-50058012D01*
X72579491Y-50058015D01*
X72681985Y-50160509D01*
X72681987Y-50160510D01*
X72681989Y-50160512D01*
X72807511Y-50232982D01*
X72807512Y-50232982D01*
X72807515Y-50232984D01*
X72947525Y-50270500D01*
X72947526Y-50270500D01*
X73092474Y-50270500D01*
X73092475Y-50270500D01*
X73232485Y-50232984D01*
X73232487Y-50232982D01*
X73232489Y-50232982D01*
X73358010Y-50160512D01*
X73358010Y-50160511D01*
X73358015Y-50160509D01*
X73460509Y-50058015D01*
X73530994Y-49935932D01*
X73532982Y-49932489D01*
X73532982Y-49932487D01*
X73532984Y-49932485D01*
X73570500Y-49792475D01*
X73570500Y-49647525D01*
X73532984Y-49507515D01*
X73532982Y-49507512D01*
X73532982Y-49507510D01*
X73460512Y-49381989D01*
X73460510Y-49381987D01*
X73460509Y-49381985D01*
X73374494Y-49295970D01*
X73346719Y-49241456D01*
X73345500Y-49225969D01*
X73345500Y-49068840D01*
X73345501Y-49068827D01*
X73345501Y-48975147D01*
X73345500Y-48975145D01*
X73340678Y-48957148D01*
X73323318Y-48892362D01*
X73312925Y-48874361D01*
X73280465Y-48818138D01*
X73219862Y-48757535D01*
X73219859Y-48757533D01*
X71935339Y-47473013D01*
X70646681Y-46184354D01*
X70618904Y-46129837D01*
X70628475Y-46069405D01*
X70671740Y-46026140D01*
X70691057Y-46018725D01*
X70712485Y-46012984D01*
X70838015Y-45940509D01*
X70940509Y-45838015D01*
X70969668Y-45787510D01*
X71012982Y-45712489D01*
X71012982Y-45712487D01*
X71012984Y-45712485D01*
X71050500Y-45572475D01*
X71050500Y-45482767D01*
X71069407Y-45424576D01*
X71118907Y-45388612D01*
X71180093Y-45388612D01*
X71219501Y-45412761D01*
X71389691Y-45582951D01*
X71512612Y-45665084D01*
X71649194Y-45721658D01*
X71794189Y-45750500D01*
X71942024Y-45750500D01*
X78648124Y-45750500D01*
X78706315Y-45769407D01*
X78718128Y-45779496D01*
X79019128Y-46080496D01*
X79046905Y-46135013D01*
X79037334Y-46195445D01*
X78994069Y-46238710D01*
X78949124Y-46249500D01*
X73926081Y-46249500D01*
X73781085Y-46278342D01*
X73644506Y-46334915D01*
X73521585Y-46417048D01*
X73417048Y-46521585D01*
X73334915Y-46644506D01*
X73278342Y-46781085D01*
X73249500Y-46926081D01*
X73249500Y-47073918D01*
X73278342Y-47218914D01*
X73332847Y-47350500D01*
X73334916Y-47355495D01*
X73417049Y-47478416D01*
X73521584Y-47582951D01*
X73644505Y-47665084D01*
X73781087Y-47721658D01*
X73926082Y-47750500D01*
X78140626Y-47750500D01*
X78198817Y-47769407D01*
X78234781Y-47818907D01*
X78234781Y-47880093D01*
X78226363Y-47899000D01*
X78159198Y-48015331D01*
X78121682Y-48155343D01*
X78121682Y-48276983D01*
X78102775Y-48335174D01*
X78092686Y-48346987D01*
X77014531Y-49425142D01*
X76971682Y-49499360D01*
X76971681Y-49499360D01*
X76971682Y-49499361D01*
X76949500Y-49582147D01*
X76949500Y-54505969D01*
X76930593Y-54564160D01*
X76920509Y-54575966D01*
X76851971Y-54644505D01*
X76834488Y-54661988D01*
X76834487Y-54661989D01*
X76762017Y-54787510D01*
X76724500Y-54927525D01*
X76724500Y-55072474D01*
X76762017Y-55212489D01*
X76834487Y-55338010D01*
X76834489Y-55338012D01*
X76834491Y-55338015D01*
X76936985Y-55440509D01*
X76936987Y-55440510D01*
X76936989Y-55440512D01*
X77062511Y-55512982D01*
X77062512Y-55512982D01*
X77062515Y-55512984D01*
X77183278Y-55545342D01*
X77234592Y-55578667D01*
X77256518Y-55635788D01*
X77240682Y-55694889D01*
X77227658Y-55710973D01*
X75417045Y-57521587D01*
X75377882Y-57580201D01*
X75334914Y-57644507D01*
X75278342Y-57781085D01*
X75249500Y-57926081D01*
X75249500Y-58306152D01*
X75278342Y-58451148D01*
X75334914Y-58587726D01*
X75334915Y-58587728D01*
X75334916Y-58587729D01*
X75367813Y-58636963D01*
X75417048Y-58710650D01*
X78289350Y-61582951D01*
X78412271Y-61665084D01*
X78548853Y-61721658D01*
X78693848Y-61750500D01*
X78693849Y-61750500D01*
X81073917Y-61750500D01*
X81073918Y-61750500D01*
X81218913Y-61721658D01*
X81355495Y-61665084D01*
X81478416Y-61582951D01*
X81582951Y-61478416D01*
X81665084Y-61355495D01*
X81721658Y-61218913D01*
X81750500Y-61073918D01*
X81750500Y-60926082D01*
X81721658Y-60781087D01*
X81665084Y-60644505D01*
X81582951Y-60521584D01*
X81478416Y-60417049D01*
X81355495Y-60334916D01*
X81355493Y-60334915D01*
X81218914Y-60278342D01*
X81073918Y-60249500D01*
X79119641Y-60249500D01*
X79061450Y-60230593D01*
X79049637Y-60220504D01*
X77015254Y-58186121D01*
X76987477Y-58131604D01*
X76997048Y-58071172D01*
X77015254Y-58046113D01*
X79180538Y-55880829D01*
X81582952Y-53478416D01*
X81608776Y-53439767D01*
X81635012Y-53400501D01*
X81635013Y-53400499D01*
X81665085Y-53355493D01*
X81665085Y-53355492D01*
X81721658Y-53218913D01*
X81750500Y-53073918D01*
X81750500Y-48926082D01*
X81735807Y-48852218D01*
X81742998Y-48791459D01*
X81784531Y-48746528D01*
X81844540Y-48734591D01*
X81852198Y-48735803D01*
X81897241Y-48744763D01*
X81926082Y-48750500D01*
X81926083Y-48750500D01*
X82073918Y-48750500D01*
X84150500Y-48750500D01*
X84208691Y-48769407D01*
X84244655Y-48818907D01*
X84249500Y-48849500D01*
X84249500Y-55073918D01*
X84278342Y-55218914D01*
X84334915Y-55355493D01*
X84334916Y-55355495D01*
X84417049Y-55478416D01*
X84521584Y-55582951D01*
X84644505Y-55665084D01*
X84781087Y-55721658D01*
X84926082Y-55750500D01*
X85073918Y-55750500D01*
X85648124Y-55750500D01*
X85706315Y-55769407D01*
X85718128Y-55779496D01*
X91521584Y-61582951D01*
X91644505Y-61665084D01*
X91781087Y-61721658D01*
X91926082Y-61750500D01*
X91926083Y-61750500D01*
X92073917Y-61750500D01*
X92073918Y-61750500D01*
X92218913Y-61721658D01*
X92355495Y-61665084D01*
X92478416Y-61582951D01*
X92582951Y-61478416D01*
X92665084Y-61355495D01*
X92721658Y-61218913D01*
X92750500Y-61073918D01*
X92750500Y-60926082D01*
X92721658Y-60781087D01*
X92665084Y-60644505D01*
X92582951Y-60521584D01*
X92539779Y-60478412D01*
X92478416Y-60417048D01*
X92478416Y-60417049D01*
X86478416Y-54417048D01*
X86404729Y-54367813D01*
X86355495Y-54334916D01*
X86355494Y-54334915D01*
X86355492Y-54334914D01*
X86218914Y-54278342D01*
X86073918Y-54249500D01*
X85849500Y-54249500D01*
X85791309Y-54230593D01*
X85755345Y-54181093D01*
X85750500Y-54150500D01*
X85750500Y-47926083D01*
X85750500Y-47926082D01*
X85721658Y-47781087D01*
X85665084Y-47644505D01*
X85582951Y-47521584D01*
X85478416Y-47417049D01*
X85355495Y-47334916D01*
X85355493Y-47334915D01*
X85218914Y-47278342D01*
X85073918Y-47249500D01*
X82351875Y-47249500D01*
X82293684Y-47230593D01*
X82281871Y-47220504D01*
X80899377Y-45838010D01*
X79987450Y-44926082D01*
X84249499Y-44926082D01*
X84249499Y-45073919D01*
X84278341Y-45218915D01*
X84334913Y-45355493D01*
X84348926Y-45376465D01*
X84397725Y-45449500D01*
X84417047Y-45478417D01*
X84521583Y-45582953D01*
X84585262Y-45625501D01*
X84644504Y-45665085D01*
X84781086Y-45721659D01*
X84926081Y-45750501D01*
X84926082Y-45750501D01*
X85073916Y-45750501D01*
X85073917Y-45750501D01*
X85218912Y-45721659D01*
X85355494Y-45665085D01*
X85414736Y-45625501D01*
X85478415Y-45582953D01*
X85582951Y-45478416D01*
X85665084Y-45355495D01*
X85721658Y-45218913D01*
X85750500Y-45073918D01*
X85750500Y-44926083D01*
X85721658Y-44781088D01*
X85665084Y-44644506D01*
X85582951Y-44521585D01*
X85478415Y-44417049D01*
X85355494Y-44334916D01*
X85355492Y-44334915D01*
X85218913Y-44278342D01*
X85073917Y-44249500D01*
X84926082Y-44249500D01*
X84926081Y-44249500D01*
X84781085Y-44278342D01*
X84644507Y-44334914D01*
X84521584Y-44417048D01*
X84417051Y-44521579D01*
X84417046Y-44521585D01*
X84374454Y-44585331D01*
X84334913Y-44644508D01*
X84278341Y-44781086D01*
X84249499Y-44926082D01*
X79987450Y-44926082D01*
X79478416Y-44417048D01*
X79465347Y-44408316D01*
X79392274Y-44359491D01*
X79392273Y-44359490D01*
X79355501Y-44334919D01*
X79355490Y-44334913D01*
X79218914Y-44278342D01*
X79073918Y-44249500D01*
X72219981Y-44249500D01*
X72161790Y-44230593D01*
X72149977Y-44220503D01*
X71803415Y-43873940D01*
X71729729Y-43824706D01*
X71680492Y-43791807D01*
X71543914Y-43735235D01*
X71398918Y-43706393D01*
X71251082Y-43706393D01*
X71251081Y-43706393D01*
X71106085Y-43735235D01*
X70965011Y-43793670D01*
X70964375Y-43792136D01*
X70910918Y-43801673D01*
X70855871Y-43774961D01*
X70827039Y-43720995D01*
X70825500Y-43703609D01*
X70825500Y-42206081D01*
X77101000Y-42206081D01*
X77101000Y-42353918D01*
X77129842Y-42498914D01*
X77175500Y-42609141D01*
X77186416Y-42635495D01*
X77268549Y-42758416D01*
X77373084Y-42862951D01*
X77496005Y-42945084D01*
X77632587Y-43001658D01*
X77777582Y-43030500D01*
X77777583Y-43030500D01*
X77925417Y-43030500D01*
X77925418Y-43030500D01*
X78070413Y-43001658D01*
X78206995Y-42945084D01*
X78329916Y-42862951D01*
X78434451Y-42758416D01*
X78516584Y-42635495D01*
X78573158Y-42498913D01*
X78602000Y-42353918D01*
X78602000Y-42206082D01*
X78573158Y-42061087D01*
X78516584Y-41924505D01*
X78434451Y-41801584D01*
X78329916Y-41697049D01*
X78206995Y-41614916D01*
X78206993Y-41614915D01*
X78070414Y-41558342D01*
X77925418Y-41529500D01*
X77777582Y-41529500D01*
X77777581Y-41529500D01*
X77632585Y-41558342D01*
X77496006Y-41614915D01*
X77373085Y-41697048D01*
X77268548Y-41801585D01*
X77186415Y-41924506D01*
X77129842Y-42061085D01*
X77101000Y-42206081D01*
X70825500Y-42206081D01*
X70825500Y-40457148D01*
X70825500Y-40457147D01*
X70803318Y-40374362D01*
X70803318Y-40374361D01*
X70772209Y-40320480D01*
X70760465Y-40300138D01*
X70699862Y-40239535D01*
X70699859Y-40239533D01*
X70579496Y-40119170D01*
X70551719Y-40064653D01*
X70550500Y-40049166D01*
X70550500Y-39927525D01*
X70512984Y-39787515D01*
X70512982Y-39787512D01*
X70512982Y-39787510D01*
X70440512Y-39661989D01*
X70440510Y-39661987D01*
X70440509Y-39661985D01*
X70338015Y-39559491D01*
X70338012Y-39559489D01*
X70338010Y-39559487D01*
X70212488Y-39487017D01*
X70212489Y-39487017D01*
X70180375Y-39478412D01*
X70072475Y-39449500D01*
X69927525Y-39449500D01*
X69865790Y-39466041D01*
X69787510Y-39487017D01*
X69661989Y-39559487D01*
X69559487Y-39661989D01*
X69487017Y-39787510D01*
X69449500Y-39927525D01*
X69449500Y-40072474D01*
X69487017Y-40212489D01*
X69559487Y-40338010D01*
X69559489Y-40338012D01*
X69559491Y-40338015D01*
X69661985Y-40440509D01*
X69661987Y-40440510D01*
X69661989Y-40440512D01*
X69787511Y-40512982D01*
X69787512Y-40512982D01*
X69787515Y-40512984D01*
X69927525Y-40550500D01*
X69927526Y-40550500D01*
X70049166Y-40550500D01*
X70107357Y-40569407D01*
X70119170Y-40579496D01*
X70145504Y-40605830D01*
X70173281Y-40660347D01*
X70174500Y-40675834D01*
X70174500Y-41655626D01*
X70155593Y-41713817D01*
X70106093Y-41749781D01*
X70044907Y-41749781D01*
X70005498Y-41725631D01*
X69976916Y-41697049D01*
X69853995Y-41614916D01*
X69853993Y-41614915D01*
X69717414Y-41558342D01*
X69572418Y-41529500D01*
X69424582Y-41529500D01*
X69424581Y-41529500D01*
X69279585Y-41558342D01*
X69143006Y-41614915D01*
X69020085Y-41697048D01*
X68915548Y-41801585D01*
X68833415Y-41924506D01*
X68776842Y-42061085D01*
X68748000Y-42206081D01*
X68748000Y-42353918D01*
X68776842Y-42498914D01*
X68822500Y-42609141D01*
X68833416Y-42635495D01*
X68915549Y-42758416D01*
X69020084Y-42862951D01*
X69143005Y-42945084D01*
X69279587Y-43001658D01*
X69424582Y-43030500D01*
X69424583Y-43030500D01*
X69572417Y-43030500D01*
X69572418Y-43030500D01*
X69717413Y-43001658D01*
X69853995Y-42945084D01*
X69976916Y-42862951D01*
X70005498Y-42834368D01*
X70060013Y-42806593D01*
X70120445Y-42816164D01*
X70163710Y-42859429D01*
X70174500Y-42904374D01*
X70174500Y-45005969D01*
X70155593Y-45064160D01*
X70145509Y-45075966D01*
X70085870Y-45135606D01*
X70059488Y-45161988D01*
X70059487Y-45161989D01*
X69987017Y-45287511D01*
X69987016Y-45287512D01*
X69980852Y-45310517D01*
X69947526Y-45361830D01*
X69890404Y-45383755D01*
X69831304Y-45367918D01*
X69815222Y-45354895D01*
X69398644Y-44938317D01*
X69390105Y-44928578D01*
X69387470Y-44925144D01*
X69387466Y-44925140D01*
X69387465Y-44925138D01*
X69326862Y-44864535D01*
X69326859Y-44864533D01*
X66354496Y-41892169D01*
X66326719Y-41837652D01*
X66325500Y-41822165D01*
X66325500Y-39302204D01*
X66344407Y-39244013D01*
X66393907Y-39208049D01*
X66455093Y-39208049D01*
X66504593Y-39244013D01*
X66510232Y-39252697D01*
X66559491Y-39338015D01*
X66661985Y-39440509D01*
X66661987Y-39440510D01*
X66661989Y-39440512D01*
X66787511Y-39512982D01*
X66787512Y-39512982D01*
X66787515Y-39512984D01*
X66927525Y-39550500D01*
X66927526Y-39550500D01*
X67072474Y-39550500D01*
X67072475Y-39550500D01*
X67212485Y-39512984D01*
X67212487Y-39512982D01*
X67212489Y-39512982D01*
X67338010Y-39440512D01*
X67338010Y-39440511D01*
X67338015Y-39440509D01*
X67440509Y-39338015D01*
X67461185Y-39302204D01*
X67512982Y-39212489D01*
X67512982Y-39212487D01*
X67512984Y-39212485D01*
X67550500Y-39072475D01*
X67550500Y-38950834D01*
X67569407Y-38892643D01*
X67579496Y-38880830D01*
X69105831Y-37354496D01*
X69160348Y-37326719D01*
X69175835Y-37325500D01*
X75374126Y-37325500D01*
X75432317Y-37344407D01*
X75468281Y-37393907D01*
X75468281Y-37455093D01*
X75444131Y-37494501D01*
X75423890Y-37514743D01*
X75417048Y-37521585D01*
X75334915Y-37644506D01*
X75278342Y-37781085D01*
X75249500Y-37926081D01*
X75249500Y-38073920D01*
X75264192Y-38147780D01*
X75257000Y-38208541D01*
X75215468Y-38253471D01*
X75155458Y-38265408D01*
X75147780Y-38264192D01*
X75073920Y-38249500D01*
X75073918Y-38249500D01*
X74926082Y-38249500D01*
X74926081Y-38249500D01*
X74781085Y-38278342D01*
X74644506Y-38334914D01*
X74595270Y-38367813D01*
X74521587Y-38417045D01*
X74417043Y-38521589D01*
X74391720Y-38559490D01*
X74391720Y-38559491D01*
X74334914Y-38644507D01*
X74278342Y-38781085D01*
X74249500Y-38926081D01*
X74249500Y-39073918D01*
X74278342Y-39218914D01*
X74334913Y-39355489D01*
X74334914Y-39355491D01*
X74334916Y-39355495D01*
X74346751Y-39373207D01*
X74417048Y-39478416D01*
X75417049Y-40478416D01*
X75417048Y-40478416D01*
X75485392Y-40546759D01*
X75521584Y-40582951D01*
X75555825Y-40605830D01*
X75644503Y-40665083D01*
X75644504Y-40665083D01*
X75644505Y-40665084D01*
X75701080Y-40688518D01*
X75781088Y-40721659D01*
X75897241Y-40744763D01*
X75926082Y-40750500D01*
X75926083Y-40750500D01*
X76073918Y-40750500D01*
X79648124Y-40750500D01*
X79706315Y-40769407D01*
X79718128Y-40779496D01*
X81417049Y-42478416D01*
X81417048Y-42478416D01*
X81521582Y-42582949D01*
X81521584Y-42582951D01*
X81644505Y-42665084D01*
X81781087Y-42721658D01*
X81926082Y-42750500D01*
X81926083Y-42750500D01*
X82073917Y-42750500D01*
X90648124Y-42750500D01*
X90706315Y-42769407D01*
X90718128Y-42779496D01*
X93220504Y-45281871D01*
X93248281Y-45336388D01*
X93249500Y-45351875D01*
X93249500Y-61648124D01*
X93230593Y-61706315D01*
X93220504Y-61718128D01*
X92718128Y-62220504D01*
X92663611Y-62248281D01*
X92648124Y-62249500D01*
X77351875Y-62249500D01*
X77293684Y-62230593D01*
X77281871Y-62220504D01*
X74779496Y-59718128D01*
X74751719Y-59663611D01*
X74750500Y-59648124D01*
X74750500Y-54926083D01*
X74750500Y-54926082D01*
X74721658Y-54781087D01*
X74665084Y-54644505D01*
X74582951Y-54521584D01*
X74478416Y-54417049D01*
X74355495Y-54334916D01*
X74355493Y-54334915D01*
X74218914Y-54278342D01*
X74073918Y-54249500D01*
X73926082Y-54249500D01*
X73926081Y-54249500D01*
X73781085Y-54278342D01*
X73644506Y-54334915D01*
X73521585Y-54417048D01*
X73417048Y-54521585D01*
X73334915Y-54644506D01*
X73278342Y-54781085D01*
X73249500Y-54926081D01*
X73249500Y-60073918D01*
X73278342Y-60218914D01*
X73334914Y-60355491D01*
X73334920Y-60355503D01*
X73338253Y-60360491D01*
X73338254Y-60360491D01*
X73417045Y-60478412D01*
X73417048Y-60478416D01*
X73719717Y-60781085D01*
X74019128Y-61080496D01*
X74046905Y-61135013D01*
X74037334Y-61195445D01*
X73994069Y-61238710D01*
X73949124Y-61249500D01*
X60926081Y-61249500D01*
X60781085Y-61278342D01*
X60644506Y-61334915D01*
X60521585Y-61417048D01*
X60417048Y-61521585D01*
X60334915Y-61644506D01*
X60278342Y-61781085D01*
X60249500Y-61926081D01*
X60249500Y-62073918D01*
X60278342Y-62218914D01*
X60302967Y-62278364D01*
X60334916Y-62355495D01*
X60417049Y-62478416D01*
X60521584Y-62582951D01*
X60644505Y-62665084D01*
X60781087Y-62721658D01*
X60926082Y-62750500D01*
X73880358Y-62750500D01*
X73938549Y-62769407D01*
X73950362Y-62779496D01*
X76003819Y-64832952D01*
X76003822Y-64832954D01*
X76003824Y-64832956D01*
X76044606Y-64860205D01*
X76044608Y-64860206D01*
X76126731Y-64915080D01*
X76126736Y-64915082D01*
X76126739Y-64915084D01*
X76183314Y-64938518D01*
X76263322Y-64971659D01*
X76379475Y-64994763D01*
X76408316Y-65000500D01*
X76408317Y-65000500D01*
X93591683Y-65000500D01*
X93591684Y-65000500D01*
X93736679Y-64971658D01*
X93873261Y-64915084D01*
X93945974Y-64866499D01*
X93996182Y-64832952D01*
X95832952Y-62996182D01*
X95882186Y-62922495D01*
X95915084Y-62873261D01*
X95971658Y-62736679D01*
X96000500Y-62591684D01*
X96000500Y-44408316D01*
X95971658Y-44263321D01*
X95915084Y-44126739D01*
X95832951Y-44003818D01*
X95832949Y-44003816D01*
X95728416Y-43899282D01*
X95728416Y-43899283D01*
X89246182Y-37417048D01*
X89242633Y-37414677D01*
X89161534Y-37360489D01*
X89123258Y-37334914D01*
X88986680Y-37278342D01*
X88841684Y-37249500D01*
X79604395Y-37249500D01*
X79546204Y-37230593D01*
X79510240Y-37181093D01*
X79510240Y-37119907D01*
X79512928Y-37112623D01*
X79512980Y-37112496D01*
X79512982Y-37112488D01*
X79512984Y-37112485D01*
X79550500Y-36972475D01*
X79550500Y-36827525D01*
X79512984Y-36687515D01*
X79512982Y-36687512D01*
X79512982Y-36687510D01*
X79440512Y-36561989D01*
X79440510Y-36561987D01*
X79440509Y-36561985D01*
X79338015Y-36459491D01*
X79338012Y-36459489D01*
X79338010Y-36459487D01*
X79212488Y-36387017D01*
X79212489Y-36387017D01*
X79094848Y-36355495D01*
X79072475Y-36349500D01*
X78927525Y-36349500D01*
X78905152Y-36355495D01*
X78787510Y-36387017D01*
X78661989Y-36459487D01*
X78559490Y-36561986D01*
X78552705Y-36573738D01*
X78523107Y-36625001D01*
X78477640Y-36665941D01*
X78437373Y-36674500D01*
X69042853Y-36674500D01*
X68957147Y-36674500D01*
X68908592Y-36687510D01*
X68874356Y-36696683D01*
X68800142Y-36739531D01*
X68800141Y-36739532D01*
X67119168Y-38420504D01*
X67064651Y-38448281D01*
X67049164Y-38449500D01*
X66927525Y-38449500D01*
X66865790Y-38466041D01*
X66787510Y-38487017D01*
X66661989Y-38559487D01*
X66559487Y-38661989D01*
X66510236Y-38747295D01*
X66464767Y-38788236D01*
X66403916Y-38794632D01*
X66350928Y-38764039D01*
X66326042Y-38708143D01*
X66325500Y-38697795D01*
X66325500Y-37050840D01*
X66325501Y-37050827D01*
X66325501Y-36957147D01*
X66325500Y-36957145D01*
X66303318Y-36874362D01*
X66286604Y-36845413D01*
X66286603Y-36845412D01*
X66260465Y-36800138D01*
X66199862Y-36739535D01*
X66199859Y-36739533D01*
X65386408Y-35926081D01*
X83249500Y-35926081D01*
X83249500Y-36073918D01*
X83278342Y-36218914D01*
X83330323Y-36344407D01*
X83334916Y-36355495D01*
X83417049Y-36478416D01*
X83521584Y-36582951D01*
X83644505Y-36665084D01*
X83781087Y-36721658D01*
X83926082Y-36750500D01*
X83926083Y-36750500D01*
X84073917Y-36750500D01*
X84073918Y-36750500D01*
X84218913Y-36721658D01*
X84355495Y-36665084D01*
X84478416Y-36582951D01*
X84582951Y-36478416D01*
X84665084Y-36355495D01*
X84721658Y-36218913D01*
X84750500Y-36073918D01*
X84750500Y-35926082D01*
X84721658Y-35781087D01*
X84665084Y-35644505D01*
X84582951Y-35521584D01*
X84478416Y-35417049D01*
X84355495Y-35334916D01*
X84355493Y-35334915D01*
X84218914Y-35278342D01*
X84073918Y-35249500D01*
X83926082Y-35249500D01*
X83926081Y-35249500D01*
X83781085Y-35278342D01*
X83644506Y-35334915D01*
X83521585Y-35417048D01*
X83417048Y-35521585D01*
X83334915Y-35644506D01*
X83278342Y-35781085D01*
X83249500Y-35926081D01*
X65386408Y-35926081D01*
X65199862Y-35739535D01*
X65199859Y-35739533D01*
X65199857Y-35739531D01*
X65125642Y-35696683D01*
X65125644Y-35696683D01*
X65093521Y-35688076D01*
X65042853Y-35674500D01*
X65042851Y-35674500D01*
X62494031Y-35674500D01*
X62435840Y-35655593D01*
X62424033Y-35645509D01*
X62338015Y-35559491D01*
X62338012Y-35559489D01*
X62338010Y-35559487D01*
X62212488Y-35487017D01*
X62212489Y-35487017D01*
X62182896Y-35479087D01*
X62072475Y-35449500D01*
X61927525Y-35449500D01*
X61865790Y-35466041D01*
X61787510Y-35487017D01*
X61661989Y-35559487D01*
X61559487Y-35661989D01*
X61487017Y-35787510D01*
X61449500Y-35927525D01*
X61449500Y-36072474D01*
X61487017Y-36212489D01*
X61559487Y-36338010D01*
X61559489Y-36338012D01*
X61559491Y-36338015D01*
X61661985Y-36440509D01*
X61661987Y-36440510D01*
X61661989Y-36440512D01*
X61787511Y-36512982D01*
X61787512Y-36512982D01*
X61787515Y-36512984D01*
X61927525Y-36550500D01*
X61927526Y-36550500D01*
X62072474Y-36550500D01*
X62072475Y-36550500D01*
X62212485Y-36512984D01*
X62212487Y-36512982D01*
X62212489Y-36512982D01*
X62338010Y-36440512D01*
X62338010Y-36440511D01*
X62338015Y-36440509D01*
X62424029Y-36354494D01*
X62478544Y-36326719D01*
X62494031Y-36325500D01*
X64824165Y-36325500D01*
X64882356Y-36344407D01*
X64894169Y-36354496D01*
X65645504Y-37105830D01*
X65673281Y-37160347D01*
X65674500Y-37175834D01*
X65674500Y-41955147D01*
X65674500Y-42040853D01*
X65675036Y-42042853D01*
X65696683Y-42123643D01*
X65739531Y-42197857D01*
X65739533Y-42197859D01*
X65739535Y-42197862D01*
X67316635Y-43774961D01*
X68761914Y-45220240D01*
X68789691Y-45274757D01*
X68780120Y-45335189D01*
X68736855Y-45378454D01*
X68711226Y-45387341D01*
X68662374Y-45397059D01*
X68662366Y-45397061D01*
X68525787Y-45453634D01*
X68402866Y-45535767D01*
X68298329Y-45640304D01*
X68216196Y-45763225D01*
X68159623Y-45899804D01*
X68130781Y-46044800D01*
X68130781Y-46192637D01*
X68159623Y-46337633D01*
X68202236Y-46440509D01*
X68216197Y-46474214D01*
X68298330Y-46597135D01*
X68402865Y-46701670D01*
X68525786Y-46783803D01*
X68662368Y-46840377D01*
X68807363Y-46869219D01*
X68807364Y-46869219D01*
X68955198Y-46869219D01*
X68955199Y-46869219D01*
X69100194Y-46840377D01*
X69236776Y-46783803D01*
X69359697Y-46701670D01*
X69464232Y-46597135D01*
X69546365Y-46474214D01*
X69602939Y-46337632D01*
X69612325Y-46290442D01*
X69642221Y-46237059D01*
X69697786Y-46211443D01*
X69757796Y-46223380D01*
X69779422Y-46239749D01*
X69800138Y-46260465D01*
X69800140Y-46260466D01*
X69800144Y-46260470D01*
X69803578Y-46263105D01*
X69813317Y-46271644D01*
X70856472Y-47314799D01*
X70884249Y-47369316D01*
X70874678Y-47429748D01*
X70831413Y-47473013D01*
X70812095Y-47480429D01*
X70787511Y-47487017D01*
X70661989Y-47559487D01*
X70661988Y-47559488D01*
X70661985Y-47559490D01*
X70661985Y-47559491D01*
X70575970Y-47645505D01*
X70521456Y-47673281D01*
X70505969Y-47674500D01*
X65175835Y-47674500D01*
X65117644Y-47655593D01*
X65105831Y-47645504D01*
X63386408Y-45926081D01*
X66249500Y-45926081D01*
X66249500Y-46073918D01*
X66278342Y-46218914D01*
X66330323Y-46344407D01*
X66334916Y-46355495D01*
X66417049Y-46478416D01*
X66521584Y-46582951D01*
X66644505Y-46665084D01*
X66781087Y-46721658D01*
X66926082Y-46750500D01*
X66926083Y-46750500D01*
X67073917Y-46750500D01*
X67073918Y-46750500D01*
X67218913Y-46721658D01*
X67355495Y-46665084D01*
X67478416Y-46582951D01*
X67582951Y-46478416D01*
X67665084Y-46355495D01*
X67721658Y-46218913D01*
X67750500Y-46073918D01*
X67750500Y-45926082D01*
X67721658Y-45781087D01*
X67665084Y-45644505D01*
X67582951Y-45521584D01*
X67478416Y-45417049D01*
X67355495Y-45334916D01*
X67324620Y-45322127D01*
X67218914Y-45278342D01*
X67073918Y-45249500D01*
X66926082Y-45249500D01*
X66926081Y-45249500D01*
X66781085Y-45278342D01*
X66644506Y-45334915D01*
X66521585Y-45417048D01*
X66417048Y-45521585D01*
X66334915Y-45644506D01*
X66278342Y-45781085D01*
X66249500Y-45926081D01*
X63386408Y-45926081D01*
X59354496Y-41894169D01*
X59326719Y-41839652D01*
X59325500Y-41824165D01*
X59325500Y-39494031D01*
X59344407Y-39435840D01*
X59354490Y-39424033D01*
X59440509Y-39338015D01*
X59461185Y-39302204D01*
X59512982Y-39212489D01*
X59512982Y-39212487D01*
X59512984Y-39212485D01*
X59550500Y-39072475D01*
X59550500Y-38927525D01*
X59512984Y-38787515D01*
X59512982Y-38787512D01*
X59512982Y-38787510D01*
X59440512Y-38661989D01*
X59440510Y-38661987D01*
X59440509Y-38661985D01*
X59338015Y-38559491D01*
X59338012Y-38559489D01*
X59338010Y-38559487D01*
X59212488Y-38487017D01*
X59212489Y-38487017D01*
X59182896Y-38479087D01*
X59072475Y-38449500D01*
X58927525Y-38449500D01*
X58865790Y-38466041D01*
X58787510Y-38487017D01*
X58661989Y-38559487D01*
X58559487Y-38661989D01*
X58487017Y-38787510D01*
X58449500Y-38927525D01*
X35387852Y-38927525D01*
X33354496Y-36894169D01*
X33326719Y-36839652D01*
X33325500Y-36824165D01*
X33325500Y-32494031D01*
X33344407Y-32435840D01*
X33354490Y-32424033D01*
X33440509Y-32338015D01*
X33512984Y-32212485D01*
X33550500Y-32072475D01*
X33550500Y-31927525D01*
X33512984Y-31787515D01*
X33512982Y-31787512D01*
X33512982Y-31787510D01*
X33440512Y-31661989D01*
X33440510Y-31661987D01*
X33440509Y-31661985D01*
X33338015Y-31559491D01*
X33338012Y-31559489D01*
X33338010Y-31559487D01*
X33212488Y-31487017D01*
X33212489Y-31487017D01*
X33182896Y-31479087D01*
X33072475Y-31449500D01*
X32927525Y-31449500D01*
X32865790Y-31466041D01*
X32787510Y-31487017D01*
X32661989Y-31559487D01*
X32559487Y-31661989D01*
X32487017Y-31787510D01*
X32449500Y-31927525D01*
X32449500Y-32072474D01*
X32487017Y-32212489D01*
X32559487Y-32338010D01*
X32559489Y-32338012D01*
X32559491Y-32338015D01*
X32645505Y-32424029D01*
X32673281Y-32478544D01*
X32674500Y-32494031D01*
X32674500Y-36515547D01*
X32655593Y-36573738D01*
X32606093Y-36609702D01*
X32544907Y-36609702D01*
X32505496Y-36585551D01*
X32414672Y-36494727D01*
X32414669Y-36494724D01*
X32361933Y-36459487D01*
X32308133Y-36423538D01*
X32308125Y-36423534D01*
X32189747Y-36374500D01*
X32189745Y-36374499D01*
X32189744Y-36374499D01*
X32064069Y-36349500D01*
X31935931Y-36349500D01*
X31935930Y-36349500D01*
X31873093Y-36361999D01*
X31810256Y-36374499D01*
X31810255Y-36374499D01*
X31810252Y-36374500D01*
X31691874Y-36423534D01*
X31691866Y-36423538D01*
X31585331Y-36494724D01*
X31585327Y-36494727D01*
X31494504Y-36585551D01*
X31439987Y-36613328D01*
X31379555Y-36603757D01*
X31336290Y-36560492D01*
X31325500Y-36515547D01*
X31325500Y-33494031D01*
X31344407Y-33435840D01*
X31354490Y-33424033D01*
X31440509Y-33338015D01*
X31512984Y-33212485D01*
X31550500Y-33072475D01*
X31550500Y-32927525D01*
X31512984Y-32787515D01*
X31512982Y-32787512D01*
X31512982Y-32787510D01*
X31440512Y-32661989D01*
X31440510Y-32661987D01*
X31440509Y-32661985D01*
X31338015Y-32559491D01*
X31338012Y-32559489D01*
X31338010Y-32559487D01*
X31212488Y-32487017D01*
X31212489Y-32487017D01*
X31180867Y-32478544D01*
X31072475Y-32449500D01*
X30927525Y-32449500D01*
X30865790Y-32466041D01*
X30787510Y-32487017D01*
X30661989Y-32559487D01*
X30559487Y-32661989D01*
X30487017Y-32787510D01*
X30449500Y-32927525D01*
X30449500Y-33072474D01*
X30487017Y-33212489D01*
X30559487Y-33338010D01*
X30559489Y-33338012D01*
X30559491Y-33338015D01*
X30645505Y-33424029D01*
X30673281Y-33478544D01*
X30674500Y-33494031D01*
X30674500Y-63750500D01*
X30655593Y-63808691D01*
X30606093Y-63844655D01*
X30575500Y-63849500D01*
X30527525Y-63849500D01*
X30465790Y-63866041D01*
X30387510Y-63887017D01*
X30261989Y-63959487D01*
X30159487Y-64061989D01*
X30087017Y-64187510D01*
X30075107Y-64231958D01*
X30049500Y-64327525D01*
X21787852Y-64327525D01*
X21199862Y-63739535D01*
X21199859Y-63739533D01*
X21199858Y-63739532D01*
X21199857Y-63739531D01*
X21125642Y-63696683D01*
X21125644Y-63696683D01*
X21093521Y-63688076D01*
X21042853Y-63674500D01*
X21042851Y-63674500D01*
X15175834Y-63674500D01*
X15117643Y-63655593D01*
X15105830Y-63645504D01*
X14579496Y-63119170D01*
X14551719Y-63064653D01*
X14550500Y-63049166D01*
X14550500Y-62927525D01*
X14535960Y-62873261D01*
X14512984Y-62787515D01*
X14512982Y-62787512D01*
X14512982Y-62787510D01*
X14440512Y-62661989D01*
X14440510Y-62661987D01*
X14440509Y-62661985D01*
X14338015Y-62559491D01*
X14338012Y-62559489D01*
X14338010Y-62559487D01*
X14212488Y-62487017D01*
X14212489Y-62487017D01*
X14180382Y-62478414D01*
X14072475Y-62449500D01*
X13927525Y-62449500D01*
X13865790Y-62466041D01*
X13787510Y-62487017D01*
X13661989Y-62559487D01*
X13559487Y-62661989D01*
X13487017Y-62787510D01*
X13449500Y-62927525D01*
X13449500Y-63072474D01*
X13487017Y-63212489D01*
X13559487Y-63338010D01*
X13559489Y-63338012D01*
X13559491Y-63338015D01*
X13661985Y-63440509D01*
X13661987Y-63440510D01*
X13661989Y-63440512D01*
X13787511Y-63512982D01*
X13787512Y-63512982D01*
X13787515Y-63512984D01*
X13927525Y-63550500D01*
X13927526Y-63550500D01*
X14049166Y-63550500D01*
X14107357Y-63569407D01*
X14119170Y-63579496D01*
X14739533Y-64199859D01*
X14739535Y-64199862D01*
X14800138Y-64260465D01*
X14824207Y-64274361D01*
X14874362Y-64303318D01*
X14957145Y-64325500D01*
X14957147Y-64325501D01*
X14957148Y-64325501D01*
X15048916Y-64325501D01*
X15048932Y-64325500D01*
X18697795Y-64325500D01*
X18755986Y-64344407D01*
X18791950Y-64393907D01*
X18791950Y-64455093D01*
X18755986Y-64504593D01*
X18747295Y-64510236D01*
X18661989Y-64559487D01*
X18661988Y-64559488D01*
X18661985Y-64559490D01*
X18661985Y-64559491D01*
X18575970Y-64645505D01*
X18521456Y-64673281D01*
X18505969Y-64674500D01*
X12819031Y-64674500D01*
X12760840Y-64655593D01*
X12749033Y-64645509D01*
X12663015Y-64559491D01*
X12663012Y-64559489D01*
X12663010Y-64559487D01*
X12537488Y-64487017D01*
X12537489Y-64487017D01*
X12483214Y-64472474D01*
X12397475Y-64449500D01*
X12252525Y-64449500D01*
X12190790Y-64466041D01*
X12112510Y-64487017D01*
X11986989Y-64559487D01*
X11884487Y-64661989D01*
X11812017Y-64787510D01*
X11790852Y-64866498D01*
X11774500Y-64927525D01*
X500500Y-64927525D01*
X500500Y-58926081D01*
X26249500Y-58926081D01*
X26249500Y-59073918D01*
X26278342Y-59218914D01*
X26326392Y-59334916D01*
X26334916Y-59355495D01*
X26417049Y-59478416D01*
X26521584Y-59582951D01*
X26644505Y-59665084D01*
X26781087Y-59721658D01*
X26926082Y-59750500D01*
X26926083Y-59750500D01*
X27073917Y-59750500D01*
X27073918Y-59750500D01*
X27218913Y-59721658D01*
X27355495Y-59665084D01*
X27478416Y-59582951D01*
X27582951Y-59478416D01*
X27665084Y-59355495D01*
X27721658Y-59218913D01*
X27750500Y-59073918D01*
X27750500Y-58926082D01*
X27721658Y-58781087D01*
X27665084Y-58644505D01*
X27582951Y-58521584D01*
X27478416Y-58417049D01*
X27355495Y-58334916D01*
X27355493Y-58334915D01*
X27218914Y-58278342D01*
X27073918Y-58249500D01*
X26926082Y-58249500D01*
X26926081Y-58249500D01*
X26781085Y-58278342D01*
X26644506Y-58334915D01*
X26521585Y-58417048D01*
X26417048Y-58521585D01*
X26334915Y-58644506D01*
X26278342Y-58781085D01*
X26249500Y-58926081D01*
X500500Y-58926081D01*
X500500Y-57935931D01*
X13349500Y-57935931D01*
X13349500Y-58064069D01*
X13373778Y-58186121D01*
X13374499Y-58189742D01*
X13374500Y-58189747D01*
X13423534Y-58308125D01*
X13423538Y-58308133D01*
X13455184Y-58355493D01*
X13494724Y-58414669D01*
X13585331Y-58505276D01*
X13648848Y-58547717D01*
X13691866Y-58576461D01*
X13691870Y-58576463D01*
X13691873Y-58576465D01*
X13810256Y-58625501D01*
X13935931Y-58650500D01*
X13935932Y-58650500D01*
X14064068Y-58650500D01*
X14064069Y-58650500D01*
X14189744Y-58625501D01*
X14308127Y-58576465D01*
X14414669Y-58505276D01*
X14490448Y-58429497D01*
X14544964Y-58401719D01*
X14560452Y-58400500D01*
X15989548Y-58400500D01*
X16047739Y-58419407D01*
X16059552Y-58429497D01*
X16135322Y-58505268D01*
X16135326Y-58505271D01*
X16135331Y-58505276D01*
X16198848Y-58547717D01*
X16241866Y-58576461D01*
X16241870Y-58576463D01*
X16241873Y-58576465D01*
X16360256Y-58625501D01*
X16485931Y-58650500D01*
X16485932Y-58650500D01*
X16614068Y-58650500D01*
X16614069Y-58650500D01*
X16739744Y-58625501D01*
X16858127Y-58576465D01*
X16964669Y-58505276D01*
X17055276Y-58414669D01*
X17126465Y-58308127D01*
X17175501Y-58189744D01*
X17200500Y-58064069D01*
X17200500Y-57935931D01*
X17175501Y-57810256D01*
X17126465Y-57691873D01*
X17126463Y-57691870D01*
X17126461Y-57691866D01*
X17064743Y-57599500D01*
X17055276Y-57585331D01*
X16964669Y-57494724D01*
X16922226Y-57466365D01*
X16858133Y-57423538D01*
X16858125Y-57423534D01*
X16739747Y-57374500D01*
X16739745Y-57374499D01*
X16739744Y-57374499D01*
X16614069Y-57349500D01*
X16485931Y-57349500D01*
X16485930Y-57349500D01*
X16423093Y-57361999D01*
X16360256Y-57374499D01*
X16360255Y-57374499D01*
X16360252Y-57374500D01*
X16241874Y-57423534D01*
X16241866Y-57423538D01*
X16135331Y-57494724D01*
X16135322Y-57494731D01*
X16059552Y-57570503D01*
X16005036Y-57598281D01*
X15989548Y-57599500D01*
X14560452Y-57599500D01*
X14502261Y-57580593D01*
X14490448Y-57570503D01*
X14414677Y-57494731D01*
X14414672Y-57494727D01*
X14414669Y-57494724D01*
X14372226Y-57466365D01*
X14308133Y-57423538D01*
X14308125Y-57423534D01*
X14189747Y-57374500D01*
X14189745Y-57374499D01*
X14189744Y-57374499D01*
X14064069Y-57349500D01*
X13935931Y-57349500D01*
X13935930Y-57349500D01*
X13873093Y-57361999D01*
X13810256Y-57374499D01*
X13810255Y-57374499D01*
X13810252Y-57374500D01*
X13691874Y-57423534D01*
X13691866Y-57423538D01*
X13585331Y-57494724D01*
X13585327Y-57494727D01*
X13494727Y-57585327D01*
X13494724Y-57585331D01*
X13423538Y-57691866D01*
X13423534Y-57691874D01*
X13374500Y-57810252D01*
X13374499Y-57810255D01*
X13374499Y-57810256D01*
X13349500Y-57935931D01*
X500500Y-57935931D01*
X500500Y-52926080D01*
X10249499Y-52926080D01*
X10249499Y-53073917D01*
X10278341Y-53218913D01*
X10312136Y-53300500D01*
X10334915Y-53355494D01*
X10417048Y-53478415D01*
X10521583Y-53582950D01*
X10644504Y-53665083D01*
X10781086Y-53721657D01*
X10926081Y-53750499D01*
X10926082Y-53750499D01*
X11073916Y-53750499D01*
X11073917Y-53750499D01*
X11218912Y-53721657D01*
X11355494Y-53665083D01*
X11478415Y-53582950D01*
X11505498Y-53555866D01*
X11560013Y-53528091D01*
X11620445Y-53537662D01*
X11663710Y-53580927D01*
X11674500Y-53625872D01*
X11674500Y-54824165D01*
X11655593Y-54882356D01*
X11645504Y-54894169D01*
X11119169Y-55420504D01*
X11064652Y-55448281D01*
X11049165Y-55449500D01*
X10927525Y-55449500D01*
X10865790Y-55466041D01*
X10787510Y-55487017D01*
X10661989Y-55559487D01*
X10559487Y-55661989D01*
X10487017Y-55787510D01*
X10449500Y-55927525D01*
X10449500Y-56072474D01*
X10487017Y-56212489D01*
X10559487Y-56338010D01*
X10559489Y-56338012D01*
X10559491Y-56338015D01*
X10661985Y-56440509D01*
X10661987Y-56440510D01*
X10661989Y-56440512D01*
X10787511Y-56512982D01*
X10787512Y-56512982D01*
X10787515Y-56512984D01*
X10927525Y-56550500D01*
X10927526Y-56550500D01*
X11072474Y-56550500D01*
X11072475Y-56550500D01*
X11212485Y-56512984D01*
X11212487Y-56512982D01*
X11212489Y-56512982D01*
X11338010Y-56440512D01*
X11338010Y-56440511D01*
X11338015Y-56440509D01*
X11440509Y-56338015D01*
X11512984Y-56212485D01*
X11550500Y-56072475D01*
X11550500Y-55950833D01*
X11569407Y-55892642D01*
X11579496Y-55880829D01*
X11881658Y-55578667D01*
X12199859Y-55260466D01*
X12199862Y-55260465D01*
X12260465Y-55199862D01*
X12303318Y-55125638D01*
X12325501Y-55042852D01*
X12325501Y-54957147D01*
X12325501Y-54951085D01*
X12325500Y-54951067D01*
X12325500Y-48927525D01*
X15449500Y-48927525D01*
X15449500Y-49072474D01*
X15487017Y-49212489D01*
X15559487Y-49338010D01*
X15559489Y-49338012D01*
X15559491Y-49338015D01*
X15661985Y-49440509D01*
X15661987Y-49440510D01*
X15661989Y-49440512D01*
X15787511Y-49512982D01*
X15787512Y-49512982D01*
X15787515Y-49512984D01*
X15927525Y-49550500D01*
X15927526Y-49550500D01*
X16072474Y-49550500D01*
X16072475Y-49550500D01*
X16212485Y-49512984D01*
X16212487Y-49512982D01*
X16212489Y-49512982D01*
X16338010Y-49440512D01*
X16338010Y-49440511D01*
X16338015Y-49440509D01*
X16440509Y-49338015D01*
X16489763Y-49252703D01*
X16535233Y-49211763D01*
X16596083Y-49205367D01*
X16649071Y-49235960D01*
X16673958Y-49291856D01*
X16674500Y-49302204D01*
X16674500Y-50824165D01*
X16655593Y-50882356D01*
X16645504Y-50894169D01*
X16119169Y-51420504D01*
X16064652Y-51448281D01*
X16049165Y-51449500D01*
X15927525Y-51449500D01*
X15865790Y-51466041D01*
X15787510Y-51487017D01*
X15661989Y-51559487D01*
X15559487Y-51661989D01*
X15487017Y-51787510D01*
X15449500Y-51927525D01*
X15449500Y-52072474D01*
X15487017Y-52212489D01*
X15559487Y-52338010D01*
X15559489Y-52338012D01*
X15559491Y-52338015D01*
X15661985Y-52440509D01*
X15661987Y-52440510D01*
X15661989Y-52440512D01*
X15787511Y-52512982D01*
X15787512Y-52512982D01*
X15787515Y-52512984D01*
X15927525Y-52550500D01*
X15927526Y-52550500D01*
X16072474Y-52550500D01*
X16072475Y-52550500D01*
X16212485Y-52512984D01*
X16212487Y-52512982D01*
X16212489Y-52512982D01*
X16338010Y-52440512D01*
X16338010Y-52440511D01*
X16338015Y-52440509D01*
X16440509Y-52338015D01*
X16460541Y-52303319D01*
X16512982Y-52212489D01*
X16512982Y-52212487D01*
X16512984Y-52212485D01*
X16550500Y-52072475D01*
X16550500Y-51950833D01*
X16569407Y-51892642D01*
X16579496Y-51880829D01*
X16883864Y-51576461D01*
X17199859Y-51260466D01*
X17199862Y-51260465D01*
X17260465Y-51199862D01*
X17303062Y-51126081D01*
X18979500Y-51126081D01*
X18979500Y-51273918D01*
X19008342Y-51418914D01*
X19060530Y-51544907D01*
X19064916Y-51555495D01*
X19147049Y-51678416D01*
X19251584Y-51782951D01*
X19374505Y-51865084D01*
X19511087Y-51921658D01*
X19656082Y-51950500D01*
X19656083Y-51950500D01*
X19803917Y-51950500D01*
X19803918Y-51950500D01*
X19948913Y-51921658D01*
X20085495Y-51865084D01*
X20208416Y-51782951D01*
X20312951Y-51678416D01*
X20395084Y-51555495D01*
X20451658Y-51418913D01*
X20480500Y-51273918D01*
X20480500Y-51126082D01*
X20451658Y-50981087D01*
X20395084Y-50844505D01*
X20312951Y-50721584D01*
X20208416Y-50617049D01*
X20085495Y-50534916D01*
X20085493Y-50534915D01*
X19948914Y-50478342D01*
X19803918Y-50449500D01*
X19656082Y-50449500D01*
X19656081Y-50449500D01*
X19511085Y-50478342D01*
X19374506Y-50534915D01*
X19251585Y-50617048D01*
X19147048Y-50721585D01*
X19064915Y-50844506D01*
X19008342Y-50981085D01*
X18979500Y-51126081D01*
X17303062Y-51126081D01*
X17303318Y-51125638D01*
X17306062Y-51115395D01*
X17311369Y-51095594D01*
X17317057Y-51074363D01*
X17317058Y-51074360D01*
X17317177Y-51073918D01*
X17325501Y-51042852D01*
X17325501Y-50957147D01*
X17325501Y-50951085D01*
X17325500Y-50951067D01*
X17325500Y-48494031D01*
X17344407Y-48435840D01*
X17354490Y-48424033D01*
X17440509Y-48338015D01*
X17512984Y-48212485D01*
X17519147Y-48189484D01*
X17552469Y-48138171D01*
X17609591Y-48116244D01*
X17668691Y-48132079D01*
X17684777Y-48145104D01*
X18800138Y-49260465D01*
X18800140Y-49260466D01*
X18800141Y-49260467D01*
X18800142Y-49260468D01*
X18874357Y-49303316D01*
X18874355Y-49303316D01*
X18874359Y-49303317D01*
X18874361Y-49303318D01*
X18957147Y-49325500D01*
X21575500Y-49325500D01*
X21633691Y-49344407D01*
X21669655Y-49393907D01*
X21674500Y-49424500D01*
X21674500Y-50685969D01*
X21655593Y-50744160D01*
X21645504Y-50755973D01*
X21641987Y-50759489D01*
X21641985Y-50759491D01*
X21591224Y-50810252D01*
X21539488Y-50861988D01*
X21539487Y-50861989D01*
X21467017Y-50987510D01*
X21467016Y-50987515D01*
X21429500Y-51127525D01*
X21429500Y-51272475D01*
X21439053Y-51308127D01*
X21467017Y-51412489D01*
X21539487Y-51538010D01*
X21539489Y-51538012D01*
X21539491Y-51538015D01*
X21641985Y-51640509D01*
X21641987Y-51640510D01*
X21641989Y-51640512D01*
X21767511Y-51712982D01*
X21767512Y-51712982D01*
X21767515Y-51712984D01*
X21907525Y-51750500D01*
X21907526Y-51750500D01*
X22052474Y-51750500D01*
X22052475Y-51750500D01*
X22192485Y-51712984D01*
X22192487Y-51712982D01*
X22192489Y-51712982D01*
X22318010Y-51640512D01*
X22318010Y-51640511D01*
X22318015Y-51640509D01*
X22420509Y-51538015D01*
X22449953Y-51487017D01*
X22492982Y-51412489D01*
X22492982Y-51412487D01*
X22492984Y-51412485D01*
X22530500Y-51272475D01*
X22530500Y-51127525D01*
X22492984Y-50987515D01*
X22492982Y-50987512D01*
X22492982Y-50987510D01*
X22420512Y-50861989D01*
X22420508Y-50861984D01*
X22354496Y-50795971D01*
X22326719Y-50741454D01*
X22325500Y-50725968D01*
X22325500Y-49935931D01*
X24349500Y-49935931D01*
X24349500Y-50064069D01*
X24368684Y-50160512D01*
X24374499Y-50189742D01*
X24374500Y-50189747D01*
X24423534Y-50308125D01*
X24423538Y-50308133D01*
X24466365Y-50372226D01*
X24494724Y-50414669D01*
X24585331Y-50505276D01*
X24648848Y-50547717D01*
X24691866Y-50576461D01*
X24691870Y-50576463D01*
X24691873Y-50576465D01*
X24810256Y-50625501D01*
X24935931Y-50650500D01*
X24935932Y-50650500D01*
X25043099Y-50650500D01*
X25101290Y-50669407D01*
X25113103Y-50679496D01*
X25414693Y-50981085D01*
X25679518Y-51245910D01*
X25679520Y-51245913D01*
X25754087Y-51320480D01*
X25814735Y-51355495D01*
X25845413Y-51373207D01*
X25947270Y-51400500D01*
X25947272Y-51400501D01*
X25947273Y-51400501D01*
X26058790Y-51400501D01*
X26058806Y-51400500D01*
X26439548Y-51400500D01*
X26497739Y-51419407D01*
X26509552Y-51429497D01*
X26585322Y-51505268D01*
X26585326Y-51505271D01*
X26585331Y-51505276D01*
X26644643Y-51544907D01*
X26691866Y-51576461D01*
X26691870Y-51576463D01*
X26691873Y-51576465D01*
X26810256Y-51625501D01*
X26935931Y-51650500D01*
X26935932Y-51650500D01*
X27064068Y-51650500D01*
X27064069Y-51650500D01*
X27189744Y-51625501D01*
X27308127Y-51576465D01*
X27414669Y-51505276D01*
X27505276Y-51414669D01*
X27576465Y-51308127D01*
X27625501Y-51189744D01*
X27650500Y-51064069D01*
X27650500Y-50935931D01*
X27625501Y-50810256D01*
X27576465Y-50691873D01*
X27576463Y-50691870D01*
X27576461Y-50691866D01*
X27544815Y-50644505D01*
X27505276Y-50585331D01*
X27414669Y-50494724D01*
X27372226Y-50466365D01*
X27308133Y-50423538D01*
X27308125Y-50423534D01*
X27189747Y-50374500D01*
X27189745Y-50374499D01*
X27189744Y-50374499D01*
X27064069Y-50349500D01*
X26935931Y-50349500D01*
X26935930Y-50349500D01*
X26873093Y-50361999D01*
X26810256Y-50374499D01*
X26810255Y-50374499D01*
X26810252Y-50374500D01*
X26691874Y-50423534D01*
X26691866Y-50423538D01*
X26585331Y-50494724D01*
X26585322Y-50494731D01*
X26509552Y-50570503D01*
X26455036Y-50598281D01*
X26439548Y-50599500D01*
X26206900Y-50599500D01*
X26148709Y-50580593D01*
X26136896Y-50570503D01*
X25679496Y-50113102D01*
X25651719Y-50058586D01*
X25650500Y-50043099D01*
X25650500Y-49935932D01*
X25650500Y-49935931D01*
X25625501Y-49810256D01*
X25576465Y-49691873D01*
X25576463Y-49691870D01*
X25576461Y-49691866D01*
X25546833Y-49647525D01*
X25505276Y-49585331D01*
X25414669Y-49494724D01*
X25372226Y-49466365D01*
X25308133Y-49423538D01*
X25308125Y-49423534D01*
X25189747Y-49374500D01*
X25189745Y-49374499D01*
X25189744Y-49374499D01*
X25064069Y-49349500D01*
X24935931Y-49349500D01*
X24935930Y-49349500D01*
X24873093Y-49361999D01*
X24810256Y-49374499D01*
X24810255Y-49374499D01*
X24810252Y-49374500D01*
X24691874Y-49423534D01*
X24691866Y-49423538D01*
X24585331Y-49494724D01*
X24585327Y-49494727D01*
X24494727Y-49585327D01*
X24494724Y-49585331D01*
X24423538Y-49691866D01*
X24423534Y-49691874D01*
X24374500Y-49810252D01*
X24374499Y-49810257D01*
X24350185Y-49932489D01*
X24349500Y-49935931D01*
X22325500Y-49935931D01*
X22325500Y-48957148D01*
X22325500Y-48957147D01*
X22303318Y-48874362D01*
X22260465Y-48800138D01*
X22199862Y-48739535D01*
X22125638Y-48696682D01*
X22042853Y-48674500D01*
X22042851Y-48674500D01*
X19175835Y-48674500D01*
X19117644Y-48655593D01*
X19105831Y-48645504D01*
X18532801Y-48072474D01*
X17954829Y-47494502D01*
X17927054Y-47439988D01*
X17936625Y-47379556D01*
X17979890Y-47336291D01*
X18024835Y-47325501D01*
X18048916Y-47325501D01*
X18048932Y-47325500D01*
X22042851Y-47325500D01*
X22042853Y-47325500D01*
X22125638Y-47303318D01*
X22199862Y-47260465D01*
X22260465Y-47199862D01*
X22303318Y-47125638D01*
X22325500Y-47042853D01*
X22325500Y-45321952D01*
X22344407Y-45263761D01*
X22364239Y-45243405D01*
X22368005Y-45240514D01*
X22368015Y-45240509D01*
X22470509Y-45138015D01*
X22506329Y-45075973D01*
X22542982Y-45012489D01*
X22542982Y-45012487D01*
X22542984Y-45012485D01*
X22580500Y-44872475D01*
X22580500Y-44727525D01*
X22542984Y-44587515D01*
X22542982Y-44587512D01*
X22542982Y-44587510D01*
X22470512Y-44461989D01*
X22470510Y-44461987D01*
X22470509Y-44461985D01*
X22368015Y-44359491D01*
X22368012Y-44359489D01*
X22368010Y-44359487D01*
X22242488Y-44287017D01*
X22242489Y-44287017D01*
X22154055Y-44263321D01*
X22102475Y-44249500D01*
X21957525Y-44249500D01*
X21905945Y-44263321D01*
X21817510Y-44287017D01*
X21691989Y-44359487D01*
X21691985Y-44359491D01*
X21670711Y-44380764D01*
X21616194Y-44408540D01*
X21555762Y-44398968D01*
X21530705Y-44380763D01*
X21444669Y-44294727D01*
X21444666Y-44294724D01*
X21397665Y-44263319D01*
X21338130Y-44223538D01*
X21338122Y-44223534D01*
X21219744Y-44174500D01*
X21219742Y-44174499D01*
X21219741Y-44174499D01*
X21094066Y-44149500D01*
X20965928Y-44149500D01*
X20965927Y-44149500D01*
X20903090Y-44161999D01*
X20840253Y-44174499D01*
X20840252Y-44174499D01*
X20840249Y-44174500D01*
X20721871Y-44223534D01*
X20721863Y-44223538D01*
X20615328Y-44294724D01*
X20615324Y-44294727D01*
X20524724Y-44385327D01*
X20524721Y-44385331D01*
X20452341Y-44493654D01*
X20404291Y-44531533D01*
X20343153Y-44533935D01*
X20300024Y-44508657D01*
X20208416Y-44417049D01*
X20085495Y-44334916D01*
X20085493Y-44334915D01*
X19948914Y-44278342D01*
X19803918Y-44249500D01*
X19656082Y-44249500D01*
X19656081Y-44249500D01*
X19511085Y-44278342D01*
X19374506Y-44334915D01*
X19251585Y-44417048D01*
X19147048Y-44521585D01*
X19064915Y-44644506D01*
X19008342Y-44781085D01*
X18979500Y-44926081D01*
X18979500Y-45073920D01*
X19000052Y-45177239D01*
X18992860Y-45238000D01*
X18951328Y-45282930D01*
X18891318Y-45294867D01*
X18835753Y-45269251D01*
X18832950Y-45266557D01*
X18572362Y-45005969D01*
X18245913Y-44679520D01*
X18245910Y-44679518D01*
X18245909Y-44679517D01*
X18245908Y-44679516D01*
X18154591Y-44626794D01*
X18154593Y-44626794D01*
X18104335Y-44613328D01*
X18052727Y-44599500D01*
X18052725Y-44599500D01*
X17560452Y-44599500D01*
X17502261Y-44580593D01*
X17490448Y-44570503D01*
X17414677Y-44494731D01*
X17414672Y-44494727D01*
X17414669Y-44494724D01*
X17355269Y-44455034D01*
X17308133Y-44423538D01*
X17308125Y-44423534D01*
X17189747Y-44374500D01*
X17189745Y-44374499D01*
X17189744Y-44374499D01*
X17064069Y-44349500D01*
X16935931Y-44349500D01*
X16935930Y-44349500D01*
X16885724Y-44359487D01*
X16810256Y-44374499D01*
X16810255Y-44374499D01*
X16810252Y-44374500D01*
X16691874Y-44423534D01*
X16691866Y-44423538D01*
X16585331Y-44494724D01*
X16585327Y-44494727D01*
X16494727Y-44585327D01*
X16494724Y-44585331D01*
X16423538Y-44691866D01*
X16423534Y-44691874D01*
X16374500Y-44810252D01*
X16374499Y-44810257D01*
X16350706Y-44929870D01*
X16349500Y-44935931D01*
X16349500Y-45064069D01*
X16368977Y-45161985D01*
X16374499Y-45189742D01*
X16374500Y-45189747D01*
X16423534Y-45308125D01*
X16423538Y-45308133D01*
X16441617Y-45335189D01*
X16494724Y-45414669D01*
X16494727Y-45414672D01*
X16580762Y-45500707D01*
X16608539Y-45555224D01*
X16598968Y-45615656D01*
X16580764Y-45640711D01*
X16559491Y-45661985D01*
X16559488Y-45661988D01*
X16559487Y-45661989D01*
X16487017Y-45787510D01*
X16449500Y-45927525D01*
X16449500Y-46072474D01*
X16487017Y-46212489D01*
X16559487Y-46338010D01*
X16559489Y-46338012D01*
X16559491Y-46338015D01*
X16661985Y-46440509D01*
X16661987Y-46440510D01*
X16661989Y-46440512D01*
X16787511Y-46512982D01*
X16787512Y-46512982D01*
X16787515Y-46512984D01*
X16833286Y-46525248D01*
X16884599Y-46558571D01*
X16906526Y-46615692D01*
X16890691Y-46674792D01*
X16857164Y-46706610D01*
X16800137Y-46739535D01*
X16739534Y-46800137D01*
X16739535Y-46800138D01*
X15739531Y-47800142D01*
X15696683Y-47874356D01*
X15682437Y-47927525D01*
X15682436Y-47927524D01*
X15674500Y-47957144D01*
X15674500Y-48505969D01*
X15655593Y-48564160D01*
X15645509Y-48575966D01*
X15576971Y-48644505D01*
X15559488Y-48661988D01*
X15559487Y-48661989D01*
X15487017Y-48787510D01*
X15449500Y-48927525D01*
X12325500Y-48927525D01*
X12325500Y-48825831D01*
X12344407Y-48767640D01*
X12354485Y-48755839D01*
X12530829Y-48579494D01*
X12585344Y-48551719D01*
X12600831Y-48550500D01*
X12722472Y-48550500D01*
X12722473Y-48550500D01*
X12862483Y-48512984D01*
X12862485Y-48512982D01*
X12862487Y-48512982D01*
X12988008Y-48440512D01*
X12988008Y-48440511D01*
X12988013Y-48440509D01*
X13090507Y-48338015D01*
X13104227Y-48314251D01*
X13162980Y-48212489D01*
X13162980Y-48212487D01*
X13162982Y-48212485D01*
X13200498Y-48072475D01*
X13200498Y-47927525D01*
X13162982Y-47787515D01*
X13162980Y-47787512D01*
X13162980Y-47787510D01*
X13090510Y-47661989D01*
X13090508Y-47661987D01*
X13090507Y-47661985D01*
X12988013Y-47559491D01*
X12988010Y-47559489D01*
X12988008Y-47559487D01*
X12862486Y-47487017D01*
X12862487Y-47487017D01*
X12830380Y-47478414D01*
X12722473Y-47449500D01*
X12577523Y-47449500D01*
X12515788Y-47466041D01*
X12437508Y-47487017D01*
X12311987Y-47559487D01*
X12209485Y-47661989D01*
X12137015Y-47787510D01*
X12099498Y-47927525D01*
X12099498Y-48049165D01*
X12080591Y-48107356D01*
X12070502Y-48119168D01*
X11739535Y-48450135D01*
X11739531Y-48450140D01*
X11696682Y-48524358D01*
X11696681Y-48524358D01*
X11696682Y-48524359D01*
X11674500Y-48607145D01*
X11674500Y-52374126D01*
X11655593Y-52432317D01*
X11606093Y-52468281D01*
X11544907Y-52468281D01*
X11505498Y-52444131D01*
X11478415Y-52417048D01*
X11355494Y-52334915D01*
X11332767Y-52325501D01*
X11218913Y-52278341D01*
X11073917Y-52249499D01*
X10926081Y-52249499D01*
X10926080Y-52249499D01*
X10781084Y-52278341D01*
X10644505Y-52334914D01*
X10521584Y-52417047D01*
X10417047Y-52521584D01*
X10334914Y-52644505D01*
X10278341Y-52781084D01*
X10249499Y-52926080D01*
X500500Y-52926080D01*
X500500Y-48663385D01*
X6399500Y-48663385D01*
X6399500Y-48836614D01*
X6426597Y-49007702D01*
X6426598Y-49007706D01*
X6480123Y-49172438D01*
X6480125Y-49172441D01*
X6558111Y-49325500D01*
X6558768Y-49326788D01*
X6660586Y-49466928D01*
X6783072Y-49589414D01*
X6923212Y-49691232D01*
X7077555Y-49769873D01*
X7077557Y-49769873D01*
X7077558Y-49769874D01*
X7077561Y-49769876D01*
X7242293Y-49823401D01*
X7242297Y-49823402D01*
X7413386Y-49850500D01*
X7413389Y-49850500D01*
X7586614Y-49850500D01*
X7757702Y-49823402D01*
X7757706Y-49823401D01*
X7922438Y-49769876D01*
X7922440Y-49769874D01*
X7922445Y-49769873D01*
X8076788Y-49691232D01*
X8216928Y-49589414D01*
X8339414Y-49466928D01*
X8441232Y-49326788D01*
X8519873Y-49172445D01*
X8519874Y-49172440D01*
X8519876Y-49172438D01*
X8573401Y-49007706D01*
X8573402Y-49007702D01*
X8600500Y-48836614D01*
X8600500Y-48663385D01*
X8573402Y-48492297D01*
X8573401Y-48492293D01*
X8519876Y-48327561D01*
X8519874Y-48327558D01*
X8519873Y-48327557D01*
X8519873Y-48327555D01*
X8441232Y-48173212D01*
X8339414Y-48033072D01*
X8216928Y-47910586D01*
X8076788Y-47808768D01*
X8076787Y-47808767D01*
X8076785Y-47808766D01*
X7922441Y-47730125D01*
X7922438Y-47730123D01*
X7757706Y-47676598D01*
X7757702Y-47676597D01*
X7586614Y-47649500D01*
X7586611Y-47649500D01*
X7413389Y-47649500D01*
X7413386Y-47649500D01*
X7242297Y-47676597D01*
X7242293Y-47676598D01*
X7077561Y-47730123D01*
X7077558Y-47730125D01*
X6923214Y-47808766D01*
X6783073Y-47910585D01*
X6660585Y-48033073D01*
X6558766Y-48173214D01*
X6480125Y-48327558D01*
X6480123Y-48327561D01*
X6426598Y-48492293D01*
X6426597Y-48492297D01*
X6399500Y-48663385D01*
X500500Y-48663385D01*
X500500Y-46163385D01*
X6399500Y-46163385D01*
X6399500Y-46336614D01*
X6426597Y-46507702D01*
X6426598Y-46507706D01*
X6480123Y-46672438D01*
X6480125Y-46672441D01*
X6545188Y-46800137D01*
X6558768Y-46826788D01*
X6660586Y-46966928D01*
X6783072Y-47089414D01*
X6923212Y-47191232D01*
X7077555Y-47269873D01*
X7077557Y-47269873D01*
X7077558Y-47269874D01*
X7077561Y-47269876D01*
X7242293Y-47323401D01*
X7242297Y-47323402D01*
X7413386Y-47350500D01*
X7413389Y-47350500D01*
X7586614Y-47350500D01*
X7757702Y-47323402D01*
X7757706Y-47323401D01*
X7922438Y-47269876D01*
X7922440Y-47269874D01*
X7922445Y-47269873D01*
X8076788Y-47191232D01*
X8216928Y-47089414D01*
X8339414Y-46966928D01*
X8441232Y-46826788D01*
X8519873Y-46672445D01*
X8519874Y-46672440D01*
X8519876Y-46672438D01*
X8573401Y-46507706D01*
X8573402Y-46507702D01*
X8600500Y-46336614D01*
X8600500Y-46163385D01*
X8573402Y-45992297D01*
X8573401Y-45992293D01*
X8519876Y-45827561D01*
X8519874Y-45827558D01*
X8519873Y-45827557D01*
X8519873Y-45827555D01*
X8441232Y-45673212D01*
X8339414Y-45533072D01*
X8216928Y-45410586D01*
X8076788Y-45308768D01*
X8076787Y-45308767D01*
X8076785Y-45308766D01*
X7922441Y-45230125D01*
X7922438Y-45230123D01*
X7757706Y-45176598D01*
X7757702Y-45176597D01*
X7586614Y-45149500D01*
X7586611Y-45149500D01*
X7413389Y-45149500D01*
X7413386Y-45149500D01*
X7242297Y-45176597D01*
X7242293Y-45176598D01*
X7077561Y-45230123D01*
X7077558Y-45230125D01*
X6923214Y-45308766D01*
X6783073Y-45410585D01*
X6660585Y-45533073D01*
X6558766Y-45673214D01*
X6480125Y-45827558D01*
X6480123Y-45827561D01*
X6426598Y-45992293D01*
X6426597Y-45992297D01*
X6399500Y-46163385D01*
X500500Y-46163385D01*
X500500Y-25947273D01*
X2599500Y-25947273D01*
X2599500Y-29947273D01*
X2599500Y-30052727D01*
X2623570Y-30142559D01*
X2626794Y-30154592D01*
X2679516Y-30245908D01*
X2679517Y-30245909D01*
X2679518Y-30245910D01*
X2679520Y-30245913D01*
X5771617Y-33338010D01*
X8679519Y-36245912D01*
X8679520Y-36245913D01*
X8679519Y-36245913D01*
X8754087Y-36320480D01*
X8845413Y-36373207D01*
X8947273Y-36400500D01*
X8947275Y-36400500D01*
X18052725Y-36400500D01*
X18052727Y-36400500D01*
X18154588Y-36373207D01*
X18154590Y-36373205D01*
X18154592Y-36373205D01*
X18245908Y-36320483D01*
X18245908Y-36320482D01*
X18245913Y-36320480D01*
X20320480Y-34245913D01*
X20373207Y-34154588D01*
X20400500Y-34052727D01*
X20400500Y-33947273D01*
X20400500Y-32060268D01*
X20419407Y-32002077D01*
X20468907Y-31966113D01*
X20518814Y-31963171D01*
X20533605Y-31966113D01*
X20605922Y-31980499D01*
X20605929Y-31980499D01*
X20605931Y-31980500D01*
X20605932Y-31980500D01*
X20734068Y-31980500D01*
X20734069Y-31980500D01*
X20859744Y-31955501D01*
X20978127Y-31906465D01*
X21084669Y-31835276D01*
X21175276Y-31744669D01*
X21246465Y-31638127D01*
X21295501Y-31519744D01*
X21320500Y-31394069D01*
X21320500Y-31265931D01*
X21295501Y-31140256D01*
X21246465Y-31021873D01*
X21246463Y-31021870D01*
X21246461Y-31021866D01*
X21214269Y-30973688D01*
X21175276Y-30915331D01*
X21084669Y-30824724D01*
X21042226Y-30796365D01*
X20978133Y-30753538D01*
X20978125Y-30753534D01*
X20859747Y-30704500D01*
X20859745Y-30704499D01*
X20859744Y-30704499D01*
X20734069Y-30679500D01*
X20605931Y-30679500D01*
X20605930Y-30679500D01*
X20543093Y-30691999D01*
X20480256Y-30704499D01*
X20480255Y-30704499D01*
X20480252Y-30704500D01*
X20361874Y-30753534D01*
X20361866Y-30753538D01*
X20255331Y-30824724D01*
X20255327Y-30824727D01*
X20164723Y-30915331D01*
X20125730Y-30973688D01*
X20092917Y-31004421D01*
X20084091Y-31009516D01*
X19679516Y-31414091D01*
X19626793Y-31505411D01*
X19626792Y-31505411D01*
X19626793Y-31505412D01*
X19599500Y-31607273D01*
X19599500Y-33793099D01*
X19580593Y-33851290D01*
X19570504Y-33863103D01*
X17863103Y-35570504D01*
X17808586Y-35598281D01*
X17793099Y-35599500D01*
X9206901Y-35599500D01*
X9148710Y-35580593D01*
X9136897Y-35570504D01*
X3493918Y-29927525D01*
X25449500Y-29927525D01*
X25449500Y-30072475D01*
X25479087Y-30182896D01*
X25487017Y-30212489D01*
X25559487Y-30338010D01*
X25559489Y-30338012D01*
X25559491Y-30338015D01*
X25661985Y-30440509D01*
X25661987Y-30440510D01*
X25661989Y-30440512D01*
X25787511Y-30512982D01*
X25787512Y-30512982D01*
X25787515Y-30512984D01*
X25927525Y-30550500D01*
X25927526Y-30550500D01*
X26072474Y-30550500D01*
X26072475Y-30550500D01*
X26212485Y-30512984D01*
X26212487Y-30512982D01*
X26212489Y-30512982D01*
X26338010Y-30440512D01*
X26338010Y-30440511D01*
X26338015Y-30440509D01*
X26440509Y-30338015D01*
X26440512Y-30338010D01*
X26512982Y-30212489D01*
X26512982Y-30212487D01*
X26512984Y-30212485D01*
X26550500Y-30072475D01*
X26550500Y-29927525D01*
X26512984Y-29787515D01*
X26512982Y-29787512D01*
X26512982Y-29787510D01*
X26440512Y-29661989D01*
X26440510Y-29661987D01*
X26440509Y-29661985D01*
X26354494Y-29575970D01*
X26326719Y-29521456D01*
X26325500Y-29505969D01*
X26325500Y-29175834D01*
X26344407Y-29117643D01*
X26354496Y-29105830D01*
X28505496Y-26954830D01*
X28560013Y-26927053D01*
X28620445Y-26936624D01*
X28663710Y-26979889D01*
X28674500Y-27024834D01*
X28674500Y-32505969D01*
X28655593Y-32564160D01*
X28645509Y-32575966D01*
X28559491Y-32661985D01*
X28559488Y-32661988D01*
X28559487Y-32661989D01*
X28487017Y-32787510D01*
X28449500Y-32927525D01*
X28449500Y-33072474D01*
X28487017Y-33212489D01*
X28559487Y-33338010D01*
X28559489Y-33338012D01*
X28559491Y-33338015D01*
X28661985Y-33440509D01*
X28661987Y-33440510D01*
X28661989Y-33440512D01*
X28787511Y-33512982D01*
X28787512Y-33512982D01*
X28787515Y-33512984D01*
X28927525Y-33550500D01*
X28927526Y-33550500D01*
X29072474Y-33550500D01*
X29072475Y-33550500D01*
X29212485Y-33512984D01*
X29212487Y-33512982D01*
X29212489Y-33512982D01*
X29338010Y-33440512D01*
X29338010Y-33440511D01*
X29338015Y-33440509D01*
X29440509Y-33338015D01*
X29512984Y-33212485D01*
X29550500Y-33072475D01*
X29550500Y-32927525D01*
X29512984Y-32787515D01*
X29512982Y-32787512D01*
X29512982Y-32787510D01*
X29440512Y-32661989D01*
X29440510Y-32661987D01*
X29440509Y-32661985D01*
X29354494Y-32575970D01*
X29326719Y-32521456D01*
X29325500Y-32505969D01*
X29325500Y-27175835D01*
X29344407Y-27117644D01*
X29354496Y-27105831D01*
X30532802Y-25927525D01*
X39449500Y-25927525D01*
X39449500Y-26072474D01*
X39487017Y-26212489D01*
X39559487Y-26338010D01*
X39559489Y-26338012D01*
X39559491Y-26338015D01*
X39645505Y-26424029D01*
X39673281Y-26478544D01*
X39674500Y-26494031D01*
X39674500Y-28957147D01*
X39674500Y-29042853D01*
X39682437Y-29072474D01*
X39696683Y-29125643D01*
X39739531Y-29199857D01*
X39739533Y-29199859D01*
X39739535Y-29199862D01*
X40099161Y-29559487D01*
X40420504Y-29880830D01*
X40448281Y-29935347D01*
X40449500Y-29950834D01*
X40449500Y-30072475D01*
X40479087Y-30182896D01*
X40487017Y-30212489D01*
X40559487Y-30338010D01*
X40559489Y-30338012D01*
X40559491Y-30338015D01*
X40661985Y-30440509D01*
X40661987Y-30440510D01*
X40661989Y-30440512D01*
X40787511Y-30512982D01*
X40787512Y-30512982D01*
X40787515Y-30512984D01*
X40927525Y-30550500D01*
X40927526Y-30550500D01*
X41072474Y-30550500D01*
X41072475Y-30550500D01*
X41212485Y-30512984D01*
X41212487Y-30512982D01*
X41212489Y-30512982D01*
X41338010Y-30440512D01*
X41338010Y-30440511D01*
X41338015Y-30440509D01*
X41440509Y-30338015D01*
X41440512Y-30338010D01*
X41512982Y-30212489D01*
X41512982Y-30212487D01*
X41512984Y-30212485D01*
X41550500Y-30072475D01*
X41550500Y-29927525D01*
X41512984Y-29787515D01*
X41512982Y-29787512D01*
X41512982Y-29787510D01*
X41440512Y-29661989D01*
X41440510Y-29661987D01*
X41440509Y-29661985D01*
X41338015Y-29559491D01*
X41338012Y-29559489D01*
X41338010Y-29559487D01*
X41212488Y-29487017D01*
X41212489Y-29487017D01*
X41182896Y-29479087D01*
X41072475Y-29449500D01*
X40950834Y-29449500D01*
X40892643Y-29430593D01*
X40880830Y-29420503D01*
X40451373Y-28991045D01*
X40451367Y-28991040D01*
X40387852Y-28927525D01*
X64449500Y-28927525D01*
X64449500Y-29072475D01*
X64466207Y-29134826D01*
X64487017Y-29212489D01*
X64559487Y-29338010D01*
X64559489Y-29338012D01*
X64559491Y-29338015D01*
X64661985Y-29440509D01*
X64661987Y-29440510D01*
X64661989Y-29440512D01*
X64787511Y-29512982D01*
X64787512Y-29512982D01*
X64787515Y-29512984D01*
X64927525Y-29550500D01*
X64927526Y-29550500D01*
X65072474Y-29550500D01*
X65072475Y-29550500D01*
X65212485Y-29512984D01*
X65212487Y-29512982D01*
X65212489Y-29512982D01*
X65338010Y-29440512D01*
X65338010Y-29440511D01*
X65338015Y-29440509D01*
X65440509Y-29338015D01*
X65512984Y-29212485D01*
X65550500Y-29072475D01*
X65550500Y-28927525D01*
X65512984Y-28787515D01*
X65512982Y-28787512D01*
X65512982Y-28787510D01*
X65440512Y-28661989D01*
X65440510Y-28661987D01*
X65440509Y-28661985D01*
X65354494Y-28575970D01*
X65326719Y-28521456D01*
X65325500Y-28505969D01*
X65325500Y-26175833D01*
X65344407Y-26117642D01*
X65354490Y-26105835D01*
X68199859Y-23260466D01*
X68199862Y-23260465D01*
X68260465Y-23199862D01*
X68289756Y-23149129D01*
X68303318Y-23125639D01*
X68325501Y-23042853D01*
X68325501Y-22957147D01*
X68325501Y-22951085D01*
X68325500Y-22951067D01*
X68325500Y-21494031D01*
X68344407Y-21435840D01*
X68354490Y-21424033D01*
X68440509Y-21338015D01*
X68451220Y-21319463D01*
X68512982Y-21212489D01*
X68512982Y-21212487D01*
X68512984Y-21212485D01*
X68550500Y-21072475D01*
X68550500Y-20927525D01*
X68512984Y-20787515D01*
X68512982Y-20787512D01*
X68512982Y-20787510D01*
X68440512Y-20661989D01*
X68440510Y-20661987D01*
X68440509Y-20661985D01*
X68338015Y-20559491D01*
X68338012Y-20559489D01*
X68338010Y-20559487D01*
X68212488Y-20487017D01*
X68212489Y-20487017D01*
X68182896Y-20479087D01*
X68072475Y-20449500D01*
X67927525Y-20449500D01*
X67865790Y-20466041D01*
X67787510Y-20487017D01*
X67661989Y-20559487D01*
X67559487Y-20661989D01*
X67487017Y-20787510D01*
X67481543Y-20807939D01*
X67449500Y-20927525D01*
X67449500Y-21072475D01*
X67457863Y-21103684D01*
X67487017Y-21212489D01*
X67559487Y-21338010D01*
X67559489Y-21338012D01*
X67559491Y-21338015D01*
X67645505Y-21424029D01*
X67673281Y-21478544D01*
X67674500Y-21494031D01*
X67674500Y-22824165D01*
X67655593Y-22882356D01*
X67645504Y-22894169D01*
X64739531Y-25800142D01*
X64696682Y-25874360D01*
X64696681Y-25874360D01*
X64696682Y-25874361D01*
X64674500Y-25957147D01*
X64674500Y-28505969D01*
X64655593Y-28564160D01*
X64645509Y-28575966D01*
X64559491Y-28661985D01*
X64559488Y-28661988D01*
X64559487Y-28661989D01*
X64487017Y-28787510D01*
X64473046Y-28839652D01*
X64449500Y-28927525D01*
X40387852Y-28927525D01*
X40354496Y-28894169D01*
X40326719Y-28839652D01*
X40325500Y-28824165D01*
X40325500Y-26494031D01*
X40344407Y-26435840D01*
X40354490Y-26424033D01*
X40440509Y-26338015D01*
X40440512Y-26338010D01*
X40512982Y-26212489D01*
X40512982Y-26212487D01*
X40512984Y-26212485D01*
X40550500Y-26072475D01*
X40550500Y-25927525D01*
X40512984Y-25787515D01*
X40512982Y-25787512D01*
X40512982Y-25787510D01*
X40440512Y-25661989D01*
X40440510Y-25661987D01*
X40440509Y-25661985D01*
X40338015Y-25559491D01*
X40338012Y-25559489D01*
X40338010Y-25559487D01*
X40212488Y-25487017D01*
X40212489Y-25487017D01*
X40180382Y-25478414D01*
X40072475Y-25449500D01*
X39927525Y-25449500D01*
X39865790Y-25466041D01*
X39787510Y-25487017D01*
X39661989Y-25559487D01*
X39559487Y-25661989D01*
X39487017Y-25787510D01*
X39449500Y-25927525D01*
X30532802Y-25927525D01*
X31105831Y-25354496D01*
X31160348Y-25326719D01*
X31175835Y-25325500D01*
X35042851Y-25325500D01*
X35042853Y-25325500D01*
X35125639Y-25303318D01*
X35125641Y-25303316D01*
X35125643Y-25303316D01*
X35199857Y-25260468D01*
X35199857Y-25260467D01*
X35199862Y-25260465D01*
X39534244Y-20926081D01*
X46249500Y-20926081D01*
X46249500Y-21073918D01*
X46278342Y-21218914D01*
X46334915Y-21355493D01*
X46334916Y-21355495D01*
X46417049Y-21478416D01*
X46521584Y-21582951D01*
X46644505Y-21665084D01*
X46781087Y-21721658D01*
X46926082Y-21750500D01*
X46926083Y-21750500D01*
X47073917Y-21750500D01*
X47073918Y-21750500D01*
X47218913Y-21721658D01*
X47355495Y-21665084D01*
X47478416Y-21582951D01*
X47582951Y-21478416D01*
X47665084Y-21355495D01*
X47721658Y-21218913D01*
X47750500Y-21073918D01*
X47750500Y-20926082D01*
X47750500Y-20926081D01*
X49249500Y-20926081D01*
X49249500Y-21073918D01*
X49278342Y-21218914D01*
X49334915Y-21355493D01*
X49334916Y-21355495D01*
X49417049Y-21478416D01*
X49521584Y-21582951D01*
X49644505Y-21665084D01*
X49781087Y-21721658D01*
X49926082Y-21750500D01*
X49926083Y-21750500D01*
X50073917Y-21750500D01*
X50073918Y-21750500D01*
X50218913Y-21721658D01*
X50355495Y-21665084D01*
X50478416Y-21582951D01*
X50582951Y-21478416D01*
X50665084Y-21355495D01*
X50721658Y-21218913D01*
X50750500Y-21073918D01*
X50750500Y-20926082D01*
X50721658Y-20781087D01*
X50665084Y-20644505D01*
X50582951Y-20521584D01*
X50478416Y-20417049D01*
X50355495Y-20334916D01*
X50332763Y-20325500D01*
X50218914Y-20278342D01*
X50073918Y-20249500D01*
X49926082Y-20249500D01*
X49926081Y-20249500D01*
X49781085Y-20278342D01*
X49644506Y-20334915D01*
X49521585Y-20417048D01*
X49417048Y-20521585D01*
X49334915Y-20644506D01*
X49278342Y-20781085D01*
X49249500Y-20926081D01*
X47750500Y-20926081D01*
X47721658Y-20781087D01*
X47665084Y-20644505D01*
X47582951Y-20521584D01*
X47478416Y-20417049D01*
X47355495Y-20334916D01*
X47332763Y-20325500D01*
X47218914Y-20278342D01*
X47073918Y-20249500D01*
X46926082Y-20249500D01*
X46926081Y-20249500D01*
X46781085Y-20278342D01*
X46644506Y-20334915D01*
X46521585Y-20417048D01*
X46417048Y-20521585D01*
X46334915Y-20644506D01*
X46278342Y-20781085D01*
X46249500Y-20926081D01*
X39534244Y-20926081D01*
X40105830Y-20354495D01*
X40160347Y-20326719D01*
X40175834Y-20325500D01*
X40505969Y-20325500D01*
X40564160Y-20344407D01*
X40575966Y-20354490D01*
X40661985Y-20440509D01*
X40661987Y-20440510D01*
X40661989Y-20440512D01*
X40787511Y-20512982D01*
X40787512Y-20512982D01*
X40787515Y-20512984D01*
X40927525Y-20550500D01*
X40927526Y-20550500D01*
X41072474Y-20550500D01*
X41072475Y-20550500D01*
X41212485Y-20512984D01*
X41212487Y-20512982D01*
X41212489Y-20512982D01*
X41338010Y-20440512D01*
X41338010Y-20440511D01*
X41338015Y-20440509D01*
X41440509Y-20338015D01*
X41472363Y-20282842D01*
X41512982Y-20212489D01*
X41512982Y-20212487D01*
X41512984Y-20212485D01*
X41550500Y-20072475D01*
X41550500Y-19927525D01*
X41512984Y-19787515D01*
X41512982Y-19787512D01*
X41512982Y-19787510D01*
X41440512Y-19661989D01*
X41440510Y-19661987D01*
X41440509Y-19661985D01*
X41338015Y-19559491D01*
X41338012Y-19559489D01*
X41338010Y-19559487D01*
X41212488Y-19487017D01*
X41212489Y-19487017D01*
X41125290Y-19463652D01*
X41072475Y-19449500D01*
X40927525Y-19449500D01*
X40886790Y-19460415D01*
X40787510Y-19487017D01*
X40661989Y-19559487D01*
X40661988Y-19559488D01*
X40661985Y-19559490D01*
X40661985Y-19559491D01*
X40575970Y-19645505D01*
X40521456Y-19673281D01*
X40505969Y-19674500D01*
X40024833Y-19674500D01*
X39966642Y-19655593D01*
X39930678Y-19606093D01*
X39930678Y-19544907D01*
X39954829Y-19505497D01*
X40191708Y-19268617D01*
X40199859Y-19260466D01*
X40199862Y-19260465D01*
X40260465Y-19199862D01*
X40288629Y-19151080D01*
X46024500Y-19151080D01*
X46024500Y-19298918D01*
X46053342Y-19443914D01*
X46101216Y-19559491D01*
X46109916Y-19580495D01*
X46192049Y-19703416D01*
X46296584Y-19807951D01*
X46419505Y-19890084D01*
X46556087Y-19946658D01*
X46701082Y-19975500D01*
X46701083Y-19975500D01*
X46848917Y-19975500D01*
X46848918Y-19975500D01*
X46993913Y-19946658D01*
X47130495Y-19890084D01*
X47253416Y-19807951D01*
X47357951Y-19703416D01*
X47440084Y-19580495D01*
X47496658Y-19443913D01*
X47525500Y-19298918D01*
X47525500Y-19151082D01*
X47522122Y-19134102D01*
X47503971Y-19042851D01*
X47496658Y-19006087D01*
X47476386Y-18957147D01*
X47463518Y-18926081D01*
X67249500Y-18926081D01*
X67249500Y-19073918D01*
X67278342Y-19218914D01*
X67334915Y-19355493D01*
X67334916Y-19355495D01*
X67417049Y-19478416D01*
X67521584Y-19582951D01*
X67644505Y-19665084D01*
X67781087Y-19721658D01*
X67926082Y-19750500D01*
X67926083Y-19750500D01*
X68073917Y-19750500D01*
X68073918Y-19750500D01*
X68218913Y-19721658D01*
X68355495Y-19665084D01*
X68478416Y-19582951D01*
X68582951Y-19478416D01*
X68665084Y-19355495D01*
X68721658Y-19218913D01*
X68750500Y-19073918D01*
X68750500Y-18926082D01*
X68721658Y-18781087D01*
X68665084Y-18644505D01*
X68582951Y-18521584D01*
X68478416Y-18417049D01*
X68355495Y-18334916D01*
X68355493Y-18334915D01*
X68218914Y-18278342D01*
X68073918Y-18249500D01*
X67926082Y-18249500D01*
X67926081Y-18249500D01*
X67781085Y-18278342D01*
X67644506Y-18334915D01*
X67521585Y-18417048D01*
X67417048Y-18521585D01*
X67334915Y-18644506D01*
X67278342Y-18781085D01*
X67249500Y-18926081D01*
X47463518Y-18926081D01*
X47440084Y-18869506D01*
X47440084Y-18869505D01*
X47357951Y-18746584D01*
X47253416Y-18642049D01*
X47130495Y-18559916D01*
X47130493Y-18559915D01*
X46993914Y-18503342D01*
X46848918Y-18474500D01*
X46701082Y-18474500D01*
X46701081Y-18474500D01*
X46556085Y-18503342D01*
X46419506Y-18559915D01*
X46296585Y-18642048D01*
X46192048Y-18746585D01*
X46109915Y-18869506D01*
X46053342Y-19006085D01*
X46024500Y-19151080D01*
X40288629Y-19151080D01*
X40301908Y-19128081D01*
X40303318Y-19125639D01*
X40325500Y-19042853D01*
X40325500Y-18957147D01*
X40325500Y-16926082D01*
X66249500Y-16926082D01*
X66249500Y-17073918D01*
X66278342Y-17218913D01*
X66334916Y-17355495D01*
X66417049Y-17478416D01*
X66521584Y-17582951D01*
X66644505Y-17665084D01*
X66781087Y-17721658D01*
X66926082Y-17750500D01*
X69381312Y-17750500D01*
X69439503Y-17769407D01*
X69475467Y-17818907D01*
X69476939Y-17875123D01*
X69449500Y-17977525D01*
X69449500Y-18122474D01*
X69487017Y-18262489D01*
X69559487Y-18388010D01*
X69559489Y-18388012D01*
X69559491Y-18388015D01*
X69645505Y-18474029D01*
X69673281Y-18528544D01*
X69674500Y-18544031D01*
X69674500Y-25505969D01*
X69655593Y-25564160D01*
X69645509Y-25575966D01*
X69595977Y-25625499D01*
X69559488Y-25661988D01*
X69559487Y-25661989D01*
X69487017Y-25787510D01*
X69449500Y-25927525D01*
X69449500Y-26072474D01*
X69487017Y-26212489D01*
X69559487Y-26338010D01*
X69559489Y-26338012D01*
X69559491Y-26338015D01*
X69661985Y-26440509D01*
X69661987Y-26440510D01*
X69661989Y-26440512D01*
X69787511Y-26512982D01*
X69787512Y-26512982D01*
X69787515Y-26512984D01*
X69927525Y-26550500D01*
X69927526Y-26550500D01*
X70072474Y-26550500D01*
X70072475Y-26550500D01*
X70212485Y-26512984D01*
X70212487Y-26512982D01*
X70212489Y-26512982D01*
X70338010Y-26440512D01*
X70338010Y-26440511D01*
X70338015Y-26440509D01*
X70440509Y-26338015D01*
X70440512Y-26338010D01*
X70512982Y-26212489D01*
X70512982Y-26212487D01*
X70512984Y-26212485D01*
X70550500Y-26072475D01*
X70550500Y-25927525D01*
X70550113Y-25926081D01*
X82249500Y-25926081D01*
X82249500Y-26073918D01*
X82278342Y-26218914D01*
X82334915Y-26355493D01*
X82334916Y-26355495D01*
X82417049Y-26478416D01*
X82521584Y-26582951D01*
X82644505Y-26665084D01*
X82781087Y-26721658D01*
X82926082Y-26750500D01*
X82926083Y-26750500D01*
X83073917Y-26750500D01*
X83073918Y-26750500D01*
X83218913Y-26721658D01*
X83355495Y-26665084D01*
X83478416Y-26582951D01*
X83582951Y-26478416D01*
X83665084Y-26355495D01*
X83721658Y-26218913D01*
X83750500Y-26073918D01*
X83750500Y-25926082D01*
X83721658Y-25781087D01*
X83665084Y-25644505D01*
X83582951Y-25521584D01*
X83478416Y-25417049D01*
X83355495Y-25334916D01*
X83332763Y-25325500D01*
X83218914Y-25278342D01*
X83073918Y-25249500D01*
X82926082Y-25249500D01*
X82926081Y-25249500D01*
X82781085Y-25278342D01*
X82644506Y-25334915D01*
X82521585Y-25417048D01*
X82417048Y-25521585D01*
X82334915Y-25644506D01*
X82278342Y-25781085D01*
X82249500Y-25926081D01*
X70550113Y-25926081D01*
X70512984Y-25787515D01*
X70512982Y-25787512D01*
X70512982Y-25787510D01*
X70440512Y-25661989D01*
X70440510Y-25661987D01*
X70440509Y-25661985D01*
X70354494Y-25575970D01*
X70326719Y-25521456D01*
X70325500Y-25505969D01*
X70325500Y-24926081D01*
X80074500Y-24926081D01*
X80074500Y-25073918D01*
X80103342Y-25218914D01*
X80151392Y-25334916D01*
X80159916Y-25355495D01*
X80242049Y-25478416D01*
X80346584Y-25582951D01*
X80469505Y-25665084D01*
X80606087Y-25721658D01*
X80751082Y-25750500D01*
X80751083Y-25750500D01*
X80898917Y-25750500D01*
X80898918Y-25750500D01*
X81043913Y-25721658D01*
X81180495Y-25665084D01*
X81303416Y-25582951D01*
X81407951Y-25478416D01*
X81490084Y-25355495D01*
X81546658Y-25218913D01*
X81575500Y-25073918D01*
X81575500Y-24926082D01*
X81546658Y-24781087D01*
X81490084Y-24644505D01*
X81407951Y-24521584D01*
X81303416Y-24417049D01*
X81180495Y-24334916D01*
X81104211Y-24303318D01*
X81043914Y-24278342D01*
X80898918Y-24249500D01*
X80751082Y-24249500D01*
X80751081Y-24249500D01*
X80606085Y-24278342D01*
X80469506Y-24334915D01*
X80346585Y-24417048D01*
X80242048Y-24521585D01*
X80159915Y-24644506D01*
X80103342Y-24781085D01*
X80074500Y-24926081D01*
X70325500Y-24926081D01*
X70325500Y-18544031D01*
X70344407Y-18485840D01*
X70354490Y-18474033D01*
X70440509Y-18388015D01*
X70471166Y-18334916D01*
X70512982Y-18262489D01*
X70512982Y-18262487D01*
X70512984Y-18262485D01*
X70550500Y-18122475D01*
X70550500Y-17977525D01*
X70523061Y-17875122D01*
X70526263Y-17814022D01*
X70564769Y-17766472D01*
X70618688Y-17750500D01*
X71150500Y-17750500D01*
X71208691Y-17769407D01*
X71244655Y-17818907D01*
X71249500Y-17849500D01*
X71249500Y-19034621D01*
X71230593Y-19092812D01*
X71220505Y-19104623D01*
X71197050Y-19128078D01*
X71197043Y-19128086D01*
X71181681Y-19151080D01*
X71181680Y-19151082D01*
X71114914Y-19251004D01*
X71058342Y-19387582D01*
X71029500Y-19532578D01*
X71029500Y-21802333D01*
X71058342Y-21947329D01*
X71114913Y-22083904D01*
X71114914Y-22083906D01*
X71114916Y-22083910D01*
X71121225Y-22093352D01*
X71197047Y-22206830D01*
X71197052Y-22206836D01*
X71301583Y-22311365D01*
X71301584Y-22311367D01*
X71351499Y-22361281D01*
X71399582Y-22409364D01*
X71460831Y-22450289D01*
X71522502Y-22491497D01*
X71536071Y-22497117D01*
X71563384Y-22508430D01*
X71609910Y-22548164D01*
X71624500Y-22599894D01*
X71624500Y-23950564D01*
X71624500Y-23950565D01*
X71624500Y-24049435D01*
X71647067Y-24133657D01*
X71650091Y-24144942D01*
X71699523Y-24230559D01*
X71699525Y-24230562D01*
X71769438Y-24300475D01*
X71769440Y-24300476D01*
X71855058Y-24349908D01*
X71855056Y-24349908D01*
X71855060Y-24349909D01*
X71855062Y-24349910D01*
X71950565Y-24375500D01*
X71950567Y-24375500D01*
X74049436Y-24375500D01*
X74097186Y-24362705D01*
X74097187Y-24362705D01*
X74144934Y-24349911D01*
X74144933Y-24349911D01*
X74144938Y-24349910D01*
X74230562Y-24300475D01*
X74281537Y-24249500D01*
X74300476Y-24230562D01*
X74456192Y-24074844D01*
X74637937Y-23893098D01*
X74692452Y-23865322D01*
X74752884Y-23874893D01*
X74762934Y-23880784D01*
X74880219Y-23959151D01*
X75016801Y-24015725D01*
X75161796Y-24044567D01*
X75161797Y-24044567D01*
X75309631Y-24044567D01*
X75309632Y-24044567D01*
X75454627Y-24015725D01*
X75591209Y-23959151D01*
X75714130Y-23877018D01*
X75818665Y-23772483D01*
X75858032Y-23713566D01*
X75906082Y-23675686D01*
X75940348Y-23669567D01*
X76755369Y-23669567D01*
X76803119Y-23656772D01*
X76803120Y-23656772D01*
X76850867Y-23643978D01*
X76850866Y-23643978D01*
X76850871Y-23643977D01*
X76936495Y-23594542D01*
X77006408Y-23524629D01*
X77006407Y-23524629D01*
X77595509Y-22935529D01*
X77644945Y-22849903D01*
X77670534Y-22754402D01*
X77670534Y-22655530D01*
X77670534Y-21926081D01*
X83249500Y-21926081D01*
X83249500Y-22073918D01*
X83278342Y-22218914D01*
X83334915Y-22355493D01*
X83334916Y-22355495D01*
X83417049Y-22478416D01*
X83521584Y-22582951D01*
X83644505Y-22665084D01*
X83781087Y-22721658D01*
X83926082Y-22750500D01*
X83926083Y-22750500D01*
X84073917Y-22750500D01*
X84073918Y-22750500D01*
X84218913Y-22721658D01*
X84355495Y-22665084D01*
X84478416Y-22582951D01*
X84582951Y-22478416D01*
X84665084Y-22355495D01*
X84721658Y-22218913D01*
X84750500Y-22073918D01*
X84750500Y-21926082D01*
X84721658Y-21781087D01*
X84665084Y-21644505D01*
X84582951Y-21521584D01*
X84478416Y-21417049D01*
X84355495Y-21334916D01*
X84355493Y-21334915D01*
X84218914Y-21278342D01*
X84073918Y-21249500D01*
X83926082Y-21249500D01*
X83926081Y-21249500D01*
X83781085Y-21278342D01*
X83644506Y-21334915D01*
X83521585Y-21417048D01*
X83417048Y-21521585D01*
X83334915Y-21644506D01*
X83278342Y-21781085D01*
X83249500Y-21926081D01*
X77670534Y-21926081D01*
X77670534Y-20860855D01*
X77689441Y-20802664D01*
X77714534Y-20778539D01*
X77773444Y-20739177D01*
X77773443Y-20739177D01*
X77773450Y-20739173D01*
X77877985Y-20634638D01*
X77960118Y-20511717D01*
X78016692Y-20375135D01*
X78045534Y-20230140D01*
X78045534Y-20082304D01*
X78016692Y-19937309D01*
X77960118Y-19800727D01*
X77877985Y-19677806D01*
X77773450Y-19573271D01*
X77650529Y-19491138D01*
X77638598Y-19486196D01*
X77513948Y-19434564D01*
X77368952Y-19405722D01*
X77221116Y-19405722D01*
X77221115Y-19405722D01*
X77076119Y-19434564D01*
X76939540Y-19491137D01*
X76816619Y-19573270D01*
X76712082Y-19677807D01*
X76629949Y-19800728D01*
X76573376Y-19937307D01*
X76544534Y-20082303D01*
X76544534Y-20230140D01*
X76573376Y-20375136D01*
X76629949Y-20511715D01*
X76629950Y-20511717D01*
X76712083Y-20634638D01*
X76816618Y-20739173D01*
X76816621Y-20739175D01*
X76816623Y-20739177D01*
X76875534Y-20778539D01*
X76913414Y-20826588D01*
X76919534Y-20860855D01*
X76919534Y-22508421D01*
X76900627Y-22566612D01*
X76890538Y-22578424D01*
X76579393Y-22889570D01*
X76524876Y-22917348D01*
X76509389Y-22918567D01*
X75940348Y-22918567D01*
X75882157Y-22899660D01*
X75858032Y-22874568D01*
X75818667Y-22815654D01*
X75818665Y-22815651D01*
X75714130Y-22711116D01*
X75591209Y-22628983D01*
X75591207Y-22628982D01*
X75454628Y-22572409D01*
X75309632Y-22543567D01*
X75161796Y-22543567D01*
X75161795Y-22543567D01*
X75016799Y-22572409D01*
X74880220Y-22628982D01*
X74757299Y-22711115D01*
X74652762Y-22815652D01*
X74583429Y-22919415D01*
X74550615Y-22950149D01*
X74475369Y-22993592D01*
X74475370Y-22993593D01*
X73873459Y-23595504D01*
X73818942Y-23623281D01*
X73803455Y-23624500D01*
X72474500Y-23624500D01*
X72416309Y-23605593D01*
X72380345Y-23556093D01*
X72375500Y-23525500D01*
X72375500Y-22431285D01*
X72394407Y-22373094D01*
X72404490Y-22361287D01*
X72460949Y-22304829D01*
X72543082Y-22181908D01*
X72599656Y-22045326D01*
X72628498Y-21900331D01*
X72628498Y-21752495D01*
X72599656Y-21607500D01*
X72543082Y-21470918D01*
X72543081Y-21470917D01*
X72542189Y-21469247D01*
X72541881Y-21468017D01*
X72541221Y-21466424D01*
X72541457Y-21466326D01*
X72530500Y-21422580D01*
X72530500Y-21197194D01*
X73335647Y-21197194D01*
X73420758Y-21220000D01*
X73539244Y-21220000D01*
X73544221Y-21218666D01*
X73605322Y-21221862D01*
X73652876Y-21260364D01*
X73668717Y-21319463D01*
X73652168Y-21369291D01*
X73584977Y-21469849D01*
X73528405Y-21606427D01*
X73499563Y-21751423D01*
X73499563Y-21899260D01*
X73528405Y-22044256D01*
X73584978Y-22180835D01*
X73584979Y-22180837D01*
X73667112Y-22303758D01*
X73771647Y-22408293D01*
X73894568Y-22490426D01*
X74031150Y-22547000D01*
X74176145Y-22575842D01*
X74176146Y-22575842D01*
X74323980Y-22575842D01*
X74323981Y-22575842D01*
X74468976Y-22547000D01*
X74605558Y-22490426D01*
X74728479Y-22408293D01*
X74833014Y-22303758D01*
X74915147Y-22180837D01*
X74971721Y-22044255D01*
X75000563Y-21899260D01*
X75000563Y-21751424D01*
X74971721Y-21606429D01*
X74915147Y-21469847D01*
X74833014Y-21346926D01*
X74805551Y-21319463D01*
X74728481Y-21242392D01*
X74709670Y-21229823D01*
X74694668Y-21217511D01*
X74388580Y-20911421D01*
X74276155Y-20798997D01*
X74227267Y-20750109D01*
X74430000Y-20750109D01*
X74430000Y-20789891D01*
X74445224Y-20826645D01*
X74473355Y-20854776D01*
X74510109Y-20870000D01*
X74549891Y-20870000D01*
X74586645Y-20854776D01*
X74614776Y-20826645D01*
X74630000Y-20789891D01*
X74630000Y-20770000D01*
X74812842Y-20770000D01*
X74957194Y-20914351D01*
X74980000Y-20829243D01*
X74980000Y-20710757D01*
X74957194Y-20625648D01*
X74812842Y-20770000D01*
X74630000Y-20770000D01*
X74630000Y-20750109D01*
X74614776Y-20713355D01*
X74586645Y-20685224D01*
X74549891Y-20670000D01*
X74510109Y-20670000D01*
X74473355Y-20685224D01*
X74445224Y-20713355D01*
X74430000Y-20750109D01*
X74227267Y-20750109D01*
X74102804Y-20625647D01*
X74102803Y-20625647D01*
X74100626Y-20633775D01*
X74067302Y-20685089D01*
X74010181Y-20707016D01*
X73951080Y-20691181D01*
X73912575Y-20643631D01*
X73909372Y-20633775D01*
X73907194Y-20625647D01*
X73335647Y-21197194D01*
X72530500Y-21197194D01*
X72530500Y-20710756D01*
X73030000Y-20710756D01*
X73030000Y-20829243D01*
X73052803Y-20914351D01*
X73052804Y-20914351D01*
X73197156Y-20770000D01*
X73177265Y-20750109D01*
X73380000Y-20750109D01*
X73380000Y-20789891D01*
X73395224Y-20826645D01*
X73423355Y-20854776D01*
X73460109Y-20870000D01*
X73499891Y-20870000D01*
X73536645Y-20854776D01*
X73564776Y-20826645D01*
X73580000Y-20789891D01*
X73580000Y-20750109D01*
X73564776Y-20713355D01*
X73536645Y-20685224D01*
X73499891Y-20670000D01*
X73460109Y-20670000D01*
X73423355Y-20685224D01*
X73395224Y-20713355D01*
X73380000Y-20750109D01*
X73177265Y-20750109D01*
X73052803Y-20625647D01*
X73030000Y-20710756D01*
X72530500Y-20710756D01*
X72530500Y-20541437D01*
X72549407Y-20483246D01*
X72598907Y-20447282D01*
X72655127Y-20445811D01*
X72670758Y-20450000D01*
X72789243Y-20450000D01*
X72874350Y-20427194D01*
X72861153Y-20413997D01*
X72861151Y-20413994D01*
X72832157Y-20385000D01*
X73377842Y-20385000D01*
X73479999Y-20487156D01*
X73582156Y-20385000D01*
X74427842Y-20385000D01*
X74529999Y-20487156D01*
X74589962Y-20427194D01*
X75135648Y-20427194D01*
X75220758Y-20450000D01*
X75339243Y-20450000D01*
X75424351Y-20427194D01*
X75280000Y-20282842D01*
X75135648Y-20427194D01*
X74589962Y-20427194D01*
X74632157Y-20384999D01*
X74530001Y-20282842D01*
X74427842Y-20385000D01*
X73582156Y-20385000D01*
X73582157Y-20384999D01*
X73480001Y-20282842D01*
X73377842Y-20385000D01*
X72832157Y-20385000D01*
X72658582Y-20211424D01*
X72630805Y-20156908D01*
X72640376Y-20096476D01*
X72658582Y-20071417D01*
X72659289Y-20070710D01*
X72673355Y-20084776D01*
X72710109Y-20100000D01*
X72749891Y-20100000D01*
X72786645Y-20084776D01*
X72814776Y-20056645D01*
X72830000Y-20019891D01*
X72830000Y-20000000D01*
X73012842Y-20000000D01*
X73104999Y-20092156D01*
X73197157Y-19999999D01*
X73177267Y-19980109D01*
X73380000Y-19980109D01*
X73380000Y-20019891D01*
X73395224Y-20056645D01*
X73423355Y-20084776D01*
X73460109Y-20100000D01*
X73499891Y-20100000D01*
X73536645Y-20084776D01*
X73564776Y-20056645D01*
X73580000Y-20019891D01*
X73580000Y-20000000D01*
X73762842Y-20000000D01*
X73907194Y-20144351D01*
X73909372Y-20136224D01*
X73942696Y-20084910D01*
X73999817Y-20062983D01*
X74058918Y-20078818D01*
X74097423Y-20126368D01*
X74100626Y-20136224D01*
X74102803Y-20144351D01*
X74102804Y-20144351D01*
X74247156Y-20000000D01*
X74227265Y-19980109D01*
X74430000Y-19980109D01*
X74430000Y-20019891D01*
X74445224Y-20056645D01*
X74473355Y-20084776D01*
X74510109Y-20100000D01*
X74549891Y-20100000D01*
X74586645Y-20084776D01*
X74614776Y-20056645D01*
X74630000Y-20019891D01*
X74630000Y-20000000D01*
X74812842Y-20000000D01*
X74904999Y-20092156D01*
X74997157Y-19999999D01*
X74977267Y-19980109D01*
X75180000Y-19980109D01*
X75180000Y-20019891D01*
X75195224Y-20056645D01*
X75223355Y-20084776D01*
X75260109Y-20100000D01*
X75299891Y-20100000D01*
X75336645Y-20084776D01*
X75364776Y-20056645D01*
X75380000Y-20019891D01*
X75380000Y-20000000D01*
X75562842Y-20000000D01*
X75707194Y-20144351D01*
X75730000Y-20059243D01*
X75730000Y-19940757D01*
X75707194Y-19855648D01*
X75562842Y-20000000D01*
X75380000Y-20000000D01*
X75380000Y-19980109D01*
X75364776Y-19943355D01*
X75336645Y-19915224D01*
X75299891Y-19900000D01*
X75260109Y-19900000D01*
X75223355Y-19915224D01*
X75195224Y-19943355D01*
X75180000Y-19980109D01*
X74977267Y-19980109D01*
X74905001Y-19907842D01*
X74812842Y-20000000D01*
X74630000Y-20000000D01*
X74630000Y-19980109D01*
X74614776Y-19943355D01*
X74586645Y-19915224D01*
X74549891Y-19900000D01*
X74510109Y-19900000D01*
X74473355Y-19915224D01*
X74445224Y-19943355D01*
X74430000Y-19980109D01*
X74227265Y-19980109D01*
X74102803Y-19855647D01*
X74100626Y-19863775D01*
X74067302Y-19915089D01*
X74010181Y-19937016D01*
X73951080Y-19921181D01*
X73912575Y-19873631D01*
X73909372Y-19863775D01*
X73907194Y-19855648D01*
X73762842Y-20000000D01*
X73580000Y-20000000D01*
X73580000Y-19980109D01*
X73564776Y-19943355D01*
X73536645Y-19915224D01*
X73499891Y-19900000D01*
X73460109Y-19900000D01*
X73423355Y-19915224D01*
X73395224Y-19943355D01*
X73380000Y-19980109D01*
X73177267Y-19980109D01*
X73105001Y-19907842D01*
X73012842Y-20000000D01*
X72830000Y-20000000D01*
X72830000Y-19980109D01*
X72814776Y-19943355D01*
X72786645Y-19915224D01*
X72749891Y-19900000D01*
X72710109Y-19900000D01*
X72673355Y-19915224D01*
X72659290Y-19929289D01*
X72658582Y-19928581D01*
X72630805Y-19874065D01*
X72640377Y-19813633D01*
X72658582Y-19788575D01*
X72832156Y-19615000D01*
X73377842Y-19615000D01*
X73479999Y-19717156D01*
X73582156Y-19615000D01*
X74427842Y-19615000D01*
X74529999Y-19717156D01*
X74632157Y-19614999D01*
X74589961Y-19572803D01*
X75135647Y-19572803D01*
X75280000Y-19717156D01*
X75424351Y-19572804D01*
X75424351Y-19572803D01*
X75339243Y-19550000D01*
X75220757Y-19550000D01*
X75135647Y-19572803D01*
X74589961Y-19572803D01*
X74530001Y-19512842D01*
X74427842Y-19615000D01*
X73582156Y-19615000D01*
X73582157Y-19614999D01*
X73480001Y-19512842D01*
X73377842Y-19615000D01*
X72832156Y-19615000D01*
X72851190Y-19595966D01*
X72784763Y-19538552D01*
X72780108Y-19530855D01*
X72772563Y-19525955D01*
X72764600Y-19505210D01*
X72753101Y-19486196D01*
X72753859Y-19477231D01*
X72750636Y-19468833D01*
X72750500Y-19463652D01*
X72750500Y-19170756D01*
X73030000Y-19170756D01*
X73030000Y-19289243D01*
X73052803Y-19374351D01*
X73052804Y-19374351D01*
X73197156Y-19230000D01*
X73177265Y-19210109D01*
X73380000Y-19210109D01*
X73380000Y-19249891D01*
X73395224Y-19286645D01*
X73423355Y-19314776D01*
X73460109Y-19330000D01*
X73499891Y-19330000D01*
X73536645Y-19314776D01*
X73564776Y-19286645D01*
X73580000Y-19249891D01*
X73580000Y-19230000D01*
X73762842Y-19230000D01*
X73907194Y-19374351D01*
X73909372Y-19366224D01*
X73942696Y-19314910D01*
X73999817Y-19292983D01*
X74058918Y-19308818D01*
X74097423Y-19356368D01*
X74100626Y-19366224D01*
X74102803Y-19374351D01*
X74102804Y-19374351D01*
X74247156Y-19230000D01*
X74227265Y-19210109D01*
X74430000Y-19210109D01*
X74430000Y-19249891D01*
X74445224Y-19286645D01*
X74473355Y-19314776D01*
X74510109Y-19330000D01*
X74549891Y-19330000D01*
X74586645Y-19314776D01*
X74614776Y-19286645D01*
X74630000Y-19249891D01*
X74630000Y-19230000D01*
X74812842Y-19230000D01*
X74957194Y-19374351D01*
X74980000Y-19289243D01*
X74980000Y-19170757D01*
X74957194Y-19085648D01*
X74812842Y-19230000D01*
X74630000Y-19230000D01*
X74630000Y-19210109D01*
X74614776Y-19173355D01*
X74586645Y-19145224D01*
X74549891Y-19130000D01*
X74510109Y-19130000D01*
X74473355Y-19145224D01*
X74445224Y-19173355D01*
X74430000Y-19210109D01*
X74227265Y-19210109D01*
X74102803Y-19085647D01*
X74100626Y-19093775D01*
X74067302Y-19145089D01*
X74010181Y-19167016D01*
X73951080Y-19151181D01*
X73912575Y-19103631D01*
X73909372Y-19093775D01*
X73907194Y-19085648D01*
X73762842Y-19230000D01*
X73580000Y-19230000D01*
X73580000Y-19210109D01*
X73564776Y-19173355D01*
X73536645Y-19145224D01*
X73499891Y-19130000D01*
X73460109Y-19130000D01*
X73423355Y-19145224D01*
X73395224Y-19173355D01*
X73380000Y-19210109D01*
X73177265Y-19210109D01*
X73052803Y-19085647D01*
X73030000Y-19170756D01*
X72750500Y-19170756D01*
X72750500Y-18802803D01*
X73335647Y-18802803D01*
X73480000Y-18947156D01*
X73624351Y-18802804D01*
X73624351Y-18802803D01*
X74385647Y-18802803D01*
X74530000Y-18947156D01*
X74674351Y-18802804D01*
X74674351Y-18802803D01*
X74589243Y-18780000D01*
X74470757Y-18780000D01*
X74385647Y-18802803D01*
X73624351Y-18802803D01*
X73539243Y-18780000D01*
X73420757Y-18780000D01*
X73335647Y-18802803D01*
X72750500Y-18802803D01*
X72750500Y-16926083D01*
X72750500Y-16926082D01*
X72721658Y-16781087D01*
X72665084Y-16644505D01*
X72582951Y-16521584D01*
X72478416Y-16417049D01*
X72355495Y-16334916D01*
X72239048Y-16286682D01*
X72218914Y-16278342D01*
X72073918Y-16249500D01*
X66926082Y-16249500D01*
X66926081Y-16249500D01*
X66781085Y-16278342D01*
X66644506Y-16334915D01*
X66521585Y-16417048D01*
X66417048Y-16521585D01*
X66334915Y-16644506D01*
X66278342Y-16781085D01*
X66278342Y-16781087D01*
X66249500Y-16926082D01*
X40325500Y-16926082D01*
X40325500Y-16200082D01*
X74523500Y-16200082D01*
X74523500Y-16347918D01*
X74552342Y-16492913D01*
X74608916Y-16629495D01*
X74691049Y-16752416D01*
X74795584Y-16856951D01*
X74918505Y-16939084D01*
X75055087Y-16995658D01*
X75200082Y-17024500D01*
X75200083Y-17024500D01*
X75347917Y-17024500D01*
X75347918Y-17024500D01*
X75492913Y-16995658D01*
X75629495Y-16939084D01*
X75752416Y-16856951D01*
X75856951Y-16752416D01*
X75939084Y-16629495D01*
X75995658Y-16492913D01*
X76024500Y-16347918D01*
X76024500Y-16200082D01*
X75995658Y-16055087D01*
X75939084Y-15918505D01*
X75856951Y-15795584D01*
X75752416Y-15691049D01*
X75629495Y-15608916D01*
X75629493Y-15608915D01*
X75492914Y-15552342D01*
X75347918Y-15523500D01*
X75200082Y-15523500D01*
X75200081Y-15523500D01*
X75055085Y-15552342D01*
X74918506Y-15608915D01*
X74795585Y-15691048D01*
X74691048Y-15795585D01*
X74608915Y-15918506D01*
X74552342Y-16055085D01*
X74552342Y-16055087D01*
X74523500Y-16200082D01*
X40325500Y-16200082D01*
X40325500Y-7494031D01*
X40344407Y-7435840D01*
X40354490Y-7424033D01*
X40440509Y-7338015D01*
X40512984Y-7212485D01*
X40550500Y-7072475D01*
X40550500Y-6927525D01*
X40512984Y-6787515D01*
X40512982Y-6787512D01*
X40512982Y-6787510D01*
X40440512Y-6661989D01*
X40440510Y-6661987D01*
X40440509Y-6661985D01*
X40338015Y-6559491D01*
X40338012Y-6559489D01*
X40338010Y-6559487D01*
X40212488Y-6487017D01*
X40212489Y-6487017D01*
X40182896Y-6479087D01*
X40072475Y-6449500D01*
X39927525Y-6449500D01*
X39865790Y-6466041D01*
X39787510Y-6487017D01*
X39661989Y-6559487D01*
X39559487Y-6661989D01*
X39487017Y-6787510D01*
X39449500Y-6927525D01*
X39449500Y-7072474D01*
X39487017Y-7212489D01*
X39559487Y-7338010D01*
X39559489Y-7338012D01*
X39559491Y-7338015D01*
X39645505Y-7424029D01*
X39673281Y-7478544D01*
X39674500Y-7494031D01*
X39674500Y-18824165D01*
X39655593Y-18882356D01*
X39645504Y-18894169D01*
X34894169Y-23645504D01*
X34839652Y-23673281D01*
X34824165Y-23674500D01*
X31042853Y-23674500D01*
X30957147Y-23674500D01*
X30884136Y-23694062D01*
X30874357Y-23696683D01*
X30845117Y-23713566D01*
X30837250Y-23718108D01*
X30813721Y-23731692D01*
X30800137Y-23739535D01*
X30739534Y-23800137D01*
X30739535Y-23800138D01*
X25739531Y-28800142D01*
X25696682Y-28874360D01*
X25696681Y-28874360D01*
X25696682Y-28874361D01*
X25674500Y-28957147D01*
X25674500Y-29505969D01*
X25655593Y-29564160D01*
X25645509Y-29575966D01*
X25559491Y-29661985D01*
X25559488Y-29661988D01*
X25559487Y-29661989D01*
X25487017Y-29787510D01*
X25466762Y-29863103D01*
X25449500Y-29927525D01*
X3493918Y-29927525D01*
X3429496Y-29863103D01*
X3401719Y-29808586D01*
X3400500Y-29793099D01*
X3400500Y-26206900D01*
X3419407Y-26148709D01*
X3429496Y-26136896D01*
X4136896Y-25429496D01*
X4191413Y-25401719D01*
X4206900Y-25400500D01*
X5439548Y-25400500D01*
X5497739Y-25419407D01*
X5509552Y-25429497D01*
X5585322Y-25505268D01*
X5585326Y-25505271D01*
X5585331Y-25505276D01*
X5648848Y-25547717D01*
X5691866Y-25576461D01*
X5691870Y-25576463D01*
X5691873Y-25576465D01*
X5810256Y-25625501D01*
X5935931Y-25650500D01*
X5935932Y-25650500D01*
X6064068Y-25650500D01*
X6064069Y-25650500D01*
X6189744Y-25625501D01*
X6308127Y-25576465D01*
X6414669Y-25505276D01*
X6505276Y-25414669D01*
X6576465Y-25308127D01*
X6625501Y-25189744D01*
X6650500Y-25064069D01*
X6650500Y-24935931D01*
X6625501Y-24810256D01*
X6576465Y-24691873D01*
X6576463Y-24691870D01*
X6576461Y-24691866D01*
X6544815Y-24644505D01*
X6505276Y-24585331D01*
X6414669Y-24494724D01*
X6355357Y-24455093D01*
X6308133Y-24423538D01*
X6308125Y-24423534D01*
X6189747Y-24374500D01*
X6189745Y-24374499D01*
X6189744Y-24374499D01*
X6064069Y-24349500D01*
X5935931Y-24349500D01*
X5935930Y-24349500D01*
X5910815Y-24354496D01*
X5810256Y-24374499D01*
X5810255Y-24374499D01*
X5810252Y-24374500D01*
X5691874Y-24423534D01*
X5691866Y-24423538D01*
X5585331Y-24494724D01*
X5585322Y-24494731D01*
X5509552Y-24570503D01*
X5455036Y-24598281D01*
X5439548Y-24599500D01*
X4058806Y-24599500D01*
X4058790Y-24599499D01*
X4052727Y-24599499D01*
X3947273Y-24599499D01*
X3947270Y-24599499D01*
X3845413Y-24626792D01*
X3845409Y-24626794D01*
X3754087Y-24679519D01*
X3679519Y-24754086D01*
X3679520Y-24754087D01*
X2679516Y-25754091D01*
X2626794Y-25845407D01*
X2619036Y-25874361D01*
X2599500Y-25947273D01*
X500500Y-25947273D01*
X500500Y-5002165D01*
X500594Y-4997847D01*
X503512Y-4931016D01*
X517434Y-4612144D01*
X518184Y-4603568D01*
X568293Y-4222949D01*
X569793Y-4214447D01*
X586813Y-4137675D01*
X647857Y-3862326D01*
X1899500Y-3862326D01*
X1899500Y-3913734D01*
X1899500Y-4137674D01*
X1935440Y-4410666D01*
X1938145Y-4420760D01*
X2006704Y-4676631D01*
X2112074Y-4931016D01*
X2112077Y-4931021D01*
X2249751Y-5169479D01*
X2417372Y-5387928D01*
X2612072Y-5582628D01*
X2830521Y-5750249D01*
X3068979Y-5887923D01*
X3068980Y-5887923D01*
X3068983Y-5887925D01*
X3323368Y-5993295D01*
X3589334Y-6064560D01*
X3862326Y-6100500D01*
X3862327Y-6100500D01*
X4137673Y-6100500D01*
X4137674Y-6100500D01*
X4410666Y-6064560D01*
X4676632Y-5993295D01*
X4931021Y-5887923D01*
X5169479Y-5750249D01*
X5387928Y-5582628D01*
X5582628Y-5387928D01*
X5750249Y-5169479D01*
X5887923Y-4931021D01*
X5993295Y-4676632D01*
X6064560Y-4410666D01*
X6100500Y-4137674D01*
X6100500Y-3862326D01*
X93899500Y-3862326D01*
X93899500Y-3913734D01*
X93899500Y-4137674D01*
X93935440Y-4410666D01*
X93938145Y-4420760D01*
X94006704Y-4676631D01*
X94112074Y-4931016D01*
X94112077Y-4931021D01*
X94249751Y-5169479D01*
X94417372Y-5387928D01*
X94612072Y-5582628D01*
X94830521Y-5750249D01*
X95068979Y-5887923D01*
X95068980Y-5887923D01*
X95068983Y-5887925D01*
X95323368Y-5993295D01*
X95589334Y-6064560D01*
X95862326Y-6100500D01*
X95862327Y-6100500D01*
X96137673Y-6100500D01*
X96137674Y-6100500D01*
X96410666Y-6064560D01*
X96676632Y-5993295D01*
X96931021Y-5887923D01*
X97169479Y-5750249D01*
X97387928Y-5582628D01*
X97582628Y-5387928D01*
X97750249Y-5169479D01*
X97887923Y-4931021D01*
X97993295Y-4676632D01*
X98064560Y-4410666D01*
X98100500Y-4137674D01*
X98100500Y-3862326D01*
X98064560Y-3589334D01*
X97993295Y-3323368D01*
X97887923Y-3068979D01*
X97750249Y-2830521D01*
X97582628Y-2612072D01*
X97387928Y-2417372D01*
X97169479Y-2249751D01*
X96931021Y-2112077D01*
X96931016Y-2112074D01*
X96676631Y-2006704D01*
X96555521Y-1974253D01*
X96410666Y-1935440D01*
X96410659Y-1935439D01*
X96137675Y-1899500D01*
X96137674Y-1899500D01*
X95862326Y-1899500D01*
X95862324Y-1899500D01*
X95589340Y-1935439D01*
X95589338Y-1935439D01*
X95589334Y-1935440D01*
X95488805Y-1962376D01*
X95323368Y-2006704D01*
X95068983Y-2112074D01*
X94830517Y-2249753D01*
X94612075Y-2417369D01*
X94417369Y-2612075D01*
X94249753Y-2830517D01*
X94112074Y-3068983D01*
X94006704Y-3323368D01*
X93969805Y-3461080D01*
X93935440Y-3589334D01*
X93935439Y-3589338D01*
X93935439Y-3589340D01*
X93903845Y-3829325D01*
X93899500Y-3862326D01*
X6100500Y-3862326D01*
X6064560Y-3589334D01*
X5993295Y-3323368D01*
X5887923Y-3068979D01*
X5750249Y-2830521D01*
X5582628Y-2612072D01*
X5387928Y-2417372D01*
X5169479Y-2249751D01*
X4931021Y-2112077D01*
X4931016Y-2112074D01*
X4676631Y-2006704D01*
X4555521Y-1974253D01*
X4410666Y-1935440D01*
X4410659Y-1935439D01*
X4137675Y-1899500D01*
X4137674Y-1899500D01*
X3862326Y-1899500D01*
X3862324Y-1899500D01*
X3589340Y-1935439D01*
X3589338Y-1935439D01*
X3589334Y-1935440D01*
X3488805Y-1962376D01*
X3323368Y-2006704D01*
X3068983Y-2112074D01*
X2830517Y-2249753D01*
X2612075Y-2417369D01*
X2417369Y-2612075D01*
X2249753Y-2830517D01*
X2112074Y-3068983D01*
X2006704Y-3323368D01*
X1969805Y-3461080D01*
X1935440Y-3589334D01*
X1935439Y-3589338D01*
X1935439Y-3589340D01*
X1903845Y-3829325D01*
X1899500Y-3862326D01*
X647857Y-3862326D01*
X652885Y-3839644D01*
X655103Y-3831364D01*
X655744Y-3829329D01*
X655748Y-3829325D01*
X655748Y-3829319D01*
X770555Y-3465194D01*
X773507Y-3457086D01*
X828895Y-3323368D01*
X920421Y-3102403D01*
X924056Y-3094609D01*
X1101325Y-2754079D01*
X1105632Y-2746618D01*
X1311913Y-2422820D01*
X1316851Y-2415769D01*
X1550564Y-2111189D01*
X1556083Y-2104612D01*
X1815481Y-1821528D01*
X1821528Y-1815481D01*
X2104612Y-1556083D01*
X2111189Y-1550564D01*
X2415769Y-1316851D01*
X2422820Y-1311913D01*
X2746618Y-1105632D01*
X2754079Y-1101325D01*
X3094609Y-924056D01*
X3102403Y-920421D01*
X3457093Y-773504D01*
X3465194Y-770555D01*
X3831345Y-655109D01*
X3839644Y-652885D01*
X4214451Y-569792D01*
X4222949Y-568293D01*
X4603568Y-518184D01*
X4612144Y-517434D01*
X4997847Y-500593D01*
X5002165Y-500500D01*
X5065892Y-500500D01*
X13901000Y-500500D01*
X13959191Y-519407D01*
G37*
%TD.AperFunction*%
%TD*%
M02*
