%TF.GenerationSoftware,KiCad,Pcbnew,10.0.5*%
%TF.CreationDate,2026-09-24T16:33:06+05:30*%
%TF.ProjectId,AuraForge_50X,41757261-466f-4726-9765-5f3530582e6b,v2.0*%
%TF.SameCoordinates,Original*%
%TF.FileFunction,Soldermask,Bot*%
%TF.FilePolarity,Negative*%
%FSLAX46Y46*%
G04 Gerber Fmt 4.6, Leading zero omitted, Abs format (unit mm)*
G04 Created by KiCad (PCBNEW 10.0.5) date 2026-09-24 16:33:06*
%MOMM*%
%LPD*%
G01*
G04 APERTURE LIST*
G04 APERTURE END LIST*
G36*
X121063034Y-93766834D02*
G01*
X121075715Y-93766834D01*
X121125271Y-93776691D01*
X121197417Y-93788118D01*
X121220622Y-93795657D01*
X121248756Y-93801254D01*
X121288453Y-93817697D01*
X121331624Y-93831724D01*
X121372068Y-93852331D01*
X121411757Y-93868771D01*
X121435599Y-93884702D01*
X121457343Y-93895781D01*
X121516447Y-93938722D01*
X121558454Y-93966791D01*
X121567419Y-93975756D01*
X121571501Y-93978722D01*
X121671277Y-94078498D01*
X121674242Y-94082579D01*
X121683209Y-94091546D01*
X121711280Y-94133557D01*
X121754218Y-94192656D01*
X121765295Y-94214397D01*
X121781229Y-94238243D01*
X121797670Y-94277936D01*
X121818275Y-94318375D01*
X121832299Y-94361538D01*
X121848746Y-94401244D01*
X121854343Y-94429382D01*
X121861881Y-94452582D01*
X121873307Y-94524720D01*
X121883166Y-94574285D01*
X121883166Y-94586965D01*
X121883955Y-94591947D01*
X121883955Y-94733052D01*
X121883166Y-94738033D01*
X121883166Y-94750715D01*
X121873306Y-94800283D01*
X121861881Y-94872417D01*
X121854343Y-94895615D01*
X121848746Y-94923756D01*
X121832298Y-94963464D01*
X121818275Y-95006624D01*
X121797672Y-95047058D01*
X121781229Y-95086757D01*
X121765293Y-95110606D01*
X121754218Y-95132343D01*
X121711288Y-95191430D01*
X121683209Y-95233454D01*
X121674239Y-95242423D01*
X121671277Y-95246501D01*
X121571501Y-95346277D01*
X121567423Y-95349239D01*
X121558454Y-95358209D01*
X121516430Y-95386288D01*
X121457343Y-95429218D01*
X121435606Y-95440293D01*
X121411757Y-95456229D01*
X121372058Y-95472672D01*
X121331624Y-95493275D01*
X121288464Y-95507298D01*
X121248756Y-95523746D01*
X121220615Y-95529343D01*
X121197417Y-95536881D01*
X121125283Y-95548306D01*
X121075715Y-95558166D01*
X121063033Y-95558166D01*
X121058052Y-95558955D01*
X120916948Y-95558955D01*
X120911967Y-95558166D01*
X120899285Y-95558166D01*
X120849718Y-95548306D01*
X120777582Y-95536881D01*
X120754382Y-95529343D01*
X120726244Y-95523746D01*
X120686538Y-95507299D01*
X120643375Y-95493275D01*
X120602936Y-95472670D01*
X120563243Y-95456229D01*
X120539397Y-95440295D01*
X120517656Y-95429218D01*
X120458557Y-95386280D01*
X120416546Y-95358209D01*
X120407579Y-95349242D01*
X120403498Y-95346277D01*
X120303722Y-95246501D01*
X120300756Y-95242419D01*
X120291791Y-95233454D01*
X120263722Y-95191447D01*
X120220781Y-95132343D01*
X120209702Y-95110599D01*
X120193771Y-95086757D01*
X120177331Y-95047068D01*
X120156724Y-95006624D01*
X120142697Y-94963453D01*
X120126254Y-94923756D01*
X120120657Y-94895622D01*
X120113118Y-94872417D01*
X120101691Y-94800271D01*
X120091834Y-94750715D01*
X120091834Y-94738033D01*
X120091045Y-94733052D01*
X120091045Y-94591947D01*
X120091834Y-94586965D01*
X120091834Y-94574285D01*
X120101690Y-94524732D01*
X120113118Y-94452582D01*
X120120658Y-94429374D01*
X120126254Y-94401244D01*
X120142695Y-94361549D01*
X120156724Y-94318375D01*
X120177333Y-94277925D01*
X120193771Y-94238243D01*
X120209700Y-94214403D01*
X120220781Y-94192656D01*
X120263731Y-94133540D01*
X120291791Y-94091546D01*
X120300754Y-94082582D01*
X120303722Y-94078498D01*
X120403498Y-93978722D01*
X120407582Y-93975754D01*
X120416546Y-93966791D01*
X120458540Y-93938731D01*
X120517656Y-93895781D01*
X120539403Y-93884700D01*
X120563243Y-93868771D01*
X120602925Y-93852333D01*
X120643375Y-93831724D01*
X120686549Y-93817695D01*
X120726244Y-93801254D01*
X120754374Y-93795658D01*
X120777582Y-93788118D01*
X120849730Y-93776691D01*
X120899285Y-93766834D01*
X120911966Y-93766834D01*
X120916948Y-93766045D01*
X121058052Y-93766045D01*
X121063034Y-93766834D01*
G37*
G36*
X123563034Y-93766834D02*
G01*
X123575715Y-93766834D01*
X123625271Y-93776691D01*
X123697417Y-93788118D01*
X123720622Y-93795657D01*
X123748756Y-93801254D01*
X123788453Y-93817697D01*
X123831624Y-93831724D01*
X123872068Y-93852331D01*
X123911757Y-93868771D01*
X123935599Y-93884702D01*
X123957343Y-93895781D01*
X124016447Y-93938722D01*
X124058454Y-93966791D01*
X124067419Y-93975756D01*
X124071501Y-93978722D01*
X124171277Y-94078498D01*
X124174242Y-94082579D01*
X124183209Y-94091546D01*
X124211280Y-94133557D01*
X124254218Y-94192656D01*
X124265295Y-94214397D01*
X124281229Y-94238243D01*
X124297670Y-94277936D01*
X124318275Y-94318375D01*
X124332299Y-94361538D01*
X124348746Y-94401244D01*
X124354343Y-94429382D01*
X124361881Y-94452582D01*
X124373307Y-94524720D01*
X124383166Y-94574285D01*
X124383166Y-94586965D01*
X124383955Y-94591947D01*
X124383955Y-94733052D01*
X124383166Y-94738033D01*
X124383166Y-94750715D01*
X124373306Y-94800283D01*
X124361881Y-94872417D01*
X124354343Y-94895615D01*
X124348746Y-94923756D01*
X124332298Y-94963464D01*
X124318275Y-95006624D01*
X124297672Y-95047058D01*
X124281229Y-95086757D01*
X124265293Y-95110606D01*
X124254218Y-95132343D01*
X124211288Y-95191430D01*
X124183209Y-95233454D01*
X124174239Y-95242423D01*
X124171277Y-95246501D01*
X124071501Y-95346277D01*
X124067423Y-95349239D01*
X124058454Y-95358209D01*
X124016430Y-95386288D01*
X123957343Y-95429218D01*
X123935606Y-95440293D01*
X123911757Y-95456229D01*
X123872058Y-95472672D01*
X123831624Y-95493275D01*
X123788464Y-95507298D01*
X123748756Y-95523746D01*
X123720615Y-95529343D01*
X123697417Y-95536881D01*
X123625283Y-95548306D01*
X123575715Y-95558166D01*
X123563033Y-95558166D01*
X123558052Y-95558955D01*
X123416948Y-95558955D01*
X123411967Y-95558166D01*
X123399285Y-95558166D01*
X123349718Y-95548306D01*
X123277582Y-95536881D01*
X123254382Y-95529343D01*
X123226244Y-95523746D01*
X123186538Y-95507299D01*
X123143375Y-95493275D01*
X123102936Y-95472670D01*
X123063243Y-95456229D01*
X123039397Y-95440295D01*
X123017656Y-95429218D01*
X122958557Y-95386280D01*
X122916546Y-95358209D01*
X122907579Y-95349242D01*
X122903498Y-95346277D01*
X122803722Y-95246501D01*
X122800756Y-95242419D01*
X122791791Y-95233454D01*
X122763722Y-95191447D01*
X122720781Y-95132343D01*
X122709702Y-95110599D01*
X122693771Y-95086757D01*
X122677331Y-95047068D01*
X122656724Y-95006624D01*
X122642697Y-94963453D01*
X122626254Y-94923756D01*
X122620657Y-94895622D01*
X122613118Y-94872417D01*
X122601691Y-94800271D01*
X122591834Y-94750715D01*
X122591834Y-94738033D01*
X122591045Y-94733052D01*
X122591045Y-94591947D01*
X122591834Y-94586965D01*
X122591834Y-94574285D01*
X122601690Y-94524732D01*
X122613118Y-94452582D01*
X122620658Y-94429374D01*
X122626254Y-94401244D01*
X122642695Y-94361549D01*
X122656724Y-94318375D01*
X122677333Y-94277925D01*
X122693771Y-94238243D01*
X122709700Y-94214403D01*
X122720781Y-94192656D01*
X122763731Y-94133540D01*
X122791791Y-94091546D01*
X122800754Y-94082582D01*
X122803722Y-94078498D01*
X122903498Y-93978722D01*
X122907582Y-93975754D01*
X122916546Y-93966791D01*
X122958540Y-93938731D01*
X123017656Y-93895781D01*
X123039403Y-93884700D01*
X123063243Y-93868771D01*
X123102925Y-93852333D01*
X123143375Y-93831724D01*
X123186549Y-93817695D01*
X123226244Y-93801254D01*
X123254374Y-93795658D01*
X123277582Y-93788118D01*
X123349730Y-93776691D01*
X123399285Y-93766834D01*
X123411966Y-93766834D01*
X123416948Y-93766045D01*
X123558052Y-93766045D01*
X123563034Y-93766834D01*
G37*
G36*
X165116893Y-92242969D02*
G01*
X165162215Y-92262980D01*
X165194087Y-92275549D01*
X165198835Y-92279149D01*
X165217749Y-92287501D01*
X165242542Y-92312294D01*
X165258677Y-92324530D01*
X165270912Y-92340664D01*
X165295707Y-92365459D01*
X165304058Y-92384373D01*
X165307658Y-92389120D01*
X165320221Y-92420979D01*
X165340239Y-92466315D01*
X165348208Y-92535000D01*
X165348208Y-94635000D01*
X165340239Y-94703685D01*
X165320218Y-94749028D01*
X165307658Y-94780879D01*
X165304059Y-94785624D01*
X165295707Y-94804541D01*
X165270908Y-94829339D01*
X165258677Y-94845469D01*
X165242547Y-94857700D01*
X165217749Y-94882499D01*
X165198832Y-94890851D01*
X165194087Y-94894450D01*
X165162236Y-94907010D01*
X165116893Y-94927031D01*
X165048208Y-94935000D01*
X162948208Y-94935000D01*
X162879523Y-94927031D01*
X162834187Y-94907013D01*
X162802328Y-94894450D01*
X162797581Y-94890850D01*
X162778667Y-94882499D01*
X162753872Y-94857704D01*
X162737738Y-94845469D01*
X162725502Y-94829334D01*
X162700709Y-94804541D01*
X162692357Y-94785627D01*
X162688757Y-94780879D01*
X162676188Y-94749007D01*
X162656177Y-94703685D01*
X162648208Y-94635000D01*
X162648208Y-92535000D01*
X162656177Y-92466315D01*
X162676184Y-92421001D01*
X162688757Y-92389120D01*
X162692358Y-92384370D01*
X162700709Y-92365459D01*
X162725499Y-92340668D01*
X162737738Y-92324530D01*
X162753876Y-92312291D01*
X162778667Y-92287501D01*
X162797578Y-92279150D01*
X162802328Y-92275549D01*
X162834209Y-92262976D01*
X162879523Y-92242969D01*
X162948208Y-92235000D01*
X165048208Y-92235000D01*
X165116893Y-92242969D01*
G37*
G36*
X178616893Y-92242969D02*
G01*
X178662215Y-92262980D01*
X178694087Y-92275549D01*
X178698835Y-92279149D01*
X178717749Y-92287501D01*
X178742542Y-92312294D01*
X178758677Y-92324530D01*
X178770912Y-92340664D01*
X178795707Y-92365459D01*
X178804058Y-92384373D01*
X178807658Y-92389120D01*
X178820221Y-92420979D01*
X178840239Y-92466315D01*
X178848208Y-92535000D01*
X178848208Y-94635000D01*
X178840239Y-94703685D01*
X178820218Y-94749028D01*
X178807658Y-94780879D01*
X178804059Y-94785624D01*
X178795707Y-94804541D01*
X178770908Y-94829339D01*
X178758677Y-94845469D01*
X178742547Y-94857700D01*
X178717749Y-94882499D01*
X178698832Y-94890851D01*
X178694087Y-94894450D01*
X178662236Y-94907010D01*
X178616893Y-94927031D01*
X178548208Y-94935000D01*
X176448208Y-94935000D01*
X176379523Y-94927031D01*
X176334187Y-94907013D01*
X176302328Y-94894450D01*
X176297581Y-94890850D01*
X176278667Y-94882499D01*
X176253872Y-94857704D01*
X176237738Y-94845469D01*
X176225502Y-94829334D01*
X176200709Y-94804541D01*
X176192357Y-94785627D01*
X176188757Y-94780879D01*
X176176188Y-94749007D01*
X176156177Y-94703685D01*
X176148208Y-94635000D01*
X176148208Y-92535000D01*
X176156177Y-92466315D01*
X176176184Y-92421001D01*
X176188757Y-92389120D01*
X176192358Y-92384370D01*
X176200709Y-92365459D01*
X176225499Y-92340668D01*
X176237738Y-92324530D01*
X176253876Y-92312291D01*
X176278667Y-92287501D01*
X176297578Y-92279150D01*
X176302328Y-92275549D01*
X176334209Y-92262976D01*
X176379523Y-92242969D01*
X176448208Y-92235000D01*
X178548208Y-92235000D01*
X178616893Y-92242969D01*
G37*
G36*
X169313359Y-92272301D02*
G01*
X169514831Y-92337763D01*
X169703581Y-92433936D01*
X169874963Y-92558452D01*
X170024756Y-92708245D01*
X170149272Y-92879627D01*
X170245445Y-93068377D01*
X170310907Y-93269849D01*
X170344046Y-93479080D01*
X170344046Y-93690920D01*
X170310907Y-93900151D01*
X170245445Y-94101623D01*
X170149272Y-94290373D01*
X170024756Y-94461755D01*
X169874963Y-94611548D01*
X169703581Y-94736064D01*
X169514831Y-94832237D01*
X169313359Y-94897699D01*
X169104128Y-94930838D01*
X168892288Y-94930838D01*
X168683057Y-94897699D01*
X168481585Y-94832237D01*
X168292835Y-94736064D01*
X168121453Y-94611548D01*
X167971660Y-94461755D01*
X167847144Y-94290373D01*
X167750971Y-94101623D01*
X167685509Y-93900151D01*
X167652370Y-93690920D01*
X167652370Y-93479080D01*
X167685509Y-93269849D01*
X167750971Y-93068377D01*
X167847144Y-92879627D01*
X167971660Y-92708245D01*
X168121453Y-92558452D01*
X168292835Y-92433936D01*
X168481585Y-92337763D01*
X168683057Y-92272301D01*
X168892288Y-92239162D01*
X169104128Y-92239162D01*
X169313359Y-92272301D01*
G37*
G36*
X182813359Y-92272301D02*
G01*
X183014831Y-92337763D01*
X183203581Y-92433936D01*
X183374963Y-92558452D01*
X183524756Y-92708245D01*
X183649272Y-92879627D01*
X183745445Y-93068377D01*
X183810907Y-93269849D01*
X183844046Y-93479080D01*
X183844046Y-93690920D01*
X183810907Y-93900151D01*
X183745445Y-94101623D01*
X183649272Y-94290373D01*
X183524756Y-94461755D01*
X183374963Y-94611548D01*
X183203581Y-94736064D01*
X183014831Y-94832237D01*
X182813359Y-94897699D01*
X182604128Y-94930838D01*
X182392288Y-94930838D01*
X182183057Y-94897699D01*
X181981585Y-94832237D01*
X181792835Y-94736064D01*
X181621453Y-94611548D01*
X181471660Y-94461755D01*
X181347144Y-94290373D01*
X181250971Y-94101623D01*
X181185509Y-93900151D01*
X181152370Y-93690920D01*
X181152370Y-93479080D01*
X181185509Y-93269849D01*
X181250971Y-93068377D01*
X181347144Y-92879627D01*
X181471660Y-92708245D01*
X181621453Y-92558452D01*
X181792835Y-92433936D01*
X181981585Y-92337763D01*
X182183057Y-92272301D01*
X182392288Y-92239162D01*
X182604128Y-92239162D01*
X182813359Y-92272301D01*
G37*
G36*
X144119561Y-90050961D02*
G01*
X144169601Y-90052927D01*
X144174110Y-90053641D01*
X144193116Y-90054575D01*
X144244345Y-90064765D01*
X144321595Y-90077000D01*
X144346442Y-90085073D01*
X144375770Y-90090907D01*
X144417155Y-90108049D01*
X144463252Y-90123027D01*
X144506435Y-90145030D01*
X144547827Y-90162175D01*
X144572695Y-90178791D01*
X144595969Y-90190650D01*
X144659225Y-90236608D01*
X144702674Y-90265640D01*
X144711948Y-90274914D01*
X144716472Y-90278201D01*
X144821798Y-90383527D01*
X144825084Y-90388050D01*
X144834360Y-90397326D01*
X144863394Y-90440779D01*
X144909349Y-90504030D01*
X144921206Y-90527301D01*
X144937825Y-90552173D01*
X144954972Y-90593569D01*
X144976972Y-90636747D01*
X144991947Y-90682836D01*
X145009093Y-90724230D01*
X145014927Y-90753562D01*
X145022999Y-90778404D01*
X145035233Y-90855646D01*
X145045425Y-90906884D01*
X145045425Y-90919993D01*
X145046301Y-90925524D01*
X145046301Y-91074475D01*
X145045425Y-91080005D01*
X145045425Y-91093116D01*
X145035232Y-91144357D01*
X145022999Y-91221595D01*
X145014928Y-91246434D01*
X145009093Y-91275770D01*
X144991945Y-91317167D01*
X144976972Y-91363252D01*
X144954974Y-91406424D01*
X144937825Y-91447827D01*
X144921204Y-91472701D01*
X144909349Y-91495969D01*
X144863402Y-91559208D01*
X144834360Y-91602674D01*
X144825081Y-91611952D01*
X144821798Y-91616472D01*
X144716472Y-91721798D01*
X144711952Y-91725081D01*
X144702674Y-91734360D01*
X144659208Y-91763402D01*
X144595969Y-91809349D01*
X144572701Y-91821204D01*
X144547827Y-91837825D01*
X144506424Y-91854974D01*
X144463252Y-91876972D01*
X144417167Y-91891945D01*
X144375770Y-91909093D01*
X144346434Y-91914928D01*
X144321595Y-91922999D01*
X144244369Y-91935230D01*
X144193116Y-91945425D01*
X144174101Y-91946359D01*
X144169601Y-91947072D01*
X144119594Y-91949037D01*
X144100000Y-91950000D01*
X144095098Y-91950000D01*
X141904902Y-91950000D01*
X141900000Y-91950000D01*
X141880406Y-91949037D01*
X141830398Y-91947072D01*
X141825897Y-91946359D01*
X141806884Y-91945425D01*
X141755634Y-91935230D01*
X141678404Y-91922999D01*
X141653562Y-91914927D01*
X141624230Y-91909093D01*
X141582836Y-91891947D01*
X141536747Y-91876972D01*
X141493569Y-91854972D01*
X141452173Y-91837825D01*
X141427301Y-91821206D01*
X141404030Y-91809349D01*
X141340779Y-91763394D01*
X141297326Y-91734360D01*
X141288050Y-91725084D01*
X141283527Y-91721798D01*
X141178201Y-91616472D01*
X141174914Y-91611948D01*
X141165640Y-91602674D01*
X141136608Y-91559225D01*
X141090650Y-91495969D01*
X141078791Y-91472695D01*
X141062175Y-91447827D01*
X141045030Y-91406435D01*
X141023027Y-91363252D01*
X141008049Y-91317155D01*
X140990907Y-91275770D01*
X140985073Y-91246442D01*
X140977000Y-91221595D01*
X140964765Y-91144345D01*
X140954575Y-91093116D01*
X140954575Y-91080005D01*
X140953699Y-91074475D01*
X140953699Y-90925524D01*
X140954575Y-90919993D01*
X140954575Y-90906884D01*
X140964764Y-90855658D01*
X140977000Y-90778404D01*
X140985073Y-90753554D01*
X140990907Y-90724230D01*
X141008048Y-90682847D01*
X141023027Y-90636747D01*
X141045032Y-90593559D01*
X141062175Y-90552173D01*
X141078789Y-90527307D01*
X141090650Y-90504030D01*
X141136617Y-90440762D01*
X141165640Y-90397326D01*
X141174911Y-90388054D01*
X141178201Y-90383527D01*
X141283527Y-90278201D01*
X141288054Y-90274911D01*
X141297326Y-90265640D01*
X141340762Y-90236617D01*
X141404030Y-90190650D01*
X141427307Y-90178789D01*
X141452173Y-90162175D01*
X141493559Y-90145032D01*
X141536747Y-90123027D01*
X141582847Y-90108048D01*
X141624230Y-90090907D01*
X141653554Y-90085073D01*
X141678404Y-90077000D01*
X141755658Y-90064764D01*
X141806884Y-90054575D01*
X141825888Y-90053641D01*
X141830398Y-90052927D01*
X141880440Y-90050961D01*
X141900000Y-90050000D01*
X144100000Y-90050000D01*
X144119561Y-90050961D01*
G37*
G36*
X147780007Y-85954575D02*
G01*
X147793116Y-85954575D01*
X147844343Y-85964764D01*
X147921595Y-85977000D01*
X147946442Y-85985073D01*
X147975770Y-85990907D01*
X148017155Y-86008049D01*
X148063252Y-86023027D01*
X148106435Y-86045030D01*
X148147827Y-86062175D01*
X148172695Y-86078791D01*
X148195969Y-86090650D01*
X148259225Y-86136608D01*
X148302674Y-86165640D01*
X148311948Y-86174914D01*
X148316472Y-86178201D01*
X148421798Y-86283527D01*
X148425084Y-86288050D01*
X148434360Y-86297326D01*
X148463394Y-86340779D01*
X148509349Y-86404030D01*
X148521206Y-86427301D01*
X148537825Y-86452173D01*
X148554972Y-86493569D01*
X148576972Y-86536747D01*
X148591947Y-86582836D01*
X148609093Y-86624230D01*
X148614927Y-86653562D01*
X148622999Y-86678404D01*
X148635230Y-86755634D01*
X148645425Y-86806884D01*
X148646359Y-86825897D01*
X148647072Y-86830398D01*
X148649037Y-86880409D01*
X148650000Y-86900000D01*
X148650000Y-89100000D01*
X148649037Y-89119594D01*
X148647072Y-89169601D01*
X148646359Y-89174101D01*
X148645425Y-89193116D01*
X148635230Y-89244369D01*
X148622999Y-89321595D01*
X148614928Y-89346434D01*
X148609093Y-89375770D01*
X148591945Y-89417167D01*
X148576972Y-89463252D01*
X148554974Y-89506424D01*
X148537825Y-89547827D01*
X148521204Y-89572701D01*
X148509349Y-89595969D01*
X148463402Y-89659208D01*
X148434360Y-89702674D01*
X148425081Y-89711952D01*
X148421798Y-89716472D01*
X148316472Y-89821798D01*
X148311952Y-89825081D01*
X148302674Y-89834360D01*
X148259208Y-89863402D01*
X148195969Y-89909349D01*
X148172701Y-89921204D01*
X148147827Y-89937825D01*
X148106424Y-89954974D01*
X148063252Y-89976972D01*
X148017167Y-89991945D01*
X147975770Y-90009093D01*
X147946434Y-90014928D01*
X147921595Y-90022999D01*
X147844355Y-90035232D01*
X147793116Y-90045425D01*
X147780007Y-90045425D01*
X147774476Y-90046301D01*
X147625524Y-90046301D01*
X147619993Y-90045425D01*
X147606884Y-90045425D01*
X147555646Y-90035233D01*
X147478404Y-90022999D01*
X147453562Y-90014927D01*
X147424230Y-90009093D01*
X147382836Y-89991947D01*
X147336747Y-89976972D01*
X147293569Y-89954972D01*
X147252173Y-89937825D01*
X147227301Y-89921206D01*
X147204030Y-89909349D01*
X147140779Y-89863394D01*
X147097326Y-89834360D01*
X147088050Y-89825084D01*
X147083527Y-89821798D01*
X146978201Y-89716472D01*
X146974914Y-89711948D01*
X146965640Y-89702674D01*
X146936608Y-89659225D01*
X146890650Y-89595969D01*
X146878791Y-89572695D01*
X146862175Y-89547827D01*
X146845030Y-89506435D01*
X146823027Y-89463252D01*
X146808049Y-89417155D01*
X146790907Y-89375770D01*
X146785073Y-89346442D01*
X146777000Y-89321595D01*
X146764765Y-89244345D01*
X146754575Y-89193116D01*
X146753641Y-89174110D01*
X146752927Y-89169601D01*
X146750961Y-89119561D01*
X146750000Y-89100000D01*
X146750000Y-86900000D01*
X146750960Y-86880442D01*
X146752927Y-86830398D01*
X146753641Y-86825888D01*
X146754575Y-86806884D01*
X146764764Y-86755658D01*
X146777000Y-86678404D01*
X146785073Y-86653554D01*
X146790907Y-86624230D01*
X146808048Y-86582847D01*
X146823027Y-86536747D01*
X146845032Y-86493559D01*
X146862175Y-86452173D01*
X146878789Y-86427307D01*
X146890650Y-86404030D01*
X146936617Y-86340762D01*
X146965640Y-86297326D01*
X146974911Y-86288054D01*
X146978201Y-86283527D01*
X147083527Y-86178201D01*
X147088054Y-86174911D01*
X147097326Y-86165640D01*
X147140762Y-86136617D01*
X147204030Y-86090650D01*
X147227307Y-86078789D01*
X147252173Y-86062175D01*
X147293559Y-86045032D01*
X147336747Y-86023027D01*
X147382847Y-86008048D01*
X147424230Y-85990907D01*
X147453554Y-85985073D01*
X147478404Y-85977000D01*
X147555658Y-85964764D01*
X147606884Y-85954575D01*
X147619993Y-85954575D01*
X147625524Y-85953699D01*
X147774476Y-85953699D01*
X147780007Y-85954575D01*
G37*
G36*
X98335870Y-86143704D02*
G01*
X98370130Y-86145387D01*
X98374347Y-86146225D01*
X98395816Y-86147633D01*
X98437290Y-86158746D01*
X98491319Y-86169493D01*
X98516819Y-86180055D01*
X98547110Y-86188172D01*
X98574268Y-86203851D01*
X98599765Y-86214413D01*
X98645563Y-86245014D01*
X98682757Y-86266488D01*
X98692936Y-86276667D01*
X98697370Y-86279630D01*
X98780369Y-86362629D01*
X98783331Y-86367062D01*
X98793512Y-86377243D01*
X98814988Y-86414440D01*
X98845586Y-86460234D01*
X98856146Y-86485728D01*
X98871828Y-86512890D01*
X98879945Y-86543184D01*
X98890506Y-86568680D01*
X98901252Y-86622702D01*
X98912367Y-86664184D01*
X98912367Y-86678578D01*
X98913407Y-86683807D01*
X98913407Y-86801192D01*
X98912367Y-86806420D01*
X98912367Y-86820816D01*
X98901251Y-86862299D01*
X98890506Y-86916319D01*
X98879946Y-86941812D01*
X98871828Y-86972110D01*
X98856144Y-86999274D01*
X98845586Y-87024765D01*
X98814992Y-87070552D01*
X98793512Y-87107757D01*
X98783329Y-87117939D01*
X98780369Y-87122370D01*
X98697370Y-87205369D01*
X98692939Y-87208329D01*
X98682757Y-87218512D01*
X98645552Y-87239992D01*
X98599765Y-87270586D01*
X98574274Y-87281144D01*
X98547110Y-87296828D01*
X98516812Y-87304946D01*
X98491319Y-87315506D01*
X98437305Y-87326249D01*
X98395816Y-87337367D01*
X98374339Y-87338774D01*
X98370130Y-87339612D01*
X98335896Y-87341294D01*
X98317500Y-87342500D01*
X98311360Y-87342500D01*
X97723640Y-87342500D01*
X97717500Y-87342500D01*
X97699105Y-87341294D01*
X97664869Y-87339612D01*
X97660658Y-87338774D01*
X97639184Y-87337367D01*
X97597697Y-87326250D01*
X97543680Y-87315506D01*
X97518184Y-87304945D01*
X97487890Y-87296828D01*
X97460728Y-87281146D01*
X97435234Y-87270586D01*
X97389440Y-87239988D01*
X97352243Y-87218512D01*
X97342062Y-87208331D01*
X97337629Y-87205369D01*
X97254630Y-87122370D01*
X97251667Y-87117936D01*
X97241488Y-87107757D01*
X97220014Y-87070563D01*
X97189413Y-87024765D01*
X97178851Y-86999268D01*
X97163172Y-86972110D01*
X97155055Y-86941819D01*
X97144493Y-86916319D01*
X97133746Y-86862292D01*
X97122633Y-86820816D01*
X97122633Y-86806420D01*
X97121593Y-86801192D01*
X97121593Y-86683807D01*
X97122633Y-86678578D01*
X97122633Y-86664184D01*
X97133745Y-86622710D01*
X97144493Y-86568680D01*
X97155056Y-86543177D01*
X97163172Y-86512890D01*
X97178850Y-86485734D01*
X97189413Y-86460234D01*
X97220018Y-86414429D01*
X97241488Y-86377243D01*
X97251665Y-86367065D01*
X97254630Y-86362629D01*
X97337629Y-86279630D01*
X97342065Y-86276665D01*
X97352243Y-86266488D01*
X97389429Y-86245018D01*
X97435234Y-86214413D01*
X97460734Y-86203850D01*
X97487890Y-86188172D01*
X97518177Y-86180056D01*
X97543680Y-86169493D01*
X97597711Y-86158745D01*
X97639184Y-86147633D01*
X97660651Y-86146226D01*
X97664869Y-86145387D01*
X97699130Y-86143703D01*
X97717500Y-86142500D01*
X98317500Y-86142500D01*
X98335870Y-86143704D01*
G37*
G36*
X102615870Y-86143704D02*
G01*
X102650130Y-86145387D01*
X102654347Y-86146225D01*
X102675816Y-86147633D01*
X102717290Y-86158746D01*
X102771319Y-86169493D01*
X102796819Y-86180055D01*
X102827110Y-86188172D01*
X102854268Y-86203851D01*
X102879765Y-86214413D01*
X102925563Y-86245014D01*
X102962757Y-86266488D01*
X102972936Y-86276667D01*
X102977370Y-86279630D01*
X103060369Y-86362629D01*
X103063331Y-86367062D01*
X103073512Y-86377243D01*
X103094988Y-86414440D01*
X103125586Y-86460234D01*
X103136146Y-86485728D01*
X103151828Y-86512890D01*
X103159945Y-86543184D01*
X103170506Y-86568680D01*
X103181252Y-86622702D01*
X103192367Y-86664184D01*
X103192367Y-86678578D01*
X103193407Y-86683807D01*
X103193407Y-86801192D01*
X103192367Y-86806420D01*
X103192367Y-86820816D01*
X103181251Y-86862299D01*
X103170506Y-86916319D01*
X103159946Y-86941812D01*
X103151828Y-86972110D01*
X103136144Y-86999274D01*
X103125586Y-87024765D01*
X103094992Y-87070552D01*
X103073512Y-87107757D01*
X103063329Y-87117939D01*
X103060369Y-87122370D01*
X102977370Y-87205369D01*
X102972939Y-87208329D01*
X102962757Y-87218512D01*
X102925552Y-87239992D01*
X102879765Y-87270586D01*
X102854274Y-87281144D01*
X102827110Y-87296828D01*
X102796812Y-87304946D01*
X102771319Y-87315506D01*
X102717305Y-87326249D01*
X102675816Y-87337367D01*
X102654339Y-87338774D01*
X102650130Y-87339612D01*
X102615896Y-87341294D01*
X102597500Y-87342500D01*
X102591360Y-87342500D01*
X101803640Y-87342500D01*
X101797500Y-87342500D01*
X101779105Y-87341294D01*
X101744869Y-87339612D01*
X101740658Y-87338774D01*
X101719184Y-87337367D01*
X101677697Y-87326250D01*
X101623680Y-87315506D01*
X101598184Y-87304945D01*
X101567890Y-87296828D01*
X101540728Y-87281146D01*
X101515234Y-87270586D01*
X101469440Y-87239988D01*
X101432243Y-87218512D01*
X101422062Y-87208331D01*
X101417629Y-87205369D01*
X101334630Y-87122370D01*
X101331667Y-87117936D01*
X101321488Y-87107757D01*
X101300014Y-87070563D01*
X101269413Y-87024765D01*
X101258851Y-86999268D01*
X101243172Y-86972110D01*
X101235055Y-86941819D01*
X101224493Y-86916319D01*
X101213746Y-86862292D01*
X101202633Y-86820816D01*
X101202633Y-86806420D01*
X101201593Y-86801192D01*
X101201593Y-86683807D01*
X101202633Y-86678578D01*
X101202633Y-86664184D01*
X101213745Y-86622710D01*
X101224493Y-86568680D01*
X101235056Y-86543177D01*
X101243172Y-86512890D01*
X101258850Y-86485734D01*
X101269413Y-86460234D01*
X101300018Y-86414429D01*
X101321488Y-86377243D01*
X101331665Y-86367065D01*
X101334630Y-86362629D01*
X101417629Y-86279630D01*
X101422065Y-86276665D01*
X101432243Y-86266488D01*
X101469429Y-86245018D01*
X101515234Y-86214413D01*
X101540734Y-86203850D01*
X101567890Y-86188172D01*
X101598177Y-86180056D01*
X101623680Y-86169493D01*
X101677711Y-86158745D01*
X101719184Y-86147633D01*
X101740651Y-86146226D01*
X101744869Y-86145387D01*
X101779130Y-86143703D01*
X101797500Y-86142500D01*
X102597500Y-86142500D01*
X102615870Y-86143704D01*
G37*
G36*
X144269561Y-83950960D02*
G01*
X144327448Y-83953235D01*
X144332662Y-83954060D01*
X144352918Y-83955056D01*
X144407517Y-83965916D01*
X144494935Y-83979762D01*
X144523052Y-83988898D01*
X144554799Y-83995213D01*
X144599603Y-84013771D01*
X144651521Y-84030641D01*
X144700156Y-84055421D01*
X144744967Y-84073983D01*
X144771886Y-84091969D01*
X144798217Y-84105386D01*
X144869796Y-84157391D01*
X144916113Y-84188339D01*
X144925997Y-84198223D01*
X144931421Y-84202164D01*
X145047835Y-84318578D01*
X145051775Y-84324001D01*
X145061661Y-84333887D01*
X145092612Y-84380208D01*
X145144613Y-84451782D01*
X145158027Y-84478110D01*
X145176017Y-84505033D01*
X145194580Y-84549848D01*
X145219358Y-84598478D01*
X145236225Y-84650388D01*
X145254787Y-84695201D01*
X145261102Y-84726952D01*
X145270237Y-84755064D01*
X145284081Y-84842472D01*
X145294944Y-84897082D01*
X145294944Y-84911054D01*
X145295993Y-84917678D01*
X145295993Y-85082321D01*
X145294944Y-85088944D01*
X145294944Y-85102918D01*
X145284080Y-85157531D01*
X145270237Y-85244935D01*
X145261103Y-85273044D01*
X145254787Y-85304799D01*
X145236223Y-85349614D01*
X145219358Y-85401521D01*
X145194582Y-85450146D01*
X145176017Y-85494967D01*
X145158025Y-85521892D01*
X145144613Y-85548217D01*
X145092620Y-85619779D01*
X145061661Y-85666113D01*
X145051772Y-85676001D01*
X145047835Y-85681421D01*
X144931421Y-85797835D01*
X144926001Y-85801772D01*
X144916113Y-85811661D01*
X144869779Y-85842620D01*
X144798217Y-85894613D01*
X144771892Y-85908025D01*
X144744967Y-85926017D01*
X144700146Y-85944582D01*
X144651521Y-85969358D01*
X144599614Y-85986223D01*
X144554799Y-86004787D01*
X144523044Y-86011103D01*
X144494935Y-86020237D01*
X144407541Y-86034078D01*
X144352918Y-86044944D01*
X144332653Y-86045939D01*
X144327448Y-86046764D01*
X144269591Y-86049037D01*
X144250000Y-86050000D01*
X144245099Y-86050000D01*
X141754901Y-86050000D01*
X141750000Y-86050000D01*
X141730409Y-86049037D01*
X141672551Y-86046764D01*
X141667344Y-86045939D01*
X141647082Y-86044944D01*
X141592462Y-86034079D01*
X141505064Y-86020237D01*
X141476952Y-86011102D01*
X141445201Y-86004787D01*
X141400388Y-85986225D01*
X141348478Y-85969358D01*
X141299848Y-85944580D01*
X141255033Y-85926017D01*
X141228110Y-85908027D01*
X141201782Y-85894613D01*
X141130208Y-85842612D01*
X141083887Y-85811661D01*
X141074001Y-85801775D01*
X141068578Y-85797835D01*
X140952164Y-85681421D01*
X140948223Y-85675997D01*
X140938339Y-85666113D01*
X140907391Y-85619796D01*
X140855386Y-85548217D01*
X140841969Y-85521886D01*
X140823983Y-85494967D01*
X140805421Y-85450156D01*
X140780641Y-85401521D01*
X140763771Y-85349603D01*
X140745213Y-85304799D01*
X140738898Y-85273052D01*
X140729762Y-85244935D01*
X140715917Y-85157519D01*
X140705056Y-85102918D01*
X140705056Y-85088944D01*
X140704007Y-85082321D01*
X140704007Y-84917678D01*
X140705056Y-84911054D01*
X140705056Y-84897082D01*
X140715916Y-84842484D01*
X140729762Y-84755064D01*
X140738898Y-84726944D01*
X140745213Y-84695201D01*
X140763770Y-84650399D01*
X140780641Y-84598478D01*
X140805424Y-84549838D01*
X140823983Y-84505033D01*
X140841967Y-84478116D01*
X140855386Y-84451782D01*
X140907399Y-84380191D01*
X140938339Y-84333887D01*
X140948221Y-84324004D01*
X140952164Y-84318578D01*
X141068578Y-84202164D01*
X141074004Y-84198221D01*
X141083887Y-84188339D01*
X141130191Y-84157399D01*
X141201782Y-84105386D01*
X141228116Y-84091967D01*
X141255033Y-84073983D01*
X141299838Y-84055424D01*
X141348478Y-84030641D01*
X141400399Y-84013770D01*
X141445201Y-83995213D01*
X141476944Y-83988898D01*
X141505064Y-83979762D01*
X141592486Y-83965915D01*
X141647082Y-83955056D01*
X141667335Y-83954061D01*
X141672551Y-83953235D01*
X141730439Y-83950960D01*
X141750000Y-83950000D01*
X144250000Y-83950000D01*
X144269561Y-83950960D01*
G37*
G36*
X101812305Y-85035336D02*
G01*
X101880128Y-85074494D01*
X101935506Y-85129872D01*
X101974664Y-85197695D01*
X101994933Y-85273342D01*
X101994933Y-85351658D01*
X101974664Y-85427305D01*
X101935506Y-85495128D01*
X101880128Y-85550506D01*
X101812305Y-85589664D01*
X101736658Y-85609933D01*
X101658342Y-85609933D01*
X101582695Y-85589664D01*
X101514872Y-85550506D01*
X101459494Y-85495128D01*
X101420336Y-85427305D01*
X101400067Y-85351658D01*
X101400067Y-85273342D01*
X101420336Y-85197695D01*
X101459494Y-85129872D01*
X101514872Y-85074494D01*
X101582695Y-85035336D01*
X101658342Y-85015067D01*
X101736658Y-85015067D01*
X101812305Y-85035336D01*
G37*
G36*
X101812305Y-79235336D02*
G01*
X101880128Y-79274494D01*
X101935506Y-79329872D01*
X101974664Y-79397695D01*
X101994933Y-79473342D01*
X101994933Y-79551658D01*
X101974664Y-79627305D01*
X101935506Y-79695128D01*
X101880128Y-79750506D01*
X101812305Y-79789664D01*
X101736658Y-79809933D01*
X101658342Y-79809933D01*
X101582695Y-79789664D01*
X101514872Y-79750506D01*
X101459494Y-79695128D01*
X101420336Y-79627305D01*
X101400067Y-79551658D01*
X101400067Y-79473342D01*
X101420336Y-79397695D01*
X101459494Y-79329872D01*
X101514872Y-79274494D01*
X101582695Y-79235336D01*
X101658342Y-79215067D01*
X101736658Y-79215067D01*
X101812305Y-79235336D01*
G37*
G36*
X98335870Y-77483704D02*
G01*
X98370130Y-77485387D01*
X98374347Y-77486225D01*
X98395816Y-77487633D01*
X98437290Y-77498746D01*
X98491319Y-77509493D01*
X98516819Y-77520055D01*
X98547110Y-77528172D01*
X98574268Y-77543851D01*
X98599765Y-77554413D01*
X98645563Y-77585014D01*
X98682757Y-77606488D01*
X98692936Y-77616667D01*
X98697370Y-77619630D01*
X98780369Y-77702629D01*
X98783331Y-77707062D01*
X98793512Y-77717243D01*
X98814988Y-77754440D01*
X98845586Y-77800234D01*
X98856146Y-77825728D01*
X98871828Y-77852890D01*
X98879945Y-77883184D01*
X98890506Y-77908680D01*
X98901252Y-77962702D01*
X98912367Y-78004184D01*
X98912367Y-78018578D01*
X98913407Y-78023807D01*
X98913407Y-78141192D01*
X98912367Y-78146420D01*
X98912367Y-78160816D01*
X98901251Y-78202299D01*
X98890506Y-78256319D01*
X98879946Y-78281812D01*
X98871828Y-78312110D01*
X98856144Y-78339274D01*
X98845586Y-78364765D01*
X98814992Y-78410552D01*
X98793512Y-78447757D01*
X98783329Y-78457939D01*
X98780369Y-78462370D01*
X98697370Y-78545369D01*
X98692939Y-78548329D01*
X98682757Y-78558512D01*
X98645552Y-78579992D01*
X98599765Y-78610586D01*
X98574274Y-78621144D01*
X98547110Y-78636828D01*
X98516812Y-78644946D01*
X98491319Y-78655506D01*
X98437305Y-78666249D01*
X98395816Y-78677367D01*
X98374339Y-78678774D01*
X98370130Y-78679612D01*
X98335896Y-78681294D01*
X98317500Y-78682500D01*
X98311360Y-78682500D01*
X97723640Y-78682500D01*
X97717500Y-78682500D01*
X97699105Y-78681294D01*
X97664869Y-78679612D01*
X97660658Y-78678774D01*
X97639184Y-78677367D01*
X97597697Y-78666250D01*
X97543680Y-78655506D01*
X97518184Y-78644945D01*
X97487890Y-78636828D01*
X97460728Y-78621146D01*
X97435234Y-78610586D01*
X97389440Y-78579988D01*
X97352243Y-78558512D01*
X97342062Y-78548331D01*
X97337629Y-78545369D01*
X97254630Y-78462370D01*
X97251667Y-78457936D01*
X97241488Y-78447757D01*
X97220014Y-78410563D01*
X97189413Y-78364765D01*
X97178851Y-78339268D01*
X97163172Y-78312110D01*
X97155055Y-78281819D01*
X97144493Y-78256319D01*
X97133746Y-78202292D01*
X97122633Y-78160816D01*
X97122633Y-78146420D01*
X97121593Y-78141192D01*
X97121593Y-78023807D01*
X97122633Y-78018578D01*
X97122633Y-78004184D01*
X97133745Y-77962710D01*
X97144493Y-77908680D01*
X97155056Y-77883177D01*
X97163172Y-77852890D01*
X97178850Y-77825734D01*
X97189413Y-77800234D01*
X97220018Y-77754429D01*
X97241488Y-77717243D01*
X97251665Y-77707065D01*
X97254630Y-77702629D01*
X97337629Y-77619630D01*
X97342065Y-77616665D01*
X97352243Y-77606488D01*
X97389429Y-77585018D01*
X97435234Y-77554413D01*
X97460734Y-77543850D01*
X97487890Y-77528172D01*
X97518177Y-77520056D01*
X97543680Y-77509493D01*
X97597711Y-77498745D01*
X97639184Y-77487633D01*
X97660651Y-77486226D01*
X97664869Y-77485387D01*
X97699130Y-77483703D01*
X97717500Y-77482500D01*
X98317500Y-77482500D01*
X98335870Y-77483704D01*
G37*
G36*
X102615870Y-77483704D02*
G01*
X102650130Y-77485387D01*
X102654347Y-77486225D01*
X102675816Y-77487633D01*
X102717290Y-77498746D01*
X102771319Y-77509493D01*
X102796819Y-77520055D01*
X102827110Y-77528172D01*
X102854268Y-77543851D01*
X102879765Y-77554413D01*
X102925563Y-77585014D01*
X102962757Y-77606488D01*
X102972936Y-77616667D01*
X102977370Y-77619630D01*
X103060369Y-77702629D01*
X103063331Y-77707062D01*
X103073512Y-77717243D01*
X103094988Y-77754440D01*
X103125586Y-77800234D01*
X103136146Y-77825728D01*
X103151828Y-77852890D01*
X103159945Y-77883184D01*
X103170506Y-77908680D01*
X103181252Y-77962702D01*
X103192367Y-78004184D01*
X103192367Y-78018578D01*
X103193407Y-78023807D01*
X103193407Y-78141192D01*
X103192367Y-78146420D01*
X103192367Y-78160816D01*
X103181251Y-78202299D01*
X103170506Y-78256319D01*
X103159946Y-78281812D01*
X103151828Y-78312110D01*
X103136144Y-78339274D01*
X103125586Y-78364765D01*
X103094992Y-78410552D01*
X103073512Y-78447757D01*
X103063329Y-78457939D01*
X103060369Y-78462370D01*
X102977370Y-78545369D01*
X102972939Y-78548329D01*
X102962757Y-78558512D01*
X102925552Y-78579992D01*
X102879765Y-78610586D01*
X102854274Y-78621144D01*
X102827110Y-78636828D01*
X102796812Y-78644946D01*
X102771319Y-78655506D01*
X102717305Y-78666249D01*
X102675816Y-78677367D01*
X102654339Y-78678774D01*
X102650130Y-78679612D01*
X102615896Y-78681294D01*
X102597500Y-78682500D01*
X102591360Y-78682500D01*
X101803640Y-78682500D01*
X101797500Y-78682500D01*
X101779105Y-78681294D01*
X101744869Y-78679612D01*
X101740658Y-78678774D01*
X101719184Y-78677367D01*
X101677697Y-78666250D01*
X101623680Y-78655506D01*
X101598184Y-78644945D01*
X101567890Y-78636828D01*
X101540728Y-78621146D01*
X101515234Y-78610586D01*
X101469440Y-78579988D01*
X101432243Y-78558512D01*
X101422062Y-78548331D01*
X101417629Y-78545369D01*
X101334630Y-78462370D01*
X101331667Y-78457936D01*
X101321488Y-78447757D01*
X101300014Y-78410563D01*
X101269413Y-78364765D01*
X101258851Y-78339268D01*
X101243172Y-78312110D01*
X101235055Y-78281819D01*
X101224493Y-78256319D01*
X101213746Y-78202292D01*
X101202633Y-78160816D01*
X101202633Y-78146420D01*
X101201593Y-78141192D01*
X101201593Y-78023807D01*
X101202633Y-78018578D01*
X101202633Y-78004184D01*
X101213745Y-77962710D01*
X101224493Y-77908680D01*
X101235056Y-77883177D01*
X101243172Y-77852890D01*
X101258850Y-77825734D01*
X101269413Y-77800234D01*
X101300018Y-77754429D01*
X101321488Y-77717243D01*
X101331665Y-77707065D01*
X101334630Y-77702629D01*
X101417629Y-77619630D01*
X101422065Y-77616665D01*
X101432243Y-77606488D01*
X101469429Y-77585018D01*
X101515234Y-77554413D01*
X101540734Y-77543850D01*
X101567890Y-77528172D01*
X101598177Y-77520056D01*
X101623680Y-77509493D01*
X101677711Y-77498745D01*
X101719184Y-77487633D01*
X101740651Y-77486226D01*
X101744869Y-77485387D01*
X101779130Y-77483703D01*
X101797500Y-77482500D01*
X102597500Y-77482500D01*
X102615870Y-77483704D01*
G37*
G36*
X107005864Y-50263703D02*
G01*
X107035230Y-50265146D01*
X107038845Y-50265865D01*
X107059289Y-50267205D01*
X107098789Y-50277789D01*
X107146804Y-50287340D01*
X107169465Y-50296726D01*
X107197976Y-50304366D01*
X107223535Y-50319123D01*
X107246198Y-50328510D01*
X107286908Y-50355711D01*
X107322319Y-50376156D01*
X107332010Y-50385847D01*
X107335648Y-50388278D01*
X107411721Y-50464351D01*
X107414151Y-50467988D01*
X107423844Y-50477681D01*
X107444290Y-50513095D01*
X107471489Y-50553801D01*
X107480874Y-50576460D01*
X107495634Y-50602024D01*
X107503274Y-50630538D01*
X107512659Y-50653195D01*
X107522208Y-50701203D01*
X107532795Y-50740711D01*
X107532795Y-50754419D01*
X107533648Y-50758708D01*
X107533648Y-50866291D01*
X107532795Y-50870579D01*
X107532795Y-50884289D01*
X107522208Y-50923799D01*
X107512659Y-50971804D01*
X107503275Y-50994458D01*
X107495634Y-51022976D01*
X107480873Y-51048542D01*
X107471489Y-51071198D01*
X107444295Y-51111897D01*
X107423844Y-51147319D01*
X107414149Y-51157013D01*
X107411721Y-51160648D01*
X107335648Y-51236721D01*
X107332013Y-51239149D01*
X107322319Y-51248844D01*
X107286897Y-51269295D01*
X107246198Y-51296489D01*
X107223542Y-51305873D01*
X107197976Y-51320634D01*
X107169458Y-51328275D01*
X107146804Y-51337659D01*
X107098803Y-51347207D01*
X107059289Y-51357795D01*
X107038837Y-51359135D01*
X107035230Y-51359853D01*
X107005891Y-51361294D01*
X106987500Y-51362500D01*
X106981361Y-51362500D01*
X105993639Y-51362500D01*
X105987500Y-51362500D01*
X105969109Y-51361294D01*
X105939769Y-51359853D01*
X105936160Y-51359135D01*
X105915711Y-51357795D01*
X105876199Y-51347207D01*
X105828195Y-51337659D01*
X105805538Y-51328274D01*
X105777024Y-51320634D01*
X105751460Y-51305874D01*
X105728801Y-51296489D01*
X105688095Y-51269290D01*
X105652681Y-51248844D01*
X105642988Y-51239151D01*
X105639351Y-51236721D01*
X105563278Y-51160648D01*
X105560847Y-51157010D01*
X105551156Y-51147319D01*
X105530711Y-51111908D01*
X105503510Y-51071198D01*
X105494123Y-51048535D01*
X105479366Y-51022976D01*
X105471726Y-50994465D01*
X105462340Y-50971804D01*
X105452789Y-50923791D01*
X105442205Y-50884289D01*
X105442205Y-50870579D01*
X105441352Y-50866291D01*
X105441352Y-50758708D01*
X105442205Y-50754419D01*
X105442205Y-50740711D01*
X105452788Y-50701211D01*
X105462340Y-50653195D01*
X105471727Y-50630531D01*
X105479366Y-50602024D01*
X105494121Y-50576466D01*
X105503510Y-50553801D01*
X105530715Y-50513084D01*
X105551156Y-50477681D01*
X105560845Y-50467991D01*
X105563278Y-50464351D01*
X105639351Y-50388278D01*
X105642991Y-50385845D01*
X105652681Y-50376156D01*
X105688084Y-50355715D01*
X105728801Y-50328510D01*
X105751466Y-50319121D01*
X105777024Y-50304366D01*
X105805531Y-50296727D01*
X105828195Y-50287340D01*
X105876213Y-50277788D01*
X105915711Y-50267205D01*
X105936153Y-50265865D01*
X105939769Y-50265146D01*
X105969137Y-50263703D01*
X105987500Y-50262500D01*
X106987500Y-50262500D01*
X107005864Y-50263703D01*
G37*
G36*
X96951420Y-47817633D02*
G01*
X96965816Y-47817633D01*
X97007292Y-47828746D01*
X97061319Y-47839493D01*
X97086819Y-47850055D01*
X97117110Y-47858172D01*
X97144268Y-47873851D01*
X97169765Y-47884413D01*
X97215563Y-47915014D01*
X97252757Y-47936488D01*
X97262936Y-47946667D01*
X97267370Y-47949630D01*
X97350369Y-48032629D01*
X97353331Y-48037062D01*
X97363512Y-48047243D01*
X97384988Y-48084440D01*
X97415586Y-48130234D01*
X97426146Y-48155728D01*
X97441828Y-48182890D01*
X97449945Y-48213184D01*
X97460506Y-48238680D01*
X97471252Y-48292702D01*
X97482367Y-48334184D01*
X97482367Y-48348578D01*
X97483407Y-48353807D01*
X97483407Y-48471192D01*
X97482367Y-48476420D01*
X97482367Y-48490816D01*
X97471251Y-48532299D01*
X97460506Y-48586319D01*
X97449946Y-48611812D01*
X97441828Y-48642110D01*
X97426144Y-48669274D01*
X97415586Y-48694765D01*
X97384992Y-48740552D01*
X97363512Y-48777757D01*
X97353329Y-48787939D01*
X97350369Y-48792370D01*
X97267370Y-48875369D01*
X97262939Y-48878329D01*
X97252757Y-48888512D01*
X97215552Y-48909992D01*
X97169765Y-48940586D01*
X97144274Y-48951144D01*
X97117110Y-48966828D01*
X97086812Y-48974946D01*
X97061319Y-48985506D01*
X97007299Y-48996251D01*
X96965816Y-49007367D01*
X96951420Y-49007367D01*
X96946192Y-49008407D01*
X96828808Y-49008407D01*
X96823580Y-49007367D01*
X96809184Y-49007367D01*
X96767701Y-48996251D01*
X96713680Y-48985506D01*
X96688184Y-48974945D01*
X96657890Y-48966828D01*
X96630728Y-48951146D01*
X96605234Y-48940586D01*
X96559440Y-48909988D01*
X96522243Y-48888512D01*
X96512062Y-48878331D01*
X96507629Y-48875369D01*
X96424630Y-48792370D01*
X96421667Y-48787936D01*
X96411488Y-48777757D01*
X96390014Y-48740563D01*
X96359413Y-48694765D01*
X96348851Y-48669268D01*
X96333172Y-48642110D01*
X96325055Y-48611819D01*
X96314493Y-48586319D01*
X96303746Y-48532292D01*
X96292633Y-48490816D01*
X96292633Y-48476420D01*
X96291593Y-48471192D01*
X96291593Y-48353807D01*
X96292633Y-48348578D01*
X96292633Y-48334184D01*
X96303745Y-48292710D01*
X96314493Y-48238680D01*
X96325056Y-48213177D01*
X96333172Y-48182890D01*
X96348850Y-48155734D01*
X96359413Y-48130234D01*
X96390018Y-48084429D01*
X96411488Y-48047243D01*
X96421665Y-48037065D01*
X96424630Y-48032629D01*
X96507629Y-47949630D01*
X96512065Y-47946665D01*
X96522243Y-47936488D01*
X96559429Y-47915018D01*
X96605234Y-47884413D01*
X96630734Y-47873850D01*
X96657890Y-47858172D01*
X96688177Y-47850056D01*
X96713680Y-47839493D01*
X96767709Y-47828746D01*
X96809184Y-47817633D01*
X96823579Y-47817633D01*
X96828808Y-47816593D01*
X96946192Y-47816593D01*
X96951420Y-47817633D01*
G37*
G36*
X103951420Y-47817633D02*
G01*
X103965816Y-47817633D01*
X104007292Y-47828746D01*
X104061319Y-47839493D01*
X104086819Y-47850055D01*
X104117110Y-47858172D01*
X104144268Y-47873851D01*
X104169765Y-47884413D01*
X104215563Y-47915014D01*
X104252757Y-47936488D01*
X104262936Y-47946667D01*
X104267370Y-47949630D01*
X104350369Y-48032629D01*
X104353331Y-48037062D01*
X104363512Y-48047243D01*
X104384988Y-48084440D01*
X104415586Y-48130234D01*
X104426146Y-48155728D01*
X104441828Y-48182890D01*
X104449945Y-48213184D01*
X104460506Y-48238680D01*
X104471252Y-48292702D01*
X104482367Y-48334184D01*
X104482367Y-48348578D01*
X104483407Y-48353807D01*
X104483407Y-48471192D01*
X104482367Y-48476420D01*
X104482367Y-48490816D01*
X104471251Y-48532299D01*
X104460506Y-48586319D01*
X104449946Y-48611812D01*
X104441828Y-48642110D01*
X104426144Y-48669274D01*
X104415586Y-48694765D01*
X104384992Y-48740552D01*
X104363512Y-48777757D01*
X104353329Y-48787939D01*
X104350369Y-48792370D01*
X104267370Y-48875369D01*
X104262939Y-48878329D01*
X104252757Y-48888512D01*
X104215552Y-48909992D01*
X104169765Y-48940586D01*
X104144274Y-48951144D01*
X104117110Y-48966828D01*
X104086812Y-48974946D01*
X104061319Y-48985506D01*
X104007299Y-48996251D01*
X103965816Y-49007367D01*
X103951420Y-49007367D01*
X103946192Y-49008407D01*
X103828808Y-49008407D01*
X103823580Y-49007367D01*
X103809184Y-49007367D01*
X103767701Y-48996251D01*
X103713680Y-48985506D01*
X103688184Y-48974945D01*
X103657890Y-48966828D01*
X103630728Y-48951146D01*
X103605234Y-48940586D01*
X103559440Y-48909988D01*
X103522243Y-48888512D01*
X103512062Y-48878331D01*
X103507629Y-48875369D01*
X103424630Y-48792370D01*
X103421667Y-48787936D01*
X103411488Y-48777757D01*
X103390014Y-48740563D01*
X103359413Y-48694765D01*
X103348851Y-48669268D01*
X103333172Y-48642110D01*
X103325055Y-48611819D01*
X103314493Y-48586319D01*
X103303746Y-48532292D01*
X103292633Y-48490816D01*
X103292633Y-48476420D01*
X103291593Y-48471192D01*
X103291593Y-48353807D01*
X103292633Y-48348578D01*
X103292633Y-48334184D01*
X103303745Y-48292710D01*
X103314493Y-48238680D01*
X103325056Y-48213177D01*
X103333172Y-48182890D01*
X103348850Y-48155734D01*
X103359413Y-48130234D01*
X103390018Y-48084429D01*
X103411488Y-48047243D01*
X103421665Y-48037065D01*
X103424630Y-48032629D01*
X103507629Y-47949630D01*
X103512065Y-47946665D01*
X103522243Y-47936488D01*
X103559429Y-47915018D01*
X103605234Y-47884413D01*
X103630734Y-47873850D01*
X103657890Y-47858172D01*
X103688177Y-47850056D01*
X103713680Y-47839493D01*
X103767709Y-47828746D01*
X103809184Y-47817633D01*
X103823579Y-47817633D01*
X103828808Y-47816593D01*
X103946192Y-47816593D01*
X103951420Y-47817633D01*
G37*
G36*
X99005864Y-45463703D02*
G01*
X99035230Y-45465146D01*
X99038845Y-45465865D01*
X99059289Y-45467205D01*
X99098789Y-45477789D01*
X99146804Y-45487340D01*
X99169465Y-45496726D01*
X99197976Y-45504366D01*
X99223535Y-45519123D01*
X99246198Y-45528510D01*
X99286908Y-45555711D01*
X99322319Y-45576156D01*
X99332010Y-45585847D01*
X99335648Y-45588278D01*
X99411721Y-45664351D01*
X99414151Y-45667988D01*
X99423844Y-45677681D01*
X99444290Y-45713095D01*
X99471489Y-45753801D01*
X99480874Y-45776460D01*
X99495634Y-45802024D01*
X99503274Y-45830538D01*
X99512659Y-45853195D01*
X99522208Y-45901203D01*
X99532795Y-45940711D01*
X99532795Y-45954419D01*
X99533648Y-45958708D01*
X99533648Y-46066291D01*
X99532795Y-46070579D01*
X99532795Y-46084289D01*
X99522208Y-46123799D01*
X99512659Y-46171804D01*
X99503275Y-46194458D01*
X99495634Y-46222976D01*
X99480873Y-46248542D01*
X99471489Y-46271198D01*
X99444295Y-46311897D01*
X99423844Y-46347319D01*
X99414149Y-46357013D01*
X99411721Y-46360648D01*
X99335648Y-46436721D01*
X99332013Y-46439149D01*
X99322319Y-46448844D01*
X99286897Y-46469295D01*
X99246198Y-46496489D01*
X99223542Y-46505873D01*
X99197976Y-46520634D01*
X99169458Y-46528275D01*
X99146804Y-46537659D01*
X99098803Y-46547207D01*
X99059289Y-46557795D01*
X99038837Y-46559135D01*
X99035230Y-46559853D01*
X99005891Y-46561294D01*
X98987500Y-46562500D01*
X98981361Y-46562500D01*
X97993639Y-46562500D01*
X97987500Y-46562500D01*
X97969109Y-46561294D01*
X97939769Y-46559853D01*
X97936160Y-46559135D01*
X97915711Y-46557795D01*
X97876199Y-46547207D01*
X97828195Y-46537659D01*
X97805538Y-46528274D01*
X97777024Y-46520634D01*
X97751460Y-46505874D01*
X97728801Y-46496489D01*
X97688095Y-46469290D01*
X97652681Y-46448844D01*
X97642988Y-46439151D01*
X97639351Y-46436721D01*
X97563278Y-46360648D01*
X97560847Y-46357010D01*
X97551156Y-46347319D01*
X97530711Y-46311908D01*
X97503510Y-46271198D01*
X97494123Y-46248535D01*
X97479366Y-46222976D01*
X97471726Y-46194465D01*
X97462340Y-46171804D01*
X97452789Y-46123791D01*
X97442205Y-46084289D01*
X97442205Y-46070579D01*
X97441352Y-46066291D01*
X97441352Y-45958708D01*
X97442205Y-45954419D01*
X97442205Y-45940711D01*
X97452788Y-45901211D01*
X97462340Y-45853195D01*
X97471727Y-45830531D01*
X97479366Y-45802024D01*
X97494121Y-45776466D01*
X97503510Y-45753801D01*
X97530715Y-45713084D01*
X97551156Y-45677681D01*
X97560845Y-45667991D01*
X97563278Y-45664351D01*
X97639351Y-45588278D01*
X97642991Y-45585845D01*
X97652681Y-45576156D01*
X97688084Y-45555715D01*
X97728801Y-45528510D01*
X97751466Y-45519121D01*
X97777024Y-45504366D01*
X97805531Y-45496727D01*
X97828195Y-45487340D01*
X97876213Y-45477788D01*
X97915711Y-45467205D01*
X97936153Y-45465865D01*
X97939769Y-45465146D01*
X97969137Y-45463703D01*
X97987500Y-45462500D01*
X98987500Y-45462500D01*
X99005864Y-45463703D01*
G37*
G36*
X102005864Y-45463703D02*
G01*
X102035230Y-45465146D01*
X102038845Y-45465865D01*
X102059289Y-45467205D01*
X102098789Y-45477789D01*
X102146804Y-45487340D01*
X102169465Y-45496726D01*
X102197976Y-45504366D01*
X102223535Y-45519123D01*
X102246198Y-45528510D01*
X102286908Y-45555711D01*
X102322319Y-45576156D01*
X102332010Y-45585847D01*
X102335648Y-45588278D01*
X102411721Y-45664351D01*
X102414151Y-45667988D01*
X102423844Y-45677681D01*
X102444290Y-45713095D01*
X102471489Y-45753801D01*
X102480874Y-45776460D01*
X102495634Y-45802024D01*
X102503274Y-45830538D01*
X102512659Y-45853195D01*
X102522208Y-45901203D01*
X102532795Y-45940711D01*
X102532795Y-45954419D01*
X102533648Y-45958708D01*
X102533648Y-46066291D01*
X102532795Y-46070579D01*
X102532795Y-46084289D01*
X102522208Y-46123799D01*
X102512659Y-46171804D01*
X102503275Y-46194458D01*
X102495634Y-46222976D01*
X102480873Y-46248542D01*
X102471489Y-46271198D01*
X102444295Y-46311897D01*
X102423844Y-46347319D01*
X102414149Y-46357013D01*
X102411721Y-46360648D01*
X102335648Y-46436721D01*
X102332013Y-46439149D01*
X102322319Y-46448844D01*
X102286897Y-46469295D01*
X102246198Y-46496489D01*
X102223542Y-46505873D01*
X102197976Y-46520634D01*
X102169458Y-46528275D01*
X102146804Y-46537659D01*
X102098803Y-46547207D01*
X102059289Y-46557795D01*
X102038837Y-46559135D01*
X102035230Y-46559853D01*
X102005891Y-46561294D01*
X101987500Y-46562500D01*
X101981361Y-46562500D01*
X100993639Y-46562500D01*
X100987500Y-46562500D01*
X100969109Y-46561294D01*
X100939769Y-46559853D01*
X100936160Y-46559135D01*
X100915711Y-46557795D01*
X100876199Y-46547207D01*
X100828195Y-46537659D01*
X100805538Y-46528274D01*
X100777024Y-46520634D01*
X100751460Y-46505874D01*
X100728801Y-46496489D01*
X100688095Y-46469290D01*
X100652681Y-46448844D01*
X100642988Y-46439151D01*
X100639351Y-46436721D01*
X100563278Y-46360648D01*
X100560847Y-46357010D01*
X100551156Y-46347319D01*
X100530711Y-46311908D01*
X100503510Y-46271198D01*
X100494123Y-46248535D01*
X100479366Y-46222976D01*
X100471726Y-46194465D01*
X100462340Y-46171804D01*
X100452789Y-46123791D01*
X100442205Y-46084289D01*
X100442205Y-46070579D01*
X100441352Y-46066291D01*
X100441352Y-45958708D01*
X100442205Y-45954419D01*
X100442205Y-45940711D01*
X100452788Y-45901211D01*
X100462340Y-45853195D01*
X100471727Y-45830531D01*
X100479366Y-45802024D01*
X100494121Y-45776466D01*
X100503510Y-45753801D01*
X100530715Y-45713084D01*
X100551156Y-45677681D01*
X100560845Y-45667991D01*
X100563278Y-45664351D01*
X100639351Y-45588278D01*
X100642991Y-45585845D01*
X100652681Y-45576156D01*
X100688084Y-45555715D01*
X100728801Y-45528510D01*
X100751466Y-45519121D01*
X100777024Y-45504366D01*
X100805531Y-45496727D01*
X100828195Y-45487340D01*
X100876213Y-45477788D01*
X100915711Y-45467205D01*
X100936153Y-45465865D01*
X100939769Y-45465146D01*
X100969137Y-45463703D01*
X100987500Y-45462500D01*
X101987500Y-45462500D01*
X102005864Y-45463703D01*
G37*
G36*
X106005864Y-45463703D02*
G01*
X106035230Y-45465146D01*
X106038845Y-45465865D01*
X106059289Y-45467205D01*
X106098789Y-45477789D01*
X106146804Y-45487340D01*
X106169465Y-45496726D01*
X106197976Y-45504366D01*
X106223535Y-45519123D01*
X106246198Y-45528510D01*
X106286908Y-45555711D01*
X106322319Y-45576156D01*
X106332010Y-45585847D01*
X106335648Y-45588278D01*
X106411721Y-45664351D01*
X106414151Y-45667988D01*
X106423844Y-45677681D01*
X106444290Y-45713095D01*
X106471489Y-45753801D01*
X106480874Y-45776460D01*
X106495634Y-45802024D01*
X106503274Y-45830538D01*
X106512659Y-45853195D01*
X106522208Y-45901203D01*
X106532795Y-45940711D01*
X106532795Y-45954419D01*
X106533648Y-45958708D01*
X106533648Y-46066291D01*
X106532795Y-46070579D01*
X106532795Y-46084289D01*
X106522208Y-46123799D01*
X106512659Y-46171804D01*
X106503275Y-46194458D01*
X106495634Y-46222976D01*
X106480873Y-46248542D01*
X106471489Y-46271198D01*
X106444295Y-46311897D01*
X106423844Y-46347319D01*
X106414149Y-46357013D01*
X106411721Y-46360648D01*
X106335648Y-46436721D01*
X106332013Y-46439149D01*
X106322319Y-46448844D01*
X106286897Y-46469295D01*
X106246198Y-46496489D01*
X106223542Y-46505873D01*
X106197976Y-46520634D01*
X106169458Y-46528275D01*
X106146804Y-46537659D01*
X106098803Y-46547207D01*
X106059289Y-46557795D01*
X106038837Y-46559135D01*
X106035230Y-46559853D01*
X106005891Y-46561294D01*
X105987500Y-46562500D01*
X105981361Y-46562500D01*
X104993639Y-46562500D01*
X104987500Y-46562500D01*
X104969109Y-46561294D01*
X104939769Y-46559853D01*
X104936160Y-46559135D01*
X104915711Y-46557795D01*
X104876199Y-46547207D01*
X104828195Y-46537659D01*
X104805538Y-46528274D01*
X104777024Y-46520634D01*
X104751460Y-46505874D01*
X104728801Y-46496489D01*
X104688095Y-46469290D01*
X104652681Y-46448844D01*
X104642988Y-46439151D01*
X104639351Y-46436721D01*
X104563278Y-46360648D01*
X104560847Y-46357010D01*
X104551156Y-46347319D01*
X104530711Y-46311908D01*
X104503510Y-46271198D01*
X104494123Y-46248535D01*
X104479366Y-46222976D01*
X104471726Y-46194465D01*
X104462340Y-46171804D01*
X104452789Y-46123791D01*
X104442205Y-46084289D01*
X104442205Y-46070579D01*
X104441352Y-46066291D01*
X104441352Y-45958708D01*
X104442205Y-45954419D01*
X104442205Y-45940711D01*
X104452788Y-45901211D01*
X104462340Y-45853195D01*
X104471727Y-45830531D01*
X104479366Y-45802024D01*
X104494121Y-45776466D01*
X104503510Y-45753801D01*
X104530715Y-45713084D01*
X104551156Y-45677681D01*
X104560845Y-45667991D01*
X104563278Y-45664351D01*
X104639351Y-45588278D01*
X104642991Y-45585845D01*
X104652681Y-45576156D01*
X104688084Y-45555715D01*
X104728801Y-45528510D01*
X104751466Y-45519121D01*
X104777024Y-45504366D01*
X104805531Y-45496727D01*
X104828195Y-45487340D01*
X104876213Y-45477788D01*
X104915711Y-45467205D01*
X104936153Y-45465865D01*
X104939769Y-45465146D01*
X104969137Y-45463703D01*
X104987500Y-45462500D01*
X105987500Y-45462500D01*
X106005864Y-45463703D01*
G37*
G36*
X160521812Y-32397304D02*
G01*
X160536273Y-32397304D01*
X160562761Y-32408275D01*
X160582345Y-32413523D01*
X160599905Y-32423661D01*
X160626393Y-32434633D01*
X160636616Y-32444856D01*
X160638377Y-32445873D01*
X160684126Y-32491622D01*
X160685142Y-32493382D01*
X160695367Y-32503607D01*
X160706339Y-32530097D01*
X160716476Y-32547654D01*
X160721723Y-32567236D01*
X160732696Y-32593727D01*
X160732696Y-32608186D01*
X160733222Y-32610150D01*
X160733222Y-32674849D01*
X160732696Y-32676812D01*
X160732696Y-32691273D01*
X160721722Y-32717765D01*
X160716476Y-32737345D01*
X160706341Y-32754899D01*
X160695367Y-32781393D01*
X160685140Y-32791619D01*
X160684126Y-32793377D01*
X160553557Y-32923947D01*
X160553557Y-33131053D01*
X160684126Y-33261622D01*
X160685142Y-33263382D01*
X160695367Y-33273607D01*
X160706339Y-33300097D01*
X160716476Y-33317654D01*
X160721723Y-33337236D01*
X160732696Y-33363727D01*
X160732696Y-33378186D01*
X160733222Y-33380150D01*
X160733222Y-33444849D01*
X160732696Y-33446812D01*
X160732696Y-33461273D01*
X160721722Y-33487765D01*
X160716476Y-33507345D01*
X160706341Y-33524899D01*
X160695367Y-33551393D01*
X160685140Y-33561619D01*
X160684126Y-33563377D01*
X160553557Y-33693947D01*
X160553557Y-33901053D01*
X160684126Y-34031622D01*
X160685142Y-34033382D01*
X160695367Y-34043607D01*
X160706339Y-34070097D01*
X160716476Y-34087654D01*
X160721723Y-34107236D01*
X160732696Y-34133727D01*
X160732696Y-34148186D01*
X160733222Y-34150150D01*
X160733222Y-34214849D01*
X160732696Y-34216812D01*
X160732696Y-34231273D01*
X160721722Y-34257765D01*
X160716476Y-34277345D01*
X160706341Y-34294899D01*
X160695367Y-34321393D01*
X160685140Y-34331619D01*
X160684126Y-34333377D01*
X160638377Y-34379126D01*
X160636619Y-34380140D01*
X160626393Y-34390367D01*
X160599899Y-34401341D01*
X160582345Y-34411476D01*
X160562765Y-34416722D01*
X160536273Y-34427696D01*
X160521812Y-34427696D01*
X160519849Y-34428222D01*
X160455151Y-34428222D01*
X160453188Y-34427696D01*
X160438727Y-34427696D01*
X160412235Y-34416722D01*
X160392654Y-34411476D01*
X160375097Y-34401339D01*
X160348607Y-34390367D01*
X160338382Y-34380142D01*
X160336622Y-34379126D01*
X160290873Y-34333377D01*
X160289856Y-34331616D01*
X160279633Y-34321393D01*
X160268661Y-34294905D01*
X160258523Y-34277345D01*
X160253275Y-34257761D01*
X160242304Y-34231273D01*
X160242304Y-34216812D01*
X160241778Y-34214849D01*
X160241778Y-34150150D01*
X160242304Y-34148186D01*
X160242304Y-34133727D01*
X160253274Y-34107240D01*
X160258523Y-34087654D01*
X160268662Y-34070091D01*
X160279633Y-34043607D01*
X160289855Y-34033384D01*
X160290873Y-34031622D01*
X160421443Y-33901053D01*
X160421443Y-33693947D01*
X160216053Y-33488557D01*
X160008947Y-33488557D01*
X159888377Y-33609126D01*
X159886619Y-33610140D01*
X159876393Y-33620367D01*
X159849899Y-33631341D01*
X159832345Y-33641476D01*
X159812765Y-33646722D01*
X159786273Y-33657696D01*
X159771812Y-33657696D01*
X159769849Y-33658222D01*
X159705151Y-33658222D01*
X159703188Y-33657696D01*
X159688727Y-33657696D01*
X159662235Y-33646722D01*
X159642654Y-33641476D01*
X159625097Y-33631339D01*
X159598607Y-33620367D01*
X159588382Y-33610142D01*
X159586622Y-33609126D01*
X159540873Y-33563377D01*
X159539856Y-33561616D01*
X159529633Y-33551393D01*
X159518661Y-33524905D01*
X159508523Y-33507345D01*
X159503275Y-33487761D01*
X159492304Y-33461273D01*
X159492304Y-33446812D01*
X159491778Y-33444849D01*
X159491778Y-33380150D01*
X159492304Y-33378186D01*
X159492304Y-33363727D01*
X159503274Y-33337240D01*
X159508523Y-33317654D01*
X159518662Y-33300091D01*
X159529633Y-33273607D01*
X159539855Y-33263384D01*
X159540873Y-33261622D01*
X159586622Y-33215873D01*
X159588384Y-33214855D01*
X159598607Y-33204633D01*
X159625091Y-33193662D01*
X159642654Y-33183523D01*
X159662240Y-33178275D01*
X159688727Y-33167304D01*
X159703188Y-33167304D01*
X159705151Y-33166778D01*
X159769849Y-33166778D01*
X159771812Y-33167304D01*
X159786273Y-33167304D01*
X159812761Y-33178275D01*
X159832345Y-33183523D01*
X159849905Y-33193661D01*
X159876393Y-33204633D01*
X159886616Y-33214856D01*
X159888377Y-33215873D01*
X160008947Y-33336443D01*
X160216053Y-33336443D01*
X160421443Y-33131053D01*
X160421443Y-32923947D01*
X160290873Y-32793377D01*
X160289856Y-32791616D01*
X160279633Y-32781393D01*
X160268661Y-32754905D01*
X160258523Y-32737345D01*
X160253275Y-32717761D01*
X160242304Y-32691273D01*
X160242304Y-32676812D01*
X160241778Y-32674849D01*
X160241778Y-32610150D01*
X160242304Y-32608186D01*
X160242304Y-32593727D01*
X160253274Y-32567240D01*
X160258523Y-32547654D01*
X160268662Y-32530091D01*
X160279633Y-32503607D01*
X160289855Y-32493384D01*
X160290873Y-32491622D01*
X160336622Y-32445873D01*
X160338384Y-32444855D01*
X160348607Y-32434633D01*
X160375091Y-32423662D01*
X160392654Y-32413523D01*
X160412240Y-32408275D01*
X160438727Y-32397304D01*
X160453188Y-32397304D01*
X160455151Y-32396778D01*
X160519849Y-32396778D01*
X160521812Y-32397304D01*
G37*
G36*
X161571812Y-32397304D02*
G01*
X161586273Y-32397304D01*
X161612761Y-32408275D01*
X161632345Y-32413523D01*
X161649905Y-32423661D01*
X161676393Y-32434633D01*
X161686616Y-32444856D01*
X161688377Y-32445873D01*
X161734126Y-32491622D01*
X161735142Y-32493382D01*
X161745367Y-32503607D01*
X161756339Y-32530097D01*
X161766476Y-32547654D01*
X161771723Y-32567236D01*
X161782696Y-32593727D01*
X161782696Y-32608186D01*
X161783222Y-32610150D01*
X161783222Y-32674849D01*
X161782696Y-32676812D01*
X161782696Y-32691273D01*
X161771722Y-32717765D01*
X161766476Y-32737345D01*
X161756341Y-32754899D01*
X161745367Y-32781393D01*
X161735140Y-32791619D01*
X161734126Y-32793377D01*
X161603557Y-32923947D01*
X161603557Y-33131053D01*
X161808947Y-33336443D01*
X162016053Y-33336443D01*
X162136622Y-33215873D01*
X162138384Y-33214855D01*
X162148607Y-33204633D01*
X162175091Y-33193662D01*
X162192654Y-33183523D01*
X162212240Y-33178275D01*
X162238727Y-33167304D01*
X162253188Y-33167304D01*
X162255151Y-33166778D01*
X162319849Y-33166778D01*
X162321812Y-33167304D01*
X162336273Y-33167304D01*
X162362761Y-33178275D01*
X162382345Y-33183523D01*
X162399905Y-33193661D01*
X162426393Y-33204633D01*
X162436616Y-33214856D01*
X162438377Y-33215873D01*
X162484126Y-33261622D01*
X162485142Y-33263382D01*
X162495367Y-33273607D01*
X162506339Y-33300097D01*
X162516476Y-33317654D01*
X162521723Y-33337236D01*
X162532696Y-33363727D01*
X162532696Y-33378186D01*
X162533222Y-33380150D01*
X162533222Y-33444849D01*
X162532696Y-33446812D01*
X162532696Y-33461273D01*
X162521722Y-33487765D01*
X162516476Y-33507345D01*
X162506341Y-33524899D01*
X162495367Y-33551393D01*
X162485140Y-33561619D01*
X162484126Y-33563377D01*
X162438377Y-33609126D01*
X162436619Y-33610140D01*
X162426393Y-33620367D01*
X162399899Y-33631341D01*
X162382345Y-33641476D01*
X162362765Y-33646722D01*
X162336273Y-33657696D01*
X162321812Y-33657696D01*
X162319849Y-33658222D01*
X162255151Y-33658222D01*
X162253188Y-33657696D01*
X162238727Y-33657696D01*
X162212235Y-33646722D01*
X162192654Y-33641476D01*
X162175097Y-33631339D01*
X162148607Y-33620367D01*
X162138382Y-33610142D01*
X162136622Y-33609126D01*
X162016053Y-33488557D01*
X161808947Y-33488557D01*
X161603557Y-33693947D01*
X161603557Y-33901053D01*
X161734126Y-34031622D01*
X161735142Y-34033382D01*
X161745367Y-34043607D01*
X161756339Y-34070097D01*
X161766476Y-34087654D01*
X161771723Y-34107236D01*
X161782696Y-34133727D01*
X161782696Y-34148186D01*
X161783222Y-34150150D01*
X161783222Y-34214849D01*
X161782696Y-34216812D01*
X161782696Y-34231273D01*
X161771722Y-34257765D01*
X161766476Y-34277345D01*
X161756341Y-34294899D01*
X161745367Y-34321393D01*
X161735140Y-34331619D01*
X161734126Y-34333377D01*
X161688377Y-34379126D01*
X161686619Y-34380140D01*
X161676393Y-34390367D01*
X161649899Y-34401341D01*
X161632345Y-34411476D01*
X161612765Y-34416722D01*
X161586273Y-34427696D01*
X161571812Y-34427696D01*
X161569849Y-34428222D01*
X161505151Y-34428222D01*
X161503188Y-34427696D01*
X161488727Y-34427696D01*
X161462235Y-34416722D01*
X161442654Y-34411476D01*
X161425097Y-34401339D01*
X161398607Y-34390367D01*
X161388382Y-34380142D01*
X161386622Y-34379126D01*
X161340873Y-34333377D01*
X161339856Y-34331616D01*
X161329633Y-34321393D01*
X161318661Y-34294905D01*
X161308523Y-34277345D01*
X161303275Y-34257761D01*
X161292304Y-34231273D01*
X161292304Y-34216812D01*
X161291778Y-34214849D01*
X161291778Y-34150150D01*
X161292304Y-34148186D01*
X161292304Y-34133727D01*
X161303274Y-34107240D01*
X161308523Y-34087654D01*
X161318662Y-34070091D01*
X161329633Y-34043607D01*
X161339855Y-34033384D01*
X161340873Y-34031622D01*
X161471443Y-33901053D01*
X161471443Y-33693947D01*
X161340873Y-33563377D01*
X161339856Y-33561616D01*
X161329633Y-33551393D01*
X161318661Y-33524905D01*
X161308523Y-33507345D01*
X161303275Y-33487761D01*
X161292304Y-33461273D01*
X161292304Y-33446812D01*
X161291778Y-33444849D01*
X161291778Y-33380150D01*
X161292304Y-33378186D01*
X161292304Y-33363727D01*
X161303274Y-33337240D01*
X161308523Y-33317654D01*
X161318662Y-33300091D01*
X161329633Y-33273607D01*
X161339855Y-33263384D01*
X161340873Y-33261622D01*
X161471443Y-33131053D01*
X161471443Y-32923947D01*
X161340873Y-32793377D01*
X161339856Y-32791616D01*
X161329633Y-32781393D01*
X161318661Y-32754905D01*
X161308523Y-32737345D01*
X161303275Y-32717761D01*
X161292304Y-32691273D01*
X161292304Y-32676812D01*
X161291778Y-32674849D01*
X161291778Y-32610150D01*
X161292304Y-32608186D01*
X161292304Y-32593727D01*
X161303274Y-32567240D01*
X161308523Y-32547654D01*
X161318662Y-32530091D01*
X161329633Y-32503607D01*
X161339855Y-32493384D01*
X161340873Y-32491622D01*
X161386622Y-32445873D01*
X161388384Y-32444855D01*
X161398607Y-32434633D01*
X161425091Y-32423662D01*
X161442654Y-32413523D01*
X161462240Y-32408275D01*
X161488727Y-32397304D01*
X161503188Y-32397304D01*
X161505151Y-32396778D01*
X161569849Y-32396778D01*
X161571812Y-32397304D01*
G37*
M02*
