%TF.GenerationSoftware,KiCad,Pcbnew,10.0.5*%
%TF.CreationDate,2026-08-31T14:20:30+05:30*%
%TF.ProjectId,AuraForge_50X,41757261-466f-4726-9765-5f3530582e6b,v1.0*%
%TF.SameCoordinates,Original*%
%TF.FileFunction,Copper,L3,Inr*%
%TF.FilePolarity,Positive*%
%FSLAX46Y46*%
G04 Gerber Fmt 4.6, Leading zero omitted, Abs format (unit mm)*
G04 Created by KiCad (PCBNEW 10.0.5) date 2026-08-31 14:20:30*
%MOMM*%
%LPD*%
G01*
G04 APERTURE LIST*
G04 Aperture macros list*
%AMRoundRect*
0 Rectangle with rounded corners*
0 $1 Rounding radius*
0 $2 $3 $4 $5 $6 $7 $8 $9 X,Y pos of 4 corners*
0 Add a 4 corners polygon primitive as box body*
4,1,4,$2,$3,$4,$5,$6,$7,$8,$9,$2,$3,0*
0 Add four circle primitives for the rounded corners*
1,1,$1+$1,$2,$3*
1,1,$1+$1,$4,$5*
1,1,$1+$1,$6,$7*
1,1,$1+$1,$8,$9*
0 Add four rect primitives between the rounded corners*
20,1,$1+$1,$2,$3,$4,$5,0*
20,1,$1+$1,$4,$5,$6,$7,0*
20,1,$1+$1,$6,$7,$8,$9,0*
20,1,$1+$1,$8,$9,$2,$3,0*%
G04 Aperture macros list end*
%TA.AperFunction,ComponentPad*%
%ADD10C,0.600000*%
%TD*%
%TA.AperFunction,ComponentPad*%
%ADD11O,1.200000X2.000000*%
%TD*%
%TA.AperFunction,ComponentPad*%
%ADD12O,1.200000X1.800000*%
%TD*%
%TA.AperFunction,ComponentPad*%
%ADD13C,0.400000*%
%TD*%
%TA.AperFunction,ComponentPad*%
%ADD14O,4.500000X2.000000*%
%TD*%
%TA.AperFunction,ComponentPad*%
%ADD15O,4.000000X1.800000*%
%TD*%
%TA.AperFunction,ComponentPad*%
%ADD16O,1.800000X4.000000*%
%TD*%
%TA.AperFunction,ComponentPad*%
%ADD17C,1.700000*%
%TD*%
%TA.AperFunction,ComponentPad*%
%ADD18RoundRect,0.250000X-1.050000X-1.050000X1.050000X-1.050000X1.050000X1.050000X-1.050000X1.050000X0*%
%TD*%
%TA.AperFunction,ComponentPad*%
%ADD19C,2.600000*%
%TD*%
%TA.AperFunction,ComponentPad*%
%ADD20C,1.200000*%
%TD*%
%TA.AperFunction,ComponentPad*%
%ADD21O,1.000000X2.000000*%
%TD*%
%TA.AperFunction,ViaPad*%
%ADD22C,1.000000*%
%TD*%
%TA.AperFunction,ViaPad*%
%ADD23C,0.800000*%
%TD*%
%TA.AperFunction,ViaPad*%
%ADD24C,0.600000*%
%TD*%
%TA.AperFunction,Conductor*%
%ADD25C,1.000000*%
%TD*%
%TA.AperFunction,Conductor*%
%ADD26C,0.250000*%
%TD*%
G04 APERTURE END LIST*
D10*
%TO.N,*%
%TO.C,J1*%
X12100000Y-72790000D03*
X17900000Y-72790000D03*
D11*
%TO.N,GND*%
X19330000Y-72290000D03*
D12*
X19330000Y-76470000D03*
X10670000Y-76470000D03*
D11*
X10670000Y-72290000D03*
%TD*%
D13*
%TO.N,GND*%
%TO.C,U2*%
X72730000Y-20000000D03*
X73480000Y-19230000D03*
X73480000Y-20000000D03*
X73480000Y-20770000D03*
X74530000Y-19230000D03*
X74530000Y-20000000D03*
X74530000Y-20770000D03*
X75280000Y-20000000D03*
%TD*%
D14*
%TO.N,Net-(D3-A)*%
%TO.C,J2*%
X46650000Y-69500000D03*
D15*
%TO.N,GND*%
X46650000Y-75500000D03*
D16*
X51350000Y-72500000D03*
%TD*%
D17*
%TO.N,/+BAT_3V7*%
%TO.C,J6*%
X7500000Y-48750000D03*
%TO.N,/BAT_NEG*%
X7500000Y-46250000D03*
%TD*%
D18*
%TO.N,/SPK_L_PLUS*%
%TO.C,J4*%
X66000000Y-74000000D03*
D19*
%TO.N,/SPK_L_MINUS*%
X71000000Y-74000000D03*
%TD*%
D18*
%TO.N,/SPK_R_PLUS*%
%TO.C,J5*%
X86000000Y-74000000D03*
D19*
%TO.N,/SPK_R_MINUS*%
X91000000Y-74000000D03*
%TD*%
D20*
%TO.N,*%
%TO.C,J3*%
X33000000Y-78600000D03*
X33000000Y-71600000D03*
D21*
%TO.N,/AUDIO_L*%
X30600000Y-77000000D03*
%TO.N,/AUDIO_R*%
X30600000Y-74000000D03*
%TO.N,/I2S_LRCK*%
X30600000Y-70000000D03*
%TO.N,GND*%
X35400000Y-69000000D03*
%TD*%
D22*
%TO.N,/+21V_BOOST*%
X77851500Y-42280000D03*
X68881281Y-46118719D03*
X66000000Y-51000000D03*
X80825000Y-25000000D03*
X84000000Y-36000000D03*
X67000000Y-46000000D03*
X83000000Y-26000000D03*
X84000000Y-22000000D03*
X53000000Y-64000000D03*
X69498500Y-42280000D03*
X75274000Y-16274000D03*
X84999999Y-45000001D03*
D23*
%TO.N,GND*%
X21000000Y-76000000D03*
X19000000Y-53000000D03*
X4000000Y-28000000D03*
X7000000Y-38000000D03*
X96000000Y-36000000D03*
X43000000Y-60000000D03*
X81000000Y-31000000D03*
X73830401Y-40955178D03*
X55000000Y-42000000D03*
X88000000Y-19000000D03*
X69000000Y-51000000D03*
X9000000Y-72000000D03*
X88000000Y-13000000D03*
X32000000Y-55000000D03*
X10000000Y-67000000D03*
X81000000Y-74000000D03*
X55000000Y-35000000D03*
X75000000Y-32000000D03*
X25000000Y-62000000D03*
X20000000Y-57000000D03*
X78880000Y-49720000D03*
X47000000Y-37000000D03*
X74000000Y-51000000D03*
X23000000Y-7000000D03*
X88000000Y-24000000D03*
X46000000Y-76000000D03*
X98000000Y-34000000D03*
X9000000Y-77000000D03*
X62000000Y-74000000D03*
X37000000Y-2000000D03*
X19000000Y-36000000D03*
X47000000Y-25000000D03*
X34970000Y-53970000D03*
X71000000Y-33000000D03*
X46000000Y-15000000D03*
X36000000Y-38000000D03*
X69000000Y-28000000D03*
X55000000Y-49000000D03*
X20290000Y-21710000D03*
X19000000Y-2000000D03*
X62000000Y-68000000D03*
X81000000Y-69000000D03*
X67000000Y-47150003D03*
X17000000Y-63000000D03*
X21000000Y-36000000D03*
X47000000Y-73000000D03*
X81000000Y-43000000D03*
X21000000Y-53000000D03*
X29000000Y-41000000D03*
X20000000Y-60000000D03*
X75629999Y-43484357D03*
X71927099Y-40886117D03*
X38000000Y-55000000D03*
X56225000Y-42000000D03*
X7000000Y-20000000D03*
X76000000Y-52000000D03*
X22000000Y-69000000D03*
X7000000Y-16000000D03*
X62000000Y-30000000D03*
X65000000Y-43000000D03*
X78880000Y-49720000D03*
X21000000Y-72000000D03*
X70816736Y-18978307D03*
X52000000Y-73000000D03*
X83000000Y-50000000D03*
X67000000Y-14000000D03*
X65000000Y-40000000D03*
D24*
%TO.N,Net-(U1-GVDD)*%
X73020000Y-49720000D03*
X62000000Y-36000000D03*
%TO.N,Net-(U1-RINP)*%
X71000000Y-48000000D03*
X59000000Y-39000000D03*
%TO.N,/AUDIO_L*%
X54000000Y-46000000D03*
X32000000Y-77000000D03*
%TO.N,Net-(U1-LINP)*%
X74000000Y-52000000D03*
X62000000Y-51000000D03*
D22*
%TO.N,/SPK_R_PLUS*%
X78000000Y-77000000D03*
X89000000Y-77000000D03*
X83000000Y-77000000D03*
X97000000Y-58000000D03*
D24*
%TO.N,Net-(U2-ILIM)*%
X70000000Y-26000000D03*
X70000000Y-18050000D03*
D22*
%TO.N,Net-(U1-OUTNR)*%
X81000000Y-61000000D03*
X74000000Y-47000000D03*
X76000000Y-58000000D03*
%TO.N,/SPK_R_MINUS*%
X91000000Y-71000000D03*
X78000000Y-66000000D03*
D24*
%TO.N,Net-(U1-BSNR)*%
X78672182Y-48227818D03*
X77275000Y-55000000D03*
%TO.N,Net-(U1-AVCC)*%
X79000000Y-36900000D03*
X67000000Y-39000000D03*
%TO.N,Net-(U1-BSPL)*%
X67000000Y-54000000D03*
X70000000Y-55000000D03*
D22*
%TO.N,Net-(U1-OUTPL)*%
X74000000Y-60000000D03*
X75000000Y-39000000D03*
X74000000Y-55000000D03*
D23*
%TO.N,/V_LDO_IN*%
X27000000Y-51000000D03*
X25000000Y-50000000D03*
D24*
%TO.N,/I2S_BCK*%
X33000000Y-32000000D03*
X39000000Y-47000000D03*
D23*
%TO.N,/+3V3_SYS*%
X32000000Y-45000000D03*
X20670000Y-31330000D03*
X6000000Y-25000000D03*
X32000000Y-37000000D03*
D22*
%TO.N,/+BAT_3V7*%
X67000000Y-17000000D03*
X77295034Y-20156222D03*
X75235714Y-23294067D03*
X46775000Y-19225000D03*
X27000000Y-59000000D03*
X71877998Y-21826413D03*
X43000000Y-44000000D03*
X27000000Y-59000000D03*
X37000000Y-60000000D03*
X43000000Y-49000000D03*
X47000000Y-21000000D03*
X10999999Y-52999999D03*
X27000000Y-59000000D03*
X50000000Y-21000000D03*
%TO.N,Net-(U1-OUTPR)*%
X71325000Y-44456893D03*
X92000000Y-61000000D03*
X85000000Y-55000000D03*
D24*
%TO.N,Net-(U5-VCC)*%
X12649998Y-48000000D03*
X11000000Y-56000000D03*
D22*
%TO.N,Net-(C12-Pad2)*%
X68000000Y-19000000D03*
X74250063Y-21825342D03*
%TO.N,Net-(U6-D12-Pad1)*%
X19730000Y-51200000D03*
X19730000Y-45000000D03*
X19730000Y-45000000D03*
D24*
%TO.N,Net-(U5-OD)*%
X16000000Y-49000000D03*
X21980000Y-51200000D03*
%TO.N,Net-(U5-OC)*%
X17000000Y-46000000D03*
X22030000Y-44800000D03*
D23*
%TO.N,/BAT_NEG*%
X17000000Y-45000000D03*
X21029997Y-44800000D03*
D24*
%TO.N,Net-(U1-RINN)*%
X71719999Y-51719999D03*
X62000000Y-49000000D03*
%TO.N,Net-(U3-D2)*%
X14000000Y-63000000D03*
X25640000Y-64910000D03*
%TO.N,Net-(U1-LINN)*%
X75000000Y-52000000D03*
X61000000Y-51000000D03*
%TO.N,Net-(U5-CS)*%
X17000000Y-48000000D03*
X16000000Y-52000000D03*
%TO.N,Net-(U1-FAULTZ)*%
X70500000Y-45500000D03*
X70000000Y-40000000D03*
D22*
%TO.N,Net-(U1-OUTNL)*%
X61000000Y-62000000D03*
X76000000Y-38000000D03*
D24*
%TO.N,Net-(U3-D1)*%
X19000000Y-65000000D03*
X12325000Y-65000000D03*
D22*
%TO.N,/SPK_L_PLUS*%
X66000000Y-71000000D03*
X66085411Y-65170822D03*
%TO.N,/SPK_L_MINUS*%
X57000000Y-58000000D03*
X68000000Y-77000000D03*
D24*
%TO.N,/ESP_IO0*%
X41000000Y-30000000D03*
X40000000Y-26000000D03*
%TO.N,/I2S_LRCK*%
X31000000Y-33000000D03*
X30600000Y-64400000D03*
%TO.N,/ESP_RXD0*%
X41000000Y-20000000D03*
X29000000Y-33000000D03*
%TO.N,/ESP_TXD0*%
X40000000Y-7000000D03*
X26000000Y-30000000D03*
D23*
%TO.N,/+5V_VBUS*%
X14000000Y-58000000D03*
X16550000Y-58000000D03*
%TO.N,Net-(D3-A)*%
X52000000Y-60000000D03*
D24*
%TO.N,Net-(U2-FSW)*%
X65000000Y-29000000D03*
X68000000Y-21000000D03*
%TD*%
%TO.N,/+21V_BOOST*%
D25*
X61775000Y-53000000D02*
X63775000Y-51000000D01*
X84000000Y-22000000D02*
X82825000Y-20825000D01*
X77851500Y-42280000D02*
X69498500Y-42280000D01*
X67000000Y-46000000D02*
X68762562Y-46000000D01*
X54000000Y-63000000D02*
X54000000Y-54000000D01*
X84999999Y-45000001D02*
X84000000Y-44000002D01*
X83000000Y-26000000D02*
X81825000Y-26000000D01*
X54000000Y-54000000D02*
X55000000Y-53000000D01*
X82825000Y-20825000D02*
X80825000Y-20825000D01*
X81825000Y-26000000D02*
X80825000Y-25000000D01*
X76274000Y-16274000D02*
X75274000Y-16274000D01*
X84000000Y-44000002D02*
X84000000Y-36000000D01*
X80825000Y-20825000D02*
X76274000Y-16274000D01*
X63775000Y-51000000D02*
X66000000Y-51000000D01*
X53000000Y-64000000D02*
X54000000Y-63000000D01*
X80825000Y-25000000D02*
X80825000Y-20825000D01*
X55000000Y-53000000D02*
X61775000Y-53000000D01*
X68762562Y-46000000D02*
X68881281Y-46118719D01*
%TO.N,/+BAT_3V7*%
X25000000Y-55000000D02*
X27000000Y-57000000D01*
X42000000Y-58000000D02*
X39000000Y-58000000D01*
X49000000Y-21000000D02*
X50850001Y-21000000D01*
X42000000Y-50000000D02*
X42000000Y-58000000D01*
X13000000Y-55000000D02*
X25000000Y-55000000D01*
X13000000Y-55000000D02*
X10999999Y-52999999D01*
X50000000Y-21000000D02*
X50850001Y-21000000D01*
X48550000Y-21000000D02*
X50850001Y-21000000D01*
X47000000Y-21000000D02*
X49000000Y-21000000D01*
X43000000Y-49000000D02*
X42000000Y-50000000D01*
X36000000Y-59000000D02*
X37000000Y-60000000D01*
X45000000Y-44000000D02*
X43000000Y-44000000D01*
X46775000Y-19225000D02*
X48550000Y-21000000D01*
X27000000Y-57000000D02*
X27000000Y-59000000D01*
X39000000Y-58000000D02*
X37000000Y-60000000D01*
X50000000Y-21000000D02*
X50850001Y-21000000D01*
X49000000Y-40000000D02*
X49000000Y-21000000D01*
X45000000Y-44000000D02*
X49000000Y-40000000D01*
X27000000Y-59000000D02*
X36000000Y-59000000D01*
%TO.N,Net-(C12-Pad2)*%
X70100000Y-21100000D02*
X70100000Y-21455635D01*
X70100000Y-21455635D02*
X70000000Y-21555635D01*
X70000000Y-24000000D02*
X72075405Y-24000000D01*
X72075405Y-24000000D02*
X74250063Y-21825342D01*
X69000000Y-20000000D02*
X70100000Y-21100000D01*
X68555635Y-19000000D02*
X69000000Y-19444365D01*
X69000000Y-19444365D02*
X69000000Y-20000000D01*
X68000000Y-19000000D02*
X68555635Y-19000000D01*
X70000000Y-21555635D02*
X70000000Y-24000000D01*
%TO.N,Net-(U6-D12-Pad1)*%
D26*
X19800000Y-51200000D02*
X20000000Y-51000000D01*
X20000000Y-51000000D02*
X20000000Y-51100000D01*
X20000000Y-44900000D02*
X20000000Y-51000000D01*
X19730000Y-45000000D02*
X19730000Y-44800000D01*
X19730000Y-51200000D02*
X19800000Y-51200000D01*
%TD*%
M02*
