%TF.GenerationSoftware,KiCad,Pcbnew,10.0.5*%
%TF.CreationDate,2026-08-29T15:15:06+05:30*%
%TF.ProjectId,AuraForge_50X,41757261-466f-4726-9765-5f3530582e6b,v1.0*%
%TF.SameCoordinates,Original*%
%TF.FileFunction,Soldermask,Bot*%
%TF.FilePolarity,Negative*%
%FSLAX46Y46*%
G04 Gerber Fmt 4.6, Leading zero omitted, Abs format (unit mm)*
G04 Created by KiCad (PCBNEW 10.0.5) date 2026-08-29 15:15:06*
%MOMM*%
%LPD*%
G01*
G04 APERTURE LIST*
G04 APERTURE END LIST*
G36*
X33188685Y-77977989D02*
G01*
X33306408Y-78026751D01*
X33412356Y-78097543D01*
X33502457Y-78187644D01*
X33573249Y-78293592D01*
X33622011Y-78411315D01*
X33646870Y-78536289D01*
X33646870Y-78663711D01*
X33622011Y-78788685D01*
X33573249Y-78906408D01*
X33502457Y-79012356D01*
X33412356Y-79102457D01*
X33306408Y-79173249D01*
X33188685Y-79222011D01*
X33063711Y-79246870D01*
X32936289Y-79246870D01*
X32811315Y-79222011D01*
X32693592Y-79173249D01*
X32587644Y-79102457D01*
X32497543Y-79012356D01*
X32426751Y-78906408D01*
X32377989Y-78788685D01*
X32353130Y-78663711D01*
X32353130Y-78536289D01*
X32377989Y-78411315D01*
X32426751Y-78293592D01*
X32497543Y-78187644D01*
X32587644Y-78097543D01*
X32693592Y-78026751D01*
X32811315Y-77977989D01*
X32936289Y-77953130D01*
X33063711Y-77953130D01*
X33188685Y-77977989D01*
G37*
G36*
X30658080Y-75954705D02*
G01*
X30671789Y-75954705D01*
X30711290Y-75965289D01*
X30759304Y-75974840D01*
X30781965Y-75984226D01*
X30810476Y-75991866D01*
X30836035Y-76006623D01*
X30858698Y-76016010D01*
X30899408Y-76043211D01*
X30934819Y-76063656D01*
X30944510Y-76073347D01*
X30948148Y-76075778D01*
X31024221Y-76151851D01*
X31026651Y-76155488D01*
X31036344Y-76165181D01*
X31056790Y-76200595D01*
X31083989Y-76241301D01*
X31093374Y-76263960D01*
X31108134Y-76289524D01*
X31115774Y-76318038D01*
X31125159Y-76340695D01*
X31134707Y-76388699D01*
X31145295Y-76428211D01*
X31146635Y-76448660D01*
X31147353Y-76452269D01*
X31148794Y-76481611D01*
X31150000Y-76500000D01*
X31150000Y-77500000D01*
X31148794Y-77518391D01*
X31147353Y-77547730D01*
X31146635Y-77551337D01*
X31145295Y-77571789D01*
X31134707Y-77611303D01*
X31125159Y-77659304D01*
X31115775Y-77681958D01*
X31108134Y-77710476D01*
X31093373Y-77736042D01*
X31083989Y-77758698D01*
X31056795Y-77799397D01*
X31036344Y-77834819D01*
X31026649Y-77844513D01*
X31024221Y-77848148D01*
X30948148Y-77924221D01*
X30944513Y-77926649D01*
X30934819Y-77936344D01*
X30899397Y-77956795D01*
X30858698Y-77983989D01*
X30836042Y-77993373D01*
X30810476Y-78008134D01*
X30781958Y-78015775D01*
X30759304Y-78025159D01*
X30711298Y-78034708D01*
X30671789Y-78045295D01*
X30658080Y-78045295D01*
X30653792Y-78046148D01*
X30546208Y-78046148D01*
X30541920Y-78045295D01*
X30528211Y-78045295D01*
X30488703Y-78034708D01*
X30440695Y-78025159D01*
X30418038Y-78015774D01*
X30389524Y-78008134D01*
X30363960Y-77993374D01*
X30341301Y-77983989D01*
X30300595Y-77956790D01*
X30265181Y-77936344D01*
X30255488Y-77926651D01*
X30251851Y-77924221D01*
X30175778Y-77848148D01*
X30173347Y-77844510D01*
X30163656Y-77834819D01*
X30143211Y-77799408D01*
X30116010Y-77758698D01*
X30106623Y-77736035D01*
X30091866Y-77710476D01*
X30084226Y-77681965D01*
X30074840Y-77659304D01*
X30065289Y-77611289D01*
X30054705Y-77571789D01*
X30053365Y-77551345D01*
X30052646Y-77547730D01*
X30051203Y-77518364D01*
X30050000Y-77500000D01*
X30050000Y-76500000D01*
X30051203Y-76481638D01*
X30052646Y-76452269D01*
X30053365Y-76448653D01*
X30054705Y-76428211D01*
X30065288Y-76388713D01*
X30074840Y-76340695D01*
X30084227Y-76318031D01*
X30091866Y-76289524D01*
X30106621Y-76263966D01*
X30116010Y-76241301D01*
X30143215Y-76200584D01*
X30163656Y-76165181D01*
X30173345Y-76155491D01*
X30175778Y-76151851D01*
X30251851Y-76075778D01*
X30255491Y-76073345D01*
X30265181Y-76063656D01*
X30300584Y-76043215D01*
X30341301Y-76016010D01*
X30363966Y-76006621D01*
X30389524Y-75991866D01*
X30418031Y-75984227D01*
X30440695Y-75974840D01*
X30488711Y-75965288D01*
X30528211Y-75954705D01*
X30541920Y-75954705D01*
X30546208Y-75953852D01*
X30653792Y-75953852D01*
X30658080Y-75954705D01*
G37*
G36*
X10858685Y-75547989D02*
G01*
X10976408Y-75596751D01*
X11082356Y-75667543D01*
X11172457Y-75757644D01*
X11243249Y-75863592D01*
X11292011Y-75981315D01*
X11316870Y-76106289D01*
X11320000Y-76170000D01*
X11320000Y-76770000D01*
X11316870Y-76833711D01*
X11292011Y-76958685D01*
X11243249Y-77076408D01*
X11172457Y-77182356D01*
X11082356Y-77272457D01*
X10976408Y-77343249D01*
X10858685Y-77392011D01*
X10733711Y-77416870D01*
X10606289Y-77416870D01*
X10481315Y-77392011D01*
X10363592Y-77343249D01*
X10257644Y-77272457D01*
X10167543Y-77182356D01*
X10096751Y-77076408D01*
X10047989Y-76958685D01*
X10023130Y-76833711D01*
X10020000Y-76770000D01*
X10020000Y-76170000D01*
X10023130Y-76106289D01*
X10047989Y-75981315D01*
X10096751Y-75863592D01*
X10167543Y-75757644D01*
X10257644Y-75667543D01*
X10363592Y-75596751D01*
X10481315Y-75547989D01*
X10606289Y-75523130D01*
X10733711Y-75523130D01*
X10858685Y-75547989D01*
G37*
G36*
X19518685Y-75547989D02*
G01*
X19636408Y-75596751D01*
X19742356Y-75667543D01*
X19832457Y-75757644D01*
X19903249Y-75863592D01*
X19952011Y-75981315D01*
X19976870Y-76106289D01*
X19980000Y-76170000D01*
X19980000Y-76770000D01*
X19976870Y-76833711D01*
X19952011Y-76958685D01*
X19903249Y-77076408D01*
X19832457Y-77182356D01*
X19742356Y-77272457D01*
X19636408Y-77343249D01*
X19518685Y-77392011D01*
X19393711Y-77416870D01*
X19266289Y-77416870D01*
X19141315Y-77392011D01*
X19023592Y-77343249D01*
X18917644Y-77272457D01*
X18827543Y-77182356D01*
X18756751Y-77076408D01*
X18707989Y-76958685D01*
X18683130Y-76833711D01*
X18680000Y-76770000D01*
X18680000Y-76170000D01*
X18683130Y-76106289D01*
X18707989Y-75981315D01*
X18756751Y-75863592D01*
X18827543Y-75757644D01*
X18917644Y-75667543D01*
X19023592Y-75596751D01*
X19141315Y-75547989D01*
X19266289Y-75523130D01*
X19393711Y-75523130D01*
X19518685Y-75547989D01*
G37*
G36*
X47769561Y-74550961D02*
G01*
X47819601Y-74552927D01*
X47824110Y-74553641D01*
X47843116Y-74554575D01*
X47894345Y-74564765D01*
X47971595Y-74577000D01*
X47996442Y-74585073D01*
X48025770Y-74590907D01*
X48067155Y-74608049D01*
X48113252Y-74623027D01*
X48156435Y-74645030D01*
X48197827Y-74662175D01*
X48222695Y-74678791D01*
X48245969Y-74690650D01*
X48309225Y-74736608D01*
X48352674Y-74765640D01*
X48361948Y-74774914D01*
X48366472Y-74778201D01*
X48471798Y-74883527D01*
X48475084Y-74888050D01*
X48484360Y-74897326D01*
X48513394Y-74940779D01*
X48559349Y-75004030D01*
X48571206Y-75027301D01*
X48587825Y-75052173D01*
X48604972Y-75093569D01*
X48626972Y-75136747D01*
X48641947Y-75182836D01*
X48659093Y-75224230D01*
X48664927Y-75253562D01*
X48672999Y-75278404D01*
X48685233Y-75355646D01*
X48695425Y-75406884D01*
X48695425Y-75419993D01*
X48696301Y-75425524D01*
X48696301Y-75574475D01*
X48695425Y-75580005D01*
X48695425Y-75593116D01*
X48685232Y-75644357D01*
X48672999Y-75721595D01*
X48664928Y-75746434D01*
X48659093Y-75775770D01*
X48641945Y-75817167D01*
X48626972Y-75863252D01*
X48604974Y-75906424D01*
X48587825Y-75947827D01*
X48571204Y-75972701D01*
X48559349Y-75995969D01*
X48513402Y-76059208D01*
X48484360Y-76102674D01*
X48475081Y-76111952D01*
X48471798Y-76116472D01*
X48366472Y-76221798D01*
X48361952Y-76225081D01*
X48352674Y-76234360D01*
X48309208Y-76263402D01*
X48245969Y-76309349D01*
X48222701Y-76321204D01*
X48197827Y-76337825D01*
X48156424Y-76354974D01*
X48113252Y-76376972D01*
X48067167Y-76391945D01*
X48025770Y-76409093D01*
X47996434Y-76414928D01*
X47971595Y-76422999D01*
X47894369Y-76435230D01*
X47843116Y-76445425D01*
X47824101Y-76446359D01*
X47819601Y-76447072D01*
X47769594Y-76449037D01*
X47750000Y-76450000D01*
X47745098Y-76450000D01*
X45554902Y-76450000D01*
X45550000Y-76450000D01*
X45530406Y-76449037D01*
X45480398Y-76447072D01*
X45475897Y-76446359D01*
X45456884Y-76445425D01*
X45405634Y-76435230D01*
X45328404Y-76422999D01*
X45303562Y-76414927D01*
X45274230Y-76409093D01*
X45232836Y-76391947D01*
X45186747Y-76376972D01*
X45143569Y-76354972D01*
X45102173Y-76337825D01*
X45077301Y-76321206D01*
X45054030Y-76309349D01*
X44990779Y-76263394D01*
X44947326Y-76234360D01*
X44938050Y-76225084D01*
X44933527Y-76221798D01*
X44828201Y-76116472D01*
X44824914Y-76111948D01*
X44815640Y-76102674D01*
X44786608Y-76059225D01*
X44740650Y-75995969D01*
X44728791Y-75972695D01*
X44712175Y-75947827D01*
X44695030Y-75906435D01*
X44673027Y-75863252D01*
X44658049Y-75817155D01*
X44640907Y-75775770D01*
X44635073Y-75746442D01*
X44627000Y-75721595D01*
X44614765Y-75644345D01*
X44604575Y-75593116D01*
X44604575Y-75580005D01*
X44603699Y-75574475D01*
X44603699Y-75425524D01*
X44604575Y-75419993D01*
X44604575Y-75406884D01*
X44614764Y-75355658D01*
X44627000Y-75278404D01*
X44635073Y-75253554D01*
X44640907Y-75224230D01*
X44658048Y-75182847D01*
X44673027Y-75136747D01*
X44695032Y-75093559D01*
X44712175Y-75052173D01*
X44728789Y-75027307D01*
X44740650Y-75004030D01*
X44786617Y-74940762D01*
X44815640Y-74897326D01*
X44824911Y-74888054D01*
X44828201Y-74883527D01*
X44933527Y-74778201D01*
X44938054Y-74774911D01*
X44947326Y-74765640D01*
X44990762Y-74736617D01*
X45054030Y-74690650D01*
X45077307Y-74678789D01*
X45102173Y-74662175D01*
X45143559Y-74645032D01*
X45186747Y-74623027D01*
X45232847Y-74608048D01*
X45274230Y-74590907D01*
X45303554Y-74585073D01*
X45328404Y-74577000D01*
X45405658Y-74564764D01*
X45456884Y-74554575D01*
X45475888Y-74553641D01*
X45480398Y-74552927D01*
X45530440Y-74550961D01*
X45550000Y-74550000D01*
X47750000Y-74550000D01*
X47769561Y-74550961D01*
G37*
G36*
X67118685Y-72657969D02*
G01*
X67164007Y-72677980D01*
X67195879Y-72690549D01*
X67200627Y-72694149D01*
X67219541Y-72702501D01*
X67244334Y-72727294D01*
X67260469Y-72739530D01*
X67272704Y-72755664D01*
X67297499Y-72780459D01*
X67305850Y-72799373D01*
X67309450Y-72804120D01*
X67322013Y-72835979D01*
X67342031Y-72881315D01*
X67350000Y-72950000D01*
X67350000Y-75050000D01*
X67342031Y-75118685D01*
X67322010Y-75164028D01*
X67309450Y-75195879D01*
X67305851Y-75200624D01*
X67297499Y-75219541D01*
X67272700Y-75244339D01*
X67260469Y-75260469D01*
X67244339Y-75272700D01*
X67219541Y-75297499D01*
X67200624Y-75305851D01*
X67195879Y-75309450D01*
X67164028Y-75322010D01*
X67118685Y-75342031D01*
X67050000Y-75350000D01*
X64950000Y-75350000D01*
X64881315Y-75342031D01*
X64835979Y-75322013D01*
X64804120Y-75309450D01*
X64799373Y-75305850D01*
X64780459Y-75297499D01*
X64755664Y-75272704D01*
X64739530Y-75260469D01*
X64727294Y-75244334D01*
X64702501Y-75219541D01*
X64694149Y-75200627D01*
X64690549Y-75195879D01*
X64677980Y-75164007D01*
X64657969Y-75118685D01*
X64650000Y-75050000D01*
X64650000Y-72950000D01*
X64657969Y-72881315D01*
X64677976Y-72836001D01*
X64690549Y-72804120D01*
X64694150Y-72799370D01*
X64702501Y-72780459D01*
X64727291Y-72755668D01*
X64739530Y-72739530D01*
X64755668Y-72727291D01*
X64780459Y-72702501D01*
X64799370Y-72694150D01*
X64804120Y-72690549D01*
X64836001Y-72677976D01*
X64881315Y-72657969D01*
X64950000Y-72650000D01*
X67050000Y-72650000D01*
X67118685Y-72657969D01*
G37*
G36*
X87118685Y-72657969D02*
G01*
X87164007Y-72677980D01*
X87195879Y-72690549D01*
X87200627Y-72694149D01*
X87219541Y-72702501D01*
X87244334Y-72727294D01*
X87260469Y-72739530D01*
X87272704Y-72755664D01*
X87297499Y-72780459D01*
X87305850Y-72799373D01*
X87309450Y-72804120D01*
X87322013Y-72835979D01*
X87342031Y-72881315D01*
X87350000Y-72950000D01*
X87350000Y-75050000D01*
X87342031Y-75118685D01*
X87322010Y-75164028D01*
X87309450Y-75195879D01*
X87305851Y-75200624D01*
X87297499Y-75219541D01*
X87272700Y-75244339D01*
X87260469Y-75260469D01*
X87244339Y-75272700D01*
X87219541Y-75297499D01*
X87200624Y-75305851D01*
X87195879Y-75309450D01*
X87164028Y-75322010D01*
X87118685Y-75342031D01*
X87050000Y-75350000D01*
X84950000Y-75350000D01*
X84881315Y-75342031D01*
X84835979Y-75322013D01*
X84804120Y-75309450D01*
X84799373Y-75305850D01*
X84780459Y-75297499D01*
X84755664Y-75272704D01*
X84739530Y-75260469D01*
X84727294Y-75244334D01*
X84702501Y-75219541D01*
X84694149Y-75200627D01*
X84690549Y-75195879D01*
X84677980Y-75164007D01*
X84657969Y-75118685D01*
X84650000Y-75050000D01*
X84650000Y-72950000D01*
X84657969Y-72881315D01*
X84677976Y-72836001D01*
X84690549Y-72804120D01*
X84694150Y-72799370D01*
X84702501Y-72780459D01*
X84727291Y-72755668D01*
X84739530Y-72739530D01*
X84755668Y-72727291D01*
X84780459Y-72702501D01*
X84799370Y-72694150D01*
X84804120Y-72690549D01*
X84836001Y-72677976D01*
X84881315Y-72657969D01*
X84950000Y-72650000D01*
X87050000Y-72650000D01*
X87118685Y-72657969D01*
G37*
G36*
X71315151Y-72687301D02*
G01*
X71516623Y-72752763D01*
X71705373Y-72848936D01*
X71876755Y-72973452D01*
X72026548Y-73123245D01*
X72151064Y-73294627D01*
X72247237Y-73483377D01*
X72312699Y-73684849D01*
X72345838Y-73894080D01*
X72345838Y-74105920D01*
X72312699Y-74315151D01*
X72247237Y-74516623D01*
X72151064Y-74705373D01*
X72026548Y-74876755D01*
X71876755Y-75026548D01*
X71705373Y-75151064D01*
X71516623Y-75247237D01*
X71315151Y-75312699D01*
X71105920Y-75345838D01*
X70894080Y-75345838D01*
X70684849Y-75312699D01*
X70483377Y-75247237D01*
X70294627Y-75151064D01*
X70123245Y-75026548D01*
X69973452Y-74876755D01*
X69848936Y-74705373D01*
X69752763Y-74516623D01*
X69687301Y-74315151D01*
X69654162Y-74105920D01*
X69654162Y-73894080D01*
X69687301Y-73684849D01*
X69752763Y-73483377D01*
X69848936Y-73294627D01*
X69973452Y-73123245D01*
X70123245Y-72973452D01*
X70294627Y-72848936D01*
X70483377Y-72752763D01*
X70684849Y-72687301D01*
X70894080Y-72654162D01*
X71105920Y-72654162D01*
X71315151Y-72687301D01*
G37*
G36*
X91315151Y-72687301D02*
G01*
X91516623Y-72752763D01*
X91705373Y-72848936D01*
X91876755Y-72973452D01*
X92026548Y-73123245D01*
X92151064Y-73294627D01*
X92247237Y-73483377D01*
X92312699Y-73684849D01*
X92345838Y-73894080D01*
X92345838Y-74105920D01*
X92312699Y-74315151D01*
X92247237Y-74516623D01*
X92151064Y-74705373D01*
X92026548Y-74876755D01*
X91876755Y-75026548D01*
X91705373Y-75151064D01*
X91516623Y-75247237D01*
X91315151Y-75312699D01*
X91105920Y-75345838D01*
X90894080Y-75345838D01*
X90684849Y-75312699D01*
X90483377Y-75247237D01*
X90294627Y-75151064D01*
X90123245Y-75026548D01*
X89973452Y-74876755D01*
X89848936Y-74705373D01*
X89752763Y-74516623D01*
X89687301Y-74315151D01*
X89654162Y-74105920D01*
X89654162Y-73894080D01*
X89687301Y-73684849D01*
X89752763Y-73483377D01*
X89848936Y-73294627D01*
X89973452Y-73123245D01*
X90123245Y-72973452D01*
X90294627Y-72848936D01*
X90483377Y-72752763D01*
X90684849Y-72687301D01*
X90894080Y-72654162D01*
X91105920Y-72654162D01*
X91315151Y-72687301D01*
G37*
G36*
X30658080Y-72954705D02*
G01*
X30671789Y-72954705D01*
X30711290Y-72965289D01*
X30759304Y-72974840D01*
X30781965Y-72984226D01*
X30810476Y-72991866D01*
X30836035Y-73006623D01*
X30858698Y-73016010D01*
X30899408Y-73043211D01*
X30934819Y-73063656D01*
X30944510Y-73073347D01*
X30948148Y-73075778D01*
X31024221Y-73151851D01*
X31026651Y-73155488D01*
X31036344Y-73165181D01*
X31056790Y-73200595D01*
X31083989Y-73241301D01*
X31093374Y-73263960D01*
X31108134Y-73289524D01*
X31115774Y-73318038D01*
X31125159Y-73340695D01*
X31134707Y-73388699D01*
X31145295Y-73428211D01*
X31146635Y-73448660D01*
X31147353Y-73452269D01*
X31148794Y-73481611D01*
X31150000Y-73500000D01*
X31150000Y-74500000D01*
X31148794Y-74518391D01*
X31147353Y-74547730D01*
X31146635Y-74551337D01*
X31145295Y-74571789D01*
X31134707Y-74611303D01*
X31125159Y-74659304D01*
X31115775Y-74681958D01*
X31108134Y-74710476D01*
X31093373Y-74736042D01*
X31083989Y-74758698D01*
X31056795Y-74799397D01*
X31036344Y-74834819D01*
X31026649Y-74844513D01*
X31024221Y-74848148D01*
X30948148Y-74924221D01*
X30944513Y-74926649D01*
X30934819Y-74936344D01*
X30899397Y-74956795D01*
X30858698Y-74983989D01*
X30836042Y-74993373D01*
X30810476Y-75008134D01*
X30781958Y-75015775D01*
X30759304Y-75025159D01*
X30711298Y-75034708D01*
X30671789Y-75045295D01*
X30658080Y-75045295D01*
X30653792Y-75046148D01*
X30546208Y-75046148D01*
X30541920Y-75045295D01*
X30528211Y-75045295D01*
X30488703Y-75034708D01*
X30440695Y-75025159D01*
X30418038Y-75015774D01*
X30389524Y-75008134D01*
X30363960Y-74993374D01*
X30341301Y-74983989D01*
X30300595Y-74956790D01*
X30265181Y-74936344D01*
X30255488Y-74926651D01*
X30251851Y-74924221D01*
X30175778Y-74848148D01*
X30173347Y-74844510D01*
X30163656Y-74834819D01*
X30143211Y-74799408D01*
X30116010Y-74758698D01*
X30106623Y-74736035D01*
X30091866Y-74710476D01*
X30084226Y-74681965D01*
X30074840Y-74659304D01*
X30065289Y-74611289D01*
X30054705Y-74571789D01*
X30053365Y-74551345D01*
X30052646Y-74547730D01*
X30051203Y-74518364D01*
X30050000Y-74500000D01*
X30050000Y-73500000D01*
X30051203Y-73481638D01*
X30052646Y-73452269D01*
X30053365Y-73448653D01*
X30054705Y-73428211D01*
X30065288Y-73388713D01*
X30074840Y-73340695D01*
X30084227Y-73318031D01*
X30091866Y-73289524D01*
X30106621Y-73263966D01*
X30116010Y-73241301D01*
X30143215Y-73200584D01*
X30163656Y-73165181D01*
X30173345Y-73155491D01*
X30175778Y-73151851D01*
X30251851Y-73075778D01*
X30255491Y-73073345D01*
X30265181Y-73063656D01*
X30300584Y-73043215D01*
X30341301Y-73016010D01*
X30363966Y-73006621D01*
X30389524Y-72991866D01*
X30418031Y-72984227D01*
X30440695Y-72974840D01*
X30488711Y-72965288D01*
X30528211Y-72954705D01*
X30541920Y-72954705D01*
X30546208Y-72953852D01*
X30653792Y-72953852D01*
X30658080Y-72954705D01*
G37*
G36*
X51430007Y-70454575D02*
G01*
X51443116Y-70454575D01*
X51494343Y-70464764D01*
X51571595Y-70477000D01*
X51596442Y-70485073D01*
X51625770Y-70490907D01*
X51667155Y-70508049D01*
X51713252Y-70523027D01*
X51756435Y-70545030D01*
X51797827Y-70562175D01*
X51822695Y-70578791D01*
X51845969Y-70590650D01*
X51909225Y-70636608D01*
X51952674Y-70665640D01*
X51961948Y-70674914D01*
X51966472Y-70678201D01*
X52071798Y-70783527D01*
X52075084Y-70788050D01*
X52084360Y-70797326D01*
X52113394Y-70840779D01*
X52159349Y-70904030D01*
X52171206Y-70927301D01*
X52187825Y-70952173D01*
X52204972Y-70993569D01*
X52226972Y-71036747D01*
X52241947Y-71082836D01*
X52259093Y-71124230D01*
X52264927Y-71153562D01*
X52272999Y-71178404D01*
X52285230Y-71255634D01*
X52295425Y-71306884D01*
X52296359Y-71325897D01*
X52297072Y-71330398D01*
X52299037Y-71380409D01*
X52300000Y-71400000D01*
X52300000Y-73600000D01*
X52299037Y-73619594D01*
X52297072Y-73669601D01*
X52296359Y-73674101D01*
X52295425Y-73693116D01*
X52285230Y-73744369D01*
X52272999Y-73821595D01*
X52264928Y-73846434D01*
X52259093Y-73875770D01*
X52241945Y-73917167D01*
X52226972Y-73963252D01*
X52204974Y-74006424D01*
X52187825Y-74047827D01*
X52171204Y-74072701D01*
X52159349Y-74095969D01*
X52113402Y-74159208D01*
X52084360Y-74202674D01*
X52075081Y-74211952D01*
X52071798Y-74216472D01*
X51966472Y-74321798D01*
X51961952Y-74325081D01*
X51952674Y-74334360D01*
X51909208Y-74363402D01*
X51845969Y-74409349D01*
X51822701Y-74421204D01*
X51797827Y-74437825D01*
X51756424Y-74454974D01*
X51713252Y-74476972D01*
X51667167Y-74491945D01*
X51625770Y-74509093D01*
X51596434Y-74514928D01*
X51571595Y-74522999D01*
X51494355Y-74535232D01*
X51443116Y-74545425D01*
X51430007Y-74545425D01*
X51424476Y-74546301D01*
X51275524Y-74546301D01*
X51269993Y-74545425D01*
X51256884Y-74545425D01*
X51205646Y-74535233D01*
X51128404Y-74522999D01*
X51103562Y-74514927D01*
X51074230Y-74509093D01*
X51032836Y-74491947D01*
X50986747Y-74476972D01*
X50943569Y-74454972D01*
X50902173Y-74437825D01*
X50877301Y-74421206D01*
X50854030Y-74409349D01*
X50790779Y-74363394D01*
X50747326Y-74334360D01*
X50738050Y-74325084D01*
X50733527Y-74321798D01*
X50628201Y-74216472D01*
X50624914Y-74211948D01*
X50615640Y-74202674D01*
X50586608Y-74159225D01*
X50540650Y-74095969D01*
X50528791Y-74072695D01*
X50512175Y-74047827D01*
X50495030Y-74006435D01*
X50473027Y-73963252D01*
X50458049Y-73917155D01*
X50440907Y-73875770D01*
X50435073Y-73846442D01*
X50427000Y-73821595D01*
X50414765Y-73744345D01*
X50404575Y-73693116D01*
X50403641Y-73674110D01*
X50402927Y-73669601D01*
X50400961Y-73619561D01*
X50400000Y-73600000D01*
X50400000Y-71400000D01*
X50400960Y-71380442D01*
X50402927Y-71330398D01*
X50403641Y-71325888D01*
X50404575Y-71306884D01*
X50414764Y-71255658D01*
X50427000Y-71178404D01*
X50435073Y-71153554D01*
X50440907Y-71124230D01*
X50458048Y-71082847D01*
X50473027Y-71036747D01*
X50495032Y-70993559D01*
X50512175Y-70952173D01*
X50528789Y-70927307D01*
X50540650Y-70904030D01*
X50586617Y-70840762D01*
X50615640Y-70797326D01*
X50624911Y-70788054D01*
X50628201Y-70783527D01*
X50733527Y-70678201D01*
X50738054Y-70674911D01*
X50747326Y-70665640D01*
X50790762Y-70636617D01*
X50854030Y-70590650D01*
X50877307Y-70578789D01*
X50902173Y-70562175D01*
X50943559Y-70545032D01*
X50986747Y-70523027D01*
X51032847Y-70508048D01*
X51074230Y-70490907D01*
X51103554Y-70485073D01*
X51128404Y-70477000D01*
X51205658Y-70464764D01*
X51256884Y-70454575D01*
X51269993Y-70454575D01*
X51275524Y-70453699D01*
X51424476Y-70453699D01*
X51430007Y-70454575D01*
G37*
G36*
X10858685Y-71267989D02*
G01*
X10976408Y-71316751D01*
X11082356Y-71387543D01*
X11172457Y-71477644D01*
X11243249Y-71583592D01*
X11292011Y-71701315D01*
X11316870Y-71826289D01*
X11320000Y-71890000D01*
X11320000Y-71896141D01*
X11320000Y-72710086D01*
X11356491Y-72719864D01*
X11293215Y-72872627D01*
X11292011Y-72878685D01*
X11243249Y-72996408D01*
X11172457Y-73102356D01*
X11082356Y-73192457D01*
X10976408Y-73263249D01*
X10858685Y-73312011D01*
X10733711Y-73336870D01*
X10606289Y-73336870D01*
X10481315Y-73312011D01*
X10363592Y-73263249D01*
X10257644Y-73192457D01*
X10167543Y-73102356D01*
X10096751Y-72996408D01*
X10047989Y-72878685D01*
X10023130Y-72753711D01*
X10020000Y-72690000D01*
X10020000Y-71890000D01*
X10023130Y-71826289D01*
X10047989Y-71701315D01*
X10096751Y-71583592D01*
X10167543Y-71477644D01*
X10257644Y-71387543D01*
X10363592Y-71316751D01*
X10481315Y-71267989D01*
X10606289Y-71243130D01*
X10733711Y-71243130D01*
X10858685Y-71267989D01*
G37*
G36*
X19518685Y-71267989D02*
G01*
X19636408Y-71316751D01*
X19742356Y-71387543D01*
X19832457Y-71477644D01*
X19903249Y-71583592D01*
X19952011Y-71701315D01*
X19976870Y-71826289D01*
X19980000Y-71890000D01*
X19980000Y-72690000D01*
X19976870Y-72753711D01*
X19952011Y-72878685D01*
X19903249Y-72996408D01*
X19832457Y-73102356D01*
X19742356Y-73192457D01*
X19636408Y-73263249D01*
X19518685Y-73312011D01*
X19393711Y-73336870D01*
X19266289Y-73336870D01*
X19141315Y-73312011D01*
X19023592Y-73263249D01*
X18917644Y-73192457D01*
X18827543Y-73102356D01*
X18756751Y-72996408D01*
X18707989Y-72878685D01*
X18706785Y-72872633D01*
X18643506Y-72719864D01*
X18680000Y-72710086D01*
X18680000Y-71896141D01*
X18680000Y-71890000D01*
X18683130Y-71826289D01*
X18707989Y-71701315D01*
X18756751Y-71583592D01*
X18827543Y-71477644D01*
X18917644Y-71387543D01*
X19023592Y-71316751D01*
X19141315Y-71267989D01*
X19266289Y-71243130D01*
X19393711Y-71243130D01*
X19518685Y-71267989D01*
G37*
G36*
X12233939Y-72466642D02*
G01*
X12313067Y-72512326D01*
X12377674Y-72576933D01*
X12423358Y-72656061D01*
X12447006Y-72744316D01*
X12447006Y-72835684D01*
X12423358Y-72923939D01*
X12377674Y-73003067D01*
X12313067Y-73067674D01*
X12233939Y-73113358D01*
X12145684Y-73137006D01*
X12054316Y-73137006D01*
X11966061Y-73113358D01*
X11886933Y-73067674D01*
X11822326Y-73003067D01*
X11776642Y-72923939D01*
X11752994Y-72835684D01*
X11752994Y-72827425D01*
X11729910Y-72741276D01*
X11774504Y-72664038D01*
X11776642Y-72656061D01*
X11822326Y-72576933D01*
X11886933Y-72512326D01*
X11966061Y-72466642D01*
X12054316Y-72442994D01*
X12145684Y-72442994D01*
X12233939Y-72466642D01*
G37*
G36*
X18033939Y-72466642D02*
G01*
X18113067Y-72512326D01*
X18177674Y-72576933D01*
X18223358Y-72656061D01*
X18225496Y-72664042D01*
X18270086Y-72741272D01*
X18247006Y-72827412D01*
X18247006Y-72835684D01*
X18223358Y-72923939D01*
X18177674Y-73003067D01*
X18113067Y-73067674D01*
X18033939Y-73113358D01*
X17945684Y-73137006D01*
X17854316Y-73137006D01*
X17766061Y-73113358D01*
X17686933Y-73067674D01*
X17622326Y-73003067D01*
X17576642Y-72923939D01*
X17552994Y-72835684D01*
X17552994Y-72744316D01*
X17576642Y-72656061D01*
X17622326Y-72576933D01*
X17686933Y-72512326D01*
X17766061Y-72466642D01*
X17854316Y-72442994D01*
X17945684Y-72442994D01*
X18033939Y-72466642D01*
G37*
G36*
X33188685Y-70977989D02*
G01*
X33306408Y-71026751D01*
X33412356Y-71097543D01*
X33502457Y-71187644D01*
X33573249Y-71293592D01*
X33622011Y-71411315D01*
X33646870Y-71536289D01*
X33646870Y-71663711D01*
X33622011Y-71788685D01*
X33573249Y-71906408D01*
X33502457Y-72012356D01*
X33412356Y-72102457D01*
X33306408Y-72173249D01*
X33188685Y-72222011D01*
X33063711Y-72246870D01*
X32936289Y-72246870D01*
X32811315Y-72222011D01*
X32693592Y-72173249D01*
X32587644Y-72102457D01*
X32497543Y-72012356D01*
X32426751Y-71906408D01*
X32377989Y-71788685D01*
X32353130Y-71663711D01*
X32353130Y-71536289D01*
X32377989Y-71411315D01*
X32426751Y-71293592D01*
X32497543Y-71187644D01*
X32587644Y-71097543D01*
X32693592Y-71026751D01*
X32811315Y-70977989D01*
X32936289Y-70953130D01*
X33063711Y-70953130D01*
X33188685Y-70977989D01*
G37*
G36*
X30658080Y-68954705D02*
G01*
X30671789Y-68954705D01*
X30711290Y-68965289D01*
X30759304Y-68974840D01*
X30781965Y-68984226D01*
X30810476Y-68991866D01*
X30836035Y-69006623D01*
X30858698Y-69016010D01*
X30899408Y-69043211D01*
X30934819Y-69063656D01*
X30944510Y-69073347D01*
X30948148Y-69075778D01*
X31024221Y-69151851D01*
X31026651Y-69155488D01*
X31036344Y-69165181D01*
X31056790Y-69200595D01*
X31083989Y-69241301D01*
X31093374Y-69263960D01*
X31108134Y-69289524D01*
X31115774Y-69318038D01*
X31125159Y-69340695D01*
X31134707Y-69388699D01*
X31145295Y-69428211D01*
X31146635Y-69448660D01*
X31147353Y-69452269D01*
X31148794Y-69481611D01*
X31150000Y-69500000D01*
X31150000Y-70500000D01*
X31148794Y-70518391D01*
X31147353Y-70547730D01*
X31146635Y-70551337D01*
X31145295Y-70571789D01*
X31134707Y-70611303D01*
X31125159Y-70659304D01*
X31115775Y-70681958D01*
X31108134Y-70710476D01*
X31093373Y-70736042D01*
X31083989Y-70758698D01*
X31056795Y-70799397D01*
X31036344Y-70834819D01*
X31026649Y-70844513D01*
X31024221Y-70848148D01*
X30948148Y-70924221D01*
X30944513Y-70926649D01*
X30934819Y-70936344D01*
X30899397Y-70956795D01*
X30858698Y-70983989D01*
X30836042Y-70993373D01*
X30810476Y-71008134D01*
X30781958Y-71015775D01*
X30759304Y-71025159D01*
X30711298Y-71034708D01*
X30671789Y-71045295D01*
X30658080Y-71045295D01*
X30653792Y-71046148D01*
X30546208Y-71046148D01*
X30541920Y-71045295D01*
X30528211Y-71045295D01*
X30488703Y-71034708D01*
X30440695Y-71025159D01*
X30418038Y-71015774D01*
X30389524Y-71008134D01*
X30363960Y-70993374D01*
X30341301Y-70983989D01*
X30300595Y-70956790D01*
X30265181Y-70936344D01*
X30255488Y-70926651D01*
X30251851Y-70924221D01*
X30175778Y-70848148D01*
X30173347Y-70844510D01*
X30163656Y-70834819D01*
X30143211Y-70799408D01*
X30116010Y-70758698D01*
X30106623Y-70736035D01*
X30091866Y-70710476D01*
X30084226Y-70681965D01*
X30074840Y-70659304D01*
X30065289Y-70611289D01*
X30054705Y-70571789D01*
X30053365Y-70551345D01*
X30052646Y-70547730D01*
X30051203Y-70518364D01*
X30050000Y-70500000D01*
X30050000Y-69500000D01*
X30051203Y-69481638D01*
X30052646Y-69452269D01*
X30053365Y-69448653D01*
X30054705Y-69428211D01*
X30065288Y-69388713D01*
X30074840Y-69340695D01*
X30084227Y-69318031D01*
X30091866Y-69289524D01*
X30106621Y-69263966D01*
X30116010Y-69241301D01*
X30143215Y-69200584D01*
X30163656Y-69165181D01*
X30173345Y-69155491D01*
X30175778Y-69151851D01*
X30251851Y-69075778D01*
X30255491Y-69073345D01*
X30265181Y-69063656D01*
X30300584Y-69043215D01*
X30341301Y-69016010D01*
X30363966Y-69006621D01*
X30389524Y-68991866D01*
X30418031Y-68984227D01*
X30440695Y-68974840D01*
X30488711Y-68965288D01*
X30528211Y-68954705D01*
X30541920Y-68954705D01*
X30546208Y-68953852D01*
X30653792Y-68953852D01*
X30658080Y-68954705D01*
G37*
G36*
X47919561Y-68450960D02*
G01*
X47977448Y-68453235D01*
X47982662Y-68454060D01*
X48002918Y-68455056D01*
X48057517Y-68465916D01*
X48144935Y-68479762D01*
X48173052Y-68488898D01*
X48204799Y-68495213D01*
X48249603Y-68513771D01*
X48301521Y-68530641D01*
X48350156Y-68555421D01*
X48394967Y-68573983D01*
X48421886Y-68591969D01*
X48448217Y-68605386D01*
X48519796Y-68657391D01*
X48566113Y-68688339D01*
X48575997Y-68698223D01*
X48581421Y-68702164D01*
X48697835Y-68818578D01*
X48701775Y-68824001D01*
X48711661Y-68833887D01*
X48742612Y-68880208D01*
X48794613Y-68951782D01*
X48808027Y-68978110D01*
X48826017Y-69005033D01*
X48844580Y-69049848D01*
X48869358Y-69098478D01*
X48886225Y-69150388D01*
X48904787Y-69195201D01*
X48911102Y-69226952D01*
X48920237Y-69255064D01*
X48934081Y-69342472D01*
X48944944Y-69397082D01*
X48944944Y-69411054D01*
X48945993Y-69417678D01*
X48945993Y-69582321D01*
X48944944Y-69588944D01*
X48944944Y-69602918D01*
X48934080Y-69657531D01*
X48920237Y-69744935D01*
X48911103Y-69773044D01*
X48904787Y-69804799D01*
X48886223Y-69849614D01*
X48869358Y-69901521D01*
X48844582Y-69950146D01*
X48826017Y-69994967D01*
X48808025Y-70021892D01*
X48794613Y-70048217D01*
X48742620Y-70119779D01*
X48711661Y-70166113D01*
X48701772Y-70176001D01*
X48697835Y-70181421D01*
X48581421Y-70297835D01*
X48576001Y-70301772D01*
X48566113Y-70311661D01*
X48519779Y-70342620D01*
X48448217Y-70394613D01*
X48421892Y-70408025D01*
X48394967Y-70426017D01*
X48350146Y-70444582D01*
X48301521Y-70469358D01*
X48249614Y-70486223D01*
X48204799Y-70504787D01*
X48173044Y-70511103D01*
X48144935Y-70520237D01*
X48057541Y-70534078D01*
X48002918Y-70544944D01*
X47982653Y-70545939D01*
X47977448Y-70546764D01*
X47919591Y-70549037D01*
X47900000Y-70550000D01*
X47895099Y-70550000D01*
X45404901Y-70550000D01*
X45400000Y-70550000D01*
X45380409Y-70549037D01*
X45322551Y-70546764D01*
X45317344Y-70545939D01*
X45297082Y-70544944D01*
X45242462Y-70534079D01*
X45155064Y-70520237D01*
X45126952Y-70511102D01*
X45095201Y-70504787D01*
X45050388Y-70486225D01*
X44998478Y-70469358D01*
X44949848Y-70444580D01*
X44905033Y-70426017D01*
X44878110Y-70408027D01*
X44851782Y-70394613D01*
X44780208Y-70342612D01*
X44733887Y-70311661D01*
X44724001Y-70301775D01*
X44718578Y-70297835D01*
X44602164Y-70181421D01*
X44598223Y-70175997D01*
X44588339Y-70166113D01*
X44557391Y-70119796D01*
X44505386Y-70048217D01*
X44491969Y-70021886D01*
X44473983Y-69994967D01*
X44455421Y-69950156D01*
X44430641Y-69901521D01*
X44413771Y-69849603D01*
X44395213Y-69804799D01*
X44388898Y-69773052D01*
X44379762Y-69744935D01*
X44365917Y-69657519D01*
X44355056Y-69602918D01*
X44355056Y-69588944D01*
X44354007Y-69582321D01*
X44354007Y-69417678D01*
X44355056Y-69411054D01*
X44355056Y-69397082D01*
X44365916Y-69342484D01*
X44379762Y-69255064D01*
X44388898Y-69226944D01*
X44395213Y-69195201D01*
X44413770Y-69150399D01*
X44430641Y-69098478D01*
X44455424Y-69049838D01*
X44473983Y-69005033D01*
X44491967Y-68978116D01*
X44505386Y-68951782D01*
X44557399Y-68880191D01*
X44588339Y-68833887D01*
X44598221Y-68824004D01*
X44602164Y-68818578D01*
X44718578Y-68702164D01*
X44724004Y-68698221D01*
X44733887Y-68688339D01*
X44780191Y-68657399D01*
X44851782Y-68605386D01*
X44878116Y-68591967D01*
X44905033Y-68573983D01*
X44949838Y-68555424D01*
X44998478Y-68530641D01*
X45050399Y-68513770D01*
X45095201Y-68495213D01*
X45126944Y-68488898D01*
X45155064Y-68479762D01*
X45242486Y-68465915D01*
X45297082Y-68455056D01*
X45317335Y-68454061D01*
X45322551Y-68453235D01*
X45380439Y-68450960D01*
X45400000Y-68450000D01*
X47900000Y-68450000D01*
X47919561Y-68450960D01*
G37*
G36*
X35458080Y-67954705D02*
G01*
X35471789Y-67954705D01*
X35511290Y-67965289D01*
X35559304Y-67974840D01*
X35581965Y-67984226D01*
X35610476Y-67991866D01*
X35636035Y-68006623D01*
X35658698Y-68016010D01*
X35699408Y-68043211D01*
X35734819Y-68063656D01*
X35744510Y-68073347D01*
X35748148Y-68075778D01*
X35824221Y-68151851D01*
X35826651Y-68155488D01*
X35836344Y-68165181D01*
X35856790Y-68200595D01*
X35883989Y-68241301D01*
X35893374Y-68263960D01*
X35908134Y-68289524D01*
X35915774Y-68318038D01*
X35925159Y-68340695D01*
X35934707Y-68388699D01*
X35945295Y-68428211D01*
X35946635Y-68448660D01*
X35947353Y-68452269D01*
X35948794Y-68481611D01*
X35950000Y-68500000D01*
X35950000Y-69500000D01*
X35948794Y-69518391D01*
X35947353Y-69547730D01*
X35946635Y-69551337D01*
X35945295Y-69571789D01*
X35934707Y-69611303D01*
X35925159Y-69659304D01*
X35915775Y-69681958D01*
X35908134Y-69710476D01*
X35893373Y-69736042D01*
X35883989Y-69758698D01*
X35856795Y-69799397D01*
X35836344Y-69834819D01*
X35826649Y-69844513D01*
X35824221Y-69848148D01*
X35748148Y-69924221D01*
X35744513Y-69926649D01*
X35734819Y-69936344D01*
X35699397Y-69956795D01*
X35658698Y-69983989D01*
X35636042Y-69993373D01*
X35610476Y-70008134D01*
X35581958Y-70015775D01*
X35559304Y-70025159D01*
X35511298Y-70034708D01*
X35471789Y-70045295D01*
X35458080Y-70045295D01*
X35453792Y-70046148D01*
X35346208Y-70046148D01*
X35341920Y-70045295D01*
X35328211Y-70045295D01*
X35288703Y-70034708D01*
X35240695Y-70025159D01*
X35218038Y-70015774D01*
X35189524Y-70008134D01*
X35163960Y-69993374D01*
X35141301Y-69983989D01*
X35100595Y-69956790D01*
X35065181Y-69936344D01*
X35055488Y-69926651D01*
X35051851Y-69924221D01*
X34975778Y-69848148D01*
X34973347Y-69844510D01*
X34963656Y-69834819D01*
X34943211Y-69799408D01*
X34916010Y-69758698D01*
X34906623Y-69736035D01*
X34891866Y-69710476D01*
X34884226Y-69681965D01*
X34874840Y-69659304D01*
X34865289Y-69611289D01*
X34854705Y-69571789D01*
X34853365Y-69551345D01*
X34852646Y-69547730D01*
X34851203Y-69518364D01*
X34850000Y-69500000D01*
X34850000Y-68500000D01*
X34851203Y-68481638D01*
X34852646Y-68452269D01*
X34853365Y-68448653D01*
X34854705Y-68428211D01*
X34865288Y-68388713D01*
X34874840Y-68340695D01*
X34884227Y-68318031D01*
X34891866Y-68289524D01*
X34906621Y-68263966D01*
X34916010Y-68241301D01*
X34943215Y-68200584D01*
X34963656Y-68165181D01*
X34973345Y-68155491D01*
X34975778Y-68151851D01*
X35051851Y-68075778D01*
X35055491Y-68073345D01*
X35065181Y-68063656D01*
X35100584Y-68043215D01*
X35141301Y-68016010D01*
X35163966Y-68006621D01*
X35189524Y-67991866D01*
X35218031Y-67984227D01*
X35240695Y-67974840D01*
X35288711Y-67965288D01*
X35328211Y-67954705D01*
X35341920Y-67954705D01*
X35346208Y-67953852D01*
X35453792Y-67953852D01*
X35458080Y-67954705D01*
G37*
G36*
X7575534Y-47854334D02*
G01*
X7588215Y-47854334D01*
X7637771Y-47864191D01*
X7709917Y-47875618D01*
X7733122Y-47883157D01*
X7761256Y-47888754D01*
X7800953Y-47905197D01*
X7844124Y-47919224D01*
X7884568Y-47939831D01*
X7924257Y-47956271D01*
X7948099Y-47972202D01*
X7969843Y-47983281D01*
X8028947Y-48026222D01*
X8070954Y-48054291D01*
X8079919Y-48063256D01*
X8084001Y-48066222D01*
X8183777Y-48165998D01*
X8186742Y-48170079D01*
X8195709Y-48179046D01*
X8223780Y-48221057D01*
X8266718Y-48280156D01*
X8277795Y-48301897D01*
X8293729Y-48325743D01*
X8310170Y-48365436D01*
X8330775Y-48405875D01*
X8344799Y-48449038D01*
X8361246Y-48488744D01*
X8366843Y-48516882D01*
X8374381Y-48540082D01*
X8385807Y-48612220D01*
X8395666Y-48661785D01*
X8395666Y-48674465D01*
X8396455Y-48679447D01*
X8396455Y-48820552D01*
X8395666Y-48825533D01*
X8395666Y-48838215D01*
X8385806Y-48887783D01*
X8374381Y-48959917D01*
X8366843Y-48983115D01*
X8361246Y-49011256D01*
X8344798Y-49050964D01*
X8330775Y-49094124D01*
X8310172Y-49134558D01*
X8293729Y-49174257D01*
X8277793Y-49198106D01*
X8266718Y-49219843D01*
X8223788Y-49278930D01*
X8195709Y-49320954D01*
X8186739Y-49329923D01*
X8183777Y-49334001D01*
X8084001Y-49433777D01*
X8079923Y-49436739D01*
X8070954Y-49445709D01*
X8028930Y-49473788D01*
X7969843Y-49516718D01*
X7948106Y-49527793D01*
X7924257Y-49543729D01*
X7884558Y-49560172D01*
X7844124Y-49580775D01*
X7800964Y-49594798D01*
X7761256Y-49611246D01*
X7733115Y-49616843D01*
X7709917Y-49624381D01*
X7637783Y-49635806D01*
X7588215Y-49645666D01*
X7575533Y-49645666D01*
X7570552Y-49646455D01*
X7429448Y-49646455D01*
X7424467Y-49645666D01*
X7411785Y-49645666D01*
X7362218Y-49635806D01*
X7290082Y-49624381D01*
X7266882Y-49616843D01*
X7238744Y-49611246D01*
X7199038Y-49594799D01*
X7155875Y-49580775D01*
X7115436Y-49560170D01*
X7075743Y-49543729D01*
X7051897Y-49527795D01*
X7030156Y-49516718D01*
X6971057Y-49473780D01*
X6929046Y-49445709D01*
X6920079Y-49436742D01*
X6915998Y-49433777D01*
X6816222Y-49334001D01*
X6813256Y-49329919D01*
X6804291Y-49320954D01*
X6776222Y-49278947D01*
X6733281Y-49219843D01*
X6722202Y-49198099D01*
X6706271Y-49174257D01*
X6689831Y-49134568D01*
X6669224Y-49094124D01*
X6655197Y-49050953D01*
X6638754Y-49011256D01*
X6633157Y-48983122D01*
X6625618Y-48959917D01*
X6614191Y-48887771D01*
X6604334Y-48838215D01*
X6604334Y-48825533D01*
X6603545Y-48820552D01*
X6603545Y-48679447D01*
X6604334Y-48674465D01*
X6604334Y-48661785D01*
X6614190Y-48612232D01*
X6625618Y-48540082D01*
X6633158Y-48516874D01*
X6638754Y-48488744D01*
X6655195Y-48449049D01*
X6669224Y-48405875D01*
X6689833Y-48365425D01*
X6706271Y-48325743D01*
X6722200Y-48301903D01*
X6733281Y-48280156D01*
X6776231Y-48221040D01*
X6804291Y-48179046D01*
X6813254Y-48170082D01*
X6816222Y-48165998D01*
X6915998Y-48066222D01*
X6920082Y-48063254D01*
X6929046Y-48054291D01*
X6971040Y-48026231D01*
X7030156Y-47983281D01*
X7051903Y-47972200D01*
X7075743Y-47956271D01*
X7115425Y-47939833D01*
X7155875Y-47919224D01*
X7199049Y-47905195D01*
X7238744Y-47888754D01*
X7266874Y-47883158D01*
X7290082Y-47875618D01*
X7362230Y-47864191D01*
X7411785Y-47854334D01*
X7424466Y-47854334D01*
X7429448Y-47853545D01*
X7570552Y-47853545D01*
X7575534Y-47854334D01*
G37*
G36*
X7575534Y-45354334D02*
G01*
X7588215Y-45354334D01*
X7637771Y-45364191D01*
X7709917Y-45375618D01*
X7733122Y-45383157D01*
X7761256Y-45388754D01*
X7800953Y-45405197D01*
X7844124Y-45419224D01*
X7884568Y-45439831D01*
X7924257Y-45456271D01*
X7948099Y-45472202D01*
X7969843Y-45483281D01*
X8028947Y-45526222D01*
X8070954Y-45554291D01*
X8079919Y-45563256D01*
X8084001Y-45566222D01*
X8183777Y-45665998D01*
X8186742Y-45670079D01*
X8195709Y-45679046D01*
X8223780Y-45721057D01*
X8266718Y-45780156D01*
X8277795Y-45801897D01*
X8293729Y-45825743D01*
X8310170Y-45865436D01*
X8330775Y-45905875D01*
X8344799Y-45949038D01*
X8361246Y-45988744D01*
X8366843Y-46016882D01*
X8374381Y-46040082D01*
X8385807Y-46112220D01*
X8395666Y-46161785D01*
X8395666Y-46174465D01*
X8396455Y-46179447D01*
X8396455Y-46320552D01*
X8395666Y-46325533D01*
X8395666Y-46338215D01*
X8385806Y-46387783D01*
X8374381Y-46459917D01*
X8366843Y-46483115D01*
X8361246Y-46511256D01*
X8344798Y-46550964D01*
X8330775Y-46594124D01*
X8310172Y-46634558D01*
X8293729Y-46674257D01*
X8277793Y-46698106D01*
X8266718Y-46719843D01*
X8223788Y-46778930D01*
X8195709Y-46820954D01*
X8186739Y-46829923D01*
X8183777Y-46834001D01*
X8084001Y-46933777D01*
X8079923Y-46936739D01*
X8070954Y-46945709D01*
X8028930Y-46973788D01*
X7969843Y-47016718D01*
X7948106Y-47027793D01*
X7924257Y-47043729D01*
X7884558Y-47060172D01*
X7844124Y-47080775D01*
X7800964Y-47094798D01*
X7761256Y-47111246D01*
X7733115Y-47116843D01*
X7709917Y-47124381D01*
X7637783Y-47135806D01*
X7588215Y-47145666D01*
X7575533Y-47145666D01*
X7570552Y-47146455D01*
X7429448Y-47146455D01*
X7424467Y-47145666D01*
X7411785Y-47145666D01*
X7362218Y-47135806D01*
X7290082Y-47124381D01*
X7266882Y-47116843D01*
X7238744Y-47111246D01*
X7199038Y-47094799D01*
X7155875Y-47080775D01*
X7115436Y-47060170D01*
X7075743Y-47043729D01*
X7051897Y-47027795D01*
X7030156Y-47016718D01*
X6971057Y-46973780D01*
X6929046Y-46945709D01*
X6920079Y-46936742D01*
X6915998Y-46933777D01*
X6816222Y-46834001D01*
X6813256Y-46829919D01*
X6804291Y-46820954D01*
X6776222Y-46778947D01*
X6733281Y-46719843D01*
X6722202Y-46698099D01*
X6706271Y-46674257D01*
X6689831Y-46634568D01*
X6669224Y-46594124D01*
X6655197Y-46550953D01*
X6638754Y-46511256D01*
X6633157Y-46483122D01*
X6625618Y-46459917D01*
X6614191Y-46387771D01*
X6604334Y-46338215D01*
X6604334Y-46325533D01*
X6603545Y-46320552D01*
X6603545Y-46179447D01*
X6604334Y-46174465D01*
X6604334Y-46161785D01*
X6614190Y-46112232D01*
X6625618Y-46040082D01*
X6633158Y-46016874D01*
X6638754Y-45988744D01*
X6655195Y-45949049D01*
X6669224Y-45905875D01*
X6689833Y-45865425D01*
X6706271Y-45825743D01*
X6722200Y-45801903D01*
X6733281Y-45780156D01*
X6776231Y-45721040D01*
X6804291Y-45679046D01*
X6813254Y-45670082D01*
X6816222Y-45665998D01*
X6915998Y-45566222D01*
X6920082Y-45563254D01*
X6929046Y-45554291D01*
X6971040Y-45526231D01*
X7030156Y-45483281D01*
X7051903Y-45472200D01*
X7075743Y-45456271D01*
X7115425Y-45439833D01*
X7155875Y-45419224D01*
X7199049Y-45405195D01*
X7238744Y-45388754D01*
X7266874Y-45383158D01*
X7290082Y-45375618D01*
X7362230Y-45364191D01*
X7411785Y-45354334D01*
X7424466Y-45354334D01*
X7429448Y-45353545D01*
X7570552Y-45353545D01*
X7575534Y-45354334D01*
G37*
G36*
X73514312Y-18984804D02*
G01*
X73528773Y-18984804D01*
X73555261Y-18995775D01*
X73574845Y-19001023D01*
X73592405Y-19011161D01*
X73618893Y-19022133D01*
X73629116Y-19032356D01*
X73630877Y-19033373D01*
X73676626Y-19079122D01*
X73677642Y-19080882D01*
X73687867Y-19091107D01*
X73698839Y-19117597D01*
X73708976Y-19135154D01*
X73714223Y-19154736D01*
X73725196Y-19181227D01*
X73725196Y-19195686D01*
X73725722Y-19197650D01*
X73725722Y-19262349D01*
X73725196Y-19264312D01*
X73725196Y-19278773D01*
X73714222Y-19305265D01*
X73708976Y-19324845D01*
X73698841Y-19342399D01*
X73687867Y-19368893D01*
X73677640Y-19379119D01*
X73676626Y-19380877D01*
X73546057Y-19511447D01*
X73546057Y-19718553D01*
X73676626Y-19849122D01*
X73677642Y-19850882D01*
X73687867Y-19861107D01*
X73698839Y-19887597D01*
X73708976Y-19905154D01*
X73714223Y-19924736D01*
X73725196Y-19951227D01*
X73725196Y-19965686D01*
X73725722Y-19967650D01*
X73725722Y-20032349D01*
X73725196Y-20034312D01*
X73725196Y-20048773D01*
X73714222Y-20075265D01*
X73708976Y-20094845D01*
X73698841Y-20112399D01*
X73687867Y-20138893D01*
X73677640Y-20149119D01*
X73676626Y-20150877D01*
X73546057Y-20281447D01*
X73546057Y-20488553D01*
X73676626Y-20619122D01*
X73677642Y-20620882D01*
X73687867Y-20631107D01*
X73698839Y-20657597D01*
X73708976Y-20675154D01*
X73714223Y-20694736D01*
X73725196Y-20721227D01*
X73725196Y-20735686D01*
X73725722Y-20737650D01*
X73725722Y-20802349D01*
X73725196Y-20804312D01*
X73725196Y-20818773D01*
X73714222Y-20845265D01*
X73708976Y-20864845D01*
X73698841Y-20882399D01*
X73687867Y-20908893D01*
X73677640Y-20919119D01*
X73676626Y-20920877D01*
X73630877Y-20966626D01*
X73629119Y-20967640D01*
X73618893Y-20977867D01*
X73592399Y-20988841D01*
X73574845Y-20998976D01*
X73555265Y-21004222D01*
X73528773Y-21015196D01*
X73514312Y-21015196D01*
X73512349Y-21015722D01*
X73447651Y-21015722D01*
X73445688Y-21015196D01*
X73431227Y-21015196D01*
X73404735Y-21004222D01*
X73385154Y-20998976D01*
X73367597Y-20988839D01*
X73341107Y-20977867D01*
X73330882Y-20967642D01*
X73329122Y-20966626D01*
X73283373Y-20920877D01*
X73282356Y-20919116D01*
X73272133Y-20908893D01*
X73261161Y-20882405D01*
X73251023Y-20864845D01*
X73245775Y-20845261D01*
X73234804Y-20818773D01*
X73234804Y-20804312D01*
X73234278Y-20802349D01*
X73234278Y-20737650D01*
X73234804Y-20735686D01*
X73234804Y-20721227D01*
X73245774Y-20694740D01*
X73251023Y-20675154D01*
X73261162Y-20657591D01*
X73272133Y-20631107D01*
X73282355Y-20620884D01*
X73283373Y-20619122D01*
X73413943Y-20488553D01*
X73413943Y-20281447D01*
X73208553Y-20076057D01*
X73001447Y-20076057D01*
X72880877Y-20196626D01*
X72879119Y-20197640D01*
X72868893Y-20207867D01*
X72842399Y-20218841D01*
X72824845Y-20228976D01*
X72805265Y-20234222D01*
X72778773Y-20245196D01*
X72764312Y-20245196D01*
X72762349Y-20245722D01*
X72697651Y-20245722D01*
X72695688Y-20245196D01*
X72681227Y-20245196D01*
X72654735Y-20234222D01*
X72635154Y-20228976D01*
X72617597Y-20218839D01*
X72591107Y-20207867D01*
X72580882Y-20197642D01*
X72579122Y-20196626D01*
X72533373Y-20150877D01*
X72532356Y-20149116D01*
X72522133Y-20138893D01*
X72511161Y-20112405D01*
X72501023Y-20094845D01*
X72495775Y-20075261D01*
X72484804Y-20048773D01*
X72484804Y-20034312D01*
X72484278Y-20032349D01*
X72484278Y-19967650D01*
X72484804Y-19965686D01*
X72484804Y-19951227D01*
X72495774Y-19924740D01*
X72501023Y-19905154D01*
X72511162Y-19887591D01*
X72522133Y-19861107D01*
X72532355Y-19850884D01*
X72533373Y-19849122D01*
X72579122Y-19803373D01*
X72580884Y-19802355D01*
X72591107Y-19792133D01*
X72617591Y-19781162D01*
X72635154Y-19771023D01*
X72654740Y-19765775D01*
X72681227Y-19754804D01*
X72695688Y-19754804D01*
X72697651Y-19754278D01*
X72762349Y-19754278D01*
X72764312Y-19754804D01*
X72778773Y-19754804D01*
X72805261Y-19765775D01*
X72824845Y-19771023D01*
X72842405Y-19781161D01*
X72868893Y-19792133D01*
X72879116Y-19802356D01*
X72880877Y-19803373D01*
X73001447Y-19923943D01*
X73208553Y-19923943D01*
X73413943Y-19718553D01*
X73413943Y-19511447D01*
X73283373Y-19380877D01*
X73282356Y-19379116D01*
X73272133Y-19368893D01*
X73261161Y-19342405D01*
X73251023Y-19324845D01*
X73245775Y-19305261D01*
X73234804Y-19278773D01*
X73234804Y-19264312D01*
X73234278Y-19262349D01*
X73234278Y-19197650D01*
X73234804Y-19195686D01*
X73234804Y-19181227D01*
X73245774Y-19154740D01*
X73251023Y-19135154D01*
X73261162Y-19117591D01*
X73272133Y-19091107D01*
X73282355Y-19080884D01*
X73283373Y-19079122D01*
X73329122Y-19033373D01*
X73330884Y-19032355D01*
X73341107Y-19022133D01*
X73367591Y-19011162D01*
X73385154Y-19001023D01*
X73404740Y-18995775D01*
X73431227Y-18984804D01*
X73445688Y-18984804D01*
X73447651Y-18984278D01*
X73512349Y-18984278D01*
X73514312Y-18984804D01*
G37*
G36*
X74564312Y-18984804D02*
G01*
X74578773Y-18984804D01*
X74605261Y-18995775D01*
X74624845Y-19001023D01*
X74642405Y-19011161D01*
X74668893Y-19022133D01*
X74679116Y-19032356D01*
X74680877Y-19033373D01*
X74726626Y-19079122D01*
X74727642Y-19080882D01*
X74737867Y-19091107D01*
X74748839Y-19117597D01*
X74758976Y-19135154D01*
X74764223Y-19154736D01*
X74775196Y-19181227D01*
X74775196Y-19195686D01*
X74775722Y-19197650D01*
X74775722Y-19262349D01*
X74775196Y-19264312D01*
X74775196Y-19278773D01*
X74764222Y-19305265D01*
X74758976Y-19324845D01*
X74748841Y-19342399D01*
X74737867Y-19368893D01*
X74727640Y-19379119D01*
X74726626Y-19380877D01*
X74596057Y-19511447D01*
X74596057Y-19718553D01*
X74801447Y-19923943D01*
X75008553Y-19923943D01*
X75129122Y-19803373D01*
X75130884Y-19802355D01*
X75141107Y-19792133D01*
X75167591Y-19781162D01*
X75185154Y-19771023D01*
X75204740Y-19765775D01*
X75231227Y-19754804D01*
X75245688Y-19754804D01*
X75247651Y-19754278D01*
X75312349Y-19754278D01*
X75314312Y-19754804D01*
X75328773Y-19754804D01*
X75355261Y-19765775D01*
X75374845Y-19771023D01*
X75392405Y-19781161D01*
X75418893Y-19792133D01*
X75429116Y-19802356D01*
X75430877Y-19803373D01*
X75476626Y-19849122D01*
X75477642Y-19850882D01*
X75487867Y-19861107D01*
X75498839Y-19887597D01*
X75508976Y-19905154D01*
X75514223Y-19924736D01*
X75525196Y-19951227D01*
X75525196Y-19965686D01*
X75525722Y-19967650D01*
X75525722Y-20032349D01*
X75525196Y-20034312D01*
X75525196Y-20048773D01*
X75514222Y-20075265D01*
X75508976Y-20094845D01*
X75498841Y-20112399D01*
X75487867Y-20138893D01*
X75477640Y-20149119D01*
X75476626Y-20150877D01*
X75430877Y-20196626D01*
X75429119Y-20197640D01*
X75418893Y-20207867D01*
X75392399Y-20218841D01*
X75374845Y-20228976D01*
X75355265Y-20234222D01*
X75328773Y-20245196D01*
X75314312Y-20245196D01*
X75312349Y-20245722D01*
X75247651Y-20245722D01*
X75245688Y-20245196D01*
X75231227Y-20245196D01*
X75204735Y-20234222D01*
X75185154Y-20228976D01*
X75167597Y-20218839D01*
X75141107Y-20207867D01*
X75130882Y-20197642D01*
X75129122Y-20196626D01*
X75008553Y-20076057D01*
X74801447Y-20076057D01*
X74596057Y-20281447D01*
X74596057Y-20488553D01*
X74726626Y-20619122D01*
X74727642Y-20620882D01*
X74737867Y-20631107D01*
X74748839Y-20657597D01*
X74758976Y-20675154D01*
X74764223Y-20694736D01*
X74775196Y-20721227D01*
X74775196Y-20735686D01*
X74775722Y-20737650D01*
X74775722Y-20802349D01*
X74775196Y-20804312D01*
X74775196Y-20818773D01*
X74764222Y-20845265D01*
X74758976Y-20864845D01*
X74748841Y-20882399D01*
X74737867Y-20908893D01*
X74727640Y-20919119D01*
X74726626Y-20920877D01*
X74680877Y-20966626D01*
X74679119Y-20967640D01*
X74668893Y-20977867D01*
X74642399Y-20988841D01*
X74624845Y-20998976D01*
X74605265Y-21004222D01*
X74578773Y-21015196D01*
X74564312Y-21015196D01*
X74562349Y-21015722D01*
X74497651Y-21015722D01*
X74495688Y-21015196D01*
X74481227Y-21015196D01*
X74454735Y-21004222D01*
X74435154Y-20998976D01*
X74417597Y-20988839D01*
X74391107Y-20977867D01*
X74380882Y-20967642D01*
X74379122Y-20966626D01*
X74333373Y-20920877D01*
X74332356Y-20919116D01*
X74322133Y-20908893D01*
X74311161Y-20882405D01*
X74301023Y-20864845D01*
X74295775Y-20845261D01*
X74284804Y-20818773D01*
X74284804Y-20804312D01*
X74284278Y-20802349D01*
X74284278Y-20737650D01*
X74284804Y-20735686D01*
X74284804Y-20721227D01*
X74295774Y-20694740D01*
X74301023Y-20675154D01*
X74311162Y-20657591D01*
X74322133Y-20631107D01*
X74332355Y-20620884D01*
X74333373Y-20619122D01*
X74463943Y-20488553D01*
X74463943Y-20281447D01*
X74333373Y-20150877D01*
X74332356Y-20149116D01*
X74322133Y-20138893D01*
X74311161Y-20112405D01*
X74301023Y-20094845D01*
X74295775Y-20075261D01*
X74284804Y-20048773D01*
X74284804Y-20034312D01*
X74284278Y-20032349D01*
X74284278Y-19967650D01*
X74284804Y-19965686D01*
X74284804Y-19951227D01*
X74295774Y-19924740D01*
X74301023Y-19905154D01*
X74311162Y-19887591D01*
X74322133Y-19861107D01*
X74332355Y-19850884D01*
X74333373Y-19849122D01*
X74463943Y-19718553D01*
X74463943Y-19511447D01*
X74333373Y-19380877D01*
X74332356Y-19379116D01*
X74322133Y-19368893D01*
X74311161Y-19342405D01*
X74301023Y-19324845D01*
X74295775Y-19305261D01*
X74284804Y-19278773D01*
X74284804Y-19264312D01*
X74284278Y-19262349D01*
X74284278Y-19197650D01*
X74284804Y-19195686D01*
X74284804Y-19181227D01*
X74295774Y-19154740D01*
X74301023Y-19135154D01*
X74311162Y-19117591D01*
X74322133Y-19091107D01*
X74332355Y-19080884D01*
X74333373Y-19079122D01*
X74379122Y-19033373D01*
X74380884Y-19032355D01*
X74391107Y-19022133D01*
X74417591Y-19011162D01*
X74435154Y-19001023D01*
X74454740Y-18995775D01*
X74481227Y-18984804D01*
X74495688Y-18984804D01*
X74497651Y-18984278D01*
X74562349Y-18984278D01*
X74564312Y-18984804D01*
G37*
M02*
