%TF.GenerationSoftware,KiCad,Pcbnew,10.0.5*%
%TF.CreationDate,2026-10-08T22:24:27+05:30*%
%TF.ProjectId,AuraForge_50X,41757261-466f-4726-9765-5f3530582e6b,v2.0*%
%TF.SameCoordinates,Original*%
%TF.FileFunction,Legend,Top*%
%TF.FilePolarity,Positive*%
%FSLAX46Y46*%
G04 Gerber Fmt 4.6, Leading zero omitted, Abs format (unit mm)*
G04 Created by KiCad (PCBNEW 10.0.5) date 2026-10-08 22:24:27*
%MOMM*%
%LPD*%
G01*
G04 APERTURE LIST*
%ADD10C,0.375000*%
%ADD11C,0.150000*%
%ADD12C,0.120000*%
%ADD13C,0.152400*%
%ADD14C,0.250000*%
%ADD15C,0.300000*%
%ADD16C,0.100000*%
%ADD17C,0.060000*%
%ADD18C,0.200000*%
%ADD19C,0.130000*%
%ADD20C,0.127000*%
G04 APERTURE END LIST*
D10*
G36*
X115565283Y-54624090D02*
G01*
X115638371Y-54772083D01*
X115683161Y-54832185D01*
X115723294Y-54857081D01*
X115781529Y-54869829D01*
X115781529Y-54905000D01*
X115109343Y-54905000D01*
X115109343Y-54869829D01*
X115137003Y-54869829D01*
X115211171Y-54862894D01*
X115250759Y-54846656D01*
X115267477Y-54826479D01*
X115273291Y-54798113D01*
X115267154Y-54759095D01*
X115236379Y-54680052D01*
X115162649Y-54506395D01*
X114671812Y-54506395D01*
X114613377Y-54645614D01*
X114590937Y-54711689D01*
X114584709Y-54758271D01*
X114590193Y-54794855D01*
X114605695Y-54823071D01*
X114631787Y-54845007D01*
X114669778Y-54857550D01*
X114768166Y-54869829D01*
X114768166Y-54905000D01*
X114305997Y-54905000D01*
X114305997Y-54869829D01*
X114353610Y-54857464D01*
X114394175Y-54836497D01*
X114428913Y-54806722D01*
X114475890Y-54739490D01*
X114547798Y-54593132D01*
X114620968Y-54430191D01*
X114707716Y-54430191D01*
X115127752Y-54430191D01*
X114920848Y-53960329D01*
X114707716Y-54430191D01*
X114620968Y-54430191D01*
X115044771Y-53486437D01*
X115064280Y-53486437D01*
X115565283Y-54624090D01*
G37*
G36*
X116800846Y-53949521D02*
G01*
X116800846Y-54699836D01*
X116807660Y-54798159D01*
X116821363Y-54835757D01*
X116848950Y-54856270D01*
X116904344Y-54869829D01*
X116904344Y-54905000D01*
X116513983Y-54905000D01*
X116513983Y-54776955D01*
X116442503Y-54850280D01*
X116376597Y-54896665D01*
X116304679Y-54924705D01*
X116222998Y-54934309D01*
X116170739Y-54928721D01*
X116123144Y-54912263D01*
X116079017Y-54884575D01*
X116025656Y-54829609D01*
X115994479Y-54768162D01*
X115979580Y-54689063D01*
X115972955Y-54535246D01*
X115972955Y-54154685D01*
X115966305Y-54056686D01*
X115952988Y-54019497D01*
X115925754Y-53999055D01*
X115869457Y-53984692D01*
X115869457Y-53949521D01*
X116259818Y-53949521D01*
X116259818Y-54601741D01*
X116263003Y-54694883D01*
X116269527Y-54733449D01*
X116282479Y-54759980D01*
X116300301Y-54778329D01*
X116322754Y-54789740D01*
X116348936Y-54793625D01*
X116384218Y-54788725D01*
X116415614Y-54774207D01*
X116456148Y-54738872D01*
X116513983Y-54666680D01*
X116513983Y-54154685D01*
X116507334Y-54056686D01*
X116494016Y-54019497D01*
X116466782Y-53999055D01*
X116410485Y-53984692D01*
X116410485Y-53949521D01*
X116800846Y-53949521D01*
G37*
G36*
X117439694Y-53949521D02*
G01*
X117439694Y-54164119D01*
X117507863Y-54067480D01*
X117562702Y-54005192D01*
X117606665Y-53968481D01*
X117679491Y-53931482D01*
X117745059Y-53920212D01*
X117797594Y-53929277D01*
X117836741Y-53955017D01*
X117861901Y-53995329D01*
X117871088Y-54053386D01*
X117862084Y-54115550D01*
X117837749Y-54158441D01*
X117800720Y-54186538D01*
X117757332Y-54195718D01*
X117706343Y-54187334D01*
X117663085Y-54162562D01*
X117615915Y-54125376D01*
X117592376Y-54119515D01*
X117564035Y-54124896D01*
X117536048Y-54141954D01*
X117500015Y-54182685D01*
X117472484Y-54240873D01*
X117448168Y-54343141D01*
X117439694Y-54459226D01*
X117439694Y-54679594D01*
X117440702Y-54735006D01*
X117443057Y-54789679D01*
X117447846Y-54811851D01*
X117463409Y-54836843D01*
X117484207Y-54853525D01*
X117512726Y-54863329D01*
X117565723Y-54869829D01*
X117565723Y-54905000D01*
X117048234Y-54905000D01*
X117048234Y-54869829D01*
X117103717Y-54857427D01*
X117132772Y-54835665D01*
X117147426Y-54794427D01*
X117154846Y-54682250D01*
X117154846Y-54154685D01*
X117152114Y-54077738D01*
X117146603Y-54046974D01*
X117133575Y-54020619D01*
X117116927Y-54003743D01*
X117093259Y-53993055D01*
X117048234Y-53984692D01*
X117048234Y-53949521D01*
X117439694Y-53949521D01*
G37*
G36*
X118545021Y-53927353D02*
G01*
X118615654Y-53946953D01*
X118671411Y-53977274D01*
X118720542Y-54018723D01*
X118753918Y-54059730D01*
X118774359Y-54100830D01*
X118783982Y-54156721D01*
X118788739Y-54295644D01*
X118788739Y-54662008D01*
X118793868Y-54743250D01*
X118809255Y-54767979D01*
X118832794Y-54776039D01*
X118858353Y-54769917D01*
X118887108Y-54748928D01*
X118917882Y-54766514D01*
X118863246Y-54837285D01*
X118811820Y-54881094D01*
X118753816Y-54907672D01*
X118687348Y-54916723D01*
X118634023Y-54911844D01*
X118592133Y-54898420D01*
X118559212Y-54877431D01*
X118533484Y-54848283D01*
X118514516Y-54809473D01*
X118502883Y-54758454D01*
X118408033Y-54834358D01*
X118325541Y-54882555D01*
X118253083Y-54908645D01*
X118188268Y-54916723D01*
X118135815Y-54910563D01*
X118090974Y-54892788D01*
X118051980Y-54863234D01*
X118021891Y-54824719D01*
X118003887Y-54780633D01*
X117997667Y-54729236D01*
X118007687Y-54660437D01*
X118018924Y-54636546D01*
X118278485Y-54636546D01*
X118286832Y-54680395D01*
X118312282Y-54719161D01*
X118342088Y-54739468D01*
X118383998Y-54746730D01*
X118416454Y-54741387D01*
X118455324Y-54723327D01*
X118502883Y-54688112D01*
X118502883Y-54370291D01*
X118423136Y-54422791D01*
X118362689Y-54474435D01*
X118318419Y-54525355D01*
X118287988Y-54582031D01*
X118278485Y-54636546D01*
X118018924Y-54636546D01*
X118038113Y-54595747D01*
X118091914Y-54533048D01*
X118161588Y-54480095D01*
X118290173Y-54405028D01*
X118502883Y-54301140D01*
X118502883Y-54202496D01*
X118498927Y-54101386D01*
X118491068Y-54062453D01*
X118474713Y-54036184D01*
X118446463Y-54012078D01*
X118411832Y-53995993D01*
X118372732Y-53990554D01*
X118310330Y-53998624D01*
X118263098Y-54020963D01*
X118242647Y-54042187D01*
X118236445Y-54065018D01*
X118242364Y-54087234D01*
X118265113Y-54119606D01*
X118295186Y-54165969D01*
X118304039Y-54206709D01*
X118294702Y-54254293D01*
X118266578Y-54294362D01*
X118224388Y-54321140D01*
X118168759Y-54330540D01*
X118108821Y-54320563D01*
X118060682Y-54291614D01*
X118027738Y-54248612D01*
X118017176Y-54200298D01*
X118023315Y-54153058D01*
X118042169Y-54106447D01*
X118075519Y-54059248D01*
X118117941Y-54019191D01*
X118171600Y-53984742D01*
X118238460Y-53956116D01*
X118344829Y-53929228D01*
X118455714Y-53920212D01*
X118545021Y-53927353D01*
G37*
G36*
X119529619Y-53597812D02*
G01*
X119529619Y-54166409D01*
X119569553Y-54166409D01*
X119656801Y-54158810D01*
X119720128Y-54138657D01*
X119772975Y-54102458D01*
X119819047Y-54045234D01*
X119851151Y-53972291D01*
X119871803Y-53867456D01*
X119907707Y-53867456D01*
X119907707Y-54570875D01*
X119871803Y-54570875D01*
X119855257Y-54467776D01*
X119830870Y-54393481D01*
X119800739Y-54341456D01*
X119765741Y-54306543D01*
X119705438Y-54271010D01*
X119640541Y-54249813D01*
X119569553Y-54242613D01*
X119529619Y-54242613D01*
X119529619Y-54664665D01*
X119533570Y-54764082D01*
X119541343Y-54801502D01*
X119557914Y-54826182D01*
X119587505Y-54849312D01*
X119625588Y-54864178D01*
X119680286Y-54869829D01*
X119726357Y-54869829D01*
X119726357Y-54905000D01*
X118999856Y-54905000D01*
X118999856Y-54869829D01*
X119045927Y-54869829D01*
X119102635Y-54863811D01*
X119143288Y-54847755D01*
X119166170Y-54828517D01*
X119184229Y-54797197D01*
X119191655Y-54762001D01*
X119195495Y-54664665D01*
X119195495Y-53756081D01*
X119191695Y-53656661D01*
X119184229Y-53619336D01*
X119168074Y-53594604D01*
X119138617Y-53571434D01*
X119100613Y-53556571D01*
X119045927Y-53550917D01*
X118999856Y-53550917D01*
X118999856Y-53515746D01*
X120172039Y-53515746D01*
X120172039Y-53914351D01*
X120129999Y-53914351D01*
X120113813Y-53823110D01*
X120088795Y-53756052D01*
X120056726Y-53707813D01*
X120013603Y-53668837D01*
X119957661Y-53637116D01*
X119886183Y-53613107D01*
X119811657Y-53602597D01*
X119658671Y-53597812D01*
X119529619Y-53597812D01*
G37*
G36*
X120839098Y-53927405D02*
G01*
X120916209Y-53948775D01*
X120990130Y-53984692D01*
X121055865Y-54033474D01*
X121110068Y-54094058D01*
X121153529Y-54167875D01*
X121184312Y-54248648D01*
X121203019Y-54334930D01*
X121209399Y-54427810D01*
X121202419Y-54529081D01*
X121182395Y-54618465D01*
X121150181Y-54697787D01*
X121105901Y-54768529D01*
X121037287Y-54841183D01*
X120958424Y-54892208D01*
X120867280Y-54923414D01*
X120760603Y-54934309D01*
X120655142Y-54924121D01*
X120566563Y-54895215D01*
X120491453Y-54848531D01*
X120427578Y-54782909D01*
X120376545Y-54704266D01*
X120340307Y-54620334D01*
X120318313Y-54529995D01*
X120316773Y-54509876D01*
X120611035Y-54509876D01*
X120614751Y-54617813D01*
X120625415Y-54715131D01*
X120644120Y-54781694D01*
X120673500Y-54826048D01*
X120713604Y-54854768D01*
X120757581Y-54863967D01*
X120800511Y-54857325D01*
X120834425Y-54838321D01*
X120867053Y-54797655D01*
X120887640Y-54740777D01*
X120901583Y-54618680D01*
X120908156Y-54346660D01*
X120902061Y-54185774D01*
X120888647Y-54107058D01*
X120863308Y-54048591D01*
X120831311Y-54012078D01*
X120801580Y-53996256D01*
X120761611Y-53990554D01*
X120713339Y-54000337D01*
X120671943Y-54030122D01*
X120652479Y-54059370D01*
X120635449Y-54108598D01*
X120622758Y-54186101D01*
X120614389Y-54314101D01*
X120611035Y-54509876D01*
X120316773Y-54509876D01*
X120310799Y-54431840D01*
X120318525Y-54330615D01*
X120341074Y-54238071D01*
X120378116Y-54152686D01*
X120430142Y-54073261D01*
X120495366Y-54006326D01*
X120570222Y-53959179D01*
X120656627Y-53930298D01*
X120757581Y-53920212D01*
X120839098Y-53927405D01*
G37*
G36*
X121752534Y-53949521D02*
G01*
X121752534Y-54164119D01*
X121820703Y-54067480D01*
X121875542Y-54005192D01*
X121919505Y-53968481D01*
X121992331Y-53931482D01*
X122057899Y-53920212D01*
X122110434Y-53929277D01*
X122149582Y-53955017D01*
X122174741Y-53995329D01*
X122183928Y-54053386D01*
X122174924Y-54115550D01*
X122150589Y-54158441D01*
X122113560Y-54186538D01*
X122070172Y-54195718D01*
X122019183Y-54187334D01*
X121975925Y-54162562D01*
X121928756Y-54125376D01*
X121905217Y-54119515D01*
X121876875Y-54124896D01*
X121848888Y-54141954D01*
X121812855Y-54182685D01*
X121785324Y-54240873D01*
X121761008Y-54343141D01*
X121752534Y-54459226D01*
X121752534Y-54679594D01*
X121753542Y-54735006D01*
X121755897Y-54789679D01*
X121760686Y-54811851D01*
X121776249Y-54836843D01*
X121797048Y-54853525D01*
X121825567Y-54863329D01*
X121878564Y-54869829D01*
X121878564Y-54905000D01*
X121361074Y-54905000D01*
X121361074Y-54869829D01*
X121416558Y-54857427D01*
X121445613Y-54835665D01*
X121460266Y-54794427D01*
X121467686Y-54682250D01*
X121467686Y-54154685D01*
X121464955Y-54077738D01*
X121459443Y-54046974D01*
X121446416Y-54020619D01*
X121429767Y-54003743D01*
X121406100Y-53993055D01*
X121361074Y-53984692D01*
X121361074Y-53949521D01*
X121752534Y-53949521D01*
G37*
G36*
X122800106Y-53930120D02*
G01*
X122901727Y-53961245D01*
X123224586Y-53961245D01*
X123224586Y-54072620D01*
X123041129Y-54072620D01*
X123085687Y-54123214D01*
X123110830Y-54163845D01*
X123129241Y-54220456D01*
X123135376Y-54279616D01*
X123128831Y-54346022D01*
X123109843Y-54404742D01*
X123078498Y-54457394D01*
X123036867Y-54503177D01*
X122985707Y-54542427D01*
X122923709Y-54575272D01*
X122827535Y-54608075D01*
X122750144Y-54617770D01*
X122627137Y-54612641D01*
X122584428Y-54620185D01*
X122549743Y-54642316D01*
X122526229Y-54675081D01*
X122518510Y-54713208D01*
X122525527Y-54746107D01*
X122546629Y-54772559D01*
X122580305Y-54788977D01*
X122638403Y-54795640D01*
X122815632Y-54793625D01*
X122960826Y-54800546D01*
X123054700Y-54817716D01*
X123111837Y-54840794D01*
X123163067Y-54878561D01*
X123198474Y-54923717D01*
X123220033Y-54977564D01*
X123227608Y-55042661D01*
X123221680Y-55099038D01*
X123204083Y-55151438D01*
X123174302Y-55201022D01*
X123135237Y-55244168D01*
X123088758Y-55279086D01*
X123033893Y-55306168D01*
X122944431Y-55333336D01*
X122843562Y-55350393D01*
X122729628Y-55356360D01*
X122603635Y-55349819D01*
X122493872Y-55331264D01*
X122424006Y-55310356D01*
X122374671Y-55286910D01*
X122341190Y-55261747D01*
X122305848Y-55214524D01*
X122295120Y-55168232D01*
X122298882Y-55148998D01*
X122467311Y-55148998D01*
X122473321Y-55180897D01*
X122492275Y-55211971D01*
X122527761Y-55243520D01*
X122571086Y-55264362D01*
X122642968Y-55279788D01*
X122755273Y-55286018D01*
X122850189Y-55281085D01*
X122923416Y-55267842D01*
X122979122Y-55248191D01*
X123026686Y-55217504D01*
X123052257Y-55182633D01*
X123060638Y-55141854D01*
X123056690Y-55118013D01*
X123045251Y-55098898D01*
X123012273Y-55073955D01*
X122961720Y-55056949D01*
X122883500Y-55049545D01*
X122664049Y-55045683D01*
X122568485Y-55051245D01*
X122525746Y-55063086D01*
X122492027Y-55088001D01*
X122473468Y-55116172D01*
X122467311Y-55148998D01*
X122298882Y-55148998D01*
X122303758Y-55124063D01*
X122330474Y-55083785D01*
X122375363Y-55052245D01*
X122462182Y-55020954D01*
X122400374Y-54982355D01*
X122360041Y-54939886D01*
X122336835Y-54892973D01*
X122329008Y-54839695D01*
X122334698Y-54794601D01*
X122352242Y-54749485D01*
X122383322Y-54703224D01*
X122423232Y-54663720D01*
X122479341Y-54625263D01*
X122555422Y-54588094D01*
X122467488Y-54548465D01*
X122402673Y-54504296D01*
X122356577Y-54456020D01*
X122322556Y-54398789D01*
X122302113Y-54336116D01*
X122298052Y-54295644D01*
X122583082Y-54295644D01*
X122588956Y-54396948D01*
X122603589Y-54462614D01*
X122623565Y-54502915D01*
X122653691Y-54535367D01*
X122685203Y-54553293D01*
X122719370Y-54559152D01*
X122757607Y-54553118D01*
X122791260Y-54535121D01*
X122821768Y-54503464D01*
X122841793Y-54463200D01*
X122856727Y-54394920D01*
X122862801Y-54286485D01*
X122856050Y-54164511D01*
X122839330Y-54086358D01*
X122816731Y-54039189D01*
X122791721Y-54012023D01*
X122761555Y-53996084D01*
X122724499Y-53990554D01*
X122687833Y-53996813D01*
X122654806Y-54015789D01*
X122624023Y-54049905D01*
X122604392Y-54092788D01*
X122589319Y-54169453D01*
X122583082Y-54295644D01*
X122298052Y-54295644D01*
X122295120Y-54266427D01*
X122302190Y-54199072D01*
X122323108Y-54136951D01*
X122358411Y-54078629D01*
X122409883Y-54023161D01*
X122469948Y-53978959D01*
X122538074Y-53946998D01*
X122615768Y-53927151D01*
X122704990Y-53920212D01*
X122800106Y-53930120D01*
G37*
G36*
X123849678Y-53927574D02*
G01*
X123914115Y-53949368D01*
X123974703Y-53986185D01*
X124032419Y-54039922D01*
X124077017Y-54102049D01*
X124111860Y-54179678D01*
X124136058Y-54276023D01*
X124147732Y-54395020D01*
X123622091Y-54395020D01*
X123632820Y-54489093D01*
X123653917Y-54568528D01*
X123684305Y-54635594D01*
X123723574Y-54692142D01*
X123775211Y-54739659D01*
X123831201Y-54766906D01*
X123893659Y-54776039D01*
X123952367Y-54767409D01*
X124005308Y-54741601D01*
X124053338Y-54697929D01*
X124112928Y-54617770D01*
X124147732Y-54641217D01*
X124089627Y-54744134D01*
X124032248Y-54817682D01*
X123975541Y-54867722D01*
X123909996Y-54904465D01*
X123837854Y-54926681D01*
X123757371Y-54934309D01*
X123673449Y-54927270D01*
X123600998Y-54907170D01*
X123537945Y-54874749D01*
X123482765Y-54829667D01*
X123434604Y-54770544D01*
X123386916Y-54678759D01*
X123357052Y-54570820D01*
X123346494Y-54443106D01*
X123355448Y-54323995D01*
X123364138Y-54289233D01*
X123616962Y-54289233D01*
X123616962Y-54324678D01*
X123895674Y-54324678D01*
X123890063Y-54174362D01*
X123877722Y-54100922D01*
X123853892Y-54046039D01*
X123821943Y-54008781D01*
X123797717Y-53995400D01*
X123764515Y-53990554D01*
X123731675Y-53996101D01*
X123703080Y-54012695D01*
X123677412Y-54042212D01*
X123645484Y-54105195D01*
X123624617Y-54186022D01*
X123616962Y-54289233D01*
X123364138Y-54289233D01*
X123380774Y-54222688D01*
X123421050Y-54136143D01*
X123476095Y-54061995D01*
X123545791Y-53998383D01*
X123618787Y-53954759D01*
X123696245Y-53928931D01*
X123779903Y-53920212D01*
X123849678Y-53927574D01*
G37*
G36*
X124846206Y-54529842D02*
G01*
X124248757Y-54529842D01*
X124248757Y-54318817D01*
X124846206Y-54318817D01*
X124846206Y-54529842D01*
G37*
G36*
X125216325Y-53515746D02*
G01*
X125866988Y-53515746D01*
X125763490Y-53785390D01*
X125216325Y-53785390D01*
X125164027Y-53926074D01*
X125309508Y-53938559D01*
X125434044Y-53963241D01*
X125540419Y-53998633D01*
X125631081Y-54043755D01*
X125708078Y-54098174D01*
X125777928Y-54169318D01*
X125826162Y-54246319D01*
X125855023Y-54330604D01*
X125864882Y-54424421D01*
X125857056Y-54505913D01*
X125833247Y-54587067D01*
X125792158Y-54669153D01*
X125737583Y-54742751D01*
X125669789Y-54805676D01*
X125587269Y-54858563D01*
X125496938Y-54897179D01*
X125400742Y-54920511D01*
X125297292Y-54928447D01*
X125185105Y-54920295D01*
X125099951Y-54898397D01*
X125035982Y-54865432D01*
X124998852Y-54832096D01*
X124978826Y-54798664D01*
X124972418Y-54763766D01*
X124980564Y-54723006D01*
X125005666Y-54686555D01*
X125042044Y-54661189D01*
X125083060Y-54652941D01*
X125122792Y-54656724D01*
X125163935Y-54668420D01*
X125211185Y-54691608D01*
X125304344Y-54749478D01*
X125365682Y-54785408D01*
X125411964Y-54805532D01*
X125445037Y-54814065D01*
X125483680Y-54817072D01*
X125537178Y-54810249D01*
X125584271Y-54790236D01*
X125626653Y-54756256D01*
X125659491Y-54712743D01*
X125678919Y-54664586D01*
X125685546Y-54610168D01*
X125674796Y-54530192D01*
X125642920Y-54458493D01*
X125588025Y-54392549D01*
X125505204Y-54331273D01*
X125413905Y-54286249D01*
X125309115Y-54252714D01*
X125188716Y-54231498D01*
X125050271Y-54224020D01*
X124967289Y-54225027D01*
X125216325Y-53515746D01*
G37*
G36*
X126547347Y-53495350D02*
G01*
X126622079Y-53522244D01*
X126695338Y-53568686D01*
X126758379Y-53628848D01*
X126809694Y-53701906D01*
X126849577Y-53789787D01*
X126887218Y-53918766D01*
X126910342Y-54057534D01*
X126918271Y-54207442D01*
X126911570Y-54344668D01*
X126891932Y-54473364D01*
X126859835Y-54594506D01*
X126817610Y-54697478D01*
X126766046Y-54775307D01*
X126702591Y-54838964D01*
X126632323Y-54887139D01*
X126554555Y-54918040D01*
X126469474Y-54928447D01*
X126404036Y-54922656D01*
X126343966Y-54905659D01*
X126288124Y-54877431D01*
X126213307Y-54816923D01*
X126144601Y-54731343D01*
X126104313Y-54654969D01*
X126065741Y-54546512D01*
X126032766Y-54388184D01*
X126029561Y-54340615D01*
X126332179Y-54340615D01*
X126338706Y-54611596D01*
X126352696Y-54736197D01*
X126373360Y-54801225D01*
X126396659Y-54833558D01*
X126428930Y-54851616D01*
X126472497Y-54858105D01*
X126518428Y-54849440D01*
X126549342Y-54825315D01*
X126572108Y-54784662D01*
X126589131Y-54727264D01*
X126598526Y-54648087D01*
X126602648Y-54207442D01*
X126598526Y-53782185D01*
X126586490Y-53686752D01*
X126569292Y-53625897D01*
X126549342Y-53589569D01*
X126517612Y-53565706D01*
X126466360Y-53556779D01*
X126425948Y-53563268D01*
X126396751Y-53581325D01*
X126376124Y-53607943D01*
X126358636Y-53648553D01*
X126345460Y-53707904D01*
X126337004Y-53851196D01*
X126332179Y-54340615D01*
X126029561Y-54340615D01*
X126021686Y-54223745D01*
X126029054Y-54074327D01*
X126050488Y-53936555D01*
X126085250Y-53809112D01*
X126127815Y-53709852D01*
X126180784Y-53631100D01*
X126243977Y-53569693D01*
X126318324Y-53522489D01*
X126392937Y-53495363D01*
X126469474Y-53486437D01*
X126547347Y-53495350D01*
G37*
G36*
X127883274Y-54089015D02*
G01*
X128264659Y-54657887D01*
X128356180Y-54786157D01*
X128400489Y-54832826D01*
X128444144Y-54857255D01*
X128496293Y-54869829D01*
X128496293Y-54905000D01*
X127818977Y-54905000D01*
X127818977Y-54869829D01*
X127892187Y-54858800D01*
X127923482Y-54844916D01*
X127941307Y-54823838D01*
X127947021Y-54799303D01*
X127939877Y-54766056D01*
X127868161Y-54649918D01*
X127665562Y-54352156D01*
X127453162Y-54608886D01*
X127391216Y-54693323D01*
X127364306Y-54743064D01*
X127357816Y-54770452D01*
X127363682Y-54798839D01*
X127382362Y-54826414D01*
X127411351Y-54847830D01*
X127455177Y-54863600D01*
X127543288Y-54869829D01*
X127543288Y-54905000D01*
X127009495Y-54905000D01*
X127009495Y-54869829D01*
X127094438Y-54849437D01*
X127152927Y-54820095D01*
X127225102Y-54756889D01*
X127344535Y-54621250D01*
X127621232Y-54286943D01*
X127266683Y-53765698D01*
X127167307Y-53621442D01*
X127138566Y-53590949D01*
X127112993Y-53572716D01*
X127083406Y-53560645D01*
X127039171Y-53550917D01*
X127039171Y-53515746D01*
X127728760Y-53515746D01*
X127728760Y-53550917D01*
X127693955Y-53550917D01*
X127639779Y-53556581D01*
X127610882Y-53569968D01*
X127593156Y-53591547D01*
X127587343Y-53617779D01*
X127594579Y-53656796D01*
X127665287Y-53763775D01*
X127839310Y-54023435D01*
X127983933Y-53848680D01*
X128056450Y-53749858D01*
X128088670Y-53689008D01*
X128096681Y-53653316D01*
X128092722Y-53626493D01*
X128080744Y-53601567D01*
X128061794Y-53580671D01*
X128035132Y-53564381D01*
X128001160Y-53554890D01*
X127942900Y-53550917D01*
X127942900Y-53515746D01*
X128454253Y-53515746D01*
X128454253Y-53550917D01*
X128396955Y-53555611D01*
X128356891Y-53565938D01*
X128320617Y-53584816D01*
X128278031Y-53618420D01*
X128144766Y-53773025D01*
X127883274Y-54089015D01*
G37*
G36*
X113070342Y-56498831D02*
G01*
X114191325Y-56498831D01*
X114191325Y-56633653D01*
X113070342Y-56633653D01*
X113070342Y-56498831D01*
G37*
G36*
X113070342Y-56832955D02*
G01*
X114191325Y-56832955D01*
X114191325Y-56967777D01*
X113070342Y-56967777D01*
X113070342Y-56832955D01*
G37*
G36*
X114266155Y-56498831D02*
G01*
X115387138Y-56498831D01*
X115387138Y-56633653D01*
X114266155Y-56633653D01*
X114266155Y-56498831D01*
G37*
G36*
X114266155Y-56832955D02*
G01*
X115387138Y-56832955D01*
X115387138Y-56967777D01*
X114266155Y-56967777D01*
X114266155Y-56832955D01*
G37*
G36*
X115461968Y-56498831D02*
G01*
X116582951Y-56498831D01*
X116582951Y-56633653D01*
X115461968Y-56633653D01*
X115461968Y-56498831D01*
G37*
G36*
X115461968Y-56832955D02*
G01*
X116582951Y-56832955D01*
X116582951Y-56967777D01*
X115461968Y-56967777D01*
X115461968Y-56832955D01*
G37*
G36*
X116657781Y-56498831D02*
G01*
X117778764Y-56498831D01*
X117778764Y-56633653D01*
X116657781Y-56633653D01*
X116657781Y-56498831D01*
G37*
G36*
X116657781Y-56832955D02*
G01*
X117778764Y-56832955D01*
X117778764Y-56967777D01*
X116657781Y-56967777D01*
X116657781Y-56832955D01*
G37*
G36*
X117853594Y-56498831D02*
G01*
X118974577Y-56498831D01*
X118974577Y-56633653D01*
X117853594Y-56633653D01*
X117853594Y-56498831D01*
G37*
G36*
X117853594Y-56832955D02*
G01*
X118974577Y-56832955D01*
X118974577Y-56967777D01*
X117853594Y-56967777D01*
X117853594Y-56832955D01*
G37*
G36*
X119049407Y-56498831D02*
G01*
X120170390Y-56498831D01*
X120170390Y-56633653D01*
X119049407Y-56633653D01*
X119049407Y-56498831D01*
G37*
G36*
X119049407Y-56832955D02*
G01*
X120170390Y-56832955D01*
X120170390Y-56967777D01*
X119049407Y-56967777D01*
X119049407Y-56832955D01*
G37*
G36*
X120245220Y-56498831D02*
G01*
X121366203Y-56498831D01*
X121366203Y-56633653D01*
X120245220Y-56633653D01*
X120245220Y-56498831D01*
G37*
G36*
X120245220Y-56832955D02*
G01*
X121366203Y-56832955D01*
X121366203Y-56967777D01*
X120245220Y-56967777D01*
X120245220Y-56832955D01*
G37*
G36*
X121441033Y-56498831D02*
G01*
X122562016Y-56498831D01*
X122562016Y-56633653D01*
X121441033Y-56633653D01*
X121441033Y-56498831D01*
G37*
G36*
X121441033Y-56832955D02*
G01*
X122562016Y-56832955D01*
X122562016Y-56967777D01*
X121441033Y-56967777D01*
X121441033Y-56832955D01*
G37*
G36*
X122636846Y-56498831D02*
G01*
X123757829Y-56498831D01*
X123757829Y-56633653D01*
X122636846Y-56633653D01*
X122636846Y-56498831D01*
G37*
G36*
X122636846Y-56832955D02*
G01*
X123757829Y-56832955D01*
X123757829Y-56967777D01*
X122636846Y-56967777D01*
X122636846Y-56832955D01*
G37*
G36*
X123832659Y-56498831D02*
G01*
X124953642Y-56498831D01*
X124953642Y-56633653D01*
X123832659Y-56633653D01*
X123832659Y-56498831D01*
G37*
G36*
X123832659Y-56832955D02*
G01*
X124953642Y-56832955D01*
X124953642Y-56967777D01*
X123832659Y-56967777D01*
X123832659Y-56832955D01*
G37*
G36*
X125028472Y-56498831D02*
G01*
X126149455Y-56498831D01*
X126149455Y-56633653D01*
X125028472Y-56633653D01*
X125028472Y-56498831D01*
G37*
G36*
X125028472Y-56832955D02*
G01*
X126149455Y-56832955D01*
X126149455Y-56967777D01*
X125028472Y-56967777D01*
X125028472Y-56832955D01*
G37*
G36*
X126224285Y-56498831D02*
G01*
X127345268Y-56498831D01*
X127345268Y-56633653D01*
X126224285Y-56633653D01*
X126224285Y-56498831D01*
G37*
G36*
X126224285Y-56832955D02*
G01*
X127345268Y-56832955D01*
X127345268Y-56967777D01*
X126224285Y-56967777D01*
X126224285Y-56832955D01*
G37*
G36*
X127420098Y-56498831D02*
G01*
X128541081Y-56498831D01*
X128541081Y-56633653D01*
X127420098Y-56633653D01*
X127420098Y-56498831D01*
G37*
G36*
X127420098Y-56832955D02*
G01*
X128541081Y-56832955D01*
X128541081Y-56967777D01*
X127420098Y-56967777D01*
X127420098Y-56832955D01*
G37*
G36*
X128615911Y-56498831D02*
G01*
X129736894Y-56498831D01*
X129736894Y-56633653D01*
X128615911Y-56633653D01*
X128615911Y-56498831D01*
G37*
G36*
X128615911Y-56832955D02*
G01*
X129736894Y-56832955D01*
X129736894Y-56967777D01*
X128615911Y-56967777D01*
X128615911Y-56832955D01*
G37*
G36*
X114530049Y-58560653D02*
G01*
X114649091Y-58573231D01*
X114728873Y-58590642D01*
X114802477Y-58620657D01*
X114865538Y-58663274D01*
X114919474Y-58719236D01*
X114960317Y-58784936D01*
X114984874Y-58857513D01*
X114993296Y-58938963D01*
X114986153Y-59013632D01*
X114965434Y-59079812D01*
X114931290Y-59139249D01*
X114882654Y-59193128D01*
X114832402Y-59230042D01*
X114767487Y-59262033D01*
X114684909Y-59288383D01*
X115018942Y-59759253D01*
X115081289Y-59835499D01*
X115112181Y-59865590D01*
X115157096Y-59888407D01*
X115209543Y-59898105D01*
X115209543Y-59945000D01*
X114772012Y-59945000D01*
X114324223Y-59311922D01*
X114232999Y-59311922D01*
X114232999Y-59704665D01*
X114237622Y-59806712D01*
X114246829Y-59846081D01*
X114265314Y-59871641D01*
X114295464Y-59892518D01*
X114338064Y-59904432D01*
X114425615Y-59909829D01*
X114425615Y-59945000D01*
X113714502Y-59945000D01*
X113714502Y-59909829D01*
X113802906Y-59904234D01*
X113845111Y-59891968D01*
X113874934Y-59870840D01*
X113893287Y-59845532D01*
X113902479Y-59806650D01*
X113907118Y-59704665D01*
X113907118Y-59235718D01*
X114232999Y-59235718D01*
X114291434Y-59235718D01*
X114424715Y-59228105D01*
X114504475Y-59209798D01*
X114548120Y-59187976D01*
X114584919Y-59157139D01*
X114615666Y-59116284D01*
X114637197Y-59069494D01*
X114651111Y-59011564D01*
X114656149Y-58939971D01*
X114646582Y-58837447D01*
X114620963Y-58762041D01*
X114581869Y-58707146D01*
X114527310Y-58667857D01*
X114450124Y-58641793D01*
X114342633Y-58631950D01*
X114232999Y-58631950D01*
X114232999Y-59235718D01*
X113907118Y-59235718D01*
X113907118Y-58796081D01*
X113902492Y-58694044D01*
X113893287Y-58654756D01*
X113874776Y-58629147D01*
X113844561Y-58608319D01*
X113802035Y-58596344D01*
X113714502Y-58590917D01*
X113714502Y-58555746D01*
X114360036Y-58555746D01*
X114530049Y-58560653D01*
G37*
G36*
X115832459Y-58967353D02*
G01*
X115903093Y-58986953D01*
X115958849Y-59017274D01*
X116007980Y-59058723D01*
X116041356Y-59099730D01*
X116061798Y-59140830D01*
X116071421Y-59196721D01*
X116076177Y-59335644D01*
X116076177Y-59702008D01*
X116081306Y-59783250D01*
X116096694Y-59807979D01*
X116120233Y-59816039D01*
X116145791Y-59809917D01*
X116174546Y-59788928D01*
X116205321Y-59806514D01*
X116150685Y-59877285D01*
X116099258Y-59921094D01*
X116041254Y-59947672D01*
X115974786Y-59956723D01*
X115921462Y-59951844D01*
X115879571Y-59938420D01*
X115846650Y-59917431D01*
X115820922Y-59888283D01*
X115801955Y-59849473D01*
X115790322Y-59798454D01*
X115695471Y-59874358D01*
X115612980Y-59922555D01*
X115540522Y-59948645D01*
X115475706Y-59956723D01*
X115423254Y-59950563D01*
X115378413Y-59932788D01*
X115339419Y-59903234D01*
X115309330Y-59864719D01*
X115291326Y-59820633D01*
X115285105Y-59769236D01*
X115295125Y-59700437D01*
X115306362Y-59676546D01*
X115565924Y-59676546D01*
X115574270Y-59720395D01*
X115599721Y-59759161D01*
X115629526Y-59779468D01*
X115671436Y-59786730D01*
X115703893Y-59781387D01*
X115742762Y-59763327D01*
X115790322Y-59728112D01*
X115790322Y-59410291D01*
X115710575Y-59462791D01*
X115650127Y-59514435D01*
X115605857Y-59565355D01*
X115575426Y-59622031D01*
X115565924Y-59676546D01*
X115306362Y-59676546D01*
X115325552Y-59635747D01*
X115379353Y-59573048D01*
X115449026Y-59520095D01*
X115577611Y-59445028D01*
X115790322Y-59341140D01*
X115790322Y-59242496D01*
X115786366Y-59141386D01*
X115778506Y-59102453D01*
X115762152Y-59076184D01*
X115733902Y-59052078D01*
X115699270Y-59035993D01*
X115660171Y-59030554D01*
X115597769Y-59038624D01*
X115550536Y-59060963D01*
X115530086Y-59082187D01*
X115523883Y-59105018D01*
X115529802Y-59127234D01*
X115552551Y-59159606D01*
X115582624Y-59205969D01*
X115591477Y-59246709D01*
X115582141Y-59294293D01*
X115554017Y-59334362D01*
X115511826Y-59361140D01*
X115456197Y-59370540D01*
X115396260Y-59360563D01*
X115348120Y-59331614D01*
X115315177Y-59288612D01*
X115304614Y-59240298D01*
X115310753Y-59193058D01*
X115329607Y-59146447D01*
X115362958Y-59099248D01*
X115405379Y-59059191D01*
X115459039Y-59024742D01*
X115525898Y-58996116D01*
X115632268Y-58969228D01*
X115743152Y-58960212D01*
X115832459Y-58967353D01*
G37*
G36*
X116743235Y-59974309D02*
G01*
X116420468Y-59233978D01*
X116362324Y-59111171D01*
X116329335Y-59061146D01*
X116301293Y-59039112D01*
X116259634Y-59024692D01*
X116259634Y-58989521D01*
X116768881Y-58989521D01*
X116768881Y-59024692D01*
X116725490Y-59029921D01*
X116703301Y-59042278D01*
X116684698Y-59067419D01*
X116678663Y-59096133D01*
X116687037Y-59141591D01*
X116723818Y-59240023D01*
X116881538Y-59598968D01*
X117007567Y-59289116D01*
X117051411Y-59163174D01*
X117061880Y-59099064D01*
X117056039Y-59069846D01*
X117038800Y-59046949D01*
X117010437Y-59032316D01*
X116957375Y-59024692D01*
X116957375Y-58989521D01*
X117270983Y-58989521D01*
X117270983Y-59024692D01*
X117229409Y-59036621D01*
X117197160Y-59058856D01*
X117168076Y-59101264D01*
X117111065Y-59223079D01*
X116791412Y-59974309D01*
X116743235Y-59974309D01*
G37*
G36*
X117590636Y-58526437D02*
G01*
X117633088Y-58531706D01*
X117670189Y-58547092D01*
X117703293Y-58573057D01*
X117729056Y-58606446D01*
X117744268Y-58643422D01*
X117749455Y-58685256D01*
X117744217Y-58726984D01*
X117728862Y-58763768D01*
X117702835Y-58796905D01*
X117669452Y-58822614D01*
X117632475Y-58837798D01*
X117590636Y-58842976D01*
X117548811Y-58837788D01*
X117511994Y-58822598D01*
X117478895Y-58796905D01*
X117453197Y-58763807D01*
X117438009Y-58727020D01*
X117432824Y-58685256D01*
X117438002Y-58643416D01*
X117453186Y-58606440D01*
X117478895Y-58573057D01*
X117512034Y-58547035D01*
X117548847Y-58531677D01*
X117590636Y-58526437D01*
G37*
G36*
X117734067Y-58989521D02*
G01*
X117734067Y-59745697D01*
X117741662Y-59838582D01*
X117757606Y-59877131D01*
X117788698Y-59898174D01*
X117849930Y-59909829D01*
X117849930Y-59945000D01*
X117332440Y-59945000D01*
X117332440Y-59909829D01*
X117389695Y-59898656D01*
X117426688Y-59872459D01*
X117440351Y-59838217D01*
X117447204Y-59745697D01*
X117447204Y-59188824D01*
X117439581Y-59095948D01*
X117423574Y-59057390D01*
X117392689Y-59036312D01*
X117332440Y-59024692D01*
X117332440Y-58989521D01*
X117734067Y-58989521D01*
G37*
G36*
X119271332Y-59087066D02*
G01*
X119760062Y-59698894D01*
X119863795Y-59816036D01*
X119938390Y-59876581D01*
X119994607Y-59901623D01*
X120053153Y-59909829D01*
X120053153Y-59945000D01*
X119329767Y-59945000D01*
X119329767Y-59909829D01*
X119391821Y-59899792D01*
X119418335Y-59888030D01*
X119433522Y-59870376D01*
X119438394Y-59849653D01*
X119431916Y-59821576D01*
X119405213Y-59771023D01*
X119344055Y-59685797D01*
X119025410Y-59286277D01*
X118974210Y-59328225D01*
X118974210Y-59704665D01*
X118978359Y-59805930D01*
X118986484Y-59843608D01*
X119003522Y-59868083D01*
X119033561Y-59890411D01*
X119074148Y-59904090D01*
X119145302Y-59909829D01*
X119145302Y-59945000D01*
X118444448Y-59945000D01*
X118444448Y-59909829D01*
X118490518Y-59909829D01*
X118547227Y-59903811D01*
X118587879Y-59887755D01*
X118610761Y-59868517D01*
X118628820Y-59837197D01*
X118636246Y-59802001D01*
X118640086Y-59704665D01*
X118640086Y-58796081D01*
X118636286Y-58696661D01*
X118628820Y-58659336D01*
X118612665Y-58634604D01*
X118583208Y-58611434D01*
X118545204Y-58596571D01*
X118490518Y-58590917D01*
X118444448Y-58590917D01*
X118444448Y-58555746D01*
X119136052Y-58555746D01*
X119136052Y-58590917D01*
X119070202Y-58596924D01*
X119028524Y-58611983D01*
X119005283Y-58631027D01*
X118986484Y-58661442D01*
X118978366Y-58697771D01*
X118974210Y-58796081D01*
X118974210Y-59217125D01*
X119489593Y-58804782D01*
X119557835Y-58741791D01*
X119588987Y-58697659D01*
X119597213Y-58666297D01*
X119586938Y-58632699D01*
X119553157Y-58605205D01*
X119522289Y-58597175D01*
X119441416Y-58590917D01*
X119441416Y-58555746D01*
X119983452Y-58555746D01*
X119983452Y-58590917D01*
X119915172Y-58600965D01*
X119869147Y-58617479D01*
X119815973Y-58652760D01*
X119678088Y-58761643D01*
X119271332Y-59087066D01*
G37*
G36*
X120671399Y-58967353D02*
G01*
X120742032Y-58986953D01*
X120797789Y-59017274D01*
X120846919Y-59058723D01*
X120880296Y-59099730D01*
X120900737Y-59140830D01*
X120910360Y-59196721D01*
X120915117Y-59335644D01*
X120915117Y-59702008D01*
X120920246Y-59783250D01*
X120935633Y-59807979D01*
X120959172Y-59816039D01*
X120984731Y-59809917D01*
X121013485Y-59788928D01*
X121044260Y-59806514D01*
X120989624Y-59877285D01*
X120938198Y-59921094D01*
X120880194Y-59947672D01*
X120813725Y-59956723D01*
X120760401Y-59951844D01*
X120718511Y-59938420D01*
X120685589Y-59917431D01*
X120659861Y-59888283D01*
X120640894Y-59849473D01*
X120629261Y-59798454D01*
X120534411Y-59874358D01*
X120451919Y-59922555D01*
X120379461Y-59948645D01*
X120314646Y-59956723D01*
X120262193Y-59950563D01*
X120217352Y-59932788D01*
X120178358Y-59903234D01*
X120148269Y-59864719D01*
X120130265Y-59820633D01*
X120124045Y-59769236D01*
X120134064Y-59700437D01*
X120145301Y-59676546D01*
X120404863Y-59676546D01*
X120413209Y-59720395D01*
X120438660Y-59759161D01*
X120468466Y-59779468D01*
X120510376Y-59786730D01*
X120542832Y-59781387D01*
X120581702Y-59763327D01*
X120629261Y-59728112D01*
X120629261Y-59410291D01*
X120549514Y-59462791D01*
X120489066Y-59514435D01*
X120444797Y-59565355D01*
X120414365Y-59622031D01*
X120404863Y-59676546D01*
X120145301Y-59676546D01*
X120164491Y-59635747D01*
X120218292Y-59573048D01*
X120287965Y-59520095D01*
X120416551Y-59445028D01*
X120629261Y-59341140D01*
X120629261Y-59242496D01*
X120625305Y-59141386D01*
X120617446Y-59102453D01*
X120601091Y-59076184D01*
X120572841Y-59052078D01*
X120538210Y-59035993D01*
X120499110Y-59030554D01*
X120436708Y-59038624D01*
X120389476Y-59060963D01*
X120369025Y-59082187D01*
X120362823Y-59105018D01*
X120368742Y-59127234D01*
X120391491Y-59159606D01*
X120421563Y-59205969D01*
X120430417Y-59246709D01*
X120421080Y-59294293D01*
X120392956Y-59334362D01*
X120350766Y-59361140D01*
X120295137Y-59370540D01*
X120235199Y-59360563D01*
X120187059Y-59331614D01*
X120154116Y-59288612D01*
X120143554Y-59240298D01*
X120149693Y-59193058D01*
X120168547Y-59146447D01*
X120201897Y-59099248D01*
X120244318Y-59059191D01*
X120297978Y-59024742D01*
X120364838Y-58996116D01*
X120471207Y-58969228D01*
X120582092Y-58960212D01*
X120671399Y-58967353D01*
G37*
G36*
X121931594Y-59697887D02*
G01*
X121963376Y-59722433D01*
X121912732Y-59802680D01*
X121856611Y-59865095D01*
X121794849Y-59912118D01*
X121725464Y-59946932D01*
X121654277Y-59967454D01*
X121580159Y-59974309D01*
X121487393Y-59964919D01*
X121406978Y-59937874D01*
X121336326Y-59893450D01*
X121273787Y-59830053D01*
X121224042Y-59755093D01*
X121188402Y-59673206D01*
X121166556Y-59583093D01*
X121159024Y-59483106D01*
X121165815Y-59386515D01*
X121185637Y-59297825D01*
X121218124Y-59215759D01*
X121263529Y-59139273D01*
X121318716Y-59073865D01*
X121380001Y-59024417D01*
X121448135Y-58989236D01*
X121524486Y-58967681D01*
X121610934Y-58960212D01*
X121707345Y-58969345D01*
X121784712Y-58994744D01*
X121847056Y-59034951D01*
X121897545Y-59089151D01*
X121925587Y-59144070D01*
X121934708Y-59201646D01*
X121925493Y-59255085D01*
X121899354Y-59294795D01*
X121859379Y-59320498D01*
X121806664Y-59329508D01*
X121750910Y-59319308D01*
X121706647Y-59289482D01*
X121685804Y-59259928D01*
X121669025Y-59214271D01*
X121658012Y-59146692D01*
X121646253Y-59087974D01*
X121628336Y-59056200D01*
X121602332Y-59036811D01*
X121572924Y-59030554D01*
X121542758Y-59035960D01*
X121515150Y-59052535D01*
X121488935Y-59082761D01*
X121461542Y-59138151D01*
X121442780Y-59216293D01*
X121435629Y-59324195D01*
X121446476Y-59456801D01*
X121478677Y-59582574D01*
X121512909Y-59661546D01*
X121552334Y-59721658D01*
X121596554Y-59766214D01*
X121636042Y-59790478D01*
X121680020Y-59805133D01*
X121729728Y-59810177D01*
X121778567Y-59804333D01*
X121824982Y-59786730D01*
X121870255Y-59756009D01*
X121931594Y-59697887D01*
G37*
G36*
X122473264Y-58555746D02*
G01*
X122473264Y-59114177D01*
X122553019Y-59038836D01*
X122617703Y-58995109D01*
X122684977Y-58968831D01*
X122753991Y-58960212D01*
X122812323Y-58966144D01*
X122863210Y-58983278D01*
X122908230Y-59011503D01*
X122962158Y-59068234D01*
X122993226Y-59132037D01*
X123007874Y-59213124D01*
X123014292Y-59365411D01*
X123014292Y-59739836D01*
X123021106Y-59838159D01*
X123034809Y-59875757D01*
X123062396Y-59896270D01*
X123117790Y-59909829D01*
X123117790Y-59945000D01*
X122632083Y-59945000D01*
X122632083Y-59909829D01*
X122677896Y-59895529D01*
X122708928Y-59869071D01*
X122721242Y-59832837D01*
X122727338Y-59739836D01*
X122727338Y-59313571D01*
X122724224Y-59205730D01*
X122718087Y-59164827D01*
X122705445Y-59137564D01*
X122686854Y-59117749D01*
X122663448Y-59105108D01*
X122637212Y-59100896D01*
X122597495Y-59107629D01*
X122557253Y-59128923D01*
X122519874Y-59163967D01*
X122473264Y-59227292D01*
X122473264Y-59739836D01*
X122478415Y-59832048D01*
X122488651Y-59867056D01*
X122516021Y-59893783D01*
X122568519Y-59909829D01*
X122568519Y-59945000D01*
X122082811Y-59945000D01*
X122082811Y-59909829D01*
X122136737Y-59896093D01*
X122168907Y-59871177D01*
X122180322Y-59837839D01*
X122186309Y-59739836D01*
X122186309Y-58760910D01*
X122179659Y-58662910D01*
X122166342Y-58625722D01*
X122139108Y-58605280D01*
X122082811Y-58590917D01*
X122082811Y-58555746D01*
X122473264Y-58555746D01*
G37*
G36*
X123639768Y-58555746D02*
G01*
X123639768Y-59114177D01*
X123719523Y-59038836D01*
X123784207Y-58995109D01*
X123851481Y-58968831D01*
X123920494Y-58960212D01*
X123978827Y-58966144D01*
X124029714Y-58983278D01*
X124074734Y-59011503D01*
X124128662Y-59068234D01*
X124159730Y-59132037D01*
X124174377Y-59213124D01*
X124180796Y-59365411D01*
X124180796Y-59739836D01*
X124187610Y-59838159D01*
X124201313Y-59875757D01*
X124228900Y-59896270D01*
X124284294Y-59909829D01*
X124284294Y-59945000D01*
X123798587Y-59945000D01*
X123798587Y-59909829D01*
X123844399Y-59895529D01*
X123875432Y-59869071D01*
X123887746Y-59832837D01*
X123893841Y-59739836D01*
X123893841Y-59313571D01*
X123890728Y-59205730D01*
X123884591Y-59164827D01*
X123871949Y-59137564D01*
X123853358Y-59117749D01*
X123829952Y-59105108D01*
X123803716Y-59100896D01*
X123763999Y-59107629D01*
X123723757Y-59128923D01*
X123686378Y-59163967D01*
X123639768Y-59227292D01*
X123639768Y-59739836D01*
X123644919Y-59832048D01*
X123655155Y-59867056D01*
X123682525Y-59893783D01*
X123735022Y-59909829D01*
X123735022Y-59945000D01*
X123249315Y-59945000D01*
X123249315Y-59909829D01*
X123303241Y-59896093D01*
X123335411Y-59871177D01*
X123346826Y-59837839D01*
X123352813Y-59739836D01*
X123352813Y-58760910D01*
X123346163Y-58662910D01*
X123332846Y-58625722D01*
X123305612Y-58605280D01*
X123249315Y-58590917D01*
X123249315Y-58555746D01*
X123639768Y-58555746D01*
G37*
G36*
X125364702Y-59974309D02*
G01*
X125102386Y-59270981D01*
X124845198Y-59974309D01*
X124791892Y-59974309D01*
X124536719Y-59282796D01*
X124477667Y-59136846D01*
X124439358Y-59072595D01*
X124408396Y-59044745D01*
X124361505Y-59024692D01*
X124361505Y-58989521D01*
X124845198Y-58989521D01*
X124845198Y-59024692D01*
X124800403Y-59029091D01*
X124777512Y-59039255D01*
X124763434Y-59055370D01*
X124759102Y-59072595D01*
X124764366Y-59098126D01*
X124791892Y-59178749D01*
X124932301Y-59551982D01*
X125067489Y-59179390D01*
X125057323Y-59152920D01*
X125025094Y-59083425D01*
X125003467Y-59054185D01*
X124976254Y-59037067D01*
X124932301Y-59024692D01*
X124932301Y-58989521D01*
X125423046Y-58989521D01*
X125423046Y-59024692D01*
X125371364Y-59031443D01*
X125350323Y-59040812D01*
X125338962Y-59056140D01*
X125334935Y-59077815D01*
X125340199Y-59106825D01*
X125364702Y-59178749D01*
X125499982Y-59551982D01*
X125622898Y-59208333D01*
X125644564Y-59138906D01*
X125649551Y-59106666D01*
X125644132Y-59070049D01*
X125630042Y-59047499D01*
X125605075Y-59033632D01*
X125554204Y-59024692D01*
X125554204Y-58989521D01*
X125838045Y-58989521D01*
X125838045Y-59024692D01*
X125794900Y-59036701D01*
X125763307Y-59058581D01*
X125737076Y-59099944D01*
X125691591Y-59215477D01*
X125423046Y-59974309D01*
X125364702Y-59974309D01*
G37*
G36*
X126500987Y-58967353D02*
G01*
X126571620Y-58986953D01*
X126627377Y-59017274D01*
X126676508Y-59058723D01*
X126709884Y-59099730D01*
X126730325Y-59140830D01*
X126739948Y-59196721D01*
X126744705Y-59335644D01*
X126744705Y-59702008D01*
X126749834Y-59783250D01*
X126765221Y-59807979D01*
X126788760Y-59816039D01*
X126814319Y-59809917D01*
X126843074Y-59788928D01*
X126873848Y-59806514D01*
X126819212Y-59877285D01*
X126767786Y-59921094D01*
X126709782Y-59947672D01*
X126643314Y-59956723D01*
X126589989Y-59951844D01*
X126548099Y-59938420D01*
X126515178Y-59917431D01*
X126489450Y-59888283D01*
X126470482Y-59849473D01*
X126458849Y-59798454D01*
X126363999Y-59874358D01*
X126281507Y-59922555D01*
X126209049Y-59948645D01*
X126144234Y-59956723D01*
X126091781Y-59950563D01*
X126046940Y-59932788D01*
X126007946Y-59903234D01*
X125977857Y-59864719D01*
X125959853Y-59820633D01*
X125953633Y-59769236D01*
X125963653Y-59700437D01*
X125974890Y-59676546D01*
X126234451Y-59676546D01*
X126242798Y-59720395D01*
X126268248Y-59759161D01*
X126298054Y-59779468D01*
X126339964Y-59786730D01*
X126372420Y-59781387D01*
X126411290Y-59763327D01*
X126458849Y-59728112D01*
X126458849Y-59410291D01*
X126379102Y-59462791D01*
X126318655Y-59514435D01*
X126274385Y-59565355D01*
X126243954Y-59622031D01*
X126234451Y-59676546D01*
X125974890Y-59676546D01*
X125994079Y-59635747D01*
X126047880Y-59573048D01*
X126117554Y-59520095D01*
X126246139Y-59445028D01*
X126458849Y-59341140D01*
X126458849Y-59242496D01*
X126454893Y-59141386D01*
X126447034Y-59102453D01*
X126430679Y-59076184D01*
X126402429Y-59052078D01*
X126367798Y-59035993D01*
X126328698Y-59030554D01*
X126266296Y-59038624D01*
X126219064Y-59060963D01*
X126198613Y-59082187D01*
X126192411Y-59105018D01*
X126198330Y-59127234D01*
X126221079Y-59159606D01*
X126251152Y-59205969D01*
X126260005Y-59246709D01*
X126250668Y-59294293D01*
X126222544Y-59334362D01*
X126180354Y-59361140D01*
X126124725Y-59370540D01*
X126064787Y-59360563D01*
X126016648Y-59331614D01*
X125983704Y-59288612D01*
X125973142Y-59240298D01*
X125979281Y-59193058D01*
X125998135Y-59146447D01*
X126031485Y-59099248D01*
X126073907Y-59059191D01*
X126127566Y-59024742D01*
X126194426Y-58996116D01*
X126300795Y-58969228D01*
X126411680Y-58960212D01*
X126500987Y-58967353D01*
G37*
G36*
X127370821Y-58555746D02*
G01*
X127370821Y-59114177D01*
X127450577Y-59038836D01*
X127515261Y-58995109D01*
X127582535Y-58968831D01*
X127651548Y-58960212D01*
X127709880Y-58966144D01*
X127760768Y-58983278D01*
X127805787Y-59011503D01*
X127859716Y-59068234D01*
X127890784Y-59132037D01*
X127905431Y-59213124D01*
X127911850Y-59365411D01*
X127911850Y-59739836D01*
X127918663Y-59838159D01*
X127932366Y-59875757D01*
X127959954Y-59896270D01*
X128015348Y-59909829D01*
X128015348Y-59945000D01*
X127529640Y-59945000D01*
X127529640Y-59909829D01*
X127575453Y-59895529D01*
X127606485Y-59869071D01*
X127618800Y-59832837D01*
X127624895Y-59739836D01*
X127624895Y-59313571D01*
X127621782Y-59205730D01*
X127615644Y-59164827D01*
X127603003Y-59137564D01*
X127584412Y-59117749D01*
X127561006Y-59105108D01*
X127534769Y-59100896D01*
X127495053Y-59107629D01*
X127454810Y-59128923D01*
X127417432Y-59163967D01*
X127370821Y-59227292D01*
X127370821Y-59739836D01*
X127375973Y-59832048D01*
X127386209Y-59867056D01*
X127413579Y-59893783D01*
X127466076Y-59909829D01*
X127466076Y-59945000D01*
X126980369Y-59945000D01*
X126980369Y-59909829D01*
X127034295Y-59896093D01*
X127066464Y-59871177D01*
X127077880Y-59837839D01*
X127083867Y-59739836D01*
X127083867Y-58760910D01*
X127077217Y-58662910D01*
X127063900Y-58625722D01*
X127036665Y-58605280D01*
X126980369Y-58590917D01*
X126980369Y-58555746D01*
X127370821Y-58555746D01*
G37*
G36*
X128716758Y-58967353D02*
G01*
X128787391Y-58986953D01*
X128843148Y-59017274D01*
X128892279Y-59058723D01*
X128925655Y-59099730D01*
X128946096Y-59140830D01*
X128955720Y-59196721D01*
X128960476Y-59335644D01*
X128960476Y-59702008D01*
X128965605Y-59783250D01*
X128980992Y-59807979D01*
X129004531Y-59816039D01*
X129030090Y-59809917D01*
X129058845Y-59788928D01*
X129089619Y-59806514D01*
X129034984Y-59877285D01*
X128983557Y-59921094D01*
X128925553Y-59947672D01*
X128859085Y-59956723D01*
X128805760Y-59951844D01*
X128763870Y-59938420D01*
X128730949Y-59917431D01*
X128705221Y-59888283D01*
X128686254Y-59849473D01*
X128674620Y-59798454D01*
X128579770Y-59874358D01*
X128497278Y-59922555D01*
X128424820Y-59948645D01*
X128360005Y-59956723D01*
X128307553Y-59950563D01*
X128262711Y-59932788D01*
X128223718Y-59903234D01*
X128193628Y-59864719D01*
X128175624Y-59820633D01*
X128169404Y-59769236D01*
X128179424Y-59700437D01*
X128190661Y-59676546D01*
X128450222Y-59676546D01*
X128458569Y-59720395D01*
X128484019Y-59759161D01*
X128513825Y-59779468D01*
X128555735Y-59786730D01*
X128588191Y-59781387D01*
X128627061Y-59763327D01*
X128674620Y-59728112D01*
X128674620Y-59410291D01*
X128594873Y-59462791D01*
X128534426Y-59514435D01*
X128490156Y-59565355D01*
X128459725Y-59622031D01*
X128450222Y-59676546D01*
X128190661Y-59676546D01*
X128209851Y-59635747D01*
X128263651Y-59573048D01*
X128333325Y-59520095D01*
X128461910Y-59445028D01*
X128674620Y-59341140D01*
X128674620Y-59242496D01*
X128670664Y-59141386D01*
X128662805Y-59102453D01*
X128646450Y-59076184D01*
X128618200Y-59052078D01*
X128583569Y-59035993D01*
X128544469Y-59030554D01*
X128482067Y-59038624D01*
X128434835Y-59060963D01*
X128414384Y-59082187D01*
X128408182Y-59105018D01*
X128414101Y-59127234D01*
X128436850Y-59159606D01*
X128466923Y-59205969D01*
X128475776Y-59246709D01*
X128466439Y-59294293D01*
X128438315Y-59334362D01*
X128396125Y-59361140D01*
X128340496Y-59370540D01*
X128280558Y-59360563D01*
X128232419Y-59331614D01*
X128199476Y-59288612D01*
X128188913Y-59240298D01*
X128195052Y-59193058D01*
X128213906Y-59146447D01*
X128247256Y-59099248D01*
X128289678Y-59059191D01*
X128343337Y-59024742D01*
X128410197Y-58996116D01*
X128516566Y-58969228D01*
X128627451Y-58960212D01*
X128716758Y-58967353D01*
G37*
D11*
X191844642Y-46772080D02*
X191797023Y-46819700D01*
X191797023Y-46819700D02*
X191654166Y-46867319D01*
X191654166Y-46867319D02*
X191558928Y-46867319D01*
X191558928Y-46867319D02*
X191416071Y-46819700D01*
X191416071Y-46819700D02*
X191320833Y-46724461D01*
X191320833Y-46724461D02*
X191273214Y-46629223D01*
X191273214Y-46629223D02*
X191225595Y-46438747D01*
X191225595Y-46438747D02*
X191225595Y-46295890D01*
X191225595Y-46295890D02*
X191273214Y-46105414D01*
X191273214Y-46105414D02*
X191320833Y-46010176D01*
X191320833Y-46010176D02*
X191416071Y-45914938D01*
X191416071Y-45914938D02*
X191558928Y-45867319D01*
X191558928Y-45867319D02*
X191654166Y-45867319D01*
X191654166Y-45867319D02*
X191797023Y-45914938D01*
X191797023Y-45914938D02*
X191844642Y-45962557D01*
X192225595Y-45962557D02*
X192273214Y-45914938D01*
X192273214Y-45914938D02*
X192368452Y-45867319D01*
X192368452Y-45867319D02*
X192606547Y-45867319D01*
X192606547Y-45867319D02*
X192701785Y-45914938D01*
X192701785Y-45914938D02*
X192749404Y-45962557D01*
X192749404Y-45962557D02*
X192797023Y-46057795D01*
X192797023Y-46057795D02*
X192797023Y-46153033D01*
X192797023Y-46153033D02*
X192749404Y-46295890D01*
X192749404Y-46295890D02*
X192177976Y-46867319D01*
X192177976Y-46867319D02*
X192797023Y-46867319D01*
X193130357Y-45867319D02*
X193749404Y-45867319D01*
X193749404Y-45867319D02*
X193416071Y-46248271D01*
X193416071Y-46248271D02*
X193558928Y-46248271D01*
X193558928Y-46248271D02*
X193654166Y-46295890D01*
X193654166Y-46295890D02*
X193701785Y-46343509D01*
X193701785Y-46343509D02*
X193749404Y-46438747D01*
X193749404Y-46438747D02*
X193749404Y-46676842D01*
X193749404Y-46676842D02*
X193701785Y-46772080D01*
X193701785Y-46772080D02*
X193654166Y-46819700D01*
X193654166Y-46819700D02*
X193558928Y-46867319D01*
X193558928Y-46867319D02*
X193273214Y-46867319D01*
X193273214Y-46867319D02*
X193177976Y-46819700D01*
X193177976Y-46819700D02*
X193130357Y-46772080D01*
X180847080Y-33055357D02*
X180894700Y-33102976D01*
X180894700Y-33102976D02*
X180942319Y-33245833D01*
X180942319Y-33245833D02*
X180942319Y-33341071D01*
X180942319Y-33341071D02*
X180894700Y-33483928D01*
X180894700Y-33483928D02*
X180799461Y-33579166D01*
X180799461Y-33579166D02*
X180704223Y-33626785D01*
X180704223Y-33626785D02*
X180513747Y-33674404D01*
X180513747Y-33674404D02*
X180370890Y-33674404D01*
X180370890Y-33674404D02*
X180180414Y-33626785D01*
X180180414Y-33626785D02*
X180085176Y-33579166D01*
X180085176Y-33579166D02*
X179989938Y-33483928D01*
X179989938Y-33483928D02*
X179942319Y-33341071D01*
X179942319Y-33341071D02*
X179942319Y-33245833D01*
X179942319Y-33245833D02*
X179989938Y-33102976D01*
X179989938Y-33102976D02*
X180037557Y-33055357D01*
X180037557Y-32674404D02*
X179989938Y-32626785D01*
X179989938Y-32626785D02*
X179942319Y-32531547D01*
X179942319Y-32531547D02*
X179942319Y-32293452D01*
X179942319Y-32293452D02*
X179989938Y-32198214D01*
X179989938Y-32198214D02*
X180037557Y-32150595D01*
X180037557Y-32150595D02*
X180132795Y-32102976D01*
X180132795Y-32102976D02*
X180228033Y-32102976D01*
X180228033Y-32102976D02*
X180370890Y-32150595D01*
X180370890Y-32150595D02*
X180942319Y-32722023D01*
X180942319Y-32722023D02*
X180942319Y-32102976D01*
X180275652Y-31245833D02*
X180942319Y-31245833D01*
X179894700Y-31483928D02*
X180608985Y-31722023D01*
X180608985Y-31722023D02*
X180608985Y-31102976D01*
X191844642Y-44772080D02*
X191797023Y-44819700D01*
X191797023Y-44819700D02*
X191654166Y-44867319D01*
X191654166Y-44867319D02*
X191558928Y-44867319D01*
X191558928Y-44867319D02*
X191416071Y-44819700D01*
X191416071Y-44819700D02*
X191320833Y-44724461D01*
X191320833Y-44724461D02*
X191273214Y-44629223D01*
X191273214Y-44629223D02*
X191225595Y-44438747D01*
X191225595Y-44438747D02*
X191225595Y-44295890D01*
X191225595Y-44295890D02*
X191273214Y-44105414D01*
X191273214Y-44105414D02*
X191320833Y-44010176D01*
X191320833Y-44010176D02*
X191416071Y-43914938D01*
X191416071Y-43914938D02*
X191558928Y-43867319D01*
X191558928Y-43867319D02*
X191654166Y-43867319D01*
X191654166Y-43867319D02*
X191797023Y-43914938D01*
X191797023Y-43914938D02*
X191844642Y-43962557D01*
X192225595Y-43962557D02*
X192273214Y-43914938D01*
X192273214Y-43914938D02*
X192368452Y-43867319D01*
X192368452Y-43867319D02*
X192606547Y-43867319D01*
X192606547Y-43867319D02*
X192701785Y-43914938D01*
X192701785Y-43914938D02*
X192749404Y-43962557D01*
X192749404Y-43962557D02*
X192797023Y-44057795D01*
X192797023Y-44057795D02*
X192797023Y-44153033D01*
X192797023Y-44153033D02*
X192749404Y-44295890D01*
X192749404Y-44295890D02*
X192177976Y-44867319D01*
X192177976Y-44867319D02*
X192797023Y-44867319D01*
X193177976Y-43962557D02*
X193225595Y-43914938D01*
X193225595Y-43914938D02*
X193320833Y-43867319D01*
X193320833Y-43867319D02*
X193558928Y-43867319D01*
X193558928Y-43867319D02*
X193654166Y-43914938D01*
X193654166Y-43914938D02*
X193701785Y-43962557D01*
X193701785Y-43962557D02*
X193749404Y-44057795D01*
X193749404Y-44057795D02*
X193749404Y-44153033D01*
X193749404Y-44153033D02*
X193701785Y-44295890D01*
X193701785Y-44295890D02*
X193130357Y-44867319D01*
X193130357Y-44867319D02*
X193749404Y-44867319D01*
X184847080Y-33055357D02*
X184894700Y-33102976D01*
X184894700Y-33102976D02*
X184942319Y-33245833D01*
X184942319Y-33245833D02*
X184942319Y-33341071D01*
X184942319Y-33341071D02*
X184894700Y-33483928D01*
X184894700Y-33483928D02*
X184799461Y-33579166D01*
X184799461Y-33579166D02*
X184704223Y-33626785D01*
X184704223Y-33626785D02*
X184513747Y-33674404D01*
X184513747Y-33674404D02*
X184370890Y-33674404D01*
X184370890Y-33674404D02*
X184180414Y-33626785D01*
X184180414Y-33626785D02*
X184085176Y-33579166D01*
X184085176Y-33579166D02*
X183989938Y-33483928D01*
X183989938Y-33483928D02*
X183942319Y-33341071D01*
X183942319Y-33341071D02*
X183942319Y-33245833D01*
X183942319Y-33245833D02*
X183989938Y-33102976D01*
X183989938Y-33102976D02*
X184037557Y-33055357D01*
X184037557Y-32674404D02*
X183989938Y-32626785D01*
X183989938Y-32626785D02*
X183942319Y-32531547D01*
X183942319Y-32531547D02*
X183942319Y-32293452D01*
X183942319Y-32293452D02*
X183989938Y-32198214D01*
X183989938Y-32198214D02*
X184037557Y-32150595D01*
X184037557Y-32150595D02*
X184132795Y-32102976D01*
X184132795Y-32102976D02*
X184228033Y-32102976D01*
X184228033Y-32102976D02*
X184370890Y-32150595D01*
X184370890Y-32150595D02*
X184942319Y-32722023D01*
X184942319Y-32722023D02*
X184942319Y-32102976D01*
X183942319Y-31198214D02*
X183942319Y-31674404D01*
X183942319Y-31674404D02*
X184418509Y-31722023D01*
X184418509Y-31722023D02*
X184370890Y-31674404D01*
X184370890Y-31674404D02*
X184323271Y-31579166D01*
X184323271Y-31579166D02*
X184323271Y-31341071D01*
X184323271Y-31341071D02*
X184370890Y-31245833D01*
X184370890Y-31245833D02*
X184418509Y-31198214D01*
X184418509Y-31198214D02*
X184513747Y-31150595D01*
X184513747Y-31150595D02*
X184751842Y-31150595D01*
X184751842Y-31150595D02*
X184847080Y-31198214D01*
X184847080Y-31198214D02*
X184894700Y-31245833D01*
X184894700Y-31245833D02*
X184942319Y-31341071D01*
X184942319Y-31341071D02*
X184942319Y-31579166D01*
X184942319Y-31579166D02*
X184894700Y-31674404D01*
X184894700Y-31674404D02*
X184847080Y-31722023D01*
X178847080Y-33055357D02*
X178894700Y-33102976D01*
X178894700Y-33102976D02*
X178942319Y-33245833D01*
X178942319Y-33245833D02*
X178942319Y-33341071D01*
X178942319Y-33341071D02*
X178894700Y-33483928D01*
X178894700Y-33483928D02*
X178799461Y-33579166D01*
X178799461Y-33579166D02*
X178704223Y-33626785D01*
X178704223Y-33626785D02*
X178513747Y-33674404D01*
X178513747Y-33674404D02*
X178370890Y-33674404D01*
X178370890Y-33674404D02*
X178180414Y-33626785D01*
X178180414Y-33626785D02*
X178085176Y-33579166D01*
X178085176Y-33579166D02*
X177989938Y-33483928D01*
X177989938Y-33483928D02*
X177942319Y-33341071D01*
X177942319Y-33341071D02*
X177942319Y-33245833D01*
X177942319Y-33245833D02*
X177989938Y-33102976D01*
X177989938Y-33102976D02*
X178037557Y-33055357D01*
X178037557Y-32674404D02*
X177989938Y-32626785D01*
X177989938Y-32626785D02*
X177942319Y-32531547D01*
X177942319Y-32531547D02*
X177942319Y-32293452D01*
X177942319Y-32293452D02*
X177989938Y-32198214D01*
X177989938Y-32198214D02*
X178037557Y-32150595D01*
X178037557Y-32150595D02*
X178132795Y-32102976D01*
X178132795Y-32102976D02*
X178228033Y-32102976D01*
X178228033Y-32102976D02*
X178370890Y-32150595D01*
X178370890Y-32150595D02*
X178942319Y-32722023D01*
X178942319Y-32722023D02*
X178942319Y-32102976D01*
X177942319Y-31769642D02*
X177942319Y-31102976D01*
X177942319Y-31102976D02*
X178942319Y-31531547D01*
X188844642Y-86772080D02*
X188797023Y-86819700D01*
X188797023Y-86819700D02*
X188654166Y-86867319D01*
X188654166Y-86867319D02*
X188558928Y-86867319D01*
X188558928Y-86867319D02*
X188416071Y-86819700D01*
X188416071Y-86819700D02*
X188320833Y-86724461D01*
X188320833Y-86724461D02*
X188273214Y-86629223D01*
X188273214Y-86629223D02*
X188225595Y-86438747D01*
X188225595Y-86438747D02*
X188225595Y-86295890D01*
X188225595Y-86295890D02*
X188273214Y-86105414D01*
X188273214Y-86105414D02*
X188320833Y-86010176D01*
X188320833Y-86010176D02*
X188416071Y-85914938D01*
X188416071Y-85914938D02*
X188558928Y-85867319D01*
X188558928Y-85867319D02*
X188654166Y-85867319D01*
X188654166Y-85867319D02*
X188797023Y-85914938D01*
X188797023Y-85914938D02*
X188844642Y-85962557D01*
X189177976Y-85867319D02*
X189797023Y-85867319D01*
X189797023Y-85867319D02*
X189463690Y-86248271D01*
X189463690Y-86248271D02*
X189606547Y-86248271D01*
X189606547Y-86248271D02*
X189701785Y-86295890D01*
X189701785Y-86295890D02*
X189749404Y-86343509D01*
X189749404Y-86343509D02*
X189797023Y-86438747D01*
X189797023Y-86438747D02*
X189797023Y-86676842D01*
X189797023Y-86676842D02*
X189749404Y-86772080D01*
X189749404Y-86772080D02*
X189701785Y-86819700D01*
X189701785Y-86819700D02*
X189606547Y-86867319D01*
X189606547Y-86867319D02*
X189320833Y-86867319D01*
X189320833Y-86867319D02*
X189225595Y-86819700D01*
X189225595Y-86819700D02*
X189177976Y-86772080D01*
X190654166Y-85867319D02*
X190463690Y-85867319D01*
X190463690Y-85867319D02*
X190368452Y-85914938D01*
X190368452Y-85914938D02*
X190320833Y-85962557D01*
X190320833Y-85962557D02*
X190225595Y-86105414D01*
X190225595Y-86105414D02*
X190177976Y-86295890D01*
X190177976Y-86295890D02*
X190177976Y-86676842D01*
X190177976Y-86676842D02*
X190225595Y-86772080D01*
X190225595Y-86772080D02*
X190273214Y-86819700D01*
X190273214Y-86819700D02*
X190368452Y-86867319D01*
X190368452Y-86867319D02*
X190558928Y-86867319D01*
X190558928Y-86867319D02*
X190654166Y-86819700D01*
X190654166Y-86819700D02*
X190701785Y-86772080D01*
X190701785Y-86772080D02*
X190749404Y-86676842D01*
X190749404Y-86676842D02*
X190749404Y-86438747D01*
X190749404Y-86438747D02*
X190701785Y-86343509D01*
X190701785Y-86343509D02*
X190654166Y-86295890D01*
X190654166Y-86295890D02*
X190558928Y-86248271D01*
X190558928Y-86248271D02*
X190368452Y-86248271D01*
X190368452Y-86248271D02*
X190273214Y-86295890D01*
X190273214Y-86295890D02*
X190225595Y-86343509D01*
X190225595Y-86343509D02*
X190177976Y-86438747D01*
X171833333Y-75454819D02*
X171357143Y-75454819D01*
X171357143Y-75454819D02*
X171357143Y-74454819D01*
X172595238Y-74454819D02*
X172404762Y-74454819D01*
X172404762Y-74454819D02*
X172309524Y-74502438D01*
X172309524Y-74502438D02*
X172261905Y-74550057D01*
X172261905Y-74550057D02*
X172166667Y-74692914D01*
X172166667Y-74692914D02*
X172119048Y-74883390D01*
X172119048Y-74883390D02*
X172119048Y-75264342D01*
X172119048Y-75264342D02*
X172166667Y-75359580D01*
X172166667Y-75359580D02*
X172214286Y-75407200D01*
X172214286Y-75407200D02*
X172309524Y-75454819D01*
X172309524Y-75454819D02*
X172500000Y-75454819D01*
X172500000Y-75454819D02*
X172595238Y-75407200D01*
X172595238Y-75407200D02*
X172642857Y-75359580D01*
X172642857Y-75359580D02*
X172690476Y-75264342D01*
X172690476Y-75264342D02*
X172690476Y-75026247D01*
X172690476Y-75026247D02*
X172642857Y-74931009D01*
X172642857Y-74931009D02*
X172595238Y-74883390D01*
X172595238Y-74883390D02*
X172500000Y-74835771D01*
X172500000Y-74835771D02*
X172309524Y-74835771D01*
X172309524Y-74835771D02*
X172214286Y-74883390D01*
X172214286Y-74883390D02*
X172166667Y-74931009D01*
X172166667Y-74931009D02*
X172119048Y-75026247D01*
X153844642Y-38454819D02*
X153511309Y-37978628D01*
X153273214Y-38454819D02*
X153273214Y-37454819D01*
X153273214Y-37454819D02*
X153654166Y-37454819D01*
X153654166Y-37454819D02*
X153749404Y-37502438D01*
X153749404Y-37502438D02*
X153797023Y-37550057D01*
X153797023Y-37550057D02*
X153844642Y-37645295D01*
X153844642Y-37645295D02*
X153844642Y-37788152D01*
X153844642Y-37788152D02*
X153797023Y-37883390D01*
X153797023Y-37883390D02*
X153749404Y-37931009D01*
X153749404Y-37931009D02*
X153654166Y-37978628D01*
X153654166Y-37978628D02*
X153273214Y-37978628D01*
X154797023Y-38454819D02*
X154225595Y-38454819D01*
X154511309Y-38454819D02*
X154511309Y-37454819D01*
X154511309Y-37454819D02*
X154416071Y-37597676D01*
X154416071Y-37597676D02*
X154320833Y-37692914D01*
X154320833Y-37692914D02*
X154225595Y-37740533D01*
X155177976Y-37550057D02*
X155225595Y-37502438D01*
X155225595Y-37502438D02*
X155320833Y-37454819D01*
X155320833Y-37454819D02*
X155558928Y-37454819D01*
X155558928Y-37454819D02*
X155654166Y-37502438D01*
X155654166Y-37502438D02*
X155701785Y-37550057D01*
X155701785Y-37550057D02*
X155749404Y-37645295D01*
X155749404Y-37645295D02*
X155749404Y-37740533D01*
X155749404Y-37740533D02*
X155701785Y-37883390D01*
X155701785Y-37883390D02*
X155130357Y-38454819D01*
X155130357Y-38454819D02*
X155749404Y-38454819D01*
X164844642Y-33342080D02*
X164797023Y-33389700D01*
X164797023Y-33389700D02*
X164654166Y-33437319D01*
X164654166Y-33437319D02*
X164558928Y-33437319D01*
X164558928Y-33437319D02*
X164416071Y-33389700D01*
X164416071Y-33389700D02*
X164320833Y-33294461D01*
X164320833Y-33294461D02*
X164273214Y-33199223D01*
X164273214Y-33199223D02*
X164225595Y-33008747D01*
X164225595Y-33008747D02*
X164225595Y-32865890D01*
X164225595Y-32865890D02*
X164273214Y-32675414D01*
X164273214Y-32675414D02*
X164320833Y-32580176D01*
X164320833Y-32580176D02*
X164416071Y-32484938D01*
X164416071Y-32484938D02*
X164558928Y-32437319D01*
X164558928Y-32437319D02*
X164654166Y-32437319D01*
X164654166Y-32437319D02*
X164797023Y-32484938D01*
X164797023Y-32484938D02*
X164844642Y-32532557D01*
X165797023Y-33437319D02*
X165225595Y-33437319D01*
X165511309Y-33437319D02*
X165511309Y-32437319D01*
X165511309Y-32437319D02*
X165416071Y-32580176D01*
X165416071Y-32580176D02*
X165320833Y-32675414D01*
X165320833Y-32675414D02*
X165225595Y-32723033D01*
X166130357Y-32437319D02*
X166749404Y-32437319D01*
X166749404Y-32437319D02*
X166416071Y-32818271D01*
X166416071Y-32818271D02*
X166558928Y-32818271D01*
X166558928Y-32818271D02*
X166654166Y-32865890D01*
X166654166Y-32865890D02*
X166701785Y-32913509D01*
X166701785Y-32913509D02*
X166749404Y-33008747D01*
X166749404Y-33008747D02*
X166749404Y-33246842D01*
X166749404Y-33246842D02*
X166701785Y-33342080D01*
X166701785Y-33342080D02*
X166654166Y-33389700D01*
X166654166Y-33389700D02*
X166558928Y-33437319D01*
X166558928Y-33437319D02*
X166273214Y-33437319D01*
X166273214Y-33437319D02*
X166177976Y-33389700D01*
X166177976Y-33389700D02*
X166130357Y-33342080D01*
X184844642Y-54772080D02*
X184797023Y-54819700D01*
X184797023Y-54819700D02*
X184654166Y-54867319D01*
X184654166Y-54867319D02*
X184558928Y-54867319D01*
X184558928Y-54867319D02*
X184416071Y-54819700D01*
X184416071Y-54819700D02*
X184320833Y-54724461D01*
X184320833Y-54724461D02*
X184273214Y-54629223D01*
X184273214Y-54629223D02*
X184225595Y-54438747D01*
X184225595Y-54438747D02*
X184225595Y-54295890D01*
X184225595Y-54295890D02*
X184273214Y-54105414D01*
X184273214Y-54105414D02*
X184320833Y-54010176D01*
X184320833Y-54010176D02*
X184416071Y-53914938D01*
X184416071Y-53914938D02*
X184558928Y-53867319D01*
X184558928Y-53867319D02*
X184654166Y-53867319D01*
X184654166Y-53867319D02*
X184797023Y-53914938D01*
X184797023Y-53914938D02*
X184844642Y-53962557D01*
X185177976Y-53867319D02*
X185797023Y-53867319D01*
X185797023Y-53867319D02*
X185463690Y-54248271D01*
X185463690Y-54248271D02*
X185606547Y-54248271D01*
X185606547Y-54248271D02*
X185701785Y-54295890D01*
X185701785Y-54295890D02*
X185749404Y-54343509D01*
X185749404Y-54343509D02*
X185797023Y-54438747D01*
X185797023Y-54438747D02*
X185797023Y-54676842D01*
X185797023Y-54676842D02*
X185749404Y-54772080D01*
X185749404Y-54772080D02*
X185701785Y-54819700D01*
X185701785Y-54819700D02*
X185606547Y-54867319D01*
X185606547Y-54867319D02*
X185320833Y-54867319D01*
X185320833Y-54867319D02*
X185225595Y-54819700D01*
X185225595Y-54819700D02*
X185177976Y-54772080D01*
X186749404Y-54867319D02*
X186177976Y-54867319D01*
X186463690Y-54867319D02*
X186463690Y-53867319D01*
X186463690Y-53867319D02*
X186368452Y-54010176D01*
X186368452Y-54010176D02*
X186273214Y-54105414D01*
X186273214Y-54105414D02*
X186177976Y-54153033D01*
X174967319Y-42642857D02*
X174491128Y-42976190D01*
X174967319Y-43214285D02*
X173967319Y-43214285D01*
X173967319Y-43214285D02*
X173967319Y-42833333D01*
X173967319Y-42833333D02*
X174014938Y-42738095D01*
X174014938Y-42738095D02*
X174062557Y-42690476D01*
X174062557Y-42690476D02*
X174157795Y-42642857D01*
X174157795Y-42642857D02*
X174300652Y-42642857D01*
X174300652Y-42642857D02*
X174395890Y-42690476D01*
X174395890Y-42690476D02*
X174443509Y-42738095D01*
X174443509Y-42738095D02*
X174491128Y-42833333D01*
X174491128Y-42833333D02*
X174491128Y-43214285D01*
X174967319Y-41690476D02*
X174967319Y-42261904D01*
X174967319Y-41976190D02*
X173967319Y-41976190D01*
X173967319Y-41976190D02*
X174110176Y-42071428D01*
X174110176Y-42071428D02*
X174205414Y-42166666D01*
X174205414Y-42166666D02*
X174253033Y-42261904D01*
X174967319Y-41214285D02*
X174967319Y-41023809D01*
X174967319Y-41023809D02*
X174919700Y-40928571D01*
X174919700Y-40928571D02*
X174872080Y-40880952D01*
X174872080Y-40880952D02*
X174729223Y-40785714D01*
X174729223Y-40785714D02*
X174538747Y-40738095D01*
X174538747Y-40738095D02*
X174157795Y-40738095D01*
X174157795Y-40738095D02*
X174062557Y-40785714D01*
X174062557Y-40785714D02*
X174014938Y-40833333D01*
X174014938Y-40833333D02*
X173967319Y-40928571D01*
X173967319Y-40928571D02*
X173967319Y-41119047D01*
X173967319Y-41119047D02*
X174014938Y-41214285D01*
X174014938Y-41214285D02*
X174062557Y-41261904D01*
X174062557Y-41261904D02*
X174157795Y-41309523D01*
X174157795Y-41309523D02*
X174395890Y-41309523D01*
X174395890Y-41309523D02*
X174491128Y-41261904D01*
X174491128Y-41261904D02*
X174538747Y-41214285D01*
X174538747Y-41214285D02*
X174586366Y-41119047D01*
X174586366Y-41119047D02*
X174586366Y-40928571D01*
X174586366Y-40928571D02*
X174538747Y-40833333D01*
X174538747Y-40833333D02*
X174491128Y-40785714D01*
X174491128Y-40785714D02*
X174395890Y-40738095D01*
X181844642Y-53772080D02*
X181797023Y-53819700D01*
X181797023Y-53819700D02*
X181654166Y-53867319D01*
X181654166Y-53867319D02*
X181558928Y-53867319D01*
X181558928Y-53867319D02*
X181416071Y-53819700D01*
X181416071Y-53819700D02*
X181320833Y-53724461D01*
X181320833Y-53724461D02*
X181273214Y-53629223D01*
X181273214Y-53629223D02*
X181225595Y-53438747D01*
X181225595Y-53438747D02*
X181225595Y-53295890D01*
X181225595Y-53295890D02*
X181273214Y-53105414D01*
X181273214Y-53105414D02*
X181320833Y-53010176D01*
X181320833Y-53010176D02*
X181416071Y-52914938D01*
X181416071Y-52914938D02*
X181558928Y-52867319D01*
X181558928Y-52867319D02*
X181654166Y-52867319D01*
X181654166Y-52867319D02*
X181797023Y-52914938D01*
X181797023Y-52914938D02*
X181844642Y-52962557D01*
X182177976Y-52867319D02*
X182797023Y-52867319D01*
X182797023Y-52867319D02*
X182463690Y-53248271D01*
X182463690Y-53248271D02*
X182606547Y-53248271D01*
X182606547Y-53248271D02*
X182701785Y-53295890D01*
X182701785Y-53295890D02*
X182749404Y-53343509D01*
X182749404Y-53343509D02*
X182797023Y-53438747D01*
X182797023Y-53438747D02*
X182797023Y-53676842D01*
X182797023Y-53676842D02*
X182749404Y-53772080D01*
X182749404Y-53772080D02*
X182701785Y-53819700D01*
X182701785Y-53819700D02*
X182606547Y-53867319D01*
X182606547Y-53867319D02*
X182320833Y-53867319D01*
X182320833Y-53867319D02*
X182225595Y-53819700D01*
X182225595Y-53819700D02*
X182177976Y-53772080D01*
X183416071Y-52867319D02*
X183511309Y-52867319D01*
X183511309Y-52867319D02*
X183606547Y-52914938D01*
X183606547Y-52914938D02*
X183654166Y-52962557D01*
X183654166Y-52962557D02*
X183701785Y-53057795D01*
X183701785Y-53057795D02*
X183749404Y-53248271D01*
X183749404Y-53248271D02*
X183749404Y-53486366D01*
X183749404Y-53486366D02*
X183701785Y-53676842D01*
X183701785Y-53676842D02*
X183654166Y-53772080D01*
X183654166Y-53772080D02*
X183606547Y-53819700D01*
X183606547Y-53819700D02*
X183511309Y-53867319D01*
X183511309Y-53867319D02*
X183416071Y-53867319D01*
X183416071Y-53867319D02*
X183320833Y-53819700D01*
X183320833Y-53819700D02*
X183273214Y-53772080D01*
X183273214Y-53772080D02*
X183225595Y-53676842D01*
X183225595Y-53676842D02*
X183177976Y-53486366D01*
X183177976Y-53486366D02*
X183177976Y-53248271D01*
X183177976Y-53248271D02*
X183225595Y-53057795D01*
X183225595Y-53057795D02*
X183273214Y-52962557D01*
X183273214Y-52962557D02*
X183320833Y-52914938D01*
X183320833Y-52914938D02*
X183416071Y-52867319D01*
X118320833Y-70772080D02*
X118273214Y-70819700D01*
X118273214Y-70819700D02*
X118130357Y-70867319D01*
X118130357Y-70867319D02*
X118035119Y-70867319D01*
X118035119Y-70867319D02*
X117892262Y-70819700D01*
X117892262Y-70819700D02*
X117797024Y-70724461D01*
X117797024Y-70724461D02*
X117749405Y-70629223D01*
X117749405Y-70629223D02*
X117701786Y-70438747D01*
X117701786Y-70438747D02*
X117701786Y-70295890D01*
X117701786Y-70295890D02*
X117749405Y-70105414D01*
X117749405Y-70105414D02*
X117797024Y-70010176D01*
X117797024Y-70010176D02*
X117892262Y-69914938D01*
X117892262Y-69914938D02*
X118035119Y-69867319D01*
X118035119Y-69867319D02*
X118130357Y-69867319D01*
X118130357Y-69867319D02*
X118273214Y-69914938D01*
X118273214Y-69914938D02*
X118320833Y-69962557D01*
X119177976Y-70200652D02*
X119177976Y-70867319D01*
X118939881Y-69819700D02*
X118701786Y-70533985D01*
X118701786Y-70533985D02*
X119320833Y-70533985D01*
X100942319Y-36055357D02*
X100466128Y-36388690D01*
X100942319Y-36626785D02*
X99942319Y-36626785D01*
X99942319Y-36626785D02*
X99942319Y-36245833D01*
X99942319Y-36245833D02*
X99989938Y-36150595D01*
X99989938Y-36150595D02*
X100037557Y-36102976D01*
X100037557Y-36102976D02*
X100132795Y-36055357D01*
X100132795Y-36055357D02*
X100275652Y-36055357D01*
X100275652Y-36055357D02*
X100370890Y-36102976D01*
X100370890Y-36102976D02*
X100418509Y-36150595D01*
X100418509Y-36150595D02*
X100466128Y-36245833D01*
X100466128Y-36245833D02*
X100466128Y-36626785D01*
X100942319Y-35102976D02*
X100942319Y-35674404D01*
X100942319Y-35388690D02*
X99942319Y-35388690D01*
X99942319Y-35388690D02*
X100085176Y-35483928D01*
X100085176Y-35483928D02*
X100180414Y-35579166D01*
X100180414Y-35579166D02*
X100228033Y-35674404D01*
X100370890Y-34531547D02*
X100323271Y-34626785D01*
X100323271Y-34626785D02*
X100275652Y-34674404D01*
X100275652Y-34674404D02*
X100180414Y-34722023D01*
X100180414Y-34722023D02*
X100132795Y-34722023D01*
X100132795Y-34722023D02*
X100037557Y-34674404D01*
X100037557Y-34674404D02*
X99989938Y-34626785D01*
X99989938Y-34626785D02*
X99942319Y-34531547D01*
X99942319Y-34531547D02*
X99942319Y-34341071D01*
X99942319Y-34341071D02*
X99989938Y-34245833D01*
X99989938Y-34245833D02*
X100037557Y-34198214D01*
X100037557Y-34198214D02*
X100132795Y-34150595D01*
X100132795Y-34150595D02*
X100180414Y-34150595D01*
X100180414Y-34150595D02*
X100275652Y-34198214D01*
X100275652Y-34198214D02*
X100323271Y-34245833D01*
X100323271Y-34245833D02*
X100370890Y-34341071D01*
X100370890Y-34341071D02*
X100370890Y-34531547D01*
X100370890Y-34531547D02*
X100418509Y-34626785D01*
X100418509Y-34626785D02*
X100466128Y-34674404D01*
X100466128Y-34674404D02*
X100561366Y-34722023D01*
X100561366Y-34722023D02*
X100751842Y-34722023D01*
X100751842Y-34722023D02*
X100847080Y-34674404D01*
X100847080Y-34674404D02*
X100894700Y-34626785D01*
X100894700Y-34626785D02*
X100942319Y-34531547D01*
X100942319Y-34531547D02*
X100942319Y-34341071D01*
X100942319Y-34341071D02*
X100894700Y-34245833D01*
X100894700Y-34245833D02*
X100847080Y-34198214D01*
X100847080Y-34198214D02*
X100751842Y-34150595D01*
X100751842Y-34150595D02*
X100561366Y-34150595D01*
X100561366Y-34150595D02*
X100466128Y-34198214D01*
X100466128Y-34198214D02*
X100418509Y-34245833D01*
X100418509Y-34245833D02*
X100370890Y-34341071D01*
X117933333Y-64159580D02*
X117885714Y-64207200D01*
X117885714Y-64207200D02*
X117742857Y-64254819D01*
X117742857Y-64254819D02*
X117647619Y-64254819D01*
X117647619Y-64254819D02*
X117504762Y-64207200D01*
X117504762Y-64207200D02*
X117409524Y-64111961D01*
X117409524Y-64111961D02*
X117361905Y-64016723D01*
X117361905Y-64016723D02*
X117314286Y-63826247D01*
X117314286Y-63826247D02*
X117314286Y-63683390D01*
X117314286Y-63683390D02*
X117361905Y-63492914D01*
X117361905Y-63492914D02*
X117409524Y-63397676D01*
X117409524Y-63397676D02*
X117504762Y-63302438D01*
X117504762Y-63302438D02*
X117647619Y-63254819D01*
X117647619Y-63254819D02*
X117742857Y-63254819D01*
X117742857Y-63254819D02*
X117885714Y-63302438D01*
X117885714Y-63302438D02*
X117933333Y-63350057D01*
X118838095Y-63254819D02*
X118361905Y-63254819D01*
X118361905Y-63254819D02*
X118314286Y-63731009D01*
X118314286Y-63731009D02*
X118361905Y-63683390D01*
X118361905Y-63683390D02*
X118457143Y-63635771D01*
X118457143Y-63635771D02*
X118695238Y-63635771D01*
X118695238Y-63635771D02*
X118790476Y-63683390D01*
X118790476Y-63683390D02*
X118838095Y-63731009D01*
X118838095Y-63731009D02*
X118885714Y-63826247D01*
X118885714Y-63826247D02*
X118885714Y-64064342D01*
X118885714Y-64064342D02*
X118838095Y-64159580D01*
X118838095Y-64159580D02*
X118790476Y-64207200D01*
X118790476Y-64207200D02*
X118695238Y-64254819D01*
X118695238Y-64254819D02*
X118457143Y-64254819D01*
X118457143Y-64254819D02*
X118361905Y-64207200D01*
X118361905Y-64207200D02*
X118314286Y-64159580D01*
X95320833Y-24559580D02*
X95273214Y-24607200D01*
X95273214Y-24607200D02*
X95130357Y-24654819D01*
X95130357Y-24654819D02*
X95035119Y-24654819D01*
X95035119Y-24654819D02*
X94892262Y-24607200D01*
X94892262Y-24607200D02*
X94797024Y-24511961D01*
X94797024Y-24511961D02*
X94749405Y-24416723D01*
X94749405Y-24416723D02*
X94701786Y-24226247D01*
X94701786Y-24226247D02*
X94701786Y-24083390D01*
X94701786Y-24083390D02*
X94749405Y-23892914D01*
X94749405Y-23892914D02*
X94797024Y-23797676D01*
X94797024Y-23797676D02*
X94892262Y-23702438D01*
X94892262Y-23702438D02*
X95035119Y-23654819D01*
X95035119Y-23654819D02*
X95130357Y-23654819D01*
X95130357Y-23654819D02*
X95273214Y-23702438D01*
X95273214Y-23702438D02*
X95320833Y-23750057D01*
X96177976Y-23654819D02*
X95987500Y-23654819D01*
X95987500Y-23654819D02*
X95892262Y-23702438D01*
X95892262Y-23702438D02*
X95844643Y-23750057D01*
X95844643Y-23750057D02*
X95749405Y-23892914D01*
X95749405Y-23892914D02*
X95701786Y-24083390D01*
X95701786Y-24083390D02*
X95701786Y-24464342D01*
X95701786Y-24464342D02*
X95749405Y-24559580D01*
X95749405Y-24559580D02*
X95797024Y-24607200D01*
X95797024Y-24607200D02*
X95892262Y-24654819D01*
X95892262Y-24654819D02*
X96082738Y-24654819D01*
X96082738Y-24654819D02*
X96177976Y-24607200D01*
X96177976Y-24607200D02*
X96225595Y-24559580D01*
X96225595Y-24559580D02*
X96273214Y-24464342D01*
X96273214Y-24464342D02*
X96273214Y-24226247D01*
X96273214Y-24226247D02*
X96225595Y-24131009D01*
X96225595Y-24131009D02*
X96177976Y-24083390D01*
X96177976Y-24083390D02*
X96082738Y-24035771D01*
X96082738Y-24035771D02*
X95892262Y-24035771D01*
X95892262Y-24035771D02*
X95797024Y-24083390D01*
X95797024Y-24083390D02*
X95749405Y-24131009D01*
X95749405Y-24131009D02*
X95701786Y-24226247D01*
X106749405Y-68867319D02*
X106749405Y-67867319D01*
X106749405Y-67867319D02*
X106987500Y-67867319D01*
X106987500Y-67867319D02*
X107130357Y-67914938D01*
X107130357Y-67914938D02*
X107225595Y-68010176D01*
X107225595Y-68010176D02*
X107273214Y-68105414D01*
X107273214Y-68105414D02*
X107320833Y-68295890D01*
X107320833Y-68295890D02*
X107320833Y-68438747D01*
X107320833Y-68438747D02*
X107273214Y-68629223D01*
X107273214Y-68629223D02*
X107225595Y-68724461D01*
X107225595Y-68724461D02*
X107130357Y-68819700D01*
X107130357Y-68819700D02*
X106987500Y-68867319D01*
X106987500Y-68867319D02*
X106749405Y-68867319D01*
X107701786Y-67962557D02*
X107749405Y-67914938D01*
X107749405Y-67914938D02*
X107844643Y-67867319D01*
X107844643Y-67867319D02*
X108082738Y-67867319D01*
X108082738Y-67867319D02*
X108177976Y-67914938D01*
X108177976Y-67914938D02*
X108225595Y-67962557D01*
X108225595Y-67962557D02*
X108273214Y-68057795D01*
X108273214Y-68057795D02*
X108273214Y-68153033D01*
X108273214Y-68153033D02*
X108225595Y-68295890D01*
X108225595Y-68295890D02*
X107654167Y-68867319D01*
X107654167Y-68867319D02*
X108273214Y-68867319D01*
X186844642Y-50202080D02*
X186797023Y-50249700D01*
X186797023Y-50249700D02*
X186654166Y-50297319D01*
X186654166Y-50297319D02*
X186558928Y-50297319D01*
X186558928Y-50297319D02*
X186416071Y-50249700D01*
X186416071Y-50249700D02*
X186320833Y-50154461D01*
X186320833Y-50154461D02*
X186273214Y-50059223D01*
X186273214Y-50059223D02*
X186225595Y-49868747D01*
X186225595Y-49868747D02*
X186225595Y-49725890D01*
X186225595Y-49725890D02*
X186273214Y-49535414D01*
X186273214Y-49535414D02*
X186320833Y-49440176D01*
X186320833Y-49440176D02*
X186416071Y-49344938D01*
X186416071Y-49344938D02*
X186558928Y-49297319D01*
X186558928Y-49297319D02*
X186654166Y-49297319D01*
X186654166Y-49297319D02*
X186797023Y-49344938D01*
X186797023Y-49344938D02*
X186844642Y-49392557D01*
X187177976Y-49297319D02*
X187797023Y-49297319D01*
X187797023Y-49297319D02*
X187463690Y-49678271D01*
X187463690Y-49678271D02*
X187606547Y-49678271D01*
X187606547Y-49678271D02*
X187701785Y-49725890D01*
X187701785Y-49725890D02*
X187749404Y-49773509D01*
X187749404Y-49773509D02*
X187797023Y-49868747D01*
X187797023Y-49868747D02*
X187797023Y-50106842D01*
X187797023Y-50106842D02*
X187749404Y-50202080D01*
X187749404Y-50202080D02*
X187701785Y-50249700D01*
X187701785Y-50249700D02*
X187606547Y-50297319D01*
X187606547Y-50297319D02*
X187320833Y-50297319D01*
X187320833Y-50297319D02*
X187225595Y-50249700D01*
X187225595Y-50249700D02*
X187177976Y-50202080D01*
X188177976Y-49392557D02*
X188225595Y-49344938D01*
X188225595Y-49344938D02*
X188320833Y-49297319D01*
X188320833Y-49297319D02*
X188558928Y-49297319D01*
X188558928Y-49297319D02*
X188654166Y-49344938D01*
X188654166Y-49344938D02*
X188701785Y-49392557D01*
X188701785Y-49392557D02*
X188749404Y-49487795D01*
X188749404Y-49487795D02*
X188749404Y-49583033D01*
X188749404Y-49583033D02*
X188701785Y-49725890D01*
X188701785Y-49725890D02*
X188130357Y-50297319D01*
X188130357Y-50297319D02*
X188749404Y-50297319D01*
X106133333Y-90297319D02*
X105800000Y-89821128D01*
X105561905Y-90297319D02*
X105561905Y-89297319D01*
X105561905Y-89297319D02*
X105942857Y-89297319D01*
X105942857Y-89297319D02*
X106038095Y-89344938D01*
X106038095Y-89344938D02*
X106085714Y-89392557D01*
X106085714Y-89392557D02*
X106133333Y-89487795D01*
X106133333Y-89487795D02*
X106133333Y-89630652D01*
X106133333Y-89630652D02*
X106085714Y-89725890D01*
X106085714Y-89725890D02*
X106038095Y-89773509D01*
X106038095Y-89773509D02*
X105942857Y-89821128D01*
X105942857Y-89821128D02*
X105561905Y-89821128D01*
X106514286Y-89392557D02*
X106561905Y-89344938D01*
X106561905Y-89344938D02*
X106657143Y-89297319D01*
X106657143Y-89297319D02*
X106895238Y-89297319D01*
X106895238Y-89297319D02*
X106990476Y-89344938D01*
X106990476Y-89344938D02*
X107038095Y-89392557D01*
X107038095Y-89392557D02*
X107085714Y-89487795D01*
X107085714Y-89487795D02*
X107085714Y-89583033D01*
X107085714Y-89583033D02*
X107038095Y-89725890D01*
X107038095Y-89725890D02*
X106466667Y-90297319D01*
X106466667Y-90297319D02*
X107085714Y-90297319D01*
X119844642Y-76867319D02*
X119511309Y-76391128D01*
X119273214Y-76867319D02*
X119273214Y-75867319D01*
X119273214Y-75867319D02*
X119654166Y-75867319D01*
X119654166Y-75867319D02*
X119749404Y-75914938D01*
X119749404Y-75914938D02*
X119797023Y-75962557D01*
X119797023Y-75962557D02*
X119844642Y-76057795D01*
X119844642Y-76057795D02*
X119844642Y-76200652D01*
X119844642Y-76200652D02*
X119797023Y-76295890D01*
X119797023Y-76295890D02*
X119749404Y-76343509D01*
X119749404Y-76343509D02*
X119654166Y-76391128D01*
X119654166Y-76391128D02*
X119273214Y-76391128D01*
X120797023Y-76867319D02*
X120225595Y-76867319D01*
X120511309Y-76867319D02*
X120511309Y-75867319D01*
X120511309Y-75867319D02*
X120416071Y-76010176D01*
X120416071Y-76010176D02*
X120320833Y-76105414D01*
X120320833Y-76105414D02*
X120225595Y-76153033D01*
X121654166Y-75867319D02*
X121463690Y-75867319D01*
X121463690Y-75867319D02*
X121368452Y-75914938D01*
X121368452Y-75914938D02*
X121320833Y-75962557D01*
X121320833Y-75962557D02*
X121225595Y-76105414D01*
X121225595Y-76105414D02*
X121177976Y-76295890D01*
X121177976Y-76295890D02*
X121177976Y-76676842D01*
X121177976Y-76676842D02*
X121225595Y-76772080D01*
X121225595Y-76772080D02*
X121273214Y-76819700D01*
X121273214Y-76819700D02*
X121368452Y-76867319D01*
X121368452Y-76867319D02*
X121558928Y-76867319D01*
X121558928Y-76867319D02*
X121654166Y-76819700D01*
X121654166Y-76819700D02*
X121701785Y-76772080D01*
X121701785Y-76772080D02*
X121749404Y-76676842D01*
X121749404Y-76676842D02*
X121749404Y-76438747D01*
X121749404Y-76438747D02*
X121701785Y-76343509D01*
X121701785Y-76343509D02*
X121654166Y-76295890D01*
X121654166Y-76295890D02*
X121558928Y-76248271D01*
X121558928Y-76248271D02*
X121368452Y-76248271D01*
X121368452Y-76248271D02*
X121273214Y-76295890D01*
X121273214Y-76295890D02*
X121225595Y-76343509D01*
X121225595Y-76343509D02*
X121177976Y-76438747D01*
X163847080Y-41055357D02*
X163894700Y-41102976D01*
X163894700Y-41102976D02*
X163942319Y-41245833D01*
X163942319Y-41245833D02*
X163942319Y-41341071D01*
X163942319Y-41341071D02*
X163894700Y-41483928D01*
X163894700Y-41483928D02*
X163799461Y-41579166D01*
X163799461Y-41579166D02*
X163704223Y-41626785D01*
X163704223Y-41626785D02*
X163513747Y-41674404D01*
X163513747Y-41674404D02*
X163370890Y-41674404D01*
X163370890Y-41674404D02*
X163180414Y-41626785D01*
X163180414Y-41626785D02*
X163085176Y-41579166D01*
X163085176Y-41579166D02*
X162989938Y-41483928D01*
X162989938Y-41483928D02*
X162942319Y-41341071D01*
X162942319Y-41341071D02*
X162942319Y-41245833D01*
X162942319Y-41245833D02*
X162989938Y-41102976D01*
X162989938Y-41102976D02*
X163037557Y-41055357D01*
X163942319Y-40102976D02*
X163942319Y-40674404D01*
X163942319Y-40388690D02*
X162942319Y-40388690D01*
X162942319Y-40388690D02*
X163085176Y-40483928D01*
X163085176Y-40483928D02*
X163180414Y-40579166D01*
X163180414Y-40579166D02*
X163228033Y-40674404D01*
X163037557Y-39722023D02*
X162989938Y-39674404D01*
X162989938Y-39674404D02*
X162942319Y-39579166D01*
X162942319Y-39579166D02*
X162942319Y-39341071D01*
X162942319Y-39341071D02*
X162989938Y-39245833D01*
X162989938Y-39245833D02*
X163037557Y-39198214D01*
X163037557Y-39198214D02*
X163132795Y-39150595D01*
X163132795Y-39150595D02*
X163228033Y-39150595D01*
X163228033Y-39150595D02*
X163370890Y-39198214D01*
X163370890Y-39198214D02*
X163942319Y-39769642D01*
X163942319Y-39769642D02*
X163942319Y-39150595D01*
X127725595Y-74667319D02*
X127725595Y-75476842D01*
X127725595Y-75476842D02*
X127773214Y-75572080D01*
X127773214Y-75572080D02*
X127820833Y-75619700D01*
X127820833Y-75619700D02*
X127916071Y-75667319D01*
X127916071Y-75667319D02*
X128106547Y-75667319D01*
X128106547Y-75667319D02*
X128201785Y-75619700D01*
X128201785Y-75619700D02*
X128249404Y-75572080D01*
X128249404Y-75572080D02*
X128297023Y-75476842D01*
X128297023Y-75476842D02*
X128297023Y-74667319D01*
X129201785Y-74667319D02*
X129011309Y-74667319D01*
X129011309Y-74667319D02*
X128916071Y-74714938D01*
X128916071Y-74714938D02*
X128868452Y-74762557D01*
X128868452Y-74762557D02*
X128773214Y-74905414D01*
X128773214Y-74905414D02*
X128725595Y-75095890D01*
X128725595Y-75095890D02*
X128725595Y-75476842D01*
X128725595Y-75476842D02*
X128773214Y-75572080D01*
X128773214Y-75572080D02*
X128820833Y-75619700D01*
X128820833Y-75619700D02*
X128916071Y-75667319D01*
X128916071Y-75667319D02*
X129106547Y-75667319D01*
X129106547Y-75667319D02*
X129201785Y-75619700D01*
X129201785Y-75619700D02*
X129249404Y-75572080D01*
X129249404Y-75572080D02*
X129297023Y-75476842D01*
X129297023Y-75476842D02*
X129297023Y-75238747D01*
X129297023Y-75238747D02*
X129249404Y-75143509D01*
X129249404Y-75143509D02*
X129201785Y-75095890D01*
X129201785Y-75095890D02*
X129106547Y-75048271D01*
X129106547Y-75048271D02*
X128916071Y-75048271D01*
X128916071Y-75048271D02*
X128820833Y-75095890D01*
X128820833Y-75095890D02*
X128773214Y-75143509D01*
X128773214Y-75143509D02*
X128725595Y-75238747D01*
X182847080Y-33055357D02*
X182894700Y-33102976D01*
X182894700Y-33102976D02*
X182942319Y-33245833D01*
X182942319Y-33245833D02*
X182942319Y-33341071D01*
X182942319Y-33341071D02*
X182894700Y-33483928D01*
X182894700Y-33483928D02*
X182799461Y-33579166D01*
X182799461Y-33579166D02*
X182704223Y-33626785D01*
X182704223Y-33626785D02*
X182513747Y-33674404D01*
X182513747Y-33674404D02*
X182370890Y-33674404D01*
X182370890Y-33674404D02*
X182180414Y-33626785D01*
X182180414Y-33626785D02*
X182085176Y-33579166D01*
X182085176Y-33579166D02*
X181989938Y-33483928D01*
X181989938Y-33483928D02*
X181942319Y-33341071D01*
X181942319Y-33341071D02*
X181942319Y-33245833D01*
X181942319Y-33245833D02*
X181989938Y-33102976D01*
X181989938Y-33102976D02*
X182037557Y-33055357D01*
X182037557Y-32674404D02*
X181989938Y-32626785D01*
X181989938Y-32626785D02*
X181942319Y-32531547D01*
X181942319Y-32531547D02*
X181942319Y-32293452D01*
X181942319Y-32293452D02*
X181989938Y-32198214D01*
X181989938Y-32198214D02*
X182037557Y-32150595D01*
X182037557Y-32150595D02*
X182132795Y-32102976D01*
X182132795Y-32102976D02*
X182228033Y-32102976D01*
X182228033Y-32102976D02*
X182370890Y-32150595D01*
X182370890Y-32150595D02*
X182942319Y-32722023D01*
X182942319Y-32722023D02*
X182942319Y-32102976D01*
X181942319Y-31245833D02*
X181942319Y-31436309D01*
X181942319Y-31436309D02*
X181989938Y-31531547D01*
X181989938Y-31531547D02*
X182037557Y-31579166D01*
X182037557Y-31579166D02*
X182180414Y-31674404D01*
X182180414Y-31674404D02*
X182370890Y-31722023D01*
X182370890Y-31722023D02*
X182751842Y-31722023D01*
X182751842Y-31722023D02*
X182847080Y-31674404D01*
X182847080Y-31674404D02*
X182894700Y-31626785D01*
X182894700Y-31626785D02*
X182942319Y-31531547D01*
X182942319Y-31531547D02*
X182942319Y-31341071D01*
X182942319Y-31341071D02*
X182894700Y-31245833D01*
X182894700Y-31245833D02*
X182847080Y-31198214D01*
X182847080Y-31198214D02*
X182751842Y-31150595D01*
X182751842Y-31150595D02*
X182513747Y-31150595D01*
X182513747Y-31150595D02*
X182418509Y-31198214D01*
X182418509Y-31198214D02*
X182370890Y-31245833D01*
X182370890Y-31245833D02*
X182323271Y-31341071D01*
X182323271Y-31341071D02*
X182323271Y-31531547D01*
X182323271Y-31531547D02*
X182370890Y-31626785D01*
X182370890Y-31626785D02*
X182418509Y-31674404D01*
X182418509Y-31674404D02*
X182513747Y-31722023D01*
X114320833Y-93297319D02*
X113987500Y-92821128D01*
X113749405Y-93297319D02*
X113749405Y-92297319D01*
X113749405Y-92297319D02*
X114130357Y-92297319D01*
X114130357Y-92297319D02*
X114225595Y-92344938D01*
X114225595Y-92344938D02*
X114273214Y-92392557D01*
X114273214Y-92392557D02*
X114320833Y-92487795D01*
X114320833Y-92487795D02*
X114320833Y-92630652D01*
X114320833Y-92630652D02*
X114273214Y-92725890D01*
X114273214Y-92725890D02*
X114225595Y-92773509D01*
X114225595Y-92773509D02*
X114130357Y-92821128D01*
X114130357Y-92821128D02*
X113749405Y-92821128D01*
X115177976Y-92297319D02*
X114987500Y-92297319D01*
X114987500Y-92297319D02*
X114892262Y-92344938D01*
X114892262Y-92344938D02*
X114844643Y-92392557D01*
X114844643Y-92392557D02*
X114749405Y-92535414D01*
X114749405Y-92535414D02*
X114701786Y-92725890D01*
X114701786Y-92725890D02*
X114701786Y-93106842D01*
X114701786Y-93106842D02*
X114749405Y-93202080D01*
X114749405Y-93202080D02*
X114797024Y-93249700D01*
X114797024Y-93249700D02*
X114892262Y-93297319D01*
X114892262Y-93297319D02*
X115082738Y-93297319D01*
X115082738Y-93297319D02*
X115177976Y-93249700D01*
X115177976Y-93249700D02*
X115225595Y-93202080D01*
X115225595Y-93202080D02*
X115273214Y-93106842D01*
X115273214Y-93106842D02*
X115273214Y-92868747D01*
X115273214Y-92868747D02*
X115225595Y-92773509D01*
X115225595Y-92773509D02*
X115177976Y-92725890D01*
X115177976Y-92725890D02*
X115082738Y-92678271D01*
X115082738Y-92678271D02*
X114892262Y-92678271D01*
X114892262Y-92678271D02*
X114797024Y-92725890D01*
X114797024Y-92725890D02*
X114749405Y-92773509D01*
X114749405Y-92773509D02*
X114701786Y-92868747D01*
X176847080Y-33055357D02*
X176894700Y-33102976D01*
X176894700Y-33102976D02*
X176942319Y-33245833D01*
X176942319Y-33245833D02*
X176942319Y-33341071D01*
X176942319Y-33341071D02*
X176894700Y-33483928D01*
X176894700Y-33483928D02*
X176799461Y-33579166D01*
X176799461Y-33579166D02*
X176704223Y-33626785D01*
X176704223Y-33626785D02*
X176513747Y-33674404D01*
X176513747Y-33674404D02*
X176370890Y-33674404D01*
X176370890Y-33674404D02*
X176180414Y-33626785D01*
X176180414Y-33626785D02*
X176085176Y-33579166D01*
X176085176Y-33579166D02*
X175989938Y-33483928D01*
X175989938Y-33483928D02*
X175942319Y-33341071D01*
X175942319Y-33341071D02*
X175942319Y-33245833D01*
X175942319Y-33245833D02*
X175989938Y-33102976D01*
X175989938Y-33102976D02*
X176037557Y-33055357D01*
X176037557Y-32674404D02*
X175989938Y-32626785D01*
X175989938Y-32626785D02*
X175942319Y-32531547D01*
X175942319Y-32531547D02*
X175942319Y-32293452D01*
X175942319Y-32293452D02*
X175989938Y-32198214D01*
X175989938Y-32198214D02*
X176037557Y-32150595D01*
X176037557Y-32150595D02*
X176132795Y-32102976D01*
X176132795Y-32102976D02*
X176228033Y-32102976D01*
X176228033Y-32102976D02*
X176370890Y-32150595D01*
X176370890Y-32150595D02*
X176942319Y-32722023D01*
X176942319Y-32722023D02*
X176942319Y-32102976D01*
X176370890Y-31531547D02*
X176323271Y-31626785D01*
X176323271Y-31626785D02*
X176275652Y-31674404D01*
X176275652Y-31674404D02*
X176180414Y-31722023D01*
X176180414Y-31722023D02*
X176132795Y-31722023D01*
X176132795Y-31722023D02*
X176037557Y-31674404D01*
X176037557Y-31674404D02*
X175989938Y-31626785D01*
X175989938Y-31626785D02*
X175942319Y-31531547D01*
X175942319Y-31531547D02*
X175942319Y-31341071D01*
X175942319Y-31341071D02*
X175989938Y-31245833D01*
X175989938Y-31245833D02*
X176037557Y-31198214D01*
X176037557Y-31198214D02*
X176132795Y-31150595D01*
X176132795Y-31150595D02*
X176180414Y-31150595D01*
X176180414Y-31150595D02*
X176275652Y-31198214D01*
X176275652Y-31198214D02*
X176323271Y-31245833D01*
X176323271Y-31245833D02*
X176370890Y-31341071D01*
X176370890Y-31341071D02*
X176370890Y-31531547D01*
X176370890Y-31531547D02*
X176418509Y-31626785D01*
X176418509Y-31626785D02*
X176466128Y-31674404D01*
X176466128Y-31674404D02*
X176561366Y-31722023D01*
X176561366Y-31722023D02*
X176751842Y-31722023D01*
X176751842Y-31722023D02*
X176847080Y-31674404D01*
X176847080Y-31674404D02*
X176894700Y-31626785D01*
X176894700Y-31626785D02*
X176942319Y-31531547D01*
X176942319Y-31531547D02*
X176942319Y-31341071D01*
X176942319Y-31341071D02*
X176894700Y-31245833D01*
X176894700Y-31245833D02*
X176847080Y-31198214D01*
X176847080Y-31198214D02*
X176751842Y-31150595D01*
X176751842Y-31150595D02*
X176561366Y-31150595D01*
X176561366Y-31150595D02*
X176466128Y-31198214D01*
X176466128Y-31198214D02*
X176418509Y-31245833D01*
X176418509Y-31245833D02*
X176370890Y-31341071D01*
X122725595Y-76917319D02*
X122725595Y-77726842D01*
X122725595Y-77726842D02*
X122773214Y-77822080D01*
X122773214Y-77822080D02*
X122820833Y-77869700D01*
X122820833Y-77869700D02*
X122916071Y-77917319D01*
X122916071Y-77917319D02*
X123106547Y-77917319D01*
X123106547Y-77917319D02*
X123201785Y-77869700D01*
X123201785Y-77869700D02*
X123249404Y-77822080D01*
X123249404Y-77822080D02*
X123297023Y-77726842D01*
X123297023Y-77726842D02*
X123297023Y-76917319D01*
X124249404Y-76917319D02*
X123773214Y-76917319D01*
X123773214Y-76917319D02*
X123725595Y-77393509D01*
X123725595Y-77393509D02*
X123773214Y-77345890D01*
X123773214Y-77345890D02*
X123868452Y-77298271D01*
X123868452Y-77298271D02*
X124106547Y-77298271D01*
X124106547Y-77298271D02*
X124201785Y-77345890D01*
X124201785Y-77345890D02*
X124249404Y-77393509D01*
X124249404Y-77393509D02*
X124297023Y-77488747D01*
X124297023Y-77488747D02*
X124297023Y-77726842D01*
X124297023Y-77726842D02*
X124249404Y-77822080D01*
X124249404Y-77822080D02*
X124201785Y-77869700D01*
X124201785Y-77869700D02*
X124106547Y-77917319D01*
X124106547Y-77917319D02*
X123868452Y-77917319D01*
X123868452Y-77917319D02*
X123773214Y-77869700D01*
X123773214Y-77869700D02*
X123725595Y-77822080D01*
X173844642Y-61359580D02*
X173797023Y-61407200D01*
X173797023Y-61407200D02*
X173654166Y-61454819D01*
X173654166Y-61454819D02*
X173558928Y-61454819D01*
X173558928Y-61454819D02*
X173416071Y-61407200D01*
X173416071Y-61407200D02*
X173320833Y-61311961D01*
X173320833Y-61311961D02*
X173273214Y-61216723D01*
X173273214Y-61216723D02*
X173225595Y-61026247D01*
X173225595Y-61026247D02*
X173225595Y-60883390D01*
X173225595Y-60883390D02*
X173273214Y-60692914D01*
X173273214Y-60692914D02*
X173320833Y-60597676D01*
X173320833Y-60597676D02*
X173416071Y-60502438D01*
X173416071Y-60502438D02*
X173558928Y-60454819D01*
X173558928Y-60454819D02*
X173654166Y-60454819D01*
X173654166Y-60454819D02*
X173797023Y-60502438D01*
X173797023Y-60502438D02*
X173844642Y-60550057D01*
X174797023Y-61454819D02*
X174225595Y-61454819D01*
X174511309Y-61454819D02*
X174511309Y-60454819D01*
X174511309Y-60454819D02*
X174416071Y-60597676D01*
X174416071Y-60597676D02*
X174320833Y-60692914D01*
X174320833Y-60692914D02*
X174225595Y-60740533D01*
X175368452Y-60883390D02*
X175273214Y-60835771D01*
X175273214Y-60835771D02*
X175225595Y-60788152D01*
X175225595Y-60788152D02*
X175177976Y-60692914D01*
X175177976Y-60692914D02*
X175177976Y-60645295D01*
X175177976Y-60645295D02*
X175225595Y-60550057D01*
X175225595Y-60550057D02*
X175273214Y-60502438D01*
X175273214Y-60502438D02*
X175368452Y-60454819D01*
X175368452Y-60454819D02*
X175558928Y-60454819D01*
X175558928Y-60454819D02*
X175654166Y-60502438D01*
X175654166Y-60502438D02*
X175701785Y-60550057D01*
X175701785Y-60550057D02*
X175749404Y-60645295D01*
X175749404Y-60645295D02*
X175749404Y-60692914D01*
X175749404Y-60692914D02*
X175701785Y-60788152D01*
X175701785Y-60788152D02*
X175654166Y-60835771D01*
X175654166Y-60835771D02*
X175558928Y-60883390D01*
X175558928Y-60883390D02*
X175368452Y-60883390D01*
X175368452Y-60883390D02*
X175273214Y-60931009D01*
X175273214Y-60931009D02*
X175225595Y-60978628D01*
X175225595Y-60978628D02*
X175177976Y-61073866D01*
X175177976Y-61073866D02*
X175177976Y-61264342D01*
X175177976Y-61264342D02*
X175225595Y-61359580D01*
X175225595Y-61359580D02*
X175273214Y-61407200D01*
X175273214Y-61407200D02*
X175368452Y-61454819D01*
X175368452Y-61454819D02*
X175558928Y-61454819D01*
X175558928Y-61454819D02*
X175654166Y-61407200D01*
X175654166Y-61407200D02*
X175701785Y-61359580D01*
X175701785Y-61359580D02*
X175749404Y-61264342D01*
X175749404Y-61264342D02*
X175749404Y-61073866D01*
X175749404Y-61073866D02*
X175701785Y-60978628D01*
X175701785Y-60978628D02*
X175654166Y-60931009D01*
X175654166Y-60931009D02*
X175558928Y-60883390D01*
X152364642Y-32867319D02*
X152031309Y-32391128D01*
X151793214Y-32867319D02*
X151793214Y-31867319D01*
X151793214Y-31867319D02*
X152174166Y-31867319D01*
X152174166Y-31867319D02*
X152269404Y-31914938D01*
X152269404Y-31914938D02*
X152317023Y-31962557D01*
X152317023Y-31962557D02*
X152364642Y-32057795D01*
X152364642Y-32057795D02*
X152364642Y-32200652D01*
X152364642Y-32200652D02*
X152317023Y-32295890D01*
X152317023Y-32295890D02*
X152269404Y-32343509D01*
X152269404Y-32343509D02*
X152174166Y-32391128D01*
X152174166Y-32391128D02*
X151793214Y-32391128D01*
X153317023Y-32867319D02*
X152745595Y-32867319D01*
X153031309Y-32867319D02*
X153031309Y-31867319D01*
X153031309Y-31867319D02*
X152936071Y-32010176D01*
X152936071Y-32010176D02*
X152840833Y-32105414D01*
X152840833Y-32105414D02*
X152745595Y-32153033D01*
X153936071Y-31867319D02*
X154031309Y-31867319D01*
X154031309Y-31867319D02*
X154126547Y-31914938D01*
X154126547Y-31914938D02*
X154174166Y-31962557D01*
X154174166Y-31962557D02*
X154221785Y-32057795D01*
X154221785Y-32057795D02*
X154269404Y-32248271D01*
X154269404Y-32248271D02*
X154269404Y-32486366D01*
X154269404Y-32486366D02*
X154221785Y-32676842D01*
X154221785Y-32676842D02*
X154174166Y-32772080D01*
X154174166Y-32772080D02*
X154126547Y-32819700D01*
X154126547Y-32819700D02*
X154031309Y-32867319D01*
X154031309Y-32867319D02*
X153936071Y-32867319D01*
X153936071Y-32867319D02*
X153840833Y-32819700D01*
X153840833Y-32819700D02*
X153793214Y-32772080D01*
X153793214Y-32772080D02*
X153745595Y-32676842D01*
X153745595Y-32676842D02*
X153697976Y-32486366D01*
X153697976Y-32486366D02*
X153697976Y-32248271D01*
X153697976Y-32248271D02*
X153745595Y-32057795D01*
X153745595Y-32057795D02*
X153793214Y-31962557D01*
X153793214Y-31962557D02*
X153840833Y-31914938D01*
X153840833Y-31914938D02*
X153936071Y-31867319D01*
X103320833Y-73867319D02*
X102987500Y-73391128D01*
X102749405Y-73867319D02*
X102749405Y-72867319D01*
X102749405Y-72867319D02*
X103130357Y-72867319D01*
X103130357Y-72867319D02*
X103225595Y-72914938D01*
X103225595Y-72914938D02*
X103273214Y-72962557D01*
X103273214Y-72962557D02*
X103320833Y-73057795D01*
X103320833Y-73057795D02*
X103320833Y-73200652D01*
X103320833Y-73200652D02*
X103273214Y-73295890D01*
X103273214Y-73295890D02*
X103225595Y-73343509D01*
X103225595Y-73343509D02*
X103130357Y-73391128D01*
X103130357Y-73391128D02*
X102749405Y-73391128D01*
X104273214Y-73867319D02*
X103701786Y-73867319D01*
X103987500Y-73867319D02*
X103987500Y-72867319D01*
X103987500Y-72867319D02*
X103892262Y-73010176D01*
X103892262Y-73010176D02*
X103797024Y-73105414D01*
X103797024Y-73105414D02*
X103701786Y-73153033D01*
X187725595Y-41454819D02*
X187725595Y-42264342D01*
X187725595Y-42264342D02*
X187773214Y-42359580D01*
X187773214Y-42359580D02*
X187820833Y-42407200D01*
X187820833Y-42407200D02*
X187916071Y-42454819D01*
X187916071Y-42454819D02*
X188106547Y-42454819D01*
X188106547Y-42454819D02*
X188201785Y-42407200D01*
X188201785Y-42407200D02*
X188249404Y-42359580D01*
X188249404Y-42359580D02*
X188297023Y-42264342D01*
X188297023Y-42264342D02*
X188297023Y-41454819D01*
X189297023Y-42454819D02*
X188725595Y-42454819D01*
X189011309Y-42454819D02*
X189011309Y-41454819D01*
X189011309Y-41454819D02*
X188916071Y-41597676D01*
X188916071Y-41597676D02*
X188820833Y-41692914D01*
X188820833Y-41692914D02*
X188725595Y-41740533D01*
X110320833Y-93297319D02*
X109987500Y-92821128D01*
X109749405Y-93297319D02*
X109749405Y-92297319D01*
X109749405Y-92297319D02*
X110130357Y-92297319D01*
X110130357Y-92297319D02*
X110225595Y-92344938D01*
X110225595Y-92344938D02*
X110273214Y-92392557D01*
X110273214Y-92392557D02*
X110320833Y-92487795D01*
X110320833Y-92487795D02*
X110320833Y-92630652D01*
X110320833Y-92630652D02*
X110273214Y-92725890D01*
X110273214Y-92725890D02*
X110225595Y-92773509D01*
X110225595Y-92773509D02*
X110130357Y-92821128D01*
X110130357Y-92821128D02*
X109749405Y-92821128D01*
X111225595Y-92297319D02*
X110749405Y-92297319D01*
X110749405Y-92297319D02*
X110701786Y-92773509D01*
X110701786Y-92773509D02*
X110749405Y-92725890D01*
X110749405Y-92725890D02*
X110844643Y-92678271D01*
X110844643Y-92678271D02*
X111082738Y-92678271D01*
X111082738Y-92678271D02*
X111177976Y-92725890D01*
X111177976Y-92725890D02*
X111225595Y-92773509D01*
X111225595Y-92773509D02*
X111273214Y-92868747D01*
X111273214Y-92868747D02*
X111273214Y-93106842D01*
X111273214Y-93106842D02*
X111225595Y-93202080D01*
X111225595Y-93202080D02*
X111177976Y-93249700D01*
X111177976Y-93249700D02*
X111082738Y-93297319D01*
X111082738Y-93297319D02*
X110844643Y-93297319D01*
X110844643Y-93297319D02*
X110749405Y-93249700D01*
X110749405Y-93249700D02*
X110701786Y-93202080D01*
X118000833Y-83772080D02*
X117953214Y-83819700D01*
X117953214Y-83819700D02*
X117810357Y-83867319D01*
X117810357Y-83867319D02*
X117715119Y-83867319D01*
X117715119Y-83867319D02*
X117572262Y-83819700D01*
X117572262Y-83819700D02*
X117477024Y-83724461D01*
X117477024Y-83724461D02*
X117429405Y-83629223D01*
X117429405Y-83629223D02*
X117381786Y-83438747D01*
X117381786Y-83438747D02*
X117381786Y-83295890D01*
X117381786Y-83295890D02*
X117429405Y-83105414D01*
X117429405Y-83105414D02*
X117477024Y-83010176D01*
X117477024Y-83010176D02*
X117572262Y-82914938D01*
X117572262Y-82914938D02*
X117715119Y-82867319D01*
X117715119Y-82867319D02*
X117810357Y-82867319D01*
X117810357Y-82867319D02*
X117953214Y-82914938D01*
X117953214Y-82914938D02*
X118000833Y-82962557D01*
X118381786Y-82962557D02*
X118429405Y-82914938D01*
X118429405Y-82914938D02*
X118524643Y-82867319D01*
X118524643Y-82867319D02*
X118762738Y-82867319D01*
X118762738Y-82867319D02*
X118857976Y-82914938D01*
X118857976Y-82914938D02*
X118905595Y-82962557D01*
X118905595Y-82962557D02*
X118953214Y-83057795D01*
X118953214Y-83057795D02*
X118953214Y-83153033D01*
X118953214Y-83153033D02*
X118905595Y-83295890D01*
X118905595Y-83295890D02*
X118334167Y-83867319D01*
X118334167Y-83867319D02*
X118953214Y-83867319D01*
X189320833Y-61454819D02*
X188844643Y-61454819D01*
X188844643Y-61454819D02*
X188844643Y-60454819D01*
X189558929Y-60454819D02*
X190177976Y-60454819D01*
X190177976Y-60454819D02*
X189844643Y-60835771D01*
X189844643Y-60835771D02*
X189987500Y-60835771D01*
X189987500Y-60835771D02*
X190082738Y-60883390D01*
X190082738Y-60883390D02*
X190130357Y-60931009D01*
X190130357Y-60931009D02*
X190177976Y-61026247D01*
X190177976Y-61026247D02*
X190177976Y-61264342D01*
X190177976Y-61264342D02*
X190130357Y-61359580D01*
X190130357Y-61359580D02*
X190082738Y-61407200D01*
X190082738Y-61407200D02*
X189987500Y-61454819D01*
X189987500Y-61454819D02*
X189701786Y-61454819D01*
X189701786Y-61454819D02*
X189606548Y-61407200D01*
X189606548Y-61407200D02*
X189558929Y-61359580D01*
X119844642Y-84997080D02*
X119797023Y-85044700D01*
X119797023Y-85044700D02*
X119654166Y-85092319D01*
X119654166Y-85092319D02*
X119558928Y-85092319D01*
X119558928Y-85092319D02*
X119416071Y-85044700D01*
X119416071Y-85044700D02*
X119320833Y-84949461D01*
X119320833Y-84949461D02*
X119273214Y-84854223D01*
X119273214Y-84854223D02*
X119225595Y-84663747D01*
X119225595Y-84663747D02*
X119225595Y-84520890D01*
X119225595Y-84520890D02*
X119273214Y-84330414D01*
X119273214Y-84330414D02*
X119320833Y-84235176D01*
X119320833Y-84235176D02*
X119416071Y-84139938D01*
X119416071Y-84139938D02*
X119558928Y-84092319D01*
X119558928Y-84092319D02*
X119654166Y-84092319D01*
X119654166Y-84092319D02*
X119797023Y-84139938D01*
X119797023Y-84139938D02*
X119844642Y-84187557D01*
X120177976Y-84092319D02*
X120797023Y-84092319D01*
X120797023Y-84092319D02*
X120463690Y-84473271D01*
X120463690Y-84473271D02*
X120606547Y-84473271D01*
X120606547Y-84473271D02*
X120701785Y-84520890D01*
X120701785Y-84520890D02*
X120749404Y-84568509D01*
X120749404Y-84568509D02*
X120797023Y-84663747D01*
X120797023Y-84663747D02*
X120797023Y-84901842D01*
X120797023Y-84901842D02*
X120749404Y-84997080D01*
X120749404Y-84997080D02*
X120701785Y-85044700D01*
X120701785Y-85044700D02*
X120606547Y-85092319D01*
X120606547Y-85092319D02*
X120320833Y-85092319D01*
X120320833Y-85092319D02*
X120225595Y-85044700D01*
X120225595Y-85044700D02*
X120177976Y-84997080D01*
X121130357Y-84092319D02*
X121797023Y-84092319D01*
X121797023Y-84092319D02*
X121368452Y-85092319D01*
X167844642Y-38772080D02*
X167797023Y-38819700D01*
X167797023Y-38819700D02*
X167654166Y-38867319D01*
X167654166Y-38867319D02*
X167558928Y-38867319D01*
X167558928Y-38867319D02*
X167416071Y-38819700D01*
X167416071Y-38819700D02*
X167320833Y-38724461D01*
X167320833Y-38724461D02*
X167273214Y-38629223D01*
X167273214Y-38629223D02*
X167225595Y-38438747D01*
X167225595Y-38438747D02*
X167225595Y-38295890D01*
X167225595Y-38295890D02*
X167273214Y-38105414D01*
X167273214Y-38105414D02*
X167320833Y-38010176D01*
X167320833Y-38010176D02*
X167416071Y-37914938D01*
X167416071Y-37914938D02*
X167558928Y-37867319D01*
X167558928Y-37867319D02*
X167654166Y-37867319D01*
X167654166Y-37867319D02*
X167797023Y-37914938D01*
X167797023Y-37914938D02*
X167844642Y-37962557D01*
X168797023Y-38867319D02*
X168225595Y-38867319D01*
X168511309Y-38867319D02*
X168511309Y-37867319D01*
X168511309Y-37867319D02*
X168416071Y-38010176D01*
X168416071Y-38010176D02*
X168320833Y-38105414D01*
X168320833Y-38105414D02*
X168225595Y-38153033D01*
X169416071Y-37867319D02*
X169511309Y-37867319D01*
X169511309Y-37867319D02*
X169606547Y-37914938D01*
X169606547Y-37914938D02*
X169654166Y-37962557D01*
X169654166Y-37962557D02*
X169701785Y-38057795D01*
X169701785Y-38057795D02*
X169749404Y-38248271D01*
X169749404Y-38248271D02*
X169749404Y-38486366D01*
X169749404Y-38486366D02*
X169701785Y-38676842D01*
X169701785Y-38676842D02*
X169654166Y-38772080D01*
X169654166Y-38772080D02*
X169606547Y-38819700D01*
X169606547Y-38819700D02*
X169511309Y-38867319D01*
X169511309Y-38867319D02*
X169416071Y-38867319D01*
X169416071Y-38867319D02*
X169320833Y-38819700D01*
X169320833Y-38819700D02*
X169273214Y-38772080D01*
X169273214Y-38772080D02*
X169225595Y-38676842D01*
X169225595Y-38676842D02*
X169177976Y-38486366D01*
X169177976Y-38486366D02*
X169177976Y-38248271D01*
X169177976Y-38248271D02*
X169225595Y-38057795D01*
X169225595Y-38057795D02*
X169273214Y-37962557D01*
X169273214Y-37962557D02*
X169320833Y-37914938D01*
X169320833Y-37914938D02*
X169416071Y-37867319D01*
X149364642Y-34772080D02*
X149317023Y-34819700D01*
X149317023Y-34819700D02*
X149174166Y-34867319D01*
X149174166Y-34867319D02*
X149078928Y-34867319D01*
X149078928Y-34867319D02*
X148936071Y-34819700D01*
X148936071Y-34819700D02*
X148840833Y-34724461D01*
X148840833Y-34724461D02*
X148793214Y-34629223D01*
X148793214Y-34629223D02*
X148745595Y-34438747D01*
X148745595Y-34438747D02*
X148745595Y-34295890D01*
X148745595Y-34295890D02*
X148793214Y-34105414D01*
X148793214Y-34105414D02*
X148840833Y-34010176D01*
X148840833Y-34010176D02*
X148936071Y-33914938D01*
X148936071Y-33914938D02*
X149078928Y-33867319D01*
X149078928Y-33867319D02*
X149174166Y-33867319D01*
X149174166Y-33867319D02*
X149317023Y-33914938D01*
X149317023Y-33914938D02*
X149364642Y-33962557D01*
X150317023Y-34867319D02*
X149745595Y-34867319D01*
X150031309Y-34867319D02*
X150031309Y-33867319D01*
X150031309Y-33867319D02*
X149936071Y-34010176D01*
X149936071Y-34010176D02*
X149840833Y-34105414D01*
X149840833Y-34105414D02*
X149745595Y-34153033D01*
X151174166Y-34200652D02*
X151174166Y-34867319D01*
X150936071Y-33819700D02*
X150697976Y-34533985D01*
X150697976Y-34533985D02*
X151317023Y-34533985D01*
X183844642Y-72772080D02*
X183797023Y-72819700D01*
X183797023Y-72819700D02*
X183654166Y-72867319D01*
X183654166Y-72867319D02*
X183558928Y-72867319D01*
X183558928Y-72867319D02*
X183416071Y-72819700D01*
X183416071Y-72819700D02*
X183320833Y-72724461D01*
X183320833Y-72724461D02*
X183273214Y-72629223D01*
X183273214Y-72629223D02*
X183225595Y-72438747D01*
X183225595Y-72438747D02*
X183225595Y-72295890D01*
X183225595Y-72295890D02*
X183273214Y-72105414D01*
X183273214Y-72105414D02*
X183320833Y-72010176D01*
X183320833Y-72010176D02*
X183416071Y-71914938D01*
X183416071Y-71914938D02*
X183558928Y-71867319D01*
X183558928Y-71867319D02*
X183654166Y-71867319D01*
X183654166Y-71867319D02*
X183797023Y-71914938D01*
X183797023Y-71914938D02*
X183844642Y-71962557D01*
X184177976Y-71867319D02*
X184797023Y-71867319D01*
X184797023Y-71867319D02*
X184463690Y-72248271D01*
X184463690Y-72248271D02*
X184606547Y-72248271D01*
X184606547Y-72248271D02*
X184701785Y-72295890D01*
X184701785Y-72295890D02*
X184749404Y-72343509D01*
X184749404Y-72343509D02*
X184797023Y-72438747D01*
X184797023Y-72438747D02*
X184797023Y-72676842D01*
X184797023Y-72676842D02*
X184749404Y-72772080D01*
X184749404Y-72772080D02*
X184701785Y-72819700D01*
X184701785Y-72819700D02*
X184606547Y-72867319D01*
X184606547Y-72867319D02*
X184320833Y-72867319D01*
X184320833Y-72867319D02*
X184225595Y-72819700D01*
X184225595Y-72819700D02*
X184177976Y-72772080D01*
X185701785Y-71867319D02*
X185225595Y-71867319D01*
X185225595Y-71867319D02*
X185177976Y-72343509D01*
X185177976Y-72343509D02*
X185225595Y-72295890D01*
X185225595Y-72295890D02*
X185320833Y-72248271D01*
X185320833Y-72248271D02*
X185558928Y-72248271D01*
X185558928Y-72248271D02*
X185654166Y-72295890D01*
X185654166Y-72295890D02*
X185701785Y-72343509D01*
X185701785Y-72343509D02*
X185749404Y-72438747D01*
X185749404Y-72438747D02*
X185749404Y-72676842D01*
X185749404Y-72676842D02*
X185701785Y-72772080D01*
X185701785Y-72772080D02*
X185654166Y-72819700D01*
X185654166Y-72819700D02*
X185558928Y-72867319D01*
X185558928Y-72867319D02*
X185320833Y-72867319D01*
X185320833Y-72867319D02*
X185225595Y-72819700D01*
X185225595Y-72819700D02*
X185177976Y-72772080D01*
X110320833Y-80954819D02*
X109987500Y-80478628D01*
X109749405Y-80954819D02*
X109749405Y-79954819D01*
X109749405Y-79954819D02*
X110130357Y-79954819D01*
X110130357Y-79954819D02*
X110225595Y-80002438D01*
X110225595Y-80002438D02*
X110273214Y-80050057D01*
X110273214Y-80050057D02*
X110320833Y-80145295D01*
X110320833Y-80145295D02*
X110320833Y-80288152D01*
X110320833Y-80288152D02*
X110273214Y-80383390D01*
X110273214Y-80383390D02*
X110225595Y-80431009D01*
X110225595Y-80431009D02*
X110130357Y-80478628D01*
X110130357Y-80478628D02*
X109749405Y-80478628D01*
X110654167Y-79954819D02*
X111273214Y-79954819D01*
X111273214Y-79954819D02*
X110939881Y-80335771D01*
X110939881Y-80335771D02*
X111082738Y-80335771D01*
X111082738Y-80335771D02*
X111177976Y-80383390D01*
X111177976Y-80383390D02*
X111225595Y-80431009D01*
X111225595Y-80431009D02*
X111273214Y-80526247D01*
X111273214Y-80526247D02*
X111273214Y-80764342D01*
X111273214Y-80764342D02*
X111225595Y-80859580D01*
X111225595Y-80859580D02*
X111177976Y-80907200D01*
X111177976Y-80907200D02*
X111082738Y-80954819D01*
X111082738Y-80954819D02*
X110797024Y-80954819D01*
X110797024Y-80954819D02*
X110701786Y-80907200D01*
X110701786Y-80907200D02*
X110654167Y-80859580D01*
X126320833Y-36437319D02*
X125987500Y-35961128D01*
X125749405Y-36437319D02*
X125749405Y-35437319D01*
X125749405Y-35437319D02*
X126130357Y-35437319D01*
X126130357Y-35437319D02*
X126225595Y-35484938D01*
X126225595Y-35484938D02*
X126273214Y-35532557D01*
X126273214Y-35532557D02*
X126320833Y-35627795D01*
X126320833Y-35627795D02*
X126320833Y-35770652D01*
X126320833Y-35770652D02*
X126273214Y-35865890D01*
X126273214Y-35865890D02*
X126225595Y-35913509D01*
X126225595Y-35913509D02*
X126130357Y-35961128D01*
X126130357Y-35961128D02*
X125749405Y-35961128D01*
X126892262Y-35865890D02*
X126797024Y-35818271D01*
X126797024Y-35818271D02*
X126749405Y-35770652D01*
X126749405Y-35770652D02*
X126701786Y-35675414D01*
X126701786Y-35675414D02*
X126701786Y-35627795D01*
X126701786Y-35627795D02*
X126749405Y-35532557D01*
X126749405Y-35532557D02*
X126797024Y-35484938D01*
X126797024Y-35484938D02*
X126892262Y-35437319D01*
X126892262Y-35437319D02*
X127082738Y-35437319D01*
X127082738Y-35437319D02*
X127177976Y-35484938D01*
X127177976Y-35484938D02*
X127225595Y-35532557D01*
X127225595Y-35532557D02*
X127273214Y-35627795D01*
X127273214Y-35627795D02*
X127273214Y-35675414D01*
X127273214Y-35675414D02*
X127225595Y-35770652D01*
X127225595Y-35770652D02*
X127177976Y-35818271D01*
X127177976Y-35818271D02*
X127082738Y-35865890D01*
X127082738Y-35865890D02*
X126892262Y-35865890D01*
X126892262Y-35865890D02*
X126797024Y-35913509D01*
X126797024Y-35913509D02*
X126749405Y-35961128D01*
X126749405Y-35961128D02*
X126701786Y-36056366D01*
X126701786Y-36056366D02*
X126701786Y-36246842D01*
X126701786Y-36246842D02*
X126749405Y-36342080D01*
X126749405Y-36342080D02*
X126797024Y-36389700D01*
X126797024Y-36389700D02*
X126892262Y-36437319D01*
X126892262Y-36437319D02*
X127082738Y-36437319D01*
X127082738Y-36437319D02*
X127177976Y-36389700D01*
X127177976Y-36389700D02*
X127225595Y-36342080D01*
X127225595Y-36342080D02*
X127273214Y-36246842D01*
X127273214Y-36246842D02*
X127273214Y-36056366D01*
X127273214Y-36056366D02*
X127225595Y-35961128D01*
X127225595Y-35961128D02*
X127177976Y-35913509D01*
X127177976Y-35913509D02*
X127082738Y-35865890D01*
X125824643Y-45019700D02*
X125967500Y-45067319D01*
X125967500Y-45067319D02*
X126205595Y-45067319D01*
X126205595Y-45067319D02*
X126300833Y-45019700D01*
X126300833Y-45019700D02*
X126348452Y-44972080D01*
X126348452Y-44972080D02*
X126396071Y-44876842D01*
X126396071Y-44876842D02*
X126396071Y-44781604D01*
X126396071Y-44781604D02*
X126348452Y-44686366D01*
X126348452Y-44686366D02*
X126300833Y-44638747D01*
X126300833Y-44638747D02*
X126205595Y-44591128D01*
X126205595Y-44591128D02*
X126015119Y-44543509D01*
X126015119Y-44543509D02*
X125919881Y-44495890D01*
X125919881Y-44495890D02*
X125872262Y-44448271D01*
X125872262Y-44448271D02*
X125824643Y-44353033D01*
X125824643Y-44353033D02*
X125824643Y-44257795D01*
X125824643Y-44257795D02*
X125872262Y-44162557D01*
X125872262Y-44162557D02*
X125919881Y-44114938D01*
X125919881Y-44114938D02*
X126015119Y-44067319D01*
X126015119Y-44067319D02*
X126253214Y-44067319D01*
X126253214Y-44067319D02*
X126396071Y-44114938D01*
X126729405Y-44067319D02*
X126967500Y-45067319D01*
X126967500Y-45067319D02*
X127157976Y-44353033D01*
X127157976Y-44353033D02*
X127348452Y-45067319D01*
X127348452Y-45067319D02*
X127586548Y-44067319D01*
X127729405Y-45162557D02*
X128491309Y-45162557D01*
X129062738Y-44543509D02*
X129205595Y-44591128D01*
X129205595Y-44591128D02*
X129253214Y-44638747D01*
X129253214Y-44638747D02*
X129300833Y-44733985D01*
X129300833Y-44733985D02*
X129300833Y-44876842D01*
X129300833Y-44876842D02*
X129253214Y-44972080D01*
X129253214Y-44972080D02*
X129205595Y-45019700D01*
X129205595Y-45019700D02*
X129110357Y-45067319D01*
X129110357Y-45067319D02*
X128729405Y-45067319D01*
X128729405Y-45067319D02*
X128729405Y-44067319D01*
X128729405Y-44067319D02*
X129062738Y-44067319D01*
X129062738Y-44067319D02*
X129157976Y-44114938D01*
X129157976Y-44114938D02*
X129205595Y-44162557D01*
X129205595Y-44162557D02*
X129253214Y-44257795D01*
X129253214Y-44257795D02*
X129253214Y-44353033D01*
X129253214Y-44353033D02*
X129205595Y-44448271D01*
X129205595Y-44448271D02*
X129157976Y-44495890D01*
X129157976Y-44495890D02*
X129062738Y-44543509D01*
X129062738Y-44543509D02*
X128729405Y-44543509D01*
X129919881Y-44067319D02*
X130110357Y-44067319D01*
X130110357Y-44067319D02*
X130205595Y-44114938D01*
X130205595Y-44114938D02*
X130300833Y-44210176D01*
X130300833Y-44210176D02*
X130348452Y-44400652D01*
X130348452Y-44400652D02*
X130348452Y-44733985D01*
X130348452Y-44733985D02*
X130300833Y-44924461D01*
X130300833Y-44924461D02*
X130205595Y-45019700D01*
X130205595Y-45019700D02*
X130110357Y-45067319D01*
X130110357Y-45067319D02*
X129919881Y-45067319D01*
X129919881Y-45067319D02*
X129824643Y-45019700D01*
X129824643Y-45019700D02*
X129729405Y-44924461D01*
X129729405Y-44924461D02*
X129681786Y-44733985D01*
X129681786Y-44733985D02*
X129681786Y-44400652D01*
X129681786Y-44400652D02*
X129729405Y-44210176D01*
X129729405Y-44210176D02*
X129824643Y-44114938D01*
X129824643Y-44114938D02*
X129919881Y-44067319D01*
X130967500Y-44067319D02*
X131157976Y-44067319D01*
X131157976Y-44067319D02*
X131253214Y-44114938D01*
X131253214Y-44114938D02*
X131348452Y-44210176D01*
X131348452Y-44210176D02*
X131396071Y-44400652D01*
X131396071Y-44400652D02*
X131396071Y-44733985D01*
X131396071Y-44733985D02*
X131348452Y-44924461D01*
X131348452Y-44924461D02*
X131253214Y-45019700D01*
X131253214Y-45019700D02*
X131157976Y-45067319D01*
X131157976Y-45067319D02*
X130967500Y-45067319D01*
X130967500Y-45067319D02*
X130872262Y-45019700D01*
X130872262Y-45019700D02*
X130777024Y-44924461D01*
X130777024Y-44924461D02*
X130729405Y-44733985D01*
X130729405Y-44733985D02*
X130729405Y-44400652D01*
X130729405Y-44400652D02*
X130777024Y-44210176D01*
X130777024Y-44210176D02*
X130872262Y-44114938D01*
X130872262Y-44114938D02*
X130967500Y-44067319D01*
X131681786Y-44067319D02*
X132253214Y-44067319D01*
X131967500Y-45067319D02*
X131967500Y-44067319D01*
X133110357Y-45067319D02*
X132538929Y-45067319D01*
X132824643Y-45067319D02*
X132824643Y-44067319D01*
X132824643Y-44067319D02*
X132729405Y-44210176D01*
X132729405Y-44210176D02*
X132634167Y-44305414D01*
X132634167Y-44305414D02*
X132538929Y-44353033D01*
X156337142Y-39772080D02*
X156289523Y-39819700D01*
X156289523Y-39819700D02*
X156146666Y-39867319D01*
X156146666Y-39867319D02*
X156051428Y-39867319D01*
X156051428Y-39867319D02*
X155908571Y-39819700D01*
X155908571Y-39819700D02*
X155813333Y-39724461D01*
X155813333Y-39724461D02*
X155765714Y-39629223D01*
X155765714Y-39629223D02*
X155718095Y-39438747D01*
X155718095Y-39438747D02*
X155718095Y-39295890D01*
X155718095Y-39295890D02*
X155765714Y-39105414D01*
X155765714Y-39105414D02*
X155813333Y-39010176D01*
X155813333Y-39010176D02*
X155908571Y-38914938D01*
X155908571Y-38914938D02*
X156051428Y-38867319D01*
X156051428Y-38867319D02*
X156146666Y-38867319D01*
X156146666Y-38867319D02*
X156289523Y-38914938D01*
X156289523Y-38914938D02*
X156337142Y-38962557D01*
X157289523Y-39867319D02*
X156718095Y-39867319D01*
X157003809Y-39867319D02*
X157003809Y-38867319D01*
X157003809Y-38867319D02*
X156908571Y-39010176D01*
X156908571Y-39010176D02*
X156813333Y-39105414D01*
X156813333Y-39105414D02*
X156718095Y-39153033D01*
X158241904Y-39867319D02*
X157670476Y-39867319D01*
X157956190Y-39867319D02*
X157956190Y-38867319D01*
X157956190Y-38867319D02*
X157860952Y-39010176D01*
X157860952Y-39010176D02*
X157765714Y-39105414D01*
X157765714Y-39105414D02*
X157670476Y-39153033D01*
X114580952Y-95437319D02*
X114104762Y-95437319D01*
X114104762Y-95437319D02*
X114104762Y-94437319D01*
X114914286Y-94913509D02*
X115247619Y-94913509D01*
X115390476Y-95437319D02*
X114914286Y-95437319D01*
X114914286Y-95437319D02*
X114914286Y-94437319D01*
X114914286Y-94437319D02*
X115390476Y-94437319D01*
X115819048Y-95437319D02*
X115819048Y-94437319D01*
X115819048Y-94437319D02*
X116057143Y-94437319D01*
X116057143Y-94437319D02*
X116200000Y-94484938D01*
X116200000Y-94484938D02*
X116295238Y-94580176D01*
X116295238Y-94580176D02*
X116342857Y-94675414D01*
X116342857Y-94675414D02*
X116390476Y-94865890D01*
X116390476Y-94865890D02*
X116390476Y-95008747D01*
X116390476Y-95008747D02*
X116342857Y-95199223D01*
X116342857Y-95199223D02*
X116295238Y-95294461D01*
X116295238Y-95294461D02*
X116200000Y-95389700D01*
X116200000Y-95389700D02*
X116057143Y-95437319D01*
X116057143Y-95437319D02*
X115819048Y-95437319D01*
X116771429Y-94532557D02*
X116819048Y-94484938D01*
X116819048Y-94484938D02*
X116914286Y-94437319D01*
X116914286Y-94437319D02*
X117152381Y-94437319D01*
X117152381Y-94437319D02*
X117247619Y-94484938D01*
X117247619Y-94484938D02*
X117295238Y-94532557D01*
X117295238Y-94532557D02*
X117342857Y-94627795D01*
X117342857Y-94627795D02*
X117342857Y-94723033D01*
X117342857Y-94723033D02*
X117295238Y-94865890D01*
X117295238Y-94865890D02*
X116723810Y-95437319D01*
X116723810Y-95437319D02*
X117342857Y-95437319D01*
X99033333Y-26772080D02*
X98985714Y-26819700D01*
X98985714Y-26819700D02*
X98842857Y-26867319D01*
X98842857Y-26867319D02*
X98747619Y-26867319D01*
X98747619Y-26867319D02*
X98604762Y-26819700D01*
X98604762Y-26819700D02*
X98509524Y-26724461D01*
X98509524Y-26724461D02*
X98461905Y-26629223D01*
X98461905Y-26629223D02*
X98414286Y-26438747D01*
X98414286Y-26438747D02*
X98414286Y-26295890D01*
X98414286Y-26295890D02*
X98461905Y-26105414D01*
X98461905Y-26105414D02*
X98509524Y-26010176D01*
X98509524Y-26010176D02*
X98604762Y-25914938D01*
X98604762Y-25914938D02*
X98747619Y-25867319D01*
X98747619Y-25867319D02*
X98842857Y-25867319D01*
X98842857Y-25867319D02*
X98985714Y-25914938D01*
X98985714Y-25914938D02*
X99033333Y-25962557D01*
X99604762Y-26295890D02*
X99509524Y-26248271D01*
X99509524Y-26248271D02*
X99461905Y-26200652D01*
X99461905Y-26200652D02*
X99414286Y-26105414D01*
X99414286Y-26105414D02*
X99414286Y-26057795D01*
X99414286Y-26057795D02*
X99461905Y-25962557D01*
X99461905Y-25962557D02*
X99509524Y-25914938D01*
X99509524Y-25914938D02*
X99604762Y-25867319D01*
X99604762Y-25867319D02*
X99795238Y-25867319D01*
X99795238Y-25867319D02*
X99890476Y-25914938D01*
X99890476Y-25914938D02*
X99938095Y-25962557D01*
X99938095Y-25962557D02*
X99985714Y-26057795D01*
X99985714Y-26057795D02*
X99985714Y-26105414D01*
X99985714Y-26105414D02*
X99938095Y-26200652D01*
X99938095Y-26200652D02*
X99890476Y-26248271D01*
X99890476Y-26248271D02*
X99795238Y-26295890D01*
X99795238Y-26295890D02*
X99604762Y-26295890D01*
X99604762Y-26295890D02*
X99509524Y-26343509D01*
X99509524Y-26343509D02*
X99461905Y-26391128D01*
X99461905Y-26391128D02*
X99414286Y-26486366D01*
X99414286Y-26486366D02*
X99414286Y-26676842D01*
X99414286Y-26676842D02*
X99461905Y-26772080D01*
X99461905Y-26772080D02*
X99509524Y-26819700D01*
X99509524Y-26819700D02*
X99604762Y-26867319D01*
X99604762Y-26867319D02*
X99795238Y-26867319D01*
X99795238Y-26867319D02*
X99890476Y-26819700D01*
X99890476Y-26819700D02*
X99938095Y-26772080D01*
X99938095Y-26772080D02*
X99985714Y-26676842D01*
X99985714Y-26676842D02*
X99985714Y-26486366D01*
X99985714Y-26486366D02*
X99938095Y-26391128D01*
X99938095Y-26391128D02*
X99890476Y-26343509D01*
X99890476Y-26343509D02*
X99795238Y-26295890D01*
X150320833Y-42232319D02*
X149844643Y-42232319D01*
X149844643Y-42232319D02*
X149844643Y-41232319D01*
X150606548Y-41327557D02*
X150654167Y-41279938D01*
X150654167Y-41279938D02*
X150749405Y-41232319D01*
X150749405Y-41232319D02*
X150987500Y-41232319D01*
X150987500Y-41232319D02*
X151082738Y-41279938D01*
X151082738Y-41279938D02*
X151130357Y-41327557D01*
X151130357Y-41327557D02*
X151177976Y-41422795D01*
X151177976Y-41422795D02*
X151177976Y-41518033D01*
X151177976Y-41518033D02*
X151130357Y-41660890D01*
X151130357Y-41660890D02*
X150558929Y-42232319D01*
X150558929Y-42232319D02*
X151177976Y-42232319D01*
X169844642Y-86772080D02*
X169797023Y-86819700D01*
X169797023Y-86819700D02*
X169654166Y-86867319D01*
X169654166Y-86867319D02*
X169558928Y-86867319D01*
X169558928Y-86867319D02*
X169416071Y-86819700D01*
X169416071Y-86819700D02*
X169320833Y-86724461D01*
X169320833Y-86724461D02*
X169273214Y-86629223D01*
X169273214Y-86629223D02*
X169225595Y-86438747D01*
X169225595Y-86438747D02*
X169225595Y-86295890D01*
X169225595Y-86295890D02*
X169273214Y-86105414D01*
X169273214Y-86105414D02*
X169320833Y-86010176D01*
X169320833Y-86010176D02*
X169416071Y-85914938D01*
X169416071Y-85914938D02*
X169558928Y-85867319D01*
X169558928Y-85867319D02*
X169654166Y-85867319D01*
X169654166Y-85867319D02*
X169797023Y-85914938D01*
X169797023Y-85914938D02*
X169844642Y-85962557D01*
X170177976Y-85867319D02*
X170797023Y-85867319D01*
X170797023Y-85867319D02*
X170463690Y-86248271D01*
X170463690Y-86248271D02*
X170606547Y-86248271D01*
X170606547Y-86248271D02*
X170701785Y-86295890D01*
X170701785Y-86295890D02*
X170749404Y-86343509D01*
X170749404Y-86343509D02*
X170797023Y-86438747D01*
X170797023Y-86438747D02*
X170797023Y-86676842D01*
X170797023Y-86676842D02*
X170749404Y-86772080D01*
X170749404Y-86772080D02*
X170701785Y-86819700D01*
X170701785Y-86819700D02*
X170606547Y-86867319D01*
X170606547Y-86867319D02*
X170320833Y-86867319D01*
X170320833Y-86867319D02*
X170225595Y-86819700D01*
X170225595Y-86819700D02*
X170177976Y-86772080D01*
X171130357Y-85867319D02*
X171749404Y-85867319D01*
X171749404Y-85867319D02*
X171416071Y-86248271D01*
X171416071Y-86248271D02*
X171558928Y-86248271D01*
X171558928Y-86248271D02*
X171654166Y-86295890D01*
X171654166Y-86295890D02*
X171701785Y-86343509D01*
X171701785Y-86343509D02*
X171749404Y-86438747D01*
X171749404Y-86438747D02*
X171749404Y-86676842D01*
X171749404Y-86676842D02*
X171701785Y-86772080D01*
X171701785Y-86772080D02*
X171654166Y-86819700D01*
X171654166Y-86819700D02*
X171558928Y-86867319D01*
X171558928Y-86867319D02*
X171273214Y-86867319D01*
X171273214Y-86867319D02*
X171177976Y-86819700D01*
X171177976Y-86819700D02*
X171130357Y-86772080D01*
X103942319Y-83745833D02*
X104656604Y-83745833D01*
X104656604Y-83745833D02*
X104799461Y-83793452D01*
X104799461Y-83793452D02*
X104894700Y-83888690D01*
X104894700Y-83888690D02*
X104942319Y-84031547D01*
X104942319Y-84031547D02*
X104942319Y-84126785D01*
X104942319Y-82745833D02*
X104942319Y-83317261D01*
X104942319Y-83031547D02*
X103942319Y-83031547D01*
X103942319Y-83031547D02*
X104085176Y-83126785D01*
X104085176Y-83126785D02*
X104180414Y-83222023D01*
X104180414Y-83222023D02*
X104228033Y-83317261D01*
X179847080Y-54055357D02*
X179894700Y-54102976D01*
X179894700Y-54102976D02*
X179942319Y-54245833D01*
X179942319Y-54245833D02*
X179942319Y-54341071D01*
X179942319Y-54341071D02*
X179894700Y-54483928D01*
X179894700Y-54483928D02*
X179799461Y-54579166D01*
X179799461Y-54579166D02*
X179704223Y-54626785D01*
X179704223Y-54626785D02*
X179513747Y-54674404D01*
X179513747Y-54674404D02*
X179370890Y-54674404D01*
X179370890Y-54674404D02*
X179180414Y-54626785D01*
X179180414Y-54626785D02*
X179085176Y-54579166D01*
X179085176Y-54579166D02*
X178989938Y-54483928D01*
X178989938Y-54483928D02*
X178942319Y-54341071D01*
X178942319Y-54341071D02*
X178942319Y-54245833D01*
X178942319Y-54245833D02*
X178989938Y-54102976D01*
X178989938Y-54102976D02*
X179037557Y-54055357D01*
X179037557Y-53674404D02*
X178989938Y-53626785D01*
X178989938Y-53626785D02*
X178942319Y-53531547D01*
X178942319Y-53531547D02*
X178942319Y-53293452D01*
X178942319Y-53293452D02*
X178989938Y-53198214D01*
X178989938Y-53198214D02*
X179037557Y-53150595D01*
X179037557Y-53150595D02*
X179132795Y-53102976D01*
X179132795Y-53102976D02*
X179228033Y-53102976D01*
X179228033Y-53102976D02*
X179370890Y-53150595D01*
X179370890Y-53150595D02*
X179942319Y-53722023D01*
X179942319Y-53722023D02*
X179942319Y-53102976D01*
X179942319Y-52626785D02*
X179942319Y-52436309D01*
X179942319Y-52436309D02*
X179894700Y-52341071D01*
X179894700Y-52341071D02*
X179847080Y-52293452D01*
X179847080Y-52293452D02*
X179704223Y-52198214D01*
X179704223Y-52198214D02*
X179513747Y-52150595D01*
X179513747Y-52150595D02*
X179132795Y-52150595D01*
X179132795Y-52150595D02*
X179037557Y-52198214D01*
X179037557Y-52198214D02*
X178989938Y-52245833D01*
X178989938Y-52245833D02*
X178942319Y-52341071D01*
X178942319Y-52341071D02*
X178942319Y-52531547D01*
X178942319Y-52531547D02*
X178989938Y-52626785D01*
X178989938Y-52626785D02*
X179037557Y-52674404D01*
X179037557Y-52674404D02*
X179132795Y-52722023D01*
X179132795Y-52722023D02*
X179370890Y-52722023D01*
X179370890Y-52722023D02*
X179466128Y-52674404D01*
X179466128Y-52674404D02*
X179513747Y-52626785D01*
X179513747Y-52626785D02*
X179561366Y-52531547D01*
X179561366Y-52531547D02*
X179561366Y-52341071D01*
X179561366Y-52341071D02*
X179513747Y-52245833D01*
X179513747Y-52245833D02*
X179466128Y-52198214D01*
X179466128Y-52198214D02*
X179370890Y-52150595D01*
X186942319Y-29055357D02*
X186466128Y-29388690D01*
X186942319Y-29626785D02*
X185942319Y-29626785D01*
X185942319Y-29626785D02*
X185942319Y-29245833D01*
X185942319Y-29245833D02*
X185989938Y-29150595D01*
X185989938Y-29150595D02*
X186037557Y-29102976D01*
X186037557Y-29102976D02*
X186132795Y-29055357D01*
X186132795Y-29055357D02*
X186275652Y-29055357D01*
X186275652Y-29055357D02*
X186370890Y-29102976D01*
X186370890Y-29102976D02*
X186418509Y-29150595D01*
X186418509Y-29150595D02*
X186466128Y-29245833D01*
X186466128Y-29245833D02*
X186466128Y-29626785D01*
X186942319Y-28102976D02*
X186942319Y-28674404D01*
X186942319Y-28388690D02*
X185942319Y-28388690D01*
X185942319Y-28388690D02*
X186085176Y-28483928D01*
X186085176Y-28483928D02*
X186180414Y-28579166D01*
X186180414Y-28579166D02*
X186228033Y-28674404D01*
X185942319Y-27198214D02*
X185942319Y-27674404D01*
X185942319Y-27674404D02*
X186418509Y-27722023D01*
X186418509Y-27722023D02*
X186370890Y-27674404D01*
X186370890Y-27674404D02*
X186323271Y-27579166D01*
X186323271Y-27579166D02*
X186323271Y-27341071D01*
X186323271Y-27341071D02*
X186370890Y-27245833D01*
X186370890Y-27245833D02*
X186418509Y-27198214D01*
X186418509Y-27198214D02*
X186513747Y-27150595D01*
X186513747Y-27150595D02*
X186751842Y-27150595D01*
X186751842Y-27150595D02*
X186847080Y-27198214D01*
X186847080Y-27198214D02*
X186894700Y-27245833D01*
X186894700Y-27245833D02*
X186942319Y-27341071D01*
X186942319Y-27341071D02*
X186942319Y-27579166D01*
X186942319Y-27579166D02*
X186894700Y-27674404D01*
X186894700Y-27674404D02*
X186847080Y-27722023D01*
X144749405Y-79454819D02*
X144749405Y-78454819D01*
X144749405Y-78454819D02*
X144987500Y-78454819D01*
X144987500Y-78454819D02*
X145130357Y-78502438D01*
X145130357Y-78502438D02*
X145225595Y-78597676D01*
X145225595Y-78597676D02*
X145273214Y-78692914D01*
X145273214Y-78692914D02*
X145320833Y-78883390D01*
X145320833Y-78883390D02*
X145320833Y-79026247D01*
X145320833Y-79026247D02*
X145273214Y-79216723D01*
X145273214Y-79216723D02*
X145225595Y-79311961D01*
X145225595Y-79311961D02*
X145130357Y-79407200D01*
X145130357Y-79407200D02*
X144987500Y-79454819D01*
X144987500Y-79454819D02*
X144749405Y-79454819D01*
X145654167Y-78454819D02*
X146273214Y-78454819D01*
X146273214Y-78454819D02*
X145939881Y-78835771D01*
X145939881Y-78835771D02*
X146082738Y-78835771D01*
X146082738Y-78835771D02*
X146177976Y-78883390D01*
X146177976Y-78883390D02*
X146225595Y-78931009D01*
X146225595Y-78931009D02*
X146273214Y-79026247D01*
X146273214Y-79026247D02*
X146273214Y-79264342D01*
X146273214Y-79264342D02*
X146225595Y-79359580D01*
X146225595Y-79359580D02*
X146177976Y-79407200D01*
X146177976Y-79407200D02*
X146082738Y-79454819D01*
X146082738Y-79454819D02*
X145797024Y-79454819D01*
X145797024Y-79454819D02*
X145701786Y-79407200D01*
X145701786Y-79407200D02*
X145654167Y-79359580D01*
X160245595Y-21867319D02*
X160245595Y-22676842D01*
X160245595Y-22676842D02*
X160293214Y-22772080D01*
X160293214Y-22772080D02*
X160340833Y-22819700D01*
X160340833Y-22819700D02*
X160436071Y-22867319D01*
X160436071Y-22867319D02*
X160626547Y-22867319D01*
X160626547Y-22867319D02*
X160721785Y-22819700D01*
X160721785Y-22819700D02*
X160769404Y-22772080D01*
X160769404Y-22772080D02*
X160817023Y-22676842D01*
X160817023Y-22676842D02*
X160817023Y-21867319D01*
X161245595Y-21962557D02*
X161293214Y-21914938D01*
X161293214Y-21914938D02*
X161388452Y-21867319D01*
X161388452Y-21867319D02*
X161626547Y-21867319D01*
X161626547Y-21867319D02*
X161721785Y-21914938D01*
X161721785Y-21914938D02*
X161769404Y-21962557D01*
X161769404Y-21962557D02*
X161817023Y-22057795D01*
X161817023Y-22057795D02*
X161817023Y-22153033D01*
X161817023Y-22153033D02*
X161769404Y-22295890D01*
X161769404Y-22295890D02*
X161197976Y-22867319D01*
X161197976Y-22867319D02*
X161817023Y-22867319D01*
X178345833Y-61454819D02*
X177869643Y-61454819D01*
X177869643Y-61454819D02*
X177869643Y-60454819D01*
X179107738Y-60788152D02*
X179107738Y-61454819D01*
X178869643Y-60407200D02*
X178631548Y-61121485D01*
X178631548Y-61121485D02*
X179250595Y-61121485D01*
X103320833Y-29867319D02*
X102987500Y-29391128D01*
X102749405Y-29867319D02*
X102749405Y-28867319D01*
X102749405Y-28867319D02*
X103130357Y-28867319D01*
X103130357Y-28867319D02*
X103225595Y-28914938D01*
X103225595Y-28914938D02*
X103273214Y-28962557D01*
X103273214Y-28962557D02*
X103320833Y-29057795D01*
X103320833Y-29057795D02*
X103320833Y-29200652D01*
X103320833Y-29200652D02*
X103273214Y-29295890D01*
X103273214Y-29295890D02*
X103225595Y-29343509D01*
X103225595Y-29343509D02*
X103130357Y-29391128D01*
X103130357Y-29391128D02*
X102749405Y-29391128D01*
X103654167Y-28867319D02*
X104320833Y-28867319D01*
X104320833Y-28867319D02*
X103892262Y-29867319D01*
X151364642Y-36867319D02*
X151031309Y-36391128D01*
X150793214Y-36867319D02*
X150793214Y-35867319D01*
X150793214Y-35867319D02*
X151174166Y-35867319D01*
X151174166Y-35867319D02*
X151269404Y-35914938D01*
X151269404Y-35914938D02*
X151317023Y-35962557D01*
X151317023Y-35962557D02*
X151364642Y-36057795D01*
X151364642Y-36057795D02*
X151364642Y-36200652D01*
X151364642Y-36200652D02*
X151317023Y-36295890D01*
X151317023Y-36295890D02*
X151269404Y-36343509D01*
X151269404Y-36343509D02*
X151174166Y-36391128D01*
X151174166Y-36391128D02*
X150793214Y-36391128D01*
X152317023Y-36867319D02*
X151745595Y-36867319D01*
X152031309Y-36867319D02*
X152031309Y-35867319D01*
X152031309Y-35867319D02*
X151936071Y-36010176D01*
X151936071Y-36010176D02*
X151840833Y-36105414D01*
X151840833Y-36105414D02*
X151745595Y-36153033D01*
X153269404Y-36867319D02*
X152697976Y-36867319D01*
X152983690Y-36867319D02*
X152983690Y-35867319D01*
X152983690Y-35867319D02*
X152888452Y-36010176D01*
X152888452Y-36010176D02*
X152793214Y-36105414D01*
X152793214Y-36105414D02*
X152697976Y-36153033D01*
X136666666Y-87454819D02*
X136666666Y-88169104D01*
X136666666Y-88169104D02*
X136619047Y-88311961D01*
X136619047Y-88311961D02*
X136523809Y-88407200D01*
X136523809Y-88407200D02*
X136380952Y-88454819D01*
X136380952Y-88454819D02*
X136285714Y-88454819D01*
X137095238Y-87550057D02*
X137142857Y-87502438D01*
X137142857Y-87502438D02*
X137238095Y-87454819D01*
X137238095Y-87454819D02*
X137476190Y-87454819D01*
X137476190Y-87454819D02*
X137571428Y-87502438D01*
X137571428Y-87502438D02*
X137619047Y-87550057D01*
X137619047Y-87550057D02*
X137666666Y-87645295D01*
X137666666Y-87645295D02*
X137666666Y-87740533D01*
X137666666Y-87740533D02*
X137619047Y-87883390D01*
X137619047Y-87883390D02*
X137047619Y-88454819D01*
X137047619Y-88454819D02*
X137666666Y-88454819D01*
X116361905Y-62954819D02*
X116361905Y-61954819D01*
X116361905Y-61954819D02*
X116600000Y-61954819D01*
X116600000Y-61954819D02*
X116742857Y-62002438D01*
X116742857Y-62002438D02*
X116838095Y-62097676D01*
X116838095Y-62097676D02*
X116885714Y-62192914D01*
X116885714Y-62192914D02*
X116933333Y-62383390D01*
X116933333Y-62383390D02*
X116933333Y-62526247D01*
X116933333Y-62526247D02*
X116885714Y-62716723D01*
X116885714Y-62716723D02*
X116838095Y-62811961D01*
X116838095Y-62811961D02*
X116742857Y-62907200D01*
X116742857Y-62907200D02*
X116600000Y-62954819D01*
X116600000Y-62954819D02*
X116361905Y-62954819D01*
X117885714Y-62954819D02*
X117314286Y-62954819D01*
X117600000Y-62954819D02*
X117600000Y-61954819D01*
X117600000Y-61954819D02*
X117504762Y-62097676D01*
X117504762Y-62097676D02*
X117409524Y-62192914D01*
X117409524Y-62192914D02*
X117314286Y-62240533D01*
X121904166Y-89867319D02*
X121904166Y-90581604D01*
X121904166Y-90581604D02*
X121856547Y-90724461D01*
X121856547Y-90724461D02*
X121761309Y-90819700D01*
X121761309Y-90819700D02*
X121618452Y-90867319D01*
X121618452Y-90867319D02*
X121523214Y-90867319D01*
X122808928Y-89867319D02*
X122618452Y-89867319D01*
X122618452Y-89867319D02*
X122523214Y-89914938D01*
X122523214Y-89914938D02*
X122475595Y-89962557D01*
X122475595Y-89962557D02*
X122380357Y-90105414D01*
X122380357Y-90105414D02*
X122332738Y-90295890D01*
X122332738Y-90295890D02*
X122332738Y-90676842D01*
X122332738Y-90676842D02*
X122380357Y-90772080D01*
X122380357Y-90772080D02*
X122427976Y-90819700D01*
X122427976Y-90819700D02*
X122523214Y-90867319D01*
X122523214Y-90867319D02*
X122713690Y-90867319D01*
X122713690Y-90867319D02*
X122808928Y-90819700D01*
X122808928Y-90819700D02*
X122856547Y-90772080D01*
X122856547Y-90772080D02*
X122904166Y-90676842D01*
X122904166Y-90676842D02*
X122904166Y-90438747D01*
X122904166Y-90438747D02*
X122856547Y-90343509D01*
X122856547Y-90343509D02*
X122808928Y-90295890D01*
X122808928Y-90295890D02*
X122713690Y-90248271D01*
X122713690Y-90248271D02*
X122523214Y-90248271D01*
X122523214Y-90248271D02*
X122427976Y-90295890D01*
X122427976Y-90295890D02*
X122380357Y-90343509D01*
X122380357Y-90343509D02*
X122332738Y-90438747D01*
X114416071Y-44769700D02*
X114558928Y-44817319D01*
X114558928Y-44817319D02*
X114797023Y-44817319D01*
X114797023Y-44817319D02*
X114892261Y-44769700D01*
X114892261Y-44769700D02*
X114939880Y-44722080D01*
X114939880Y-44722080D02*
X114987499Y-44626842D01*
X114987499Y-44626842D02*
X114987499Y-44531604D01*
X114987499Y-44531604D02*
X114939880Y-44436366D01*
X114939880Y-44436366D02*
X114892261Y-44388747D01*
X114892261Y-44388747D02*
X114797023Y-44341128D01*
X114797023Y-44341128D02*
X114606547Y-44293509D01*
X114606547Y-44293509D02*
X114511309Y-44245890D01*
X114511309Y-44245890D02*
X114463690Y-44198271D01*
X114463690Y-44198271D02*
X114416071Y-44103033D01*
X114416071Y-44103033D02*
X114416071Y-44007795D01*
X114416071Y-44007795D02*
X114463690Y-43912557D01*
X114463690Y-43912557D02*
X114511309Y-43864938D01*
X114511309Y-43864938D02*
X114606547Y-43817319D01*
X114606547Y-43817319D02*
X114844642Y-43817319D01*
X114844642Y-43817319D02*
X114987499Y-43864938D01*
X115320833Y-43817319D02*
X115558928Y-44817319D01*
X115558928Y-44817319D02*
X115749404Y-44103033D01*
X115749404Y-44103033D02*
X115939880Y-44817319D01*
X115939880Y-44817319D02*
X116177976Y-43817319D01*
X116320833Y-44912557D02*
X117082737Y-44912557D01*
X117892261Y-44817319D02*
X117558928Y-44341128D01*
X117320833Y-44817319D02*
X117320833Y-43817319D01*
X117320833Y-43817319D02*
X117701785Y-43817319D01*
X117701785Y-43817319D02*
X117797023Y-43864938D01*
X117797023Y-43864938D02*
X117844642Y-43912557D01*
X117844642Y-43912557D02*
X117892261Y-44007795D01*
X117892261Y-44007795D02*
X117892261Y-44150652D01*
X117892261Y-44150652D02*
X117844642Y-44245890D01*
X117844642Y-44245890D02*
X117797023Y-44293509D01*
X117797023Y-44293509D02*
X117701785Y-44341128D01*
X117701785Y-44341128D02*
X117320833Y-44341128D01*
X118273214Y-44769700D02*
X118416071Y-44817319D01*
X118416071Y-44817319D02*
X118654166Y-44817319D01*
X118654166Y-44817319D02*
X118749404Y-44769700D01*
X118749404Y-44769700D02*
X118797023Y-44722080D01*
X118797023Y-44722080D02*
X118844642Y-44626842D01*
X118844642Y-44626842D02*
X118844642Y-44531604D01*
X118844642Y-44531604D02*
X118797023Y-44436366D01*
X118797023Y-44436366D02*
X118749404Y-44388747D01*
X118749404Y-44388747D02*
X118654166Y-44341128D01*
X118654166Y-44341128D02*
X118463690Y-44293509D01*
X118463690Y-44293509D02*
X118368452Y-44245890D01*
X118368452Y-44245890D02*
X118320833Y-44198271D01*
X118320833Y-44198271D02*
X118273214Y-44103033D01*
X118273214Y-44103033D02*
X118273214Y-44007795D01*
X118273214Y-44007795D02*
X118320833Y-43912557D01*
X118320833Y-43912557D02*
X118368452Y-43864938D01*
X118368452Y-43864938D02*
X118463690Y-43817319D01*
X118463690Y-43817319D02*
X118701785Y-43817319D01*
X118701785Y-43817319D02*
X118844642Y-43864938D01*
X119130357Y-43817319D02*
X119701785Y-43817319D01*
X119416071Y-44817319D02*
X119416071Y-43817319D01*
X120558928Y-44817319D02*
X119987500Y-44817319D01*
X120273214Y-44817319D02*
X120273214Y-43817319D01*
X120273214Y-43817319D02*
X120177976Y-43960176D01*
X120177976Y-43960176D02*
X120082738Y-44055414D01*
X120082738Y-44055414D02*
X119987500Y-44103033D01*
X106320833Y-84452080D02*
X106273214Y-84499700D01*
X106273214Y-84499700D02*
X106130357Y-84547319D01*
X106130357Y-84547319D02*
X106035119Y-84547319D01*
X106035119Y-84547319D02*
X105892262Y-84499700D01*
X105892262Y-84499700D02*
X105797024Y-84404461D01*
X105797024Y-84404461D02*
X105749405Y-84309223D01*
X105749405Y-84309223D02*
X105701786Y-84118747D01*
X105701786Y-84118747D02*
X105701786Y-83975890D01*
X105701786Y-83975890D02*
X105749405Y-83785414D01*
X105749405Y-83785414D02*
X105797024Y-83690176D01*
X105797024Y-83690176D02*
X105892262Y-83594938D01*
X105892262Y-83594938D02*
X106035119Y-83547319D01*
X106035119Y-83547319D02*
X106130357Y-83547319D01*
X106130357Y-83547319D02*
X106273214Y-83594938D01*
X106273214Y-83594938D02*
X106320833Y-83642557D01*
X107273214Y-84547319D02*
X106701786Y-84547319D01*
X106987500Y-84547319D02*
X106987500Y-83547319D01*
X106987500Y-83547319D02*
X106892262Y-83690176D01*
X106892262Y-83690176D02*
X106797024Y-83785414D01*
X106797024Y-83785414D02*
X106701786Y-83833033D01*
X157364642Y-24772080D02*
X157317023Y-24819700D01*
X157317023Y-24819700D02*
X157174166Y-24867319D01*
X157174166Y-24867319D02*
X157078928Y-24867319D01*
X157078928Y-24867319D02*
X156936071Y-24819700D01*
X156936071Y-24819700D02*
X156840833Y-24724461D01*
X156840833Y-24724461D02*
X156793214Y-24629223D01*
X156793214Y-24629223D02*
X156745595Y-24438747D01*
X156745595Y-24438747D02*
X156745595Y-24295890D01*
X156745595Y-24295890D02*
X156793214Y-24105414D01*
X156793214Y-24105414D02*
X156840833Y-24010176D01*
X156840833Y-24010176D02*
X156936071Y-23914938D01*
X156936071Y-23914938D02*
X157078928Y-23867319D01*
X157078928Y-23867319D02*
X157174166Y-23867319D01*
X157174166Y-23867319D02*
X157317023Y-23914938D01*
X157317023Y-23914938D02*
X157364642Y-23962557D01*
X158317023Y-24867319D02*
X157745595Y-24867319D01*
X158031309Y-24867319D02*
X158031309Y-23867319D01*
X158031309Y-23867319D02*
X157936071Y-24010176D01*
X157936071Y-24010176D02*
X157840833Y-24105414D01*
X157840833Y-24105414D02*
X157745595Y-24153033D01*
X158650357Y-23867319D02*
X159317023Y-23867319D01*
X159317023Y-23867319D02*
X158888452Y-24867319D01*
X155840833Y-27867319D02*
X155507500Y-27391128D01*
X155269405Y-27867319D02*
X155269405Y-26867319D01*
X155269405Y-26867319D02*
X155650357Y-26867319D01*
X155650357Y-26867319D02*
X155745595Y-26914938D01*
X155745595Y-26914938D02*
X155793214Y-26962557D01*
X155793214Y-26962557D02*
X155840833Y-27057795D01*
X155840833Y-27057795D02*
X155840833Y-27200652D01*
X155840833Y-27200652D02*
X155793214Y-27295890D01*
X155793214Y-27295890D02*
X155745595Y-27343509D01*
X155745595Y-27343509D02*
X155650357Y-27391128D01*
X155650357Y-27391128D02*
X155269405Y-27391128D01*
X156317024Y-27867319D02*
X156507500Y-27867319D01*
X156507500Y-27867319D02*
X156602738Y-27819700D01*
X156602738Y-27819700D02*
X156650357Y-27772080D01*
X156650357Y-27772080D02*
X156745595Y-27629223D01*
X156745595Y-27629223D02*
X156793214Y-27438747D01*
X156793214Y-27438747D02*
X156793214Y-27057795D01*
X156793214Y-27057795D02*
X156745595Y-26962557D01*
X156745595Y-26962557D02*
X156697976Y-26914938D01*
X156697976Y-26914938D02*
X156602738Y-26867319D01*
X156602738Y-26867319D02*
X156412262Y-26867319D01*
X156412262Y-26867319D02*
X156317024Y-26914938D01*
X156317024Y-26914938D02*
X156269405Y-26962557D01*
X156269405Y-26962557D02*
X156221786Y-27057795D01*
X156221786Y-27057795D02*
X156221786Y-27295890D01*
X156221786Y-27295890D02*
X156269405Y-27391128D01*
X156269405Y-27391128D02*
X156317024Y-27438747D01*
X156317024Y-27438747D02*
X156412262Y-27486366D01*
X156412262Y-27486366D02*
X156602738Y-27486366D01*
X156602738Y-27486366D02*
X156697976Y-27438747D01*
X156697976Y-27438747D02*
X156745595Y-27391128D01*
X156745595Y-27391128D02*
X156793214Y-27295890D01*
X176844642Y-55772080D02*
X176797023Y-55819700D01*
X176797023Y-55819700D02*
X176654166Y-55867319D01*
X176654166Y-55867319D02*
X176558928Y-55867319D01*
X176558928Y-55867319D02*
X176416071Y-55819700D01*
X176416071Y-55819700D02*
X176320833Y-55724461D01*
X176320833Y-55724461D02*
X176273214Y-55629223D01*
X176273214Y-55629223D02*
X176225595Y-55438747D01*
X176225595Y-55438747D02*
X176225595Y-55295890D01*
X176225595Y-55295890D02*
X176273214Y-55105414D01*
X176273214Y-55105414D02*
X176320833Y-55010176D01*
X176320833Y-55010176D02*
X176416071Y-54914938D01*
X176416071Y-54914938D02*
X176558928Y-54867319D01*
X176558928Y-54867319D02*
X176654166Y-54867319D01*
X176654166Y-54867319D02*
X176797023Y-54914938D01*
X176797023Y-54914938D02*
X176844642Y-54962557D01*
X177225595Y-54962557D02*
X177273214Y-54914938D01*
X177273214Y-54914938D02*
X177368452Y-54867319D01*
X177368452Y-54867319D02*
X177606547Y-54867319D01*
X177606547Y-54867319D02*
X177701785Y-54914938D01*
X177701785Y-54914938D02*
X177749404Y-54962557D01*
X177749404Y-54962557D02*
X177797023Y-55057795D01*
X177797023Y-55057795D02*
X177797023Y-55153033D01*
X177797023Y-55153033D02*
X177749404Y-55295890D01*
X177749404Y-55295890D02*
X177177976Y-55867319D01*
X177177976Y-55867319D02*
X177797023Y-55867319D01*
X178749404Y-55867319D02*
X178177976Y-55867319D01*
X178463690Y-55867319D02*
X178463690Y-54867319D01*
X178463690Y-54867319D02*
X178368452Y-55010176D01*
X178368452Y-55010176D02*
X178273214Y-55105414D01*
X178273214Y-55105414D02*
X178177976Y-55153033D01*
X107725595Y-84867319D02*
X107725595Y-85676842D01*
X107725595Y-85676842D02*
X107773214Y-85772080D01*
X107773214Y-85772080D02*
X107820833Y-85819700D01*
X107820833Y-85819700D02*
X107916071Y-85867319D01*
X107916071Y-85867319D02*
X108106547Y-85867319D01*
X108106547Y-85867319D02*
X108201785Y-85819700D01*
X108201785Y-85819700D02*
X108249404Y-85772080D01*
X108249404Y-85772080D02*
X108297023Y-85676842D01*
X108297023Y-85676842D02*
X108297023Y-84867319D01*
X108677976Y-84867319D02*
X109297023Y-84867319D01*
X109297023Y-84867319D02*
X108963690Y-85248271D01*
X108963690Y-85248271D02*
X109106547Y-85248271D01*
X109106547Y-85248271D02*
X109201785Y-85295890D01*
X109201785Y-85295890D02*
X109249404Y-85343509D01*
X109249404Y-85343509D02*
X109297023Y-85438747D01*
X109297023Y-85438747D02*
X109297023Y-85676842D01*
X109297023Y-85676842D02*
X109249404Y-85772080D01*
X109249404Y-85772080D02*
X109201785Y-85819700D01*
X109201785Y-85819700D02*
X109106547Y-85867319D01*
X109106547Y-85867319D02*
X108820833Y-85867319D01*
X108820833Y-85867319D02*
X108725595Y-85819700D01*
X108725595Y-85819700D02*
X108677976Y-85772080D01*
X184833333Y-75454819D02*
X184357143Y-75454819D01*
X184357143Y-75454819D02*
X184357143Y-74454819D01*
X185642857Y-74454819D02*
X185166667Y-74454819D01*
X185166667Y-74454819D02*
X185119048Y-74931009D01*
X185119048Y-74931009D02*
X185166667Y-74883390D01*
X185166667Y-74883390D02*
X185261905Y-74835771D01*
X185261905Y-74835771D02*
X185500000Y-74835771D01*
X185500000Y-74835771D02*
X185595238Y-74883390D01*
X185595238Y-74883390D02*
X185642857Y-74931009D01*
X185642857Y-74931009D02*
X185690476Y-75026247D01*
X185690476Y-75026247D02*
X185690476Y-75264342D01*
X185690476Y-75264342D02*
X185642857Y-75359580D01*
X185642857Y-75359580D02*
X185595238Y-75407200D01*
X185595238Y-75407200D02*
X185500000Y-75454819D01*
X185500000Y-75454819D02*
X185261905Y-75454819D01*
X185261905Y-75454819D02*
X185166667Y-75407200D01*
X185166667Y-75407200D02*
X185119048Y-75359580D01*
X163664874Y-86719819D02*
X163664874Y-87434104D01*
X163664874Y-87434104D02*
X163617255Y-87576961D01*
X163617255Y-87576961D02*
X163522017Y-87672200D01*
X163522017Y-87672200D02*
X163379160Y-87719819D01*
X163379160Y-87719819D02*
X163283922Y-87719819D01*
X164569636Y-87053152D02*
X164569636Y-87719819D01*
X164331541Y-86672200D02*
X164093446Y-87386485D01*
X164093446Y-87386485D02*
X164712493Y-87386485D01*
X159364642Y-41867319D02*
X159031309Y-41391128D01*
X158793214Y-41867319D02*
X158793214Y-40867319D01*
X158793214Y-40867319D02*
X159174166Y-40867319D01*
X159174166Y-40867319D02*
X159269404Y-40914938D01*
X159269404Y-40914938D02*
X159317023Y-40962557D01*
X159317023Y-40962557D02*
X159364642Y-41057795D01*
X159364642Y-41057795D02*
X159364642Y-41200652D01*
X159364642Y-41200652D02*
X159317023Y-41295890D01*
X159317023Y-41295890D02*
X159269404Y-41343509D01*
X159269404Y-41343509D02*
X159174166Y-41391128D01*
X159174166Y-41391128D02*
X158793214Y-41391128D01*
X160317023Y-41867319D02*
X159745595Y-41867319D01*
X160031309Y-41867319D02*
X160031309Y-40867319D01*
X160031309Y-40867319D02*
X159936071Y-41010176D01*
X159936071Y-41010176D02*
X159840833Y-41105414D01*
X159840833Y-41105414D02*
X159745595Y-41153033D01*
X160650357Y-40867319D02*
X161269404Y-40867319D01*
X161269404Y-40867319D02*
X160936071Y-41248271D01*
X160936071Y-41248271D02*
X161078928Y-41248271D01*
X161078928Y-41248271D02*
X161174166Y-41295890D01*
X161174166Y-41295890D02*
X161221785Y-41343509D01*
X161221785Y-41343509D02*
X161269404Y-41438747D01*
X161269404Y-41438747D02*
X161269404Y-41676842D01*
X161269404Y-41676842D02*
X161221785Y-41772080D01*
X161221785Y-41772080D02*
X161174166Y-41819700D01*
X161174166Y-41819700D02*
X161078928Y-41867319D01*
X161078928Y-41867319D02*
X160793214Y-41867319D01*
X160793214Y-41867319D02*
X160697976Y-41819700D01*
X160697976Y-41819700D02*
X160650357Y-41772080D01*
X170844642Y-48772080D02*
X170797023Y-48819700D01*
X170797023Y-48819700D02*
X170654166Y-48867319D01*
X170654166Y-48867319D02*
X170558928Y-48867319D01*
X170558928Y-48867319D02*
X170416071Y-48819700D01*
X170416071Y-48819700D02*
X170320833Y-48724461D01*
X170320833Y-48724461D02*
X170273214Y-48629223D01*
X170273214Y-48629223D02*
X170225595Y-48438747D01*
X170225595Y-48438747D02*
X170225595Y-48295890D01*
X170225595Y-48295890D02*
X170273214Y-48105414D01*
X170273214Y-48105414D02*
X170320833Y-48010176D01*
X170320833Y-48010176D02*
X170416071Y-47914938D01*
X170416071Y-47914938D02*
X170558928Y-47867319D01*
X170558928Y-47867319D02*
X170654166Y-47867319D01*
X170654166Y-47867319D02*
X170797023Y-47914938D01*
X170797023Y-47914938D02*
X170844642Y-47962557D01*
X171225595Y-47962557D02*
X171273214Y-47914938D01*
X171273214Y-47914938D02*
X171368452Y-47867319D01*
X171368452Y-47867319D02*
X171606547Y-47867319D01*
X171606547Y-47867319D02*
X171701785Y-47914938D01*
X171701785Y-47914938D02*
X171749404Y-47962557D01*
X171749404Y-47962557D02*
X171797023Y-48057795D01*
X171797023Y-48057795D02*
X171797023Y-48153033D01*
X171797023Y-48153033D02*
X171749404Y-48295890D01*
X171749404Y-48295890D02*
X171177976Y-48867319D01*
X171177976Y-48867319D02*
X171797023Y-48867319D01*
X172416071Y-47867319D02*
X172511309Y-47867319D01*
X172511309Y-47867319D02*
X172606547Y-47914938D01*
X172606547Y-47914938D02*
X172654166Y-47962557D01*
X172654166Y-47962557D02*
X172701785Y-48057795D01*
X172701785Y-48057795D02*
X172749404Y-48248271D01*
X172749404Y-48248271D02*
X172749404Y-48486366D01*
X172749404Y-48486366D02*
X172701785Y-48676842D01*
X172701785Y-48676842D02*
X172654166Y-48772080D01*
X172654166Y-48772080D02*
X172606547Y-48819700D01*
X172606547Y-48819700D02*
X172511309Y-48867319D01*
X172511309Y-48867319D02*
X172416071Y-48867319D01*
X172416071Y-48867319D02*
X172320833Y-48819700D01*
X172320833Y-48819700D02*
X172273214Y-48772080D01*
X172273214Y-48772080D02*
X172225595Y-48676842D01*
X172225595Y-48676842D02*
X172177976Y-48486366D01*
X172177976Y-48486366D02*
X172177976Y-48248271D01*
X172177976Y-48248271D02*
X172225595Y-48057795D01*
X172225595Y-48057795D02*
X172273214Y-47962557D01*
X172273214Y-47962557D02*
X172320833Y-47914938D01*
X172320833Y-47914938D02*
X172416071Y-47867319D01*
X189942319Y-36055357D02*
X189466128Y-36388690D01*
X189942319Y-36626785D02*
X188942319Y-36626785D01*
X188942319Y-36626785D02*
X188942319Y-36245833D01*
X188942319Y-36245833D02*
X188989938Y-36150595D01*
X188989938Y-36150595D02*
X189037557Y-36102976D01*
X189037557Y-36102976D02*
X189132795Y-36055357D01*
X189132795Y-36055357D02*
X189275652Y-36055357D01*
X189275652Y-36055357D02*
X189370890Y-36102976D01*
X189370890Y-36102976D02*
X189418509Y-36150595D01*
X189418509Y-36150595D02*
X189466128Y-36245833D01*
X189466128Y-36245833D02*
X189466128Y-36626785D01*
X189942319Y-35102976D02*
X189942319Y-35674404D01*
X189942319Y-35388690D02*
X188942319Y-35388690D01*
X188942319Y-35388690D02*
X189085176Y-35483928D01*
X189085176Y-35483928D02*
X189180414Y-35579166D01*
X189180414Y-35579166D02*
X189228033Y-35674404D01*
X189275652Y-34245833D02*
X189942319Y-34245833D01*
X188894700Y-34483928D02*
X189608985Y-34722023D01*
X189608985Y-34722023D02*
X189608985Y-34102976D01*
X160364642Y-24772080D02*
X160317023Y-24819700D01*
X160317023Y-24819700D02*
X160174166Y-24867319D01*
X160174166Y-24867319D02*
X160078928Y-24867319D01*
X160078928Y-24867319D02*
X159936071Y-24819700D01*
X159936071Y-24819700D02*
X159840833Y-24724461D01*
X159840833Y-24724461D02*
X159793214Y-24629223D01*
X159793214Y-24629223D02*
X159745595Y-24438747D01*
X159745595Y-24438747D02*
X159745595Y-24295890D01*
X159745595Y-24295890D02*
X159793214Y-24105414D01*
X159793214Y-24105414D02*
X159840833Y-24010176D01*
X159840833Y-24010176D02*
X159936071Y-23914938D01*
X159936071Y-23914938D02*
X160078928Y-23867319D01*
X160078928Y-23867319D02*
X160174166Y-23867319D01*
X160174166Y-23867319D02*
X160317023Y-23914938D01*
X160317023Y-23914938D02*
X160364642Y-23962557D01*
X161317023Y-24867319D02*
X160745595Y-24867319D01*
X161031309Y-24867319D02*
X161031309Y-23867319D01*
X161031309Y-23867319D02*
X160936071Y-24010176D01*
X160936071Y-24010176D02*
X160840833Y-24105414D01*
X160840833Y-24105414D02*
X160745595Y-24153033D01*
X162174166Y-23867319D02*
X161983690Y-23867319D01*
X161983690Y-23867319D02*
X161888452Y-23914938D01*
X161888452Y-23914938D02*
X161840833Y-23962557D01*
X161840833Y-23962557D02*
X161745595Y-24105414D01*
X161745595Y-24105414D02*
X161697976Y-24295890D01*
X161697976Y-24295890D02*
X161697976Y-24676842D01*
X161697976Y-24676842D02*
X161745595Y-24772080D01*
X161745595Y-24772080D02*
X161793214Y-24819700D01*
X161793214Y-24819700D02*
X161888452Y-24867319D01*
X161888452Y-24867319D02*
X162078928Y-24867319D01*
X162078928Y-24867319D02*
X162174166Y-24819700D01*
X162174166Y-24819700D02*
X162221785Y-24772080D01*
X162221785Y-24772080D02*
X162269404Y-24676842D01*
X162269404Y-24676842D02*
X162269404Y-24438747D01*
X162269404Y-24438747D02*
X162221785Y-24343509D01*
X162221785Y-24343509D02*
X162174166Y-24295890D01*
X162174166Y-24295890D02*
X162078928Y-24248271D01*
X162078928Y-24248271D02*
X161888452Y-24248271D01*
X161888452Y-24248271D02*
X161793214Y-24295890D01*
X161793214Y-24295890D02*
X161745595Y-24343509D01*
X161745595Y-24343509D02*
X161697976Y-24438747D01*
X168320833Y-36772080D02*
X168273214Y-36819700D01*
X168273214Y-36819700D02*
X168130357Y-36867319D01*
X168130357Y-36867319D02*
X168035119Y-36867319D01*
X168035119Y-36867319D02*
X167892262Y-36819700D01*
X167892262Y-36819700D02*
X167797024Y-36724461D01*
X167797024Y-36724461D02*
X167749405Y-36629223D01*
X167749405Y-36629223D02*
X167701786Y-36438747D01*
X167701786Y-36438747D02*
X167701786Y-36295890D01*
X167701786Y-36295890D02*
X167749405Y-36105414D01*
X167749405Y-36105414D02*
X167797024Y-36010176D01*
X167797024Y-36010176D02*
X167892262Y-35914938D01*
X167892262Y-35914938D02*
X168035119Y-35867319D01*
X168035119Y-35867319D02*
X168130357Y-35867319D01*
X168130357Y-35867319D02*
X168273214Y-35914938D01*
X168273214Y-35914938D02*
X168320833Y-35962557D01*
X168797024Y-36867319D02*
X168987500Y-36867319D01*
X168987500Y-36867319D02*
X169082738Y-36819700D01*
X169082738Y-36819700D02*
X169130357Y-36772080D01*
X169130357Y-36772080D02*
X169225595Y-36629223D01*
X169225595Y-36629223D02*
X169273214Y-36438747D01*
X169273214Y-36438747D02*
X169273214Y-36057795D01*
X169273214Y-36057795D02*
X169225595Y-35962557D01*
X169225595Y-35962557D02*
X169177976Y-35914938D01*
X169177976Y-35914938D02*
X169082738Y-35867319D01*
X169082738Y-35867319D02*
X168892262Y-35867319D01*
X168892262Y-35867319D02*
X168797024Y-35914938D01*
X168797024Y-35914938D02*
X168749405Y-35962557D01*
X168749405Y-35962557D02*
X168701786Y-36057795D01*
X168701786Y-36057795D02*
X168701786Y-36295890D01*
X168701786Y-36295890D02*
X168749405Y-36391128D01*
X168749405Y-36391128D02*
X168797024Y-36438747D01*
X168797024Y-36438747D02*
X168892262Y-36486366D01*
X168892262Y-36486366D02*
X169082738Y-36486366D01*
X169082738Y-36486366D02*
X169177976Y-36438747D01*
X169177976Y-36438747D02*
X169225595Y-36391128D01*
X169225595Y-36391128D02*
X169273214Y-36295890D01*
X124725595Y-70254819D02*
X124725595Y-71064342D01*
X124725595Y-71064342D02*
X124773214Y-71159580D01*
X124773214Y-71159580D02*
X124820833Y-71207200D01*
X124820833Y-71207200D02*
X124916071Y-71254819D01*
X124916071Y-71254819D02*
X125106547Y-71254819D01*
X125106547Y-71254819D02*
X125201785Y-71207200D01*
X125201785Y-71207200D02*
X125249404Y-71159580D01*
X125249404Y-71159580D02*
X125297023Y-71064342D01*
X125297023Y-71064342D02*
X125297023Y-70254819D01*
X125677976Y-70254819D02*
X126344642Y-70254819D01*
X126344642Y-70254819D02*
X125916071Y-71254819D01*
X163364642Y-24772080D02*
X163317023Y-24819700D01*
X163317023Y-24819700D02*
X163174166Y-24867319D01*
X163174166Y-24867319D02*
X163078928Y-24867319D01*
X163078928Y-24867319D02*
X162936071Y-24819700D01*
X162936071Y-24819700D02*
X162840833Y-24724461D01*
X162840833Y-24724461D02*
X162793214Y-24629223D01*
X162793214Y-24629223D02*
X162745595Y-24438747D01*
X162745595Y-24438747D02*
X162745595Y-24295890D01*
X162745595Y-24295890D02*
X162793214Y-24105414D01*
X162793214Y-24105414D02*
X162840833Y-24010176D01*
X162840833Y-24010176D02*
X162936071Y-23914938D01*
X162936071Y-23914938D02*
X163078928Y-23867319D01*
X163078928Y-23867319D02*
X163174166Y-23867319D01*
X163174166Y-23867319D02*
X163317023Y-23914938D01*
X163317023Y-23914938D02*
X163364642Y-23962557D01*
X164317023Y-24867319D02*
X163745595Y-24867319D01*
X164031309Y-24867319D02*
X164031309Y-23867319D01*
X164031309Y-23867319D02*
X163936071Y-24010176D01*
X163936071Y-24010176D02*
X163840833Y-24105414D01*
X163840833Y-24105414D02*
X163745595Y-24153033D01*
X165221785Y-23867319D02*
X164745595Y-23867319D01*
X164745595Y-23867319D02*
X164697976Y-24343509D01*
X164697976Y-24343509D02*
X164745595Y-24295890D01*
X164745595Y-24295890D02*
X164840833Y-24248271D01*
X164840833Y-24248271D02*
X165078928Y-24248271D01*
X165078928Y-24248271D02*
X165174166Y-24295890D01*
X165174166Y-24295890D02*
X165221785Y-24343509D01*
X165221785Y-24343509D02*
X165269404Y-24438747D01*
X165269404Y-24438747D02*
X165269404Y-24676842D01*
X165269404Y-24676842D02*
X165221785Y-24772080D01*
X165221785Y-24772080D02*
X165174166Y-24819700D01*
X165174166Y-24819700D02*
X165078928Y-24867319D01*
X165078928Y-24867319D02*
X164840833Y-24867319D01*
X164840833Y-24867319D02*
X164745595Y-24819700D01*
X164745595Y-24819700D02*
X164697976Y-24772080D01*
X123942319Y-87055357D02*
X123466128Y-87388690D01*
X123942319Y-87626785D02*
X122942319Y-87626785D01*
X122942319Y-87626785D02*
X122942319Y-87245833D01*
X122942319Y-87245833D02*
X122989938Y-87150595D01*
X122989938Y-87150595D02*
X123037557Y-87102976D01*
X123037557Y-87102976D02*
X123132795Y-87055357D01*
X123132795Y-87055357D02*
X123275652Y-87055357D01*
X123275652Y-87055357D02*
X123370890Y-87102976D01*
X123370890Y-87102976D02*
X123418509Y-87150595D01*
X123418509Y-87150595D02*
X123466128Y-87245833D01*
X123466128Y-87245833D02*
X123466128Y-87626785D01*
X123942319Y-86102976D02*
X123942319Y-86674404D01*
X123942319Y-86388690D02*
X122942319Y-86388690D01*
X122942319Y-86388690D02*
X123085176Y-86483928D01*
X123085176Y-86483928D02*
X123180414Y-86579166D01*
X123180414Y-86579166D02*
X123228033Y-86674404D01*
X122942319Y-85769642D02*
X122942319Y-85102976D01*
X122942319Y-85102976D02*
X123942319Y-85531547D01*
X180154166Y-86719819D02*
X180154166Y-87434104D01*
X180154166Y-87434104D02*
X180106547Y-87576961D01*
X180106547Y-87576961D02*
X180011309Y-87672200D01*
X180011309Y-87672200D02*
X179868452Y-87719819D01*
X179868452Y-87719819D02*
X179773214Y-87719819D01*
X181106547Y-86719819D02*
X180630357Y-86719819D01*
X180630357Y-86719819D02*
X180582738Y-87196009D01*
X180582738Y-87196009D02*
X180630357Y-87148390D01*
X180630357Y-87148390D02*
X180725595Y-87100771D01*
X180725595Y-87100771D02*
X180963690Y-87100771D01*
X180963690Y-87100771D02*
X181058928Y-87148390D01*
X181058928Y-87148390D02*
X181106547Y-87196009D01*
X181106547Y-87196009D02*
X181154166Y-87291247D01*
X181154166Y-87291247D02*
X181154166Y-87529342D01*
X181154166Y-87529342D02*
X181106547Y-87624580D01*
X181106547Y-87624580D02*
X181058928Y-87672200D01*
X181058928Y-87672200D02*
X180963690Y-87719819D01*
X180963690Y-87719819D02*
X180725595Y-87719819D01*
X180725595Y-87719819D02*
X180630357Y-87672200D01*
X180630357Y-87672200D02*
X180582738Y-87624580D01*
X96511309Y-61867319D02*
X96511309Y-62676842D01*
X96511309Y-62676842D02*
X96558928Y-62772080D01*
X96558928Y-62772080D02*
X96606547Y-62819700D01*
X96606547Y-62819700D02*
X96701785Y-62867319D01*
X96701785Y-62867319D02*
X96892261Y-62867319D01*
X96892261Y-62867319D02*
X96987499Y-62819700D01*
X96987499Y-62819700D02*
X97035118Y-62772080D01*
X97035118Y-62772080D02*
X97082737Y-62676842D01*
X97082737Y-62676842D02*
X97082737Y-61867319D01*
X97320833Y-62962557D02*
X98082737Y-62962557D01*
X98320833Y-61867319D02*
X98320833Y-62676842D01*
X98320833Y-62676842D02*
X98368452Y-62772080D01*
X98368452Y-62772080D02*
X98416071Y-62819700D01*
X98416071Y-62819700D02*
X98511309Y-62867319D01*
X98511309Y-62867319D02*
X98701785Y-62867319D01*
X98701785Y-62867319D02*
X98797023Y-62819700D01*
X98797023Y-62819700D02*
X98844642Y-62772080D01*
X98844642Y-62772080D02*
X98892261Y-62676842D01*
X98892261Y-62676842D02*
X98892261Y-61867319D01*
X99320833Y-62581604D02*
X99797023Y-62581604D01*
X99225595Y-62867319D02*
X99558928Y-61867319D01*
X99558928Y-61867319D02*
X99892261Y-62867319D01*
X100797023Y-62867319D02*
X100463690Y-62391128D01*
X100225595Y-62867319D02*
X100225595Y-61867319D01*
X100225595Y-61867319D02*
X100606547Y-61867319D01*
X100606547Y-61867319D02*
X100701785Y-61914938D01*
X100701785Y-61914938D02*
X100749404Y-61962557D01*
X100749404Y-61962557D02*
X100797023Y-62057795D01*
X100797023Y-62057795D02*
X100797023Y-62200652D01*
X100797023Y-62200652D02*
X100749404Y-62295890D01*
X100749404Y-62295890D02*
X100701785Y-62343509D01*
X100701785Y-62343509D02*
X100606547Y-62391128D01*
X100606547Y-62391128D02*
X100225595Y-62391128D01*
X101082738Y-61867319D02*
X101654166Y-61867319D01*
X101368452Y-62867319D02*
X101368452Y-61867319D01*
X102511309Y-62867319D02*
X101939881Y-62867319D01*
X102225595Y-62867319D02*
X102225595Y-61867319D01*
X102225595Y-61867319D02*
X102130357Y-62010176D01*
X102130357Y-62010176D02*
X102035119Y-62105414D01*
X102035119Y-62105414D02*
X101939881Y-62153033D01*
X108580952Y-95437319D02*
X108104762Y-95437319D01*
X108104762Y-95437319D02*
X108104762Y-94437319D01*
X108914286Y-94913509D02*
X109247619Y-94913509D01*
X109390476Y-95437319D02*
X108914286Y-95437319D01*
X108914286Y-95437319D02*
X108914286Y-94437319D01*
X108914286Y-94437319D02*
X109390476Y-94437319D01*
X109819048Y-95437319D02*
X109819048Y-94437319D01*
X109819048Y-94437319D02*
X110057143Y-94437319D01*
X110057143Y-94437319D02*
X110200000Y-94484938D01*
X110200000Y-94484938D02*
X110295238Y-94580176D01*
X110295238Y-94580176D02*
X110342857Y-94675414D01*
X110342857Y-94675414D02*
X110390476Y-94865890D01*
X110390476Y-94865890D02*
X110390476Y-95008747D01*
X110390476Y-95008747D02*
X110342857Y-95199223D01*
X110342857Y-95199223D02*
X110295238Y-95294461D01*
X110295238Y-95294461D02*
X110200000Y-95389700D01*
X110200000Y-95389700D02*
X110057143Y-95437319D01*
X110057143Y-95437319D02*
X109819048Y-95437319D01*
X111342857Y-95437319D02*
X110771429Y-95437319D01*
X111057143Y-95437319D02*
X111057143Y-94437319D01*
X111057143Y-94437319D02*
X110961905Y-94580176D01*
X110961905Y-94580176D02*
X110866667Y-94675414D01*
X110866667Y-94675414D02*
X110771429Y-94723033D01*
X188844642Y-74452080D02*
X188797023Y-74499700D01*
X188797023Y-74499700D02*
X188654166Y-74547319D01*
X188654166Y-74547319D02*
X188558928Y-74547319D01*
X188558928Y-74547319D02*
X188416071Y-74499700D01*
X188416071Y-74499700D02*
X188320833Y-74404461D01*
X188320833Y-74404461D02*
X188273214Y-74309223D01*
X188273214Y-74309223D02*
X188225595Y-74118747D01*
X188225595Y-74118747D02*
X188225595Y-73975890D01*
X188225595Y-73975890D02*
X188273214Y-73785414D01*
X188273214Y-73785414D02*
X188320833Y-73690176D01*
X188320833Y-73690176D02*
X188416071Y-73594938D01*
X188416071Y-73594938D02*
X188558928Y-73547319D01*
X188558928Y-73547319D02*
X188654166Y-73547319D01*
X188654166Y-73547319D02*
X188797023Y-73594938D01*
X188797023Y-73594938D02*
X188844642Y-73642557D01*
X189177976Y-73547319D02*
X189797023Y-73547319D01*
X189797023Y-73547319D02*
X189463690Y-73928271D01*
X189463690Y-73928271D02*
X189606547Y-73928271D01*
X189606547Y-73928271D02*
X189701785Y-73975890D01*
X189701785Y-73975890D02*
X189749404Y-74023509D01*
X189749404Y-74023509D02*
X189797023Y-74118747D01*
X189797023Y-74118747D02*
X189797023Y-74356842D01*
X189797023Y-74356842D02*
X189749404Y-74452080D01*
X189749404Y-74452080D02*
X189701785Y-74499700D01*
X189701785Y-74499700D02*
X189606547Y-74547319D01*
X189606547Y-74547319D02*
X189320833Y-74547319D01*
X189320833Y-74547319D02*
X189225595Y-74499700D01*
X189225595Y-74499700D02*
X189177976Y-74452080D01*
X190654166Y-73880652D02*
X190654166Y-74547319D01*
X190416071Y-73499700D02*
X190177976Y-74213985D01*
X190177976Y-74213985D02*
X190797023Y-74213985D01*
X116320833Y-88437319D02*
X115987500Y-87961128D01*
X115749405Y-88437319D02*
X115749405Y-87437319D01*
X115749405Y-87437319D02*
X116130357Y-87437319D01*
X116130357Y-87437319D02*
X116225595Y-87484938D01*
X116225595Y-87484938D02*
X116273214Y-87532557D01*
X116273214Y-87532557D02*
X116320833Y-87627795D01*
X116320833Y-87627795D02*
X116320833Y-87770652D01*
X116320833Y-87770652D02*
X116273214Y-87865890D01*
X116273214Y-87865890D02*
X116225595Y-87913509D01*
X116225595Y-87913509D02*
X116130357Y-87961128D01*
X116130357Y-87961128D02*
X115749405Y-87961128D01*
X117177976Y-87770652D02*
X117177976Y-88437319D01*
X116939881Y-87389700D02*
X116701786Y-88103985D01*
X116701786Y-88103985D02*
X117320833Y-88103985D01*
X172372080Y-43280357D02*
X172419700Y-43327976D01*
X172419700Y-43327976D02*
X172467319Y-43470833D01*
X172467319Y-43470833D02*
X172467319Y-43566071D01*
X172467319Y-43566071D02*
X172419700Y-43708928D01*
X172419700Y-43708928D02*
X172324461Y-43804166D01*
X172324461Y-43804166D02*
X172229223Y-43851785D01*
X172229223Y-43851785D02*
X172038747Y-43899404D01*
X172038747Y-43899404D02*
X171895890Y-43899404D01*
X171895890Y-43899404D02*
X171705414Y-43851785D01*
X171705414Y-43851785D02*
X171610176Y-43804166D01*
X171610176Y-43804166D02*
X171514938Y-43708928D01*
X171514938Y-43708928D02*
X171467319Y-43566071D01*
X171467319Y-43566071D02*
X171467319Y-43470833D01*
X171467319Y-43470833D02*
X171514938Y-43327976D01*
X171514938Y-43327976D02*
X171562557Y-43280357D01*
X172467319Y-42327976D02*
X172467319Y-42899404D01*
X172467319Y-42613690D02*
X171467319Y-42613690D01*
X171467319Y-42613690D02*
X171610176Y-42708928D01*
X171610176Y-42708928D02*
X171705414Y-42804166D01*
X171705414Y-42804166D02*
X171753033Y-42899404D01*
X172467319Y-41851785D02*
X172467319Y-41661309D01*
X172467319Y-41661309D02*
X172419700Y-41566071D01*
X172419700Y-41566071D02*
X172372080Y-41518452D01*
X172372080Y-41518452D02*
X172229223Y-41423214D01*
X172229223Y-41423214D02*
X172038747Y-41375595D01*
X172038747Y-41375595D02*
X171657795Y-41375595D01*
X171657795Y-41375595D02*
X171562557Y-41423214D01*
X171562557Y-41423214D02*
X171514938Y-41470833D01*
X171514938Y-41470833D02*
X171467319Y-41566071D01*
X171467319Y-41566071D02*
X171467319Y-41756547D01*
X171467319Y-41756547D02*
X171514938Y-41851785D01*
X171514938Y-41851785D02*
X171562557Y-41899404D01*
X171562557Y-41899404D02*
X171657795Y-41947023D01*
X171657795Y-41947023D02*
X171895890Y-41947023D01*
X171895890Y-41947023D02*
X171991128Y-41899404D01*
X171991128Y-41899404D02*
X172038747Y-41851785D01*
X172038747Y-41851785D02*
X172086366Y-41756547D01*
X172086366Y-41756547D02*
X172086366Y-41566071D01*
X172086366Y-41566071D02*
X172038747Y-41470833D01*
X172038747Y-41470833D02*
X171991128Y-41423214D01*
X171991128Y-41423214D02*
X171895890Y-41375595D01*
X102154166Y-42867319D02*
X102154166Y-43581604D01*
X102154166Y-43581604D02*
X102106547Y-43724461D01*
X102106547Y-43724461D02*
X102011309Y-43819700D01*
X102011309Y-43819700D02*
X101868452Y-43867319D01*
X101868452Y-43867319D02*
X101773214Y-43867319D01*
X102535119Y-42867319D02*
X103154166Y-42867319D01*
X103154166Y-42867319D02*
X102820833Y-43248271D01*
X102820833Y-43248271D02*
X102963690Y-43248271D01*
X102963690Y-43248271D02*
X103058928Y-43295890D01*
X103058928Y-43295890D02*
X103106547Y-43343509D01*
X103106547Y-43343509D02*
X103154166Y-43438747D01*
X103154166Y-43438747D02*
X103154166Y-43676842D01*
X103154166Y-43676842D02*
X103106547Y-43772080D01*
X103106547Y-43772080D02*
X103058928Y-43819700D01*
X103058928Y-43819700D02*
X102963690Y-43867319D01*
X102963690Y-43867319D02*
X102677976Y-43867319D01*
X102677976Y-43867319D02*
X102582738Y-43819700D01*
X102582738Y-43819700D02*
X102535119Y-43772080D01*
X99320833Y-20559580D02*
X99273214Y-20607200D01*
X99273214Y-20607200D02*
X99130357Y-20654819D01*
X99130357Y-20654819D02*
X99035119Y-20654819D01*
X99035119Y-20654819D02*
X98892262Y-20607200D01*
X98892262Y-20607200D02*
X98797024Y-20511961D01*
X98797024Y-20511961D02*
X98749405Y-20416723D01*
X98749405Y-20416723D02*
X98701786Y-20226247D01*
X98701786Y-20226247D02*
X98701786Y-20083390D01*
X98701786Y-20083390D02*
X98749405Y-19892914D01*
X98749405Y-19892914D02*
X98797024Y-19797676D01*
X98797024Y-19797676D02*
X98892262Y-19702438D01*
X98892262Y-19702438D02*
X99035119Y-19654819D01*
X99035119Y-19654819D02*
X99130357Y-19654819D01*
X99130357Y-19654819D02*
X99273214Y-19702438D01*
X99273214Y-19702438D02*
X99320833Y-19750057D01*
X99654167Y-19654819D02*
X100320833Y-19654819D01*
X100320833Y-19654819D02*
X99892262Y-20654819D01*
X109320833Y-58342080D02*
X109273214Y-58389700D01*
X109273214Y-58389700D02*
X109130357Y-58437319D01*
X109130357Y-58437319D02*
X109035119Y-58437319D01*
X109035119Y-58437319D02*
X108892262Y-58389700D01*
X108892262Y-58389700D02*
X108797024Y-58294461D01*
X108797024Y-58294461D02*
X108749405Y-58199223D01*
X108749405Y-58199223D02*
X108701786Y-58008747D01*
X108701786Y-58008747D02*
X108701786Y-57865890D01*
X108701786Y-57865890D02*
X108749405Y-57675414D01*
X108749405Y-57675414D02*
X108797024Y-57580176D01*
X108797024Y-57580176D02*
X108892262Y-57484938D01*
X108892262Y-57484938D02*
X109035119Y-57437319D01*
X109035119Y-57437319D02*
X109130357Y-57437319D01*
X109130357Y-57437319D02*
X109273214Y-57484938D01*
X109273214Y-57484938D02*
X109320833Y-57532557D01*
X109654167Y-57437319D02*
X110273214Y-57437319D01*
X110273214Y-57437319D02*
X109939881Y-57818271D01*
X109939881Y-57818271D02*
X110082738Y-57818271D01*
X110082738Y-57818271D02*
X110177976Y-57865890D01*
X110177976Y-57865890D02*
X110225595Y-57913509D01*
X110225595Y-57913509D02*
X110273214Y-58008747D01*
X110273214Y-58008747D02*
X110273214Y-58246842D01*
X110273214Y-58246842D02*
X110225595Y-58342080D01*
X110225595Y-58342080D02*
X110177976Y-58389700D01*
X110177976Y-58389700D02*
X110082738Y-58437319D01*
X110082738Y-58437319D02*
X109797024Y-58437319D01*
X109797024Y-58437319D02*
X109701786Y-58389700D01*
X109701786Y-58389700D02*
X109654167Y-58342080D01*
X107833333Y-75667319D02*
X107357143Y-75667319D01*
X107357143Y-75667319D02*
X107357143Y-74667319D01*
X108690476Y-75667319D02*
X108119048Y-75667319D01*
X108404762Y-75667319D02*
X108404762Y-74667319D01*
X108404762Y-74667319D02*
X108309524Y-74810176D01*
X108309524Y-74810176D02*
X108214286Y-74905414D01*
X108214286Y-74905414D02*
X108119048Y-74953033D01*
%TO.C,C23*%
D12*
X189346920Y-45902500D02*
X189628080Y-45902500D01*
X189346920Y-46922500D02*
X189628080Y-46922500D01*
%TO.C,C24*%
X180977500Y-35271920D02*
X180977500Y-35553080D01*
X181997500Y-35271920D02*
X181997500Y-35553080D01*
%TO.C,C22*%
X189346920Y-43902500D02*
X189628080Y-43902500D01*
X189346920Y-44922500D02*
X189628080Y-44922500D01*
%TO.C,C25*%
X184977500Y-35271920D02*
X184977500Y-35553080D01*
X185997500Y-35271920D02*
X185997500Y-35553080D01*
%TO.C,C27*%
X178977500Y-35271920D02*
X178977500Y-35553080D01*
X179997500Y-35271920D02*
X179997500Y-35553080D01*
%TO.C,C36*%
X185226248Y-85677500D02*
X185748752Y-85677500D01*
X185226248Y-87147500D02*
X185748752Y-87147500D01*
%TO.C,L6*%
D13*
X171258400Y-76183400D02*
X171258400Y-84641600D01*
X171258400Y-84641600D02*
X179716600Y-84641600D01*
X179716600Y-76183400D02*
X171258400Y-76183400D01*
X179716600Y-84641600D02*
X179716600Y-76183400D01*
X171106000Y-80412500D02*
G75*
G02*
X170953600Y-80412500I-76200J0D01*
G01*
X170953600Y-80412500D02*
G75*
G02*
X171106000Y-80412500I76200J0D01*
G01*
%TO.C,R12*%
D12*
X154770242Y-35890000D02*
X155244758Y-35890000D01*
X154770242Y-36935000D02*
X155244758Y-36935000D01*
%TO.C,C13*%
X165346920Y-33902500D02*
X165628080Y-33902500D01*
X165346920Y-34922500D02*
X165628080Y-34922500D01*
%TO.C,C31*%
X184977500Y-51553080D02*
X184977500Y-51271920D01*
X185997500Y-51553080D02*
X185997500Y-51271920D01*
%TO.C,R19*%
X173990000Y-45874758D02*
X173990000Y-45400242D01*
X175035000Y-45874758D02*
X175035000Y-45400242D01*
%TO.C,C30*%
X182628080Y-48902500D02*
X182346920Y-48902500D01*
X182628080Y-49922500D02*
X182346920Y-49922500D01*
%TO.C,C4*%
X118226248Y-67677500D02*
X118748752Y-67677500D01*
X118226248Y-69147500D02*
X118748752Y-69147500D01*
%TO.C,R18*%
X101965000Y-35649758D02*
X101965000Y-35175242D01*
X103010000Y-35649758D02*
X103010000Y-35175242D01*
%TO.C,C5*%
X118226248Y-64677500D02*
X118748752Y-64677500D01*
X118226248Y-66147500D02*
X118748752Y-66147500D01*
%TO.C,C6*%
X102226248Y-22465000D02*
X102748752Y-22465000D01*
X102226248Y-23935000D02*
X102748752Y-23935000D01*
%TO.C,D2*%
X115997500Y-65762500D02*
X110487500Y-65762500D01*
X115997500Y-69062500D02*
X110487500Y-69062500D01*
X115997500Y-69062500D02*
X115997500Y-65762500D01*
%TO.C,C32*%
X186628080Y-47902500D02*
X186346920Y-47902500D01*
X186628080Y-48922500D02*
X186346920Y-48922500D01*
%TO.C,R2*%
X106537258Y-87890000D02*
X106062742Y-87890000D01*
X106537258Y-88935000D02*
X106062742Y-88935000D01*
%TO.C,R16*%
X119965000Y-78649758D02*
X119965000Y-78175242D01*
X121010000Y-78649758D02*
X121010000Y-78175242D01*
%TO.C,C12*%
X161977500Y-37271920D02*
X161977500Y-37553080D01*
X162997500Y-37271920D02*
X162997500Y-37553080D01*
%TO.C,U6*%
D14*
X126987500Y-81652500D02*
X126987500Y-80252500D01*
X126987500Y-84522500D02*
X126987500Y-83122500D01*
X126987500Y-84522500D02*
X129987500Y-84522500D01*
X129947500Y-80252500D02*
X126987500Y-80252500D01*
X129987500Y-84522500D02*
X129987500Y-80252500D01*
D15*
X126757500Y-84982500D02*
G75*
G02*
X126754959Y-84982352I-10011J-149999D01*
G01*
D14*
X126987500Y-81642500D02*
G75*
G02*
X126987500Y-83102500I0J-730000D01*
G01*
D16*
X127037500Y-85612500D02*
G75*
G02*
X126937500Y-85612500I-50000J0D01*
G01*
X126937500Y-85612500D02*
G75*
G02*
X127037500Y-85612500I50000J0D01*
G01*
%TO.C,C26*%
D12*
X182977500Y-35271920D02*
X182977500Y-35553080D01*
X183997500Y-35271920D02*
X183997500Y-35553080D01*
%TO.C,R6*%
X114724758Y-90890000D02*
X114250242Y-90890000D01*
X114724758Y-91935000D02*
X114250242Y-91935000D01*
%TO.C,C28*%
X176977500Y-35271920D02*
X176977500Y-35553080D01*
X177997500Y-35271920D02*
X177997500Y-35553080D01*
%TO.C,U5*%
D14*
X122587500Y-80862500D02*
X124387500Y-80862500D01*
X122587500Y-83962500D02*
X124387500Y-83962500D01*
D17*
X124917500Y-83862500D02*
G75*
G02*
X124857500Y-83862500I-30000J0D01*
G01*
X124857500Y-83862500D02*
G75*
G02*
X124917500Y-83862500I30000J0D01*
G01*
D14*
X125007500Y-84062500D02*
G75*
G02*
X124767500Y-84062500I-120000J0D01*
G01*
X124767500Y-84062500D02*
G75*
G02*
X125007500Y-84062500I120000J0D01*
G01*
%TO.C,C18*%
D12*
X167127500Y-52116937D02*
X167127500Y-59772500D01*
X167127500Y-59772500D02*
X169977500Y-59772500D01*
X168191937Y-51052500D02*
X167127500Y-52116937D01*
X168191937Y-51052500D02*
X169977500Y-51052500D01*
X173997500Y-49812500D02*
X173997500Y-50812500D01*
X174497500Y-50312500D02*
X173497500Y-50312500D01*
X174783063Y-51052500D02*
X172997500Y-51052500D01*
X174783063Y-51052500D02*
X175847500Y-52116937D01*
X175847500Y-52116937D02*
X175847500Y-59772500D01*
X175847500Y-59772500D02*
X172997500Y-59772500D01*
%TO.C,R10*%
X156244758Y-31890000D02*
X155770242Y-31890000D01*
X156244758Y-32935000D02*
X155770242Y-32935000D01*
%TO.C,R1*%
X103724758Y-74890000D02*
X103250242Y-74890000D01*
X103724758Y-75935000D02*
X103250242Y-75935000D01*
%TO.C,U1*%
D11*
X175907500Y-39792500D02*
X187067500Y-39792500D01*
X175907500Y-45032500D02*
X175907500Y-39792500D01*
X187067500Y-39792500D02*
X187067500Y-45032500D01*
X187067500Y-45032500D02*
X175907500Y-45032500D01*
D15*
X186527500Y-40542500D02*
G75*
G02*
X186207500Y-40542500I-160000J0D01*
G01*
X186207500Y-40542500D02*
G75*
G02*
X186527500Y-40542500I160000J0D01*
G01*
D17*
X187017500Y-38362500D02*
G75*
G02*
X186957500Y-38362500I-30000J0D01*
G01*
X186957500Y-38362500D02*
G75*
G02*
X187017500Y-38362500I30000J0D01*
G01*
D15*
X187137500Y-38692500D02*
G75*
G02*
X186837500Y-38692500I-150000J0D01*
G01*
X186837500Y-38692500D02*
G75*
G02*
X187137500Y-38692500I150000J0D01*
G01*
%TO.C,R5*%
D12*
X110724758Y-90890000D02*
X110250242Y-90890000D01*
X110724758Y-91935000D02*
X110250242Y-91935000D01*
%TO.C,C2*%
X115752500Y-85151248D02*
X115752500Y-85673752D01*
X117222500Y-85151248D02*
X117222500Y-85673752D01*
%TO.C,L3*%
D13*
X185258400Y-62183400D02*
X185258400Y-70641600D01*
X185258400Y-70641600D02*
X193716600Y-70641600D01*
X193716600Y-62183400D02*
X185258400Y-62183400D01*
X193716600Y-70641600D02*
X193716600Y-62183400D01*
X185106000Y-66412500D02*
G75*
G02*
X184953600Y-66412500I-76200J0D01*
G01*
X184953600Y-66412500D02*
G75*
G02*
X185106000Y-66412500I76200J0D01*
G01*
%TO.C,C37*%
D12*
X119977500Y-82553080D02*
X119977500Y-82271920D01*
X120997500Y-82553080D02*
X120997500Y-82271920D01*
%TO.C,C10*%
X165748752Y-37677500D02*
X165226248Y-37677500D01*
X165748752Y-39147500D02*
X165226248Y-39147500D01*
%TO.C,C14*%
X153148080Y-33902500D02*
X152866920Y-33902500D01*
X153148080Y-34922500D02*
X152866920Y-34922500D01*
%TO.C,C35*%
X181226248Y-71677500D02*
X181748752Y-71677500D01*
X181226248Y-73147500D02*
X181748752Y-73147500D01*
%TO.C,R3*%
X114075242Y-79977500D02*
X114549758Y-79977500D01*
X114075242Y-81022500D02*
X114549758Y-81022500D01*
%TO.C,R8*%
X126250242Y-36890000D02*
X126724758Y-36890000D01*
X126250242Y-37935000D02*
X126724758Y-37935000D01*
%TO.C,U4*%
D14*
X105587500Y-13652500D02*
X105587500Y-20102500D01*
X105587500Y-19942500D02*
X105587500Y-20452500D01*
X105587500Y-38322500D02*
X105587500Y-39152500D01*
X105587500Y-39152500D02*
X108187500Y-39152500D01*
X120987500Y-39152500D02*
X123607500Y-39152500D01*
X123587500Y-13652500D02*
X105587500Y-13652500D01*
X123587500Y-13652500D02*
X123587500Y-20122500D01*
X123587500Y-19942500D02*
X105587500Y-19942500D01*
X123607500Y-20452500D02*
X123607500Y-19942500D01*
X123607500Y-39152500D02*
X123607500Y-38322500D01*
D17*
X105617500Y-13602500D02*
G75*
G02*
X105557500Y-13602500I-30000J0D01*
G01*
X105557500Y-13602500D02*
G75*
G02*
X105617500Y-13602500I30000J0D01*
G01*
%TO.C,SW_BOOT1*%
D12*
X126237500Y-45432500D02*
X132697500Y-45432500D01*
X126237500Y-45462500D02*
X126237500Y-45432500D01*
X126237500Y-47362500D02*
X126237500Y-49962500D01*
X126237500Y-51892500D02*
X126237500Y-51862500D01*
X126237500Y-51892500D02*
X132697500Y-51892500D01*
X132697500Y-45432500D02*
X132697500Y-45462500D01*
X132697500Y-47362500D02*
X132697500Y-49962500D01*
X132697500Y-51892500D02*
X132697500Y-51862500D01*
%TO.C,C11*%
X156990000Y-37553080D02*
X156990000Y-37271920D01*
X158010000Y-37553080D02*
X158010000Y-37271920D01*
%TO.C,LED2*%
X114215000Y-95677500D02*
X114215000Y-97147500D01*
X114215000Y-97147500D02*
X116500000Y-97147500D01*
X116500000Y-95677500D02*
X114215000Y-95677500D01*
%TO.C,C8*%
X102346920Y-24902500D02*
X102628080Y-24902500D01*
X102346920Y-25922500D02*
X102628080Y-25922500D01*
%TO.C,L2*%
D18*
X146187500Y-43362500D02*
X154787500Y-43362500D01*
X146187500Y-45612500D02*
X146187500Y-43362500D01*
X146187500Y-49212500D02*
X146187500Y-51462500D01*
X146187500Y-51462500D02*
X154787500Y-51462500D01*
X154787500Y-43362500D02*
X154787500Y-45612500D01*
X154787500Y-51462500D02*
X154787500Y-49212500D01*
%TO.C,C33*%
D12*
X174748752Y-85677500D02*
X174226248Y-85677500D01*
X174748752Y-87147500D02*
X174226248Y-87147500D01*
%TO.C,J1*%
D14*
X95397500Y-77942500D02*
X96877500Y-77942500D01*
X95397500Y-86882500D02*
X95397500Y-77942500D01*
X95397500Y-86882500D02*
X96877500Y-86882500D01*
X99107500Y-77942500D02*
X100977500Y-77942500D01*
X99107500Y-86882500D02*
X100977500Y-86882500D01*
D17*
X103277500Y-86882500D02*
G75*
G02*
X103217500Y-86882500I-30000J0D01*
G01*
X103217500Y-86882500D02*
G75*
G02*
X103277500Y-86882500I30000J0D01*
G01*
%TO.C,C29*%
D12*
X178977500Y-50271920D02*
X178977500Y-50553080D01*
X179997500Y-50271920D02*
X179997500Y-50553080D01*
%TO.C,R15*%
X185965000Y-31175242D02*
X185965000Y-31649758D01*
X187010000Y-31175242D02*
X187010000Y-31649758D01*
%TO.C,D3*%
X148997500Y-79762500D02*
X143487500Y-79762500D01*
X148997500Y-83062500D02*
X143487500Y-83062500D01*
X148997500Y-83062500D02*
X148997500Y-79762500D01*
%TO.C,U2*%
D14*
X158707500Y-31612500D02*
X158707500Y-32292500D01*
X158707500Y-31612500D02*
X158877500Y-31612500D01*
X158707500Y-34532500D02*
X158707500Y-35212500D01*
X158707500Y-35212500D02*
X158877500Y-35212500D01*
X163137500Y-31612500D02*
X163307500Y-31612500D01*
X163137500Y-35212500D02*
X163307500Y-35212500D01*
X163307500Y-31612500D02*
X163307500Y-32292500D01*
X163307500Y-34532500D02*
X163307500Y-35212500D01*
D19*
X158417500Y-34612500D02*
G75*
G02*
X158197500Y-34612500I-110000J0D01*
G01*
X158197500Y-34612500D02*
G75*
G02*
X158417500Y-34612500I110000J0D01*
G01*
D17*
X158747500Y-35162500D02*
G75*
G02*
X158687500Y-35162500I-30000J0D01*
G01*
X158687500Y-35162500D02*
G75*
G02*
X158747500Y-35162500I30000J0D01*
G01*
%TO.C,L4*%
D13*
X175770900Y-62183400D02*
X175770900Y-70641600D01*
X175770900Y-70641600D02*
X184229100Y-70641600D01*
X184229100Y-62183400D02*
X175770900Y-62183400D01*
X184229100Y-70641600D02*
X184229100Y-62183400D01*
X180076200Y-61954800D02*
G75*
G02*
X179923800Y-61954800I-76200J0D01*
G01*
X179923800Y-61954800D02*
G75*
G02*
X180076200Y-61954800I76200J0D01*
G01*
%TO.C,R7*%
D12*
X102250242Y-26890000D02*
X102724758Y-26890000D01*
X102250242Y-27935000D02*
X102724758Y-27935000D01*
%TO.C,R11*%
X156244758Y-33890000D02*
X155770242Y-33890000D01*
X156244758Y-34935000D02*
X155770242Y-34935000D01*
%TO.C,J2*%
D14*
X138500000Y-84300000D02*
X138500000Y-98700000D01*
X138500000Y-98700000D02*
X147480000Y-98700000D01*
X140740000Y-84300000D02*
X138500000Y-84300000D01*
X147500000Y-84300000D02*
X145260000Y-84300000D01*
X147500000Y-85790000D02*
X147500000Y-84300000D01*
X147500000Y-95200000D02*
X138500000Y-95200000D01*
X147500000Y-98700000D02*
X147500000Y-90210000D01*
D17*
X138530000Y-84300000D02*
G75*
G02*
X138470000Y-84300000I-30000J0D01*
G01*
X138470000Y-84300000D02*
G75*
G02*
X138530000Y-84300000I30000J0D01*
G01*
%TO.C,D1*%
D12*
X115997500Y-61762500D02*
X110487500Y-61762500D01*
X115997500Y-65062500D02*
X110487500Y-65062500D01*
X115997500Y-65062500D02*
X115997500Y-61762500D01*
%TO.C,J6*%
D14*
X118557500Y-92252500D02*
X118557500Y-92502500D01*
X118557500Y-92252500D02*
X119697500Y-92252500D01*
X118557500Y-98092500D02*
X118557500Y-93642500D01*
X123507500Y-92252500D02*
X120967500Y-92252500D01*
X125917500Y-92252500D02*
X124907500Y-92252500D01*
X125917500Y-92252500D02*
X125917500Y-92502500D01*
X125917500Y-93642500D02*
X125917500Y-98092500D01*
X125917500Y-98092500D02*
X118557500Y-98092500D01*
D17*
X118537500Y-98192500D02*
G75*
G02*
X118477500Y-98192500I-30000J0D01*
G01*
X118477500Y-98192500D02*
G75*
G02*
X118537500Y-98192500I30000J0D01*
G01*
%TO.C,SW_RST1*%
D12*
X114257500Y-45182500D02*
X120717500Y-45182500D01*
X114257500Y-45212500D02*
X114257500Y-45182500D01*
X114257500Y-47112500D02*
X114257500Y-49712500D01*
X114257500Y-51642500D02*
X114257500Y-51612500D01*
X114257500Y-51642500D02*
X120717500Y-51642500D01*
X120717500Y-45182500D02*
X120717500Y-45212500D01*
X120717500Y-47112500D02*
X120717500Y-49712500D01*
X120717500Y-51642500D02*
X120717500Y-51612500D01*
%TO.C,C1*%
X107748752Y-81677500D02*
X107226248Y-81677500D01*
X107748752Y-83147500D02*
X107226248Y-83147500D01*
%TO.C,C17*%
X157097500Y-28123752D02*
X157097500Y-26701248D01*
X158917500Y-28123752D02*
X158917500Y-26701248D01*
%TO.C,R9*%
X155485000Y-29649758D02*
X155485000Y-29175242D01*
X156530000Y-29649758D02*
X156530000Y-29175242D01*
%TO.C,C21*%
X176977500Y-52271920D02*
X176977500Y-52553080D01*
X177997500Y-52271920D02*
X177997500Y-52553080D01*
%TO.C,U3*%
D14*
X109937500Y-83452500D02*
X115037500Y-83452500D01*
X109937500Y-84702500D02*
X109937500Y-83452500D01*
X109937500Y-86302500D02*
X109937500Y-87552500D01*
X115037500Y-83452500D02*
X115037500Y-87552500D01*
X115037500Y-87552500D02*
X109937500Y-87552500D01*
X109979727Y-84698854D02*
G75*
G02*
X109987500Y-86302500I-372227J-803646D01*
G01*
X109627500Y-88002500D02*
G75*
G02*
X109287500Y-88002500I-170000J0D01*
G01*
X109287500Y-88002500D02*
G75*
G02*
X109627500Y-88002500I170000J0D01*
G01*
D17*
X110067500Y-88452500D02*
G75*
G02*
X110007500Y-88452500I-30000J0D01*
G01*
X110007500Y-88452500D02*
G75*
G02*
X110067500Y-88452500I30000J0D01*
G01*
%TO.C,L5*%
D13*
X180770900Y-76183400D02*
X180770900Y-84641600D01*
X180770900Y-84641600D02*
X189229100Y-84641600D01*
X189229100Y-76183400D02*
X180770900Y-76183400D01*
X189229100Y-84641600D02*
X189229100Y-76183400D01*
X185076200Y-75954800D02*
G75*
G02*
X184923800Y-75954800I-76200J0D01*
G01*
X184923800Y-75954800D02*
G75*
G02*
X185076200Y-75954800I76200J0D01*
G01*
%TO.C,J4*%
D12*
X161378208Y-88265000D02*
X171618208Y-88265000D01*
X161378208Y-91285000D02*
X171618208Y-91285000D01*
X161378208Y-96185000D02*
X171618208Y-96185000D01*
X161378208Y-97685000D02*
X171618208Y-97685000D01*
X161378208Y-98305000D02*
X161378208Y-88265000D01*
X163698208Y-98305000D02*
X161378208Y-98305000D01*
X171618208Y-88265000D02*
X171618208Y-98305000D01*
X171618208Y-98305000D02*
X164298208Y-98305000D01*
X163998208Y-98305000D02*
X164438208Y-98915000D01*
X163558208Y-98915000D01*
X163998208Y-98305000D01*
G36*
X164438208Y-98915000D02*
G01*
X163558208Y-98915000D01*
X163998208Y-98305000D01*
X164438208Y-98915000D01*
G37*
%TO.C,R13*%
X159485000Y-38649758D02*
X159485000Y-38175242D01*
X160530000Y-38649758D02*
X160530000Y-38175242D01*
%TO.C,C20*%
X174628080Y-47902500D02*
X174346920Y-47902500D01*
X174628080Y-48922500D02*
X174346920Y-48922500D01*
%TO.C,R14*%
X186965000Y-35175242D02*
X186965000Y-35649758D01*
X188010000Y-35175242D02*
X188010000Y-35649758D01*
%TO.C,C16*%
X160097500Y-28123752D02*
X160097500Y-26701248D01*
X161917500Y-28123752D02*
X161917500Y-26701248D01*
%TO.C,C9*%
X165226248Y-35677500D02*
X165748752Y-35677500D01*
X165226248Y-37147500D02*
X165748752Y-37147500D01*
%TO.C,U7*%
D11*
X124117500Y-63082500D02*
X127057500Y-63082500D01*
X124117500Y-69742500D02*
X124117500Y-63082500D01*
X127057500Y-63082500D02*
X127057500Y-69742500D01*
X127057500Y-69742500D02*
X124117500Y-69742500D01*
D17*
X122117500Y-63162500D02*
G75*
G02*
X122057500Y-63162500I-30000J0D01*
G01*
X122057500Y-63162500D02*
G75*
G02*
X122117500Y-63162500I30000J0D01*
G01*
%TO.C,C15*%
D12*
X163097500Y-28123752D02*
X163097500Y-26701248D01*
X164917500Y-28123752D02*
X164917500Y-26701248D01*
%TO.C,R17*%
X124965000Y-86175242D02*
X124965000Y-86649758D01*
X126010000Y-86175242D02*
X126010000Y-86649758D01*
%TO.C,J5*%
X174878208Y-88265000D02*
X185118208Y-88265000D01*
X174878208Y-91285000D02*
X185118208Y-91285000D01*
X174878208Y-96185000D02*
X185118208Y-96185000D01*
X174878208Y-97685000D02*
X185118208Y-97685000D01*
X174878208Y-98305000D02*
X174878208Y-88265000D01*
X177198208Y-98305000D02*
X174878208Y-98305000D01*
X185118208Y-88265000D02*
X185118208Y-98305000D01*
X185118208Y-98305000D02*
X177798208Y-98305000D01*
X177498208Y-98305000D02*
X177938208Y-98915000D01*
X177058208Y-98915000D01*
X177498208Y-98305000D01*
G36*
X177938208Y-98915000D02*
G01*
X177058208Y-98915000D01*
X177498208Y-98305000D01*
X177938208Y-98915000D01*
G37*
%TO.C,U_UART1*%
D11*
X102907500Y-60892500D02*
X108067500Y-60892500D01*
X102907500Y-63932500D02*
X102907500Y-60892500D01*
X108067500Y-60892500D02*
X108067500Y-63932500D01*
X108067500Y-63932500D02*
X102907500Y-63932500D01*
D15*
X102967500Y-65092500D02*
G75*
G02*
X102667500Y-65092500I-150000J0D01*
G01*
X102667500Y-65092500D02*
G75*
G02*
X102967500Y-65092500I150000J0D01*
G01*
D17*
X103067500Y-65412500D02*
G75*
G02*
X103007500Y-65412500I-30000J0D01*
G01*
X103007500Y-65412500D02*
G75*
G02*
X103067500Y-65412500I30000J0D01*
G01*
D15*
X103737500Y-63182500D02*
G75*
G02*
X103417500Y-63182500I-160000J0D01*
G01*
X103417500Y-63182500D02*
G75*
G02*
X103737500Y-63182500I160000J0D01*
G01*
%TO.C,LED1*%
D12*
X108215000Y-95677500D02*
X108215000Y-97147500D01*
X108215000Y-97147500D02*
X110500000Y-97147500D01*
X110500000Y-95677500D02*
X108215000Y-95677500D01*
%TO.C,C34*%
X191748752Y-71677500D02*
X191226248Y-71677500D01*
X191748752Y-73147500D02*
X191226248Y-73147500D01*
%TO.C,R4*%
X116250242Y-88890000D02*
X116724758Y-88890000D01*
X116250242Y-89935000D02*
X116724758Y-89935000D01*
%TO.C,C19*%
X172002500Y-45778080D02*
X172002500Y-45496920D01*
X173022500Y-45778080D02*
X173022500Y-45496920D01*
%TO.C,J3*%
D14*
X93287500Y-45362500D02*
X93287500Y-51462500D01*
X93287500Y-45362500D02*
X97657500Y-45362500D01*
X93287500Y-51462500D02*
X105657500Y-51462500D01*
X95377500Y-45362500D02*
X95377500Y-51462500D01*
X99317500Y-45362500D02*
X100657500Y-45362500D01*
X102317500Y-45362500D02*
X104657500Y-45362500D01*
X106317500Y-45362500D02*
X107557500Y-45362500D01*
X107317500Y-51462500D02*
X107687500Y-51462500D01*
X107687500Y-50592500D02*
X107687500Y-45362500D01*
X107687500Y-51462500D02*
X107687500Y-51032500D01*
D17*
X93317500Y-45362500D02*
G75*
G02*
X93257500Y-45362500I-30000J0D01*
G01*
X93257500Y-45362500D02*
G75*
G02*
X93317500Y-45362500I30000J0D01*
G01*
%TO.C,C7*%
D12*
X102346920Y-20690000D02*
X102628080Y-20690000D01*
X102346920Y-21710000D02*
X102628080Y-21710000D01*
%TO.C,C3*%
X109346920Y-58902500D02*
X109628080Y-58902500D01*
X109346920Y-59922500D02*
X109628080Y-59922500D01*
%TO.C,L1*%
D20*
X109187500Y-71712500D02*
X110562500Y-71712500D01*
X109187500Y-78712500D02*
X109187500Y-71712500D01*
X110562500Y-78712500D02*
X109187500Y-78712500D01*
X115787500Y-71712500D02*
X114412500Y-71712500D01*
X115787500Y-71712500D02*
X115787500Y-78712500D01*
X115787500Y-78712500D02*
X114412500Y-78712500D01*
%TD*%
M02*
