%TF.GenerationSoftware,KiCad,Pcbnew,10.0.5*%
%TF.CreationDate,2026-08-29T15:15:14+05:30*%
%TF.ProjectId,AuraForge_50X,41757261-466f-4726-9765-5f3530582e6b,v1.0*%
%TF.SameCoordinates,Original*%
%TF.FileFunction,Drillmap*%
%TF.FilePolarity,Positive*%
%FSLAX45Y45*%
G04 Gerber Fmt 4.5, Leading zero omitted, Abs format (unit mm)*
G04 Created by KiCad (PCBNEW 10.0.5) date 2026-08-29 15:15:14*
%MOMM*%
%LPD*%
G01*
G04 APERTURE LIST*
%ADD10C,0.200000*%
%ADD11C,0.150000*%
G04 APERTURE END LIST*
D10*
X0Y-500000D02*
X0Y-500000D01*
G75*
G02*
X500000Y0I500000J0D01*
G01*
X9500000Y0D01*
G75*
G02*
X10000000Y-500000I0J-500000D01*
G01*
X10000000Y-7500000D01*
G75*
G02*
X9500000Y-8000000I-500000J0D01*
G01*
X500000Y-8000000D01*
G75*
G02*
X0Y-7500000I0J500000D01*
G01*
X0Y-500000D01*
D11*
X560000Y-400000D02*
G75*
G02*
X240000Y-400000I-160000J0D01*
G01*
X240000Y-400000D02*
G75*
G02*
X560000Y-400000I160000J0D01*
G01*
X560000Y-7600000D02*
G75*
G02*
X240000Y-7600000I-160000J0D01*
G01*
X240000Y-7600000D02*
G75*
G02*
X560000Y-7600000I160000J0D01*
G01*
X9760000Y-400000D02*
G75*
G02*
X9440000Y-400000I-160000J0D01*
G01*
X9440000Y-400000D02*
G75*
G02*
X9760000Y-400000I160000J0D01*
G01*
X9760000Y-7600000D02*
G75*
G02*
X9440000Y-7600000I-160000J0D01*
G01*
X9440000Y-7600000D02*
G75*
G02*
X9760000Y-7600000I160000J0D01*
G01*
D10*
X250777Y-8321484D02*
X250777Y-8121484D01*
X250777Y-8121484D02*
X298396Y-8121484D01*
X298396Y-8121484D02*
X326967Y-8131008D01*
X326967Y-8131008D02*
X346015Y-8150055D01*
X346015Y-8150055D02*
X355539Y-8169103D01*
X355539Y-8169103D02*
X365062Y-8207198D01*
X365062Y-8207198D02*
X365062Y-8235769D01*
X365062Y-8235769D02*
X355539Y-8273865D01*
X355539Y-8273865D02*
X346015Y-8292912D01*
X346015Y-8292912D02*
X326967Y-8311960D01*
X326967Y-8311960D02*
X298396Y-8321484D01*
X298396Y-8321484D02*
X250777Y-8321484D01*
X450777Y-8321484D02*
X450777Y-8188150D01*
X450777Y-8226246D02*
X460301Y-8207198D01*
X460301Y-8207198D02*
X469824Y-8197674D01*
X469824Y-8197674D02*
X488872Y-8188150D01*
X488872Y-8188150D02*
X507920Y-8188150D01*
X574586Y-8321484D02*
X574586Y-8188150D01*
X574586Y-8121484D02*
X565063Y-8131008D01*
X565063Y-8131008D02*
X574586Y-8140531D01*
X574586Y-8140531D02*
X584110Y-8131008D01*
X584110Y-8131008D02*
X574586Y-8121484D01*
X574586Y-8121484D02*
X574586Y-8140531D01*
X698396Y-8321484D02*
X679348Y-8311960D01*
X679348Y-8311960D02*
X669824Y-8292912D01*
X669824Y-8292912D02*
X669824Y-8121484D01*
X803158Y-8321484D02*
X784110Y-8311960D01*
X784110Y-8311960D02*
X774586Y-8292912D01*
X774586Y-8292912D02*
X774586Y-8121484D01*
X1031729Y-8321484D02*
X1031729Y-8121484D01*
X1031729Y-8121484D02*
X1098396Y-8264341D01*
X1098396Y-8264341D02*
X1165063Y-8121484D01*
X1165063Y-8121484D02*
X1165063Y-8321484D01*
X1346015Y-8321484D02*
X1346015Y-8216722D01*
X1346015Y-8216722D02*
X1336491Y-8197674D01*
X1336491Y-8197674D02*
X1317444Y-8188150D01*
X1317444Y-8188150D02*
X1279348Y-8188150D01*
X1279348Y-8188150D02*
X1260301Y-8197674D01*
X1346015Y-8311960D02*
X1326967Y-8321484D01*
X1326967Y-8321484D02*
X1279348Y-8321484D01*
X1279348Y-8321484D02*
X1260301Y-8311960D01*
X1260301Y-8311960D02*
X1250777Y-8292912D01*
X1250777Y-8292912D02*
X1250777Y-8273865D01*
X1250777Y-8273865D02*
X1260301Y-8254817D01*
X1260301Y-8254817D02*
X1279348Y-8245293D01*
X1279348Y-8245293D02*
X1326967Y-8245293D01*
X1326967Y-8245293D02*
X1346015Y-8235769D01*
X1441253Y-8188150D02*
X1441253Y-8388150D01*
X1441253Y-8197674D02*
X1460301Y-8188150D01*
X1460301Y-8188150D02*
X1498396Y-8188150D01*
X1498396Y-8188150D02*
X1517443Y-8197674D01*
X1517443Y-8197674D02*
X1526967Y-8207198D01*
X1526967Y-8207198D02*
X1536491Y-8226246D01*
X1536491Y-8226246D02*
X1536491Y-8283388D01*
X1536491Y-8283388D02*
X1526967Y-8302436D01*
X1526967Y-8302436D02*
X1517443Y-8311960D01*
X1517443Y-8311960D02*
X1498396Y-8321484D01*
X1498396Y-8321484D02*
X1460301Y-8321484D01*
X1460301Y-8321484D02*
X1441253Y-8311960D01*
X1622205Y-8302436D02*
X1631729Y-8311960D01*
X1631729Y-8311960D02*
X1622205Y-8321484D01*
X1622205Y-8321484D02*
X1612682Y-8311960D01*
X1612682Y-8311960D02*
X1622205Y-8302436D01*
X1622205Y-8302436D02*
X1622205Y-8321484D01*
X1622205Y-8197674D02*
X1631729Y-8207198D01*
X1631729Y-8207198D02*
X1622205Y-8216722D01*
X1622205Y-8216722D02*
X1612682Y-8207198D01*
X1612682Y-8207198D02*
X1622205Y-8197674D01*
X1622205Y-8197674D02*
X1622205Y-8216722D01*
M02*
