%TF.GenerationSoftware,KiCad,Pcbnew,10.0.5*%
%TF.CreationDate,2026-09-24T00:42:10+05:30*%
%TF.ProjectId,AuraForge_50X,41757261-466f-4726-9765-5f3530582e6b,v2.0*%
%TF.SameCoordinates,Original*%
%TF.FileFunction,Copper,L3,Inr*%
%TF.FilePolarity,Positive*%
%FSLAX46Y46*%
G04 Gerber Fmt 4.6, Leading zero omitted, Abs format (unit mm)*
G04 Created by KiCad (PCBNEW 10.0.5) date 2026-09-24 00:42:10*
%MOMM*%
%LPD*%
G01*
G04 APERTURE LIST*
G04 Aperture macros list*
%AMRoundRect*
0 Rectangle with rounded corners*
0 $1 Rounding radius*
0 $2 $3 $4 $5 $6 $7 $8 $9 X,Y pos of 4 corners*
0 Add a 4 corners polygon primitive as box body*
4,1,4,$2,$3,$4,$5,$6,$7,$8,$9,$2,$3,0*
0 Add four circle primitives for the rounded corners*
1,1,$1+$1,$2,$3*
1,1,$1+$1,$4,$5*
1,1,$1+$1,$6,$7*
1,1,$1+$1,$8,$9*
0 Add four rect primitives between the rounded corners*
20,1,$1+$1,$2,$3,$4,$5,0*
20,1,$1+$1,$4,$5,$6,$7,0*
20,1,$1+$1,$6,$7,$8,$9,0*
20,1,$1+$1,$8,$9,$2,$3,0*%
G04 Aperture macros list end*
%TA.AperFunction,ComponentPad*%
%ADD10C,0.400000*%
%TD*%
%TA.AperFunction,ComponentPad*%
%ADD11O,4.500000X2.000000*%
%TD*%
%TA.AperFunction,ComponentPad*%
%ADD12O,4.000000X1.800000*%
%TD*%
%TA.AperFunction,ComponentPad*%
%ADD13O,1.800000X4.000000*%
%TD*%
%TA.AperFunction,ComponentPad*%
%ADD14C,1.700000*%
%TD*%
%TA.AperFunction,ComponentPad*%
%ADD15RoundRect,0.250000X-1.050000X-1.050000X1.050000X-1.050000X1.050000X1.050000X-1.050000X1.050000X0*%
%TD*%
%TA.AperFunction,ComponentPad*%
%ADD16C,2.600000*%
%TD*%
%TA.AperFunction,ComponentPad*%
%ADD17O,2.000000X1.000000*%
%TD*%
%TA.AperFunction,ViaPad*%
%ADD18C,1.000000*%
%TD*%
%TA.AperFunction,ViaPad*%
%ADD19C,0.800000*%
%TD*%
%TA.AperFunction,ViaPad*%
%ADD20C,0.600000*%
%TD*%
%TA.AperFunction,Conductor*%
%ADD21C,1.000000*%
%TD*%
%TA.AperFunction,Conductor*%
%ADD22C,0.150000*%
%TD*%
%TA.AperFunction,Conductor*%
%ADD23C,0.300000*%
%TD*%
G04 APERTURE END LIST*
D10*
%TO.N,GND*%
%TO.C,U2*%
X159737500Y-33412500D03*
X160487500Y-32642500D03*
X160487500Y-33412500D03*
X160487500Y-34182500D03*
X161537500Y-32642500D03*
X161537500Y-33412500D03*
X161537500Y-34182500D03*
X162287500Y-33412500D03*
%TD*%
D11*
%TO.N,Net-(D3-A)*%
%TO.C,J2*%
X143000000Y-85000000D03*
D12*
%TO.N,GND*%
X143000000Y-91000000D03*
D13*
X147700000Y-88000000D03*
%TD*%
D14*
%TO.N,/+BAT_3V7*%
%TO.C,J6*%
X120987500Y-94662500D03*
%TO.N,/BAT_NEG*%
X123487500Y-94662500D03*
%TD*%
D15*
%TO.N,/SPK_L_PLUS*%
%TO.C,J4*%
X163998208Y-93585000D03*
D16*
%TO.N,/SPK_L_MINUS*%
X168998208Y-93585000D03*
%TD*%
D15*
%TO.N,/SPK_R_PLUS*%
%TO.C,J5*%
X177498208Y-93585000D03*
D16*
%TO.N,/SPK_R_MINUS*%
X182498208Y-93585000D03*
%TD*%
D17*
%TO.N,/AUDIO_L*%
%TO.C,J3*%
X98487500Y-46012500D03*
%TO.N,/AUDIO_R*%
X101487500Y-46012500D03*
%TO.N,/DAC_OUT_L*%
X105487500Y-46012500D03*
%TO.N,GND*%
X106487500Y-50812500D03*
%TD*%
D18*
%TO.N,GND*%
X141000000Y-29000000D03*
X139000000Y-29000000D03*
X139000000Y-31000000D03*
X137000000Y-38000000D03*
X137000000Y-36000000D03*
X137000000Y-34000000D03*
X137000000Y-32000000D03*
X137000000Y-30000000D03*
X137000000Y-28000000D03*
X135000000Y-28000000D03*
X135000000Y-30000000D03*
X135000000Y-32000000D03*
X135000000Y-34000000D03*
X135000000Y-36000000D03*
X135000000Y-38000000D03*
X133000000Y-38000000D03*
X133000000Y-36000000D03*
X133000000Y-34000000D03*
X133000000Y-32000000D03*
X133000000Y-30000000D03*
X133000000Y-28000000D03*
X98000000Y-55000000D03*
X98000000Y-53000000D03*
X98000000Y-43000000D03*
X98000000Y-41000000D03*
X98000000Y-39000000D03*
X98000000Y-37000000D03*
X98000000Y-35000000D03*
X98000000Y-33000000D03*
X98000000Y-31000000D03*
X98000000Y-29000000D03*
X188000000Y-91000000D03*
X190000000Y-91000000D03*
X190000000Y-89000000D03*
X190000000Y-83000000D03*
X190000000Y-81000000D03*
X190000000Y-79000000D03*
X190000000Y-77000000D03*
X192000000Y-61000000D03*
X192000000Y-59000000D03*
X192000000Y-57000000D03*
X192000000Y-55000000D03*
X192000000Y-53000000D03*
X192000000Y-51000000D03*
X192000000Y-49000000D03*
X171000000Y-31000000D03*
X169000000Y-29000000D03*
X171000000Y-29000000D03*
X171000000Y-27000000D03*
X169000000Y-27000000D03*
X167000000Y-27000000D03*
X167000000Y-25000000D03*
X169000000Y-25000000D03*
X171000000Y-25000000D03*
X171000000Y-23000000D03*
X169000000Y-23000000D03*
X167000000Y-23000000D03*
X167000000Y-21000000D03*
X169000000Y-21000000D03*
X171000000Y-21000000D03*
X189000000Y-26000000D03*
X190000000Y-28000000D03*
X190000000Y-30000000D03*
X190000000Y-32000000D03*
X190000000Y-39000000D03*
X190000000Y-41000000D03*
X192000000Y-41000000D03*
X192000000Y-39000000D03*
X192000000Y-37000000D03*
X192000000Y-35000000D03*
X192000000Y-33000000D03*
X192000000Y-31000000D03*
X192000000Y-28000000D03*
X193000000Y-26000000D03*
X136000000Y-67000000D03*
X138000002Y-67000000D03*
X144000000Y-77000000D03*
X144000000Y-75000000D03*
X144000000Y-73000000D03*
X144000000Y-71000000D03*
X144000000Y-69000000D03*
X144000000Y-67000000D03*
X142000000Y-67000000D03*
X140000002Y-67000000D03*
X139000000Y-81000000D03*
X138000000Y-79000000D03*
X136000000Y-77000000D03*
X138000000Y-77000000D03*
X139000000Y-75000000D03*
X139000000Y-73000000D03*
X138000000Y-72000000D03*
X135000000Y-82000000D03*
X135000000Y-80000000D03*
X135000000Y-78000000D03*
X135000000Y-76000000D03*
X135000000Y-74000000D03*
X135000000Y-72000000D03*
X132000000Y-85000000D03*
X135000000Y-85000000D03*
X135000000Y-87000000D03*
X132000000Y-87000000D03*
X132000000Y-89000000D03*
X135000000Y-89000000D03*
X135000000Y-91000000D03*
X132000000Y-91000000D03*
X129000000Y-91000000D03*
X129000000Y-93000000D03*
X132000000Y-93000000D03*
X135000000Y-93000000D03*
X135000000Y-95000000D03*
X129000000Y-95000000D03*
X132000000Y-95000000D03*
X135000000Y-97000000D03*
X132000000Y-97000000D03*
X129000000Y-97000000D03*
X100000000Y-92000000D03*
X97000000Y-92000000D03*
X97000000Y-90000000D03*
X99000000Y-90000000D03*
X101000000Y-90000000D03*
X102000000Y-94000000D03*
X105000000Y-94000000D03*
X105000000Y-97000000D03*
X102000000Y-97000000D03*
X100000000Y-65000000D03*
X100000000Y-60000000D03*
X96000000Y-59000000D03*
X98000000Y-59000000D03*
X98000000Y-61000000D03*
X98000000Y-65000000D03*
X98000000Y-67000000D03*
X98000000Y-69000000D03*
X98000000Y-71000000D03*
X98000000Y-73000000D03*
X98000000Y-75000000D03*
X96000000Y-75000000D03*
X96000000Y-73000000D03*
X96000000Y-71000000D03*
X96000000Y-69000000D03*
X96000000Y-67000000D03*
X96000000Y-65000000D03*
X96000000Y-63000000D03*
X96000000Y-61000000D03*
X159000000Y-67000000D03*
X159000000Y-69000000D03*
X159000000Y-71000000D03*
X159000000Y-73000000D03*
X159000000Y-75000000D03*
X159000000Y-77000000D03*
X159000000Y-79000000D03*
X156000000Y-79000000D03*
X155000000Y-78000000D03*
X154000000Y-76000000D03*
X153000000Y-74000000D03*
X154000000Y-73000000D03*
X155000000Y-71000000D03*
X155000000Y-69000000D03*
X153000000Y-68000000D03*
X151000000Y-78000000D03*
X151000000Y-76000000D03*
X151000000Y-74000000D03*
X151000000Y-72000000D03*
X151000000Y-70000000D03*
X151000000Y-68000000D03*
X159000000Y-81000000D03*
X159000000Y-83000000D03*
X157000000Y-81000000D03*
X157000000Y-83000000D03*
X155000000Y-83000000D03*
X155000000Y-81000000D03*
X153000000Y-81000000D03*
X151000000Y-81000000D03*
X151000000Y-83000000D03*
X153000000Y-83000000D03*
X153000000Y-85000000D03*
X155000000Y-85000000D03*
X157000000Y-85000000D03*
X159000000Y-85000000D03*
X159000000Y-87000000D03*
X159000000Y-89000000D03*
X157000000Y-87000000D03*
X155000000Y-87000000D03*
X153000000Y-87000000D03*
X151000000Y-91000000D03*
X151000000Y-89000000D03*
X153000000Y-89000000D03*
X153000000Y-91000000D03*
X155000000Y-91000000D03*
X155000000Y-89000000D03*
X157000000Y-89000000D03*
X157000000Y-91000000D03*
X159000000Y-91000000D03*
X159000000Y-93000000D03*
X157000000Y-93000000D03*
X155000000Y-93000000D03*
X153000000Y-93000000D03*
X151000000Y-93000000D03*
X151000000Y-95000000D03*
X153000000Y-95000000D03*
X155000000Y-95000000D03*
X157000000Y-95000000D03*
X159000000Y-95000000D03*
X159000000Y-97000000D03*
X157000000Y-97000000D03*
X155000000Y-97000000D03*
X153000000Y-97000000D03*
X151000000Y-97000000D03*
X142000000Y-93000000D03*
X149000000Y-87000000D03*
X152000000Y-26000000D03*
X150000000Y-26000000D03*
X148000000Y-26000000D03*
X146000000Y-26000000D03*
X144000000Y-26000000D03*
X142000000Y-26000000D03*
X140000000Y-26000000D03*
X138000000Y-26000000D03*
X136000000Y-26000000D03*
X134000000Y-26000000D03*
X132000000Y-26000000D03*
X130000000Y-24000000D03*
X132000000Y-24000000D03*
X134000000Y-24000000D03*
X136000000Y-24000000D03*
X138000000Y-24000000D03*
X140000000Y-24000000D03*
X142000000Y-24000000D03*
X144000000Y-24000000D03*
X146000000Y-24000000D03*
X148000000Y-24000000D03*
X150000000Y-24000000D03*
X152000000Y-24000000D03*
X154000000Y-24000000D03*
X154000000Y-22000000D03*
X152000000Y-22000000D03*
X150000000Y-22000000D03*
X148000000Y-22000000D03*
X146000000Y-22000000D03*
X144000000Y-22000000D03*
X142000000Y-22000000D03*
X140000000Y-22000000D03*
X138000000Y-22000000D03*
X136000000Y-22000000D03*
X134000000Y-22000000D03*
X132000000Y-22000000D03*
X130000000Y-22000000D03*
%TO.N,/+21V_BOOST*%
X138487500Y-42412500D03*
X188712499Y-43287501D03*
X177636000Y-45000000D03*
X138487500Y-51412500D03*
D19*
%TO.N,GND*%
X116000000Y-30000000D03*
X116000000Y-28000000D03*
X126000000Y-88000000D03*
X187000000Y-38000000D03*
X159737500Y-33412500D03*
X105000000Y-21000000D03*
X112000000Y-87000000D03*
X117000000Y-68000000D03*
X121000000Y-65000000D03*
X172000000Y-60000000D03*
X184256603Y-44624911D03*
X173000000Y-86000000D03*
X111000000Y-26000000D03*
X110000000Y-29000000D03*
X162347498Y-34142498D03*
X161540445Y-32675513D03*
X104000000Y-89000000D03*
X118000000Y-89000000D03*
X191000000Y-46000000D03*
X160492820Y-34152452D03*
X122000000Y-64000000D03*
X113000000Y-32000000D03*
X122000000Y-51000000D03*
X111000000Y-84000000D03*
X170000000Y-61000000D03*
X104000000Y-86000000D03*
X117000000Y-87000000D03*
X190000000Y-72000000D03*
X113000000Y-26000000D03*
X167000000Y-36000000D03*
X167000000Y-39000000D03*
X111000000Y-30000000D03*
X179881034Y-44899084D03*
X167000000Y-34000000D03*
X154000000Y-32000000D03*
X183000000Y-73000000D03*
X106000000Y-83000000D03*
X153000000Y-36000000D03*
X173000000Y-48000000D03*
X109000000Y-40000000D03*
X181790782Y-37126511D03*
X125000000Y-21000000D03*
X134000000Y-52000000D03*
X117000000Y-29000000D03*
X115000000Y-26000000D03*
X156000000Y-25000000D03*
X117000000Y-65000000D03*
X162287500Y-33412500D03*
X115000000Y-32000000D03*
X114000000Y-87000000D03*
X181119041Y-44770118D03*
X115000000Y-81000000D03*
X108000000Y-51000000D03*
X102000000Y-75000000D03*
X162000000Y-26000000D03*
X111000000Y-87000000D03*
X191000000Y-44000000D03*
X112000000Y-85000000D03*
X106000000Y-66000000D03*
X101000000Y-26000000D03*
X161007500Y-33412500D03*
X101000000Y-23000000D03*
X160000000Y-40000000D03*
X152000000Y-34000000D03*
X184000000Y-34000000D03*
X178000000Y-34000000D03*
X104000000Y-78000000D03*
X176000000Y-37000000D03*
X101000000Y-21000000D03*
X165000000Y-26000000D03*
X113000000Y-51000000D03*
X111000000Y-59000000D03*
X114000000Y-85000000D03*
X175000000Y-38000000D03*
X182000000Y-34000000D03*
X173000000Y-44000000D03*
X111000000Y-32000000D03*
X113000000Y-84000000D03*
X111000000Y-28000000D03*
X124000000Y-52000000D03*
X177000000Y-54000000D03*
X157000000Y-38000000D03*
X187000000Y-86000000D03*
D20*
%TO.N,/AUDIO_R*%
X185342500Y-32003660D03*
X106487500Y-52412500D03*
%TO.N,/AUDIO_L*%
X104487500Y-56412500D03*
X179487500Y-30412500D03*
D18*
%TO.N,Net-(U1-OUTNR)*%
X168487500Y-76412500D03*
X186785779Y-51162500D03*
X183056774Y-44722113D03*
D19*
%TO.N,/+3V3_SYS*%
X132487500Y-62412500D03*
X144487500Y-62412500D03*
X137487500Y-62412500D03*
X131487500Y-41412500D03*
X128487500Y-39412500D03*
X170487501Y-44412498D03*
D18*
%TO.N,Net-(U1-OUTPR)*%
X175987500Y-74412500D03*
X189487500Y-52412500D03*
%TO.N,Net-(U6-D12-Pad1)*%
X127275850Y-86490313D03*
X127217500Y-79270850D03*
D20*
%TO.N,/ESP_IO0*%
X125487500Y-44412500D03*
X125487500Y-40412500D03*
%TO.N,/ESP_EN*%
X112487500Y-44412500D03*
X99487500Y-41412500D03*
%TO.N,/ESP_RXD0*%
X125487500Y-26412500D03*
X126487500Y-24412500D03*
D19*
%TO.N,/+5V_VBUS*%
X103976863Y-84905235D03*
X106487500Y-79412500D03*
X104487500Y-79412500D03*
D20*
%TO.N,/DAC_OUT_L*%
X104000000Y-40000000D03*
X102000000Y-39000000D03*
%TD*%
%TO.N,/+21V_BOOST*%
D21*
X138487500Y-51412500D02*
X138487500Y-42412500D01*
X178712499Y-43287501D02*
X177636000Y-44364000D01*
X188712499Y-43287501D02*
X178712499Y-43287501D01*
X177636000Y-44364000D02*
X177636000Y-45000000D01*
%TO.N,/AUDIO_R*%
D22*
X178487500Y-22412500D02*
X183487500Y-22412500D01*
X171487500Y-41412500D02*
X171487500Y-38412500D01*
X159487500Y-56412500D02*
X164487500Y-51412500D01*
X171487500Y-38412500D02*
X174487500Y-35412500D01*
X174487500Y-26412500D02*
X178487500Y-22412500D01*
X106487500Y-52412500D02*
X110487500Y-56412500D01*
X184487500Y-31148660D02*
X185342500Y-32003660D01*
X164487500Y-51412500D02*
X164487500Y-45412500D01*
X184487500Y-23412500D02*
X184487500Y-31148660D01*
X174487500Y-35412500D02*
X174487500Y-26412500D01*
X167487500Y-45412500D02*
X171487500Y-41412500D01*
X110487500Y-56412500D02*
X159487500Y-56412500D01*
X183487500Y-22412500D02*
X184487500Y-23412500D01*
X164487500Y-45412500D02*
X167487500Y-45412500D01*
%TO.N,/AUDIO_L*%
X104487500Y-56412500D02*
X105487500Y-57412500D01*
X175487500Y-27412500D02*
X176487500Y-26412500D01*
X175487500Y-35412500D02*
X175487500Y-27412500D01*
X176487500Y-26412500D02*
X178487500Y-26412500D01*
X178487500Y-26412500D02*
X179487500Y-27412500D01*
X179487500Y-27412500D02*
X179487500Y-30412500D01*
X167487500Y-46412500D02*
X172487500Y-41412500D01*
X165487500Y-46412500D02*
X167487500Y-46412500D01*
X105487500Y-57412500D02*
X160487500Y-57412500D01*
X172487500Y-41412500D02*
X172487500Y-38412500D01*
X172487500Y-38412500D02*
X175487500Y-35412500D01*
X160487500Y-57412500D02*
X165487500Y-52412500D01*
X165487500Y-52412500D02*
X165487500Y-46412500D01*
%TO.N,Net-(U1-OUTNR)*%
D21*
X165487500Y-57685292D02*
X165487500Y-67412500D01*
X183117498Y-44782837D02*
X183056774Y-44722113D01*
X186785779Y-50710781D02*
X183117498Y-47042500D01*
X183117498Y-47042500D02*
X183117498Y-44782837D01*
X186785779Y-51162500D02*
X186785779Y-54114221D01*
X185487500Y-55412500D02*
X167760292Y-55412500D01*
X167760292Y-55412500D02*
X165487500Y-57685292D01*
X165487500Y-67412500D02*
X168487500Y-70412500D01*
X168487500Y-70412500D02*
X168487500Y-76412500D01*
X186785779Y-54114221D02*
X185487500Y-55412500D01*
X186785779Y-51162500D02*
X186785779Y-50710781D01*
%TO.N,/+3V3_SYS*%
D23*
X151468414Y-62431586D02*
X159468414Y-62431586D01*
X144487500Y-62412500D02*
X151449328Y-62412500D01*
X130487500Y-41412500D02*
X128487500Y-39412500D01*
X131487500Y-41412500D02*
X130487500Y-41412500D01*
X151449328Y-62412500D02*
X151468414Y-62431586D01*
X166487500Y-48412499D02*
X170487501Y-44412498D01*
X132487500Y-62412500D02*
X137487500Y-62412500D01*
X166487500Y-55412500D02*
X166487500Y-48412499D01*
X159468414Y-62431586D02*
X166487500Y-55412500D01*
%TO.N,Net-(U1-OUTPR)*%
D21*
X175487500Y-61412500D02*
X173487500Y-61412500D01*
X189487500Y-52412500D02*
X189487500Y-58412500D01*
X177487500Y-59412500D02*
X175487500Y-61412500D01*
X173487500Y-61412500D02*
X173487500Y-71912500D01*
X173487500Y-71912500D02*
X175987500Y-74412500D01*
X189487500Y-58412500D02*
X188487500Y-59412500D01*
X188487500Y-59412500D02*
X177487500Y-59412500D01*
%TO.N,Net-(U6-D12-Pad1)*%
X127275850Y-86490313D02*
X127275850Y-79270850D01*
%TO.N,/ESP_IO0*%
D22*
X125487500Y-44412500D02*
X125487500Y-40412500D01*
%TO.N,/ESP_EN*%
X112487500Y-44412500D02*
X109487500Y-41412500D01*
X109487500Y-41412500D02*
X99487500Y-41412500D01*
%TO.N,/ESP_RXD0*%
X126487500Y-24412500D02*
X125487500Y-25412500D01*
X125487500Y-25412500D02*
X125487500Y-26412500D01*
%TO.N,/+5V_VBUS*%
D23*
X104487500Y-84394598D02*
X103976863Y-84905235D01*
X104487500Y-79412500D02*
X106487500Y-79412500D01*
X104487500Y-79412500D02*
X104487500Y-84394598D01*
%TO.N,/DAC_OUT_L*%
D22*
X102000000Y-39000000D02*
X103000000Y-40000000D01*
X103000000Y-40000000D02*
X104000000Y-40000000D01*
%TD*%
M02*
