%TF.GenerationSoftware,KiCad,Pcbnew,10.0.5*%
%TF.CreationDate,2026-09-24T16:33:12+05:30*%
%TF.ProjectId,AuraForge_50X,41757261-466f-4726-9765-5f3530582e6b,v2.0*%
%TF.SameCoordinates,Original*%
%TF.FileFunction,Drillmap*%
%TF.FilePolarity,Positive*%
%FSLAX45Y45*%
G04 Gerber Fmt 4.5, Leading zero omitted, Abs format (unit mm)*
G04 Created by KiCad (PCBNEW 10.0.5) date 2026-09-24 16:33:12*
%MOMM*%
%LPD*%
G01*
G04 APERTURE LIST*
%ADD10C,0.200000*%
%ADD11C,0.150000*%
%ADD12C,0.100000*%
%ADD13C,0.130000*%
G04 APERTURE END LIST*
D10*
X9448750Y-2441250D02*
X9448750Y-2441250D01*
G75*
G02*
X9948750Y-1941250I500000J0D01*
G01*
X18948750Y-1941250D01*
G75*
G02*
X19448750Y-2441250I0J-500000D01*
G01*
X19448750Y-9441250D01*
G75*
G02*
X18948750Y-9941250I-500000J0D01*
G01*
X9948750Y-9941250D01*
G75*
G02*
X9448750Y-9441250I0J500000D01*
G01*
X9448750Y-2441250D01*
D11*
X10008750Y-2341250D02*
G75*
G02*
X9688750Y-2341250I-160000J0D01*
G01*
X9688750Y-2341250D02*
G75*
G02*
X10008750Y-2341250I160000J0D01*
G01*
X10008750Y-9541250D02*
G75*
G02*
X9688750Y-9541250I-160000J0D01*
G01*
X9688750Y-9541250D02*
G75*
G02*
X10008750Y-9541250I160000J0D01*
G01*
X19009821Y-9541250D02*
G75*
G02*
X18689821Y-9541250I-160000J0D01*
G01*
X18689821Y-9541250D02*
G75*
G02*
X19009821Y-9541250I160000J0D01*
G01*
X19208750Y-2341250D02*
G75*
G02*
X18888750Y-2341250I-160000J0D01*
G01*
X18888750Y-2341250D02*
G75*
G02*
X19208750Y-2341250I160000J0D01*
G01*
D10*
D12*
X15963750Y-3331250D02*
X15983750Y-3351250D01*
X15983750Y-3331250D02*
X15963750Y-3351250D01*
X16038750Y-3254250D02*
X16058750Y-3274250D01*
X16058750Y-3254250D02*
X16038750Y-3274250D01*
X16038750Y-3331250D02*
X16058750Y-3351250D01*
X16058750Y-3331250D02*
X16038750Y-3351250D01*
X16038750Y-3408250D02*
X16058750Y-3428250D01*
X16058750Y-3408250D02*
X16038750Y-3428250D01*
X16143750Y-3254250D02*
X16163750Y-3274250D01*
X16163750Y-3254250D02*
X16143750Y-3274250D01*
X16143750Y-3331250D02*
X16163750Y-3351250D01*
X16163750Y-3331250D02*
X16143750Y-3351250D01*
X16143750Y-3408250D02*
X16163750Y-3428250D01*
X16163750Y-3408250D02*
X16143750Y-3428250D01*
X16218750Y-3331250D02*
X16238750Y-3351250D01*
X16238750Y-3331250D02*
X16218750Y-3351250D01*
X9963750Y-4141250D02*
G75*
G02*
X9933750Y-4141250I-15000J0D01*
G01*
X9933750Y-4141250D02*
G75*
G02*
X9963750Y-4141250I15000J0D01*
G01*
X10215000Y-3900000D02*
G75*
G02*
X10185000Y-3900000I-15000J0D01*
G01*
X10185000Y-3900000D02*
G75*
G02*
X10215000Y-3900000I15000J0D01*
G01*
X10415000Y-4000000D02*
G75*
G02*
X10385000Y-4000000I-15000J0D01*
G01*
X10385000Y-4000000D02*
G75*
G02*
X10415000Y-4000000I15000J0D01*
G01*
X10463750Y-5641250D02*
G75*
G02*
X10433750Y-5641250I-15000J0D01*
G01*
X10433750Y-5641250D02*
G75*
G02*
X10463750Y-5641250I15000J0D01*
G01*
X10663750Y-5241250D02*
G75*
G02*
X10633750Y-5241250I-15000J0D01*
G01*
X10633750Y-5241250D02*
G75*
G02*
X10663750Y-5241250I15000J0D01*
G01*
X11263750Y-4441250D02*
G75*
G02*
X11233750Y-4441250I-15000J0D01*
G01*
X11233750Y-4441250D02*
G75*
G02*
X11263750Y-4441250I15000J0D01*
G01*
X12563750Y-2641250D02*
G75*
G02*
X12533750Y-2641250I-15000J0D01*
G01*
X12533750Y-2641250D02*
G75*
G02*
X12563750Y-2641250I15000J0D01*
G01*
X12563750Y-4041250D02*
G75*
G02*
X12533750Y-4041250I-15000J0D01*
G01*
X12533750Y-4041250D02*
G75*
G02*
X12563750Y-4041250I15000J0D01*
G01*
X12563750Y-4441250D02*
G75*
G02*
X12533750Y-4441250I-15000J0D01*
G01*
X12533750Y-4441250D02*
G75*
G02*
X12563750Y-4441250I15000J0D01*
G01*
X12663750Y-2441250D02*
G75*
G02*
X12633750Y-2441250I-15000J0D01*
G01*
X12633750Y-2441250D02*
G75*
G02*
X12663750Y-2441250I15000J0D01*
G01*
X17963750Y-3041250D02*
G75*
G02*
X17933750Y-3041250I-15000J0D01*
G01*
X17933750Y-3041250D02*
G75*
G02*
X17963750Y-3041250I15000J0D01*
G01*
X18549250Y-3200366D02*
G75*
G02*
X18519250Y-3200366I-15000J0D01*
G01*
X18519250Y-3200366D02*
G75*
G02*
X18549250Y-3200366I15000J0D01*
G01*
X10100000Y-2080000D02*
X10100000Y-2120000D01*
X10080000Y-2100000D02*
X10120000Y-2100000D01*
X10100000Y-2280000D02*
X10100000Y-2320000D01*
X10080000Y-2300000D02*
X10120000Y-2300000D01*
X10100000Y-2580000D02*
X10100000Y-2620000D01*
X10080000Y-2600000D02*
X10120000Y-2600000D01*
X10200000Y-7480000D02*
X10200000Y-7520000D01*
X10180000Y-7500000D02*
X10220000Y-7500000D01*
X10397686Y-8470524D02*
X10397686Y-8510524D01*
X10377686Y-8490524D02*
X10417686Y-8490524D01*
X10400000Y-7780000D02*
X10400000Y-7820000D01*
X10380000Y-7800000D02*
X10420000Y-7800000D01*
X10400000Y-8580000D02*
X10400000Y-8620000D01*
X10380000Y-8600000D02*
X10420000Y-8600000D01*
X10400000Y-8880000D02*
X10400000Y-8920000D01*
X10380000Y-8900000D02*
X10420000Y-8900000D01*
X10448750Y-7921250D02*
X10448750Y-7961250D01*
X10428750Y-7941250D02*
X10468750Y-7941250D01*
X10500000Y-2080000D02*
X10500000Y-2120000D01*
X10480000Y-2100000D02*
X10520000Y-2100000D01*
X10600000Y-6580000D02*
X10600000Y-6620000D01*
X10580000Y-6600000D02*
X10620000Y-6600000D01*
X10600000Y-8280000D02*
X10600000Y-8320000D01*
X10580000Y-8300000D02*
X10620000Y-8300000D01*
X10648750Y-7921250D02*
X10648750Y-7961250D01*
X10628750Y-7941250D02*
X10668750Y-7941250D01*
X10800000Y-5080000D02*
X10800000Y-5120000D01*
X10780000Y-5100000D02*
X10820000Y-5100000D01*
X10900000Y-3980000D02*
X10900000Y-4020000D01*
X10880000Y-4000000D02*
X10920000Y-4000000D01*
X11000000Y-2880000D02*
X11000000Y-2920000D01*
X10980000Y-2900000D02*
X11020000Y-2900000D01*
X11100000Y-2580000D02*
X11100000Y-2620000D01*
X11080000Y-2600000D02*
X11120000Y-2600000D01*
X11100000Y-2780000D02*
X11100000Y-2820000D01*
X11080000Y-2800000D02*
X11120000Y-2800000D01*
X11100000Y-2980000D02*
X11100000Y-3020000D01*
X11080000Y-3000000D02*
X11120000Y-3000000D01*
X11100000Y-3180000D02*
X11100000Y-3220000D01*
X11080000Y-3200000D02*
X11120000Y-3200000D01*
X11100000Y-5880000D02*
X11100000Y-5920000D01*
X11080000Y-5900000D02*
X11120000Y-5900000D01*
X11100000Y-8380000D02*
X11100000Y-8420000D01*
X11080000Y-8400000D02*
X11120000Y-8400000D01*
X11100000Y-8680000D02*
X11100000Y-8720000D01*
X11080000Y-8700000D02*
X11120000Y-8700000D01*
X11200000Y-8480000D02*
X11200000Y-8520000D01*
X11180000Y-8500000D02*
X11220000Y-8500000D01*
X11200000Y-8680000D02*
X11200000Y-8720000D01*
X11180000Y-8700000D02*
X11220000Y-8700000D01*
X11300000Y-2580000D02*
X11300000Y-2620000D01*
X11280000Y-2600000D02*
X11320000Y-2600000D01*
X11300000Y-3180000D02*
X11300000Y-3220000D01*
X11280000Y-3200000D02*
X11320000Y-3200000D01*
X11300000Y-5080000D02*
X11300000Y-5120000D01*
X11280000Y-5100000D02*
X11320000Y-5100000D01*
X11300000Y-8380000D02*
X11300000Y-8420000D01*
X11280000Y-8400000D02*
X11320000Y-8400000D01*
X11400000Y-8480000D02*
X11400000Y-8520000D01*
X11380000Y-8500000D02*
X11420000Y-8500000D01*
X11400000Y-8680000D02*
X11400000Y-8720000D01*
X11380000Y-8700000D02*
X11420000Y-8700000D01*
X11500000Y-2580000D02*
X11500000Y-2620000D01*
X11480000Y-2600000D02*
X11520000Y-2600000D01*
X11500000Y-3180000D02*
X11500000Y-3220000D01*
X11480000Y-3200000D02*
X11520000Y-3200000D01*
X11600000Y-2780000D02*
X11600000Y-2820000D01*
X11580000Y-2800000D02*
X11620000Y-2800000D01*
X11600000Y-2980000D02*
X11600000Y-3020000D01*
X11580000Y-3000000D02*
X11620000Y-3000000D01*
X11600000Y-8080000D02*
X11600000Y-8120000D01*
X11580000Y-8100000D02*
X11620000Y-8100000D01*
X11700000Y-2880000D02*
X11700000Y-2920000D01*
X11680000Y-2900000D02*
X11720000Y-2900000D01*
X11700000Y-6480000D02*
X11700000Y-6520000D01*
X11680000Y-6500000D02*
X11720000Y-6500000D01*
X11700000Y-6780000D02*
X11700000Y-6820000D01*
X11680000Y-6800000D02*
X11720000Y-6800000D01*
X11700000Y-8680000D02*
X11700000Y-8720000D01*
X11680000Y-8700000D02*
X11720000Y-8700000D01*
X11800000Y-8880000D02*
X11800000Y-8920000D01*
X11780000Y-8900000D02*
X11820000Y-8900000D01*
X12100000Y-6480000D02*
X12100000Y-6520000D01*
X12080000Y-6500000D02*
X12120000Y-6500000D01*
X12200000Y-5080000D02*
X12200000Y-5120000D01*
X12180000Y-5100000D02*
X12220000Y-5100000D01*
X12200000Y-6380000D02*
X12200000Y-6420000D01*
X12180000Y-6400000D02*
X12220000Y-6400000D01*
X12400000Y-5180000D02*
X12400000Y-5220000D01*
X12380000Y-5200000D02*
X12420000Y-5200000D01*
X12500000Y-2080000D02*
X12500000Y-2120000D01*
X12480000Y-2100000D02*
X12520000Y-2100000D01*
X12600000Y-8780000D02*
X12600000Y-8820000D01*
X12580000Y-8800000D02*
X12620000Y-8800000D01*
X12848750Y-3921250D02*
X12848750Y-3961250D01*
X12828750Y-3941250D02*
X12868750Y-3941250D01*
X13148750Y-4121250D02*
X13148750Y-4161250D01*
X13128750Y-4141250D02*
X13168750Y-4141250D01*
X13248750Y-6221250D02*
X13248750Y-6261250D01*
X13228750Y-6241250D02*
X13268750Y-6241250D01*
X13400000Y-5180000D02*
X13400000Y-5220000D01*
X13380000Y-5200000D02*
X13420000Y-5200000D01*
X13748750Y-6221250D02*
X13748750Y-6261250D01*
X13728750Y-6241250D02*
X13768750Y-6241250D01*
X14448750Y-6221250D02*
X14448750Y-6261250D01*
X14428750Y-6241250D02*
X14468750Y-6241250D01*
X15200000Y-3380000D02*
X15200000Y-3420000D01*
X15180000Y-3400000D02*
X15220000Y-3400000D01*
X15300000Y-3580000D02*
X15300000Y-3620000D01*
X15280000Y-3600000D02*
X15320000Y-3600000D01*
X15400000Y-3180000D02*
X15400000Y-3220000D01*
X15380000Y-3200000D02*
X15420000Y-3200000D01*
X15600000Y-2480000D02*
X15600000Y-2520000D01*
X15580000Y-2500000D02*
X15620000Y-2500000D01*
X15700000Y-3780000D02*
X15700000Y-3820000D01*
X15680000Y-3800000D02*
X15720000Y-3800000D01*
X15973750Y-3321250D02*
X15973750Y-3361250D01*
X15953750Y-3341250D02*
X15993750Y-3341250D01*
X16000000Y-3980000D02*
X16000000Y-4020000D01*
X15980000Y-4000000D02*
X16020000Y-4000000D01*
X16049282Y-3395245D02*
X16049282Y-3435245D01*
X16029282Y-3415245D02*
X16069282Y-3415245D01*
X16100750Y-3321250D02*
X16100750Y-3361250D01*
X16080750Y-3341250D02*
X16120750Y-3341250D01*
X16154044Y-3247551D02*
X16154044Y-3287551D01*
X16134044Y-3267551D02*
X16174044Y-3267551D01*
X16200000Y-2580000D02*
X16200000Y-2620000D01*
X16180000Y-2600000D02*
X16220000Y-2600000D01*
X16228750Y-3321250D02*
X16228750Y-3361250D01*
X16208750Y-3341250D02*
X16248750Y-3341250D01*
X16234750Y-3394250D02*
X16234750Y-3434250D01*
X16214750Y-3414250D02*
X16254750Y-3414250D01*
X16500000Y-2580000D02*
X16500000Y-2620000D01*
X16480000Y-2600000D02*
X16520000Y-2600000D01*
X16700000Y-3380000D02*
X16700000Y-3420000D01*
X16680000Y-3400000D02*
X16720000Y-3400000D01*
X16700000Y-3580000D02*
X16700000Y-3620000D01*
X16680000Y-3600000D02*
X16720000Y-3600000D01*
X16700000Y-3880000D02*
X16700000Y-3920000D01*
X16680000Y-3900000D02*
X16720000Y-3900000D01*
X17000000Y-6080000D02*
X17000000Y-6120000D01*
X16980000Y-6100000D02*
X17020000Y-6100000D01*
X17048750Y-4421250D02*
X17048750Y-4461250D01*
X17028750Y-4441250D02*
X17068750Y-4441250D01*
X17200000Y-5980000D02*
X17200000Y-6020000D01*
X17180000Y-6000000D02*
X17220000Y-6000000D01*
X17300000Y-4380000D02*
X17300000Y-4420000D01*
X17280000Y-4400000D02*
X17320000Y-4400000D01*
X17300000Y-4780000D02*
X17300000Y-4820000D01*
X17280000Y-4800000D02*
X17320000Y-4800000D01*
X17300000Y-8580000D02*
X17300000Y-8620000D01*
X17280000Y-8600000D02*
X17320000Y-8600000D01*
X17500000Y-3780000D02*
X17500000Y-3820000D01*
X17480000Y-3800000D02*
X17520000Y-3800000D01*
X17600000Y-3680000D02*
X17600000Y-3720000D01*
X17580000Y-3700000D02*
X17620000Y-3700000D01*
X17700000Y-5380000D02*
X17700000Y-5420000D01*
X17680000Y-5400000D02*
X17720000Y-5400000D01*
X17800000Y-3380000D02*
X17800000Y-3420000D01*
X17780000Y-3400000D02*
X17820000Y-3400000D01*
X17988103Y-4469908D02*
X17988103Y-4509908D01*
X17968103Y-4489908D02*
X18008103Y-4489908D01*
X18111904Y-4457012D02*
X18111904Y-4497012D01*
X18091904Y-4477012D02*
X18131904Y-4477012D01*
X18179078Y-3692651D02*
X18179078Y-3732651D01*
X18159078Y-3712651D02*
X18199078Y-3712651D01*
X18200000Y-3380000D02*
X18200000Y-3420000D01*
X18180000Y-3400000D02*
X18220000Y-3400000D01*
X18300000Y-7280000D02*
X18300000Y-7320000D01*
X18280000Y-7300000D02*
X18320000Y-7300000D01*
X18400000Y-3380000D02*
X18400000Y-3420000D01*
X18380000Y-3400000D02*
X18420000Y-3400000D01*
X18425660Y-4442491D02*
X18425660Y-4482491D01*
X18405660Y-4462491D02*
X18445660Y-4462491D01*
X18700000Y-3780000D02*
X18700000Y-3820000D01*
X18680000Y-3800000D02*
X18720000Y-3800000D01*
X18700000Y-8580000D02*
X18700000Y-8620000D01*
X18680000Y-8600000D02*
X18720000Y-8600000D01*
X19000000Y-7180000D02*
X19000000Y-7220000D01*
X18980000Y-7200000D02*
X19020000Y-7200000D01*
X19100000Y-4380000D02*
X19100000Y-4420000D01*
X19080000Y-4400000D02*
X19120000Y-4400000D01*
X19100000Y-4580000D02*
X19100000Y-4620000D01*
X19080000Y-4600000D02*
X19120000Y-4600000D01*
X9617678Y-5917678D02*
X9617678Y-5882322D01*
X9582322Y-5882322D01*
X9582322Y-5917678D01*
X9617678Y-5917678D01*
X9617678Y-6117678D02*
X9617678Y-6082322D01*
X9582322Y-6082322D01*
X9582322Y-6117678D01*
X9617678Y-6117678D01*
X9617678Y-6317678D02*
X9617678Y-6282322D01*
X9582322Y-6282322D01*
X9582322Y-6317678D01*
X9617678Y-6317678D01*
X9617678Y-6517678D02*
X9617678Y-6482322D01*
X9582322Y-6482322D01*
X9582322Y-6517678D01*
X9617678Y-6517678D01*
X9617678Y-6717678D02*
X9617678Y-6682322D01*
X9582322Y-6682322D01*
X9582322Y-6717678D01*
X9617678Y-6717678D01*
X9617678Y-6917678D02*
X9617678Y-6882322D01*
X9582322Y-6882322D01*
X9582322Y-6917678D01*
X9617678Y-6917678D01*
X9617678Y-7117678D02*
X9617678Y-7082322D01*
X9582322Y-7082322D01*
X9582322Y-7117678D01*
X9617678Y-7117678D01*
X9617678Y-7317678D02*
X9617678Y-7282322D01*
X9582322Y-7282322D01*
X9582322Y-7317678D01*
X9617678Y-7317678D01*
X9617678Y-7517678D02*
X9617678Y-7482322D01*
X9582322Y-7482322D01*
X9582322Y-7517678D01*
X9617678Y-7517678D01*
X9717678Y-9017678D02*
X9717678Y-8982322D01*
X9682322Y-8982322D01*
X9682322Y-9017678D01*
X9717678Y-9017678D01*
X9717678Y-9217678D02*
X9717678Y-9182322D01*
X9682322Y-9182322D01*
X9682322Y-9217678D01*
X9717678Y-9217678D01*
X9817678Y-2917678D02*
X9817678Y-2882322D01*
X9782322Y-2882322D01*
X9782322Y-2917678D01*
X9817678Y-2917678D01*
X9817678Y-3117678D02*
X9817678Y-3082322D01*
X9782322Y-3082322D01*
X9782322Y-3117678D01*
X9817678Y-3117678D01*
X9817678Y-3317678D02*
X9817678Y-3282322D01*
X9782322Y-3282322D01*
X9782322Y-3317678D01*
X9817678Y-3317678D01*
X9817678Y-3517678D02*
X9817678Y-3482322D01*
X9782322Y-3482322D01*
X9782322Y-3517678D01*
X9817678Y-3517678D01*
X9817678Y-3717678D02*
X9817678Y-3682322D01*
X9782322Y-3682322D01*
X9782322Y-3717678D01*
X9817678Y-3717678D01*
X9817678Y-3917678D02*
X9817678Y-3882322D01*
X9782322Y-3882322D01*
X9782322Y-3917678D01*
X9817678Y-3917678D01*
X9817678Y-4117678D02*
X9817678Y-4082322D01*
X9782322Y-4082322D01*
X9782322Y-4117678D01*
X9817678Y-4117678D01*
X9817678Y-4317678D02*
X9817678Y-4282322D01*
X9782322Y-4282322D01*
X9782322Y-4317678D01*
X9817678Y-4317678D01*
X9817678Y-5317678D02*
X9817678Y-5282322D01*
X9782322Y-5282322D01*
X9782322Y-5317678D01*
X9817678Y-5317678D01*
X9817678Y-5517678D02*
X9817678Y-5482322D01*
X9782322Y-5482322D01*
X9782322Y-5517678D01*
X9817678Y-5517678D01*
X9817678Y-5917678D02*
X9817678Y-5882322D01*
X9782322Y-5882322D01*
X9782322Y-5917678D01*
X9817678Y-5917678D01*
X9817678Y-6117678D02*
X9817678Y-6082322D01*
X9782322Y-6082322D01*
X9782322Y-6117678D01*
X9817678Y-6117678D01*
X9817678Y-6517678D02*
X9817678Y-6482322D01*
X9782322Y-6482322D01*
X9782322Y-6517678D01*
X9817678Y-6517678D01*
X9817678Y-6717678D02*
X9817678Y-6682322D01*
X9782322Y-6682322D01*
X9782322Y-6717678D01*
X9817678Y-6717678D01*
X9817678Y-6917678D02*
X9817678Y-6882322D01*
X9782322Y-6882322D01*
X9782322Y-6917678D01*
X9817678Y-6917678D01*
X9817678Y-7117678D02*
X9817678Y-7082322D01*
X9782322Y-7082322D01*
X9782322Y-7117678D01*
X9817678Y-7117678D01*
X9817678Y-7317678D02*
X9817678Y-7282322D01*
X9782322Y-7282322D01*
X9782322Y-7317678D01*
X9817678Y-7317678D01*
X9817678Y-7517678D02*
X9817678Y-7482322D01*
X9782322Y-7482322D01*
X9782322Y-7517678D01*
X9817678Y-7517678D01*
X9917678Y-9017678D02*
X9917678Y-8982322D01*
X9882322Y-8982322D01*
X9882322Y-9017678D01*
X9917678Y-9017678D01*
X10017678Y-6017678D02*
X10017678Y-5982322D01*
X9982322Y-5982322D01*
X9982322Y-6017678D01*
X10017678Y-6017678D01*
X10017678Y-6517678D02*
X10017678Y-6482322D01*
X9982322Y-6482322D01*
X9982322Y-6517678D01*
X10017678Y-6517678D01*
X10017678Y-9217678D02*
X10017678Y-9182322D01*
X9982322Y-9182322D01*
X9982322Y-9217678D01*
X10017678Y-9217678D01*
X10117678Y-9017678D02*
X10117678Y-8982322D01*
X10082322Y-8982322D01*
X10082322Y-9017678D01*
X10117678Y-9017678D01*
X10217678Y-9417678D02*
X10217678Y-9382322D01*
X10182322Y-9382322D01*
X10182322Y-9417678D01*
X10217678Y-9417678D01*
X10217678Y-9717678D02*
X10217678Y-9682322D01*
X10182322Y-9682322D01*
X10182322Y-9717678D01*
X10217678Y-9717678D01*
X10517678Y-9417678D02*
X10517678Y-9382322D01*
X10482322Y-9382322D01*
X10482322Y-9417678D01*
X10517678Y-9417678D01*
X10517678Y-9717678D02*
X10517678Y-9682322D01*
X10482322Y-9682322D01*
X10482322Y-9717678D01*
X10517678Y-9717678D01*
X12739428Y-7944763D02*
X12739428Y-7909407D01*
X12704072Y-7909407D01*
X12704072Y-7944763D01*
X12739428Y-7944763D01*
X12745263Y-8666709D02*
X12745263Y-8631354D01*
X12709907Y-8631354D01*
X12709907Y-8666709D01*
X12745263Y-8666709D01*
X12917678Y-9117678D02*
X12917678Y-9082322D01*
X12882322Y-9082322D01*
X12882322Y-9117678D01*
X12917678Y-9117678D01*
X12917678Y-9317678D02*
X12917678Y-9282322D01*
X12882322Y-9282322D01*
X12882322Y-9317678D01*
X12917678Y-9317678D01*
X12917678Y-9517678D02*
X12917678Y-9482322D01*
X12882322Y-9482322D01*
X12882322Y-9517678D01*
X12917678Y-9517678D01*
X12917678Y-9717678D02*
X12917678Y-9682322D01*
X12882322Y-9682322D01*
X12882322Y-9717678D01*
X12917678Y-9717678D01*
X13017678Y-2217678D02*
X13017678Y-2182322D01*
X12982322Y-2182322D01*
X12982322Y-2217678D01*
X13017678Y-2217678D01*
X13017678Y-2417678D02*
X13017678Y-2382322D01*
X12982322Y-2382322D01*
X12982322Y-2417678D01*
X13017678Y-2417678D01*
X13217678Y-2217678D02*
X13217678Y-2182322D01*
X13182322Y-2182322D01*
X13182322Y-2217678D01*
X13217678Y-2217678D01*
X13217678Y-2417678D02*
X13217678Y-2382322D01*
X13182322Y-2382322D01*
X13182322Y-2417678D01*
X13217678Y-2417678D01*
X13217678Y-2617678D02*
X13217678Y-2582322D01*
X13182322Y-2582322D01*
X13182322Y-2617678D01*
X13217678Y-2617678D01*
X13217678Y-8517678D02*
X13217678Y-8482322D01*
X13182322Y-8482322D01*
X13182322Y-8517678D01*
X13217678Y-8517678D01*
X13217678Y-8717678D02*
X13217678Y-8682322D01*
X13182322Y-8682322D01*
X13182322Y-8717678D01*
X13217678Y-8717678D01*
X13217678Y-8917678D02*
X13217678Y-8882322D01*
X13182322Y-8882322D01*
X13182322Y-8917678D01*
X13217678Y-8917678D01*
X13217678Y-9117678D02*
X13217678Y-9082322D01*
X13182322Y-9082322D01*
X13182322Y-9117678D01*
X13217678Y-9117678D01*
X13217678Y-9317678D02*
X13217678Y-9282322D01*
X13182322Y-9282322D01*
X13182322Y-9317678D01*
X13217678Y-9317678D01*
X13217678Y-9517678D02*
X13217678Y-9482322D01*
X13182322Y-9482322D01*
X13182322Y-9517678D01*
X13217678Y-9517678D01*
X13217678Y-9717678D02*
X13217678Y-9682322D01*
X13182322Y-9682322D01*
X13182322Y-9717678D01*
X13217678Y-9717678D01*
X13317678Y-2817678D02*
X13317678Y-2782322D01*
X13282322Y-2782322D01*
X13282322Y-2817678D01*
X13317678Y-2817678D01*
X13317678Y-3017678D02*
X13317678Y-2982322D01*
X13282322Y-2982322D01*
X13282322Y-3017678D01*
X13317678Y-3017678D01*
X13317678Y-3217678D02*
X13317678Y-3182322D01*
X13282322Y-3182322D01*
X13282322Y-3217678D01*
X13317678Y-3217678D01*
X13317678Y-3417678D02*
X13317678Y-3382322D01*
X13282322Y-3382322D01*
X13282322Y-3417678D01*
X13317678Y-3417678D01*
X13317678Y-3617678D02*
X13317678Y-3582322D01*
X13282322Y-3582322D01*
X13282322Y-3617678D01*
X13317678Y-3617678D01*
X13317678Y-3817678D02*
X13317678Y-3782322D01*
X13282322Y-3782322D01*
X13282322Y-3817678D01*
X13317678Y-3817678D01*
X13417678Y-2217678D02*
X13417678Y-2182322D01*
X13382322Y-2182322D01*
X13382322Y-2217678D01*
X13417678Y-2217678D01*
X13417678Y-2417678D02*
X13417678Y-2382322D01*
X13382322Y-2382322D01*
X13382322Y-2417678D01*
X13417678Y-2417678D01*
X13417678Y-2617678D02*
X13417678Y-2582322D01*
X13382322Y-2582322D01*
X13382322Y-2617678D01*
X13417678Y-2617678D01*
X13517678Y-2817678D02*
X13517678Y-2782322D01*
X13482322Y-2782322D01*
X13482322Y-2817678D01*
X13517678Y-2817678D01*
X13517678Y-3017678D02*
X13517678Y-2982322D01*
X13482322Y-2982322D01*
X13482322Y-3017678D01*
X13517678Y-3017678D01*
X13517678Y-3217678D02*
X13517678Y-3182322D01*
X13482322Y-3182322D01*
X13482322Y-3217678D01*
X13517678Y-3217678D01*
X13517678Y-3417678D02*
X13517678Y-3382322D01*
X13482322Y-3382322D01*
X13482322Y-3417678D01*
X13517678Y-3417678D01*
X13517678Y-3617678D02*
X13517678Y-3582322D01*
X13482322Y-3582322D01*
X13482322Y-3617678D01*
X13517678Y-3617678D01*
X13517678Y-3817678D02*
X13517678Y-3782322D01*
X13482322Y-3782322D01*
X13482322Y-3817678D01*
X13517678Y-3817678D01*
X13517678Y-7217678D02*
X13517678Y-7182322D01*
X13482322Y-7182322D01*
X13482322Y-7217678D01*
X13517678Y-7217678D01*
X13517678Y-7417678D02*
X13517678Y-7382322D01*
X13482322Y-7382322D01*
X13482322Y-7417678D01*
X13517678Y-7417678D01*
X13517678Y-7617678D02*
X13517678Y-7582322D01*
X13482322Y-7582322D01*
X13482322Y-7617678D01*
X13517678Y-7617678D01*
X13517678Y-7817678D02*
X13517678Y-7782322D01*
X13482322Y-7782322D01*
X13482322Y-7817678D01*
X13517678Y-7817678D01*
X13517678Y-8017678D02*
X13517678Y-7982322D01*
X13482322Y-7982322D01*
X13482322Y-8017678D01*
X13517678Y-8017678D01*
X13517678Y-8217678D02*
X13517678Y-8182322D01*
X13482322Y-8182322D01*
X13482322Y-8217678D01*
X13517678Y-8217678D01*
X13517678Y-8517678D02*
X13517678Y-8482322D01*
X13482322Y-8482322D01*
X13482322Y-8517678D01*
X13517678Y-8517678D01*
X13517678Y-8717678D02*
X13517678Y-8682322D01*
X13482322Y-8682322D01*
X13482322Y-8717678D01*
X13517678Y-8717678D01*
X13517678Y-8917678D02*
X13517678Y-8882322D01*
X13482322Y-8882322D01*
X13482322Y-8917678D01*
X13517678Y-8917678D01*
X13517678Y-9117678D02*
X13517678Y-9082322D01*
X13482322Y-9082322D01*
X13482322Y-9117678D01*
X13517678Y-9117678D01*
X13517678Y-9317678D02*
X13517678Y-9282322D01*
X13482322Y-9282322D01*
X13482322Y-9317678D01*
X13517678Y-9317678D01*
X13517678Y-9517678D02*
X13517678Y-9482322D01*
X13482322Y-9482322D01*
X13482322Y-9517678D01*
X13517678Y-9517678D01*
X13517678Y-9717678D02*
X13517678Y-9682322D01*
X13482322Y-9682322D01*
X13482322Y-9717678D01*
X13517678Y-9717678D01*
X13617678Y-2217678D02*
X13617678Y-2182322D01*
X13582322Y-2182322D01*
X13582322Y-2217678D01*
X13617678Y-2217678D01*
X13617678Y-2417678D02*
X13617678Y-2382322D01*
X13582322Y-2382322D01*
X13582322Y-2417678D01*
X13617678Y-2417678D01*
X13617678Y-2617678D02*
X13617678Y-2582322D01*
X13582322Y-2582322D01*
X13582322Y-2617678D01*
X13617678Y-2617678D01*
X13617678Y-6717678D02*
X13617678Y-6682322D01*
X13582322Y-6682322D01*
X13582322Y-6717678D01*
X13617678Y-6717678D01*
X13617678Y-7717678D02*
X13617678Y-7682322D01*
X13582322Y-7682322D01*
X13582322Y-7717678D01*
X13617678Y-7717678D01*
X13717678Y-2817678D02*
X13717678Y-2782322D01*
X13682322Y-2782322D01*
X13682322Y-2817678D01*
X13717678Y-2817678D01*
X13717678Y-3017678D02*
X13717678Y-2982322D01*
X13682322Y-2982322D01*
X13682322Y-3017678D01*
X13717678Y-3017678D01*
X13717678Y-3217678D02*
X13717678Y-3182322D01*
X13682322Y-3182322D01*
X13682322Y-3217678D01*
X13717678Y-3217678D01*
X13717678Y-3417678D02*
X13717678Y-3382322D01*
X13682322Y-3382322D01*
X13682322Y-3417678D01*
X13717678Y-3417678D01*
X13717678Y-3617678D02*
X13717678Y-3582322D01*
X13682322Y-3582322D01*
X13682322Y-3617678D01*
X13717678Y-3617678D01*
X13717678Y-3817678D02*
X13717678Y-3782322D01*
X13682322Y-3782322D01*
X13682322Y-3817678D01*
X13717678Y-3817678D01*
X13817678Y-2217678D02*
X13817678Y-2182322D01*
X13782322Y-2182322D01*
X13782322Y-2217678D01*
X13817678Y-2217678D01*
X13817678Y-2417678D02*
X13817678Y-2382322D01*
X13782322Y-2382322D01*
X13782322Y-2417678D01*
X13817678Y-2417678D01*
X13817678Y-2617678D02*
X13817678Y-2582322D01*
X13782322Y-2582322D01*
X13782322Y-2617678D01*
X13817678Y-2617678D01*
X13817678Y-7217678D02*
X13817678Y-7182322D01*
X13782322Y-7182322D01*
X13782322Y-7217678D01*
X13817678Y-7217678D01*
X13817678Y-7717678D02*
X13817678Y-7682322D01*
X13782322Y-7682322D01*
X13782322Y-7717678D01*
X13817678Y-7717678D01*
X13817678Y-7917678D02*
X13817678Y-7882322D01*
X13782322Y-7882322D01*
X13782322Y-7917678D01*
X13817678Y-7917678D01*
X13817678Y-6717678D02*
X13817678Y-6682322D01*
X13782322Y-6682322D01*
X13782322Y-6717678D01*
X13817678Y-6717678D01*
X13866428Y-4258928D02*
X13866428Y-4223572D01*
X13831072Y-4223572D01*
X13831072Y-4258928D01*
X13866428Y-4258928D01*
X13866428Y-5158928D02*
X13866428Y-5123572D01*
X13831072Y-5123572D01*
X13831072Y-5158928D01*
X13866428Y-5158928D01*
X13917678Y-2917678D02*
X13917678Y-2882322D01*
X13882322Y-2882322D01*
X13882322Y-2917678D01*
X13917678Y-2917678D01*
X13917678Y-3117678D02*
X13917678Y-3082322D01*
X13882322Y-3082322D01*
X13882322Y-3117678D01*
X13917678Y-3117678D01*
X13917678Y-7317678D02*
X13917678Y-7282322D01*
X13882322Y-7282322D01*
X13882322Y-7317678D01*
X13917678Y-7317678D01*
X13917678Y-7517678D02*
X13917678Y-7482322D01*
X13882322Y-7482322D01*
X13882322Y-7517678D01*
X13917678Y-7517678D01*
X13917678Y-8117678D02*
X13917678Y-8082322D01*
X13882322Y-8082322D01*
X13882322Y-8117678D01*
X13917678Y-8117678D01*
X14017678Y-2217678D02*
X14017678Y-2182322D01*
X13982322Y-2182322D01*
X13982322Y-2217678D01*
X14017678Y-2217678D01*
X14017678Y-2417678D02*
X14017678Y-2382322D01*
X13982322Y-2382322D01*
X13982322Y-2417678D01*
X14017678Y-2417678D01*
X14017678Y-2617678D02*
X14017678Y-2582322D01*
X13982322Y-2582322D01*
X13982322Y-2617678D01*
X14017678Y-2617678D01*
X14017678Y-6717678D02*
X14017678Y-6682322D01*
X13982322Y-6682322D01*
X13982322Y-6717678D01*
X14017678Y-6717678D01*
X14117678Y-2917678D02*
X14117678Y-2882322D01*
X14082322Y-2882322D01*
X14082322Y-2917678D01*
X14117678Y-2917678D01*
X14217678Y-2217678D02*
X14217678Y-2182322D01*
X14182322Y-2182322D01*
X14182322Y-2217678D01*
X14217678Y-2217678D01*
X14217678Y-2417678D02*
X14217678Y-2382322D01*
X14182322Y-2382322D01*
X14182322Y-2417678D01*
X14217678Y-2417678D01*
X14217678Y-2617678D02*
X14217678Y-2582322D01*
X14182322Y-2582322D01*
X14182322Y-2617678D01*
X14217678Y-2617678D01*
X14217678Y-6717678D02*
X14217678Y-6682322D01*
X14182322Y-6682322D01*
X14182322Y-6717678D01*
X14217678Y-6717678D01*
X14217678Y-9317678D02*
X14217678Y-9282322D01*
X14182322Y-9282322D01*
X14182322Y-9317678D01*
X14217678Y-9317678D01*
X14417678Y-2217678D02*
X14417678Y-2182322D01*
X14382322Y-2182322D01*
X14382322Y-2217678D01*
X14417678Y-2217678D01*
X14417678Y-2417678D02*
X14417678Y-2382322D01*
X14382322Y-2382322D01*
X14382322Y-2417678D01*
X14417678Y-2417678D01*
X14417678Y-2617678D02*
X14417678Y-2582322D01*
X14382322Y-2582322D01*
X14382322Y-2617678D01*
X14417678Y-2617678D01*
X14417678Y-6717678D02*
X14417678Y-6682322D01*
X14382322Y-6682322D01*
X14382322Y-6717678D01*
X14417678Y-6717678D01*
X14417678Y-6917678D02*
X14417678Y-6882322D01*
X14382322Y-6882322D01*
X14382322Y-6917678D01*
X14417678Y-6917678D01*
X14417678Y-7117678D02*
X14417678Y-7082322D01*
X14382322Y-7082322D01*
X14382322Y-7117678D01*
X14417678Y-7117678D01*
X14417678Y-7317678D02*
X14417678Y-7282322D01*
X14382322Y-7282322D01*
X14382322Y-7317678D01*
X14417678Y-7317678D01*
X14417678Y-7517678D02*
X14417678Y-7482322D01*
X14382322Y-7482322D01*
X14382322Y-7517678D01*
X14417678Y-7517678D01*
X14417678Y-7717678D02*
X14417678Y-7682322D01*
X14382322Y-7682322D01*
X14382322Y-7717678D01*
X14417678Y-7717678D01*
X14617678Y-2217678D02*
X14617678Y-2182322D01*
X14582322Y-2182322D01*
X14582322Y-2217678D01*
X14617678Y-2217678D01*
X14617678Y-2417678D02*
X14617678Y-2382322D01*
X14582322Y-2382322D01*
X14582322Y-2417678D01*
X14617678Y-2417678D01*
X14617678Y-2617678D02*
X14617678Y-2582322D01*
X14582322Y-2582322D01*
X14582322Y-2617678D01*
X14617678Y-2617678D01*
X14817678Y-2217678D02*
X14817678Y-2182322D01*
X14782322Y-2182322D01*
X14782322Y-2217678D01*
X14817678Y-2217678D01*
X14817678Y-2417678D02*
X14817678Y-2382322D01*
X14782322Y-2382322D01*
X14782322Y-2417678D01*
X14817678Y-2417678D01*
X14817678Y-2617678D02*
X14817678Y-2582322D01*
X14782322Y-2582322D01*
X14782322Y-2617678D01*
X14817678Y-2617678D01*
X14917678Y-8717678D02*
X14917678Y-8682322D01*
X14882322Y-8682322D01*
X14882322Y-8717678D01*
X14917678Y-8717678D01*
X15017678Y-2217678D02*
X15017678Y-2182322D01*
X14982322Y-2182322D01*
X14982322Y-2217678D01*
X15017678Y-2217678D01*
X15017678Y-2417678D02*
X15017678Y-2382322D01*
X14982322Y-2382322D01*
X14982322Y-2417678D01*
X15017678Y-2417678D01*
X15017678Y-2617678D02*
X15017678Y-2582322D01*
X14982322Y-2582322D01*
X14982322Y-2617678D01*
X15017678Y-2617678D01*
X15117678Y-6817678D02*
X15117678Y-6782322D01*
X15082322Y-6782322D01*
X15082322Y-6817678D01*
X15117678Y-6817678D01*
X15117678Y-7017678D02*
X15117678Y-6982322D01*
X15082322Y-6982322D01*
X15082322Y-7017678D01*
X15117678Y-7017678D01*
X15117678Y-7217678D02*
X15117678Y-7182322D01*
X15082322Y-7182322D01*
X15082322Y-7217678D01*
X15117678Y-7217678D01*
X15117678Y-7417678D02*
X15117678Y-7382322D01*
X15082322Y-7382322D01*
X15082322Y-7417678D01*
X15117678Y-7417678D01*
X15117678Y-7617678D02*
X15117678Y-7582322D01*
X15082322Y-7582322D01*
X15082322Y-7617678D01*
X15117678Y-7617678D01*
X15117678Y-7817678D02*
X15117678Y-7782322D01*
X15082322Y-7782322D01*
X15082322Y-7817678D01*
X15117678Y-7817678D01*
X15117678Y-8117678D02*
X15117678Y-8082322D01*
X15082322Y-8082322D01*
X15082322Y-8117678D01*
X15117678Y-8117678D01*
X15117678Y-8317678D02*
X15117678Y-8282322D01*
X15082322Y-8282322D01*
X15082322Y-8317678D01*
X15117678Y-8317678D01*
X15117678Y-8917678D02*
X15117678Y-8882322D01*
X15082322Y-8882322D01*
X15082322Y-8917678D01*
X15117678Y-8917678D01*
X15117678Y-9117678D02*
X15117678Y-9082322D01*
X15082322Y-9082322D01*
X15082322Y-9117678D01*
X15117678Y-9117678D01*
X15117678Y-9317678D02*
X15117678Y-9282322D01*
X15082322Y-9282322D01*
X15082322Y-9317678D01*
X15117678Y-9317678D01*
X15117678Y-9517678D02*
X15117678Y-9482322D01*
X15082322Y-9482322D01*
X15082322Y-9517678D01*
X15117678Y-9517678D01*
X15117678Y-9717678D02*
X15117678Y-9682322D01*
X15082322Y-9682322D01*
X15082322Y-9717678D01*
X15117678Y-9717678D01*
X15217678Y-2217678D02*
X15217678Y-2182322D01*
X15182322Y-2182322D01*
X15182322Y-2217678D01*
X15217678Y-2217678D01*
X15217678Y-2417678D02*
X15217678Y-2382322D01*
X15182322Y-2382322D01*
X15182322Y-2417678D01*
X15217678Y-2417678D01*
X15217678Y-2617678D02*
X15217678Y-2582322D01*
X15182322Y-2582322D01*
X15182322Y-2617678D01*
X15217678Y-2617678D01*
X15317678Y-6817678D02*
X15317678Y-6782322D01*
X15282322Y-6782322D01*
X15282322Y-6817678D01*
X15317678Y-6817678D01*
X15317678Y-7417678D02*
X15317678Y-7382322D01*
X15282322Y-7382322D01*
X15282322Y-7417678D01*
X15317678Y-7417678D01*
X15317678Y-8117678D02*
X15317678Y-8082322D01*
X15282322Y-8082322D01*
X15282322Y-8117678D01*
X15317678Y-8117678D01*
X15317678Y-8317678D02*
X15317678Y-8282322D01*
X15282322Y-8282322D01*
X15282322Y-8317678D01*
X15317678Y-8317678D01*
X15317678Y-8517678D02*
X15317678Y-8482322D01*
X15282322Y-8482322D01*
X15282322Y-8517678D01*
X15317678Y-8517678D01*
X15317678Y-8717678D02*
X15317678Y-8682322D01*
X15282322Y-8682322D01*
X15282322Y-8717678D01*
X15317678Y-8717678D01*
X15317678Y-8917678D02*
X15317678Y-8882322D01*
X15282322Y-8882322D01*
X15282322Y-8917678D01*
X15317678Y-8917678D01*
X15317678Y-9117678D02*
X15317678Y-9082322D01*
X15282322Y-9082322D01*
X15282322Y-9117678D01*
X15317678Y-9117678D01*
X15317678Y-9317678D02*
X15317678Y-9282322D01*
X15282322Y-9282322D01*
X15282322Y-9317678D01*
X15317678Y-9317678D01*
X15317678Y-9517678D02*
X15317678Y-9482322D01*
X15282322Y-9482322D01*
X15282322Y-9517678D01*
X15317678Y-9517678D01*
X15317678Y-9717678D02*
X15317678Y-9682322D01*
X15282322Y-9682322D01*
X15282322Y-9717678D01*
X15317678Y-9717678D01*
X15417678Y-2217678D02*
X15417678Y-2182322D01*
X15382322Y-2182322D01*
X15382322Y-2217678D01*
X15417678Y-2217678D01*
X15417678Y-2417678D02*
X15417678Y-2382322D01*
X15382322Y-2382322D01*
X15382322Y-2417678D01*
X15417678Y-2417678D01*
X15417678Y-7317678D02*
X15417678Y-7282322D01*
X15382322Y-7282322D01*
X15382322Y-7317678D01*
X15417678Y-7317678D01*
X15417678Y-7617678D02*
X15417678Y-7582322D01*
X15382322Y-7582322D01*
X15382322Y-7617678D01*
X15417678Y-7617678D01*
X15517678Y-6917678D02*
X15517678Y-6882322D01*
X15482322Y-6882322D01*
X15482322Y-6917678D01*
X15517678Y-6917678D01*
X15517678Y-7117678D02*
X15517678Y-7082322D01*
X15482322Y-7082322D01*
X15482322Y-7117678D01*
X15517678Y-7117678D01*
X15517678Y-7817678D02*
X15517678Y-7782322D01*
X15482322Y-7782322D01*
X15482322Y-7817678D01*
X15517678Y-7817678D01*
X15517678Y-8117678D02*
X15517678Y-8082322D01*
X15482322Y-8082322D01*
X15482322Y-8117678D01*
X15517678Y-8117678D01*
X15517678Y-8317678D02*
X15517678Y-8282322D01*
X15482322Y-8282322D01*
X15482322Y-8317678D01*
X15517678Y-8317678D01*
X15517678Y-8517678D02*
X15517678Y-8482322D01*
X15482322Y-8482322D01*
X15482322Y-8517678D01*
X15517678Y-8517678D01*
X15517678Y-8717678D02*
X15517678Y-8682322D01*
X15482322Y-8682322D01*
X15482322Y-8717678D01*
X15517678Y-8717678D01*
X15517678Y-8917678D02*
X15517678Y-8882322D01*
X15482322Y-8882322D01*
X15482322Y-8917678D01*
X15517678Y-8917678D01*
X15517678Y-9117678D02*
X15517678Y-9082322D01*
X15482322Y-9082322D01*
X15482322Y-9117678D01*
X15517678Y-9117678D01*
X15517678Y-9317678D02*
X15517678Y-9282322D01*
X15482322Y-9282322D01*
X15482322Y-9317678D01*
X15517678Y-9317678D01*
X15517678Y-9517678D02*
X15517678Y-9482322D01*
X15482322Y-9482322D01*
X15482322Y-9517678D01*
X15517678Y-9517678D01*
X15517678Y-9717678D02*
X15517678Y-9682322D01*
X15482322Y-9682322D01*
X15482322Y-9717678D01*
X15517678Y-9717678D01*
X15617678Y-7917678D02*
X15617678Y-7882322D01*
X15582322Y-7882322D01*
X15582322Y-7917678D01*
X15617678Y-7917678D01*
X15717678Y-8117678D02*
X15717678Y-8082322D01*
X15682322Y-8082322D01*
X15682322Y-8117678D01*
X15717678Y-8117678D01*
X15717678Y-8317678D02*
X15717678Y-8282322D01*
X15682322Y-8282322D01*
X15682322Y-8317678D01*
X15717678Y-8317678D01*
X15717678Y-8517678D02*
X15717678Y-8482322D01*
X15682322Y-8482322D01*
X15682322Y-8517678D01*
X15717678Y-8517678D01*
X15717678Y-8717678D02*
X15717678Y-8682322D01*
X15682322Y-8682322D01*
X15682322Y-8717678D01*
X15717678Y-8717678D01*
X15717678Y-8917678D02*
X15717678Y-8882322D01*
X15682322Y-8882322D01*
X15682322Y-8917678D01*
X15717678Y-8917678D01*
X15717678Y-9117678D02*
X15717678Y-9082322D01*
X15682322Y-9082322D01*
X15682322Y-9117678D01*
X15717678Y-9117678D01*
X15717678Y-9317678D02*
X15717678Y-9282322D01*
X15682322Y-9282322D01*
X15682322Y-9317678D01*
X15717678Y-9317678D01*
X15717678Y-9517678D02*
X15717678Y-9482322D01*
X15682322Y-9482322D01*
X15682322Y-9517678D01*
X15717678Y-9517678D01*
X15717678Y-9717678D02*
X15717678Y-9682322D01*
X15682322Y-9682322D01*
X15682322Y-9717678D01*
X15717678Y-9717678D01*
X15917678Y-6717678D02*
X15917678Y-6682322D01*
X15882322Y-6682322D01*
X15882322Y-6717678D01*
X15917678Y-6717678D01*
X15917678Y-6917678D02*
X15917678Y-6882322D01*
X15882322Y-6882322D01*
X15882322Y-6917678D01*
X15917678Y-6917678D01*
X15917678Y-7117678D02*
X15917678Y-7082322D01*
X15882322Y-7082322D01*
X15882322Y-7117678D01*
X15917678Y-7117678D01*
X15917678Y-7317678D02*
X15917678Y-7282322D01*
X15882322Y-7282322D01*
X15882322Y-7317678D01*
X15917678Y-7317678D01*
X15917678Y-7517678D02*
X15917678Y-7482322D01*
X15882322Y-7482322D01*
X15882322Y-7517678D01*
X15917678Y-7517678D01*
X15917678Y-7717678D02*
X15917678Y-7682322D01*
X15882322Y-7682322D01*
X15882322Y-7717678D01*
X15917678Y-7717678D01*
X15917678Y-7917678D02*
X15917678Y-7882322D01*
X15882322Y-7882322D01*
X15882322Y-7917678D01*
X15917678Y-7917678D01*
X15917678Y-8117678D02*
X15917678Y-8082322D01*
X15882322Y-8082322D01*
X15882322Y-8117678D01*
X15917678Y-8117678D01*
X15917678Y-8317678D02*
X15917678Y-8282322D01*
X15882322Y-8282322D01*
X15882322Y-8317678D01*
X15917678Y-8317678D01*
X15917678Y-8517678D02*
X15917678Y-8482322D01*
X15882322Y-8482322D01*
X15882322Y-8517678D01*
X15917678Y-8517678D01*
X15917678Y-8717678D02*
X15917678Y-8682322D01*
X15882322Y-8682322D01*
X15882322Y-8717678D01*
X15917678Y-8717678D01*
X15917678Y-8917678D02*
X15917678Y-8882322D01*
X15882322Y-8882322D01*
X15882322Y-8917678D01*
X15917678Y-8917678D01*
X15917678Y-9117678D02*
X15917678Y-9082322D01*
X15882322Y-9082322D01*
X15882322Y-9117678D01*
X15917678Y-9117678D01*
X15917678Y-9317678D02*
X15917678Y-9282322D01*
X15882322Y-9282322D01*
X15882322Y-9317678D01*
X15917678Y-9317678D01*
X15917678Y-9517678D02*
X15917678Y-9482322D01*
X15882322Y-9482322D01*
X15882322Y-9517678D01*
X15917678Y-9517678D01*
X15917678Y-9717678D02*
X15917678Y-9682322D01*
X15882322Y-9682322D01*
X15882322Y-9717678D01*
X15917678Y-9717678D01*
X16117678Y-6717678D02*
X16117678Y-6682322D01*
X16082322Y-6682322D01*
X16082322Y-6717678D01*
X16117678Y-6717678D01*
X16117678Y-6917678D02*
X16117678Y-6882322D01*
X16082322Y-6882322D01*
X16082322Y-6917678D01*
X16117678Y-6917678D01*
X16117678Y-7117678D02*
X16117678Y-7082322D01*
X16082322Y-7082322D01*
X16082322Y-7117678D01*
X16117678Y-7117678D01*
X16117678Y-7317678D02*
X16117678Y-7282322D01*
X16082322Y-7282322D01*
X16082322Y-7317678D01*
X16117678Y-7317678D01*
X16117678Y-7517678D02*
X16117678Y-7482322D01*
X16082322Y-7482322D01*
X16082322Y-7517678D01*
X16117678Y-7517678D01*
X16117678Y-7717678D02*
X16117678Y-7682322D01*
X16082322Y-7682322D01*
X16082322Y-7717678D01*
X16117678Y-7717678D01*
X16117678Y-7917678D02*
X16117678Y-7882322D01*
X16082322Y-7882322D01*
X16082322Y-7917678D01*
X16117678Y-7917678D01*
X16117678Y-8117678D02*
X16117678Y-8082322D01*
X16082322Y-8082322D01*
X16082322Y-8117678D01*
X16117678Y-8117678D01*
X16117678Y-8317678D02*
X16117678Y-8282322D01*
X16082322Y-8282322D01*
X16082322Y-8317678D01*
X16117678Y-8317678D01*
X16117678Y-8517678D02*
X16117678Y-8482322D01*
X16082322Y-8482322D01*
X16082322Y-8517678D01*
X16117678Y-8517678D01*
X16317678Y-6717678D02*
X16317678Y-6682322D01*
X16282322Y-6682322D01*
X16282322Y-6717678D01*
X16317678Y-6717678D01*
X16317678Y-6917678D02*
X16317678Y-6882322D01*
X16282322Y-6882322D01*
X16282322Y-6917678D01*
X16317678Y-6917678D01*
X16317678Y-7117678D02*
X16317678Y-7082322D01*
X16282322Y-7082322D01*
X16282322Y-7117678D01*
X16317678Y-7117678D01*
X16317678Y-7317678D02*
X16317678Y-7282322D01*
X16282322Y-7282322D01*
X16282322Y-7317678D01*
X16317678Y-7317678D01*
X16317678Y-7517678D02*
X16317678Y-7482322D01*
X16282322Y-7482322D01*
X16282322Y-7517678D01*
X16317678Y-7517678D01*
X16317678Y-7717678D02*
X16317678Y-7682322D01*
X16282322Y-7682322D01*
X16282322Y-7717678D01*
X16317678Y-7717678D01*
X16317678Y-7917678D02*
X16317678Y-7882322D01*
X16282322Y-7882322D01*
X16282322Y-7917678D01*
X16317678Y-7917678D01*
X16317678Y-8117678D02*
X16317678Y-8082322D01*
X16282322Y-8082322D01*
X16282322Y-8117678D01*
X16317678Y-8117678D01*
X16317678Y-8317678D02*
X16317678Y-8282322D01*
X16282322Y-8282322D01*
X16282322Y-8317678D01*
X16317678Y-8317678D01*
X16317678Y-8517678D02*
X16317678Y-8482322D01*
X16282322Y-8482322D01*
X16282322Y-8517678D01*
X16317678Y-8517678D01*
X16717678Y-2117678D02*
X16717678Y-2082322D01*
X16682322Y-2082322D01*
X16682322Y-2117678D01*
X16717678Y-2117678D01*
X16717678Y-2317678D02*
X16717678Y-2282322D01*
X16682322Y-2282322D01*
X16682322Y-2317678D01*
X16717678Y-2317678D01*
X16717678Y-2517678D02*
X16717678Y-2482322D01*
X16682322Y-2482322D01*
X16682322Y-2517678D01*
X16717678Y-2517678D01*
X16717678Y-2717678D02*
X16717678Y-2682322D01*
X16682322Y-2682322D01*
X16682322Y-2717678D01*
X16717678Y-2717678D01*
X16866428Y-7658928D02*
X16866428Y-7623572D01*
X16831072Y-7623572D01*
X16831072Y-7658928D01*
X16866428Y-7658928D01*
X16917678Y-2117678D02*
X16917678Y-2082322D01*
X16882322Y-2082322D01*
X16882322Y-2117678D01*
X16917678Y-2117678D01*
X16917678Y-2317678D02*
X16917678Y-2282322D01*
X16882322Y-2282322D01*
X16882322Y-2317678D01*
X16917678Y-2317678D01*
X16917678Y-2517678D02*
X16917678Y-2482322D01*
X16882322Y-2482322D01*
X16882322Y-2517678D01*
X16917678Y-2517678D01*
X16917678Y-2717678D02*
X16917678Y-2682322D01*
X16882322Y-2682322D01*
X16882322Y-2717678D01*
X16917678Y-2717678D01*
X16917678Y-2917678D02*
X16917678Y-2882322D01*
X16882322Y-2882322D01*
X16882322Y-2917678D01*
X16917678Y-2917678D01*
X17117678Y-2117678D02*
X17117678Y-2082322D01*
X17082322Y-2082322D01*
X17082322Y-2117678D01*
X17117678Y-2117678D01*
X17117678Y-2317678D02*
X17117678Y-2282322D01*
X17082322Y-2282322D01*
X17082322Y-2317678D01*
X17117678Y-2317678D01*
X17117678Y-2517678D02*
X17117678Y-2482322D01*
X17082322Y-2482322D01*
X17082322Y-2517678D01*
X17117678Y-2517678D01*
X17117678Y-2717678D02*
X17117678Y-2682322D01*
X17082322Y-2682322D01*
X17082322Y-2717678D01*
X17117678Y-2717678D01*
X17117678Y-2917678D02*
X17117678Y-2882322D01*
X17082322Y-2882322D01*
X17082322Y-2917678D01*
X17117678Y-2917678D01*
X17117678Y-3117678D02*
X17117678Y-3082322D01*
X17082322Y-3082322D01*
X17082322Y-3117678D01*
X17117678Y-3117678D01*
X17616428Y-7458928D02*
X17616428Y-7423572D01*
X17581072Y-7423572D01*
X17581072Y-7458928D01*
X17616428Y-7458928D01*
X17781278Y-4517678D02*
X17781278Y-4482322D01*
X17745922Y-4482322D01*
X17745922Y-4517678D01*
X17781278Y-4517678D01*
X18323355Y-4489889D02*
X18323355Y-4454534D01*
X18288000Y-4454534D01*
X18288000Y-4489889D01*
X18323355Y-4489889D01*
X18696256Y-5133928D02*
X18696256Y-5098572D01*
X18660900Y-5098572D01*
X18660900Y-5133928D01*
X18696256Y-5133928D01*
X18817678Y-9117678D02*
X18817678Y-9082322D01*
X18782322Y-9082322D01*
X18782322Y-9117678D01*
X18817678Y-9117678D01*
X18888928Y-4346428D02*
X18888928Y-4311072D01*
X18853572Y-4311072D01*
X18853572Y-4346428D01*
X18888928Y-4346428D01*
X18917678Y-2617678D02*
X18917678Y-2582322D01*
X18882322Y-2582322D01*
X18882322Y-2617678D01*
X18917678Y-2617678D01*
X18966428Y-5258928D02*
X18966428Y-5223572D01*
X18931072Y-5223572D01*
X18931072Y-5258928D01*
X18966428Y-5258928D01*
X19017678Y-2817678D02*
X19017678Y-2782322D01*
X18982322Y-2782322D01*
X18982322Y-2817678D01*
X19017678Y-2817678D01*
X19017678Y-3017678D02*
X19017678Y-2982322D01*
X18982322Y-2982322D01*
X18982322Y-3017678D01*
X19017678Y-3017678D01*
X19017678Y-3217678D02*
X19017678Y-3182322D01*
X18982322Y-3182322D01*
X18982322Y-3217678D01*
X19017678Y-3217678D01*
X19017678Y-3917678D02*
X19017678Y-3882322D01*
X18982322Y-3882322D01*
X18982322Y-3917678D01*
X19017678Y-3917678D01*
X19017678Y-4117678D02*
X19017678Y-4082322D01*
X18982322Y-4082322D01*
X18982322Y-4117678D01*
X19017678Y-4117678D01*
X19017678Y-8917678D02*
X19017678Y-8882322D01*
X18982322Y-8882322D01*
X18982322Y-8917678D01*
X19017678Y-8917678D01*
X19017678Y-9117678D02*
X19017678Y-9082322D01*
X18982322Y-9082322D01*
X18982322Y-9117678D01*
X19017678Y-9117678D01*
X19067678Y-7667678D02*
X19067678Y-7632322D01*
X19032322Y-7632322D01*
X19032322Y-7667678D01*
X19067678Y-7667678D01*
X19067678Y-7867678D02*
X19067678Y-7832322D01*
X19032322Y-7832322D01*
X19032322Y-7867678D01*
X19067678Y-7867678D01*
X19067678Y-8067678D02*
X19067678Y-8032322D01*
X19032322Y-8032322D01*
X19032322Y-8067678D01*
X19067678Y-8067678D01*
X19067678Y-8267678D02*
X19067678Y-8232322D01*
X19032322Y-8232322D01*
X19032322Y-8267678D01*
X19067678Y-8267678D01*
X19067678Y-8467678D02*
X19067678Y-8432322D01*
X19032322Y-8432322D01*
X19032322Y-8467678D01*
X19067678Y-8467678D01*
X19217678Y-2817678D02*
X19217678Y-2782322D01*
X19182322Y-2782322D01*
X19182322Y-2817678D01*
X19217678Y-2817678D01*
X19217678Y-3117678D02*
X19217678Y-3082322D01*
X19182322Y-3082322D01*
X19182322Y-3117678D01*
X19217678Y-3117678D01*
X19217678Y-3317678D02*
X19217678Y-3282322D01*
X19182322Y-3282322D01*
X19182322Y-3317678D01*
X19217678Y-3317678D01*
X19217678Y-3517678D02*
X19217678Y-3482322D01*
X19182322Y-3482322D01*
X19182322Y-3517678D01*
X19217678Y-3517678D01*
X19217678Y-3717678D02*
X19217678Y-3682322D01*
X19182322Y-3682322D01*
X19182322Y-3717678D01*
X19217678Y-3717678D01*
X19217678Y-3917678D02*
X19217678Y-3882322D01*
X19182322Y-3882322D01*
X19182322Y-3917678D01*
X19217678Y-3917678D01*
X19217678Y-4117678D02*
X19217678Y-4082322D01*
X19182322Y-4082322D01*
X19182322Y-4117678D01*
X19217678Y-4117678D01*
X19217678Y-4917678D02*
X19217678Y-4882322D01*
X19182322Y-4882322D01*
X19182322Y-4917678D01*
X19217678Y-4917678D01*
X19217678Y-5117678D02*
X19217678Y-5082322D01*
X19182322Y-5082322D01*
X19182322Y-5117678D01*
X19217678Y-5117678D01*
X19217678Y-5317678D02*
X19217678Y-5282322D01*
X19182322Y-5282322D01*
X19182322Y-5317678D01*
X19217678Y-5317678D01*
X19217678Y-5517678D02*
X19217678Y-5482322D01*
X19182322Y-5482322D01*
X19182322Y-5517678D01*
X19217678Y-5517678D01*
X19217678Y-5717678D02*
X19217678Y-5682322D01*
X19182322Y-5682322D01*
X19182322Y-5717678D01*
X19217678Y-5717678D01*
X19217678Y-5917678D02*
X19217678Y-5882322D01*
X19182322Y-5882322D01*
X19182322Y-5917678D01*
X19217678Y-5917678D01*
X19217678Y-6117678D02*
X19217678Y-6082322D01*
X19182322Y-6082322D01*
X19182322Y-6117678D01*
X19217678Y-6117678D01*
X19317678Y-2617678D02*
X19317678Y-2582322D01*
X19282322Y-2582322D01*
X19282322Y-2617678D01*
X19317678Y-2617678D01*
X9848750Y-4626251D02*
X9873751Y-4601250D01*
X9848750Y-4576249D01*
X9823749Y-4601250D01*
X9848750Y-4626251D01*
X9798751Y-4626251D02*
X9898749Y-4626251D01*
X9898749Y-4576249D02*
G75*
G02*
X9898749Y-4626251I0J-25001D01*
G01*
X9898749Y-4576249D02*
X9798751Y-4576249D01*
X9798751Y-4576249D02*
G75*
G03*
X9798751Y-4626251I0J-25001D01*
G01*
X10148750Y-4626251D02*
X10173751Y-4601250D01*
X10148750Y-4576249D01*
X10123749Y-4601250D01*
X10148750Y-4626251D01*
X10098751Y-4626251D02*
X10198749Y-4626251D01*
X10198749Y-4576249D02*
G75*
G02*
X10198749Y-4626251I0J-25001D01*
G01*
X10198749Y-4576249D02*
X10098751Y-4576249D01*
X10098751Y-4576249D02*
G75*
G03*
X10098751Y-4626251I0J-25001D01*
G01*
X10548750Y-4626251D02*
X10573751Y-4601250D01*
X10548750Y-4576249D01*
X10523749Y-4601250D01*
X10548750Y-4626251D01*
X10498751Y-4626251D02*
X10598749Y-4626251D01*
X10598749Y-4576249D02*
G75*
G02*
X10598749Y-4626251I0J-25001D01*
G01*
X10598749Y-4576249D02*
X10498751Y-4576249D01*
X10498751Y-4576249D02*
G75*
G03*
X10498751Y-4626251I0J-25001D01*
G01*
X10648750Y-5106251D02*
X10673751Y-5081250D01*
X10648750Y-5056249D01*
X10623749Y-5081250D01*
X10648750Y-5106251D01*
X10598751Y-5106251D02*
X10698749Y-5106251D01*
X10698749Y-5056249D02*
G75*
G02*
X10698749Y-5106251I0J-25001D01*
G01*
X10698749Y-5056249D02*
X10598751Y-5056249D01*
X10598751Y-5056249D02*
G75*
G03*
X10598751Y-5106251I0J-25001D01*
G01*
X12048750Y-9416250D02*
X12148750Y-9516250D01*
X12148750Y-9416250D02*
X12048750Y-9516250D01*
X12148750Y-9466250D02*
G75*
G02*
X12048750Y-9466250I-50000J0D01*
G01*
X12048750Y-9466250D02*
G75*
G02*
X12148750Y-9466250I50000J0D01*
G01*
X12298750Y-9416250D02*
X12398750Y-9516250D01*
X12398750Y-9416250D02*
X12298750Y-9516250D01*
X12398750Y-9466250D02*
G75*
G02*
X12298750Y-9466250I-50000J0D01*
G01*
X12298750Y-9466250D02*
G75*
G02*
X12398750Y-9466250I50000J0D01*
G01*
X14250000Y-8450000D02*
X14350000Y-8550000D01*
X14350000Y-8450000D02*
X14250000Y-8550000D01*
X14350000Y-8500000D02*
G75*
G02*
X14250000Y-8500000I-50000J0D01*
G01*
X14250000Y-8500000D02*
G75*
G02*
X14350000Y-8500000I50000J0D01*
G01*
X14174999Y-8550000D02*
X14425001Y-8550000D01*
X14425001Y-8450000D02*
G75*
G02*
X14425001Y-8550000I0J-50000D01*
G01*
X14425001Y-8450000D02*
X14174999Y-8450000D01*
X14174999Y-8450000D02*
G75*
G03*
X14174999Y-8550000I0J-50000D01*
G01*
X14250000Y-9050000D02*
X14350000Y-9150000D01*
X14350000Y-9050000D02*
X14250000Y-9150000D01*
X14350000Y-9100000D02*
G75*
G02*
X14250000Y-9100000I-50000J0D01*
G01*
X14250000Y-9100000D02*
G75*
G02*
X14350000Y-9100000I50000J0D01*
G01*
X14400000Y-9050000D02*
X14200000Y-9050000D01*
X14200000Y-9150000D02*
G75*
G02*
X14200000Y-9050000I0J50000D01*
G01*
X14200000Y-9150000D02*
X14400000Y-9150000D01*
X14400000Y-9150000D02*
G75*
G03*
X14400000Y-9050000I0J50000D01*
G01*
X14720000Y-8750000D02*
X14820000Y-8850000D01*
X14820000Y-8750000D02*
X14720000Y-8850000D01*
X14820000Y-8800000D02*
G75*
G02*
X14720000Y-8800000I-50000J0D01*
G01*
X14720000Y-8800000D02*
G75*
G02*
X14820000Y-8800000I50000J0D01*
G01*
X14720000Y-8700000D02*
X14720000Y-8900000D01*
X14820000Y-8900000D02*
G75*
G02*
X14720000Y-8900000I-50000J0D01*
G01*
X14820000Y-8900000D02*
X14820000Y-8700000D01*
X14820000Y-8700000D02*
G75*
G03*
X14720000Y-8700000I-50000J0D01*
G01*
D13*
X16334821Y-9293500D02*
X16464821Y-9423500D01*
X16464821Y-9293500D02*
X16334821Y-9423500D01*
X16399821Y-9293500D02*
X16399821Y-9423500D01*
X16334821Y-9358500D02*
X16464821Y-9358500D01*
X16834821Y-9293500D02*
X16964821Y-9423500D01*
X16964821Y-9293500D02*
X16834821Y-9423500D01*
X16899821Y-9293500D02*
X16899821Y-9423500D01*
X16834821Y-9358500D02*
X16964821Y-9358500D01*
X17684821Y-9293500D02*
X17814821Y-9423500D01*
X17814821Y-9293500D02*
X17684821Y-9423500D01*
X17749821Y-9293500D02*
X17749821Y-9423500D01*
X17684821Y-9358500D02*
X17814821Y-9358500D01*
X18184821Y-9293500D02*
X18314821Y-9423500D01*
X18314821Y-9293500D02*
X18184821Y-9423500D01*
X18249821Y-9293500D02*
X18249821Y-9423500D01*
X18184821Y-9358500D02*
X18314821Y-9358500D01*
D10*
X9699527Y-10262734D02*
X9699527Y-10062734D01*
X9699527Y-10062734D02*
X9747146Y-10062734D01*
X9747146Y-10062734D02*
X9775717Y-10072258D01*
X9775717Y-10072258D02*
X9794765Y-10091305D01*
X9794765Y-10091305D02*
X9804289Y-10110353D01*
X9804289Y-10110353D02*
X9813813Y-10148448D01*
X9813813Y-10148448D02*
X9813813Y-10177020D01*
X9813813Y-10177020D02*
X9804289Y-10215115D01*
X9804289Y-10215115D02*
X9794765Y-10234162D01*
X9794765Y-10234162D02*
X9775717Y-10253210D01*
X9775717Y-10253210D02*
X9747146Y-10262734D01*
X9747146Y-10262734D02*
X9699527Y-10262734D01*
X9899527Y-10262734D02*
X9899527Y-10129400D01*
X9899527Y-10167496D02*
X9909051Y-10148448D01*
X9909051Y-10148448D02*
X9918574Y-10138924D01*
X9918574Y-10138924D02*
X9937622Y-10129400D01*
X9937622Y-10129400D02*
X9956670Y-10129400D01*
X10023336Y-10262734D02*
X10023336Y-10129400D01*
X10023336Y-10062734D02*
X10013813Y-10072258D01*
X10013813Y-10072258D02*
X10023336Y-10081781D01*
X10023336Y-10081781D02*
X10032860Y-10072258D01*
X10032860Y-10072258D02*
X10023336Y-10062734D01*
X10023336Y-10062734D02*
X10023336Y-10081781D01*
X10147146Y-10262734D02*
X10128098Y-10253210D01*
X10128098Y-10253210D02*
X10118574Y-10234162D01*
X10118574Y-10234162D02*
X10118574Y-10062734D01*
X10251908Y-10262734D02*
X10232860Y-10253210D01*
X10232860Y-10253210D02*
X10223336Y-10234162D01*
X10223336Y-10234162D02*
X10223336Y-10062734D01*
X10480479Y-10262734D02*
X10480479Y-10062734D01*
X10480479Y-10062734D02*
X10547146Y-10205591D01*
X10547146Y-10205591D02*
X10613813Y-10062734D01*
X10613813Y-10062734D02*
X10613813Y-10262734D01*
X10794765Y-10262734D02*
X10794765Y-10157972D01*
X10794765Y-10157972D02*
X10785241Y-10138924D01*
X10785241Y-10138924D02*
X10766194Y-10129400D01*
X10766194Y-10129400D02*
X10728098Y-10129400D01*
X10728098Y-10129400D02*
X10709051Y-10138924D01*
X10794765Y-10253210D02*
X10775717Y-10262734D01*
X10775717Y-10262734D02*
X10728098Y-10262734D01*
X10728098Y-10262734D02*
X10709051Y-10253210D01*
X10709051Y-10253210D02*
X10699527Y-10234162D01*
X10699527Y-10234162D02*
X10699527Y-10215115D01*
X10699527Y-10215115D02*
X10709051Y-10196067D01*
X10709051Y-10196067D02*
X10728098Y-10186543D01*
X10728098Y-10186543D02*
X10775717Y-10186543D01*
X10775717Y-10186543D02*
X10794765Y-10177020D01*
X10890003Y-10129400D02*
X10890003Y-10329400D01*
X10890003Y-10138924D02*
X10909051Y-10129400D01*
X10909051Y-10129400D02*
X10947146Y-10129400D01*
X10947146Y-10129400D02*
X10966194Y-10138924D01*
X10966194Y-10138924D02*
X10975717Y-10148448D01*
X10975717Y-10148448D02*
X10985241Y-10167496D01*
X10985241Y-10167496D02*
X10985241Y-10224639D01*
X10985241Y-10224639D02*
X10975717Y-10243686D01*
X10975717Y-10243686D02*
X10966194Y-10253210D01*
X10966194Y-10253210D02*
X10947146Y-10262734D01*
X10947146Y-10262734D02*
X10909051Y-10262734D01*
X10909051Y-10262734D02*
X10890003Y-10253210D01*
X11070955Y-10243686D02*
X11080479Y-10253210D01*
X11080479Y-10253210D02*
X11070955Y-10262734D01*
X11070955Y-10262734D02*
X11061432Y-10253210D01*
X11061432Y-10253210D02*
X11070955Y-10243686D01*
X11070955Y-10243686D02*
X11070955Y-10262734D01*
X11070955Y-10138924D02*
X11080479Y-10148448D01*
X11080479Y-10148448D02*
X11070955Y-10157972D01*
X11070955Y-10157972D02*
X11061432Y-10148448D01*
X11061432Y-10148448D02*
X11070955Y-10138924D01*
X11070955Y-10138924D02*
X11070955Y-10157972D01*
D12*
X9418750Y-10581250D02*
X9438750Y-10601250D01*
X9438750Y-10581250D02*
X9418750Y-10601250D01*
D10*
X9737622Y-10482734D02*
X9756670Y-10482734D01*
X9756670Y-10482734D02*
X9775717Y-10492258D01*
X9775717Y-10492258D02*
X9785241Y-10501781D01*
X9785241Y-10501781D02*
X9794765Y-10520829D01*
X9794765Y-10520829D02*
X9804289Y-10558924D01*
X9804289Y-10558924D02*
X9804289Y-10606543D01*
X9804289Y-10606543D02*
X9794765Y-10644639D01*
X9794765Y-10644639D02*
X9785241Y-10663686D01*
X9785241Y-10663686D02*
X9775717Y-10673210D01*
X9775717Y-10673210D02*
X9756670Y-10682734D01*
X9756670Y-10682734D02*
X9737622Y-10682734D01*
X9737622Y-10682734D02*
X9718574Y-10673210D01*
X9718574Y-10673210D02*
X9709051Y-10663686D01*
X9709051Y-10663686D02*
X9699527Y-10644639D01*
X9699527Y-10644639D02*
X9690003Y-10606543D01*
X9690003Y-10606543D02*
X9690003Y-10558924D01*
X9690003Y-10558924D02*
X9699527Y-10520829D01*
X9699527Y-10520829D02*
X9709051Y-10501781D01*
X9709051Y-10501781D02*
X9718574Y-10492258D01*
X9718574Y-10492258D02*
X9737622Y-10482734D01*
X9890003Y-10663686D02*
X9899527Y-10673210D01*
X9899527Y-10673210D02*
X9890003Y-10682734D01*
X9890003Y-10682734D02*
X9880479Y-10673210D01*
X9880479Y-10673210D02*
X9890003Y-10663686D01*
X9890003Y-10663686D02*
X9890003Y-10682734D01*
X9975717Y-10501781D02*
X9985241Y-10492258D01*
X9985241Y-10492258D02*
X10004289Y-10482734D01*
X10004289Y-10482734D02*
X10051908Y-10482734D01*
X10051908Y-10482734D02*
X10070955Y-10492258D01*
X10070955Y-10492258D02*
X10080479Y-10501781D01*
X10080479Y-10501781D02*
X10090003Y-10520829D01*
X10090003Y-10520829D02*
X10090003Y-10539877D01*
X10090003Y-10539877D02*
X10080479Y-10568448D01*
X10080479Y-10568448D02*
X9966194Y-10682734D01*
X9966194Y-10682734D02*
X10090003Y-10682734D01*
X10213813Y-10482734D02*
X10232860Y-10482734D01*
X10232860Y-10482734D02*
X10251908Y-10492258D01*
X10251908Y-10492258D02*
X10261432Y-10501781D01*
X10261432Y-10501781D02*
X10270955Y-10520829D01*
X10270955Y-10520829D02*
X10280479Y-10558924D01*
X10280479Y-10558924D02*
X10280479Y-10606543D01*
X10280479Y-10606543D02*
X10270955Y-10644639D01*
X10270955Y-10644639D02*
X10261432Y-10663686D01*
X10261432Y-10663686D02*
X10251908Y-10673210D01*
X10251908Y-10673210D02*
X10232860Y-10682734D01*
X10232860Y-10682734D02*
X10213813Y-10682734D01*
X10213813Y-10682734D02*
X10194765Y-10673210D01*
X10194765Y-10673210D02*
X10185241Y-10663686D01*
X10185241Y-10663686D02*
X10175717Y-10644639D01*
X10175717Y-10644639D02*
X10166194Y-10606543D01*
X10166194Y-10606543D02*
X10166194Y-10558924D01*
X10166194Y-10558924D02*
X10175717Y-10520829D01*
X10175717Y-10520829D02*
X10185241Y-10501781D01*
X10185241Y-10501781D02*
X10194765Y-10492258D01*
X10194765Y-10492258D02*
X10213813Y-10482734D01*
X10404289Y-10482734D02*
X10423336Y-10482734D01*
X10423336Y-10482734D02*
X10442384Y-10492258D01*
X10442384Y-10492258D02*
X10451908Y-10501781D01*
X10451908Y-10501781D02*
X10461432Y-10520829D01*
X10461432Y-10520829D02*
X10470955Y-10558924D01*
X10470955Y-10558924D02*
X10470955Y-10606543D01*
X10470955Y-10606543D02*
X10461432Y-10644639D01*
X10461432Y-10644639D02*
X10451908Y-10663686D01*
X10451908Y-10663686D02*
X10442384Y-10673210D01*
X10442384Y-10673210D02*
X10423336Y-10682734D01*
X10423336Y-10682734D02*
X10404289Y-10682734D01*
X10404289Y-10682734D02*
X10385241Y-10673210D01*
X10385241Y-10673210D02*
X10375717Y-10663686D01*
X10375717Y-10663686D02*
X10366194Y-10644639D01*
X10366194Y-10644639D02*
X10356670Y-10606543D01*
X10356670Y-10606543D02*
X10356670Y-10558924D01*
X10356670Y-10558924D02*
X10366194Y-10520829D01*
X10366194Y-10520829D02*
X10375717Y-10501781D01*
X10375717Y-10501781D02*
X10385241Y-10492258D01*
X10385241Y-10492258D02*
X10404289Y-10482734D01*
X10556670Y-10682734D02*
X10556670Y-10549400D01*
X10556670Y-10568448D02*
X10566194Y-10558924D01*
X10566194Y-10558924D02*
X10585241Y-10549400D01*
X10585241Y-10549400D02*
X10613813Y-10549400D01*
X10613813Y-10549400D02*
X10632860Y-10558924D01*
X10632860Y-10558924D02*
X10642384Y-10577972D01*
X10642384Y-10577972D02*
X10642384Y-10682734D01*
X10642384Y-10577972D02*
X10651908Y-10558924D01*
X10651908Y-10558924D02*
X10670955Y-10549400D01*
X10670955Y-10549400D02*
X10699527Y-10549400D01*
X10699527Y-10549400D02*
X10718575Y-10558924D01*
X10718575Y-10558924D02*
X10728098Y-10577972D01*
X10728098Y-10577972D02*
X10728098Y-10682734D01*
X10823336Y-10682734D02*
X10823336Y-10549400D01*
X10823336Y-10568448D02*
X10832860Y-10558924D01*
X10832860Y-10558924D02*
X10851908Y-10549400D01*
X10851908Y-10549400D02*
X10880479Y-10549400D01*
X10880479Y-10549400D02*
X10899527Y-10558924D01*
X10899527Y-10558924D02*
X10909051Y-10577972D01*
X10909051Y-10577972D02*
X10909051Y-10682734D01*
X10909051Y-10577972D02*
X10918575Y-10558924D01*
X10918575Y-10558924D02*
X10937622Y-10549400D01*
X10937622Y-10549400D02*
X10966194Y-10549400D01*
X10966194Y-10549400D02*
X10985241Y-10558924D01*
X10985241Y-10558924D02*
X10994765Y-10577972D01*
X10994765Y-10577972D02*
X10994765Y-10682734D01*
X11385241Y-10473210D02*
X11213813Y-10730353D01*
X11642384Y-10482734D02*
X11661432Y-10482734D01*
X11661432Y-10482734D02*
X11680479Y-10492258D01*
X11680479Y-10492258D02*
X11690003Y-10501781D01*
X11690003Y-10501781D02*
X11699527Y-10520829D01*
X11699527Y-10520829D02*
X11709051Y-10558924D01*
X11709051Y-10558924D02*
X11709051Y-10606543D01*
X11709051Y-10606543D02*
X11699527Y-10644639D01*
X11699527Y-10644639D02*
X11690003Y-10663686D01*
X11690003Y-10663686D02*
X11680479Y-10673210D01*
X11680479Y-10673210D02*
X11661432Y-10682734D01*
X11661432Y-10682734D02*
X11642384Y-10682734D01*
X11642384Y-10682734D02*
X11623336Y-10673210D01*
X11623336Y-10673210D02*
X11613813Y-10663686D01*
X11613813Y-10663686D02*
X11604289Y-10644639D01*
X11604289Y-10644639D02*
X11594765Y-10606543D01*
X11594765Y-10606543D02*
X11594765Y-10558924D01*
X11594765Y-10558924D02*
X11604289Y-10520829D01*
X11604289Y-10520829D02*
X11613813Y-10501781D01*
X11613813Y-10501781D02*
X11623336Y-10492258D01*
X11623336Y-10492258D02*
X11642384Y-10482734D01*
X11794765Y-10663686D02*
X11804289Y-10673210D01*
X11804289Y-10673210D02*
X11794765Y-10682734D01*
X11794765Y-10682734D02*
X11785241Y-10673210D01*
X11785241Y-10673210D02*
X11794765Y-10663686D01*
X11794765Y-10663686D02*
X11794765Y-10682734D01*
X11928098Y-10482734D02*
X11947146Y-10482734D01*
X11947146Y-10482734D02*
X11966194Y-10492258D01*
X11966194Y-10492258D02*
X11975717Y-10501781D01*
X11975717Y-10501781D02*
X11985241Y-10520829D01*
X11985241Y-10520829D02*
X11994765Y-10558924D01*
X11994765Y-10558924D02*
X11994765Y-10606543D01*
X11994765Y-10606543D02*
X11985241Y-10644639D01*
X11985241Y-10644639D02*
X11975717Y-10663686D01*
X11975717Y-10663686D02*
X11966194Y-10673210D01*
X11966194Y-10673210D02*
X11947146Y-10682734D01*
X11947146Y-10682734D02*
X11928098Y-10682734D01*
X11928098Y-10682734D02*
X11909051Y-10673210D01*
X11909051Y-10673210D02*
X11899527Y-10663686D01*
X11899527Y-10663686D02*
X11890003Y-10644639D01*
X11890003Y-10644639D02*
X11880479Y-10606543D01*
X11880479Y-10606543D02*
X11880479Y-10558924D01*
X11880479Y-10558924D02*
X11890003Y-10520829D01*
X11890003Y-10520829D02*
X11899527Y-10501781D01*
X11899527Y-10501781D02*
X11909051Y-10492258D01*
X11909051Y-10492258D02*
X11928098Y-10482734D01*
X12118575Y-10482734D02*
X12137622Y-10482734D01*
X12137622Y-10482734D02*
X12156670Y-10492258D01*
X12156670Y-10492258D02*
X12166194Y-10501781D01*
X12166194Y-10501781D02*
X12175717Y-10520829D01*
X12175717Y-10520829D02*
X12185241Y-10558924D01*
X12185241Y-10558924D02*
X12185241Y-10606543D01*
X12185241Y-10606543D02*
X12175717Y-10644639D01*
X12175717Y-10644639D02*
X12166194Y-10663686D01*
X12166194Y-10663686D02*
X12156670Y-10673210D01*
X12156670Y-10673210D02*
X12137622Y-10682734D01*
X12137622Y-10682734D02*
X12118575Y-10682734D01*
X12118575Y-10682734D02*
X12099527Y-10673210D01*
X12099527Y-10673210D02*
X12090003Y-10663686D01*
X12090003Y-10663686D02*
X12080479Y-10644639D01*
X12080479Y-10644639D02*
X12070956Y-10606543D01*
X12070956Y-10606543D02*
X12070956Y-10558924D01*
X12070956Y-10558924D02*
X12080479Y-10520829D01*
X12080479Y-10520829D02*
X12090003Y-10501781D01*
X12090003Y-10501781D02*
X12099527Y-10492258D01*
X12099527Y-10492258D02*
X12118575Y-10482734D01*
X12251908Y-10482734D02*
X12385241Y-10482734D01*
X12385241Y-10482734D02*
X12299527Y-10682734D01*
X12470956Y-10682734D02*
X12509051Y-10682734D01*
X12509051Y-10682734D02*
X12528098Y-10673210D01*
X12528098Y-10673210D02*
X12537622Y-10663686D01*
X12537622Y-10663686D02*
X12556670Y-10635115D01*
X12556670Y-10635115D02*
X12566194Y-10597020D01*
X12566194Y-10597020D02*
X12566194Y-10520829D01*
X12566194Y-10520829D02*
X12556670Y-10501781D01*
X12556670Y-10501781D02*
X12547146Y-10492258D01*
X12547146Y-10492258D02*
X12528098Y-10482734D01*
X12528098Y-10482734D02*
X12490003Y-10482734D01*
X12490003Y-10482734D02*
X12470956Y-10492258D01*
X12470956Y-10492258D02*
X12461432Y-10501781D01*
X12461432Y-10501781D02*
X12451908Y-10520829D01*
X12451908Y-10520829D02*
X12451908Y-10568448D01*
X12451908Y-10568448D02*
X12461432Y-10587496D01*
X12461432Y-10587496D02*
X12470956Y-10597020D01*
X12470956Y-10597020D02*
X12490003Y-10606543D01*
X12490003Y-10606543D02*
X12528098Y-10606543D01*
X12528098Y-10606543D02*
X12547146Y-10597020D01*
X12547146Y-10597020D02*
X12556670Y-10587496D01*
X12556670Y-10587496D02*
X12566194Y-10568448D01*
X12642384Y-10482734D02*
X12642384Y-10520829D01*
X12718575Y-10482734D02*
X12718575Y-10520829D01*
X13013813Y-10758924D02*
X13004289Y-10749400D01*
X13004289Y-10749400D02*
X12985241Y-10720829D01*
X12985241Y-10720829D02*
X12975718Y-10701781D01*
X12975718Y-10701781D02*
X12966194Y-10673210D01*
X12966194Y-10673210D02*
X12956670Y-10625591D01*
X12956670Y-10625591D02*
X12956670Y-10587496D01*
X12956670Y-10587496D02*
X12966194Y-10539877D01*
X12966194Y-10539877D02*
X12975718Y-10511305D01*
X12975718Y-10511305D02*
X12985241Y-10492258D01*
X12985241Y-10492258D02*
X13004289Y-10463686D01*
X13004289Y-10463686D02*
X13013813Y-10454162D01*
X13118575Y-10568448D02*
X13099527Y-10558924D01*
X13099527Y-10558924D02*
X13090003Y-10549400D01*
X13090003Y-10549400D02*
X13080479Y-10530353D01*
X13080479Y-10530353D02*
X13080479Y-10520829D01*
X13080479Y-10520829D02*
X13090003Y-10501781D01*
X13090003Y-10501781D02*
X13099527Y-10492258D01*
X13099527Y-10492258D02*
X13118575Y-10482734D01*
X13118575Y-10482734D02*
X13156670Y-10482734D01*
X13156670Y-10482734D02*
X13175718Y-10492258D01*
X13175718Y-10492258D02*
X13185241Y-10501781D01*
X13185241Y-10501781D02*
X13194765Y-10520829D01*
X13194765Y-10520829D02*
X13194765Y-10530353D01*
X13194765Y-10530353D02*
X13185241Y-10549400D01*
X13185241Y-10549400D02*
X13175718Y-10558924D01*
X13175718Y-10558924D02*
X13156670Y-10568448D01*
X13156670Y-10568448D02*
X13118575Y-10568448D01*
X13118575Y-10568448D02*
X13099527Y-10577972D01*
X13099527Y-10577972D02*
X13090003Y-10587496D01*
X13090003Y-10587496D02*
X13080479Y-10606543D01*
X13080479Y-10606543D02*
X13080479Y-10644639D01*
X13080479Y-10644639D02*
X13090003Y-10663686D01*
X13090003Y-10663686D02*
X13099527Y-10673210D01*
X13099527Y-10673210D02*
X13118575Y-10682734D01*
X13118575Y-10682734D02*
X13156670Y-10682734D01*
X13156670Y-10682734D02*
X13175718Y-10673210D01*
X13175718Y-10673210D02*
X13185241Y-10663686D01*
X13185241Y-10663686D02*
X13194765Y-10644639D01*
X13194765Y-10644639D02*
X13194765Y-10606543D01*
X13194765Y-10606543D02*
X13185241Y-10587496D01*
X13185241Y-10587496D02*
X13175718Y-10577972D01*
X13175718Y-10577972D02*
X13156670Y-10568448D01*
X13432860Y-10682734D02*
X13432860Y-10482734D01*
X13518575Y-10682734D02*
X13518575Y-10577972D01*
X13518575Y-10577972D02*
X13509051Y-10558924D01*
X13509051Y-10558924D02*
X13490003Y-10549400D01*
X13490003Y-10549400D02*
X13461432Y-10549400D01*
X13461432Y-10549400D02*
X13442384Y-10558924D01*
X13442384Y-10558924D02*
X13432860Y-10568448D01*
X13642384Y-10682734D02*
X13623337Y-10673210D01*
X13623337Y-10673210D02*
X13613813Y-10663686D01*
X13613813Y-10663686D02*
X13604289Y-10644639D01*
X13604289Y-10644639D02*
X13604289Y-10587496D01*
X13604289Y-10587496D02*
X13613813Y-10568448D01*
X13613813Y-10568448D02*
X13623337Y-10558924D01*
X13623337Y-10558924D02*
X13642384Y-10549400D01*
X13642384Y-10549400D02*
X13670956Y-10549400D01*
X13670956Y-10549400D02*
X13690003Y-10558924D01*
X13690003Y-10558924D02*
X13699527Y-10568448D01*
X13699527Y-10568448D02*
X13709051Y-10587496D01*
X13709051Y-10587496D02*
X13709051Y-10644639D01*
X13709051Y-10644639D02*
X13699527Y-10663686D01*
X13699527Y-10663686D02*
X13690003Y-10673210D01*
X13690003Y-10673210D02*
X13670956Y-10682734D01*
X13670956Y-10682734D02*
X13642384Y-10682734D01*
X13823337Y-10682734D02*
X13804289Y-10673210D01*
X13804289Y-10673210D02*
X13794765Y-10654162D01*
X13794765Y-10654162D02*
X13794765Y-10482734D01*
X13975718Y-10673210D02*
X13956670Y-10682734D01*
X13956670Y-10682734D02*
X13918575Y-10682734D01*
X13918575Y-10682734D02*
X13899527Y-10673210D01*
X13899527Y-10673210D02*
X13890003Y-10654162D01*
X13890003Y-10654162D02*
X13890003Y-10577972D01*
X13890003Y-10577972D02*
X13899527Y-10558924D01*
X13899527Y-10558924D02*
X13918575Y-10549400D01*
X13918575Y-10549400D02*
X13956670Y-10549400D01*
X13956670Y-10549400D02*
X13975718Y-10558924D01*
X13975718Y-10558924D02*
X13985241Y-10577972D01*
X13985241Y-10577972D02*
X13985241Y-10597020D01*
X13985241Y-10597020D02*
X13890003Y-10616067D01*
X14061432Y-10673210D02*
X14080480Y-10682734D01*
X14080480Y-10682734D02*
X14118575Y-10682734D01*
X14118575Y-10682734D02*
X14137622Y-10673210D01*
X14137622Y-10673210D02*
X14147146Y-10654162D01*
X14147146Y-10654162D02*
X14147146Y-10644639D01*
X14147146Y-10644639D02*
X14137622Y-10625591D01*
X14137622Y-10625591D02*
X14118575Y-10616067D01*
X14118575Y-10616067D02*
X14090003Y-10616067D01*
X14090003Y-10616067D02*
X14070956Y-10606543D01*
X14070956Y-10606543D02*
X14061432Y-10587496D01*
X14061432Y-10587496D02*
X14061432Y-10577972D01*
X14061432Y-10577972D02*
X14070956Y-10558924D01*
X14070956Y-10558924D02*
X14090003Y-10549400D01*
X14090003Y-10549400D02*
X14118575Y-10549400D01*
X14118575Y-10549400D02*
X14137622Y-10558924D01*
X14213813Y-10758924D02*
X14223337Y-10749400D01*
X14223337Y-10749400D02*
X14242384Y-10720829D01*
X14242384Y-10720829D02*
X14251908Y-10701781D01*
X14251908Y-10701781D02*
X14261432Y-10673210D01*
X14261432Y-10673210D02*
X14270956Y-10625591D01*
X14270956Y-10625591D02*
X14270956Y-10587496D01*
X14270956Y-10587496D02*
X14261432Y-10539877D01*
X14261432Y-10539877D02*
X14251908Y-10511305D01*
X14251908Y-10511305D02*
X14242384Y-10492258D01*
X14242384Y-10492258D02*
X14223337Y-10463686D01*
X14223337Y-10463686D02*
X14213813Y-10454162D01*
D12*
X9438750Y-10855250D02*
G75*
G02*
X9408750Y-10855250I-15000J0D01*
G01*
X9408750Y-10855250D02*
G75*
G02*
X9438750Y-10855250I15000J0D01*
G01*
D10*
X9737622Y-10746734D02*
X9756670Y-10746734D01*
X9756670Y-10746734D02*
X9775717Y-10756258D01*
X9775717Y-10756258D02*
X9785241Y-10765781D01*
X9785241Y-10765781D02*
X9794765Y-10784829D01*
X9794765Y-10784829D02*
X9804289Y-10822924D01*
X9804289Y-10822924D02*
X9804289Y-10870543D01*
X9804289Y-10870543D02*
X9794765Y-10908639D01*
X9794765Y-10908639D02*
X9785241Y-10927686D01*
X9785241Y-10927686D02*
X9775717Y-10937210D01*
X9775717Y-10937210D02*
X9756670Y-10946734D01*
X9756670Y-10946734D02*
X9737622Y-10946734D01*
X9737622Y-10946734D02*
X9718574Y-10937210D01*
X9718574Y-10937210D02*
X9709051Y-10927686D01*
X9709051Y-10927686D02*
X9699527Y-10908639D01*
X9699527Y-10908639D02*
X9690003Y-10870543D01*
X9690003Y-10870543D02*
X9690003Y-10822924D01*
X9690003Y-10822924D02*
X9699527Y-10784829D01*
X9699527Y-10784829D02*
X9709051Y-10765781D01*
X9709051Y-10765781D02*
X9718574Y-10756258D01*
X9718574Y-10756258D02*
X9737622Y-10746734D01*
X9890003Y-10927686D02*
X9899527Y-10937210D01*
X9899527Y-10937210D02*
X9890003Y-10946734D01*
X9890003Y-10946734D02*
X9880479Y-10937210D01*
X9880479Y-10937210D02*
X9890003Y-10927686D01*
X9890003Y-10927686D02*
X9890003Y-10946734D01*
X9966194Y-10746734D02*
X10090003Y-10746734D01*
X10090003Y-10746734D02*
X10023336Y-10822924D01*
X10023336Y-10822924D02*
X10051908Y-10822924D01*
X10051908Y-10822924D02*
X10070955Y-10832448D01*
X10070955Y-10832448D02*
X10080479Y-10841972D01*
X10080479Y-10841972D02*
X10090003Y-10861020D01*
X10090003Y-10861020D02*
X10090003Y-10908639D01*
X10090003Y-10908639D02*
X10080479Y-10927686D01*
X10080479Y-10927686D02*
X10070955Y-10937210D01*
X10070955Y-10937210D02*
X10051908Y-10946734D01*
X10051908Y-10946734D02*
X9994765Y-10946734D01*
X9994765Y-10946734D02*
X9975717Y-10937210D01*
X9975717Y-10937210D02*
X9966194Y-10927686D01*
X10213813Y-10746734D02*
X10232860Y-10746734D01*
X10232860Y-10746734D02*
X10251908Y-10756258D01*
X10251908Y-10756258D02*
X10261432Y-10765781D01*
X10261432Y-10765781D02*
X10270955Y-10784829D01*
X10270955Y-10784829D02*
X10280479Y-10822924D01*
X10280479Y-10822924D02*
X10280479Y-10870543D01*
X10280479Y-10870543D02*
X10270955Y-10908639D01*
X10270955Y-10908639D02*
X10261432Y-10927686D01*
X10261432Y-10927686D02*
X10251908Y-10937210D01*
X10251908Y-10937210D02*
X10232860Y-10946734D01*
X10232860Y-10946734D02*
X10213813Y-10946734D01*
X10213813Y-10946734D02*
X10194765Y-10937210D01*
X10194765Y-10937210D02*
X10185241Y-10927686D01*
X10185241Y-10927686D02*
X10175717Y-10908639D01*
X10175717Y-10908639D02*
X10166194Y-10870543D01*
X10166194Y-10870543D02*
X10166194Y-10822924D01*
X10166194Y-10822924D02*
X10175717Y-10784829D01*
X10175717Y-10784829D02*
X10185241Y-10765781D01*
X10185241Y-10765781D02*
X10194765Y-10756258D01*
X10194765Y-10756258D02*
X10213813Y-10746734D01*
X10404289Y-10746734D02*
X10423336Y-10746734D01*
X10423336Y-10746734D02*
X10442384Y-10756258D01*
X10442384Y-10756258D02*
X10451908Y-10765781D01*
X10451908Y-10765781D02*
X10461432Y-10784829D01*
X10461432Y-10784829D02*
X10470955Y-10822924D01*
X10470955Y-10822924D02*
X10470955Y-10870543D01*
X10470955Y-10870543D02*
X10461432Y-10908639D01*
X10461432Y-10908639D02*
X10451908Y-10927686D01*
X10451908Y-10927686D02*
X10442384Y-10937210D01*
X10442384Y-10937210D02*
X10423336Y-10946734D01*
X10423336Y-10946734D02*
X10404289Y-10946734D01*
X10404289Y-10946734D02*
X10385241Y-10937210D01*
X10385241Y-10937210D02*
X10375717Y-10927686D01*
X10375717Y-10927686D02*
X10366194Y-10908639D01*
X10366194Y-10908639D02*
X10356670Y-10870543D01*
X10356670Y-10870543D02*
X10356670Y-10822924D01*
X10356670Y-10822924D02*
X10366194Y-10784829D01*
X10366194Y-10784829D02*
X10375717Y-10765781D01*
X10375717Y-10765781D02*
X10385241Y-10756258D01*
X10385241Y-10756258D02*
X10404289Y-10746734D01*
X10556670Y-10946734D02*
X10556670Y-10813400D01*
X10556670Y-10832448D02*
X10566194Y-10822924D01*
X10566194Y-10822924D02*
X10585241Y-10813400D01*
X10585241Y-10813400D02*
X10613813Y-10813400D01*
X10613813Y-10813400D02*
X10632860Y-10822924D01*
X10632860Y-10822924D02*
X10642384Y-10841972D01*
X10642384Y-10841972D02*
X10642384Y-10946734D01*
X10642384Y-10841972D02*
X10651908Y-10822924D01*
X10651908Y-10822924D02*
X10670955Y-10813400D01*
X10670955Y-10813400D02*
X10699527Y-10813400D01*
X10699527Y-10813400D02*
X10718575Y-10822924D01*
X10718575Y-10822924D02*
X10728098Y-10841972D01*
X10728098Y-10841972D02*
X10728098Y-10946734D01*
X10823336Y-10946734D02*
X10823336Y-10813400D01*
X10823336Y-10832448D02*
X10832860Y-10822924D01*
X10832860Y-10822924D02*
X10851908Y-10813400D01*
X10851908Y-10813400D02*
X10880479Y-10813400D01*
X10880479Y-10813400D02*
X10899527Y-10822924D01*
X10899527Y-10822924D02*
X10909051Y-10841972D01*
X10909051Y-10841972D02*
X10909051Y-10946734D01*
X10909051Y-10841972D02*
X10918575Y-10822924D01*
X10918575Y-10822924D02*
X10937622Y-10813400D01*
X10937622Y-10813400D02*
X10966194Y-10813400D01*
X10966194Y-10813400D02*
X10985241Y-10822924D01*
X10985241Y-10822924D02*
X10994765Y-10841972D01*
X10994765Y-10841972D02*
X10994765Y-10946734D01*
X11385241Y-10737210D02*
X11213813Y-10994353D01*
X11642384Y-10746734D02*
X11661432Y-10746734D01*
X11661432Y-10746734D02*
X11680479Y-10756258D01*
X11680479Y-10756258D02*
X11690003Y-10765781D01*
X11690003Y-10765781D02*
X11699527Y-10784829D01*
X11699527Y-10784829D02*
X11709051Y-10822924D01*
X11709051Y-10822924D02*
X11709051Y-10870543D01*
X11709051Y-10870543D02*
X11699527Y-10908639D01*
X11699527Y-10908639D02*
X11690003Y-10927686D01*
X11690003Y-10927686D02*
X11680479Y-10937210D01*
X11680479Y-10937210D02*
X11661432Y-10946734D01*
X11661432Y-10946734D02*
X11642384Y-10946734D01*
X11642384Y-10946734D02*
X11623336Y-10937210D01*
X11623336Y-10937210D02*
X11613813Y-10927686D01*
X11613813Y-10927686D02*
X11604289Y-10908639D01*
X11604289Y-10908639D02*
X11594765Y-10870543D01*
X11594765Y-10870543D02*
X11594765Y-10822924D01*
X11594765Y-10822924D02*
X11604289Y-10784829D01*
X11604289Y-10784829D02*
X11613813Y-10765781D01*
X11613813Y-10765781D02*
X11623336Y-10756258D01*
X11623336Y-10756258D02*
X11642384Y-10746734D01*
X11794765Y-10927686D02*
X11804289Y-10937210D01*
X11804289Y-10937210D02*
X11794765Y-10946734D01*
X11794765Y-10946734D02*
X11785241Y-10937210D01*
X11785241Y-10937210D02*
X11794765Y-10927686D01*
X11794765Y-10927686D02*
X11794765Y-10946734D01*
X11928098Y-10746734D02*
X11947146Y-10746734D01*
X11947146Y-10746734D02*
X11966194Y-10756258D01*
X11966194Y-10756258D02*
X11975717Y-10765781D01*
X11975717Y-10765781D02*
X11985241Y-10784829D01*
X11985241Y-10784829D02*
X11994765Y-10822924D01*
X11994765Y-10822924D02*
X11994765Y-10870543D01*
X11994765Y-10870543D02*
X11985241Y-10908639D01*
X11985241Y-10908639D02*
X11975717Y-10927686D01*
X11975717Y-10927686D02*
X11966194Y-10937210D01*
X11966194Y-10937210D02*
X11947146Y-10946734D01*
X11947146Y-10946734D02*
X11928098Y-10946734D01*
X11928098Y-10946734D02*
X11909051Y-10937210D01*
X11909051Y-10937210D02*
X11899527Y-10927686D01*
X11899527Y-10927686D02*
X11890003Y-10908639D01*
X11890003Y-10908639D02*
X11880479Y-10870543D01*
X11880479Y-10870543D02*
X11880479Y-10822924D01*
X11880479Y-10822924D02*
X11890003Y-10784829D01*
X11890003Y-10784829D02*
X11899527Y-10765781D01*
X11899527Y-10765781D02*
X11909051Y-10756258D01*
X11909051Y-10756258D02*
X11928098Y-10746734D01*
X12185241Y-10946734D02*
X12070956Y-10946734D01*
X12128098Y-10946734D02*
X12128098Y-10746734D01*
X12128098Y-10746734D02*
X12109051Y-10775305D01*
X12109051Y-10775305D02*
X12090003Y-10794353D01*
X12090003Y-10794353D02*
X12070956Y-10803877D01*
X12375717Y-10946734D02*
X12261432Y-10946734D01*
X12318575Y-10946734D02*
X12318575Y-10746734D01*
X12318575Y-10746734D02*
X12299527Y-10775305D01*
X12299527Y-10775305D02*
X12280479Y-10794353D01*
X12280479Y-10794353D02*
X12261432Y-10803877D01*
X12490003Y-10832448D02*
X12470956Y-10822924D01*
X12470956Y-10822924D02*
X12461432Y-10813400D01*
X12461432Y-10813400D02*
X12451908Y-10794353D01*
X12451908Y-10794353D02*
X12451908Y-10784829D01*
X12451908Y-10784829D02*
X12461432Y-10765781D01*
X12461432Y-10765781D02*
X12470956Y-10756258D01*
X12470956Y-10756258D02*
X12490003Y-10746734D01*
X12490003Y-10746734D02*
X12528098Y-10746734D01*
X12528098Y-10746734D02*
X12547146Y-10756258D01*
X12547146Y-10756258D02*
X12556670Y-10765781D01*
X12556670Y-10765781D02*
X12566194Y-10784829D01*
X12566194Y-10784829D02*
X12566194Y-10794353D01*
X12566194Y-10794353D02*
X12556670Y-10813400D01*
X12556670Y-10813400D02*
X12547146Y-10822924D01*
X12547146Y-10822924D02*
X12528098Y-10832448D01*
X12528098Y-10832448D02*
X12490003Y-10832448D01*
X12490003Y-10832448D02*
X12470956Y-10841972D01*
X12470956Y-10841972D02*
X12461432Y-10851496D01*
X12461432Y-10851496D02*
X12451908Y-10870543D01*
X12451908Y-10870543D02*
X12451908Y-10908639D01*
X12451908Y-10908639D02*
X12461432Y-10927686D01*
X12461432Y-10927686D02*
X12470956Y-10937210D01*
X12470956Y-10937210D02*
X12490003Y-10946734D01*
X12490003Y-10946734D02*
X12528098Y-10946734D01*
X12528098Y-10946734D02*
X12547146Y-10937210D01*
X12547146Y-10937210D02*
X12556670Y-10927686D01*
X12556670Y-10927686D02*
X12566194Y-10908639D01*
X12566194Y-10908639D02*
X12566194Y-10870543D01*
X12566194Y-10870543D02*
X12556670Y-10851496D01*
X12556670Y-10851496D02*
X12547146Y-10841972D01*
X12547146Y-10841972D02*
X12528098Y-10832448D01*
X12642384Y-10746734D02*
X12642384Y-10784829D01*
X12718575Y-10746734D02*
X12718575Y-10784829D01*
X13013813Y-11022924D02*
X13004289Y-11013400D01*
X13004289Y-11013400D02*
X12985241Y-10984829D01*
X12985241Y-10984829D02*
X12975718Y-10965781D01*
X12975718Y-10965781D02*
X12966194Y-10937210D01*
X12966194Y-10937210D02*
X12956670Y-10889591D01*
X12956670Y-10889591D02*
X12956670Y-10851496D01*
X12956670Y-10851496D02*
X12966194Y-10803877D01*
X12966194Y-10803877D02*
X12975718Y-10775305D01*
X12975718Y-10775305D02*
X12985241Y-10756258D01*
X12985241Y-10756258D02*
X13004289Y-10727686D01*
X13004289Y-10727686D02*
X13013813Y-10718162D01*
X13194765Y-10946734D02*
X13080479Y-10946734D01*
X13137622Y-10946734D02*
X13137622Y-10746734D01*
X13137622Y-10746734D02*
X13118575Y-10775305D01*
X13118575Y-10775305D02*
X13099527Y-10794353D01*
X13099527Y-10794353D02*
X13080479Y-10803877D01*
X13270956Y-10765781D02*
X13280479Y-10756258D01*
X13280479Y-10756258D02*
X13299527Y-10746734D01*
X13299527Y-10746734D02*
X13347146Y-10746734D01*
X13347146Y-10746734D02*
X13366194Y-10756258D01*
X13366194Y-10756258D02*
X13375718Y-10765781D01*
X13375718Y-10765781D02*
X13385241Y-10784829D01*
X13385241Y-10784829D02*
X13385241Y-10803877D01*
X13385241Y-10803877D02*
X13375718Y-10832448D01*
X13375718Y-10832448D02*
X13261432Y-10946734D01*
X13261432Y-10946734D02*
X13385241Y-10946734D01*
X13623337Y-10946734D02*
X13623337Y-10746734D01*
X13709051Y-10946734D02*
X13709051Y-10841972D01*
X13709051Y-10841972D02*
X13699527Y-10822924D01*
X13699527Y-10822924D02*
X13680480Y-10813400D01*
X13680480Y-10813400D02*
X13651908Y-10813400D01*
X13651908Y-10813400D02*
X13632860Y-10822924D01*
X13632860Y-10822924D02*
X13623337Y-10832448D01*
X13832860Y-10946734D02*
X13813813Y-10937210D01*
X13813813Y-10937210D02*
X13804289Y-10927686D01*
X13804289Y-10927686D02*
X13794765Y-10908639D01*
X13794765Y-10908639D02*
X13794765Y-10851496D01*
X13794765Y-10851496D02*
X13804289Y-10832448D01*
X13804289Y-10832448D02*
X13813813Y-10822924D01*
X13813813Y-10822924D02*
X13832860Y-10813400D01*
X13832860Y-10813400D02*
X13861432Y-10813400D01*
X13861432Y-10813400D02*
X13880480Y-10822924D01*
X13880480Y-10822924D02*
X13890003Y-10832448D01*
X13890003Y-10832448D02*
X13899527Y-10851496D01*
X13899527Y-10851496D02*
X13899527Y-10908639D01*
X13899527Y-10908639D02*
X13890003Y-10927686D01*
X13890003Y-10927686D02*
X13880480Y-10937210D01*
X13880480Y-10937210D02*
X13861432Y-10946734D01*
X13861432Y-10946734D02*
X13832860Y-10946734D01*
X14013813Y-10946734D02*
X13994765Y-10937210D01*
X13994765Y-10937210D02*
X13985241Y-10918162D01*
X13985241Y-10918162D02*
X13985241Y-10746734D01*
X14166194Y-10937210D02*
X14147146Y-10946734D01*
X14147146Y-10946734D02*
X14109051Y-10946734D01*
X14109051Y-10946734D02*
X14090003Y-10937210D01*
X14090003Y-10937210D02*
X14080480Y-10918162D01*
X14080480Y-10918162D02*
X14080480Y-10841972D01*
X14080480Y-10841972D02*
X14090003Y-10822924D01*
X14090003Y-10822924D02*
X14109051Y-10813400D01*
X14109051Y-10813400D02*
X14147146Y-10813400D01*
X14147146Y-10813400D02*
X14166194Y-10822924D01*
X14166194Y-10822924D02*
X14175718Y-10841972D01*
X14175718Y-10841972D02*
X14175718Y-10861020D01*
X14175718Y-10861020D02*
X14080480Y-10880067D01*
X14251908Y-10937210D02*
X14270956Y-10946734D01*
X14270956Y-10946734D02*
X14309051Y-10946734D01*
X14309051Y-10946734D02*
X14328099Y-10937210D01*
X14328099Y-10937210D02*
X14337622Y-10918162D01*
X14337622Y-10918162D02*
X14337622Y-10908639D01*
X14337622Y-10908639D02*
X14328099Y-10889591D01*
X14328099Y-10889591D02*
X14309051Y-10880067D01*
X14309051Y-10880067D02*
X14280480Y-10880067D01*
X14280480Y-10880067D02*
X14261432Y-10870543D01*
X14261432Y-10870543D02*
X14251908Y-10851496D01*
X14251908Y-10851496D02*
X14251908Y-10841972D01*
X14251908Y-10841972D02*
X14261432Y-10822924D01*
X14261432Y-10822924D02*
X14280480Y-10813400D01*
X14280480Y-10813400D02*
X14309051Y-10813400D01*
X14309051Y-10813400D02*
X14328099Y-10822924D01*
X14404289Y-11022924D02*
X14413813Y-11013400D01*
X14413813Y-11013400D02*
X14432861Y-10984829D01*
X14432861Y-10984829D02*
X14442384Y-10965781D01*
X14442384Y-10965781D02*
X14451908Y-10937210D01*
X14451908Y-10937210D02*
X14461432Y-10889591D01*
X14461432Y-10889591D02*
X14461432Y-10851496D01*
X14461432Y-10851496D02*
X14451908Y-10803877D01*
X14451908Y-10803877D02*
X14442384Y-10775305D01*
X14442384Y-10775305D02*
X14432861Y-10756258D01*
X14432861Y-10756258D02*
X14413813Y-10727686D01*
X14413813Y-10727686D02*
X14404289Y-10718162D01*
D12*
X9418750Y-11099250D02*
X9418750Y-11139250D01*
X9398750Y-11119250D02*
X9438750Y-11119250D01*
D10*
X9737622Y-11010734D02*
X9756670Y-11010734D01*
X9756670Y-11010734D02*
X9775717Y-11020258D01*
X9775717Y-11020258D02*
X9785241Y-11029781D01*
X9785241Y-11029781D02*
X9794765Y-11048829D01*
X9794765Y-11048829D02*
X9804289Y-11086924D01*
X9804289Y-11086924D02*
X9804289Y-11134543D01*
X9804289Y-11134543D02*
X9794765Y-11172639D01*
X9794765Y-11172639D02*
X9785241Y-11191686D01*
X9785241Y-11191686D02*
X9775717Y-11201210D01*
X9775717Y-11201210D02*
X9756670Y-11210734D01*
X9756670Y-11210734D02*
X9737622Y-11210734D01*
X9737622Y-11210734D02*
X9718574Y-11201210D01*
X9718574Y-11201210D02*
X9709051Y-11191686D01*
X9709051Y-11191686D02*
X9699527Y-11172639D01*
X9699527Y-11172639D02*
X9690003Y-11134543D01*
X9690003Y-11134543D02*
X9690003Y-11086924D01*
X9690003Y-11086924D02*
X9699527Y-11048829D01*
X9699527Y-11048829D02*
X9709051Y-11029781D01*
X9709051Y-11029781D02*
X9718574Y-11020258D01*
X9718574Y-11020258D02*
X9737622Y-11010734D01*
X9890003Y-11191686D02*
X9899527Y-11201210D01*
X9899527Y-11201210D02*
X9890003Y-11210734D01*
X9890003Y-11210734D02*
X9880479Y-11201210D01*
X9880479Y-11201210D02*
X9890003Y-11191686D01*
X9890003Y-11191686D02*
X9890003Y-11210734D01*
X10070955Y-11077400D02*
X10070955Y-11210734D01*
X10023336Y-11001210D02*
X9975717Y-11144067D01*
X9975717Y-11144067D02*
X10099527Y-11144067D01*
X10213813Y-11010734D02*
X10232860Y-11010734D01*
X10232860Y-11010734D02*
X10251908Y-11020258D01*
X10251908Y-11020258D02*
X10261432Y-11029781D01*
X10261432Y-11029781D02*
X10270955Y-11048829D01*
X10270955Y-11048829D02*
X10280479Y-11086924D01*
X10280479Y-11086924D02*
X10280479Y-11134543D01*
X10280479Y-11134543D02*
X10270955Y-11172639D01*
X10270955Y-11172639D02*
X10261432Y-11191686D01*
X10261432Y-11191686D02*
X10251908Y-11201210D01*
X10251908Y-11201210D02*
X10232860Y-11210734D01*
X10232860Y-11210734D02*
X10213813Y-11210734D01*
X10213813Y-11210734D02*
X10194765Y-11201210D01*
X10194765Y-11201210D02*
X10185241Y-11191686D01*
X10185241Y-11191686D02*
X10175717Y-11172639D01*
X10175717Y-11172639D02*
X10166194Y-11134543D01*
X10166194Y-11134543D02*
X10166194Y-11086924D01*
X10166194Y-11086924D02*
X10175717Y-11048829D01*
X10175717Y-11048829D02*
X10185241Y-11029781D01*
X10185241Y-11029781D02*
X10194765Y-11020258D01*
X10194765Y-11020258D02*
X10213813Y-11010734D01*
X10404289Y-11010734D02*
X10423336Y-11010734D01*
X10423336Y-11010734D02*
X10442384Y-11020258D01*
X10442384Y-11020258D02*
X10451908Y-11029781D01*
X10451908Y-11029781D02*
X10461432Y-11048829D01*
X10461432Y-11048829D02*
X10470955Y-11086924D01*
X10470955Y-11086924D02*
X10470955Y-11134543D01*
X10470955Y-11134543D02*
X10461432Y-11172639D01*
X10461432Y-11172639D02*
X10451908Y-11191686D01*
X10451908Y-11191686D02*
X10442384Y-11201210D01*
X10442384Y-11201210D02*
X10423336Y-11210734D01*
X10423336Y-11210734D02*
X10404289Y-11210734D01*
X10404289Y-11210734D02*
X10385241Y-11201210D01*
X10385241Y-11201210D02*
X10375717Y-11191686D01*
X10375717Y-11191686D02*
X10366194Y-11172639D01*
X10366194Y-11172639D02*
X10356670Y-11134543D01*
X10356670Y-11134543D02*
X10356670Y-11086924D01*
X10356670Y-11086924D02*
X10366194Y-11048829D01*
X10366194Y-11048829D02*
X10375717Y-11029781D01*
X10375717Y-11029781D02*
X10385241Y-11020258D01*
X10385241Y-11020258D02*
X10404289Y-11010734D01*
X10556670Y-11210734D02*
X10556670Y-11077400D01*
X10556670Y-11096448D02*
X10566194Y-11086924D01*
X10566194Y-11086924D02*
X10585241Y-11077400D01*
X10585241Y-11077400D02*
X10613813Y-11077400D01*
X10613813Y-11077400D02*
X10632860Y-11086924D01*
X10632860Y-11086924D02*
X10642384Y-11105972D01*
X10642384Y-11105972D02*
X10642384Y-11210734D01*
X10642384Y-11105972D02*
X10651908Y-11086924D01*
X10651908Y-11086924D02*
X10670955Y-11077400D01*
X10670955Y-11077400D02*
X10699527Y-11077400D01*
X10699527Y-11077400D02*
X10718575Y-11086924D01*
X10718575Y-11086924D02*
X10728098Y-11105972D01*
X10728098Y-11105972D02*
X10728098Y-11210734D01*
X10823336Y-11210734D02*
X10823336Y-11077400D01*
X10823336Y-11096448D02*
X10832860Y-11086924D01*
X10832860Y-11086924D02*
X10851908Y-11077400D01*
X10851908Y-11077400D02*
X10880479Y-11077400D01*
X10880479Y-11077400D02*
X10899527Y-11086924D01*
X10899527Y-11086924D02*
X10909051Y-11105972D01*
X10909051Y-11105972D02*
X10909051Y-11210734D01*
X10909051Y-11105972D02*
X10918575Y-11086924D01*
X10918575Y-11086924D02*
X10937622Y-11077400D01*
X10937622Y-11077400D02*
X10966194Y-11077400D01*
X10966194Y-11077400D02*
X10985241Y-11086924D01*
X10985241Y-11086924D02*
X10994765Y-11105972D01*
X10994765Y-11105972D02*
X10994765Y-11210734D01*
X11385241Y-11001210D02*
X11213813Y-11258353D01*
X11642384Y-11010734D02*
X11661432Y-11010734D01*
X11661432Y-11010734D02*
X11680479Y-11020258D01*
X11680479Y-11020258D02*
X11690003Y-11029781D01*
X11690003Y-11029781D02*
X11699527Y-11048829D01*
X11699527Y-11048829D02*
X11709051Y-11086924D01*
X11709051Y-11086924D02*
X11709051Y-11134543D01*
X11709051Y-11134543D02*
X11699527Y-11172639D01*
X11699527Y-11172639D02*
X11690003Y-11191686D01*
X11690003Y-11191686D02*
X11680479Y-11201210D01*
X11680479Y-11201210D02*
X11661432Y-11210734D01*
X11661432Y-11210734D02*
X11642384Y-11210734D01*
X11642384Y-11210734D02*
X11623336Y-11201210D01*
X11623336Y-11201210D02*
X11613813Y-11191686D01*
X11613813Y-11191686D02*
X11604289Y-11172639D01*
X11604289Y-11172639D02*
X11594765Y-11134543D01*
X11594765Y-11134543D02*
X11594765Y-11086924D01*
X11594765Y-11086924D02*
X11604289Y-11048829D01*
X11604289Y-11048829D02*
X11613813Y-11029781D01*
X11613813Y-11029781D02*
X11623336Y-11020258D01*
X11623336Y-11020258D02*
X11642384Y-11010734D01*
X11794765Y-11191686D02*
X11804289Y-11201210D01*
X11804289Y-11201210D02*
X11794765Y-11210734D01*
X11794765Y-11210734D02*
X11785241Y-11201210D01*
X11785241Y-11201210D02*
X11794765Y-11191686D01*
X11794765Y-11191686D02*
X11794765Y-11210734D01*
X11928098Y-11010734D02*
X11947146Y-11010734D01*
X11947146Y-11010734D02*
X11966194Y-11020258D01*
X11966194Y-11020258D02*
X11975717Y-11029781D01*
X11975717Y-11029781D02*
X11985241Y-11048829D01*
X11985241Y-11048829D02*
X11994765Y-11086924D01*
X11994765Y-11086924D02*
X11994765Y-11134543D01*
X11994765Y-11134543D02*
X11985241Y-11172639D01*
X11985241Y-11172639D02*
X11975717Y-11191686D01*
X11975717Y-11191686D02*
X11966194Y-11201210D01*
X11966194Y-11201210D02*
X11947146Y-11210734D01*
X11947146Y-11210734D02*
X11928098Y-11210734D01*
X11928098Y-11210734D02*
X11909051Y-11201210D01*
X11909051Y-11201210D02*
X11899527Y-11191686D01*
X11899527Y-11191686D02*
X11890003Y-11172639D01*
X11890003Y-11172639D02*
X11880479Y-11134543D01*
X11880479Y-11134543D02*
X11880479Y-11086924D01*
X11880479Y-11086924D02*
X11890003Y-11048829D01*
X11890003Y-11048829D02*
X11899527Y-11029781D01*
X11899527Y-11029781D02*
X11909051Y-11020258D01*
X11909051Y-11020258D02*
X11928098Y-11010734D01*
X12185241Y-11210734D02*
X12070956Y-11210734D01*
X12128098Y-11210734D02*
X12128098Y-11010734D01*
X12128098Y-11010734D02*
X12109051Y-11039305D01*
X12109051Y-11039305D02*
X12090003Y-11058353D01*
X12090003Y-11058353D02*
X12070956Y-11067877D01*
X12366194Y-11010734D02*
X12270956Y-11010734D01*
X12270956Y-11010734D02*
X12261432Y-11105972D01*
X12261432Y-11105972D02*
X12270956Y-11096448D01*
X12270956Y-11096448D02*
X12290003Y-11086924D01*
X12290003Y-11086924D02*
X12337622Y-11086924D01*
X12337622Y-11086924D02*
X12356670Y-11096448D01*
X12356670Y-11096448D02*
X12366194Y-11105972D01*
X12366194Y-11105972D02*
X12375717Y-11125020D01*
X12375717Y-11125020D02*
X12375717Y-11172639D01*
X12375717Y-11172639D02*
X12366194Y-11191686D01*
X12366194Y-11191686D02*
X12356670Y-11201210D01*
X12356670Y-11201210D02*
X12337622Y-11210734D01*
X12337622Y-11210734D02*
X12290003Y-11210734D01*
X12290003Y-11210734D02*
X12270956Y-11201210D01*
X12270956Y-11201210D02*
X12261432Y-11191686D01*
X12442384Y-11010734D02*
X12575717Y-11010734D01*
X12575717Y-11010734D02*
X12490003Y-11210734D01*
X12642384Y-11010734D02*
X12642384Y-11048829D01*
X12718575Y-11010734D02*
X12718575Y-11048829D01*
X13013813Y-11286924D02*
X13004289Y-11277400D01*
X13004289Y-11277400D02*
X12985241Y-11248829D01*
X12985241Y-11248829D02*
X12975718Y-11229781D01*
X12975718Y-11229781D02*
X12966194Y-11201210D01*
X12966194Y-11201210D02*
X12956670Y-11153591D01*
X12956670Y-11153591D02*
X12956670Y-11115496D01*
X12956670Y-11115496D02*
X12966194Y-11067877D01*
X12966194Y-11067877D02*
X12975718Y-11039305D01*
X12975718Y-11039305D02*
X12985241Y-11020258D01*
X12985241Y-11020258D02*
X13004289Y-10991686D01*
X13004289Y-10991686D02*
X13013813Y-10982162D01*
X13099527Y-11210734D02*
X13137622Y-11210734D01*
X13137622Y-11210734D02*
X13156670Y-11201210D01*
X13156670Y-11201210D02*
X13166194Y-11191686D01*
X13166194Y-11191686D02*
X13185241Y-11163115D01*
X13185241Y-11163115D02*
X13194765Y-11125020D01*
X13194765Y-11125020D02*
X13194765Y-11048829D01*
X13194765Y-11048829D02*
X13185241Y-11029781D01*
X13185241Y-11029781D02*
X13175718Y-11020258D01*
X13175718Y-11020258D02*
X13156670Y-11010734D01*
X13156670Y-11010734D02*
X13118575Y-11010734D01*
X13118575Y-11010734D02*
X13099527Y-11020258D01*
X13099527Y-11020258D02*
X13090003Y-11029781D01*
X13090003Y-11029781D02*
X13080479Y-11048829D01*
X13080479Y-11048829D02*
X13080479Y-11096448D01*
X13080479Y-11096448D02*
X13090003Y-11115496D01*
X13090003Y-11115496D02*
X13099527Y-11125020D01*
X13099527Y-11125020D02*
X13118575Y-11134543D01*
X13118575Y-11134543D02*
X13156670Y-11134543D01*
X13156670Y-11134543D02*
X13175718Y-11125020D01*
X13175718Y-11125020D02*
X13185241Y-11115496D01*
X13185241Y-11115496D02*
X13194765Y-11096448D01*
X13270956Y-11029781D02*
X13280479Y-11020258D01*
X13280479Y-11020258D02*
X13299527Y-11010734D01*
X13299527Y-11010734D02*
X13347146Y-11010734D01*
X13347146Y-11010734D02*
X13366194Y-11020258D01*
X13366194Y-11020258D02*
X13375718Y-11029781D01*
X13375718Y-11029781D02*
X13385241Y-11048829D01*
X13385241Y-11048829D02*
X13385241Y-11067877D01*
X13385241Y-11067877D02*
X13375718Y-11096448D01*
X13375718Y-11096448D02*
X13261432Y-11210734D01*
X13261432Y-11210734D02*
X13385241Y-11210734D01*
X13623337Y-11210734D02*
X13623337Y-11010734D01*
X13709051Y-11210734D02*
X13709051Y-11105972D01*
X13709051Y-11105972D02*
X13699527Y-11086924D01*
X13699527Y-11086924D02*
X13680480Y-11077400D01*
X13680480Y-11077400D02*
X13651908Y-11077400D01*
X13651908Y-11077400D02*
X13632860Y-11086924D01*
X13632860Y-11086924D02*
X13623337Y-11096448D01*
X13832860Y-11210734D02*
X13813813Y-11201210D01*
X13813813Y-11201210D02*
X13804289Y-11191686D01*
X13804289Y-11191686D02*
X13794765Y-11172639D01*
X13794765Y-11172639D02*
X13794765Y-11115496D01*
X13794765Y-11115496D02*
X13804289Y-11096448D01*
X13804289Y-11096448D02*
X13813813Y-11086924D01*
X13813813Y-11086924D02*
X13832860Y-11077400D01*
X13832860Y-11077400D02*
X13861432Y-11077400D01*
X13861432Y-11077400D02*
X13880480Y-11086924D01*
X13880480Y-11086924D02*
X13890003Y-11096448D01*
X13890003Y-11096448D02*
X13899527Y-11115496D01*
X13899527Y-11115496D02*
X13899527Y-11172639D01*
X13899527Y-11172639D02*
X13890003Y-11191686D01*
X13890003Y-11191686D02*
X13880480Y-11201210D01*
X13880480Y-11201210D02*
X13861432Y-11210734D01*
X13861432Y-11210734D02*
X13832860Y-11210734D01*
X14013813Y-11210734D02*
X13994765Y-11201210D01*
X13994765Y-11201210D02*
X13985241Y-11182162D01*
X13985241Y-11182162D02*
X13985241Y-11010734D01*
X14166194Y-11201210D02*
X14147146Y-11210734D01*
X14147146Y-11210734D02*
X14109051Y-11210734D01*
X14109051Y-11210734D02*
X14090003Y-11201210D01*
X14090003Y-11201210D02*
X14080480Y-11182162D01*
X14080480Y-11182162D02*
X14080480Y-11105972D01*
X14080480Y-11105972D02*
X14090003Y-11086924D01*
X14090003Y-11086924D02*
X14109051Y-11077400D01*
X14109051Y-11077400D02*
X14147146Y-11077400D01*
X14147146Y-11077400D02*
X14166194Y-11086924D01*
X14166194Y-11086924D02*
X14175718Y-11105972D01*
X14175718Y-11105972D02*
X14175718Y-11125020D01*
X14175718Y-11125020D02*
X14080480Y-11144067D01*
X14251908Y-11201210D02*
X14270956Y-11210734D01*
X14270956Y-11210734D02*
X14309051Y-11210734D01*
X14309051Y-11210734D02*
X14328099Y-11201210D01*
X14328099Y-11201210D02*
X14337622Y-11182162D01*
X14337622Y-11182162D02*
X14337622Y-11172639D01*
X14337622Y-11172639D02*
X14328099Y-11153591D01*
X14328099Y-11153591D02*
X14309051Y-11144067D01*
X14309051Y-11144067D02*
X14280480Y-11144067D01*
X14280480Y-11144067D02*
X14261432Y-11134543D01*
X14261432Y-11134543D02*
X14251908Y-11115496D01*
X14251908Y-11115496D02*
X14251908Y-11105972D01*
X14251908Y-11105972D02*
X14261432Y-11086924D01*
X14261432Y-11086924D02*
X14280480Y-11077400D01*
X14280480Y-11077400D02*
X14309051Y-11077400D01*
X14309051Y-11077400D02*
X14328099Y-11086924D01*
X14404289Y-11286924D02*
X14413813Y-11277400D01*
X14413813Y-11277400D02*
X14432861Y-11248829D01*
X14432861Y-11248829D02*
X14442384Y-11229781D01*
X14442384Y-11229781D02*
X14451908Y-11201210D01*
X14451908Y-11201210D02*
X14461432Y-11153591D01*
X14461432Y-11153591D02*
X14461432Y-11115496D01*
X14461432Y-11115496D02*
X14451908Y-11067877D01*
X14451908Y-11067877D02*
X14442384Y-11039305D01*
X14442384Y-11039305D02*
X14432861Y-11020258D01*
X14432861Y-11020258D02*
X14413813Y-10991686D01*
X14413813Y-10991686D02*
X14404289Y-10982162D01*
D12*
X9431428Y-11400928D02*
X9431428Y-11365572D01*
X9396072Y-11365572D01*
X9396072Y-11400928D01*
X9431428Y-11400928D01*
D10*
X9737622Y-11274734D02*
X9756670Y-11274734D01*
X9756670Y-11274734D02*
X9775717Y-11284258D01*
X9775717Y-11284258D02*
X9785241Y-11293781D01*
X9785241Y-11293781D02*
X9794765Y-11312829D01*
X9794765Y-11312829D02*
X9804289Y-11350924D01*
X9804289Y-11350924D02*
X9804289Y-11398543D01*
X9804289Y-11398543D02*
X9794765Y-11436638D01*
X9794765Y-11436638D02*
X9785241Y-11455686D01*
X9785241Y-11455686D02*
X9775717Y-11465210D01*
X9775717Y-11465210D02*
X9756670Y-11474734D01*
X9756670Y-11474734D02*
X9737622Y-11474734D01*
X9737622Y-11474734D02*
X9718574Y-11465210D01*
X9718574Y-11465210D02*
X9709051Y-11455686D01*
X9709051Y-11455686D02*
X9699527Y-11436638D01*
X9699527Y-11436638D02*
X9690003Y-11398543D01*
X9690003Y-11398543D02*
X9690003Y-11350924D01*
X9690003Y-11350924D02*
X9699527Y-11312829D01*
X9699527Y-11312829D02*
X9709051Y-11293781D01*
X9709051Y-11293781D02*
X9718574Y-11284258D01*
X9718574Y-11284258D02*
X9737622Y-11274734D01*
X9890003Y-11455686D02*
X9899527Y-11465210D01*
X9899527Y-11465210D02*
X9890003Y-11474734D01*
X9890003Y-11474734D02*
X9880479Y-11465210D01*
X9880479Y-11465210D02*
X9890003Y-11455686D01*
X9890003Y-11455686D02*
X9890003Y-11474734D01*
X10080479Y-11274734D02*
X9985241Y-11274734D01*
X9985241Y-11274734D02*
X9975717Y-11369972D01*
X9975717Y-11369972D02*
X9985241Y-11360448D01*
X9985241Y-11360448D02*
X10004289Y-11350924D01*
X10004289Y-11350924D02*
X10051908Y-11350924D01*
X10051908Y-11350924D02*
X10070955Y-11360448D01*
X10070955Y-11360448D02*
X10080479Y-11369972D01*
X10080479Y-11369972D02*
X10090003Y-11389019D01*
X10090003Y-11389019D02*
X10090003Y-11436638D01*
X10090003Y-11436638D02*
X10080479Y-11455686D01*
X10080479Y-11455686D02*
X10070955Y-11465210D01*
X10070955Y-11465210D02*
X10051908Y-11474734D01*
X10051908Y-11474734D02*
X10004289Y-11474734D01*
X10004289Y-11474734D02*
X9985241Y-11465210D01*
X9985241Y-11465210D02*
X9975717Y-11455686D01*
X10213813Y-11274734D02*
X10232860Y-11274734D01*
X10232860Y-11274734D02*
X10251908Y-11284258D01*
X10251908Y-11284258D02*
X10261432Y-11293781D01*
X10261432Y-11293781D02*
X10270955Y-11312829D01*
X10270955Y-11312829D02*
X10280479Y-11350924D01*
X10280479Y-11350924D02*
X10280479Y-11398543D01*
X10280479Y-11398543D02*
X10270955Y-11436638D01*
X10270955Y-11436638D02*
X10261432Y-11455686D01*
X10261432Y-11455686D02*
X10251908Y-11465210D01*
X10251908Y-11465210D02*
X10232860Y-11474734D01*
X10232860Y-11474734D02*
X10213813Y-11474734D01*
X10213813Y-11474734D02*
X10194765Y-11465210D01*
X10194765Y-11465210D02*
X10185241Y-11455686D01*
X10185241Y-11455686D02*
X10175717Y-11436638D01*
X10175717Y-11436638D02*
X10166194Y-11398543D01*
X10166194Y-11398543D02*
X10166194Y-11350924D01*
X10166194Y-11350924D02*
X10175717Y-11312829D01*
X10175717Y-11312829D02*
X10185241Y-11293781D01*
X10185241Y-11293781D02*
X10194765Y-11284258D01*
X10194765Y-11284258D02*
X10213813Y-11274734D01*
X10404289Y-11274734D02*
X10423336Y-11274734D01*
X10423336Y-11274734D02*
X10442384Y-11284258D01*
X10442384Y-11284258D02*
X10451908Y-11293781D01*
X10451908Y-11293781D02*
X10461432Y-11312829D01*
X10461432Y-11312829D02*
X10470955Y-11350924D01*
X10470955Y-11350924D02*
X10470955Y-11398543D01*
X10470955Y-11398543D02*
X10461432Y-11436638D01*
X10461432Y-11436638D02*
X10451908Y-11455686D01*
X10451908Y-11455686D02*
X10442384Y-11465210D01*
X10442384Y-11465210D02*
X10423336Y-11474734D01*
X10423336Y-11474734D02*
X10404289Y-11474734D01*
X10404289Y-11474734D02*
X10385241Y-11465210D01*
X10385241Y-11465210D02*
X10375717Y-11455686D01*
X10375717Y-11455686D02*
X10366194Y-11436638D01*
X10366194Y-11436638D02*
X10356670Y-11398543D01*
X10356670Y-11398543D02*
X10356670Y-11350924D01*
X10356670Y-11350924D02*
X10366194Y-11312829D01*
X10366194Y-11312829D02*
X10375717Y-11293781D01*
X10375717Y-11293781D02*
X10385241Y-11284258D01*
X10385241Y-11284258D02*
X10404289Y-11274734D01*
X10556670Y-11474734D02*
X10556670Y-11341400D01*
X10556670Y-11360448D02*
X10566194Y-11350924D01*
X10566194Y-11350924D02*
X10585241Y-11341400D01*
X10585241Y-11341400D02*
X10613813Y-11341400D01*
X10613813Y-11341400D02*
X10632860Y-11350924D01*
X10632860Y-11350924D02*
X10642384Y-11369972D01*
X10642384Y-11369972D02*
X10642384Y-11474734D01*
X10642384Y-11369972D02*
X10651908Y-11350924D01*
X10651908Y-11350924D02*
X10670955Y-11341400D01*
X10670955Y-11341400D02*
X10699527Y-11341400D01*
X10699527Y-11341400D02*
X10718575Y-11350924D01*
X10718575Y-11350924D02*
X10728098Y-11369972D01*
X10728098Y-11369972D02*
X10728098Y-11474734D01*
X10823336Y-11474734D02*
X10823336Y-11341400D01*
X10823336Y-11360448D02*
X10832860Y-11350924D01*
X10832860Y-11350924D02*
X10851908Y-11341400D01*
X10851908Y-11341400D02*
X10880479Y-11341400D01*
X10880479Y-11341400D02*
X10899527Y-11350924D01*
X10899527Y-11350924D02*
X10909051Y-11369972D01*
X10909051Y-11369972D02*
X10909051Y-11474734D01*
X10909051Y-11369972D02*
X10918575Y-11350924D01*
X10918575Y-11350924D02*
X10937622Y-11341400D01*
X10937622Y-11341400D02*
X10966194Y-11341400D01*
X10966194Y-11341400D02*
X10985241Y-11350924D01*
X10985241Y-11350924D02*
X10994765Y-11369972D01*
X10994765Y-11369972D02*
X10994765Y-11474734D01*
X11385241Y-11265210D02*
X11213813Y-11522353D01*
X11642384Y-11274734D02*
X11661432Y-11274734D01*
X11661432Y-11274734D02*
X11680479Y-11284258D01*
X11680479Y-11284258D02*
X11690003Y-11293781D01*
X11690003Y-11293781D02*
X11699527Y-11312829D01*
X11699527Y-11312829D02*
X11709051Y-11350924D01*
X11709051Y-11350924D02*
X11709051Y-11398543D01*
X11709051Y-11398543D02*
X11699527Y-11436638D01*
X11699527Y-11436638D02*
X11690003Y-11455686D01*
X11690003Y-11455686D02*
X11680479Y-11465210D01*
X11680479Y-11465210D02*
X11661432Y-11474734D01*
X11661432Y-11474734D02*
X11642384Y-11474734D01*
X11642384Y-11474734D02*
X11623336Y-11465210D01*
X11623336Y-11465210D02*
X11613813Y-11455686D01*
X11613813Y-11455686D02*
X11604289Y-11436638D01*
X11604289Y-11436638D02*
X11594765Y-11398543D01*
X11594765Y-11398543D02*
X11594765Y-11350924D01*
X11594765Y-11350924D02*
X11604289Y-11312829D01*
X11604289Y-11312829D02*
X11613813Y-11293781D01*
X11613813Y-11293781D02*
X11623336Y-11284258D01*
X11623336Y-11284258D02*
X11642384Y-11274734D01*
X11794765Y-11455686D02*
X11804289Y-11465210D01*
X11804289Y-11465210D02*
X11794765Y-11474734D01*
X11794765Y-11474734D02*
X11785241Y-11465210D01*
X11785241Y-11465210D02*
X11794765Y-11455686D01*
X11794765Y-11455686D02*
X11794765Y-11474734D01*
X11928098Y-11274734D02*
X11947146Y-11274734D01*
X11947146Y-11274734D02*
X11966194Y-11284258D01*
X11966194Y-11284258D02*
X11975717Y-11293781D01*
X11975717Y-11293781D02*
X11985241Y-11312829D01*
X11985241Y-11312829D02*
X11994765Y-11350924D01*
X11994765Y-11350924D02*
X11994765Y-11398543D01*
X11994765Y-11398543D02*
X11985241Y-11436638D01*
X11985241Y-11436638D02*
X11975717Y-11455686D01*
X11975717Y-11455686D02*
X11966194Y-11465210D01*
X11966194Y-11465210D02*
X11947146Y-11474734D01*
X11947146Y-11474734D02*
X11928098Y-11474734D01*
X11928098Y-11474734D02*
X11909051Y-11465210D01*
X11909051Y-11465210D02*
X11899527Y-11455686D01*
X11899527Y-11455686D02*
X11890003Y-11436638D01*
X11890003Y-11436638D02*
X11880479Y-11398543D01*
X11880479Y-11398543D02*
X11880479Y-11350924D01*
X11880479Y-11350924D02*
X11890003Y-11312829D01*
X11890003Y-11312829D02*
X11899527Y-11293781D01*
X11899527Y-11293781D02*
X11909051Y-11284258D01*
X11909051Y-11284258D02*
X11928098Y-11274734D01*
X12185241Y-11474734D02*
X12070956Y-11474734D01*
X12128098Y-11474734D02*
X12128098Y-11274734D01*
X12128098Y-11274734D02*
X12109051Y-11303305D01*
X12109051Y-11303305D02*
X12090003Y-11322353D01*
X12090003Y-11322353D02*
X12070956Y-11331877D01*
X12280479Y-11474734D02*
X12318575Y-11474734D01*
X12318575Y-11474734D02*
X12337622Y-11465210D01*
X12337622Y-11465210D02*
X12347146Y-11455686D01*
X12347146Y-11455686D02*
X12366194Y-11427115D01*
X12366194Y-11427115D02*
X12375717Y-11389019D01*
X12375717Y-11389019D02*
X12375717Y-11312829D01*
X12375717Y-11312829D02*
X12366194Y-11293781D01*
X12366194Y-11293781D02*
X12356670Y-11284258D01*
X12356670Y-11284258D02*
X12337622Y-11274734D01*
X12337622Y-11274734D02*
X12299527Y-11274734D01*
X12299527Y-11274734D02*
X12280479Y-11284258D01*
X12280479Y-11284258D02*
X12270956Y-11293781D01*
X12270956Y-11293781D02*
X12261432Y-11312829D01*
X12261432Y-11312829D02*
X12261432Y-11360448D01*
X12261432Y-11360448D02*
X12270956Y-11379496D01*
X12270956Y-11379496D02*
X12280479Y-11389019D01*
X12280479Y-11389019D02*
X12299527Y-11398543D01*
X12299527Y-11398543D02*
X12337622Y-11398543D01*
X12337622Y-11398543D02*
X12356670Y-11389019D01*
X12356670Y-11389019D02*
X12366194Y-11379496D01*
X12366194Y-11379496D02*
X12375717Y-11360448D01*
X12442384Y-11274734D02*
X12575717Y-11274734D01*
X12575717Y-11274734D02*
X12490003Y-11474734D01*
X12642384Y-11274734D02*
X12642384Y-11312829D01*
X12718575Y-11274734D02*
X12718575Y-11312829D01*
X13013813Y-11550924D02*
X13004289Y-11541400D01*
X13004289Y-11541400D02*
X12985241Y-11512829D01*
X12985241Y-11512829D02*
X12975718Y-11493781D01*
X12975718Y-11493781D02*
X12966194Y-11465210D01*
X12966194Y-11465210D02*
X12956670Y-11417591D01*
X12956670Y-11417591D02*
X12956670Y-11379496D01*
X12956670Y-11379496D02*
X12966194Y-11331877D01*
X12966194Y-11331877D02*
X12975718Y-11303305D01*
X12975718Y-11303305D02*
X12985241Y-11284258D01*
X12985241Y-11284258D02*
X13004289Y-11255686D01*
X13004289Y-11255686D02*
X13013813Y-11246162D01*
X13080479Y-11293781D02*
X13090003Y-11284258D01*
X13090003Y-11284258D02*
X13109051Y-11274734D01*
X13109051Y-11274734D02*
X13156670Y-11274734D01*
X13156670Y-11274734D02*
X13175718Y-11284258D01*
X13175718Y-11284258D02*
X13185241Y-11293781D01*
X13185241Y-11293781D02*
X13194765Y-11312829D01*
X13194765Y-11312829D02*
X13194765Y-11331877D01*
X13194765Y-11331877D02*
X13185241Y-11360448D01*
X13185241Y-11360448D02*
X13070956Y-11474734D01*
X13070956Y-11474734D02*
X13194765Y-11474734D01*
X13261432Y-11274734D02*
X13394765Y-11274734D01*
X13394765Y-11274734D02*
X13309051Y-11474734D01*
X13499527Y-11360448D02*
X13480479Y-11350924D01*
X13480479Y-11350924D02*
X13470956Y-11341400D01*
X13470956Y-11341400D02*
X13461432Y-11322353D01*
X13461432Y-11322353D02*
X13461432Y-11312829D01*
X13461432Y-11312829D02*
X13470956Y-11293781D01*
X13470956Y-11293781D02*
X13480479Y-11284258D01*
X13480479Y-11284258D02*
X13499527Y-11274734D01*
X13499527Y-11274734D02*
X13537622Y-11274734D01*
X13537622Y-11274734D02*
X13556670Y-11284258D01*
X13556670Y-11284258D02*
X13566194Y-11293781D01*
X13566194Y-11293781D02*
X13575718Y-11312829D01*
X13575718Y-11312829D02*
X13575718Y-11322353D01*
X13575718Y-11322353D02*
X13566194Y-11341400D01*
X13566194Y-11341400D02*
X13556670Y-11350924D01*
X13556670Y-11350924D02*
X13537622Y-11360448D01*
X13537622Y-11360448D02*
X13499527Y-11360448D01*
X13499527Y-11360448D02*
X13480479Y-11369972D01*
X13480479Y-11369972D02*
X13470956Y-11379496D01*
X13470956Y-11379496D02*
X13461432Y-11398543D01*
X13461432Y-11398543D02*
X13461432Y-11436638D01*
X13461432Y-11436638D02*
X13470956Y-11455686D01*
X13470956Y-11455686D02*
X13480479Y-11465210D01*
X13480479Y-11465210D02*
X13499527Y-11474734D01*
X13499527Y-11474734D02*
X13537622Y-11474734D01*
X13537622Y-11474734D02*
X13556670Y-11465210D01*
X13556670Y-11465210D02*
X13566194Y-11455686D01*
X13566194Y-11455686D02*
X13575718Y-11436638D01*
X13575718Y-11436638D02*
X13575718Y-11398543D01*
X13575718Y-11398543D02*
X13566194Y-11379496D01*
X13566194Y-11379496D02*
X13556670Y-11369972D01*
X13556670Y-11369972D02*
X13537622Y-11360448D01*
X13813813Y-11474734D02*
X13813813Y-11274734D01*
X13899527Y-11474734D02*
X13899527Y-11369972D01*
X13899527Y-11369972D02*
X13890003Y-11350924D01*
X13890003Y-11350924D02*
X13870956Y-11341400D01*
X13870956Y-11341400D02*
X13842384Y-11341400D01*
X13842384Y-11341400D02*
X13823337Y-11350924D01*
X13823337Y-11350924D02*
X13813813Y-11360448D01*
X14023337Y-11474734D02*
X14004289Y-11465210D01*
X14004289Y-11465210D02*
X13994765Y-11455686D01*
X13994765Y-11455686D02*
X13985241Y-11436638D01*
X13985241Y-11436638D02*
X13985241Y-11379496D01*
X13985241Y-11379496D02*
X13994765Y-11360448D01*
X13994765Y-11360448D02*
X14004289Y-11350924D01*
X14004289Y-11350924D02*
X14023337Y-11341400D01*
X14023337Y-11341400D02*
X14051908Y-11341400D01*
X14051908Y-11341400D02*
X14070956Y-11350924D01*
X14070956Y-11350924D02*
X14080480Y-11360448D01*
X14080480Y-11360448D02*
X14090003Y-11379496D01*
X14090003Y-11379496D02*
X14090003Y-11436638D01*
X14090003Y-11436638D02*
X14080480Y-11455686D01*
X14080480Y-11455686D02*
X14070956Y-11465210D01*
X14070956Y-11465210D02*
X14051908Y-11474734D01*
X14051908Y-11474734D02*
X14023337Y-11474734D01*
X14204289Y-11474734D02*
X14185241Y-11465210D01*
X14185241Y-11465210D02*
X14175718Y-11446162D01*
X14175718Y-11446162D02*
X14175718Y-11274734D01*
X14356670Y-11465210D02*
X14337622Y-11474734D01*
X14337622Y-11474734D02*
X14299527Y-11474734D01*
X14299527Y-11474734D02*
X14280480Y-11465210D01*
X14280480Y-11465210D02*
X14270956Y-11446162D01*
X14270956Y-11446162D02*
X14270956Y-11369972D01*
X14270956Y-11369972D02*
X14280480Y-11350924D01*
X14280480Y-11350924D02*
X14299527Y-11341400D01*
X14299527Y-11341400D02*
X14337622Y-11341400D01*
X14337622Y-11341400D02*
X14356670Y-11350924D01*
X14356670Y-11350924D02*
X14366194Y-11369972D01*
X14366194Y-11369972D02*
X14366194Y-11389019D01*
X14366194Y-11389019D02*
X14270956Y-11408067D01*
X14442384Y-11465210D02*
X14461432Y-11474734D01*
X14461432Y-11474734D02*
X14499527Y-11474734D01*
X14499527Y-11474734D02*
X14518575Y-11465210D01*
X14518575Y-11465210D02*
X14528099Y-11446162D01*
X14528099Y-11446162D02*
X14528099Y-11436638D01*
X14528099Y-11436638D02*
X14518575Y-11417591D01*
X14518575Y-11417591D02*
X14499527Y-11408067D01*
X14499527Y-11408067D02*
X14470956Y-11408067D01*
X14470956Y-11408067D02*
X14451908Y-11398543D01*
X14451908Y-11398543D02*
X14442384Y-11379496D01*
X14442384Y-11379496D02*
X14442384Y-11369972D01*
X14442384Y-11369972D02*
X14451908Y-11350924D01*
X14451908Y-11350924D02*
X14470956Y-11341400D01*
X14470956Y-11341400D02*
X14499527Y-11341400D01*
X14499527Y-11341400D02*
X14518575Y-11350924D01*
X14594765Y-11550924D02*
X14604289Y-11541400D01*
X14604289Y-11541400D02*
X14623337Y-11512829D01*
X14623337Y-11512829D02*
X14632861Y-11493781D01*
X14632861Y-11493781D02*
X14642384Y-11465210D01*
X14642384Y-11465210D02*
X14651908Y-11417591D01*
X14651908Y-11417591D02*
X14651908Y-11379496D01*
X14651908Y-11379496D02*
X14642384Y-11331877D01*
X14642384Y-11331877D02*
X14632861Y-11303305D01*
X14632861Y-11303305D02*
X14623337Y-11284258D01*
X14623337Y-11284258D02*
X14604289Y-11255686D01*
X14604289Y-11255686D02*
X14594765Y-11246162D01*
D12*
X9413749Y-11672251D02*
X9438750Y-11647250D01*
X9413749Y-11622249D01*
X9388748Y-11647250D01*
X9413749Y-11672251D01*
D10*
X9737622Y-11538734D02*
X9756670Y-11538734D01*
X9756670Y-11538734D02*
X9775717Y-11548258D01*
X9775717Y-11548258D02*
X9785241Y-11557781D01*
X9785241Y-11557781D02*
X9794765Y-11576829D01*
X9794765Y-11576829D02*
X9804289Y-11614924D01*
X9804289Y-11614924D02*
X9804289Y-11662543D01*
X9804289Y-11662543D02*
X9794765Y-11700638D01*
X9794765Y-11700638D02*
X9785241Y-11719686D01*
X9785241Y-11719686D02*
X9775717Y-11729210D01*
X9775717Y-11729210D02*
X9756670Y-11738734D01*
X9756670Y-11738734D02*
X9737622Y-11738734D01*
X9737622Y-11738734D02*
X9718574Y-11729210D01*
X9718574Y-11729210D02*
X9709051Y-11719686D01*
X9709051Y-11719686D02*
X9699527Y-11700638D01*
X9699527Y-11700638D02*
X9690003Y-11662543D01*
X9690003Y-11662543D02*
X9690003Y-11614924D01*
X9690003Y-11614924D02*
X9699527Y-11576829D01*
X9699527Y-11576829D02*
X9709051Y-11557781D01*
X9709051Y-11557781D02*
X9718574Y-11548258D01*
X9718574Y-11548258D02*
X9737622Y-11538734D01*
X9890003Y-11719686D02*
X9899527Y-11729210D01*
X9899527Y-11729210D02*
X9890003Y-11738734D01*
X9890003Y-11738734D02*
X9880479Y-11729210D01*
X9880479Y-11729210D02*
X9890003Y-11719686D01*
X9890003Y-11719686D02*
X9890003Y-11738734D01*
X10080479Y-11538734D02*
X9985241Y-11538734D01*
X9985241Y-11538734D02*
X9975717Y-11633972D01*
X9975717Y-11633972D02*
X9985241Y-11624448D01*
X9985241Y-11624448D02*
X10004289Y-11614924D01*
X10004289Y-11614924D02*
X10051908Y-11614924D01*
X10051908Y-11614924D02*
X10070955Y-11624448D01*
X10070955Y-11624448D02*
X10080479Y-11633972D01*
X10080479Y-11633972D02*
X10090003Y-11653019D01*
X10090003Y-11653019D02*
X10090003Y-11700638D01*
X10090003Y-11700638D02*
X10080479Y-11719686D01*
X10080479Y-11719686D02*
X10070955Y-11729210D01*
X10070955Y-11729210D02*
X10051908Y-11738734D01*
X10051908Y-11738734D02*
X10004289Y-11738734D01*
X10004289Y-11738734D02*
X9985241Y-11729210D01*
X9985241Y-11729210D02*
X9975717Y-11719686D01*
X10213813Y-11538734D02*
X10232860Y-11538734D01*
X10232860Y-11538734D02*
X10251908Y-11548258D01*
X10251908Y-11548258D02*
X10261432Y-11557781D01*
X10261432Y-11557781D02*
X10270955Y-11576829D01*
X10270955Y-11576829D02*
X10280479Y-11614924D01*
X10280479Y-11614924D02*
X10280479Y-11662543D01*
X10280479Y-11662543D02*
X10270955Y-11700638D01*
X10270955Y-11700638D02*
X10261432Y-11719686D01*
X10261432Y-11719686D02*
X10251908Y-11729210D01*
X10251908Y-11729210D02*
X10232860Y-11738734D01*
X10232860Y-11738734D02*
X10213813Y-11738734D01*
X10213813Y-11738734D02*
X10194765Y-11729210D01*
X10194765Y-11729210D02*
X10185241Y-11719686D01*
X10185241Y-11719686D02*
X10175717Y-11700638D01*
X10175717Y-11700638D02*
X10166194Y-11662543D01*
X10166194Y-11662543D02*
X10166194Y-11614924D01*
X10166194Y-11614924D02*
X10175717Y-11576829D01*
X10175717Y-11576829D02*
X10185241Y-11557781D01*
X10185241Y-11557781D02*
X10194765Y-11548258D01*
X10194765Y-11548258D02*
X10213813Y-11538734D01*
X10404289Y-11538734D02*
X10423336Y-11538734D01*
X10423336Y-11538734D02*
X10442384Y-11548258D01*
X10442384Y-11548258D02*
X10451908Y-11557781D01*
X10451908Y-11557781D02*
X10461432Y-11576829D01*
X10461432Y-11576829D02*
X10470955Y-11614924D01*
X10470955Y-11614924D02*
X10470955Y-11662543D01*
X10470955Y-11662543D02*
X10461432Y-11700638D01*
X10461432Y-11700638D02*
X10451908Y-11719686D01*
X10451908Y-11719686D02*
X10442384Y-11729210D01*
X10442384Y-11729210D02*
X10423336Y-11738734D01*
X10423336Y-11738734D02*
X10404289Y-11738734D01*
X10404289Y-11738734D02*
X10385241Y-11729210D01*
X10385241Y-11729210D02*
X10375717Y-11719686D01*
X10375717Y-11719686D02*
X10366194Y-11700638D01*
X10366194Y-11700638D02*
X10356670Y-11662543D01*
X10356670Y-11662543D02*
X10356670Y-11614924D01*
X10356670Y-11614924D02*
X10366194Y-11576829D01*
X10366194Y-11576829D02*
X10375717Y-11557781D01*
X10375717Y-11557781D02*
X10385241Y-11548258D01*
X10385241Y-11548258D02*
X10404289Y-11538734D01*
X10556670Y-11738734D02*
X10556670Y-11605400D01*
X10556670Y-11624448D02*
X10566194Y-11614924D01*
X10566194Y-11614924D02*
X10585241Y-11605400D01*
X10585241Y-11605400D02*
X10613813Y-11605400D01*
X10613813Y-11605400D02*
X10632860Y-11614924D01*
X10632860Y-11614924D02*
X10642384Y-11633972D01*
X10642384Y-11633972D02*
X10642384Y-11738734D01*
X10642384Y-11633972D02*
X10651908Y-11614924D01*
X10651908Y-11614924D02*
X10670955Y-11605400D01*
X10670955Y-11605400D02*
X10699527Y-11605400D01*
X10699527Y-11605400D02*
X10718575Y-11614924D01*
X10718575Y-11614924D02*
X10728098Y-11633972D01*
X10728098Y-11633972D02*
X10728098Y-11738734D01*
X10823336Y-11738734D02*
X10823336Y-11605400D01*
X10823336Y-11624448D02*
X10832860Y-11614924D01*
X10832860Y-11614924D02*
X10851908Y-11605400D01*
X10851908Y-11605400D02*
X10880479Y-11605400D01*
X10880479Y-11605400D02*
X10899527Y-11614924D01*
X10899527Y-11614924D02*
X10909051Y-11633972D01*
X10909051Y-11633972D02*
X10909051Y-11738734D01*
X10909051Y-11633972D02*
X10918575Y-11614924D01*
X10918575Y-11614924D02*
X10937622Y-11605400D01*
X10937622Y-11605400D02*
X10966194Y-11605400D01*
X10966194Y-11605400D02*
X10985241Y-11614924D01*
X10985241Y-11614924D02*
X10994765Y-11633972D01*
X10994765Y-11633972D02*
X10994765Y-11738734D01*
X11385241Y-11529210D02*
X11213813Y-11786353D01*
X11642384Y-11538734D02*
X11661432Y-11538734D01*
X11661432Y-11538734D02*
X11680479Y-11548258D01*
X11680479Y-11548258D02*
X11690003Y-11557781D01*
X11690003Y-11557781D02*
X11699527Y-11576829D01*
X11699527Y-11576829D02*
X11709051Y-11614924D01*
X11709051Y-11614924D02*
X11709051Y-11662543D01*
X11709051Y-11662543D02*
X11699527Y-11700638D01*
X11699527Y-11700638D02*
X11690003Y-11719686D01*
X11690003Y-11719686D02*
X11680479Y-11729210D01*
X11680479Y-11729210D02*
X11661432Y-11738734D01*
X11661432Y-11738734D02*
X11642384Y-11738734D01*
X11642384Y-11738734D02*
X11623336Y-11729210D01*
X11623336Y-11729210D02*
X11613813Y-11719686D01*
X11613813Y-11719686D02*
X11604289Y-11700638D01*
X11604289Y-11700638D02*
X11594765Y-11662543D01*
X11594765Y-11662543D02*
X11594765Y-11614924D01*
X11594765Y-11614924D02*
X11604289Y-11576829D01*
X11604289Y-11576829D02*
X11613813Y-11557781D01*
X11613813Y-11557781D02*
X11623336Y-11548258D01*
X11623336Y-11548258D02*
X11642384Y-11538734D01*
X11794765Y-11719686D02*
X11804289Y-11729210D01*
X11804289Y-11729210D02*
X11794765Y-11738734D01*
X11794765Y-11738734D02*
X11785241Y-11729210D01*
X11785241Y-11729210D02*
X11794765Y-11719686D01*
X11794765Y-11719686D02*
X11794765Y-11738734D01*
X11928098Y-11538734D02*
X11947146Y-11538734D01*
X11947146Y-11538734D02*
X11966194Y-11548258D01*
X11966194Y-11548258D02*
X11975717Y-11557781D01*
X11975717Y-11557781D02*
X11985241Y-11576829D01*
X11985241Y-11576829D02*
X11994765Y-11614924D01*
X11994765Y-11614924D02*
X11994765Y-11662543D01*
X11994765Y-11662543D02*
X11985241Y-11700638D01*
X11985241Y-11700638D02*
X11975717Y-11719686D01*
X11975717Y-11719686D02*
X11966194Y-11729210D01*
X11966194Y-11729210D02*
X11947146Y-11738734D01*
X11947146Y-11738734D02*
X11928098Y-11738734D01*
X11928098Y-11738734D02*
X11909051Y-11729210D01*
X11909051Y-11729210D02*
X11899527Y-11719686D01*
X11899527Y-11719686D02*
X11890003Y-11700638D01*
X11890003Y-11700638D02*
X11880479Y-11662543D01*
X11880479Y-11662543D02*
X11880479Y-11614924D01*
X11880479Y-11614924D02*
X11890003Y-11576829D01*
X11890003Y-11576829D02*
X11899527Y-11557781D01*
X11899527Y-11557781D02*
X11909051Y-11548258D01*
X11909051Y-11548258D02*
X11928098Y-11538734D01*
X12185241Y-11738734D02*
X12070956Y-11738734D01*
X12128098Y-11738734D02*
X12128098Y-11538734D01*
X12128098Y-11538734D02*
X12109051Y-11567305D01*
X12109051Y-11567305D02*
X12090003Y-11586353D01*
X12090003Y-11586353D02*
X12070956Y-11595877D01*
X12280479Y-11738734D02*
X12318575Y-11738734D01*
X12318575Y-11738734D02*
X12337622Y-11729210D01*
X12337622Y-11729210D02*
X12347146Y-11719686D01*
X12347146Y-11719686D02*
X12366194Y-11691115D01*
X12366194Y-11691115D02*
X12375717Y-11653019D01*
X12375717Y-11653019D02*
X12375717Y-11576829D01*
X12375717Y-11576829D02*
X12366194Y-11557781D01*
X12366194Y-11557781D02*
X12356670Y-11548258D01*
X12356670Y-11548258D02*
X12337622Y-11538734D01*
X12337622Y-11538734D02*
X12299527Y-11538734D01*
X12299527Y-11538734D02*
X12280479Y-11548258D01*
X12280479Y-11548258D02*
X12270956Y-11557781D01*
X12270956Y-11557781D02*
X12261432Y-11576829D01*
X12261432Y-11576829D02*
X12261432Y-11624448D01*
X12261432Y-11624448D02*
X12270956Y-11643496D01*
X12270956Y-11643496D02*
X12280479Y-11653019D01*
X12280479Y-11653019D02*
X12299527Y-11662543D01*
X12299527Y-11662543D02*
X12337622Y-11662543D01*
X12337622Y-11662543D02*
X12356670Y-11653019D01*
X12356670Y-11653019D02*
X12366194Y-11643496D01*
X12366194Y-11643496D02*
X12375717Y-11624448D01*
X12442384Y-11538734D02*
X12575717Y-11538734D01*
X12575717Y-11538734D02*
X12490003Y-11738734D01*
X12642384Y-11538734D02*
X12642384Y-11576829D01*
X12718575Y-11538734D02*
X12718575Y-11576829D01*
X13013813Y-11814924D02*
X13004289Y-11805400D01*
X13004289Y-11805400D02*
X12985241Y-11776829D01*
X12985241Y-11776829D02*
X12975718Y-11757781D01*
X12975718Y-11757781D02*
X12966194Y-11729210D01*
X12966194Y-11729210D02*
X12956670Y-11681591D01*
X12956670Y-11681591D02*
X12956670Y-11643496D01*
X12956670Y-11643496D02*
X12966194Y-11595877D01*
X12966194Y-11595877D02*
X12975718Y-11567305D01*
X12975718Y-11567305D02*
X12985241Y-11548258D01*
X12985241Y-11548258D02*
X13004289Y-11519686D01*
X13004289Y-11519686D02*
X13013813Y-11510162D01*
X13128098Y-11538734D02*
X13147146Y-11538734D01*
X13147146Y-11538734D02*
X13166194Y-11548258D01*
X13166194Y-11548258D02*
X13175718Y-11557781D01*
X13175718Y-11557781D02*
X13185241Y-11576829D01*
X13185241Y-11576829D02*
X13194765Y-11614924D01*
X13194765Y-11614924D02*
X13194765Y-11662543D01*
X13194765Y-11662543D02*
X13185241Y-11700638D01*
X13185241Y-11700638D02*
X13175718Y-11719686D01*
X13175718Y-11719686D02*
X13166194Y-11729210D01*
X13166194Y-11729210D02*
X13147146Y-11738734D01*
X13147146Y-11738734D02*
X13128098Y-11738734D01*
X13128098Y-11738734D02*
X13109051Y-11729210D01*
X13109051Y-11729210D02*
X13099527Y-11719686D01*
X13099527Y-11719686D02*
X13090003Y-11700638D01*
X13090003Y-11700638D02*
X13080479Y-11662543D01*
X13080479Y-11662543D02*
X13080479Y-11614924D01*
X13080479Y-11614924D02*
X13090003Y-11576829D01*
X13090003Y-11576829D02*
X13099527Y-11557781D01*
X13099527Y-11557781D02*
X13109051Y-11548258D01*
X13109051Y-11548258D02*
X13128098Y-11538734D01*
X13432860Y-11738734D02*
X13432860Y-11538734D01*
X13518575Y-11738734D02*
X13518575Y-11633972D01*
X13518575Y-11633972D02*
X13509051Y-11614924D01*
X13509051Y-11614924D02*
X13490003Y-11605400D01*
X13490003Y-11605400D02*
X13461432Y-11605400D01*
X13461432Y-11605400D02*
X13442384Y-11614924D01*
X13442384Y-11614924D02*
X13432860Y-11624448D01*
X13642384Y-11738734D02*
X13623337Y-11729210D01*
X13623337Y-11729210D02*
X13613813Y-11719686D01*
X13613813Y-11719686D02*
X13604289Y-11700638D01*
X13604289Y-11700638D02*
X13604289Y-11643496D01*
X13604289Y-11643496D02*
X13613813Y-11624448D01*
X13613813Y-11624448D02*
X13623337Y-11614924D01*
X13623337Y-11614924D02*
X13642384Y-11605400D01*
X13642384Y-11605400D02*
X13670956Y-11605400D01*
X13670956Y-11605400D02*
X13690003Y-11614924D01*
X13690003Y-11614924D02*
X13699527Y-11624448D01*
X13699527Y-11624448D02*
X13709051Y-11643496D01*
X13709051Y-11643496D02*
X13709051Y-11700638D01*
X13709051Y-11700638D02*
X13699527Y-11719686D01*
X13699527Y-11719686D02*
X13690003Y-11729210D01*
X13690003Y-11729210D02*
X13670956Y-11738734D01*
X13670956Y-11738734D02*
X13642384Y-11738734D01*
X13823337Y-11738734D02*
X13804289Y-11729210D01*
X13804289Y-11729210D02*
X13794765Y-11710162D01*
X13794765Y-11710162D02*
X13794765Y-11538734D01*
X13975718Y-11729210D02*
X13956670Y-11738734D01*
X13956670Y-11738734D02*
X13918575Y-11738734D01*
X13918575Y-11738734D02*
X13899527Y-11729210D01*
X13899527Y-11729210D02*
X13890003Y-11710162D01*
X13890003Y-11710162D02*
X13890003Y-11633972D01*
X13890003Y-11633972D02*
X13899527Y-11614924D01*
X13899527Y-11614924D02*
X13918575Y-11605400D01*
X13918575Y-11605400D02*
X13956670Y-11605400D01*
X13956670Y-11605400D02*
X13975718Y-11614924D01*
X13975718Y-11614924D02*
X13985241Y-11633972D01*
X13985241Y-11633972D02*
X13985241Y-11653019D01*
X13985241Y-11653019D02*
X13890003Y-11672067D01*
X14061432Y-11729210D02*
X14080480Y-11738734D01*
X14080480Y-11738734D02*
X14118575Y-11738734D01*
X14118575Y-11738734D02*
X14137622Y-11729210D01*
X14137622Y-11729210D02*
X14147146Y-11710162D01*
X14147146Y-11710162D02*
X14147146Y-11700638D01*
X14147146Y-11700638D02*
X14137622Y-11681591D01*
X14137622Y-11681591D02*
X14118575Y-11672067D01*
X14118575Y-11672067D02*
X14090003Y-11672067D01*
X14090003Y-11672067D02*
X14070956Y-11662543D01*
X14070956Y-11662543D02*
X14061432Y-11643496D01*
X14061432Y-11643496D02*
X14061432Y-11633972D01*
X14061432Y-11633972D02*
X14070956Y-11614924D01*
X14070956Y-11614924D02*
X14090003Y-11605400D01*
X14090003Y-11605400D02*
X14118575Y-11605400D01*
X14118575Y-11605400D02*
X14137622Y-11614924D01*
X14385242Y-11662543D02*
X14537623Y-11662543D01*
X14461432Y-11738734D02*
X14461432Y-11586353D01*
X14870956Y-11605400D02*
X14870956Y-11738734D01*
X14823337Y-11529210D02*
X14775718Y-11672067D01*
X14775718Y-11672067D02*
X14899527Y-11672067D01*
X15118575Y-11729210D02*
X15137623Y-11738734D01*
X15137623Y-11738734D02*
X15175718Y-11738734D01*
X15175718Y-11738734D02*
X15194765Y-11729210D01*
X15194765Y-11729210D02*
X15204289Y-11710162D01*
X15204289Y-11710162D02*
X15204289Y-11700638D01*
X15204289Y-11700638D02*
X15194765Y-11681591D01*
X15194765Y-11681591D02*
X15175718Y-11672067D01*
X15175718Y-11672067D02*
X15147146Y-11672067D01*
X15147146Y-11672067D02*
X15128099Y-11662543D01*
X15128099Y-11662543D02*
X15118575Y-11643496D01*
X15118575Y-11643496D02*
X15118575Y-11633972D01*
X15118575Y-11633972D02*
X15128099Y-11614924D01*
X15128099Y-11614924D02*
X15147146Y-11605400D01*
X15147146Y-11605400D02*
X15175718Y-11605400D01*
X15175718Y-11605400D02*
X15194765Y-11614924D01*
X15318575Y-11738734D02*
X15299527Y-11729210D01*
X15299527Y-11729210D02*
X15290004Y-11710162D01*
X15290004Y-11710162D02*
X15290004Y-11538734D01*
X15423337Y-11738734D02*
X15404289Y-11729210D01*
X15404289Y-11729210D02*
X15394765Y-11719686D01*
X15394765Y-11719686D02*
X15385242Y-11700638D01*
X15385242Y-11700638D02*
X15385242Y-11643496D01*
X15385242Y-11643496D02*
X15394765Y-11624448D01*
X15394765Y-11624448D02*
X15404289Y-11614924D01*
X15404289Y-11614924D02*
X15423337Y-11605400D01*
X15423337Y-11605400D02*
X15451908Y-11605400D01*
X15451908Y-11605400D02*
X15470956Y-11614924D01*
X15470956Y-11614924D02*
X15480480Y-11624448D01*
X15480480Y-11624448D02*
X15490004Y-11643496D01*
X15490004Y-11643496D02*
X15490004Y-11700638D01*
X15490004Y-11700638D02*
X15480480Y-11719686D01*
X15480480Y-11719686D02*
X15470956Y-11729210D01*
X15470956Y-11729210D02*
X15451908Y-11738734D01*
X15451908Y-11738734D02*
X15423337Y-11738734D01*
X15547146Y-11605400D02*
X15623337Y-11605400D01*
X15575718Y-11538734D02*
X15575718Y-11710162D01*
X15575718Y-11710162D02*
X15585242Y-11729210D01*
X15585242Y-11729210D02*
X15604289Y-11738734D01*
X15604289Y-11738734D02*
X15623337Y-11738734D01*
X15680480Y-11729210D02*
X15699527Y-11738734D01*
X15699527Y-11738734D02*
X15737623Y-11738734D01*
X15737623Y-11738734D02*
X15756670Y-11729210D01*
X15756670Y-11729210D02*
X15766194Y-11710162D01*
X15766194Y-11710162D02*
X15766194Y-11700638D01*
X15766194Y-11700638D02*
X15756670Y-11681591D01*
X15756670Y-11681591D02*
X15737623Y-11672067D01*
X15737623Y-11672067D02*
X15709051Y-11672067D01*
X15709051Y-11672067D02*
X15690004Y-11662543D01*
X15690004Y-11662543D02*
X15680480Y-11643496D01*
X15680480Y-11643496D02*
X15680480Y-11633972D01*
X15680480Y-11633972D02*
X15690004Y-11614924D01*
X15690004Y-11614924D02*
X15709051Y-11605400D01*
X15709051Y-11605400D02*
X15737623Y-11605400D01*
X15737623Y-11605400D02*
X15756670Y-11614924D01*
X15832861Y-11814924D02*
X15842385Y-11805400D01*
X15842385Y-11805400D02*
X15861432Y-11776829D01*
X15861432Y-11776829D02*
X15870956Y-11757781D01*
X15870956Y-11757781D02*
X15880480Y-11729210D01*
X15880480Y-11729210D02*
X15890004Y-11681591D01*
X15890004Y-11681591D02*
X15890004Y-11643496D01*
X15890004Y-11643496D02*
X15880480Y-11595877D01*
X15880480Y-11595877D02*
X15870956Y-11567305D01*
X15870956Y-11567305D02*
X15861432Y-11548258D01*
X15861432Y-11548258D02*
X15842385Y-11519686D01*
X15842385Y-11519686D02*
X15832861Y-11510162D01*
D12*
X9338750Y-11861250D02*
X9438750Y-11961250D01*
X9438750Y-11861250D02*
X9338750Y-11961250D01*
X9438750Y-11911250D02*
G75*
G02*
X9338750Y-11911250I-50000J0D01*
G01*
X9338750Y-11911250D02*
G75*
G02*
X9438750Y-11911250I50000J0D01*
G01*
D10*
X9804289Y-12002734D02*
X9690003Y-12002734D01*
X9747146Y-12002734D02*
X9747146Y-11802734D01*
X9747146Y-11802734D02*
X9728098Y-11831305D01*
X9728098Y-11831305D02*
X9709051Y-11850353D01*
X9709051Y-11850353D02*
X9690003Y-11859877D01*
X9890003Y-11983686D02*
X9899527Y-11993210D01*
X9899527Y-11993210D02*
X9890003Y-12002734D01*
X9890003Y-12002734D02*
X9880479Y-11993210D01*
X9880479Y-11993210D02*
X9890003Y-11983686D01*
X9890003Y-11983686D02*
X9890003Y-12002734D01*
X10023336Y-11802734D02*
X10042384Y-11802734D01*
X10042384Y-11802734D02*
X10061432Y-11812258D01*
X10061432Y-11812258D02*
X10070955Y-11821781D01*
X10070955Y-11821781D02*
X10080479Y-11840829D01*
X10080479Y-11840829D02*
X10090003Y-11878924D01*
X10090003Y-11878924D02*
X10090003Y-11926543D01*
X10090003Y-11926543D02*
X10080479Y-11964638D01*
X10080479Y-11964638D02*
X10070955Y-11983686D01*
X10070955Y-11983686D02*
X10061432Y-11993210D01*
X10061432Y-11993210D02*
X10042384Y-12002734D01*
X10042384Y-12002734D02*
X10023336Y-12002734D01*
X10023336Y-12002734D02*
X10004289Y-11993210D01*
X10004289Y-11993210D02*
X9994765Y-11983686D01*
X9994765Y-11983686D02*
X9985241Y-11964638D01*
X9985241Y-11964638D02*
X9975717Y-11926543D01*
X9975717Y-11926543D02*
X9975717Y-11878924D01*
X9975717Y-11878924D02*
X9985241Y-11840829D01*
X9985241Y-11840829D02*
X9994765Y-11821781D01*
X9994765Y-11821781D02*
X10004289Y-11812258D01*
X10004289Y-11812258D02*
X10023336Y-11802734D01*
X10213813Y-11802734D02*
X10232860Y-11802734D01*
X10232860Y-11802734D02*
X10251908Y-11812258D01*
X10251908Y-11812258D02*
X10261432Y-11821781D01*
X10261432Y-11821781D02*
X10270955Y-11840829D01*
X10270955Y-11840829D02*
X10280479Y-11878924D01*
X10280479Y-11878924D02*
X10280479Y-11926543D01*
X10280479Y-11926543D02*
X10270955Y-11964638D01*
X10270955Y-11964638D02*
X10261432Y-11983686D01*
X10261432Y-11983686D02*
X10251908Y-11993210D01*
X10251908Y-11993210D02*
X10232860Y-12002734D01*
X10232860Y-12002734D02*
X10213813Y-12002734D01*
X10213813Y-12002734D02*
X10194765Y-11993210D01*
X10194765Y-11993210D02*
X10185241Y-11983686D01*
X10185241Y-11983686D02*
X10175717Y-11964638D01*
X10175717Y-11964638D02*
X10166194Y-11926543D01*
X10166194Y-11926543D02*
X10166194Y-11878924D01*
X10166194Y-11878924D02*
X10175717Y-11840829D01*
X10175717Y-11840829D02*
X10185241Y-11821781D01*
X10185241Y-11821781D02*
X10194765Y-11812258D01*
X10194765Y-11812258D02*
X10213813Y-11802734D01*
X10404289Y-11802734D02*
X10423336Y-11802734D01*
X10423336Y-11802734D02*
X10442384Y-11812258D01*
X10442384Y-11812258D02*
X10451908Y-11821781D01*
X10451908Y-11821781D02*
X10461432Y-11840829D01*
X10461432Y-11840829D02*
X10470955Y-11878924D01*
X10470955Y-11878924D02*
X10470955Y-11926543D01*
X10470955Y-11926543D02*
X10461432Y-11964638D01*
X10461432Y-11964638D02*
X10451908Y-11983686D01*
X10451908Y-11983686D02*
X10442384Y-11993210D01*
X10442384Y-11993210D02*
X10423336Y-12002734D01*
X10423336Y-12002734D02*
X10404289Y-12002734D01*
X10404289Y-12002734D02*
X10385241Y-11993210D01*
X10385241Y-11993210D02*
X10375717Y-11983686D01*
X10375717Y-11983686D02*
X10366194Y-11964638D01*
X10366194Y-11964638D02*
X10356670Y-11926543D01*
X10356670Y-11926543D02*
X10356670Y-11878924D01*
X10356670Y-11878924D02*
X10366194Y-11840829D01*
X10366194Y-11840829D02*
X10375717Y-11821781D01*
X10375717Y-11821781D02*
X10385241Y-11812258D01*
X10385241Y-11812258D02*
X10404289Y-11802734D01*
X10556670Y-12002734D02*
X10556670Y-11869400D01*
X10556670Y-11888448D02*
X10566194Y-11878924D01*
X10566194Y-11878924D02*
X10585241Y-11869400D01*
X10585241Y-11869400D02*
X10613813Y-11869400D01*
X10613813Y-11869400D02*
X10632860Y-11878924D01*
X10632860Y-11878924D02*
X10642384Y-11897972D01*
X10642384Y-11897972D02*
X10642384Y-12002734D01*
X10642384Y-11897972D02*
X10651908Y-11878924D01*
X10651908Y-11878924D02*
X10670955Y-11869400D01*
X10670955Y-11869400D02*
X10699527Y-11869400D01*
X10699527Y-11869400D02*
X10718575Y-11878924D01*
X10718575Y-11878924D02*
X10728098Y-11897972D01*
X10728098Y-11897972D02*
X10728098Y-12002734D01*
X10823336Y-12002734D02*
X10823336Y-11869400D01*
X10823336Y-11888448D02*
X10832860Y-11878924D01*
X10832860Y-11878924D02*
X10851908Y-11869400D01*
X10851908Y-11869400D02*
X10880479Y-11869400D01*
X10880479Y-11869400D02*
X10899527Y-11878924D01*
X10899527Y-11878924D02*
X10909051Y-11897972D01*
X10909051Y-11897972D02*
X10909051Y-12002734D01*
X10909051Y-11897972D02*
X10918575Y-11878924D01*
X10918575Y-11878924D02*
X10937622Y-11869400D01*
X10937622Y-11869400D02*
X10966194Y-11869400D01*
X10966194Y-11869400D02*
X10985241Y-11878924D01*
X10985241Y-11878924D02*
X10994765Y-11897972D01*
X10994765Y-11897972D02*
X10994765Y-12002734D01*
X11385241Y-11793210D02*
X11213813Y-12050353D01*
X11642384Y-11802734D02*
X11661432Y-11802734D01*
X11661432Y-11802734D02*
X11680479Y-11812258D01*
X11680479Y-11812258D02*
X11690003Y-11821781D01*
X11690003Y-11821781D02*
X11699527Y-11840829D01*
X11699527Y-11840829D02*
X11709051Y-11878924D01*
X11709051Y-11878924D02*
X11709051Y-11926543D01*
X11709051Y-11926543D02*
X11699527Y-11964638D01*
X11699527Y-11964638D02*
X11690003Y-11983686D01*
X11690003Y-11983686D02*
X11680479Y-11993210D01*
X11680479Y-11993210D02*
X11661432Y-12002734D01*
X11661432Y-12002734D02*
X11642384Y-12002734D01*
X11642384Y-12002734D02*
X11623336Y-11993210D01*
X11623336Y-11993210D02*
X11613813Y-11983686D01*
X11613813Y-11983686D02*
X11604289Y-11964638D01*
X11604289Y-11964638D02*
X11594765Y-11926543D01*
X11594765Y-11926543D02*
X11594765Y-11878924D01*
X11594765Y-11878924D02*
X11604289Y-11840829D01*
X11604289Y-11840829D02*
X11613813Y-11821781D01*
X11613813Y-11821781D02*
X11623336Y-11812258D01*
X11623336Y-11812258D02*
X11642384Y-11802734D01*
X11794765Y-11983686D02*
X11804289Y-11993210D01*
X11804289Y-11993210D02*
X11794765Y-12002734D01*
X11794765Y-12002734D02*
X11785241Y-11993210D01*
X11785241Y-11993210D02*
X11794765Y-11983686D01*
X11794765Y-11983686D02*
X11794765Y-12002734D01*
X11928098Y-11802734D02*
X11947146Y-11802734D01*
X11947146Y-11802734D02*
X11966194Y-11812258D01*
X11966194Y-11812258D02*
X11975717Y-11821781D01*
X11975717Y-11821781D02*
X11985241Y-11840829D01*
X11985241Y-11840829D02*
X11994765Y-11878924D01*
X11994765Y-11878924D02*
X11994765Y-11926543D01*
X11994765Y-11926543D02*
X11985241Y-11964638D01*
X11985241Y-11964638D02*
X11975717Y-11983686D01*
X11975717Y-11983686D02*
X11966194Y-11993210D01*
X11966194Y-11993210D02*
X11947146Y-12002734D01*
X11947146Y-12002734D02*
X11928098Y-12002734D01*
X11928098Y-12002734D02*
X11909051Y-11993210D01*
X11909051Y-11993210D02*
X11899527Y-11983686D01*
X11899527Y-11983686D02*
X11890003Y-11964638D01*
X11890003Y-11964638D02*
X11880479Y-11926543D01*
X11880479Y-11926543D02*
X11880479Y-11878924D01*
X11880479Y-11878924D02*
X11890003Y-11840829D01*
X11890003Y-11840829D02*
X11899527Y-11821781D01*
X11899527Y-11821781D02*
X11909051Y-11812258D01*
X11909051Y-11812258D02*
X11928098Y-11802734D01*
X12061432Y-11802734D02*
X12185241Y-11802734D01*
X12185241Y-11802734D02*
X12118575Y-11878924D01*
X12118575Y-11878924D02*
X12147146Y-11878924D01*
X12147146Y-11878924D02*
X12166194Y-11888448D01*
X12166194Y-11888448D02*
X12175717Y-11897972D01*
X12175717Y-11897972D02*
X12185241Y-11917019D01*
X12185241Y-11917019D02*
X12185241Y-11964638D01*
X12185241Y-11964638D02*
X12175717Y-11983686D01*
X12175717Y-11983686D02*
X12166194Y-11993210D01*
X12166194Y-11993210D02*
X12147146Y-12002734D01*
X12147146Y-12002734D02*
X12090003Y-12002734D01*
X12090003Y-12002734D02*
X12070956Y-11993210D01*
X12070956Y-11993210D02*
X12061432Y-11983686D01*
X12280479Y-12002734D02*
X12318575Y-12002734D01*
X12318575Y-12002734D02*
X12337622Y-11993210D01*
X12337622Y-11993210D02*
X12347146Y-11983686D01*
X12347146Y-11983686D02*
X12366194Y-11955115D01*
X12366194Y-11955115D02*
X12375717Y-11917019D01*
X12375717Y-11917019D02*
X12375717Y-11840829D01*
X12375717Y-11840829D02*
X12366194Y-11821781D01*
X12366194Y-11821781D02*
X12356670Y-11812258D01*
X12356670Y-11812258D02*
X12337622Y-11802734D01*
X12337622Y-11802734D02*
X12299527Y-11802734D01*
X12299527Y-11802734D02*
X12280479Y-11812258D01*
X12280479Y-11812258D02*
X12270956Y-11821781D01*
X12270956Y-11821781D02*
X12261432Y-11840829D01*
X12261432Y-11840829D02*
X12261432Y-11888448D01*
X12261432Y-11888448D02*
X12270956Y-11907496D01*
X12270956Y-11907496D02*
X12280479Y-11917019D01*
X12280479Y-11917019D02*
X12299527Y-11926543D01*
X12299527Y-11926543D02*
X12337622Y-11926543D01*
X12337622Y-11926543D02*
X12356670Y-11917019D01*
X12356670Y-11917019D02*
X12366194Y-11907496D01*
X12366194Y-11907496D02*
X12375717Y-11888448D01*
X12547146Y-11869400D02*
X12547146Y-12002734D01*
X12499527Y-11793210D02*
X12451908Y-11936067D01*
X12451908Y-11936067D02*
X12575717Y-11936067D01*
X12642384Y-11802734D02*
X12642384Y-11840829D01*
X12718575Y-11802734D02*
X12718575Y-11840829D01*
X13013813Y-12078924D02*
X13004289Y-12069400D01*
X13004289Y-12069400D02*
X12985241Y-12040829D01*
X12985241Y-12040829D02*
X12975718Y-12021781D01*
X12975718Y-12021781D02*
X12966194Y-11993210D01*
X12966194Y-11993210D02*
X12956670Y-11945591D01*
X12956670Y-11945591D02*
X12956670Y-11907496D01*
X12956670Y-11907496D02*
X12966194Y-11859877D01*
X12966194Y-11859877D02*
X12975718Y-11831305D01*
X12975718Y-11831305D02*
X12985241Y-11812258D01*
X12985241Y-11812258D02*
X13004289Y-11783686D01*
X13004289Y-11783686D02*
X13013813Y-11774162D01*
X13080479Y-11821781D02*
X13090003Y-11812258D01*
X13090003Y-11812258D02*
X13109051Y-11802734D01*
X13109051Y-11802734D02*
X13156670Y-11802734D01*
X13156670Y-11802734D02*
X13175718Y-11812258D01*
X13175718Y-11812258D02*
X13185241Y-11821781D01*
X13185241Y-11821781D02*
X13194765Y-11840829D01*
X13194765Y-11840829D02*
X13194765Y-11859877D01*
X13194765Y-11859877D02*
X13185241Y-11888448D01*
X13185241Y-11888448D02*
X13070956Y-12002734D01*
X13070956Y-12002734D02*
X13194765Y-12002734D01*
X13432860Y-12002734D02*
X13432860Y-11802734D01*
X13518575Y-12002734D02*
X13518575Y-11897972D01*
X13518575Y-11897972D02*
X13509051Y-11878924D01*
X13509051Y-11878924D02*
X13490003Y-11869400D01*
X13490003Y-11869400D02*
X13461432Y-11869400D01*
X13461432Y-11869400D02*
X13442384Y-11878924D01*
X13442384Y-11878924D02*
X13432860Y-11888448D01*
X13642384Y-12002734D02*
X13623337Y-11993210D01*
X13623337Y-11993210D02*
X13613813Y-11983686D01*
X13613813Y-11983686D02*
X13604289Y-11964638D01*
X13604289Y-11964638D02*
X13604289Y-11907496D01*
X13604289Y-11907496D02*
X13613813Y-11888448D01*
X13613813Y-11888448D02*
X13623337Y-11878924D01*
X13623337Y-11878924D02*
X13642384Y-11869400D01*
X13642384Y-11869400D02*
X13670956Y-11869400D01*
X13670956Y-11869400D02*
X13690003Y-11878924D01*
X13690003Y-11878924D02*
X13699527Y-11888448D01*
X13699527Y-11888448D02*
X13709051Y-11907496D01*
X13709051Y-11907496D02*
X13709051Y-11964638D01*
X13709051Y-11964638D02*
X13699527Y-11983686D01*
X13699527Y-11983686D02*
X13690003Y-11993210D01*
X13690003Y-11993210D02*
X13670956Y-12002734D01*
X13670956Y-12002734D02*
X13642384Y-12002734D01*
X13823337Y-12002734D02*
X13804289Y-11993210D01*
X13804289Y-11993210D02*
X13794765Y-11974162D01*
X13794765Y-11974162D02*
X13794765Y-11802734D01*
X13975718Y-11993210D02*
X13956670Y-12002734D01*
X13956670Y-12002734D02*
X13918575Y-12002734D01*
X13918575Y-12002734D02*
X13899527Y-11993210D01*
X13899527Y-11993210D02*
X13890003Y-11974162D01*
X13890003Y-11974162D02*
X13890003Y-11897972D01*
X13890003Y-11897972D02*
X13899527Y-11878924D01*
X13899527Y-11878924D02*
X13918575Y-11869400D01*
X13918575Y-11869400D02*
X13956670Y-11869400D01*
X13956670Y-11869400D02*
X13975718Y-11878924D01*
X13975718Y-11878924D02*
X13985241Y-11897972D01*
X13985241Y-11897972D02*
X13985241Y-11917019D01*
X13985241Y-11917019D02*
X13890003Y-11936067D01*
X14061432Y-11993210D02*
X14080480Y-12002734D01*
X14080480Y-12002734D02*
X14118575Y-12002734D01*
X14118575Y-12002734D02*
X14137622Y-11993210D01*
X14137622Y-11993210D02*
X14147146Y-11974162D01*
X14147146Y-11974162D02*
X14147146Y-11964638D01*
X14147146Y-11964638D02*
X14137622Y-11945591D01*
X14137622Y-11945591D02*
X14118575Y-11936067D01*
X14118575Y-11936067D02*
X14090003Y-11936067D01*
X14090003Y-11936067D02*
X14070956Y-11926543D01*
X14070956Y-11926543D02*
X14061432Y-11907496D01*
X14061432Y-11907496D02*
X14061432Y-11897972D01*
X14061432Y-11897972D02*
X14070956Y-11878924D01*
X14070956Y-11878924D02*
X14090003Y-11869400D01*
X14090003Y-11869400D02*
X14118575Y-11869400D01*
X14118575Y-11869400D02*
X14137622Y-11878924D01*
X14385242Y-11926543D02*
X14537623Y-11926543D01*
X14461432Y-12002734D02*
X14461432Y-11850353D01*
X14766194Y-11802734D02*
X14890003Y-11802734D01*
X14890003Y-11802734D02*
X14823337Y-11878924D01*
X14823337Y-11878924D02*
X14851908Y-11878924D01*
X14851908Y-11878924D02*
X14870956Y-11888448D01*
X14870956Y-11888448D02*
X14880480Y-11897972D01*
X14880480Y-11897972D02*
X14890003Y-11917019D01*
X14890003Y-11917019D02*
X14890003Y-11964638D01*
X14890003Y-11964638D02*
X14880480Y-11983686D01*
X14880480Y-11983686D02*
X14870956Y-11993210D01*
X14870956Y-11993210D02*
X14851908Y-12002734D01*
X14851908Y-12002734D02*
X14794765Y-12002734D01*
X14794765Y-12002734D02*
X14775718Y-11993210D01*
X14775718Y-11993210D02*
X14766194Y-11983686D01*
X15118575Y-11993210D02*
X15137623Y-12002734D01*
X15137623Y-12002734D02*
X15175718Y-12002734D01*
X15175718Y-12002734D02*
X15194765Y-11993210D01*
X15194765Y-11993210D02*
X15204289Y-11974162D01*
X15204289Y-11974162D02*
X15204289Y-11964638D01*
X15204289Y-11964638D02*
X15194765Y-11945591D01*
X15194765Y-11945591D02*
X15175718Y-11936067D01*
X15175718Y-11936067D02*
X15147146Y-11936067D01*
X15147146Y-11936067D02*
X15128099Y-11926543D01*
X15128099Y-11926543D02*
X15118575Y-11907496D01*
X15118575Y-11907496D02*
X15118575Y-11897972D01*
X15118575Y-11897972D02*
X15128099Y-11878924D01*
X15128099Y-11878924D02*
X15147146Y-11869400D01*
X15147146Y-11869400D02*
X15175718Y-11869400D01*
X15175718Y-11869400D02*
X15194765Y-11878924D01*
X15318575Y-12002734D02*
X15299527Y-11993210D01*
X15299527Y-11993210D02*
X15290004Y-11974162D01*
X15290004Y-11974162D02*
X15290004Y-11802734D01*
X15423337Y-12002734D02*
X15404289Y-11993210D01*
X15404289Y-11993210D02*
X15394765Y-11983686D01*
X15394765Y-11983686D02*
X15385242Y-11964638D01*
X15385242Y-11964638D02*
X15385242Y-11907496D01*
X15385242Y-11907496D02*
X15394765Y-11888448D01*
X15394765Y-11888448D02*
X15404289Y-11878924D01*
X15404289Y-11878924D02*
X15423337Y-11869400D01*
X15423337Y-11869400D02*
X15451908Y-11869400D01*
X15451908Y-11869400D02*
X15470956Y-11878924D01*
X15470956Y-11878924D02*
X15480480Y-11888448D01*
X15480480Y-11888448D02*
X15490004Y-11907496D01*
X15490004Y-11907496D02*
X15490004Y-11964638D01*
X15490004Y-11964638D02*
X15480480Y-11983686D01*
X15480480Y-11983686D02*
X15470956Y-11993210D01*
X15470956Y-11993210D02*
X15451908Y-12002734D01*
X15451908Y-12002734D02*
X15423337Y-12002734D01*
X15547146Y-11869400D02*
X15623337Y-11869400D01*
X15575718Y-11802734D02*
X15575718Y-11974162D01*
X15575718Y-11974162D02*
X15585242Y-11993210D01*
X15585242Y-11993210D02*
X15604289Y-12002734D01*
X15604289Y-12002734D02*
X15623337Y-12002734D01*
X15680480Y-11993210D02*
X15699527Y-12002734D01*
X15699527Y-12002734D02*
X15737623Y-12002734D01*
X15737623Y-12002734D02*
X15756670Y-11993210D01*
X15756670Y-11993210D02*
X15766194Y-11974162D01*
X15766194Y-11974162D02*
X15766194Y-11964638D01*
X15766194Y-11964638D02*
X15756670Y-11945591D01*
X15756670Y-11945591D02*
X15737623Y-11936067D01*
X15737623Y-11936067D02*
X15709051Y-11936067D01*
X15709051Y-11936067D02*
X15690004Y-11926543D01*
X15690004Y-11926543D02*
X15680480Y-11907496D01*
X15680480Y-11907496D02*
X15680480Y-11897972D01*
X15680480Y-11897972D02*
X15690004Y-11878924D01*
X15690004Y-11878924D02*
X15709051Y-11869400D01*
X15709051Y-11869400D02*
X15737623Y-11869400D01*
X15737623Y-11869400D02*
X15756670Y-11878924D01*
X15832861Y-12078924D02*
X15842385Y-12069400D01*
X15842385Y-12069400D02*
X15861432Y-12040829D01*
X15861432Y-12040829D02*
X15870956Y-12021781D01*
X15870956Y-12021781D02*
X15880480Y-11993210D01*
X15880480Y-11993210D02*
X15890004Y-11945591D01*
X15890004Y-11945591D02*
X15890004Y-11907496D01*
X15890004Y-11907496D02*
X15880480Y-11859877D01*
X15880480Y-11859877D02*
X15870956Y-11831305D01*
X15870956Y-11831305D02*
X15861432Y-11812258D01*
X15861432Y-11812258D02*
X15842385Y-11783686D01*
X15842385Y-11783686D02*
X15832861Y-11774162D01*
D13*
X9308750Y-12110250D02*
X9438750Y-12240250D01*
X9438750Y-12110250D02*
X9308750Y-12240250D01*
X9373750Y-12110250D02*
X9373750Y-12240250D01*
X9308750Y-12175250D02*
X9438750Y-12175250D01*
D10*
X9804289Y-12266734D02*
X9690003Y-12266734D01*
X9747146Y-12266734D02*
X9747146Y-12066734D01*
X9747146Y-12066734D02*
X9728098Y-12095305D01*
X9728098Y-12095305D02*
X9709051Y-12114353D01*
X9709051Y-12114353D02*
X9690003Y-12123877D01*
X9890003Y-12247686D02*
X9899527Y-12257210D01*
X9899527Y-12257210D02*
X9890003Y-12266734D01*
X9890003Y-12266734D02*
X9880479Y-12257210D01*
X9880479Y-12257210D02*
X9890003Y-12247686D01*
X9890003Y-12247686D02*
X9890003Y-12266734D01*
X9966194Y-12066734D02*
X10090003Y-12066734D01*
X10090003Y-12066734D02*
X10023336Y-12142924D01*
X10023336Y-12142924D02*
X10051908Y-12142924D01*
X10051908Y-12142924D02*
X10070955Y-12152448D01*
X10070955Y-12152448D02*
X10080479Y-12161972D01*
X10080479Y-12161972D02*
X10090003Y-12181019D01*
X10090003Y-12181019D02*
X10090003Y-12228638D01*
X10090003Y-12228638D02*
X10080479Y-12247686D01*
X10080479Y-12247686D02*
X10070955Y-12257210D01*
X10070955Y-12257210D02*
X10051908Y-12266734D01*
X10051908Y-12266734D02*
X9994765Y-12266734D01*
X9994765Y-12266734D02*
X9975717Y-12257210D01*
X9975717Y-12257210D02*
X9966194Y-12247686D01*
X10213813Y-12066734D02*
X10232860Y-12066734D01*
X10232860Y-12066734D02*
X10251908Y-12076258D01*
X10251908Y-12076258D02*
X10261432Y-12085781D01*
X10261432Y-12085781D02*
X10270955Y-12104829D01*
X10270955Y-12104829D02*
X10280479Y-12142924D01*
X10280479Y-12142924D02*
X10280479Y-12190543D01*
X10280479Y-12190543D02*
X10270955Y-12228638D01*
X10270955Y-12228638D02*
X10261432Y-12247686D01*
X10261432Y-12247686D02*
X10251908Y-12257210D01*
X10251908Y-12257210D02*
X10232860Y-12266734D01*
X10232860Y-12266734D02*
X10213813Y-12266734D01*
X10213813Y-12266734D02*
X10194765Y-12257210D01*
X10194765Y-12257210D02*
X10185241Y-12247686D01*
X10185241Y-12247686D02*
X10175717Y-12228638D01*
X10175717Y-12228638D02*
X10166194Y-12190543D01*
X10166194Y-12190543D02*
X10166194Y-12142924D01*
X10166194Y-12142924D02*
X10175717Y-12104829D01*
X10175717Y-12104829D02*
X10185241Y-12085781D01*
X10185241Y-12085781D02*
X10194765Y-12076258D01*
X10194765Y-12076258D02*
X10213813Y-12066734D01*
X10404289Y-12066734D02*
X10423336Y-12066734D01*
X10423336Y-12066734D02*
X10442384Y-12076258D01*
X10442384Y-12076258D02*
X10451908Y-12085781D01*
X10451908Y-12085781D02*
X10461432Y-12104829D01*
X10461432Y-12104829D02*
X10470955Y-12142924D01*
X10470955Y-12142924D02*
X10470955Y-12190543D01*
X10470955Y-12190543D02*
X10461432Y-12228638D01*
X10461432Y-12228638D02*
X10451908Y-12247686D01*
X10451908Y-12247686D02*
X10442384Y-12257210D01*
X10442384Y-12257210D02*
X10423336Y-12266734D01*
X10423336Y-12266734D02*
X10404289Y-12266734D01*
X10404289Y-12266734D02*
X10385241Y-12257210D01*
X10385241Y-12257210D02*
X10375717Y-12247686D01*
X10375717Y-12247686D02*
X10366194Y-12228638D01*
X10366194Y-12228638D02*
X10356670Y-12190543D01*
X10356670Y-12190543D02*
X10356670Y-12142924D01*
X10356670Y-12142924D02*
X10366194Y-12104829D01*
X10366194Y-12104829D02*
X10375717Y-12085781D01*
X10375717Y-12085781D02*
X10385241Y-12076258D01*
X10385241Y-12076258D02*
X10404289Y-12066734D01*
X10556670Y-12266734D02*
X10556670Y-12133400D01*
X10556670Y-12152448D02*
X10566194Y-12142924D01*
X10566194Y-12142924D02*
X10585241Y-12133400D01*
X10585241Y-12133400D02*
X10613813Y-12133400D01*
X10613813Y-12133400D02*
X10632860Y-12142924D01*
X10632860Y-12142924D02*
X10642384Y-12161972D01*
X10642384Y-12161972D02*
X10642384Y-12266734D01*
X10642384Y-12161972D02*
X10651908Y-12142924D01*
X10651908Y-12142924D02*
X10670955Y-12133400D01*
X10670955Y-12133400D02*
X10699527Y-12133400D01*
X10699527Y-12133400D02*
X10718575Y-12142924D01*
X10718575Y-12142924D02*
X10728098Y-12161972D01*
X10728098Y-12161972D02*
X10728098Y-12266734D01*
X10823336Y-12266734D02*
X10823336Y-12133400D01*
X10823336Y-12152448D02*
X10832860Y-12142924D01*
X10832860Y-12142924D02*
X10851908Y-12133400D01*
X10851908Y-12133400D02*
X10880479Y-12133400D01*
X10880479Y-12133400D02*
X10899527Y-12142924D01*
X10899527Y-12142924D02*
X10909051Y-12161972D01*
X10909051Y-12161972D02*
X10909051Y-12266734D01*
X10909051Y-12161972D02*
X10918575Y-12142924D01*
X10918575Y-12142924D02*
X10937622Y-12133400D01*
X10937622Y-12133400D02*
X10966194Y-12133400D01*
X10966194Y-12133400D02*
X10985241Y-12142924D01*
X10985241Y-12142924D02*
X10994765Y-12161972D01*
X10994765Y-12161972D02*
X10994765Y-12266734D01*
X11385241Y-12057210D02*
X11213813Y-12314353D01*
X11642384Y-12066734D02*
X11661432Y-12066734D01*
X11661432Y-12066734D02*
X11680479Y-12076258D01*
X11680479Y-12076258D02*
X11690003Y-12085781D01*
X11690003Y-12085781D02*
X11699527Y-12104829D01*
X11699527Y-12104829D02*
X11709051Y-12142924D01*
X11709051Y-12142924D02*
X11709051Y-12190543D01*
X11709051Y-12190543D02*
X11699527Y-12228638D01*
X11699527Y-12228638D02*
X11690003Y-12247686D01*
X11690003Y-12247686D02*
X11680479Y-12257210D01*
X11680479Y-12257210D02*
X11661432Y-12266734D01*
X11661432Y-12266734D02*
X11642384Y-12266734D01*
X11642384Y-12266734D02*
X11623336Y-12257210D01*
X11623336Y-12257210D02*
X11613813Y-12247686D01*
X11613813Y-12247686D02*
X11604289Y-12228638D01*
X11604289Y-12228638D02*
X11594765Y-12190543D01*
X11594765Y-12190543D02*
X11594765Y-12142924D01*
X11594765Y-12142924D02*
X11604289Y-12104829D01*
X11604289Y-12104829D02*
X11613813Y-12085781D01*
X11613813Y-12085781D02*
X11623336Y-12076258D01*
X11623336Y-12076258D02*
X11642384Y-12066734D01*
X11794765Y-12247686D02*
X11804289Y-12257210D01*
X11804289Y-12257210D02*
X11794765Y-12266734D01*
X11794765Y-12266734D02*
X11785241Y-12257210D01*
X11785241Y-12257210D02*
X11794765Y-12247686D01*
X11794765Y-12247686D02*
X11794765Y-12266734D01*
X11928098Y-12066734D02*
X11947146Y-12066734D01*
X11947146Y-12066734D02*
X11966194Y-12076258D01*
X11966194Y-12076258D02*
X11975717Y-12085781D01*
X11975717Y-12085781D02*
X11985241Y-12104829D01*
X11985241Y-12104829D02*
X11994765Y-12142924D01*
X11994765Y-12142924D02*
X11994765Y-12190543D01*
X11994765Y-12190543D02*
X11985241Y-12228638D01*
X11985241Y-12228638D02*
X11975717Y-12247686D01*
X11975717Y-12247686D02*
X11966194Y-12257210D01*
X11966194Y-12257210D02*
X11947146Y-12266734D01*
X11947146Y-12266734D02*
X11928098Y-12266734D01*
X11928098Y-12266734D02*
X11909051Y-12257210D01*
X11909051Y-12257210D02*
X11899527Y-12247686D01*
X11899527Y-12247686D02*
X11890003Y-12228638D01*
X11890003Y-12228638D02*
X11880479Y-12190543D01*
X11880479Y-12190543D02*
X11880479Y-12142924D01*
X11880479Y-12142924D02*
X11890003Y-12104829D01*
X11890003Y-12104829D02*
X11899527Y-12085781D01*
X11899527Y-12085781D02*
X11909051Y-12076258D01*
X11909051Y-12076258D02*
X11928098Y-12066734D01*
X12175717Y-12066734D02*
X12080479Y-12066734D01*
X12080479Y-12066734D02*
X12070956Y-12161972D01*
X12070956Y-12161972D02*
X12080479Y-12152448D01*
X12080479Y-12152448D02*
X12099527Y-12142924D01*
X12099527Y-12142924D02*
X12147146Y-12142924D01*
X12147146Y-12142924D02*
X12166194Y-12152448D01*
X12166194Y-12152448D02*
X12175717Y-12161972D01*
X12175717Y-12161972D02*
X12185241Y-12181019D01*
X12185241Y-12181019D02*
X12185241Y-12228638D01*
X12185241Y-12228638D02*
X12175717Y-12247686D01*
X12175717Y-12247686D02*
X12166194Y-12257210D01*
X12166194Y-12257210D02*
X12147146Y-12266734D01*
X12147146Y-12266734D02*
X12099527Y-12266734D01*
X12099527Y-12266734D02*
X12080479Y-12257210D01*
X12080479Y-12257210D02*
X12070956Y-12247686D01*
X12375717Y-12266734D02*
X12261432Y-12266734D01*
X12318575Y-12266734D02*
X12318575Y-12066734D01*
X12318575Y-12066734D02*
X12299527Y-12095305D01*
X12299527Y-12095305D02*
X12280479Y-12114353D01*
X12280479Y-12114353D02*
X12261432Y-12123877D01*
X12451908Y-12085781D02*
X12461432Y-12076258D01*
X12461432Y-12076258D02*
X12480479Y-12066734D01*
X12480479Y-12066734D02*
X12528098Y-12066734D01*
X12528098Y-12066734D02*
X12547146Y-12076258D01*
X12547146Y-12076258D02*
X12556670Y-12085781D01*
X12556670Y-12085781D02*
X12566194Y-12104829D01*
X12566194Y-12104829D02*
X12566194Y-12123877D01*
X12566194Y-12123877D02*
X12556670Y-12152448D01*
X12556670Y-12152448D02*
X12442384Y-12266734D01*
X12442384Y-12266734D02*
X12566194Y-12266734D01*
X12642384Y-12066734D02*
X12642384Y-12104829D01*
X12718575Y-12066734D02*
X12718575Y-12104829D01*
X13013813Y-12342924D02*
X13004289Y-12333400D01*
X13004289Y-12333400D02*
X12985241Y-12304829D01*
X12985241Y-12304829D02*
X12975718Y-12285781D01*
X12975718Y-12285781D02*
X12966194Y-12257210D01*
X12966194Y-12257210D02*
X12956670Y-12209591D01*
X12956670Y-12209591D02*
X12956670Y-12171496D01*
X12956670Y-12171496D02*
X12966194Y-12123877D01*
X12966194Y-12123877D02*
X12975718Y-12095305D01*
X12975718Y-12095305D02*
X12985241Y-12076258D01*
X12985241Y-12076258D02*
X13004289Y-12047686D01*
X13004289Y-12047686D02*
X13013813Y-12038162D01*
X13175718Y-12133400D02*
X13175718Y-12266734D01*
X13128098Y-12057210D02*
X13080479Y-12200067D01*
X13080479Y-12200067D02*
X13204289Y-12200067D01*
X13432860Y-12266734D02*
X13432860Y-12066734D01*
X13518575Y-12266734D02*
X13518575Y-12161972D01*
X13518575Y-12161972D02*
X13509051Y-12142924D01*
X13509051Y-12142924D02*
X13490003Y-12133400D01*
X13490003Y-12133400D02*
X13461432Y-12133400D01*
X13461432Y-12133400D02*
X13442384Y-12142924D01*
X13442384Y-12142924D02*
X13432860Y-12152448D01*
X13642384Y-12266734D02*
X13623337Y-12257210D01*
X13623337Y-12257210D02*
X13613813Y-12247686D01*
X13613813Y-12247686D02*
X13604289Y-12228638D01*
X13604289Y-12228638D02*
X13604289Y-12171496D01*
X13604289Y-12171496D02*
X13613813Y-12152448D01*
X13613813Y-12152448D02*
X13623337Y-12142924D01*
X13623337Y-12142924D02*
X13642384Y-12133400D01*
X13642384Y-12133400D02*
X13670956Y-12133400D01*
X13670956Y-12133400D02*
X13690003Y-12142924D01*
X13690003Y-12142924D02*
X13699527Y-12152448D01*
X13699527Y-12152448D02*
X13709051Y-12171496D01*
X13709051Y-12171496D02*
X13709051Y-12228638D01*
X13709051Y-12228638D02*
X13699527Y-12247686D01*
X13699527Y-12247686D02*
X13690003Y-12257210D01*
X13690003Y-12257210D02*
X13670956Y-12266734D01*
X13670956Y-12266734D02*
X13642384Y-12266734D01*
X13823337Y-12266734D02*
X13804289Y-12257210D01*
X13804289Y-12257210D02*
X13794765Y-12238162D01*
X13794765Y-12238162D02*
X13794765Y-12066734D01*
X13975718Y-12257210D02*
X13956670Y-12266734D01*
X13956670Y-12266734D02*
X13918575Y-12266734D01*
X13918575Y-12266734D02*
X13899527Y-12257210D01*
X13899527Y-12257210D02*
X13890003Y-12238162D01*
X13890003Y-12238162D02*
X13890003Y-12161972D01*
X13890003Y-12161972D02*
X13899527Y-12142924D01*
X13899527Y-12142924D02*
X13918575Y-12133400D01*
X13918575Y-12133400D02*
X13956670Y-12133400D01*
X13956670Y-12133400D02*
X13975718Y-12142924D01*
X13975718Y-12142924D02*
X13985241Y-12161972D01*
X13985241Y-12161972D02*
X13985241Y-12181019D01*
X13985241Y-12181019D02*
X13890003Y-12200067D01*
X14061432Y-12257210D02*
X14080480Y-12266734D01*
X14080480Y-12266734D02*
X14118575Y-12266734D01*
X14118575Y-12266734D02*
X14137622Y-12257210D01*
X14137622Y-12257210D02*
X14147146Y-12238162D01*
X14147146Y-12238162D02*
X14147146Y-12228638D01*
X14147146Y-12228638D02*
X14137622Y-12209591D01*
X14137622Y-12209591D02*
X14118575Y-12200067D01*
X14118575Y-12200067D02*
X14090003Y-12200067D01*
X14090003Y-12200067D02*
X14070956Y-12190543D01*
X14070956Y-12190543D02*
X14061432Y-12171496D01*
X14061432Y-12171496D02*
X14061432Y-12161972D01*
X14061432Y-12161972D02*
X14070956Y-12142924D01*
X14070956Y-12142924D02*
X14090003Y-12133400D01*
X14090003Y-12133400D02*
X14118575Y-12133400D01*
X14118575Y-12133400D02*
X14137622Y-12142924D01*
X14213813Y-12342924D02*
X14223337Y-12333400D01*
X14223337Y-12333400D02*
X14242384Y-12304829D01*
X14242384Y-12304829D02*
X14251908Y-12285781D01*
X14251908Y-12285781D02*
X14261432Y-12257210D01*
X14261432Y-12257210D02*
X14270956Y-12209591D01*
X14270956Y-12209591D02*
X14270956Y-12171496D01*
X14270956Y-12171496D02*
X14261432Y-12123877D01*
X14261432Y-12123877D02*
X14251908Y-12095305D01*
X14251908Y-12095305D02*
X14242384Y-12076258D01*
X14242384Y-12076258D02*
X14223337Y-12047686D01*
X14223337Y-12047686D02*
X14213813Y-12038162D01*
M02*
