%TF.GenerationSoftware,KiCad,Pcbnew,10.0.5*%
%TF.CreationDate,2026-08-26T15:11:28+05:30*%
%TF.ProjectId,AuraForge_50X,41757261-466f-4726-9765-5f3530582e6b,v1.0*%
%TF.SameCoordinates,Original*%
%TF.FileFunction,Legend,Top*%
%TF.FilePolarity,Positive*%
%FSLAX46Y46*%
G04 Gerber Fmt 4.6, Leading zero omitted, Abs format (unit mm)*
G04 Created by KiCad (PCBNEW 10.0.5) date 2026-08-26 15:11:28*
%MOMM*%
%LPD*%
G01*
G04 APERTURE LIST*
%ADD10C,0.150000*%
%ADD11C,0.120000*%
%ADD12C,0.250000*%
%ADD13C,0.300000*%
%ADD14C,0.100000*%
%ADD15C,0.060000*%
%ADD16C,0.130000*%
G04 APERTURE END LIST*
D10*
X80929580Y-48642857D02*
X80977200Y-48690476D01*
X80977200Y-48690476D02*
X81024819Y-48833333D01*
X81024819Y-48833333D02*
X81024819Y-48928571D01*
X81024819Y-48928571D02*
X80977200Y-49071428D01*
X80977200Y-49071428D02*
X80881961Y-49166666D01*
X80881961Y-49166666D02*
X80786723Y-49214285D01*
X80786723Y-49214285D02*
X80596247Y-49261904D01*
X80596247Y-49261904D02*
X80453390Y-49261904D01*
X80453390Y-49261904D02*
X80262914Y-49214285D01*
X80262914Y-49214285D02*
X80167676Y-49166666D01*
X80167676Y-49166666D02*
X80072438Y-49071428D01*
X80072438Y-49071428D02*
X80024819Y-48928571D01*
X80024819Y-48928571D02*
X80024819Y-48833333D01*
X80024819Y-48833333D02*
X80072438Y-48690476D01*
X80072438Y-48690476D02*
X80120057Y-48642857D01*
X80120057Y-48261904D02*
X80072438Y-48214285D01*
X80072438Y-48214285D02*
X80024819Y-48119047D01*
X80024819Y-48119047D02*
X80024819Y-47880952D01*
X80024819Y-47880952D02*
X80072438Y-47785714D01*
X80072438Y-47785714D02*
X80120057Y-47738095D01*
X80120057Y-47738095D02*
X80215295Y-47690476D01*
X80215295Y-47690476D02*
X80310533Y-47690476D01*
X80310533Y-47690476D02*
X80453390Y-47738095D01*
X80453390Y-47738095D02*
X81024819Y-48309523D01*
X81024819Y-48309523D02*
X81024819Y-47690476D01*
X80024819Y-47357142D02*
X80024819Y-46738095D01*
X80024819Y-46738095D02*
X80405771Y-47071428D01*
X80405771Y-47071428D02*
X80405771Y-46928571D01*
X80405771Y-46928571D02*
X80453390Y-46833333D01*
X80453390Y-46833333D02*
X80501009Y-46785714D01*
X80501009Y-46785714D02*
X80596247Y-46738095D01*
X80596247Y-46738095D02*
X80834342Y-46738095D01*
X80834342Y-46738095D02*
X80929580Y-46785714D01*
X80929580Y-46785714D02*
X80977200Y-46833333D01*
X80977200Y-46833333D02*
X81024819Y-46928571D01*
X81024819Y-46928571D02*
X81024819Y-47214285D01*
X81024819Y-47214285D02*
X80977200Y-47309523D01*
X80977200Y-47309523D02*
X80929580Y-47357142D01*
X56357142Y-33929580D02*
X56309523Y-33977200D01*
X56309523Y-33977200D02*
X56166666Y-34024819D01*
X56166666Y-34024819D02*
X56071428Y-34024819D01*
X56071428Y-34024819D02*
X55928571Y-33977200D01*
X55928571Y-33977200D02*
X55833333Y-33881961D01*
X55833333Y-33881961D02*
X55785714Y-33786723D01*
X55785714Y-33786723D02*
X55738095Y-33596247D01*
X55738095Y-33596247D02*
X55738095Y-33453390D01*
X55738095Y-33453390D02*
X55785714Y-33262914D01*
X55785714Y-33262914D02*
X55833333Y-33167676D01*
X55833333Y-33167676D02*
X55928571Y-33072438D01*
X55928571Y-33072438D02*
X56071428Y-33024819D01*
X56071428Y-33024819D02*
X56166666Y-33024819D01*
X56166666Y-33024819D02*
X56309523Y-33072438D01*
X56309523Y-33072438D02*
X56357142Y-33120057D01*
X56738095Y-33120057D02*
X56785714Y-33072438D01*
X56785714Y-33072438D02*
X56880952Y-33024819D01*
X56880952Y-33024819D02*
X57119047Y-33024819D01*
X57119047Y-33024819D02*
X57214285Y-33072438D01*
X57214285Y-33072438D02*
X57261904Y-33120057D01*
X57261904Y-33120057D02*
X57309523Y-33215295D01*
X57309523Y-33215295D02*
X57309523Y-33310533D01*
X57309523Y-33310533D02*
X57261904Y-33453390D01*
X57261904Y-33453390D02*
X56690476Y-34024819D01*
X56690476Y-34024819D02*
X57309523Y-34024819D01*
X58166666Y-33358152D02*
X58166666Y-34024819D01*
X57928571Y-32977200D02*
X57690476Y-33691485D01*
X57690476Y-33691485D02*
X58309523Y-33691485D01*
X80929580Y-45142857D02*
X80977200Y-45190476D01*
X80977200Y-45190476D02*
X81024819Y-45333333D01*
X81024819Y-45333333D02*
X81024819Y-45428571D01*
X81024819Y-45428571D02*
X80977200Y-45571428D01*
X80977200Y-45571428D02*
X80881961Y-45666666D01*
X80881961Y-45666666D02*
X80786723Y-45714285D01*
X80786723Y-45714285D02*
X80596247Y-45761904D01*
X80596247Y-45761904D02*
X80453390Y-45761904D01*
X80453390Y-45761904D02*
X80262914Y-45714285D01*
X80262914Y-45714285D02*
X80167676Y-45666666D01*
X80167676Y-45666666D02*
X80072438Y-45571428D01*
X80072438Y-45571428D02*
X80024819Y-45428571D01*
X80024819Y-45428571D02*
X80024819Y-45333333D01*
X80024819Y-45333333D02*
X80072438Y-45190476D01*
X80072438Y-45190476D02*
X80120057Y-45142857D01*
X80120057Y-44761904D02*
X80072438Y-44714285D01*
X80072438Y-44714285D02*
X80024819Y-44619047D01*
X80024819Y-44619047D02*
X80024819Y-44380952D01*
X80024819Y-44380952D02*
X80072438Y-44285714D01*
X80072438Y-44285714D02*
X80120057Y-44238095D01*
X80120057Y-44238095D02*
X80215295Y-44190476D01*
X80215295Y-44190476D02*
X80310533Y-44190476D01*
X80310533Y-44190476D02*
X80453390Y-44238095D01*
X80453390Y-44238095D02*
X81024819Y-44809523D01*
X81024819Y-44809523D02*
X81024819Y-44190476D01*
X80120057Y-43809523D02*
X80072438Y-43761904D01*
X80072438Y-43761904D02*
X80024819Y-43666666D01*
X80024819Y-43666666D02*
X80024819Y-43428571D01*
X80024819Y-43428571D02*
X80072438Y-43333333D01*
X80072438Y-43333333D02*
X80120057Y-43285714D01*
X80120057Y-43285714D02*
X80215295Y-43238095D01*
X80215295Y-43238095D02*
X80310533Y-43238095D01*
X80310533Y-43238095D02*
X80453390Y-43285714D01*
X80453390Y-43285714D02*
X81024819Y-43857142D01*
X81024819Y-43857142D02*
X81024819Y-43238095D01*
X56357142Y-37429580D02*
X56309523Y-37477200D01*
X56309523Y-37477200D02*
X56166666Y-37524819D01*
X56166666Y-37524819D02*
X56071428Y-37524819D01*
X56071428Y-37524819D02*
X55928571Y-37477200D01*
X55928571Y-37477200D02*
X55833333Y-37381961D01*
X55833333Y-37381961D02*
X55785714Y-37286723D01*
X55785714Y-37286723D02*
X55738095Y-37096247D01*
X55738095Y-37096247D02*
X55738095Y-36953390D01*
X55738095Y-36953390D02*
X55785714Y-36762914D01*
X55785714Y-36762914D02*
X55833333Y-36667676D01*
X55833333Y-36667676D02*
X55928571Y-36572438D01*
X55928571Y-36572438D02*
X56071428Y-36524819D01*
X56071428Y-36524819D02*
X56166666Y-36524819D01*
X56166666Y-36524819D02*
X56309523Y-36572438D01*
X56309523Y-36572438D02*
X56357142Y-36620057D01*
X56738095Y-36620057D02*
X56785714Y-36572438D01*
X56785714Y-36572438D02*
X56880952Y-36524819D01*
X56880952Y-36524819D02*
X57119047Y-36524819D01*
X57119047Y-36524819D02*
X57214285Y-36572438D01*
X57214285Y-36572438D02*
X57261904Y-36620057D01*
X57261904Y-36620057D02*
X57309523Y-36715295D01*
X57309523Y-36715295D02*
X57309523Y-36810533D01*
X57309523Y-36810533D02*
X57261904Y-36953390D01*
X57261904Y-36953390D02*
X56690476Y-37524819D01*
X56690476Y-37524819D02*
X57309523Y-37524819D01*
X58214285Y-36524819D02*
X57738095Y-36524819D01*
X57738095Y-36524819D02*
X57690476Y-37001009D01*
X57690476Y-37001009D02*
X57738095Y-36953390D01*
X57738095Y-36953390D02*
X57833333Y-36905771D01*
X57833333Y-36905771D02*
X58071428Y-36905771D01*
X58071428Y-36905771D02*
X58166666Y-36953390D01*
X58166666Y-36953390D02*
X58214285Y-37001009D01*
X58214285Y-37001009D02*
X58261904Y-37096247D01*
X58261904Y-37096247D02*
X58261904Y-37334342D01*
X58261904Y-37334342D02*
X58214285Y-37429580D01*
X58214285Y-37429580D02*
X58166666Y-37477200D01*
X58166666Y-37477200D02*
X58071428Y-37524819D01*
X58071428Y-37524819D02*
X57833333Y-37524819D01*
X57833333Y-37524819D02*
X57738095Y-37477200D01*
X57738095Y-37477200D02*
X57690476Y-37429580D01*
X56357142Y-44429580D02*
X56309523Y-44477200D01*
X56309523Y-44477200D02*
X56166666Y-44524819D01*
X56166666Y-44524819D02*
X56071428Y-44524819D01*
X56071428Y-44524819D02*
X55928571Y-44477200D01*
X55928571Y-44477200D02*
X55833333Y-44381961D01*
X55833333Y-44381961D02*
X55785714Y-44286723D01*
X55785714Y-44286723D02*
X55738095Y-44096247D01*
X55738095Y-44096247D02*
X55738095Y-43953390D01*
X55738095Y-43953390D02*
X55785714Y-43762914D01*
X55785714Y-43762914D02*
X55833333Y-43667676D01*
X55833333Y-43667676D02*
X55928571Y-43572438D01*
X55928571Y-43572438D02*
X56071428Y-43524819D01*
X56071428Y-43524819D02*
X56166666Y-43524819D01*
X56166666Y-43524819D02*
X56309523Y-43572438D01*
X56309523Y-43572438D02*
X56357142Y-43620057D01*
X56738095Y-43620057D02*
X56785714Y-43572438D01*
X56785714Y-43572438D02*
X56880952Y-43524819D01*
X56880952Y-43524819D02*
X57119047Y-43524819D01*
X57119047Y-43524819D02*
X57214285Y-43572438D01*
X57214285Y-43572438D02*
X57261904Y-43620057D01*
X57261904Y-43620057D02*
X57309523Y-43715295D01*
X57309523Y-43715295D02*
X57309523Y-43810533D01*
X57309523Y-43810533D02*
X57261904Y-43953390D01*
X57261904Y-43953390D02*
X56690476Y-44524819D01*
X56690476Y-44524819D02*
X57309523Y-44524819D01*
X57642857Y-43524819D02*
X58309523Y-43524819D01*
X58309523Y-43524819D02*
X57880952Y-44524819D01*
X78307142Y-72679580D02*
X78259523Y-72727200D01*
X78259523Y-72727200D02*
X78116666Y-72774819D01*
X78116666Y-72774819D02*
X78021428Y-72774819D01*
X78021428Y-72774819D02*
X77878571Y-72727200D01*
X77878571Y-72727200D02*
X77783333Y-72631961D01*
X77783333Y-72631961D02*
X77735714Y-72536723D01*
X77735714Y-72536723D02*
X77688095Y-72346247D01*
X77688095Y-72346247D02*
X77688095Y-72203390D01*
X77688095Y-72203390D02*
X77735714Y-72012914D01*
X77735714Y-72012914D02*
X77783333Y-71917676D01*
X77783333Y-71917676D02*
X77878571Y-71822438D01*
X77878571Y-71822438D02*
X78021428Y-71774819D01*
X78021428Y-71774819D02*
X78116666Y-71774819D01*
X78116666Y-71774819D02*
X78259523Y-71822438D01*
X78259523Y-71822438D02*
X78307142Y-71870057D01*
X78640476Y-71774819D02*
X79259523Y-71774819D01*
X79259523Y-71774819D02*
X78926190Y-72155771D01*
X78926190Y-72155771D02*
X79069047Y-72155771D01*
X79069047Y-72155771D02*
X79164285Y-72203390D01*
X79164285Y-72203390D02*
X79211904Y-72251009D01*
X79211904Y-72251009D02*
X79259523Y-72346247D01*
X79259523Y-72346247D02*
X79259523Y-72584342D01*
X79259523Y-72584342D02*
X79211904Y-72679580D01*
X79211904Y-72679580D02*
X79164285Y-72727200D01*
X79164285Y-72727200D02*
X79069047Y-72774819D01*
X79069047Y-72774819D02*
X78783333Y-72774819D01*
X78783333Y-72774819D02*
X78688095Y-72727200D01*
X78688095Y-72727200D02*
X78640476Y-72679580D01*
X80116666Y-71774819D02*
X79926190Y-71774819D01*
X79926190Y-71774819D02*
X79830952Y-71822438D01*
X79830952Y-71822438D02*
X79783333Y-71870057D01*
X79783333Y-71870057D02*
X79688095Y-72012914D01*
X79688095Y-72012914D02*
X79640476Y-72203390D01*
X79640476Y-72203390D02*
X79640476Y-72584342D01*
X79640476Y-72584342D02*
X79688095Y-72679580D01*
X79688095Y-72679580D02*
X79735714Y-72727200D01*
X79735714Y-72727200D02*
X79830952Y-72774819D01*
X79830952Y-72774819D02*
X80021428Y-72774819D01*
X80021428Y-72774819D02*
X80116666Y-72727200D01*
X80116666Y-72727200D02*
X80164285Y-72679580D01*
X80164285Y-72679580D02*
X80211904Y-72584342D01*
X80211904Y-72584342D02*
X80211904Y-72346247D01*
X80211904Y-72346247D02*
X80164285Y-72251009D01*
X80164285Y-72251009D02*
X80116666Y-72203390D01*
X80116666Y-72203390D02*
X80021428Y-72155771D01*
X80021428Y-72155771D02*
X79830952Y-72155771D01*
X79830952Y-72155771D02*
X79735714Y-72203390D01*
X79735714Y-72203390D02*
X79688095Y-72251009D01*
X79688095Y-72251009D02*
X79640476Y-72346247D01*
X69024819Y-31642857D02*
X68548628Y-31976190D01*
X69024819Y-32214285D02*
X68024819Y-32214285D01*
X68024819Y-32214285D02*
X68024819Y-31833333D01*
X68024819Y-31833333D02*
X68072438Y-31738095D01*
X68072438Y-31738095D02*
X68120057Y-31690476D01*
X68120057Y-31690476D02*
X68215295Y-31642857D01*
X68215295Y-31642857D02*
X68358152Y-31642857D01*
X68358152Y-31642857D02*
X68453390Y-31690476D01*
X68453390Y-31690476D02*
X68501009Y-31738095D01*
X68501009Y-31738095D02*
X68548628Y-31833333D01*
X68548628Y-31833333D02*
X68548628Y-32214285D01*
X69024819Y-30690476D02*
X69024819Y-31261904D01*
X69024819Y-30976190D02*
X68024819Y-30976190D01*
X68024819Y-30976190D02*
X68167676Y-31071428D01*
X68167676Y-31071428D02*
X68262914Y-31166666D01*
X68262914Y-31166666D02*
X68310533Y-31261904D01*
X68120057Y-30309523D02*
X68072438Y-30261904D01*
X68072438Y-30261904D02*
X68024819Y-30166666D01*
X68024819Y-30166666D02*
X68024819Y-29928571D01*
X68024819Y-29928571D02*
X68072438Y-29833333D01*
X68072438Y-29833333D02*
X68120057Y-29785714D01*
X68120057Y-29785714D02*
X68215295Y-29738095D01*
X68215295Y-29738095D02*
X68310533Y-29738095D01*
X68310533Y-29738095D02*
X68453390Y-29785714D01*
X68453390Y-29785714D02*
X69024819Y-30357142D01*
X69024819Y-30357142D02*
X69024819Y-29738095D01*
X67357142Y-25929580D02*
X67309523Y-25977200D01*
X67309523Y-25977200D02*
X67166666Y-26024819D01*
X67166666Y-26024819D02*
X67071428Y-26024819D01*
X67071428Y-26024819D02*
X66928571Y-25977200D01*
X66928571Y-25977200D02*
X66833333Y-25881961D01*
X66833333Y-25881961D02*
X66785714Y-25786723D01*
X66785714Y-25786723D02*
X66738095Y-25596247D01*
X66738095Y-25596247D02*
X66738095Y-25453390D01*
X66738095Y-25453390D02*
X66785714Y-25262914D01*
X66785714Y-25262914D02*
X66833333Y-25167676D01*
X66833333Y-25167676D02*
X66928571Y-25072438D01*
X66928571Y-25072438D02*
X67071428Y-25024819D01*
X67071428Y-25024819D02*
X67166666Y-25024819D01*
X67166666Y-25024819D02*
X67309523Y-25072438D01*
X67309523Y-25072438D02*
X67357142Y-25120057D01*
X68309523Y-26024819D02*
X67738095Y-26024819D01*
X68023809Y-26024819D02*
X68023809Y-25024819D01*
X68023809Y-25024819D02*
X67928571Y-25167676D01*
X67928571Y-25167676D02*
X67833333Y-25262914D01*
X67833333Y-25262914D02*
X67738095Y-25310533D01*
X68642857Y-25024819D02*
X69261904Y-25024819D01*
X69261904Y-25024819D02*
X68928571Y-25405771D01*
X68928571Y-25405771D02*
X69071428Y-25405771D01*
X69071428Y-25405771D02*
X69166666Y-25453390D01*
X69166666Y-25453390D02*
X69214285Y-25501009D01*
X69214285Y-25501009D02*
X69261904Y-25596247D01*
X69261904Y-25596247D02*
X69261904Y-25834342D01*
X69261904Y-25834342D02*
X69214285Y-25929580D01*
X69214285Y-25929580D02*
X69166666Y-25977200D01*
X69166666Y-25977200D02*
X69071428Y-26024819D01*
X69071428Y-26024819D02*
X68785714Y-26024819D01*
X68785714Y-26024819D02*
X68690476Y-25977200D01*
X68690476Y-25977200D02*
X68642857Y-25929580D01*
X76454819Y-60966666D02*
X76454819Y-61442856D01*
X76454819Y-61442856D02*
X75454819Y-61442856D01*
X75454819Y-60204761D02*
X75454819Y-60395237D01*
X75454819Y-60395237D02*
X75502438Y-60490475D01*
X75502438Y-60490475D02*
X75550057Y-60538094D01*
X75550057Y-60538094D02*
X75692914Y-60633332D01*
X75692914Y-60633332D02*
X75883390Y-60680951D01*
X75883390Y-60680951D02*
X76264342Y-60680951D01*
X76264342Y-60680951D02*
X76359580Y-60633332D01*
X76359580Y-60633332D02*
X76407200Y-60585713D01*
X76407200Y-60585713D02*
X76454819Y-60490475D01*
X76454819Y-60490475D02*
X76454819Y-60299999D01*
X76454819Y-60299999D02*
X76407200Y-60204761D01*
X76407200Y-60204761D02*
X76359580Y-60157142D01*
X76359580Y-60157142D02*
X76264342Y-60109523D01*
X76264342Y-60109523D02*
X76026247Y-60109523D01*
X76026247Y-60109523D02*
X75931009Y-60157142D01*
X75931009Y-60157142D02*
X75883390Y-60204761D01*
X75883390Y-60204761D02*
X75835771Y-60299999D01*
X75835771Y-60299999D02*
X75835771Y-60490475D01*
X75835771Y-60490475D02*
X75883390Y-60585713D01*
X75883390Y-60585713D02*
X75931009Y-60633332D01*
X75931009Y-60633332D02*
X76026247Y-60680951D01*
X75857142Y-53929580D02*
X75809523Y-53977200D01*
X75809523Y-53977200D02*
X75666666Y-54024819D01*
X75666666Y-54024819D02*
X75571428Y-54024819D01*
X75571428Y-54024819D02*
X75428571Y-53977200D01*
X75428571Y-53977200D02*
X75333333Y-53881961D01*
X75333333Y-53881961D02*
X75285714Y-53786723D01*
X75285714Y-53786723D02*
X75238095Y-53596247D01*
X75238095Y-53596247D02*
X75238095Y-53453390D01*
X75238095Y-53453390D02*
X75285714Y-53262914D01*
X75285714Y-53262914D02*
X75333333Y-53167676D01*
X75333333Y-53167676D02*
X75428571Y-53072438D01*
X75428571Y-53072438D02*
X75571428Y-53024819D01*
X75571428Y-53024819D02*
X75666666Y-53024819D01*
X75666666Y-53024819D02*
X75809523Y-53072438D01*
X75809523Y-53072438D02*
X75857142Y-53120057D01*
X76190476Y-53024819D02*
X76809523Y-53024819D01*
X76809523Y-53024819D02*
X76476190Y-53405771D01*
X76476190Y-53405771D02*
X76619047Y-53405771D01*
X76619047Y-53405771D02*
X76714285Y-53453390D01*
X76714285Y-53453390D02*
X76761904Y-53501009D01*
X76761904Y-53501009D02*
X76809523Y-53596247D01*
X76809523Y-53596247D02*
X76809523Y-53834342D01*
X76809523Y-53834342D02*
X76761904Y-53929580D01*
X76761904Y-53929580D02*
X76714285Y-53977200D01*
X76714285Y-53977200D02*
X76619047Y-54024819D01*
X76619047Y-54024819D02*
X76333333Y-54024819D01*
X76333333Y-54024819D02*
X76238095Y-53977200D01*
X76238095Y-53977200D02*
X76190476Y-53929580D01*
X77761904Y-54024819D02*
X77190476Y-54024819D01*
X77476190Y-54024819D02*
X77476190Y-53024819D01*
X77476190Y-53024819D02*
X77380952Y-53167676D01*
X77380952Y-53167676D02*
X77285714Y-53262914D01*
X77285714Y-53262914D02*
X77190476Y-53310533D01*
X62857142Y-36524819D02*
X62523809Y-36048628D01*
X62285714Y-36524819D02*
X62285714Y-35524819D01*
X62285714Y-35524819D02*
X62666666Y-35524819D01*
X62666666Y-35524819D02*
X62761904Y-35572438D01*
X62761904Y-35572438D02*
X62809523Y-35620057D01*
X62809523Y-35620057D02*
X62857142Y-35715295D01*
X62857142Y-35715295D02*
X62857142Y-35858152D01*
X62857142Y-35858152D02*
X62809523Y-35953390D01*
X62809523Y-35953390D02*
X62761904Y-36001009D01*
X62761904Y-36001009D02*
X62666666Y-36048628D01*
X62666666Y-36048628D02*
X62285714Y-36048628D01*
X63809523Y-36524819D02*
X63238095Y-36524819D01*
X63523809Y-36524819D02*
X63523809Y-35524819D01*
X63523809Y-35524819D02*
X63428571Y-35667676D01*
X63428571Y-35667676D02*
X63333333Y-35762914D01*
X63333333Y-35762914D02*
X63238095Y-35810533D01*
X64285714Y-36524819D02*
X64476190Y-36524819D01*
X64476190Y-36524819D02*
X64571428Y-36477200D01*
X64571428Y-36477200D02*
X64619047Y-36429580D01*
X64619047Y-36429580D02*
X64714285Y-36286723D01*
X64714285Y-36286723D02*
X64761904Y-36096247D01*
X64761904Y-36096247D02*
X64761904Y-35715295D01*
X64761904Y-35715295D02*
X64714285Y-35620057D01*
X64714285Y-35620057D02*
X64666666Y-35572438D01*
X64666666Y-35572438D02*
X64571428Y-35524819D01*
X64571428Y-35524819D02*
X64380952Y-35524819D01*
X64380952Y-35524819D02*
X64285714Y-35572438D01*
X64285714Y-35572438D02*
X64238095Y-35620057D01*
X64238095Y-35620057D02*
X64190476Y-35715295D01*
X64190476Y-35715295D02*
X64190476Y-35953390D01*
X64190476Y-35953390D02*
X64238095Y-36048628D01*
X64238095Y-36048628D02*
X64285714Y-36096247D01*
X64285714Y-36096247D02*
X64380952Y-36143866D01*
X64380952Y-36143866D02*
X64571428Y-36143866D01*
X64571428Y-36143866D02*
X64666666Y-36096247D01*
X64666666Y-36096247D02*
X64714285Y-36048628D01*
X64714285Y-36048628D02*
X64761904Y-35953390D01*
X70857142Y-53929580D02*
X70809523Y-53977200D01*
X70809523Y-53977200D02*
X70666666Y-54024819D01*
X70666666Y-54024819D02*
X70571428Y-54024819D01*
X70571428Y-54024819D02*
X70428571Y-53977200D01*
X70428571Y-53977200D02*
X70333333Y-53881961D01*
X70333333Y-53881961D02*
X70285714Y-53786723D01*
X70285714Y-53786723D02*
X70238095Y-53596247D01*
X70238095Y-53596247D02*
X70238095Y-53453390D01*
X70238095Y-53453390D02*
X70285714Y-53262914D01*
X70285714Y-53262914D02*
X70333333Y-53167676D01*
X70333333Y-53167676D02*
X70428571Y-53072438D01*
X70428571Y-53072438D02*
X70571428Y-53024819D01*
X70571428Y-53024819D02*
X70666666Y-53024819D01*
X70666666Y-53024819D02*
X70809523Y-53072438D01*
X70809523Y-53072438D02*
X70857142Y-53120057D01*
X71190476Y-53024819D02*
X71809523Y-53024819D01*
X71809523Y-53024819D02*
X71476190Y-53405771D01*
X71476190Y-53405771D02*
X71619047Y-53405771D01*
X71619047Y-53405771D02*
X71714285Y-53453390D01*
X71714285Y-53453390D02*
X71761904Y-53501009D01*
X71761904Y-53501009D02*
X71809523Y-53596247D01*
X71809523Y-53596247D02*
X71809523Y-53834342D01*
X71809523Y-53834342D02*
X71761904Y-53929580D01*
X71761904Y-53929580D02*
X71714285Y-53977200D01*
X71714285Y-53977200D02*
X71619047Y-54024819D01*
X71619047Y-54024819D02*
X71333333Y-54024819D01*
X71333333Y-54024819D02*
X71238095Y-53977200D01*
X71238095Y-53977200D02*
X71190476Y-53929580D01*
X72428571Y-53024819D02*
X72523809Y-53024819D01*
X72523809Y-53024819D02*
X72619047Y-53072438D01*
X72619047Y-53072438D02*
X72666666Y-53120057D01*
X72666666Y-53120057D02*
X72714285Y-53215295D01*
X72714285Y-53215295D02*
X72761904Y-53405771D01*
X72761904Y-53405771D02*
X72761904Y-53643866D01*
X72761904Y-53643866D02*
X72714285Y-53834342D01*
X72714285Y-53834342D02*
X72666666Y-53929580D01*
X72666666Y-53929580D02*
X72619047Y-53977200D01*
X72619047Y-53977200D02*
X72523809Y-54024819D01*
X72523809Y-54024819D02*
X72428571Y-54024819D01*
X72428571Y-54024819D02*
X72333333Y-53977200D01*
X72333333Y-53977200D02*
X72285714Y-53929580D01*
X72285714Y-53929580D02*
X72238095Y-53834342D01*
X72238095Y-53834342D02*
X72190476Y-53643866D01*
X72190476Y-53643866D02*
X72190476Y-53405771D01*
X72190476Y-53405771D02*
X72238095Y-53215295D01*
X72238095Y-53215295D02*
X72285714Y-53120057D01*
X72285714Y-53120057D02*
X72333333Y-53072438D01*
X72333333Y-53072438D02*
X72428571Y-53024819D01*
X27679580Y-54166666D02*
X27727200Y-54214285D01*
X27727200Y-54214285D02*
X27774819Y-54357142D01*
X27774819Y-54357142D02*
X27774819Y-54452380D01*
X27774819Y-54452380D02*
X27727200Y-54595237D01*
X27727200Y-54595237D02*
X27631961Y-54690475D01*
X27631961Y-54690475D02*
X27536723Y-54738094D01*
X27536723Y-54738094D02*
X27346247Y-54785713D01*
X27346247Y-54785713D02*
X27203390Y-54785713D01*
X27203390Y-54785713D02*
X27012914Y-54738094D01*
X27012914Y-54738094D02*
X26917676Y-54690475D01*
X26917676Y-54690475D02*
X26822438Y-54595237D01*
X26822438Y-54595237D02*
X26774819Y-54452380D01*
X26774819Y-54452380D02*
X26774819Y-54357142D01*
X26774819Y-54357142D02*
X26822438Y-54214285D01*
X26822438Y-54214285D02*
X26870057Y-54166666D01*
X27108152Y-53309523D02*
X27774819Y-53309523D01*
X26727200Y-53547618D02*
X27441485Y-53785713D01*
X27441485Y-53785713D02*
X27441485Y-53166666D01*
X40024819Y-71642857D02*
X39548628Y-71976190D01*
X40024819Y-72214285D02*
X39024819Y-72214285D01*
X39024819Y-72214285D02*
X39024819Y-71833333D01*
X39024819Y-71833333D02*
X39072438Y-71738095D01*
X39072438Y-71738095D02*
X39120057Y-71690476D01*
X39120057Y-71690476D02*
X39215295Y-71642857D01*
X39215295Y-71642857D02*
X39358152Y-71642857D01*
X39358152Y-71642857D02*
X39453390Y-71690476D01*
X39453390Y-71690476D02*
X39501009Y-71738095D01*
X39501009Y-71738095D02*
X39548628Y-71833333D01*
X39548628Y-71833333D02*
X39548628Y-72214285D01*
X40024819Y-70690476D02*
X40024819Y-71261904D01*
X40024819Y-70976190D02*
X39024819Y-70976190D01*
X39024819Y-70976190D02*
X39167676Y-71071428D01*
X39167676Y-71071428D02*
X39262914Y-71166666D01*
X39262914Y-71166666D02*
X39310533Y-71261904D01*
X39453390Y-70119047D02*
X39405771Y-70214285D01*
X39405771Y-70214285D02*
X39358152Y-70261904D01*
X39358152Y-70261904D02*
X39262914Y-70309523D01*
X39262914Y-70309523D02*
X39215295Y-70309523D01*
X39215295Y-70309523D02*
X39120057Y-70261904D01*
X39120057Y-70261904D02*
X39072438Y-70214285D01*
X39072438Y-70214285D02*
X39024819Y-70119047D01*
X39024819Y-70119047D02*
X39024819Y-69928571D01*
X39024819Y-69928571D02*
X39072438Y-69833333D01*
X39072438Y-69833333D02*
X39120057Y-69785714D01*
X39120057Y-69785714D02*
X39215295Y-69738095D01*
X39215295Y-69738095D02*
X39262914Y-69738095D01*
X39262914Y-69738095D02*
X39358152Y-69785714D01*
X39358152Y-69785714D02*
X39405771Y-69833333D01*
X39405771Y-69833333D02*
X39453390Y-69928571D01*
X39453390Y-69928571D02*
X39453390Y-70119047D01*
X39453390Y-70119047D02*
X39501009Y-70214285D01*
X39501009Y-70214285D02*
X39548628Y-70261904D01*
X39548628Y-70261904D02*
X39643866Y-70309523D01*
X39643866Y-70309523D02*
X39834342Y-70309523D01*
X39834342Y-70309523D02*
X39929580Y-70261904D01*
X39929580Y-70261904D02*
X39977200Y-70214285D01*
X39977200Y-70214285D02*
X40024819Y-70119047D01*
X40024819Y-70119047D02*
X40024819Y-69928571D01*
X40024819Y-69928571D02*
X39977200Y-69833333D01*
X39977200Y-69833333D02*
X39929580Y-69785714D01*
X39929580Y-69785714D02*
X39834342Y-69738095D01*
X39834342Y-69738095D02*
X39643866Y-69738095D01*
X39643866Y-69738095D02*
X39548628Y-69785714D01*
X39548628Y-69785714D02*
X39501009Y-69833333D01*
X39501009Y-69833333D02*
X39453390Y-69928571D01*
X37679580Y-54166666D02*
X37727200Y-54214285D01*
X37727200Y-54214285D02*
X37774819Y-54357142D01*
X37774819Y-54357142D02*
X37774819Y-54452380D01*
X37774819Y-54452380D02*
X37727200Y-54595237D01*
X37727200Y-54595237D02*
X37631961Y-54690475D01*
X37631961Y-54690475D02*
X37536723Y-54738094D01*
X37536723Y-54738094D02*
X37346247Y-54785713D01*
X37346247Y-54785713D02*
X37203390Y-54785713D01*
X37203390Y-54785713D02*
X37012914Y-54738094D01*
X37012914Y-54738094D02*
X36917676Y-54690475D01*
X36917676Y-54690475D02*
X36822438Y-54595237D01*
X36822438Y-54595237D02*
X36774819Y-54452380D01*
X36774819Y-54452380D02*
X36774819Y-54357142D01*
X36774819Y-54357142D02*
X36822438Y-54214285D01*
X36822438Y-54214285D02*
X36870057Y-54166666D01*
X36774819Y-53261904D02*
X36774819Y-53738094D01*
X36774819Y-53738094D02*
X37251009Y-53785713D01*
X37251009Y-53785713D02*
X37203390Y-53738094D01*
X37203390Y-53738094D02*
X37155771Y-53642856D01*
X37155771Y-53642856D02*
X37155771Y-53404761D01*
X37155771Y-53404761D02*
X37203390Y-53309523D01*
X37203390Y-53309523D02*
X37251009Y-53261904D01*
X37251009Y-53261904D02*
X37346247Y-53214285D01*
X37346247Y-53214285D02*
X37584342Y-53214285D01*
X37584342Y-53214285D02*
X37679580Y-53261904D01*
X37679580Y-53261904D02*
X37727200Y-53309523D01*
X37727200Y-53309523D02*
X37774819Y-53404761D01*
X37774819Y-53404761D02*
X37774819Y-53642856D01*
X37774819Y-53642856D02*
X37727200Y-53738094D01*
X37727200Y-53738094D02*
X37679580Y-53785713D01*
X6679580Y-14166666D02*
X6727200Y-14214285D01*
X6727200Y-14214285D02*
X6774819Y-14357142D01*
X6774819Y-14357142D02*
X6774819Y-14452380D01*
X6774819Y-14452380D02*
X6727200Y-14595237D01*
X6727200Y-14595237D02*
X6631961Y-14690475D01*
X6631961Y-14690475D02*
X6536723Y-14738094D01*
X6536723Y-14738094D02*
X6346247Y-14785713D01*
X6346247Y-14785713D02*
X6203390Y-14785713D01*
X6203390Y-14785713D02*
X6012914Y-14738094D01*
X6012914Y-14738094D02*
X5917676Y-14690475D01*
X5917676Y-14690475D02*
X5822438Y-14595237D01*
X5822438Y-14595237D02*
X5774819Y-14452380D01*
X5774819Y-14452380D02*
X5774819Y-14357142D01*
X5774819Y-14357142D02*
X5822438Y-14214285D01*
X5822438Y-14214285D02*
X5870057Y-14166666D01*
X5774819Y-13309523D02*
X5774819Y-13499999D01*
X5774819Y-13499999D02*
X5822438Y-13595237D01*
X5822438Y-13595237D02*
X5870057Y-13642856D01*
X5870057Y-13642856D02*
X6012914Y-13738094D01*
X6012914Y-13738094D02*
X6203390Y-13785713D01*
X6203390Y-13785713D02*
X6584342Y-13785713D01*
X6584342Y-13785713D02*
X6679580Y-13738094D01*
X6679580Y-13738094D02*
X6727200Y-13690475D01*
X6727200Y-13690475D02*
X6774819Y-13595237D01*
X6774819Y-13595237D02*
X6774819Y-13404761D01*
X6774819Y-13404761D02*
X6727200Y-13309523D01*
X6727200Y-13309523D02*
X6679580Y-13261904D01*
X6679580Y-13261904D02*
X6584342Y-13214285D01*
X6584342Y-13214285D02*
X6346247Y-13214285D01*
X6346247Y-13214285D02*
X6251009Y-13261904D01*
X6251009Y-13261904D02*
X6203390Y-13309523D01*
X6203390Y-13309523D02*
X6155771Y-13404761D01*
X6155771Y-13404761D02*
X6155771Y-13595237D01*
X6155771Y-13595237D02*
X6203390Y-13690475D01*
X6203390Y-13690475D02*
X6251009Y-13738094D01*
X6251009Y-13738094D02*
X6346247Y-13785713D01*
X38261905Y-41954819D02*
X38261905Y-40954819D01*
X38261905Y-40954819D02*
X38500000Y-40954819D01*
X38500000Y-40954819D02*
X38642857Y-41002438D01*
X38642857Y-41002438D02*
X38738095Y-41097676D01*
X38738095Y-41097676D02*
X38785714Y-41192914D01*
X38785714Y-41192914D02*
X38833333Y-41383390D01*
X38833333Y-41383390D02*
X38833333Y-41526247D01*
X38833333Y-41526247D02*
X38785714Y-41716723D01*
X38785714Y-41716723D02*
X38738095Y-41811961D01*
X38738095Y-41811961D02*
X38642857Y-41907200D01*
X38642857Y-41907200D02*
X38500000Y-41954819D01*
X38500000Y-41954819D02*
X38261905Y-41954819D01*
X39214286Y-41050057D02*
X39261905Y-41002438D01*
X39261905Y-41002438D02*
X39357143Y-40954819D01*
X39357143Y-40954819D02*
X39595238Y-40954819D01*
X39595238Y-40954819D02*
X39690476Y-41002438D01*
X39690476Y-41002438D02*
X39738095Y-41050057D01*
X39738095Y-41050057D02*
X39785714Y-41145295D01*
X39785714Y-41145295D02*
X39785714Y-41240533D01*
X39785714Y-41240533D02*
X39738095Y-41383390D01*
X39738095Y-41383390D02*
X39166667Y-41954819D01*
X39166667Y-41954819D02*
X39785714Y-41954819D01*
X80357142Y-53929580D02*
X80309523Y-53977200D01*
X80309523Y-53977200D02*
X80166666Y-54024819D01*
X80166666Y-54024819D02*
X80071428Y-54024819D01*
X80071428Y-54024819D02*
X79928571Y-53977200D01*
X79928571Y-53977200D02*
X79833333Y-53881961D01*
X79833333Y-53881961D02*
X79785714Y-53786723D01*
X79785714Y-53786723D02*
X79738095Y-53596247D01*
X79738095Y-53596247D02*
X79738095Y-53453390D01*
X79738095Y-53453390D02*
X79785714Y-53262914D01*
X79785714Y-53262914D02*
X79833333Y-53167676D01*
X79833333Y-53167676D02*
X79928571Y-53072438D01*
X79928571Y-53072438D02*
X80071428Y-53024819D01*
X80071428Y-53024819D02*
X80166666Y-53024819D01*
X80166666Y-53024819D02*
X80309523Y-53072438D01*
X80309523Y-53072438D02*
X80357142Y-53120057D01*
X80690476Y-53024819D02*
X81309523Y-53024819D01*
X81309523Y-53024819D02*
X80976190Y-53405771D01*
X80976190Y-53405771D02*
X81119047Y-53405771D01*
X81119047Y-53405771D02*
X81214285Y-53453390D01*
X81214285Y-53453390D02*
X81261904Y-53501009D01*
X81261904Y-53501009D02*
X81309523Y-53596247D01*
X81309523Y-53596247D02*
X81309523Y-53834342D01*
X81309523Y-53834342D02*
X81261904Y-53929580D01*
X81261904Y-53929580D02*
X81214285Y-53977200D01*
X81214285Y-53977200D02*
X81119047Y-54024819D01*
X81119047Y-54024819D02*
X80833333Y-54024819D01*
X80833333Y-54024819D02*
X80738095Y-53977200D01*
X80738095Y-53977200D02*
X80690476Y-53929580D01*
X81690476Y-53120057D02*
X81738095Y-53072438D01*
X81738095Y-53072438D02*
X81833333Y-53024819D01*
X81833333Y-53024819D02*
X82071428Y-53024819D01*
X82071428Y-53024819D02*
X82166666Y-53072438D01*
X82166666Y-53072438D02*
X82214285Y-53120057D01*
X82214285Y-53120057D02*
X82261904Y-53215295D01*
X82261904Y-53215295D02*
X82261904Y-53310533D01*
X82261904Y-53310533D02*
X82214285Y-53453390D01*
X82214285Y-53453390D02*
X81642857Y-54024819D01*
X81642857Y-54024819D02*
X82261904Y-54024819D01*
X19024819Y-69166666D02*
X18548628Y-69499999D01*
X19024819Y-69738094D02*
X18024819Y-69738094D01*
X18024819Y-69738094D02*
X18024819Y-69357142D01*
X18024819Y-69357142D02*
X18072438Y-69261904D01*
X18072438Y-69261904D02*
X18120057Y-69214285D01*
X18120057Y-69214285D02*
X18215295Y-69166666D01*
X18215295Y-69166666D02*
X18358152Y-69166666D01*
X18358152Y-69166666D02*
X18453390Y-69214285D01*
X18453390Y-69214285D02*
X18501009Y-69261904D01*
X18501009Y-69261904D02*
X18548628Y-69357142D01*
X18548628Y-69357142D02*
X18548628Y-69738094D01*
X18120057Y-68785713D02*
X18072438Y-68738094D01*
X18072438Y-68738094D02*
X18024819Y-68642856D01*
X18024819Y-68642856D02*
X18024819Y-68404761D01*
X18024819Y-68404761D02*
X18072438Y-68309523D01*
X18072438Y-68309523D02*
X18120057Y-68261904D01*
X18120057Y-68261904D02*
X18215295Y-68214285D01*
X18215295Y-68214285D02*
X18310533Y-68214285D01*
X18310533Y-68214285D02*
X18453390Y-68261904D01*
X18453390Y-68261904D02*
X19024819Y-68833332D01*
X19024819Y-68833332D02*
X19024819Y-68214285D01*
X9024819Y-54642857D02*
X8548628Y-54976190D01*
X9024819Y-55214285D02*
X8024819Y-55214285D01*
X8024819Y-55214285D02*
X8024819Y-54833333D01*
X8024819Y-54833333D02*
X8072438Y-54738095D01*
X8072438Y-54738095D02*
X8120057Y-54690476D01*
X8120057Y-54690476D02*
X8215295Y-54642857D01*
X8215295Y-54642857D02*
X8358152Y-54642857D01*
X8358152Y-54642857D02*
X8453390Y-54690476D01*
X8453390Y-54690476D02*
X8501009Y-54738095D01*
X8501009Y-54738095D02*
X8548628Y-54833333D01*
X8548628Y-54833333D02*
X8548628Y-55214285D01*
X9024819Y-53690476D02*
X9024819Y-54261904D01*
X9024819Y-53976190D02*
X8024819Y-53976190D01*
X8024819Y-53976190D02*
X8167676Y-54071428D01*
X8167676Y-54071428D02*
X8262914Y-54166666D01*
X8262914Y-54166666D02*
X8310533Y-54261904D01*
X8024819Y-52833333D02*
X8024819Y-53023809D01*
X8024819Y-53023809D02*
X8072438Y-53119047D01*
X8072438Y-53119047D02*
X8120057Y-53166666D01*
X8120057Y-53166666D02*
X8262914Y-53261904D01*
X8262914Y-53261904D02*
X8453390Y-53309523D01*
X8453390Y-53309523D02*
X8834342Y-53309523D01*
X8834342Y-53309523D02*
X8929580Y-53261904D01*
X8929580Y-53261904D02*
X8977200Y-53214285D01*
X8977200Y-53214285D02*
X9024819Y-53119047D01*
X9024819Y-53119047D02*
X9024819Y-52928571D01*
X9024819Y-52928571D02*
X8977200Y-52833333D01*
X8977200Y-52833333D02*
X8929580Y-52785714D01*
X8929580Y-52785714D02*
X8834342Y-52738095D01*
X8834342Y-52738095D02*
X8596247Y-52738095D01*
X8596247Y-52738095D02*
X8501009Y-52785714D01*
X8501009Y-52785714D02*
X8453390Y-52833333D01*
X8453390Y-52833333D02*
X8405771Y-52928571D01*
X8405771Y-52928571D02*
X8405771Y-53119047D01*
X8405771Y-53119047D02*
X8453390Y-53214285D01*
X8453390Y-53214285D02*
X8501009Y-53261904D01*
X8501009Y-53261904D02*
X8596247Y-53309523D01*
X64929580Y-20642857D02*
X64977200Y-20690476D01*
X64977200Y-20690476D02*
X65024819Y-20833333D01*
X65024819Y-20833333D02*
X65024819Y-20928571D01*
X65024819Y-20928571D02*
X64977200Y-21071428D01*
X64977200Y-21071428D02*
X64881961Y-21166666D01*
X64881961Y-21166666D02*
X64786723Y-21214285D01*
X64786723Y-21214285D02*
X64596247Y-21261904D01*
X64596247Y-21261904D02*
X64453390Y-21261904D01*
X64453390Y-21261904D02*
X64262914Y-21214285D01*
X64262914Y-21214285D02*
X64167676Y-21166666D01*
X64167676Y-21166666D02*
X64072438Y-21071428D01*
X64072438Y-21071428D02*
X64024819Y-20928571D01*
X64024819Y-20928571D02*
X64024819Y-20833333D01*
X64024819Y-20833333D02*
X64072438Y-20690476D01*
X64072438Y-20690476D02*
X64120057Y-20642857D01*
X65024819Y-19690476D02*
X65024819Y-20261904D01*
X65024819Y-19976190D02*
X64024819Y-19976190D01*
X64024819Y-19976190D02*
X64167676Y-20071428D01*
X64167676Y-20071428D02*
X64262914Y-20166666D01*
X64262914Y-20166666D02*
X64310533Y-20261904D01*
X64120057Y-19309523D02*
X64072438Y-19261904D01*
X64072438Y-19261904D02*
X64024819Y-19166666D01*
X64024819Y-19166666D02*
X64024819Y-18928571D01*
X64024819Y-18928571D02*
X64072438Y-18833333D01*
X64072438Y-18833333D02*
X64120057Y-18785714D01*
X64120057Y-18785714D02*
X64215295Y-18738095D01*
X64215295Y-18738095D02*
X64310533Y-18738095D01*
X64310533Y-18738095D02*
X64453390Y-18785714D01*
X64453390Y-18785714D02*
X65024819Y-19357142D01*
X65024819Y-19357142D02*
X65024819Y-18738095D01*
X20238095Y-40254819D02*
X20238095Y-41064342D01*
X20238095Y-41064342D02*
X20285714Y-41159580D01*
X20285714Y-41159580D02*
X20333333Y-41207200D01*
X20333333Y-41207200D02*
X20428571Y-41254819D01*
X20428571Y-41254819D02*
X20619047Y-41254819D01*
X20619047Y-41254819D02*
X20714285Y-41207200D01*
X20714285Y-41207200D02*
X20761904Y-41159580D01*
X20761904Y-41159580D02*
X20809523Y-41064342D01*
X20809523Y-41064342D02*
X20809523Y-40254819D01*
X21714285Y-40254819D02*
X21523809Y-40254819D01*
X21523809Y-40254819D02*
X21428571Y-40302438D01*
X21428571Y-40302438D02*
X21380952Y-40350057D01*
X21380952Y-40350057D02*
X21285714Y-40492914D01*
X21285714Y-40492914D02*
X21238095Y-40683390D01*
X21238095Y-40683390D02*
X21238095Y-41064342D01*
X21238095Y-41064342D02*
X21285714Y-41159580D01*
X21285714Y-41159580D02*
X21333333Y-41207200D01*
X21333333Y-41207200D02*
X21428571Y-41254819D01*
X21428571Y-41254819D02*
X21619047Y-41254819D01*
X21619047Y-41254819D02*
X21714285Y-41207200D01*
X21714285Y-41207200D02*
X21761904Y-41159580D01*
X21761904Y-41159580D02*
X21809523Y-41064342D01*
X21809523Y-41064342D02*
X21809523Y-40826247D01*
X21809523Y-40826247D02*
X21761904Y-40731009D01*
X21761904Y-40731009D02*
X21714285Y-40683390D01*
X21714285Y-40683390D02*
X21619047Y-40635771D01*
X21619047Y-40635771D02*
X21428571Y-40635771D01*
X21428571Y-40635771D02*
X21333333Y-40683390D01*
X21333333Y-40683390D02*
X21285714Y-40731009D01*
X21285714Y-40731009D02*
X21238095Y-40826247D01*
X56357142Y-40929580D02*
X56309523Y-40977200D01*
X56309523Y-40977200D02*
X56166666Y-41024819D01*
X56166666Y-41024819D02*
X56071428Y-41024819D01*
X56071428Y-41024819D02*
X55928571Y-40977200D01*
X55928571Y-40977200D02*
X55833333Y-40881961D01*
X55833333Y-40881961D02*
X55785714Y-40786723D01*
X55785714Y-40786723D02*
X55738095Y-40596247D01*
X55738095Y-40596247D02*
X55738095Y-40453390D01*
X55738095Y-40453390D02*
X55785714Y-40262914D01*
X55785714Y-40262914D02*
X55833333Y-40167676D01*
X55833333Y-40167676D02*
X55928571Y-40072438D01*
X55928571Y-40072438D02*
X56071428Y-40024819D01*
X56071428Y-40024819D02*
X56166666Y-40024819D01*
X56166666Y-40024819D02*
X56309523Y-40072438D01*
X56309523Y-40072438D02*
X56357142Y-40120057D01*
X56738095Y-40120057D02*
X56785714Y-40072438D01*
X56785714Y-40072438D02*
X56880952Y-40024819D01*
X56880952Y-40024819D02*
X57119047Y-40024819D01*
X57119047Y-40024819D02*
X57214285Y-40072438D01*
X57214285Y-40072438D02*
X57261904Y-40120057D01*
X57261904Y-40120057D02*
X57309523Y-40215295D01*
X57309523Y-40215295D02*
X57309523Y-40310533D01*
X57309523Y-40310533D02*
X57261904Y-40453390D01*
X57261904Y-40453390D02*
X56690476Y-41024819D01*
X56690476Y-41024819D02*
X57309523Y-41024819D01*
X58166666Y-40024819D02*
X57976190Y-40024819D01*
X57976190Y-40024819D02*
X57880952Y-40072438D01*
X57880952Y-40072438D02*
X57833333Y-40120057D01*
X57833333Y-40120057D02*
X57738095Y-40262914D01*
X57738095Y-40262914D02*
X57690476Y-40453390D01*
X57690476Y-40453390D02*
X57690476Y-40834342D01*
X57690476Y-40834342D02*
X57738095Y-40929580D01*
X57738095Y-40929580D02*
X57785714Y-40977200D01*
X57785714Y-40977200D02*
X57880952Y-41024819D01*
X57880952Y-41024819D02*
X58071428Y-41024819D01*
X58071428Y-41024819D02*
X58166666Y-40977200D01*
X58166666Y-40977200D02*
X58214285Y-40929580D01*
X58214285Y-40929580D02*
X58261904Y-40834342D01*
X58261904Y-40834342D02*
X58261904Y-40596247D01*
X58261904Y-40596247D02*
X58214285Y-40501009D01*
X58214285Y-40501009D02*
X58166666Y-40453390D01*
X58166666Y-40453390D02*
X58071428Y-40405771D01*
X58071428Y-40405771D02*
X57880952Y-40405771D01*
X57880952Y-40405771D02*
X57785714Y-40453390D01*
X57785714Y-40453390D02*
X57738095Y-40501009D01*
X57738095Y-40501009D02*
X57690476Y-40596247D01*
X11333333Y-59024819D02*
X11000000Y-58548628D01*
X10761905Y-59024819D02*
X10761905Y-58024819D01*
X10761905Y-58024819D02*
X11142857Y-58024819D01*
X11142857Y-58024819D02*
X11238095Y-58072438D01*
X11238095Y-58072438D02*
X11285714Y-58120057D01*
X11285714Y-58120057D02*
X11333333Y-58215295D01*
X11333333Y-58215295D02*
X11333333Y-58358152D01*
X11333333Y-58358152D02*
X11285714Y-58453390D01*
X11285714Y-58453390D02*
X11238095Y-58501009D01*
X11238095Y-58501009D02*
X11142857Y-58548628D01*
X11142857Y-58548628D02*
X10761905Y-58548628D01*
X12190476Y-58024819D02*
X12000000Y-58024819D01*
X12000000Y-58024819D02*
X11904762Y-58072438D01*
X11904762Y-58072438D02*
X11857143Y-58120057D01*
X11857143Y-58120057D02*
X11761905Y-58262914D01*
X11761905Y-58262914D02*
X11714286Y-58453390D01*
X11714286Y-58453390D02*
X11714286Y-58834342D01*
X11714286Y-58834342D02*
X11761905Y-58929580D01*
X11761905Y-58929580D02*
X11809524Y-58977200D01*
X11809524Y-58977200D02*
X11904762Y-59024819D01*
X11904762Y-59024819D02*
X12095238Y-59024819D01*
X12095238Y-59024819D02*
X12190476Y-58977200D01*
X12190476Y-58977200D02*
X12238095Y-58929580D01*
X12238095Y-58929580D02*
X12285714Y-58834342D01*
X12285714Y-58834342D02*
X12285714Y-58596247D01*
X12285714Y-58596247D02*
X12238095Y-58501009D01*
X12238095Y-58501009D02*
X12190476Y-58453390D01*
X12190476Y-58453390D02*
X12095238Y-58405771D01*
X12095238Y-58405771D02*
X11904762Y-58405771D01*
X11904762Y-58405771D02*
X11809524Y-58453390D01*
X11809524Y-58453390D02*
X11761905Y-58501009D01*
X11761905Y-58501009D02*
X11714286Y-58596247D01*
X56357142Y-47929580D02*
X56309523Y-47977200D01*
X56309523Y-47977200D02*
X56166666Y-48024819D01*
X56166666Y-48024819D02*
X56071428Y-48024819D01*
X56071428Y-48024819D02*
X55928571Y-47977200D01*
X55928571Y-47977200D02*
X55833333Y-47881961D01*
X55833333Y-47881961D02*
X55785714Y-47786723D01*
X55785714Y-47786723D02*
X55738095Y-47596247D01*
X55738095Y-47596247D02*
X55738095Y-47453390D01*
X55738095Y-47453390D02*
X55785714Y-47262914D01*
X55785714Y-47262914D02*
X55833333Y-47167676D01*
X55833333Y-47167676D02*
X55928571Y-47072438D01*
X55928571Y-47072438D02*
X56071428Y-47024819D01*
X56071428Y-47024819D02*
X56166666Y-47024819D01*
X56166666Y-47024819D02*
X56309523Y-47072438D01*
X56309523Y-47072438D02*
X56357142Y-47120057D01*
X56738095Y-47120057D02*
X56785714Y-47072438D01*
X56785714Y-47072438D02*
X56880952Y-47024819D01*
X56880952Y-47024819D02*
X57119047Y-47024819D01*
X57119047Y-47024819D02*
X57214285Y-47072438D01*
X57214285Y-47072438D02*
X57261904Y-47120057D01*
X57261904Y-47120057D02*
X57309523Y-47215295D01*
X57309523Y-47215295D02*
X57309523Y-47310533D01*
X57309523Y-47310533D02*
X57261904Y-47453390D01*
X57261904Y-47453390D02*
X56690476Y-48024819D01*
X56690476Y-48024819D02*
X57309523Y-48024819D01*
X57880952Y-47453390D02*
X57785714Y-47405771D01*
X57785714Y-47405771D02*
X57738095Y-47358152D01*
X57738095Y-47358152D02*
X57690476Y-47262914D01*
X57690476Y-47262914D02*
X57690476Y-47215295D01*
X57690476Y-47215295D02*
X57738095Y-47120057D01*
X57738095Y-47120057D02*
X57785714Y-47072438D01*
X57785714Y-47072438D02*
X57880952Y-47024819D01*
X57880952Y-47024819D02*
X58071428Y-47024819D01*
X58071428Y-47024819D02*
X58166666Y-47072438D01*
X58166666Y-47072438D02*
X58214285Y-47120057D01*
X58214285Y-47120057D02*
X58261904Y-47215295D01*
X58261904Y-47215295D02*
X58261904Y-47262914D01*
X58261904Y-47262914D02*
X58214285Y-47358152D01*
X58214285Y-47358152D02*
X58166666Y-47405771D01*
X58166666Y-47405771D02*
X58071428Y-47453390D01*
X58071428Y-47453390D02*
X57880952Y-47453390D01*
X57880952Y-47453390D02*
X57785714Y-47501009D01*
X57785714Y-47501009D02*
X57738095Y-47548628D01*
X57738095Y-47548628D02*
X57690476Y-47643866D01*
X57690476Y-47643866D02*
X57690476Y-47834342D01*
X57690476Y-47834342D02*
X57738095Y-47929580D01*
X57738095Y-47929580D02*
X57785714Y-47977200D01*
X57785714Y-47977200D02*
X57880952Y-48024819D01*
X57880952Y-48024819D02*
X58071428Y-48024819D01*
X58071428Y-48024819D02*
X58166666Y-47977200D01*
X58166666Y-47977200D02*
X58214285Y-47929580D01*
X58214285Y-47929580D02*
X58261904Y-47834342D01*
X58261904Y-47834342D02*
X58261904Y-47643866D01*
X58261904Y-47643866D02*
X58214285Y-47548628D01*
X58214285Y-47548628D02*
X58166666Y-47501009D01*
X58166666Y-47501009D02*
X58071428Y-47453390D01*
X13238095Y-42504819D02*
X13238095Y-43314342D01*
X13238095Y-43314342D02*
X13285714Y-43409580D01*
X13285714Y-43409580D02*
X13333333Y-43457200D01*
X13333333Y-43457200D02*
X13428571Y-43504819D01*
X13428571Y-43504819D02*
X13619047Y-43504819D01*
X13619047Y-43504819D02*
X13714285Y-43457200D01*
X13714285Y-43457200D02*
X13761904Y-43409580D01*
X13761904Y-43409580D02*
X13809523Y-43314342D01*
X13809523Y-43314342D02*
X13809523Y-42504819D01*
X14761904Y-42504819D02*
X14285714Y-42504819D01*
X14285714Y-42504819D02*
X14238095Y-42981009D01*
X14238095Y-42981009D02*
X14285714Y-42933390D01*
X14285714Y-42933390D02*
X14380952Y-42885771D01*
X14380952Y-42885771D02*
X14619047Y-42885771D01*
X14619047Y-42885771D02*
X14714285Y-42933390D01*
X14714285Y-42933390D02*
X14761904Y-42981009D01*
X14761904Y-42981009D02*
X14809523Y-43076247D01*
X14809523Y-43076247D02*
X14809523Y-43314342D01*
X14809523Y-43314342D02*
X14761904Y-43409580D01*
X14761904Y-43409580D02*
X14714285Y-43457200D01*
X14714285Y-43457200D02*
X14619047Y-43504819D01*
X14619047Y-43504819D02*
X14380952Y-43504819D01*
X14380952Y-43504819D02*
X14285714Y-43457200D01*
X14285714Y-43457200D02*
X14238095Y-43409580D01*
X90857142Y-31059580D02*
X90809523Y-31107200D01*
X90809523Y-31107200D02*
X90666666Y-31154819D01*
X90666666Y-31154819D02*
X90571428Y-31154819D01*
X90571428Y-31154819D02*
X90428571Y-31107200D01*
X90428571Y-31107200D02*
X90333333Y-31011961D01*
X90333333Y-31011961D02*
X90285714Y-30916723D01*
X90285714Y-30916723D02*
X90238095Y-30726247D01*
X90238095Y-30726247D02*
X90238095Y-30583390D01*
X90238095Y-30583390D02*
X90285714Y-30392914D01*
X90285714Y-30392914D02*
X90333333Y-30297676D01*
X90333333Y-30297676D02*
X90428571Y-30202438D01*
X90428571Y-30202438D02*
X90571428Y-30154819D01*
X90571428Y-30154819D02*
X90666666Y-30154819D01*
X90666666Y-30154819D02*
X90809523Y-30202438D01*
X90809523Y-30202438D02*
X90857142Y-30250057D01*
X91809523Y-31154819D02*
X91238095Y-31154819D01*
X91523809Y-31154819D02*
X91523809Y-30154819D01*
X91523809Y-30154819D02*
X91428571Y-30297676D01*
X91428571Y-30297676D02*
X91333333Y-30392914D01*
X91333333Y-30392914D02*
X91238095Y-30440533D01*
X92380952Y-30583390D02*
X92285714Y-30535771D01*
X92285714Y-30535771D02*
X92238095Y-30488152D01*
X92238095Y-30488152D02*
X92190476Y-30392914D01*
X92190476Y-30392914D02*
X92190476Y-30345295D01*
X92190476Y-30345295D02*
X92238095Y-30250057D01*
X92238095Y-30250057D02*
X92285714Y-30202438D01*
X92285714Y-30202438D02*
X92380952Y-30154819D01*
X92380952Y-30154819D02*
X92571428Y-30154819D01*
X92571428Y-30154819D02*
X92666666Y-30202438D01*
X92666666Y-30202438D02*
X92714285Y-30250057D01*
X92714285Y-30250057D02*
X92761904Y-30345295D01*
X92761904Y-30345295D02*
X92761904Y-30392914D01*
X92761904Y-30392914D02*
X92714285Y-30488152D01*
X92714285Y-30488152D02*
X92666666Y-30535771D01*
X92666666Y-30535771D02*
X92571428Y-30583390D01*
X92571428Y-30583390D02*
X92380952Y-30583390D01*
X92380952Y-30583390D02*
X92285714Y-30631009D01*
X92285714Y-30631009D02*
X92238095Y-30678628D01*
X92238095Y-30678628D02*
X92190476Y-30773866D01*
X92190476Y-30773866D02*
X92190476Y-30964342D01*
X92190476Y-30964342D02*
X92238095Y-31059580D01*
X92238095Y-31059580D02*
X92285714Y-31107200D01*
X92285714Y-31107200D02*
X92380952Y-31154819D01*
X92380952Y-31154819D02*
X92571428Y-31154819D01*
X92571428Y-31154819D02*
X92666666Y-31107200D01*
X92666666Y-31107200D02*
X92714285Y-31059580D01*
X92714285Y-31059580D02*
X92761904Y-30964342D01*
X92761904Y-30964342D02*
X92761904Y-30773866D01*
X92761904Y-30773866D02*
X92714285Y-30678628D01*
X92714285Y-30678628D02*
X92666666Y-30631009D01*
X92666666Y-30631009D02*
X92571428Y-30583390D01*
X79357142Y-31024819D02*
X79023809Y-30548628D01*
X78785714Y-31024819D02*
X78785714Y-30024819D01*
X78785714Y-30024819D02*
X79166666Y-30024819D01*
X79166666Y-30024819D02*
X79261904Y-30072438D01*
X79261904Y-30072438D02*
X79309523Y-30120057D01*
X79309523Y-30120057D02*
X79357142Y-30215295D01*
X79357142Y-30215295D02*
X79357142Y-30358152D01*
X79357142Y-30358152D02*
X79309523Y-30453390D01*
X79309523Y-30453390D02*
X79261904Y-30501009D01*
X79261904Y-30501009D02*
X79166666Y-30548628D01*
X79166666Y-30548628D02*
X78785714Y-30548628D01*
X80309523Y-31024819D02*
X79738095Y-31024819D01*
X80023809Y-31024819D02*
X80023809Y-30024819D01*
X80023809Y-30024819D02*
X79928571Y-30167676D01*
X79928571Y-30167676D02*
X79833333Y-30262914D01*
X79833333Y-30262914D02*
X79738095Y-30310533D01*
X80928571Y-30024819D02*
X81023809Y-30024819D01*
X81023809Y-30024819D02*
X81119047Y-30072438D01*
X81119047Y-30072438D02*
X81166666Y-30120057D01*
X81166666Y-30120057D02*
X81214285Y-30215295D01*
X81214285Y-30215295D02*
X81261904Y-30405771D01*
X81261904Y-30405771D02*
X81261904Y-30643866D01*
X81261904Y-30643866D02*
X81214285Y-30834342D01*
X81214285Y-30834342D02*
X81166666Y-30929580D01*
X81166666Y-30929580D02*
X81119047Y-30977200D01*
X81119047Y-30977200D02*
X81023809Y-31024819D01*
X81023809Y-31024819D02*
X80928571Y-31024819D01*
X80928571Y-31024819D02*
X80833333Y-30977200D01*
X80833333Y-30977200D02*
X80785714Y-30929580D01*
X80785714Y-30929580D02*
X80738095Y-30834342D01*
X80738095Y-30834342D02*
X80690476Y-30643866D01*
X80690476Y-30643866D02*
X80690476Y-30405771D01*
X80690476Y-30405771D02*
X80738095Y-30215295D01*
X80738095Y-30215295D02*
X80785714Y-30120057D01*
X80785714Y-30120057D02*
X80833333Y-30072438D01*
X80833333Y-30072438D02*
X80928571Y-30024819D01*
X10524819Y-68166666D02*
X10048628Y-68499999D01*
X10524819Y-68738094D02*
X9524819Y-68738094D01*
X9524819Y-68738094D02*
X9524819Y-68357142D01*
X9524819Y-68357142D02*
X9572438Y-68261904D01*
X9572438Y-68261904D02*
X9620057Y-68214285D01*
X9620057Y-68214285D02*
X9715295Y-68166666D01*
X9715295Y-68166666D02*
X9858152Y-68166666D01*
X9858152Y-68166666D02*
X9953390Y-68214285D01*
X9953390Y-68214285D02*
X10001009Y-68261904D01*
X10001009Y-68261904D02*
X10048628Y-68357142D01*
X10048628Y-68357142D02*
X10048628Y-68738094D01*
X10524819Y-67214285D02*
X10524819Y-67785713D01*
X10524819Y-67499999D02*
X9524819Y-67499999D01*
X9524819Y-67499999D02*
X9667676Y-67595237D01*
X9667676Y-67595237D02*
X9762914Y-67690475D01*
X9762914Y-67690475D02*
X9810533Y-67785713D01*
X73238095Y-37731819D02*
X73238095Y-38541342D01*
X73238095Y-38541342D02*
X73285714Y-38636580D01*
X73285714Y-38636580D02*
X73333333Y-38684200D01*
X73333333Y-38684200D02*
X73428571Y-38731819D01*
X73428571Y-38731819D02*
X73619047Y-38731819D01*
X73619047Y-38731819D02*
X73714285Y-38684200D01*
X73714285Y-38684200D02*
X73761904Y-38636580D01*
X73761904Y-38636580D02*
X73809523Y-38541342D01*
X73809523Y-38541342D02*
X73809523Y-37731819D01*
X74809523Y-38731819D02*
X74238095Y-38731819D01*
X74523809Y-38731819D02*
X74523809Y-37731819D01*
X74523809Y-37731819D02*
X74428571Y-37874676D01*
X74428571Y-37874676D02*
X74333333Y-37969914D01*
X74333333Y-37969914D02*
X74238095Y-38017533D01*
X11333333Y-64024819D02*
X11000000Y-63548628D01*
X10761905Y-64024819D02*
X10761905Y-63024819D01*
X10761905Y-63024819D02*
X11142857Y-63024819D01*
X11142857Y-63024819D02*
X11238095Y-63072438D01*
X11238095Y-63072438D02*
X11285714Y-63120057D01*
X11285714Y-63120057D02*
X11333333Y-63215295D01*
X11333333Y-63215295D02*
X11333333Y-63358152D01*
X11333333Y-63358152D02*
X11285714Y-63453390D01*
X11285714Y-63453390D02*
X11238095Y-63501009D01*
X11238095Y-63501009D02*
X11142857Y-63548628D01*
X11142857Y-63548628D02*
X10761905Y-63548628D01*
X12238095Y-63024819D02*
X11761905Y-63024819D01*
X11761905Y-63024819D02*
X11714286Y-63501009D01*
X11714286Y-63501009D02*
X11761905Y-63453390D01*
X11761905Y-63453390D02*
X11857143Y-63405771D01*
X11857143Y-63405771D02*
X12095238Y-63405771D01*
X12095238Y-63405771D02*
X12190476Y-63453390D01*
X12190476Y-63453390D02*
X12238095Y-63501009D01*
X12238095Y-63501009D02*
X12285714Y-63596247D01*
X12285714Y-63596247D02*
X12285714Y-63834342D01*
X12285714Y-63834342D02*
X12238095Y-63929580D01*
X12238095Y-63929580D02*
X12190476Y-63977200D01*
X12190476Y-63977200D02*
X12095238Y-64024819D01*
X12095238Y-64024819D02*
X11857143Y-64024819D01*
X11857143Y-64024819D02*
X11761905Y-63977200D01*
X11761905Y-63977200D02*
X11714286Y-63929580D01*
X41333333Y-60679580D02*
X41285714Y-60727200D01*
X41285714Y-60727200D02*
X41142857Y-60774819D01*
X41142857Y-60774819D02*
X41047619Y-60774819D01*
X41047619Y-60774819D02*
X40904762Y-60727200D01*
X40904762Y-60727200D02*
X40809524Y-60631961D01*
X40809524Y-60631961D02*
X40761905Y-60536723D01*
X40761905Y-60536723D02*
X40714286Y-60346247D01*
X40714286Y-60346247D02*
X40714286Y-60203390D01*
X40714286Y-60203390D02*
X40761905Y-60012914D01*
X40761905Y-60012914D02*
X40809524Y-59917676D01*
X40809524Y-59917676D02*
X40904762Y-59822438D01*
X40904762Y-59822438D02*
X41047619Y-59774819D01*
X41047619Y-59774819D02*
X41142857Y-59774819D01*
X41142857Y-59774819D02*
X41285714Y-59822438D01*
X41285714Y-59822438D02*
X41333333Y-59870057D01*
X41714286Y-59870057D02*
X41761905Y-59822438D01*
X41761905Y-59822438D02*
X41857143Y-59774819D01*
X41857143Y-59774819D02*
X42095238Y-59774819D01*
X42095238Y-59774819D02*
X42190476Y-59822438D01*
X42190476Y-59822438D02*
X42238095Y-59870057D01*
X42238095Y-59870057D02*
X42285714Y-59965295D01*
X42285714Y-59965295D02*
X42285714Y-60060533D01*
X42285714Y-60060533D02*
X42238095Y-60203390D01*
X42238095Y-60203390D02*
X41666667Y-60774819D01*
X41666667Y-60774819D02*
X42285714Y-60774819D01*
X66454819Y-60966666D02*
X66454819Y-61442856D01*
X66454819Y-61442856D02*
X65454819Y-61442856D01*
X65454819Y-60728570D02*
X65454819Y-60109523D01*
X65454819Y-60109523D02*
X65835771Y-60442856D01*
X65835771Y-60442856D02*
X65835771Y-60299999D01*
X65835771Y-60299999D02*
X65883390Y-60204761D01*
X65883390Y-60204761D02*
X65931009Y-60157142D01*
X65931009Y-60157142D02*
X66026247Y-60109523D01*
X66026247Y-60109523D02*
X66264342Y-60109523D01*
X66264342Y-60109523D02*
X66359580Y-60157142D01*
X66359580Y-60157142D02*
X66407200Y-60204761D01*
X66407200Y-60204761D02*
X66454819Y-60299999D01*
X66454819Y-60299999D02*
X66454819Y-60585713D01*
X66454819Y-60585713D02*
X66407200Y-60680951D01*
X66407200Y-60680951D02*
X66359580Y-60728570D01*
X7429580Y-41642857D02*
X7477200Y-41690476D01*
X7477200Y-41690476D02*
X7524819Y-41833333D01*
X7524819Y-41833333D02*
X7524819Y-41928571D01*
X7524819Y-41928571D02*
X7477200Y-42071428D01*
X7477200Y-42071428D02*
X7381961Y-42166666D01*
X7381961Y-42166666D02*
X7286723Y-42214285D01*
X7286723Y-42214285D02*
X7096247Y-42261904D01*
X7096247Y-42261904D02*
X6953390Y-42261904D01*
X6953390Y-42261904D02*
X6762914Y-42214285D01*
X6762914Y-42214285D02*
X6667676Y-42166666D01*
X6667676Y-42166666D02*
X6572438Y-42071428D01*
X6572438Y-42071428D02*
X6524819Y-41928571D01*
X6524819Y-41928571D02*
X6524819Y-41833333D01*
X6524819Y-41833333D02*
X6572438Y-41690476D01*
X6572438Y-41690476D02*
X6620057Y-41642857D01*
X6524819Y-41309523D02*
X6524819Y-40690476D01*
X6524819Y-40690476D02*
X6905771Y-41023809D01*
X6905771Y-41023809D02*
X6905771Y-40880952D01*
X6905771Y-40880952D02*
X6953390Y-40785714D01*
X6953390Y-40785714D02*
X7001009Y-40738095D01*
X7001009Y-40738095D02*
X7096247Y-40690476D01*
X7096247Y-40690476D02*
X7334342Y-40690476D01*
X7334342Y-40690476D02*
X7429580Y-40738095D01*
X7429580Y-40738095D02*
X7477200Y-40785714D01*
X7477200Y-40785714D02*
X7524819Y-40880952D01*
X7524819Y-40880952D02*
X7524819Y-41166666D01*
X7524819Y-41166666D02*
X7477200Y-41261904D01*
X7477200Y-41261904D02*
X7429580Y-41309523D01*
X6524819Y-40357142D02*
X6524819Y-39690476D01*
X6524819Y-39690476D02*
X7524819Y-40119047D01*
X44679580Y-23142857D02*
X44727200Y-23190476D01*
X44727200Y-23190476D02*
X44774819Y-23333333D01*
X44774819Y-23333333D02*
X44774819Y-23428571D01*
X44774819Y-23428571D02*
X44727200Y-23571428D01*
X44727200Y-23571428D02*
X44631961Y-23666666D01*
X44631961Y-23666666D02*
X44536723Y-23714285D01*
X44536723Y-23714285D02*
X44346247Y-23761904D01*
X44346247Y-23761904D02*
X44203390Y-23761904D01*
X44203390Y-23761904D02*
X44012914Y-23714285D01*
X44012914Y-23714285D02*
X43917676Y-23666666D01*
X43917676Y-23666666D02*
X43822438Y-23571428D01*
X43822438Y-23571428D02*
X43774819Y-23428571D01*
X43774819Y-23428571D02*
X43774819Y-23333333D01*
X43774819Y-23333333D02*
X43822438Y-23190476D01*
X43822438Y-23190476D02*
X43870057Y-23142857D01*
X44774819Y-22190476D02*
X44774819Y-22761904D01*
X44774819Y-22476190D02*
X43774819Y-22476190D01*
X43774819Y-22476190D02*
X43917676Y-22571428D01*
X43917676Y-22571428D02*
X44012914Y-22666666D01*
X44012914Y-22666666D02*
X44060533Y-22761904D01*
X43774819Y-21571428D02*
X43774819Y-21476190D01*
X43774819Y-21476190D02*
X43822438Y-21380952D01*
X43822438Y-21380952D02*
X43870057Y-21333333D01*
X43870057Y-21333333D02*
X43965295Y-21285714D01*
X43965295Y-21285714D02*
X44155771Y-21238095D01*
X44155771Y-21238095D02*
X44393866Y-21238095D01*
X44393866Y-21238095D02*
X44584342Y-21285714D01*
X44584342Y-21285714D02*
X44679580Y-21333333D01*
X44679580Y-21333333D02*
X44727200Y-21380952D01*
X44727200Y-21380952D02*
X44774819Y-21476190D01*
X44774819Y-21476190D02*
X44774819Y-21571428D01*
X44774819Y-21571428D02*
X44727200Y-21666666D01*
X44727200Y-21666666D02*
X44679580Y-21714285D01*
X44679580Y-21714285D02*
X44584342Y-21761904D01*
X44584342Y-21761904D02*
X44393866Y-21809523D01*
X44393866Y-21809523D02*
X44155771Y-21809523D01*
X44155771Y-21809523D02*
X43965295Y-21761904D01*
X43965295Y-21761904D02*
X43870057Y-21714285D01*
X43870057Y-21714285D02*
X43822438Y-21666666D01*
X43822438Y-21666666D02*
X43774819Y-21571428D01*
X72929580Y-33142857D02*
X72977200Y-33190476D01*
X72977200Y-33190476D02*
X73024819Y-33333333D01*
X73024819Y-33333333D02*
X73024819Y-33428571D01*
X73024819Y-33428571D02*
X72977200Y-33571428D01*
X72977200Y-33571428D02*
X72881961Y-33666666D01*
X72881961Y-33666666D02*
X72786723Y-33714285D01*
X72786723Y-33714285D02*
X72596247Y-33761904D01*
X72596247Y-33761904D02*
X72453390Y-33761904D01*
X72453390Y-33761904D02*
X72262914Y-33714285D01*
X72262914Y-33714285D02*
X72167676Y-33666666D01*
X72167676Y-33666666D02*
X72072438Y-33571428D01*
X72072438Y-33571428D02*
X72024819Y-33428571D01*
X72024819Y-33428571D02*
X72024819Y-33333333D01*
X72024819Y-33333333D02*
X72072438Y-33190476D01*
X72072438Y-33190476D02*
X72120057Y-33142857D01*
X73024819Y-32190476D02*
X73024819Y-32761904D01*
X73024819Y-32476190D02*
X72024819Y-32476190D01*
X72024819Y-32476190D02*
X72167676Y-32571428D01*
X72167676Y-32571428D02*
X72262914Y-32666666D01*
X72262914Y-32666666D02*
X72310533Y-32761904D01*
X72358152Y-31333333D02*
X73024819Y-31333333D01*
X71977200Y-31571428D02*
X72691485Y-31809523D01*
X72691485Y-31809523D02*
X72691485Y-31190476D01*
X78357142Y-67179580D02*
X78309523Y-67227200D01*
X78309523Y-67227200D02*
X78166666Y-67274819D01*
X78166666Y-67274819D02*
X78071428Y-67274819D01*
X78071428Y-67274819D02*
X77928571Y-67227200D01*
X77928571Y-67227200D02*
X77833333Y-67131961D01*
X77833333Y-67131961D02*
X77785714Y-67036723D01*
X77785714Y-67036723D02*
X77738095Y-66846247D01*
X77738095Y-66846247D02*
X77738095Y-66703390D01*
X77738095Y-66703390D02*
X77785714Y-66512914D01*
X77785714Y-66512914D02*
X77833333Y-66417676D01*
X77833333Y-66417676D02*
X77928571Y-66322438D01*
X77928571Y-66322438D02*
X78071428Y-66274819D01*
X78071428Y-66274819D02*
X78166666Y-66274819D01*
X78166666Y-66274819D02*
X78309523Y-66322438D01*
X78309523Y-66322438D02*
X78357142Y-66370057D01*
X78690476Y-66274819D02*
X79309523Y-66274819D01*
X79309523Y-66274819D02*
X78976190Y-66655771D01*
X78976190Y-66655771D02*
X79119047Y-66655771D01*
X79119047Y-66655771D02*
X79214285Y-66703390D01*
X79214285Y-66703390D02*
X79261904Y-66751009D01*
X79261904Y-66751009D02*
X79309523Y-66846247D01*
X79309523Y-66846247D02*
X79309523Y-67084342D01*
X79309523Y-67084342D02*
X79261904Y-67179580D01*
X79261904Y-67179580D02*
X79214285Y-67227200D01*
X79214285Y-67227200D02*
X79119047Y-67274819D01*
X79119047Y-67274819D02*
X78833333Y-67274819D01*
X78833333Y-67274819D02*
X78738095Y-67227200D01*
X78738095Y-67227200D02*
X78690476Y-67179580D01*
X80214285Y-66274819D02*
X79738095Y-66274819D01*
X79738095Y-66274819D02*
X79690476Y-66751009D01*
X79690476Y-66751009D02*
X79738095Y-66703390D01*
X79738095Y-66703390D02*
X79833333Y-66655771D01*
X79833333Y-66655771D02*
X80071428Y-66655771D01*
X80071428Y-66655771D02*
X80166666Y-66703390D01*
X80166666Y-66703390D02*
X80214285Y-66751009D01*
X80214285Y-66751009D02*
X80261904Y-66846247D01*
X80261904Y-66846247D02*
X80261904Y-67084342D01*
X80261904Y-67084342D02*
X80214285Y-67179580D01*
X80214285Y-67179580D02*
X80166666Y-67227200D01*
X80166666Y-67227200D02*
X80071428Y-67274819D01*
X80071428Y-67274819D02*
X79833333Y-67274819D01*
X79833333Y-67274819D02*
X79738095Y-67227200D01*
X79738095Y-67227200D02*
X79690476Y-67179580D01*
X17524819Y-61991666D02*
X17048628Y-62324999D01*
X17524819Y-62563094D02*
X16524819Y-62563094D01*
X16524819Y-62563094D02*
X16524819Y-62182142D01*
X16524819Y-62182142D02*
X16572438Y-62086904D01*
X16572438Y-62086904D02*
X16620057Y-62039285D01*
X16620057Y-62039285D02*
X16715295Y-61991666D01*
X16715295Y-61991666D02*
X16858152Y-61991666D01*
X16858152Y-61991666D02*
X16953390Y-62039285D01*
X16953390Y-62039285D02*
X17001009Y-62086904D01*
X17001009Y-62086904D02*
X17048628Y-62182142D01*
X17048628Y-62182142D02*
X17048628Y-62563094D01*
X16524819Y-61658332D02*
X16524819Y-61039285D01*
X16524819Y-61039285D02*
X16905771Y-61372618D01*
X16905771Y-61372618D02*
X16905771Y-61229761D01*
X16905771Y-61229761D02*
X16953390Y-61134523D01*
X16953390Y-61134523D02*
X17001009Y-61086904D01*
X17001009Y-61086904D02*
X17096247Y-61039285D01*
X17096247Y-61039285D02*
X17334342Y-61039285D01*
X17334342Y-61039285D02*
X17429580Y-61086904D01*
X17429580Y-61086904D02*
X17477200Y-61134523D01*
X17477200Y-61134523D02*
X17524819Y-61229761D01*
X17524819Y-61229761D02*
X17524819Y-61515475D01*
X17524819Y-61515475D02*
X17477200Y-61610713D01*
X17477200Y-61610713D02*
X17429580Y-61658332D01*
X41158333Y-22024819D02*
X40825000Y-21548628D01*
X40586905Y-22024819D02*
X40586905Y-21024819D01*
X40586905Y-21024819D02*
X40967857Y-21024819D01*
X40967857Y-21024819D02*
X41063095Y-21072438D01*
X41063095Y-21072438D02*
X41110714Y-21120057D01*
X41110714Y-21120057D02*
X41158333Y-21215295D01*
X41158333Y-21215295D02*
X41158333Y-21358152D01*
X41158333Y-21358152D02*
X41110714Y-21453390D01*
X41110714Y-21453390D02*
X41063095Y-21501009D01*
X41063095Y-21501009D02*
X40967857Y-21548628D01*
X40967857Y-21548628D02*
X40586905Y-21548628D01*
X41729762Y-21453390D02*
X41634524Y-21405771D01*
X41634524Y-21405771D02*
X41586905Y-21358152D01*
X41586905Y-21358152D02*
X41539286Y-21262914D01*
X41539286Y-21262914D02*
X41539286Y-21215295D01*
X41539286Y-21215295D02*
X41586905Y-21120057D01*
X41586905Y-21120057D02*
X41634524Y-21072438D01*
X41634524Y-21072438D02*
X41729762Y-21024819D01*
X41729762Y-21024819D02*
X41920238Y-21024819D01*
X41920238Y-21024819D02*
X42015476Y-21072438D01*
X42015476Y-21072438D02*
X42063095Y-21120057D01*
X42063095Y-21120057D02*
X42110714Y-21215295D01*
X42110714Y-21215295D02*
X42110714Y-21262914D01*
X42110714Y-21262914D02*
X42063095Y-21358152D01*
X42063095Y-21358152D02*
X42015476Y-21405771D01*
X42015476Y-21405771D02*
X41920238Y-21453390D01*
X41920238Y-21453390D02*
X41729762Y-21453390D01*
X41729762Y-21453390D02*
X41634524Y-21501009D01*
X41634524Y-21501009D02*
X41586905Y-21548628D01*
X41586905Y-21548628D02*
X41539286Y-21643866D01*
X41539286Y-21643866D02*
X41539286Y-21834342D01*
X41539286Y-21834342D02*
X41586905Y-21929580D01*
X41586905Y-21929580D02*
X41634524Y-21977200D01*
X41634524Y-21977200D02*
X41729762Y-22024819D01*
X41729762Y-22024819D02*
X41920238Y-22024819D01*
X41920238Y-22024819D02*
X42015476Y-21977200D01*
X42015476Y-21977200D02*
X42063095Y-21929580D01*
X42063095Y-21929580D02*
X42110714Y-21834342D01*
X42110714Y-21834342D02*
X42110714Y-21643866D01*
X42110714Y-21643866D02*
X42063095Y-21548628D01*
X42063095Y-21548628D02*
X42015476Y-21501009D01*
X42015476Y-21501009D02*
X41920238Y-21453390D01*
X27158095Y-6954819D02*
X27158095Y-7764342D01*
X27158095Y-7764342D02*
X27205714Y-7859580D01*
X27205714Y-7859580D02*
X27253333Y-7907200D01*
X27253333Y-7907200D02*
X27348571Y-7954819D01*
X27348571Y-7954819D02*
X27539047Y-7954819D01*
X27539047Y-7954819D02*
X27634285Y-7907200D01*
X27634285Y-7907200D02*
X27681904Y-7859580D01*
X27681904Y-7859580D02*
X27729523Y-7764342D01*
X27729523Y-7764342D02*
X27729523Y-6954819D01*
X28634285Y-7288152D02*
X28634285Y-7954819D01*
X28396190Y-6907200D02*
X28158095Y-7621485D01*
X28158095Y-7621485D02*
X28777142Y-7621485D01*
X38357143Y-32357200D02*
X38500000Y-32404819D01*
X38500000Y-32404819D02*
X38738095Y-32404819D01*
X38738095Y-32404819D02*
X38833333Y-32357200D01*
X38833333Y-32357200D02*
X38880952Y-32309580D01*
X38880952Y-32309580D02*
X38928571Y-32214342D01*
X38928571Y-32214342D02*
X38928571Y-32119104D01*
X38928571Y-32119104D02*
X38880952Y-32023866D01*
X38880952Y-32023866D02*
X38833333Y-31976247D01*
X38833333Y-31976247D02*
X38738095Y-31928628D01*
X38738095Y-31928628D02*
X38547619Y-31881009D01*
X38547619Y-31881009D02*
X38452381Y-31833390D01*
X38452381Y-31833390D02*
X38404762Y-31785771D01*
X38404762Y-31785771D02*
X38357143Y-31690533D01*
X38357143Y-31690533D02*
X38357143Y-31595295D01*
X38357143Y-31595295D02*
X38404762Y-31500057D01*
X38404762Y-31500057D02*
X38452381Y-31452438D01*
X38452381Y-31452438D02*
X38547619Y-31404819D01*
X38547619Y-31404819D02*
X38785714Y-31404819D01*
X38785714Y-31404819D02*
X38928571Y-31452438D01*
X39261905Y-31404819D02*
X39500000Y-32404819D01*
X39500000Y-32404819D02*
X39690476Y-31690533D01*
X39690476Y-31690533D02*
X39880952Y-32404819D01*
X39880952Y-32404819D02*
X40119048Y-31404819D01*
X40261905Y-32500057D02*
X41023809Y-32500057D01*
X41595238Y-31881009D02*
X41738095Y-31928628D01*
X41738095Y-31928628D02*
X41785714Y-31976247D01*
X41785714Y-31976247D02*
X41833333Y-32071485D01*
X41833333Y-32071485D02*
X41833333Y-32214342D01*
X41833333Y-32214342D02*
X41785714Y-32309580D01*
X41785714Y-32309580D02*
X41738095Y-32357200D01*
X41738095Y-32357200D02*
X41642857Y-32404819D01*
X41642857Y-32404819D02*
X41261905Y-32404819D01*
X41261905Y-32404819D02*
X41261905Y-31404819D01*
X41261905Y-31404819D02*
X41595238Y-31404819D01*
X41595238Y-31404819D02*
X41690476Y-31452438D01*
X41690476Y-31452438D02*
X41738095Y-31500057D01*
X41738095Y-31500057D02*
X41785714Y-31595295D01*
X41785714Y-31595295D02*
X41785714Y-31690533D01*
X41785714Y-31690533D02*
X41738095Y-31785771D01*
X41738095Y-31785771D02*
X41690476Y-31833390D01*
X41690476Y-31833390D02*
X41595238Y-31881009D01*
X41595238Y-31881009D02*
X41261905Y-31881009D01*
X42452381Y-31404819D02*
X42642857Y-31404819D01*
X42642857Y-31404819D02*
X42738095Y-31452438D01*
X42738095Y-31452438D02*
X42833333Y-31547676D01*
X42833333Y-31547676D02*
X42880952Y-31738152D01*
X42880952Y-31738152D02*
X42880952Y-32071485D01*
X42880952Y-32071485D02*
X42833333Y-32261961D01*
X42833333Y-32261961D02*
X42738095Y-32357200D01*
X42738095Y-32357200D02*
X42642857Y-32404819D01*
X42642857Y-32404819D02*
X42452381Y-32404819D01*
X42452381Y-32404819D02*
X42357143Y-32357200D01*
X42357143Y-32357200D02*
X42261905Y-32261961D01*
X42261905Y-32261961D02*
X42214286Y-32071485D01*
X42214286Y-32071485D02*
X42214286Y-31738152D01*
X42214286Y-31738152D02*
X42261905Y-31547676D01*
X42261905Y-31547676D02*
X42357143Y-31452438D01*
X42357143Y-31452438D02*
X42452381Y-31404819D01*
X43500000Y-31404819D02*
X43690476Y-31404819D01*
X43690476Y-31404819D02*
X43785714Y-31452438D01*
X43785714Y-31452438D02*
X43880952Y-31547676D01*
X43880952Y-31547676D02*
X43928571Y-31738152D01*
X43928571Y-31738152D02*
X43928571Y-32071485D01*
X43928571Y-32071485D02*
X43880952Y-32261961D01*
X43880952Y-32261961D02*
X43785714Y-32357200D01*
X43785714Y-32357200D02*
X43690476Y-32404819D01*
X43690476Y-32404819D02*
X43500000Y-32404819D01*
X43500000Y-32404819D02*
X43404762Y-32357200D01*
X43404762Y-32357200D02*
X43309524Y-32261961D01*
X43309524Y-32261961D02*
X43261905Y-32071485D01*
X43261905Y-32071485D02*
X43261905Y-31738152D01*
X43261905Y-31738152D02*
X43309524Y-31547676D01*
X43309524Y-31547676D02*
X43404762Y-31452438D01*
X43404762Y-31452438D02*
X43500000Y-31404819D01*
X44214286Y-31404819D02*
X44785714Y-31404819D01*
X44500000Y-32404819D02*
X44500000Y-31404819D01*
X45642857Y-32404819D02*
X45071429Y-32404819D01*
X45357143Y-32404819D02*
X45357143Y-31404819D01*
X45357143Y-31404819D02*
X45261905Y-31547676D01*
X45261905Y-31547676D02*
X45166667Y-31642914D01*
X45166667Y-31642914D02*
X45071429Y-31690533D01*
X67357142Y-11929580D02*
X67309523Y-11977200D01*
X67309523Y-11977200D02*
X67166666Y-12024819D01*
X67166666Y-12024819D02*
X67071428Y-12024819D01*
X67071428Y-12024819D02*
X66928571Y-11977200D01*
X66928571Y-11977200D02*
X66833333Y-11881961D01*
X66833333Y-11881961D02*
X66785714Y-11786723D01*
X66785714Y-11786723D02*
X66738095Y-11596247D01*
X66738095Y-11596247D02*
X66738095Y-11453390D01*
X66738095Y-11453390D02*
X66785714Y-11262914D01*
X66785714Y-11262914D02*
X66833333Y-11167676D01*
X66833333Y-11167676D02*
X66928571Y-11072438D01*
X66928571Y-11072438D02*
X67071428Y-11024819D01*
X67071428Y-11024819D02*
X67166666Y-11024819D01*
X67166666Y-11024819D02*
X67309523Y-11072438D01*
X67309523Y-11072438D02*
X67357142Y-11120057D01*
X68309523Y-12024819D02*
X67738095Y-12024819D01*
X68023809Y-12024819D02*
X68023809Y-11024819D01*
X68023809Y-11024819D02*
X67928571Y-11167676D01*
X67928571Y-11167676D02*
X67833333Y-11262914D01*
X67833333Y-11262914D02*
X67738095Y-11310533D01*
X69261904Y-12024819D02*
X68690476Y-12024819D01*
X68976190Y-12024819D02*
X68976190Y-11024819D01*
X68976190Y-11024819D02*
X68880952Y-11167676D01*
X68880952Y-11167676D02*
X68785714Y-11262914D01*
X68785714Y-11262914D02*
X68690476Y-11310533D01*
X5524819Y-61119047D02*
X5524819Y-61595237D01*
X5524819Y-61595237D02*
X4524819Y-61595237D01*
X5001009Y-60785713D02*
X5001009Y-60452380D01*
X5524819Y-60309523D02*
X5524819Y-60785713D01*
X5524819Y-60785713D02*
X4524819Y-60785713D01*
X4524819Y-60785713D02*
X4524819Y-60309523D01*
X5524819Y-59880951D02*
X4524819Y-59880951D01*
X4524819Y-59880951D02*
X4524819Y-59642856D01*
X4524819Y-59642856D02*
X4572438Y-59499999D01*
X4572438Y-59499999D02*
X4667676Y-59404761D01*
X4667676Y-59404761D02*
X4762914Y-59357142D01*
X4762914Y-59357142D02*
X4953390Y-59309523D01*
X4953390Y-59309523D02*
X5096247Y-59309523D01*
X5096247Y-59309523D02*
X5286723Y-59357142D01*
X5286723Y-59357142D02*
X5381961Y-59404761D01*
X5381961Y-59404761D02*
X5477200Y-59499999D01*
X5477200Y-59499999D02*
X5524819Y-59642856D01*
X5524819Y-59642856D02*
X5524819Y-59880951D01*
X4620057Y-58928570D02*
X4572438Y-58880951D01*
X4572438Y-58880951D02*
X4524819Y-58785713D01*
X4524819Y-58785713D02*
X4524819Y-58547618D01*
X4524819Y-58547618D02*
X4572438Y-58452380D01*
X4572438Y-58452380D02*
X4620057Y-58404761D01*
X4620057Y-58404761D02*
X4715295Y-58357142D01*
X4715295Y-58357142D02*
X4810533Y-58357142D01*
X4810533Y-58357142D02*
X4953390Y-58404761D01*
X4953390Y-58404761D02*
X5524819Y-58976189D01*
X5524819Y-58976189D02*
X5524819Y-58357142D01*
X7833333Y-26929580D02*
X7785714Y-26977200D01*
X7785714Y-26977200D02*
X7642857Y-27024819D01*
X7642857Y-27024819D02*
X7547619Y-27024819D01*
X7547619Y-27024819D02*
X7404762Y-26977200D01*
X7404762Y-26977200D02*
X7309524Y-26881961D01*
X7309524Y-26881961D02*
X7261905Y-26786723D01*
X7261905Y-26786723D02*
X7214286Y-26596247D01*
X7214286Y-26596247D02*
X7214286Y-26453390D01*
X7214286Y-26453390D02*
X7261905Y-26262914D01*
X7261905Y-26262914D02*
X7309524Y-26167676D01*
X7309524Y-26167676D02*
X7404762Y-26072438D01*
X7404762Y-26072438D02*
X7547619Y-26024819D01*
X7547619Y-26024819D02*
X7642857Y-26024819D01*
X7642857Y-26024819D02*
X7785714Y-26072438D01*
X7785714Y-26072438D02*
X7833333Y-26120057D01*
X8404762Y-26453390D02*
X8309524Y-26405771D01*
X8309524Y-26405771D02*
X8261905Y-26358152D01*
X8261905Y-26358152D02*
X8214286Y-26262914D01*
X8214286Y-26262914D02*
X8214286Y-26215295D01*
X8214286Y-26215295D02*
X8261905Y-26120057D01*
X8261905Y-26120057D02*
X8309524Y-26072438D01*
X8309524Y-26072438D02*
X8404762Y-26024819D01*
X8404762Y-26024819D02*
X8595238Y-26024819D01*
X8595238Y-26024819D02*
X8690476Y-26072438D01*
X8690476Y-26072438D02*
X8738095Y-26120057D01*
X8738095Y-26120057D02*
X8785714Y-26215295D01*
X8785714Y-26215295D02*
X8785714Y-26262914D01*
X8785714Y-26262914D02*
X8738095Y-26358152D01*
X8738095Y-26358152D02*
X8690476Y-26405771D01*
X8690476Y-26405771D02*
X8595238Y-26453390D01*
X8595238Y-26453390D02*
X8404762Y-26453390D01*
X8404762Y-26453390D02*
X8309524Y-26501009D01*
X8309524Y-26501009D02*
X8261905Y-26548628D01*
X8261905Y-26548628D02*
X8214286Y-26643866D01*
X8214286Y-26643866D02*
X8214286Y-26834342D01*
X8214286Y-26834342D02*
X8261905Y-26929580D01*
X8261905Y-26929580D02*
X8309524Y-26977200D01*
X8309524Y-26977200D02*
X8404762Y-27024819D01*
X8404762Y-27024819D02*
X8595238Y-27024819D01*
X8595238Y-27024819D02*
X8690476Y-26977200D01*
X8690476Y-26977200D02*
X8738095Y-26929580D01*
X8738095Y-26929580D02*
X8785714Y-26834342D01*
X8785714Y-26834342D02*
X8785714Y-26643866D01*
X8785714Y-26643866D02*
X8738095Y-26548628D01*
X8738095Y-26548628D02*
X8690476Y-26501009D01*
X8690476Y-26501009D02*
X8595238Y-26453390D01*
X55833333Y-14104819D02*
X55357143Y-14104819D01*
X55357143Y-14104819D02*
X55357143Y-13104819D01*
X56119048Y-13200057D02*
X56166667Y-13152438D01*
X56166667Y-13152438D02*
X56261905Y-13104819D01*
X56261905Y-13104819D02*
X56500000Y-13104819D01*
X56500000Y-13104819D02*
X56595238Y-13152438D01*
X56595238Y-13152438D02*
X56642857Y-13200057D01*
X56642857Y-13200057D02*
X56690476Y-13295295D01*
X56690476Y-13295295D02*
X56690476Y-13390533D01*
X56690476Y-13390533D02*
X56642857Y-13533390D01*
X56642857Y-13533390D02*
X56071429Y-14104819D01*
X56071429Y-14104819D02*
X56690476Y-14104819D01*
X59357142Y-72679580D02*
X59309523Y-72727200D01*
X59309523Y-72727200D02*
X59166666Y-72774819D01*
X59166666Y-72774819D02*
X59071428Y-72774819D01*
X59071428Y-72774819D02*
X58928571Y-72727200D01*
X58928571Y-72727200D02*
X58833333Y-72631961D01*
X58833333Y-72631961D02*
X58785714Y-72536723D01*
X58785714Y-72536723D02*
X58738095Y-72346247D01*
X58738095Y-72346247D02*
X58738095Y-72203390D01*
X58738095Y-72203390D02*
X58785714Y-72012914D01*
X58785714Y-72012914D02*
X58833333Y-71917676D01*
X58833333Y-71917676D02*
X58928571Y-71822438D01*
X58928571Y-71822438D02*
X59071428Y-71774819D01*
X59071428Y-71774819D02*
X59166666Y-71774819D01*
X59166666Y-71774819D02*
X59309523Y-71822438D01*
X59309523Y-71822438D02*
X59357142Y-71870057D01*
X59690476Y-71774819D02*
X60309523Y-71774819D01*
X60309523Y-71774819D02*
X59976190Y-72155771D01*
X59976190Y-72155771D02*
X60119047Y-72155771D01*
X60119047Y-72155771D02*
X60214285Y-72203390D01*
X60214285Y-72203390D02*
X60261904Y-72251009D01*
X60261904Y-72251009D02*
X60309523Y-72346247D01*
X60309523Y-72346247D02*
X60309523Y-72584342D01*
X60309523Y-72584342D02*
X60261904Y-72679580D01*
X60261904Y-72679580D02*
X60214285Y-72727200D01*
X60214285Y-72727200D02*
X60119047Y-72774819D01*
X60119047Y-72774819D02*
X59833333Y-72774819D01*
X59833333Y-72774819D02*
X59738095Y-72727200D01*
X59738095Y-72727200D02*
X59690476Y-72679580D01*
X60642857Y-71774819D02*
X61261904Y-71774819D01*
X61261904Y-71774819D02*
X60928571Y-72155771D01*
X60928571Y-72155771D02*
X61071428Y-72155771D01*
X61071428Y-72155771D02*
X61166666Y-72203390D01*
X61166666Y-72203390D02*
X61214285Y-72251009D01*
X61214285Y-72251009D02*
X61261904Y-72346247D01*
X61261904Y-72346247D02*
X61261904Y-72584342D01*
X61261904Y-72584342D02*
X61214285Y-72679580D01*
X61214285Y-72679580D02*
X61166666Y-72727200D01*
X61166666Y-72727200D02*
X61071428Y-72774819D01*
X61071428Y-72774819D02*
X60785714Y-72774819D01*
X60785714Y-72774819D02*
X60690476Y-72727200D01*
X60690476Y-72727200D02*
X60642857Y-72679580D01*
X14666666Y-66980819D02*
X14666666Y-67695104D01*
X14666666Y-67695104D02*
X14619047Y-67837961D01*
X14619047Y-67837961D02*
X14523809Y-67933200D01*
X14523809Y-67933200D02*
X14380952Y-67980819D01*
X14380952Y-67980819D02*
X14285714Y-67980819D01*
X15666666Y-67980819D02*
X15095238Y-67980819D01*
X15380952Y-67980819D02*
X15380952Y-66980819D01*
X15380952Y-66980819D02*
X15285714Y-67123676D01*
X15285714Y-67123676D02*
X15190476Y-67218914D01*
X15190476Y-67218914D02*
X15095238Y-67266533D01*
X66357142Y-53929580D02*
X66309523Y-53977200D01*
X66309523Y-53977200D02*
X66166666Y-54024819D01*
X66166666Y-54024819D02*
X66071428Y-54024819D01*
X66071428Y-54024819D02*
X65928571Y-53977200D01*
X65928571Y-53977200D02*
X65833333Y-53881961D01*
X65833333Y-53881961D02*
X65785714Y-53786723D01*
X65785714Y-53786723D02*
X65738095Y-53596247D01*
X65738095Y-53596247D02*
X65738095Y-53453390D01*
X65738095Y-53453390D02*
X65785714Y-53262914D01*
X65785714Y-53262914D02*
X65833333Y-53167676D01*
X65833333Y-53167676D02*
X65928571Y-53072438D01*
X65928571Y-53072438D02*
X66071428Y-53024819D01*
X66071428Y-53024819D02*
X66166666Y-53024819D01*
X66166666Y-53024819D02*
X66309523Y-53072438D01*
X66309523Y-53072438D02*
X66357142Y-53120057D01*
X66738095Y-53120057D02*
X66785714Y-53072438D01*
X66785714Y-53072438D02*
X66880952Y-53024819D01*
X66880952Y-53024819D02*
X67119047Y-53024819D01*
X67119047Y-53024819D02*
X67214285Y-53072438D01*
X67214285Y-53072438D02*
X67261904Y-53120057D01*
X67261904Y-53120057D02*
X67309523Y-53215295D01*
X67309523Y-53215295D02*
X67309523Y-53310533D01*
X67309523Y-53310533D02*
X67261904Y-53453390D01*
X67261904Y-53453390D02*
X66690476Y-54024819D01*
X66690476Y-54024819D02*
X67309523Y-54024819D01*
X67785714Y-54024819D02*
X67976190Y-54024819D01*
X67976190Y-54024819D02*
X68071428Y-53977200D01*
X68071428Y-53977200D02*
X68119047Y-53929580D01*
X68119047Y-53929580D02*
X68214285Y-53786723D01*
X68214285Y-53786723D02*
X68261904Y-53596247D01*
X68261904Y-53596247D02*
X68261904Y-53215295D01*
X68261904Y-53215295D02*
X68214285Y-53120057D01*
X68214285Y-53120057D02*
X68166666Y-53072438D01*
X68166666Y-53072438D02*
X68071428Y-53024819D01*
X68071428Y-53024819D02*
X67880952Y-53024819D01*
X67880952Y-53024819D02*
X67785714Y-53072438D01*
X67785714Y-53072438D02*
X67738095Y-53120057D01*
X67738095Y-53120057D02*
X67690476Y-53215295D01*
X67690476Y-53215295D02*
X67690476Y-53453390D01*
X67690476Y-53453390D02*
X67738095Y-53548628D01*
X67738095Y-53548628D02*
X67785714Y-53596247D01*
X67785714Y-53596247D02*
X67880952Y-53643866D01*
X67880952Y-53643866D02*
X68071428Y-53643866D01*
X68071428Y-53643866D02*
X68166666Y-53596247D01*
X68166666Y-53596247D02*
X68214285Y-53548628D01*
X68214285Y-53548628D02*
X68261904Y-53453390D01*
X68357142Y-34024819D02*
X68023809Y-33548628D01*
X67785714Y-34024819D02*
X67785714Y-33024819D01*
X67785714Y-33024819D02*
X68166666Y-33024819D01*
X68166666Y-33024819D02*
X68261904Y-33072438D01*
X68261904Y-33072438D02*
X68309523Y-33120057D01*
X68309523Y-33120057D02*
X68357142Y-33215295D01*
X68357142Y-33215295D02*
X68357142Y-33358152D01*
X68357142Y-33358152D02*
X68309523Y-33453390D01*
X68309523Y-33453390D02*
X68261904Y-33501009D01*
X68261904Y-33501009D02*
X68166666Y-33548628D01*
X68166666Y-33548628D02*
X67785714Y-33548628D01*
X69309523Y-34024819D02*
X68738095Y-34024819D01*
X69023809Y-34024819D02*
X69023809Y-33024819D01*
X69023809Y-33024819D02*
X68928571Y-33167676D01*
X68928571Y-33167676D02*
X68833333Y-33262914D01*
X68833333Y-33262914D02*
X68738095Y-33310533D01*
X70214285Y-33024819D02*
X69738095Y-33024819D01*
X69738095Y-33024819D02*
X69690476Y-33501009D01*
X69690476Y-33501009D02*
X69738095Y-33453390D01*
X69738095Y-33453390D02*
X69833333Y-33405771D01*
X69833333Y-33405771D02*
X70071428Y-33405771D01*
X70071428Y-33405771D02*
X70166666Y-33453390D01*
X70166666Y-33453390D02*
X70214285Y-33501009D01*
X70214285Y-33501009D02*
X70261904Y-33596247D01*
X70261904Y-33596247D02*
X70261904Y-33834342D01*
X70261904Y-33834342D02*
X70214285Y-33929580D01*
X70214285Y-33929580D02*
X70166666Y-33977200D01*
X70166666Y-33977200D02*
X70071428Y-34024819D01*
X70071428Y-34024819D02*
X69833333Y-34024819D01*
X69833333Y-34024819D02*
X69738095Y-33977200D01*
X69738095Y-33977200D02*
X69690476Y-33929580D01*
X46954819Y-62738094D02*
X45954819Y-62738094D01*
X45954819Y-62738094D02*
X45954819Y-62499999D01*
X45954819Y-62499999D02*
X46002438Y-62357142D01*
X46002438Y-62357142D02*
X46097676Y-62261904D01*
X46097676Y-62261904D02*
X46192914Y-62214285D01*
X46192914Y-62214285D02*
X46383390Y-62166666D01*
X46383390Y-62166666D02*
X46526247Y-62166666D01*
X46526247Y-62166666D02*
X46716723Y-62214285D01*
X46716723Y-62214285D02*
X46811961Y-62261904D01*
X46811961Y-62261904D02*
X46907200Y-62357142D01*
X46907200Y-62357142D02*
X46954819Y-62499999D01*
X46954819Y-62499999D02*
X46954819Y-62738094D01*
X45954819Y-61833332D02*
X45954819Y-61214285D01*
X45954819Y-61214285D02*
X46335771Y-61547618D01*
X46335771Y-61547618D02*
X46335771Y-61404761D01*
X46335771Y-61404761D02*
X46383390Y-61309523D01*
X46383390Y-61309523D02*
X46431009Y-61261904D01*
X46431009Y-61261904D02*
X46526247Y-61214285D01*
X46526247Y-61214285D02*
X46764342Y-61214285D01*
X46764342Y-61214285D02*
X46859580Y-61261904D01*
X46859580Y-61261904D02*
X46907200Y-61309523D01*
X46907200Y-61309523D02*
X46954819Y-61404761D01*
X46954819Y-61404761D02*
X46954819Y-61690475D01*
X46954819Y-61690475D02*
X46907200Y-61785713D01*
X46907200Y-61785713D02*
X46859580Y-61833332D01*
X73238095Y-13727819D02*
X73238095Y-14537342D01*
X73238095Y-14537342D02*
X73285714Y-14632580D01*
X73285714Y-14632580D02*
X73333333Y-14680200D01*
X73333333Y-14680200D02*
X73428571Y-14727819D01*
X73428571Y-14727819D02*
X73619047Y-14727819D01*
X73619047Y-14727819D02*
X73714285Y-14680200D01*
X73714285Y-14680200D02*
X73761904Y-14632580D01*
X73761904Y-14632580D02*
X73809523Y-14537342D01*
X73809523Y-14537342D02*
X73809523Y-13727819D01*
X74238095Y-13823057D02*
X74285714Y-13775438D01*
X74285714Y-13775438D02*
X74380952Y-13727819D01*
X74380952Y-13727819D02*
X74619047Y-13727819D01*
X74619047Y-13727819D02*
X74714285Y-13775438D01*
X74714285Y-13775438D02*
X74761904Y-13823057D01*
X74761904Y-13823057D02*
X74809523Y-13918295D01*
X74809523Y-13918295D02*
X74809523Y-14013533D01*
X74809523Y-14013533D02*
X74761904Y-14156390D01*
X74761904Y-14156390D02*
X74190476Y-14727819D01*
X74190476Y-14727819D02*
X74809523Y-14727819D01*
X56454819Y-60966666D02*
X56454819Y-61442856D01*
X56454819Y-61442856D02*
X55454819Y-61442856D01*
X55788152Y-60204761D02*
X56454819Y-60204761D01*
X55407200Y-60442856D02*
X56121485Y-60680951D01*
X56121485Y-60680951D02*
X56121485Y-60061904D01*
X7833333Y-22024819D02*
X7500000Y-21548628D01*
X7261905Y-22024819D02*
X7261905Y-21024819D01*
X7261905Y-21024819D02*
X7642857Y-21024819D01*
X7642857Y-21024819D02*
X7738095Y-21072438D01*
X7738095Y-21072438D02*
X7785714Y-21120057D01*
X7785714Y-21120057D02*
X7833333Y-21215295D01*
X7833333Y-21215295D02*
X7833333Y-21358152D01*
X7833333Y-21358152D02*
X7785714Y-21453390D01*
X7785714Y-21453390D02*
X7738095Y-21501009D01*
X7738095Y-21501009D02*
X7642857Y-21548628D01*
X7642857Y-21548628D02*
X7261905Y-21548628D01*
X8166667Y-21024819D02*
X8833333Y-21024819D01*
X8833333Y-21024819D02*
X8404762Y-22024819D01*
X73024819Y-28642857D02*
X72548628Y-28976190D01*
X73024819Y-29214285D02*
X72024819Y-29214285D01*
X72024819Y-29214285D02*
X72024819Y-28833333D01*
X72024819Y-28833333D02*
X72072438Y-28738095D01*
X72072438Y-28738095D02*
X72120057Y-28690476D01*
X72120057Y-28690476D02*
X72215295Y-28642857D01*
X72215295Y-28642857D02*
X72358152Y-28642857D01*
X72358152Y-28642857D02*
X72453390Y-28690476D01*
X72453390Y-28690476D02*
X72501009Y-28738095D01*
X72501009Y-28738095D02*
X72548628Y-28833333D01*
X72548628Y-28833333D02*
X72548628Y-29214285D01*
X73024819Y-27690476D02*
X73024819Y-28261904D01*
X73024819Y-27976190D02*
X72024819Y-27976190D01*
X72024819Y-27976190D02*
X72167676Y-28071428D01*
X72167676Y-28071428D02*
X72262914Y-28166666D01*
X72262914Y-28166666D02*
X72310533Y-28261904D01*
X73024819Y-26738095D02*
X73024819Y-27309523D01*
X73024819Y-27023809D02*
X72024819Y-27023809D01*
X72024819Y-27023809D02*
X72167676Y-27119047D01*
X72167676Y-27119047D02*
X72262914Y-27214285D01*
X72262914Y-27214285D02*
X72310533Y-27309523D01*
X54804819Y-72833333D02*
X55519104Y-72833333D01*
X55519104Y-72833333D02*
X55661961Y-72880952D01*
X55661961Y-72880952D02*
X55757200Y-72976190D01*
X55757200Y-72976190D02*
X55804819Y-73119047D01*
X55804819Y-73119047D02*
X55804819Y-73214285D01*
X54900057Y-72404761D02*
X54852438Y-72357142D01*
X54852438Y-72357142D02*
X54804819Y-72261904D01*
X54804819Y-72261904D02*
X54804819Y-72023809D01*
X54804819Y-72023809D02*
X54852438Y-71928571D01*
X54852438Y-71928571D02*
X54900057Y-71880952D01*
X54900057Y-71880952D02*
X54995295Y-71833333D01*
X54995295Y-71833333D02*
X55090533Y-71833333D01*
X55090533Y-71833333D02*
X55233390Y-71880952D01*
X55233390Y-71880952D02*
X55804819Y-72452380D01*
X55804819Y-72452380D02*
X55804819Y-71833333D01*
X26261905Y-41954819D02*
X26261905Y-40954819D01*
X26261905Y-40954819D02*
X26500000Y-40954819D01*
X26500000Y-40954819D02*
X26642857Y-41002438D01*
X26642857Y-41002438D02*
X26738095Y-41097676D01*
X26738095Y-41097676D02*
X26785714Y-41192914D01*
X26785714Y-41192914D02*
X26833333Y-41383390D01*
X26833333Y-41383390D02*
X26833333Y-41526247D01*
X26833333Y-41526247D02*
X26785714Y-41716723D01*
X26785714Y-41716723D02*
X26738095Y-41811961D01*
X26738095Y-41811961D02*
X26642857Y-41907200D01*
X26642857Y-41907200D02*
X26500000Y-41954819D01*
X26500000Y-41954819D02*
X26261905Y-41954819D01*
X27785714Y-41954819D02*
X27214286Y-41954819D01*
X27500000Y-41954819D02*
X27500000Y-40954819D01*
X27500000Y-40954819D02*
X27404762Y-41097676D01*
X27404762Y-41097676D02*
X27309524Y-41192914D01*
X27309524Y-41192914D02*
X27214286Y-41240533D01*
X10954819Y-47833333D02*
X11669104Y-47833333D01*
X11669104Y-47833333D02*
X11811961Y-47880952D01*
X11811961Y-47880952D02*
X11907200Y-47976190D01*
X11907200Y-47976190D02*
X11954819Y-48119047D01*
X11954819Y-48119047D02*
X11954819Y-48214285D01*
X10954819Y-46928571D02*
X10954819Y-47119047D01*
X10954819Y-47119047D02*
X11002438Y-47214285D01*
X11002438Y-47214285D02*
X11050057Y-47261904D01*
X11050057Y-47261904D02*
X11192914Y-47357142D01*
X11192914Y-47357142D02*
X11383390Y-47404761D01*
X11383390Y-47404761D02*
X11764342Y-47404761D01*
X11764342Y-47404761D02*
X11859580Y-47357142D01*
X11859580Y-47357142D02*
X11907200Y-47309523D01*
X11907200Y-47309523D02*
X11954819Y-47214285D01*
X11954819Y-47214285D02*
X11954819Y-47023809D01*
X11954819Y-47023809D02*
X11907200Y-46928571D01*
X11907200Y-46928571D02*
X11859580Y-46880952D01*
X11859580Y-46880952D02*
X11764342Y-46833333D01*
X11764342Y-46833333D02*
X11526247Y-46833333D01*
X11526247Y-46833333D02*
X11431009Y-46880952D01*
X11431009Y-46880952D02*
X11383390Y-46928571D01*
X11383390Y-46928571D02*
X11335771Y-47023809D01*
X11335771Y-47023809D02*
X11335771Y-47214285D01*
X11335771Y-47214285D02*
X11383390Y-47309523D01*
X11383390Y-47309523D02*
X11431009Y-47357142D01*
X11431009Y-47357142D02*
X11526247Y-47404761D01*
X10428571Y-31357200D02*
X10571428Y-31404819D01*
X10571428Y-31404819D02*
X10809523Y-31404819D01*
X10809523Y-31404819D02*
X10904761Y-31357200D01*
X10904761Y-31357200D02*
X10952380Y-31309580D01*
X10952380Y-31309580D02*
X10999999Y-31214342D01*
X10999999Y-31214342D02*
X10999999Y-31119104D01*
X10999999Y-31119104D02*
X10952380Y-31023866D01*
X10952380Y-31023866D02*
X10904761Y-30976247D01*
X10904761Y-30976247D02*
X10809523Y-30928628D01*
X10809523Y-30928628D02*
X10619047Y-30881009D01*
X10619047Y-30881009D02*
X10523809Y-30833390D01*
X10523809Y-30833390D02*
X10476190Y-30785771D01*
X10476190Y-30785771D02*
X10428571Y-30690533D01*
X10428571Y-30690533D02*
X10428571Y-30595295D01*
X10428571Y-30595295D02*
X10476190Y-30500057D01*
X10476190Y-30500057D02*
X10523809Y-30452438D01*
X10523809Y-30452438D02*
X10619047Y-30404819D01*
X10619047Y-30404819D02*
X10857142Y-30404819D01*
X10857142Y-30404819D02*
X10999999Y-30452438D01*
X11333333Y-30404819D02*
X11571428Y-31404819D01*
X11571428Y-31404819D02*
X11761904Y-30690533D01*
X11761904Y-30690533D02*
X11952380Y-31404819D01*
X11952380Y-31404819D02*
X12190476Y-30404819D01*
X12333333Y-31500057D02*
X13095237Y-31500057D01*
X13904761Y-31404819D02*
X13571428Y-30928628D01*
X13333333Y-31404819D02*
X13333333Y-30404819D01*
X13333333Y-30404819D02*
X13714285Y-30404819D01*
X13714285Y-30404819D02*
X13809523Y-30452438D01*
X13809523Y-30452438D02*
X13857142Y-30500057D01*
X13857142Y-30500057D02*
X13904761Y-30595295D01*
X13904761Y-30595295D02*
X13904761Y-30738152D01*
X13904761Y-30738152D02*
X13857142Y-30833390D01*
X13857142Y-30833390D02*
X13809523Y-30881009D01*
X13809523Y-30881009D02*
X13714285Y-30928628D01*
X13714285Y-30928628D02*
X13333333Y-30928628D01*
X14285714Y-31357200D02*
X14428571Y-31404819D01*
X14428571Y-31404819D02*
X14666666Y-31404819D01*
X14666666Y-31404819D02*
X14761904Y-31357200D01*
X14761904Y-31357200D02*
X14809523Y-31309580D01*
X14809523Y-31309580D02*
X14857142Y-31214342D01*
X14857142Y-31214342D02*
X14857142Y-31119104D01*
X14857142Y-31119104D02*
X14809523Y-31023866D01*
X14809523Y-31023866D02*
X14761904Y-30976247D01*
X14761904Y-30976247D02*
X14666666Y-30928628D01*
X14666666Y-30928628D02*
X14476190Y-30881009D01*
X14476190Y-30881009D02*
X14380952Y-30833390D01*
X14380952Y-30833390D02*
X14333333Y-30785771D01*
X14333333Y-30785771D02*
X14285714Y-30690533D01*
X14285714Y-30690533D02*
X14285714Y-30595295D01*
X14285714Y-30595295D02*
X14333333Y-30500057D01*
X14333333Y-30500057D02*
X14380952Y-30452438D01*
X14380952Y-30452438D02*
X14476190Y-30404819D01*
X14476190Y-30404819D02*
X14714285Y-30404819D01*
X14714285Y-30404819D02*
X14857142Y-30452438D01*
X15142857Y-30404819D02*
X15714285Y-30404819D01*
X15428571Y-31404819D02*
X15428571Y-30404819D01*
X16571428Y-31404819D02*
X16000000Y-31404819D01*
X16285714Y-31404819D02*
X16285714Y-30404819D01*
X16285714Y-30404819D02*
X16190476Y-30547676D01*
X16190476Y-30547676D02*
X16095238Y-30642914D01*
X16095238Y-30642914D02*
X16000000Y-30690533D01*
X17333333Y-56679580D02*
X17285714Y-56727200D01*
X17285714Y-56727200D02*
X17142857Y-56774819D01*
X17142857Y-56774819D02*
X17047619Y-56774819D01*
X17047619Y-56774819D02*
X16904762Y-56727200D01*
X16904762Y-56727200D02*
X16809524Y-56631961D01*
X16809524Y-56631961D02*
X16761905Y-56536723D01*
X16761905Y-56536723D02*
X16714286Y-56346247D01*
X16714286Y-56346247D02*
X16714286Y-56203390D01*
X16714286Y-56203390D02*
X16761905Y-56012914D01*
X16761905Y-56012914D02*
X16809524Y-55917676D01*
X16809524Y-55917676D02*
X16904762Y-55822438D01*
X16904762Y-55822438D02*
X17047619Y-55774819D01*
X17047619Y-55774819D02*
X17142857Y-55774819D01*
X17142857Y-55774819D02*
X17285714Y-55822438D01*
X17285714Y-55822438D02*
X17333333Y-55870057D01*
X18285714Y-56774819D02*
X17714286Y-56774819D01*
X18000000Y-56774819D02*
X18000000Y-55774819D01*
X18000000Y-55774819D02*
X17904762Y-55917676D01*
X17904762Y-55917676D02*
X17809524Y-56012914D01*
X17809524Y-56012914D02*
X17714286Y-56060533D01*
X84509580Y-26142857D02*
X84557200Y-26190476D01*
X84557200Y-26190476D02*
X84604819Y-26333333D01*
X84604819Y-26333333D02*
X84604819Y-26428571D01*
X84604819Y-26428571D02*
X84557200Y-26571428D01*
X84557200Y-26571428D02*
X84461961Y-26666666D01*
X84461961Y-26666666D02*
X84366723Y-26714285D01*
X84366723Y-26714285D02*
X84176247Y-26761904D01*
X84176247Y-26761904D02*
X84033390Y-26761904D01*
X84033390Y-26761904D02*
X83842914Y-26714285D01*
X83842914Y-26714285D02*
X83747676Y-26666666D01*
X83747676Y-26666666D02*
X83652438Y-26571428D01*
X83652438Y-26571428D02*
X83604819Y-26428571D01*
X83604819Y-26428571D02*
X83604819Y-26333333D01*
X83604819Y-26333333D02*
X83652438Y-26190476D01*
X83652438Y-26190476D02*
X83700057Y-26142857D01*
X84604819Y-25190476D02*
X84604819Y-25761904D01*
X84604819Y-25476190D02*
X83604819Y-25476190D01*
X83604819Y-25476190D02*
X83747676Y-25571428D01*
X83747676Y-25571428D02*
X83842914Y-25666666D01*
X83842914Y-25666666D02*
X83890533Y-25761904D01*
X83604819Y-24857142D02*
X83604819Y-24190476D01*
X83604819Y-24190476D02*
X84604819Y-24619047D01*
X79833333Y-27024819D02*
X79500000Y-26548628D01*
X79261905Y-27024819D02*
X79261905Y-26024819D01*
X79261905Y-26024819D02*
X79642857Y-26024819D01*
X79642857Y-26024819D02*
X79738095Y-26072438D01*
X79738095Y-26072438D02*
X79785714Y-26120057D01*
X79785714Y-26120057D02*
X79833333Y-26215295D01*
X79833333Y-26215295D02*
X79833333Y-26358152D01*
X79833333Y-26358152D02*
X79785714Y-26453390D01*
X79785714Y-26453390D02*
X79738095Y-26501009D01*
X79738095Y-26501009D02*
X79642857Y-26548628D01*
X79642857Y-26548628D02*
X79261905Y-26548628D01*
X80309524Y-27024819D02*
X80500000Y-27024819D01*
X80500000Y-27024819D02*
X80595238Y-26977200D01*
X80595238Y-26977200D02*
X80642857Y-26929580D01*
X80642857Y-26929580D02*
X80738095Y-26786723D01*
X80738095Y-26786723D02*
X80785714Y-26596247D01*
X80785714Y-26596247D02*
X80785714Y-26215295D01*
X80785714Y-26215295D02*
X80738095Y-26120057D01*
X80738095Y-26120057D02*
X80690476Y-26072438D01*
X80690476Y-26072438D02*
X80595238Y-26024819D01*
X80595238Y-26024819D02*
X80404762Y-26024819D01*
X80404762Y-26024819D02*
X80309524Y-26072438D01*
X80309524Y-26072438D02*
X80261905Y-26120057D01*
X80261905Y-26120057D02*
X80214286Y-26215295D01*
X80214286Y-26215295D02*
X80214286Y-26453390D01*
X80214286Y-26453390D02*
X80261905Y-26548628D01*
X80261905Y-26548628D02*
X80309524Y-26596247D01*
X80309524Y-26596247D02*
X80404762Y-26643866D01*
X80404762Y-26643866D02*
X80595238Y-26643866D01*
X80595238Y-26643866D02*
X80690476Y-26596247D01*
X80690476Y-26596247D02*
X80738095Y-26548628D01*
X80738095Y-26548628D02*
X80785714Y-26453390D01*
X64929580Y-48642857D02*
X64977200Y-48690476D01*
X64977200Y-48690476D02*
X65024819Y-48833333D01*
X65024819Y-48833333D02*
X65024819Y-48928571D01*
X65024819Y-48928571D02*
X64977200Y-49071428D01*
X64977200Y-49071428D02*
X64881961Y-49166666D01*
X64881961Y-49166666D02*
X64786723Y-49214285D01*
X64786723Y-49214285D02*
X64596247Y-49261904D01*
X64596247Y-49261904D02*
X64453390Y-49261904D01*
X64453390Y-49261904D02*
X64262914Y-49214285D01*
X64262914Y-49214285D02*
X64167676Y-49166666D01*
X64167676Y-49166666D02*
X64072438Y-49071428D01*
X64072438Y-49071428D02*
X64024819Y-48928571D01*
X64024819Y-48928571D02*
X64024819Y-48833333D01*
X64024819Y-48833333D02*
X64072438Y-48690476D01*
X64072438Y-48690476D02*
X64120057Y-48642857D01*
X64120057Y-48261904D02*
X64072438Y-48214285D01*
X64072438Y-48214285D02*
X64024819Y-48119047D01*
X64024819Y-48119047D02*
X64024819Y-47880952D01*
X64024819Y-47880952D02*
X64072438Y-47785714D01*
X64072438Y-47785714D02*
X64120057Y-47738095D01*
X64120057Y-47738095D02*
X64215295Y-47690476D01*
X64215295Y-47690476D02*
X64310533Y-47690476D01*
X64310533Y-47690476D02*
X64453390Y-47738095D01*
X64453390Y-47738095D02*
X65024819Y-48309523D01*
X65024819Y-48309523D02*
X65024819Y-47690476D01*
X65024819Y-46738095D02*
X65024819Y-47309523D01*
X65024819Y-47023809D02*
X64024819Y-47023809D01*
X64024819Y-47023809D02*
X64167676Y-47119047D01*
X64167676Y-47119047D02*
X64262914Y-47214285D01*
X64262914Y-47214285D02*
X64310533Y-47309523D01*
X24238095Y-54546819D02*
X24238095Y-55356342D01*
X24238095Y-55356342D02*
X24285714Y-55451580D01*
X24285714Y-55451580D02*
X24333333Y-55499200D01*
X24333333Y-55499200D02*
X24428571Y-55546819D01*
X24428571Y-55546819D02*
X24619047Y-55546819D01*
X24619047Y-55546819D02*
X24714285Y-55499200D01*
X24714285Y-55499200D02*
X24761904Y-55451580D01*
X24761904Y-55451580D02*
X24809523Y-55356342D01*
X24809523Y-55356342D02*
X24809523Y-54546819D01*
X25190476Y-54546819D02*
X25809523Y-54546819D01*
X25809523Y-54546819D02*
X25476190Y-54927771D01*
X25476190Y-54927771D02*
X25619047Y-54927771D01*
X25619047Y-54927771D02*
X25714285Y-54975390D01*
X25714285Y-54975390D02*
X25761904Y-55023009D01*
X25761904Y-55023009D02*
X25809523Y-55118247D01*
X25809523Y-55118247D02*
X25809523Y-55356342D01*
X25809523Y-55356342D02*
X25761904Y-55451580D01*
X25761904Y-55451580D02*
X25714285Y-55499200D01*
X25714285Y-55499200D02*
X25619047Y-55546819D01*
X25619047Y-55546819D02*
X25333333Y-55546819D01*
X25333333Y-55546819D02*
X25238095Y-55499200D01*
X25238095Y-55499200D02*
X25190476Y-55451580D01*
X86454819Y-60966666D02*
X86454819Y-61442856D01*
X86454819Y-61442856D02*
X85454819Y-61442856D01*
X85454819Y-60157142D02*
X85454819Y-60633332D01*
X85454819Y-60633332D02*
X85931009Y-60680951D01*
X85931009Y-60680951D02*
X85883390Y-60633332D01*
X85883390Y-60633332D02*
X85835771Y-60538094D01*
X85835771Y-60538094D02*
X85835771Y-60299999D01*
X85835771Y-60299999D02*
X85883390Y-60204761D01*
X85883390Y-60204761D02*
X85931009Y-60157142D01*
X85931009Y-60157142D02*
X86026247Y-60109523D01*
X86026247Y-60109523D02*
X86264342Y-60109523D01*
X86264342Y-60109523D02*
X86359580Y-60157142D01*
X86359580Y-60157142D02*
X86407200Y-60204761D01*
X86407200Y-60204761D02*
X86454819Y-60299999D01*
X86454819Y-60299999D02*
X86454819Y-60538094D01*
X86454819Y-60538094D02*
X86407200Y-60633332D01*
X86407200Y-60633332D02*
X86359580Y-60680951D01*
X68166666Y-67134819D02*
X68166666Y-67849104D01*
X68166666Y-67849104D02*
X68119047Y-67991961D01*
X68119047Y-67991961D02*
X68023809Y-68087200D01*
X68023809Y-68087200D02*
X67880952Y-68134819D01*
X67880952Y-68134819D02*
X67785714Y-68134819D01*
X69071428Y-67468152D02*
X69071428Y-68134819D01*
X68833333Y-67087200D02*
X68595238Y-67801485D01*
X68595238Y-67801485D02*
X69214285Y-67801485D01*
X63357142Y-30024819D02*
X63023809Y-29548628D01*
X62785714Y-30024819D02*
X62785714Y-29024819D01*
X62785714Y-29024819D02*
X63166666Y-29024819D01*
X63166666Y-29024819D02*
X63261904Y-29072438D01*
X63261904Y-29072438D02*
X63309523Y-29120057D01*
X63309523Y-29120057D02*
X63357142Y-29215295D01*
X63357142Y-29215295D02*
X63357142Y-29358152D01*
X63357142Y-29358152D02*
X63309523Y-29453390D01*
X63309523Y-29453390D02*
X63261904Y-29501009D01*
X63261904Y-29501009D02*
X63166666Y-29548628D01*
X63166666Y-29548628D02*
X62785714Y-29548628D01*
X64309523Y-30024819D02*
X63738095Y-30024819D01*
X64023809Y-30024819D02*
X64023809Y-29024819D01*
X64023809Y-29024819D02*
X63928571Y-29167676D01*
X63928571Y-29167676D02*
X63833333Y-29262914D01*
X63833333Y-29262914D02*
X63738095Y-29310533D01*
X64642857Y-29024819D02*
X65261904Y-29024819D01*
X65261904Y-29024819D02*
X64928571Y-29405771D01*
X64928571Y-29405771D02*
X65071428Y-29405771D01*
X65071428Y-29405771D02*
X65166666Y-29453390D01*
X65166666Y-29453390D02*
X65214285Y-29501009D01*
X65214285Y-29501009D02*
X65261904Y-29596247D01*
X65261904Y-29596247D02*
X65261904Y-29834342D01*
X65261904Y-29834342D02*
X65214285Y-29929580D01*
X65214285Y-29929580D02*
X65166666Y-29977200D01*
X65166666Y-29977200D02*
X65071428Y-30024819D01*
X65071428Y-30024819D02*
X64785714Y-30024819D01*
X64785714Y-30024819D02*
X64690476Y-29977200D01*
X64690476Y-29977200D02*
X64642857Y-29929580D01*
X64929580Y-45142857D02*
X64977200Y-45190476D01*
X64977200Y-45190476D02*
X65024819Y-45333333D01*
X65024819Y-45333333D02*
X65024819Y-45428571D01*
X65024819Y-45428571D02*
X64977200Y-45571428D01*
X64977200Y-45571428D02*
X64881961Y-45666666D01*
X64881961Y-45666666D02*
X64786723Y-45714285D01*
X64786723Y-45714285D02*
X64596247Y-45761904D01*
X64596247Y-45761904D02*
X64453390Y-45761904D01*
X64453390Y-45761904D02*
X64262914Y-45714285D01*
X64262914Y-45714285D02*
X64167676Y-45666666D01*
X64167676Y-45666666D02*
X64072438Y-45571428D01*
X64072438Y-45571428D02*
X64024819Y-45428571D01*
X64024819Y-45428571D02*
X64024819Y-45333333D01*
X64024819Y-45333333D02*
X64072438Y-45190476D01*
X64072438Y-45190476D02*
X64120057Y-45142857D01*
X64120057Y-44761904D02*
X64072438Y-44714285D01*
X64072438Y-44714285D02*
X64024819Y-44619047D01*
X64024819Y-44619047D02*
X64024819Y-44380952D01*
X64024819Y-44380952D02*
X64072438Y-44285714D01*
X64072438Y-44285714D02*
X64120057Y-44238095D01*
X64120057Y-44238095D02*
X64215295Y-44190476D01*
X64215295Y-44190476D02*
X64310533Y-44190476D01*
X64310533Y-44190476D02*
X64453390Y-44238095D01*
X64453390Y-44238095D02*
X65024819Y-44809523D01*
X65024819Y-44809523D02*
X65024819Y-44190476D01*
X64024819Y-43571428D02*
X64024819Y-43476190D01*
X64024819Y-43476190D02*
X64072438Y-43380952D01*
X64072438Y-43380952D02*
X64120057Y-43333333D01*
X64120057Y-43333333D02*
X64215295Y-43285714D01*
X64215295Y-43285714D02*
X64405771Y-43238095D01*
X64405771Y-43238095D02*
X64643866Y-43238095D01*
X64643866Y-43238095D02*
X64834342Y-43285714D01*
X64834342Y-43285714D02*
X64929580Y-43333333D01*
X64929580Y-43333333D02*
X64977200Y-43380952D01*
X64977200Y-43380952D02*
X65024819Y-43476190D01*
X65024819Y-43476190D02*
X65024819Y-43571428D01*
X65024819Y-43571428D02*
X64977200Y-43666666D01*
X64977200Y-43666666D02*
X64929580Y-43714285D01*
X64929580Y-43714285D02*
X64834342Y-43761904D01*
X64834342Y-43761904D02*
X64643866Y-43809523D01*
X64643866Y-43809523D02*
X64405771Y-43809523D01*
X64405771Y-43809523D02*
X64215295Y-43761904D01*
X64215295Y-43761904D02*
X64120057Y-43714285D01*
X64120057Y-43714285D02*
X64072438Y-43666666D01*
X64072438Y-43666666D02*
X64024819Y-43571428D01*
X62857142Y-33024819D02*
X62523809Y-32548628D01*
X62285714Y-33024819D02*
X62285714Y-32024819D01*
X62285714Y-32024819D02*
X62666666Y-32024819D01*
X62666666Y-32024819D02*
X62761904Y-32072438D01*
X62761904Y-32072438D02*
X62809523Y-32120057D01*
X62809523Y-32120057D02*
X62857142Y-32215295D01*
X62857142Y-32215295D02*
X62857142Y-32358152D01*
X62857142Y-32358152D02*
X62809523Y-32453390D01*
X62809523Y-32453390D02*
X62761904Y-32501009D01*
X62761904Y-32501009D02*
X62666666Y-32548628D01*
X62666666Y-32548628D02*
X62285714Y-32548628D01*
X63809523Y-33024819D02*
X63238095Y-33024819D01*
X63523809Y-33024819D02*
X63523809Y-32024819D01*
X63523809Y-32024819D02*
X63428571Y-32167676D01*
X63428571Y-32167676D02*
X63333333Y-32262914D01*
X63333333Y-32262914D02*
X63238095Y-32310533D01*
X64666666Y-32358152D02*
X64666666Y-33024819D01*
X64428571Y-31977200D02*
X64190476Y-32691485D01*
X64190476Y-32691485D02*
X64809523Y-32691485D01*
X84509580Y-20642857D02*
X84557200Y-20690476D01*
X84557200Y-20690476D02*
X84604819Y-20833333D01*
X84604819Y-20833333D02*
X84604819Y-20928571D01*
X84604819Y-20928571D02*
X84557200Y-21071428D01*
X84557200Y-21071428D02*
X84461961Y-21166666D01*
X84461961Y-21166666D02*
X84366723Y-21214285D01*
X84366723Y-21214285D02*
X84176247Y-21261904D01*
X84176247Y-21261904D02*
X84033390Y-21261904D01*
X84033390Y-21261904D02*
X83842914Y-21214285D01*
X83842914Y-21214285D02*
X83747676Y-21166666D01*
X83747676Y-21166666D02*
X83652438Y-21071428D01*
X83652438Y-21071428D02*
X83604819Y-20928571D01*
X83604819Y-20928571D02*
X83604819Y-20833333D01*
X83604819Y-20833333D02*
X83652438Y-20690476D01*
X83652438Y-20690476D02*
X83700057Y-20642857D01*
X84604819Y-19690476D02*
X84604819Y-20261904D01*
X84604819Y-19976190D02*
X83604819Y-19976190D01*
X83604819Y-19976190D02*
X83747676Y-20071428D01*
X83747676Y-20071428D02*
X83842914Y-20166666D01*
X83842914Y-20166666D02*
X83890533Y-20261904D01*
X83604819Y-18833333D02*
X83604819Y-19023809D01*
X83604819Y-19023809D02*
X83652438Y-19119047D01*
X83652438Y-19119047D02*
X83700057Y-19166666D01*
X83700057Y-19166666D02*
X83842914Y-19261904D01*
X83842914Y-19261904D02*
X84033390Y-19309523D01*
X84033390Y-19309523D02*
X84414342Y-19309523D01*
X84414342Y-19309523D02*
X84509580Y-19261904D01*
X84509580Y-19261904D02*
X84557200Y-19214285D01*
X84557200Y-19214285D02*
X84604819Y-19119047D01*
X84604819Y-19119047D02*
X84604819Y-18928571D01*
X84604819Y-18928571D02*
X84557200Y-18833333D01*
X84557200Y-18833333D02*
X84509580Y-18785714D01*
X84509580Y-18785714D02*
X84414342Y-18738095D01*
X84414342Y-18738095D02*
X84176247Y-18738095D01*
X84176247Y-18738095D02*
X84081009Y-18785714D01*
X84081009Y-18785714D02*
X84033390Y-18833333D01*
X84033390Y-18833333D02*
X83985771Y-18928571D01*
X83985771Y-18928571D02*
X83985771Y-19119047D01*
X83985771Y-19119047D02*
X84033390Y-19214285D01*
X84033390Y-19214285D02*
X84081009Y-19261904D01*
X84081009Y-19261904D02*
X84176247Y-19309523D01*
X44679580Y-17666666D02*
X44727200Y-17714285D01*
X44727200Y-17714285D02*
X44774819Y-17857142D01*
X44774819Y-17857142D02*
X44774819Y-17952380D01*
X44774819Y-17952380D02*
X44727200Y-18095237D01*
X44727200Y-18095237D02*
X44631961Y-18190475D01*
X44631961Y-18190475D02*
X44536723Y-18238094D01*
X44536723Y-18238094D02*
X44346247Y-18285713D01*
X44346247Y-18285713D02*
X44203390Y-18285713D01*
X44203390Y-18285713D02*
X44012914Y-18238094D01*
X44012914Y-18238094D02*
X43917676Y-18190475D01*
X43917676Y-18190475D02*
X43822438Y-18095237D01*
X43822438Y-18095237D02*
X43774819Y-17952380D01*
X43774819Y-17952380D02*
X43774819Y-17857142D01*
X43774819Y-17857142D02*
X43822438Y-17714285D01*
X43822438Y-17714285D02*
X43870057Y-17666666D01*
X44774819Y-17190475D02*
X44774819Y-16999999D01*
X44774819Y-16999999D02*
X44727200Y-16904761D01*
X44727200Y-16904761D02*
X44679580Y-16857142D01*
X44679580Y-16857142D02*
X44536723Y-16761904D01*
X44536723Y-16761904D02*
X44346247Y-16714285D01*
X44346247Y-16714285D02*
X43965295Y-16714285D01*
X43965295Y-16714285D02*
X43870057Y-16761904D01*
X43870057Y-16761904D02*
X43822438Y-16809523D01*
X43822438Y-16809523D02*
X43774819Y-16904761D01*
X43774819Y-16904761D02*
X43774819Y-17095237D01*
X43774819Y-17095237D02*
X43822438Y-17190475D01*
X43822438Y-17190475D02*
X43870057Y-17238094D01*
X43870057Y-17238094D02*
X43965295Y-17285713D01*
X43965295Y-17285713D02*
X44203390Y-17285713D01*
X44203390Y-17285713D02*
X44298628Y-17238094D01*
X44298628Y-17238094D02*
X44346247Y-17190475D01*
X44346247Y-17190475D02*
X44393866Y-17095237D01*
X44393866Y-17095237D02*
X44393866Y-16904761D01*
X44393866Y-16904761D02*
X44346247Y-16809523D01*
X44346247Y-16809523D02*
X44298628Y-16761904D01*
X44298628Y-16761904D02*
X44203390Y-16714285D01*
X31238095Y-43154819D02*
X31238095Y-43964342D01*
X31238095Y-43964342D02*
X31285714Y-44059580D01*
X31285714Y-44059580D02*
X31333333Y-44107200D01*
X31333333Y-44107200D02*
X31428571Y-44154819D01*
X31428571Y-44154819D02*
X31619047Y-44154819D01*
X31619047Y-44154819D02*
X31714285Y-44107200D01*
X31714285Y-44107200D02*
X31761904Y-44059580D01*
X31761904Y-44059580D02*
X31809523Y-43964342D01*
X31809523Y-43964342D02*
X31809523Y-43154819D01*
X32190476Y-43154819D02*
X32857142Y-43154819D01*
X32857142Y-43154819D02*
X32428571Y-44154819D01*
X84509580Y-15142857D02*
X84557200Y-15190476D01*
X84557200Y-15190476D02*
X84604819Y-15333333D01*
X84604819Y-15333333D02*
X84604819Y-15428571D01*
X84604819Y-15428571D02*
X84557200Y-15571428D01*
X84557200Y-15571428D02*
X84461961Y-15666666D01*
X84461961Y-15666666D02*
X84366723Y-15714285D01*
X84366723Y-15714285D02*
X84176247Y-15761904D01*
X84176247Y-15761904D02*
X84033390Y-15761904D01*
X84033390Y-15761904D02*
X83842914Y-15714285D01*
X83842914Y-15714285D02*
X83747676Y-15666666D01*
X83747676Y-15666666D02*
X83652438Y-15571428D01*
X83652438Y-15571428D02*
X83604819Y-15428571D01*
X83604819Y-15428571D02*
X83604819Y-15333333D01*
X83604819Y-15333333D02*
X83652438Y-15190476D01*
X83652438Y-15190476D02*
X83700057Y-15142857D01*
X84604819Y-14190476D02*
X84604819Y-14761904D01*
X84604819Y-14476190D02*
X83604819Y-14476190D01*
X83604819Y-14476190D02*
X83747676Y-14571428D01*
X83747676Y-14571428D02*
X83842914Y-14666666D01*
X83842914Y-14666666D02*
X83890533Y-14761904D01*
X83604819Y-13285714D02*
X83604819Y-13761904D01*
X83604819Y-13761904D02*
X84081009Y-13809523D01*
X84081009Y-13809523D02*
X84033390Y-13761904D01*
X84033390Y-13761904D02*
X83985771Y-13666666D01*
X83985771Y-13666666D02*
X83985771Y-13428571D01*
X83985771Y-13428571D02*
X84033390Y-13333333D01*
X84033390Y-13333333D02*
X84081009Y-13285714D01*
X84081009Y-13285714D02*
X84176247Y-13238095D01*
X84176247Y-13238095D02*
X84414342Y-13238095D01*
X84414342Y-13238095D02*
X84509580Y-13285714D01*
X84509580Y-13285714D02*
X84557200Y-13333333D01*
X84557200Y-13333333D02*
X84604819Y-13428571D01*
X84604819Y-13428571D02*
X84604819Y-13666666D01*
X84604819Y-13666666D02*
X84557200Y-13761904D01*
X84557200Y-13761904D02*
X84509580Y-13809523D01*
X15857142Y-51524819D02*
X15523809Y-51048628D01*
X15285714Y-51524819D02*
X15285714Y-50524819D01*
X15285714Y-50524819D02*
X15666666Y-50524819D01*
X15666666Y-50524819D02*
X15761904Y-50572438D01*
X15761904Y-50572438D02*
X15809523Y-50620057D01*
X15809523Y-50620057D02*
X15857142Y-50715295D01*
X15857142Y-50715295D02*
X15857142Y-50858152D01*
X15857142Y-50858152D02*
X15809523Y-50953390D01*
X15809523Y-50953390D02*
X15761904Y-51001009D01*
X15761904Y-51001009D02*
X15666666Y-51048628D01*
X15666666Y-51048628D02*
X15285714Y-51048628D01*
X16809523Y-51524819D02*
X16238095Y-51524819D01*
X16523809Y-51524819D02*
X16523809Y-50524819D01*
X16523809Y-50524819D02*
X16428571Y-50667676D01*
X16428571Y-50667676D02*
X16333333Y-50762914D01*
X16333333Y-50762914D02*
X16238095Y-50810533D01*
X17142857Y-50524819D02*
X17809523Y-50524819D01*
X17809523Y-50524819D02*
X17380952Y-51524819D01*
X88166666Y-67134819D02*
X88166666Y-67849104D01*
X88166666Y-67849104D02*
X88119047Y-67991961D01*
X88119047Y-67991961D02*
X88023809Y-68087200D01*
X88023809Y-68087200D02*
X87880952Y-68134819D01*
X87880952Y-68134819D02*
X87785714Y-68134819D01*
X89119047Y-67134819D02*
X88642857Y-67134819D01*
X88642857Y-67134819D02*
X88595238Y-67611009D01*
X88595238Y-67611009D02*
X88642857Y-67563390D01*
X88642857Y-67563390D02*
X88738095Y-67515771D01*
X88738095Y-67515771D02*
X88976190Y-67515771D01*
X88976190Y-67515771D02*
X89071428Y-67563390D01*
X89071428Y-67563390D02*
X89119047Y-67611009D01*
X89119047Y-67611009D02*
X89166666Y-67706247D01*
X89166666Y-67706247D02*
X89166666Y-67944342D01*
X89166666Y-67944342D02*
X89119047Y-68039580D01*
X89119047Y-68039580D02*
X89071428Y-68087200D01*
X89071428Y-68087200D02*
X88976190Y-68134819D01*
X88976190Y-68134819D02*
X88738095Y-68134819D01*
X88738095Y-68134819D02*
X88642857Y-68087200D01*
X88642857Y-68087200D02*
X88595238Y-68039580D01*
X25523809Y-31454819D02*
X25523809Y-32264342D01*
X25523809Y-32264342D02*
X25571428Y-32359580D01*
X25571428Y-32359580D02*
X25619047Y-32407200D01*
X25619047Y-32407200D02*
X25714285Y-32454819D01*
X25714285Y-32454819D02*
X25904761Y-32454819D01*
X25904761Y-32454819D02*
X25999999Y-32407200D01*
X25999999Y-32407200D02*
X26047618Y-32359580D01*
X26047618Y-32359580D02*
X26095237Y-32264342D01*
X26095237Y-32264342D02*
X26095237Y-31454819D01*
X26333333Y-32550057D02*
X27095237Y-32550057D01*
X27333333Y-31454819D02*
X27333333Y-32264342D01*
X27333333Y-32264342D02*
X27380952Y-32359580D01*
X27380952Y-32359580D02*
X27428571Y-32407200D01*
X27428571Y-32407200D02*
X27523809Y-32454819D01*
X27523809Y-32454819D02*
X27714285Y-32454819D01*
X27714285Y-32454819D02*
X27809523Y-32407200D01*
X27809523Y-32407200D02*
X27857142Y-32359580D01*
X27857142Y-32359580D02*
X27904761Y-32264342D01*
X27904761Y-32264342D02*
X27904761Y-31454819D01*
X28333333Y-32169104D02*
X28809523Y-32169104D01*
X28238095Y-32454819D02*
X28571428Y-31454819D01*
X28571428Y-31454819D02*
X28904761Y-32454819D01*
X29809523Y-32454819D02*
X29476190Y-31978628D01*
X29238095Y-32454819D02*
X29238095Y-31454819D01*
X29238095Y-31454819D02*
X29619047Y-31454819D01*
X29619047Y-31454819D02*
X29714285Y-31502438D01*
X29714285Y-31502438D02*
X29761904Y-31550057D01*
X29761904Y-31550057D02*
X29809523Y-31645295D01*
X29809523Y-31645295D02*
X29809523Y-31788152D01*
X29809523Y-31788152D02*
X29761904Y-31883390D01*
X29761904Y-31883390D02*
X29714285Y-31931009D01*
X29714285Y-31931009D02*
X29619047Y-31978628D01*
X29619047Y-31978628D02*
X29238095Y-31978628D01*
X30095238Y-31454819D02*
X30666666Y-31454819D01*
X30380952Y-32454819D02*
X30380952Y-31454819D01*
X31523809Y-32454819D02*
X30952381Y-32454819D01*
X31238095Y-32454819D02*
X31238095Y-31454819D01*
X31238095Y-31454819D02*
X31142857Y-31597676D01*
X31142857Y-31597676D02*
X31047619Y-31692914D01*
X31047619Y-31692914D02*
X30952381Y-31740533D01*
X5524819Y-67119047D02*
X5524819Y-67595237D01*
X5524819Y-67595237D02*
X4524819Y-67595237D01*
X5001009Y-66785713D02*
X5001009Y-66452380D01*
X5524819Y-66309523D02*
X5524819Y-66785713D01*
X5524819Y-66785713D02*
X4524819Y-66785713D01*
X4524819Y-66785713D02*
X4524819Y-66309523D01*
X5524819Y-65880951D02*
X4524819Y-65880951D01*
X4524819Y-65880951D02*
X4524819Y-65642856D01*
X4524819Y-65642856D02*
X4572438Y-65499999D01*
X4572438Y-65499999D02*
X4667676Y-65404761D01*
X4667676Y-65404761D02*
X4762914Y-65357142D01*
X4762914Y-65357142D02*
X4953390Y-65309523D01*
X4953390Y-65309523D02*
X5096247Y-65309523D01*
X5096247Y-65309523D02*
X5286723Y-65357142D01*
X5286723Y-65357142D02*
X5381961Y-65404761D01*
X5381961Y-65404761D02*
X5477200Y-65499999D01*
X5477200Y-65499999D02*
X5524819Y-65642856D01*
X5524819Y-65642856D02*
X5524819Y-65880951D01*
X5524819Y-64357142D02*
X5524819Y-64928570D01*
X5524819Y-64642856D02*
X4524819Y-64642856D01*
X4524819Y-64642856D02*
X4667676Y-64738094D01*
X4667676Y-64738094D02*
X4762914Y-64833332D01*
X4762914Y-64833332D02*
X4810533Y-64928570D01*
X59307142Y-67179580D02*
X59259523Y-67227200D01*
X59259523Y-67227200D02*
X59116666Y-67274819D01*
X59116666Y-67274819D02*
X59021428Y-67274819D01*
X59021428Y-67274819D02*
X58878571Y-67227200D01*
X58878571Y-67227200D02*
X58783333Y-67131961D01*
X58783333Y-67131961D02*
X58735714Y-67036723D01*
X58735714Y-67036723D02*
X58688095Y-66846247D01*
X58688095Y-66846247D02*
X58688095Y-66703390D01*
X58688095Y-66703390D02*
X58735714Y-66512914D01*
X58735714Y-66512914D02*
X58783333Y-66417676D01*
X58783333Y-66417676D02*
X58878571Y-66322438D01*
X58878571Y-66322438D02*
X59021428Y-66274819D01*
X59021428Y-66274819D02*
X59116666Y-66274819D01*
X59116666Y-66274819D02*
X59259523Y-66322438D01*
X59259523Y-66322438D02*
X59307142Y-66370057D01*
X59640476Y-66274819D02*
X60259523Y-66274819D01*
X60259523Y-66274819D02*
X59926190Y-66655771D01*
X59926190Y-66655771D02*
X60069047Y-66655771D01*
X60069047Y-66655771D02*
X60164285Y-66703390D01*
X60164285Y-66703390D02*
X60211904Y-66751009D01*
X60211904Y-66751009D02*
X60259523Y-66846247D01*
X60259523Y-66846247D02*
X60259523Y-67084342D01*
X60259523Y-67084342D02*
X60211904Y-67179580D01*
X60211904Y-67179580D02*
X60164285Y-67227200D01*
X60164285Y-67227200D02*
X60069047Y-67274819D01*
X60069047Y-67274819D02*
X59783333Y-67274819D01*
X59783333Y-67274819D02*
X59688095Y-67227200D01*
X59688095Y-67227200D02*
X59640476Y-67179580D01*
X61116666Y-66608152D02*
X61116666Y-67274819D01*
X60878571Y-66227200D02*
X60640476Y-66941485D01*
X60640476Y-66941485D02*
X61259523Y-66941485D01*
X16524819Y-65666666D02*
X16048628Y-65999999D01*
X16524819Y-66238094D02*
X15524819Y-66238094D01*
X15524819Y-66238094D02*
X15524819Y-65857142D01*
X15524819Y-65857142D02*
X15572438Y-65761904D01*
X15572438Y-65761904D02*
X15620057Y-65714285D01*
X15620057Y-65714285D02*
X15715295Y-65666666D01*
X15715295Y-65666666D02*
X15858152Y-65666666D01*
X15858152Y-65666666D02*
X15953390Y-65714285D01*
X15953390Y-65714285D02*
X16001009Y-65761904D01*
X16001009Y-65761904D02*
X16048628Y-65857142D01*
X16048628Y-65857142D02*
X16048628Y-66238094D01*
X15858152Y-64809523D02*
X16524819Y-64809523D01*
X15477200Y-65047618D02*
X16191485Y-65285713D01*
X16191485Y-65285713D02*
X16191485Y-64666666D01*
X61929580Y-41642857D02*
X61977200Y-41690476D01*
X61977200Y-41690476D02*
X62024819Y-41833333D01*
X62024819Y-41833333D02*
X62024819Y-41928571D01*
X62024819Y-41928571D02*
X61977200Y-42071428D01*
X61977200Y-42071428D02*
X61881961Y-42166666D01*
X61881961Y-42166666D02*
X61786723Y-42214285D01*
X61786723Y-42214285D02*
X61596247Y-42261904D01*
X61596247Y-42261904D02*
X61453390Y-42261904D01*
X61453390Y-42261904D02*
X61262914Y-42214285D01*
X61262914Y-42214285D02*
X61167676Y-42166666D01*
X61167676Y-42166666D02*
X61072438Y-42071428D01*
X61072438Y-42071428D02*
X61024819Y-41928571D01*
X61024819Y-41928571D02*
X61024819Y-41833333D01*
X61024819Y-41833333D02*
X61072438Y-41690476D01*
X61072438Y-41690476D02*
X61120057Y-41642857D01*
X62024819Y-40690476D02*
X62024819Y-41261904D01*
X62024819Y-40976190D02*
X61024819Y-40976190D01*
X61024819Y-40976190D02*
X61167676Y-41071428D01*
X61167676Y-41071428D02*
X61262914Y-41166666D01*
X61262914Y-41166666D02*
X61310533Y-41261904D01*
X62024819Y-40214285D02*
X62024819Y-40023809D01*
X62024819Y-40023809D02*
X61977200Y-39928571D01*
X61977200Y-39928571D02*
X61929580Y-39880952D01*
X61929580Y-39880952D02*
X61786723Y-39785714D01*
X61786723Y-39785714D02*
X61596247Y-39738095D01*
X61596247Y-39738095D02*
X61215295Y-39738095D01*
X61215295Y-39738095D02*
X61120057Y-39785714D01*
X61120057Y-39785714D02*
X61072438Y-39833333D01*
X61072438Y-39833333D02*
X61024819Y-39928571D01*
X61024819Y-39928571D02*
X61024819Y-40119047D01*
X61024819Y-40119047D02*
X61072438Y-40214285D01*
X61072438Y-40214285D02*
X61120057Y-40261904D01*
X61120057Y-40261904D02*
X61215295Y-40309523D01*
X61215295Y-40309523D02*
X61453390Y-40309523D01*
X61453390Y-40309523D02*
X61548628Y-40261904D01*
X61548628Y-40261904D02*
X61596247Y-40214285D01*
X61596247Y-40214285D02*
X61643866Y-40119047D01*
X61643866Y-40119047D02*
X61643866Y-39928571D01*
X61643866Y-39928571D02*
X61596247Y-39833333D01*
X61596247Y-39833333D02*
X61548628Y-39785714D01*
X61548628Y-39785714D02*
X61453390Y-39738095D01*
X26054819Y-73333333D02*
X26769104Y-73333333D01*
X26769104Y-73333333D02*
X26911961Y-73380952D01*
X26911961Y-73380952D02*
X27007200Y-73476190D01*
X27007200Y-73476190D02*
X27054819Y-73619047D01*
X27054819Y-73619047D02*
X27054819Y-73714285D01*
X26054819Y-72952380D02*
X26054819Y-72333333D01*
X26054819Y-72333333D02*
X26435771Y-72666666D01*
X26435771Y-72666666D02*
X26435771Y-72523809D01*
X26435771Y-72523809D02*
X26483390Y-72428571D01*
X26483390Y-72428571D02*
X26531009Y-72380952D01*
X26531009Y-72380952D02*
X26626247Y-72333333D01*
X26626247Y-72333333D02*
X26864342Y-72333333D01*
X26864342Y-72333333D02*
X26959580Y-72380952D01*
X26959580Y-72380952D02*
X27007200Y-72428571D01*
X27007200Y-72428571D02*
X27054819Y-72523809D01*
X27054819Y-72523809D02*
X27054819Y-72809523D01*
X27054819Y-72809523D02*
X27007200Y-72904761D01*
X27007200Y-72904761D02*
X26959580Y-72952380D01*
X6929580Y-18166666D02*
X6977200Y-18214285D01*
X6977200Y-18214285D02*
X7024819Y-18357142D01*
X7024819Y-18357142D02*
X7024819Y-18452380D01*
X7024819Y-18452380D02*
X6977200Y-18595237D01*
X6977200Y-18595237D02*
X6881961Y-18690475D01*
X6881961Y-18690475D02*
X6786723Y-18738094D01*
X6786723Y-18738094D02*
X6596247Y-18785713D01*
X6596247Y-18785713D02*
X6453390Y-18785713D01*
X6453390Y-18785713D02*
X6262914Y-18738094D01*
X6262914Y-18738094D02*
X6167676Y-18690475D01*
X6167676Y-18690475D02*
X6072438Y-18595237D01*
X6072438Y-18595237D02*
X6024819Y-18452380D01*
X6024819Y-18452380D02*
X6024819Y-18357142D01*
X6024819Y-18357142D02*
X6072438Y-18214285D01*
X6072438Y-18214285D02*
X6120057Y-18166666D01*
X6024819Y-17833332D02*
X6024819Y-17166666D01*
X6024819Y-17166666D02*
X7024819Y-17595237D01*
X19929580Y-38166666D02*
X19977200Y-38214285D01*
X19977200Y-38214285D02*
X20024819Y-38357142D01*
X20024819Y-38357142D02*
X20024819Y-38452380D01*
X20024819Y-38452380D02*
X19977200Y-38595237D01*
X19977200Y-38595237D02*
X19881961Y-38690475D01*
X19881961Y-38690475D02*
X19786723Y-38738094D01*
X19786723Y-38738094D02*
X19596247Y-38785713D01*
X19596247Y-38785713D02*
X19453390Y-38785713D01*
X19453390Y-38785713D02*
X19262914Y-38738094D01*
X19262914Y-38738094D02*
X19167676Y-38690475D01*
X19167676Y-38690475D02*
X19072438Y-38595237D01*
X19072438Y-38595237D02*
X19024819Y-38452380D01*
X19024819Y-38452380D02*
X19024819Y-38357142D01*
X19024819Y-38357142D02*
X19072438Y-38214285D01*
X19072438Y-38214285D02*
X19120057Y-38166666D01*
X19024819Y-37833332D02*
X19024819Y-37214285D01*
X19024819Y-37214285D02*
X19405771Y-37547618D01*
X19405771Y-37547618D02*
X19405771Y-37404761D01*
X19405771Y-37404761D02*
X19453390Y-37309523D01*
X19453390Y-37309523D02*
X19501009Y-37261904D01*
X19501009Y-37261904D02*
X19596247Y-37214285D01*
X19596247Y-37214285D02*
X19834342Y-37214285D01*
X19834342Y-37214285D02*
X19929580Y-37261904D01*
X19929580Y-37261904D02*
X19977200Y-37309523D01*
X19977200Y-37309523D02*
X20024819Y-37404761D01*
X20024819Y-37404761D02*
X20024819Y-37690475D01*
X20024819Y-37690475D02*
X19977200Y-37785713D01*
X19977200Y-37785713D02*
X19929580Y-37833332D01*
X33333333Y-58004819D02*
X32857143Y-58004819D01*
X32857143Y-58004819D02*
X32857143Y-57004819D01*
X34190476Y-58004819D02*
X33619048Y-58004819D01*
X33904762Y-58004819D02*
X33904762Y-57004819D01*
X33904762Y-57004819D02*
X33809524Y-57147676D01*
X33809524Y-57147676D02*
X33714286Y-57242914D01*
X33714286Y-57242914D02*
X33619048Y-57290533D01*
%TO.C,C23*%
D11*
X81490000Y-48140580D02*
X81490000Y-47859420D01*
X82510000Y-48140580D02*
X82510000Y-47859420D01*
%TO.C,C24*%
X56859420Y-34490000D02*
X57140580Y-34490000D01*
X56859420Y-35510000D02*
X57140580Y-35510000D01*
%TO.C,C22*%
X81490000Y-44640580D02*
X81490000Y-44359420D01*
X82510000Y-44640580D02*
X82510000Y-44359420D01*
%TO.C,C25*%
X56859420Y-37990000D02*
X57140580Y-37990000D01*
X56859420Y-39010000D02*
X57140580Y-39010000D01*
%TO.C,C27*%
X56859420Y-44990000D02*
X57140580Y-44990000D01*
X56859420Y-46010000D02*
X57140580Y-46010000D01*
%TO.C,C36*%
X78688748Y-73265000D02*
X79211252Y-73265000D01*
X78688748Y-74735000D02*
X79211252Y-74735000D01*
%TO.C,R12*%
X69477500Y-31237258D02*
X69477500Y-30762742D01*
X70522500Y-31237258D02*
X70522500Y-30762742D01*
%TO.C,C13*%
X67859420Y-26490000D02*
X68140580Y-26490000D01*
X67859420Y-27510000D02*
X68140580Y-27510000D01*
%TO.C,L6*%
X76900000Y-64800000D02*
X76900000Y-56800000D01*
X85100000Y-64800000D02*
X85100000Y-56800000D01*
%TO.C,C31*%
X76359420Y-54490000D02*
X76640580Y-54490000D01*
X76359420Y-55510000D02*
X76640580Y-55510000D01*
%TO.C,R19*%
X63262742Y-36977500D02*
X63737258Y-36977500D01*
X63262742Y-38022500D02*
X63737258Y-38022500D01*
%TO.C,C30*%
X71359420Y-54490000D02*
X71640580Y-54490000D01*
X71359420Y-55510000D02*
X71640580Y-55510000D01*
%TO.C,C4*%
X28265000Y-54261252D02*
X28265000Y-53738748D01*
X29735000Y-54261252D02*
X29735000Y-53738748D01*
%TO.C,R18*%
X40477500Y-71237258D02*
X40477500Y-70762742D01*
X41522500Y-71237258D02*
X41522500Y-70762742D01*
%TO.C,C5*%
X38265000Y-54261252D02*
X38265000Y-53738748D01*
X39735000Y-54261252D02*
X39735000Y-53738748D01*
%TO.C,C6*%
X7265000Y-14261252D02*
X7265000Y-13738748D01*
X8735000Y-14261252D02*
X8735000Y-13738748D01*
%TO.C,D2*%
X35490000Y-42350000D02*
X35490000Y-45650000D01*
X35490000Y-42350000D02*
X41000000Y-42350000D01*
X35490000Y-45650000D02*
X41000000Y-45650000D01*
%TO.C,C32*%
X80859420Y-54490000D02*
X81140580Y-54490000D01*
X80859420Y-55510000D02*
X81140580Y-55510000D01*
%TO.C,R2*%
X19477500Y-69237258D02*
X19477500Y-68762742D01*
X20522500Y-69237258D02*
X20522500Y-68762742D01*
%TO.C,R16*%
X9477500Y-54237258D02*
X9477500Y-53762742D01*
X10522500Y-54237258D02*
X10522500Y-53762742D01*
%TO.C,C12*%
X65490000Y-20140580D02*
X65490000Y-19859420D01*
X66510000Y-20140580D02*
X66510000Y-19859420D01*
%TO.C,U6*%
D12*
X19500000Y-47240000D02*
X19500000Y-45840000D01*
X19500000Y-50110000D02*
X19500000Y-48710000D01*
X19500000Y-50110000D02*
X22500000Y-50110000D01*
X22460000Y-45840000D02*
X19500000Y-45840000D01*
X22500000Y-50110000D02*
X22500000Y-45840000D01*
D13*
X19270000Y-50570000D02*
G75*
G02*
X19267459Y-50569852I-10011J-149999D01*
G01*
D12*
X19500000Y-47230000D02*
G75*
G02*
X19500000Y-48690000I0J-730000D01*
G01*
D14*
X19550000Y-51200000D02*
G75*
G02*
X19450000Y-51200000I-50000J0D01*
G01*
X19450000Y-51200000D02*
G75*
G02*
X19550000Y-51200000I50000J0D01*
G01*
%TO.C,C26*%
D11*
X56859420Y-41490000D02*
X57140580Y-41490000D01*
X56859420Y-42510000D02*
X57140580Y-42510000D01*
%TO.C,R6*%
X11262742Y-59477500D02*
X11737258Y-59477500D01*
X11262742Y-60522500D02*
X11737258Y-60522500D01*
%TO.C,C28*%
X56859420Y-48490000D02*
X57140580Y-48490000D01*
X56859420Y-49510000D02*
X57140580Y-49510000D01*
%TO.C,U5*%
D12*
X13100000Y-46450000D02*
X14900000Y-46450000D01*
X13100000Y-49550000D02*
X14900000Y-49550000D01*
D15*
X15430000Y-49450000D02*
G75*
G02*
X15370000Y-49450000I-30000J0D01*
G01*
X15370000Y-49450000D02*
G75*
G02*
X15430000Y-49450000I30000J0D01*
G01*
D12*
X15520000Y-49650000D02*
G75*
G02*
X15280000Y-49650000I-120000J0D01*
G01*
X15280000Y-49650000D02*
G75*
G02*
X15520000Y-49650000I120000J0D01*
G01*
%TO.C,C18*%
D11*
X85900000Y-33490000D02*
X86900000Y-33490000D01*
X86400000Y-32990000D02*
X86400000Y-33990000D01*
X87140000Y-32704437D02*
X87140000Y-34490000D01*
X87140000Y-32704437D02*
X88204437Y-31640000D01*
X87140000Y-39295563D02*
X87140000Y-37510000D01*
X87140000Y-39295563D02*
X88204437Y-40360000D01*
X88204437Y-31640000D02*
X95860000Y-31640000D01*
X88204437Y-40360000D02*
X95860000Y-40360000D01*
X95860000Y-31640000D02*
X95860000Y-34490000D01*
X95860000Y-40360000D02*
X95860000Y-37510000D01*
%TO.C,R10*%
X79762742Y-31477500D02*
X80237258Y-31477500D01*
X79762742Y-32522500D02*
X80237258Y-32522500D01*
%TO.C,R1*%
X10977500Y-68237258D02*
X10977500Y-67762742D01*
X12022500Y-68237258D02*
X12022500Y-67762742D01*
%TO.C,U1*%
D10*
X68420000Y-43380000D02*
X79580000Y-43380000D01*
X68420000Y-48620000D02*
X68420000Y-43380000D01*
X79580000Y-43380000D02*
X79580000Y-48620000D01*
X79580000Y-48620000D02*
X68420000Y-48620000D01*
D13*
X68650000Y-49720000D02*
G75*
G02*
X68350000Y-49720000I-150000J0D01*
G01*
X68350000Y-49720000D02*
G75*
G02*
X68650000Y-49720000I150000J0D01*
G01*
D15*
X68530000Y-50050000D02*
G75*
G02*
X68470000Y-50050000I-30000J0D01*
G01*
X68470000Y-50050000D02*
G75*
G02*
X68530000Y-50050000I30000J0D01*
G01*
D13*
X69280000Y-47870000D02*
G75*
G02*
X68960000Y-47870000I-160000J0D01*
G01*
X68960000Y-47870000D02*
G75*
G02*
X69280000Y-47870000I160000J0D01*
G01*
%TO.C,R5*%
D11*
X11262742Y-64477500D02*
X11737258Y-64477500D01*
X11262742Y-65522500D02*
X11737258Y-65522500D01*
%TO.C,C2*%
X41238748Y-61265000D02*
X41761252Y-61265000D01*
X41238748Y-62735000D02*
X41761252Y-62735000D01*
%TO.C,L3*%
X66900000Y-64800000D02*
X66900000Y-56800000D01*
X75100000Y-64800000D02*
X75100000Y-56800000D01*
%TO.C,C37*%
X7990000Y-41140580D02*
X7990000Y-40859420D01*
X9010000Y-41140580D02*
X9010000Y-40859420D01*
%TO.C,C10*%
X45265000Y-22761252D02*
X45265000Y-22238748D01*
X46735000Y-22761252D02*
X46735000Y-22238748D01*
%TO.C,C14*%
X73490000Y-32640580D02*
X73490000Y-32359420D01*
X74510000Y-32640580D02*
X74510000Y-32359420D01*
%TO.C,C35*%
X78738748Y-67765000D02*
X79261252Y-67765000D01*
X78738748Y-69235000D02*
X79261252Y-69235000D01*
%TO.C,R3*%
X17977500Y-62062258D02*
X17977500Y-61587742D01*
X19022500Y-62062258D02*
X19022500Y-61587742D01*
%TO.C,R8*%
X41087742Y-22477500D02*
X41562258Y-22477500D01*
X41087742Y-23522500D02*
X41562258Y-23522500D01*
%TO.C,U4*%
D12*
X11440000Y-11500000D02*
X11440000Y-29500000D01*
X11440000Y-11500000D02*
X17910000Y-11500000D01*
X11440000Y-29500000D02*
X17890000Y-29500000D01*
X17730000Y-11500000D02*
X17730000Y-29500000D01*
X17730000Y-29500000D02*
X18240000Y-29500000D01*
X18240000Y-11480000D02*
X17730000Y-11480000D01*
X36110000Y-29500000D02*
X36940000Y-29500000D01*
X36940000Y-11480000D02*
X36110000Y-11480000D01*
X36940000Y-14100000D02*
X36940000Y-11480000D01*
X36940000Y-29500000D02*
X36940000Y-26900000D01*
D15*
X11420000Y-29500000D02*
G75*
G02*
X11360000Y-29500000I-30000J0D01*
G01*
X11360000Y-29500000D02*
G75*
G02*
X11420000Y-29500000I30000J0D01*
G01*
%TO.C,SW_BOOT1*%
D11*
X38770000Y-32770000D02*
X45230000Y-32770000D01*
X38770000Y-32800000D02*
X38770000Y-32770000D01*
X38770000Y-34700000D02*
X38770000Y-37300000D01*
X38770000Y-39230000D02*
X38770000Y-39200000D01*
X38770000Y-39230000D02*
X45230000Y-39230000D01*
X45230000Y-32770000D02*
X45230000Y-32800000D01*
X45230000Y-34700000D02*
X45230000Y-37300000D01*
X45230000Y-39230000D02*
X45230000Y-39200000D01*
%TO.C,C11*%
X67859420Y-12490000D02*
X68140580Y-12490000D01*
X67859420Y-13510000D02*
X68140580Y-13510000D01*
%TO.C,LED2*%
X5765000Y-59200000D02*
X5765000Y-61485000D01*
X5765000Y-61485000D02*
X7235000Y-61485000D01*
X7235000Y-61485000D02*
X7235000Y-59200000D01*
%TO.C,C8*%
X7859420Y-27490000D02*
X8140580Y-27490000D01*
X7859420Y-28510000D02*
X8140580Y-28510000D01*
%TO.C,L2*%
X50700000Y-14700000D02*
X61300000Y-14700000D01*
X50700000Y-17900000D02*
X50700000Y-14700000D01*
X50700000Y-25300000D02*
X50700000Y-22100000D01*
X61300000Y-14700000D02*
X61300000Y-17900000D01*
X61300000Y-22100000D02*
X61300000Y-25300000D01*
X61300000Y-25300000D02*
X50700000Y-25300000D01*
%TO.C,C33*%
X59738748Y-73265000D02*
X60261252Y-73265000D01*
X59738748Y-74735000D02*
X60261252Y-74735000D01*
%TO.C,J1*%
D12*
X10530000Y-75380000D02*
X10530000Y-73510000D01*
X10530000Y-79090000D02*
X10530000Y-77610000D01*
X19470000Y-75380000D02*
X19470000Y-73510000D01*
X19470000Y-79090000D02*
X10530000Y-79090000D01*
X19470000Y-79090000D02*
X19470000Y-77610000D01*
D15*
X19500000Y-71240000D02*
G75*
G02*
X19440000Y-71240000I-30000J0D01*
G01*
X19440000Y-71240000D02*
G75*
G02*
X19500000Y-71240000I30000J0D01*
G01*
%TO.C,C29*%
D11*
X66859420Y-54490000D02*
X67140580Y-54490000D01*
X66859420Y-55510000D02*
X67140580Y-55510000D01*
%TO.C,R15*%
X68762742Y-34477500D02*
X69237258Y-34477500D01*
X68762742Y-35522500D02*
X69237258Y-35522500D01*
%TO.C,D3*%
X47350000Y-65510000D02*
X47350000Y-60000000D01*
X47350000Y-65510000D02*
X50650000Y-65510000D01*
X50650000Y-65510000D02*
X50650000Y-60000000D01*
%TO.C,U2*%
D12*
X71700000Y-18200000D02*
X71700000Y-18880000D01*
X71700000Y-18200000D02*
X71870000Y-18200000D01*
X71700000Y-21120000D02*
X71700000Y-21800000D01*
X71700000Y-21800000D02*
X71870000Y-21800000D01*
X76130000Y-18200000D02*
X76300000Y-18200000D01*
X76130000Y-21800000D02*
X76300000Y-21800000D01*
X76300000Y-18200000D02*
X76300000Y-18880000D01*
X76300000Y-21120000D02*
X76300000Y-21800000D01*
D16*
X71410000Y-21200000D02*
G75*
G02*
X71190000Y-21200000I-110000J0D01*
G01*
X71190000Y-21200000D02*
G75*
G02*
X71410000Y-21200000I110000J0D01*
G01*
D15*
X71740000Y-21750000D02*
G75*
G02*
X71680000Y-21750000I-30000J0D01*
G01*
X71680000Y-21750000D02*
G75*
G02*
X71740000Y-21750000I30000J0D01*
G01*
%TO.C,L4*%
D11*
X56900000Y-64800000D02*
X56900000Y-56800000D01*
X65100000Y-64800000D02*
X65100000Y-56800000D01*
%TO.C,R7*%
X7762742Y-22477500D02*
X8237258Y-22477500D01*
X7762742Y-23522500D02*
X8237258Y-23522500D01*
%TO.C,R11*%
X73477500Y-28237258D02*
X73477500Y-27762742D01*
X74522500Y-28237258D02*
X74522500Y-27762742D01*
%TO.C,J2*%
D12*
X42150000Y-68800000D02*
X42150000Y-83200000D01*
X42150000Y-83200000D02*
X51130000Y-83200000D01*
X44390000Y-68800000D02*
X42150000Y-68800000D01*
X51150000Y-68800000D02*
X48910000Y-68800000D01*
X51150000Y-70290000D02*
X51150000Y-68800000D01*
X51150000Y-79700000D02*
X42150000Y-79700000D01*
X51150000Y-83200000D02*
X51150000Y-74710000D01*
D15*
X42180000Y-68800000D02*
G75*
G02*
X42120000Y-68800000I-30000J0D01*
G01*
X42120000Y-68800000D02*
G75*
G02*
X42180000Y-68800000I30000J0D01*
G01*
%TO.C,D1*%
D11*
X23490000Y-42350000D02*
X23490000Y-45650000D01*
X23490000Y-42350000D02*
X29000000Y-42350000D01*
X23490000Y-45650000D02*
X29000000Y-45650000D01*
%TO.C,J6*%
D12*
X5090000Y-43820000D02*
X5090000Y-44830000D01*
X5090000Y-43820000D02*
X5340000Y-43820000D01*
X5090000Y-46230000D02*
X5090000Y-48770000D01*
X5090000Y-51180000D02*
X5090000Y-50040000D01*
X5090000Y-51180000D02*
X5340000Y-51180000D01*
X6480000Y-43820000D02*
X10930000Y-43820000D01*
X10930000Y-43820000D02*
X10930000Y-51180000D01*
X10930000Y-51180000D02*
X6480000Y-51180000D01*
D15*
X11060000Y-51230000D02*
G75*
G02*
X11000000Y-51230000I-30000J0D01*
G01*
X11000000Y-51230000D02*
G75*
G02*
X11060000Y-51230000I30000J0D01*
G01*
%TO.C,SW_RST1*%
D11*
X10270000Y-31770000D02*
X16730000Y-31770000D01*
X10270000Y-31800000D02*
X10270000Y-31770000D01*
X10270000Y-33700000D02*
X10270000Y-36300000D01*
X10270000Y-38230000D02*
X10270000Y-38200000D01*
X10270000Y-38230000D02*
X16730000Y-38230000D01*
X16730000Y-31770000D02*
X16730000Y-31800000D01*
X16730000Y-33700000D02*
X16730000Y-36300000D01*
X16730000Y-38230000D02*
X16730000Y-38200000D01*
%TO.C,C1*%
X17238748Y-57265000D02*
X17761252Y-57265000D01*
X17238748Y-58735000D02*
X17761252Y-58735000D01*
%TO.C,C17*%
X85090000Y-26211252D02*
X85090000Y-24788748D01*
X86910000Y-26211252D02*
X86910000Y-24788748D01*
%TO.C,R9*%
X79762742Y-27477500D02*
X80237258Y-27477500D01*
X79762742Y-28522500D02*
X80237258Y-28522500D01*
%TO.C,C21*%
X65490000Y-48140580D02*
X65490000Y-47859420D01*
X66510000Y-48140580D02*
X66510000Y-47859420D01*
%TO.C,U3*%
D12*
X22450000Y-59950000D02*
X27550000Y-59950000D01*
X22450000Y-61200000D02*
X22450000Y-59950000D01*
X22450000Y-62800000D02*
X22450000Y-64050000D01*
X27550000Y-59950000D02*
X27550000Y-64050000D01*
X27550000Y-64050000D02*
X22450000Y-64050000D01*
X22492227Y-61196354D02*
G75*
G02*
X22500000Y-62800000I-372227J-803646D01*
G01*
X22140000Y-64500000D02*
G75*
G02*
X21800000Y-64500000I-170000J0D01*
G01*
X21800000Y-64500000D02*
G75*
G02*
X22140000Y-64500000I170000J0D01*
G01*
D15*
X22580000Y-64950000D02*
G75*
G02*
X22520000Y-64950000I-30000J0D01*
G01*
X22520000Y-64950000D02*
G75*
G02*
X22580000Y-64950000I30000J0D01*
G01*
%TO.C,L5*%
D11*
X86900000Y-64800000D02*
X86900000Y-56800000D01*
X95100000Y-64800000D02*
X95100000Y-56800000D01*
%TO.C,J4*%
X63380000Y-68680000D02*
X73620000Y-68680000D01*
X63380000Y-71700000D02*
X73620000Y-71700000D01*
X63380000Y-76600000D02*
X73620000Y-76600000D01*
X63380000Y-78100000D02*
X73620000Y-78100000D01*
X63380000Y-78720000D02*
X63380000Y-68680000D01*
X65700000Y-78720000D02*
X63380000Y-78720000D01*
X73620000Y-68680000D02*
X73620000Y-78720000D01*
X73620000Y-78720000D02*
X66300000Y-78720000D01*
X66000000Y-78720000D02*
X66440000Y-79330000D01*
X65560000Y-79330000D01*
X66000000Y-78720000D01*
G36*
X66440000Y-79330000D02*
G01*
X65560000Y-79330000D01*
X66000000Y-78720000D01*
X66440000Y-79330000D01*
G37*
%TO.C,R13*%
X63762742Y-30477500D02*
X64237258Y-30477500D01*
X63762742Y-31522500D02*
X64237258Y-31522500D01*
%TO.C,C20*%
X65490000Y-44640580D02*
X65490000Y-44359420D01*
X66510000Y-44640580D02*
X66510000Y-44359420D01*
%TO.C,R14*%
X63262742Y-33477500D02*
X63737258Y-33477500D01*
X63262742Y-34522500D02*
X63737258Y-34522500D01*
%TO.C,C16*%
X85090000Y-20711252D02*
X85090000Y-19288748D01*
X86910000Y-20711252D02*
X86910000Y-19288748D01*
%TO.C,C9*%
X45265000Y-17761252D02*
X45265000Y-17238748D01*
X46735000Y-17761252D02*
X46735000Y-17238748D01*
%TO.C,U7*%
D10*
X30430000Y-46670000D02*
X33370000Y-46670000D01*
X30430000Y-53330000D02*
X30430000Y-46670000D01*
X33370000Y-46670000D02*
X33370000Y-53330000D01*
X33370000Y-53330000D02*
X30430000Y-53330000D01*
D15*
X35430000Y-53250000D02*
G75*
G02*
X35370000Y-53250000I-30000J0D01*
G01*
X35370000Y-53250000D02*
G75*
G02*
X35430000Y-53250000I30000J0D01*
G01*
%TO.C,C15*%
D11*
X85090000Y-15211252D02*
X85090000Y-13788748D01*
X86910000Y-15211252D02*
X86910000Y-13788748D01*
%TO.C,R17*%
X16262742Y-51977500D02*
X16737258Y-51977500D01*
X16262742Y-53022500D02*
X16737258Y-53022500D01*
%TO.C,J5*%
X83380000Y-68680000D02*
X93620000Y-68680000D01*
X83380000Y-71700000D02*
X93620000Y-71700000D01*
X83380000Y-76600000D02*
X93620000Y-76600000D01*
X83380000Y-78100000D02*
X93620000Y-78100000D01*
X83380000Y-78720000D02*
X83380000Y-68680000D01*
X85700000Y-78720000D02*
X83380000Y-78720000D01*
X93620000Y-68680000D02*
X93620000Y-78720000D01*
X93620000Y-78720000D02*
X86300000Y-78720000D01*
X86000000Y-78720000D02*
X86440000Y-79330000D01*
X85560000Y-79330000D01*
X86000000Y-78720000D01*
G36*
X86440000Y-79330000D02*
G01*
X85560000Y-79330000D01*
X86000000Y-78720000D01*
X86440000Y-79330000D01*
G37*
%TO.C,U_UART1*%
D10*
X25920000Y-35980000D02*
X31080000Y-35980000D01*
X25920000Y-39020000D02*
X25920000Y-35980000D01*
X31080000Y-35980000D02*
X31080000Y-39020000D01*
X31080000Y-39020000D02*
X25920000Y-39020000D01*
D13*
X25980000Y-40180000D02*
G75*
G02*
X25680000Y-40180000I-150000J0D01*
G01*
X25680000Y-40180000D02*
G75*
G02*
X25980000Y-40180000I150000J0D01*
G01*
D15*
X26080000Y-40500000D02*
G75*
G02*
X26020000Y-40500000I-30000J0D01*
G01*
X26020000Y-40500000D02*
G75*
G02*
X26080000Y-40500000I30000J0D01*
G01*
D13*
X26750000Y-38270000D02*
G75*
G02*
X26430000Y-38270000I-160000J0D01*
G01*
X26430000Y-38270000D02*
G75*
G02*
X26750000Y-38270000I160000J0D01*
G01*
%TO.C,LED1*%
D11*
X5765000Y-65200000D02*
X5765000Y-67485000D01*
X5765000Y-67485000D02*
X7235000Y-67485000D01*
X7235000Y-67485000D02*
X7235000Y-65200000D01*
%TO.C,C34*%
X59688748Y-67765000D02*
X60211252Y-67765000D01*
X59688748Y-69235000D02*
X60211252Y-69235000D01*
%TO.C,R4*%
X16977500Y-65737258D02*
X16977500Y-65262742D01*
X18022500Y-65737258D02*
X18022500Y-65262742D01*
%TO.C,C19*%
X62490000Y-41140580D02*
X62490000Y-40859420D01*
X63510000Y-41140580D02*
X63510000Y-40859420D01*
%TO.C,J3*%
D12*
X29950000Y-69170000D02*
X29950000Y-67930000D01*
X29950000Y-73170000D02*
X29950000Y-70830000D01*
X29950000Y-76170000D02*
X29950000Y-74830000D01*
X29950000Y-80110000D02*
X36050000Y-80110000D01*
X29950000Y-82200000D02*
X29950000Y-77830000D01*
X29950000Y-82200000D02*
X36050000Y-82200000D01*
X35180000Y-67800000D02*
X29950000Y-67800000D01*
X36050000Y-67800000D02*
X35620000Y-67800000D01*
X36050000Y-68170000D02*
X36050000Y-67800000D01*
X36050000Y-82200000D02*
X36050000Y-69830000D01*
D15*
X29980000Y-82200000D02*
G75*
G02*
X29920000Y-82200000I-30000J0D01*
G01*
X29920000Y-82200000D02*
G75*
G02*
X29980000Y-82200000I30000J0D01*
G01*
%TO.C,C7*%
D11*
X7490000Y-18140580D02*
X7490000Y-17859420D01*
X8510000Y-18140580D02*
X8510000Y-17859420D01*
%TO.C,C3*%
X20490000Y-38140580D02*
X20490000Y-37859420D01*
X21510000Y-38140580D02*
X21510000Y-37859420D01*
%TO.C,L1*%
X29800000Y-58300000D02*
X37200000Y-58300000D01*
X29800000Y-60600000D02*
X29800000Y-58300000D01*
X29800000Y-65700000D02*
X29800000Y-63400000D01*
X37200000Y-58300000D02*
X37200000Y-60600000D01*
X37200000Y-63400000D02*
X37200000Y-65700000D01*
X37200000Y-65700000D02*
X29800000Y-65700000D01*
%TD*%
M02*
