%TF.GenerationSoftware,KiCad,Pcbnew,10.0.5*%
%TF.CreationDate,2026-08-31T14:20:34+05:30*%
%TF.ProjectId,AuraForge_50X,41757261-466f-4726-9765-5f3530582e6b,v1.0*%
%TF.SameCoordinates,Original*%
%TF.FileFunction,Drillmap*%
%TF.FilePolarity,Positive*%
%FSLAX45Y45*%
G04 Gerber Fmt 4.5, Leading zero omitted, Abs format (unit mm)*
G04 Created by KiCad (PCBNEW 10.0.5) date 2026-08-31 14:20:34*
%MOMM*%
%LPD*%
G01*
G04 APERTURE LIST*
%ADD10C,0.200000*%
%ADD11C,0.150000*%
%ADD12C,0.100000*%
%ADD13C,0.120000*%
%ADD14C,0.130000*%
G04 APERTURE END LIST*
D10*
X0Y-500000D02*
X0Y-500000D01*
G75*
G02*
X500000Y0I500000J0D01*
G01*
X9500000Y0D01*
G75*
G02*
X10000000Y-500000I0J-500000D01*
G01*
X10000000Y-7500000D01*
G75*
G02*
X9500000Y-8000000I-500000J0D01*
G01*
X500000Y-8000000D01*
G75*
G02*
X0Y-7500000I0J500000D01*
G01*
X0Y-500000D01*
D11*
X560000Y-400000D02*
G75*
G02*
X240000Y-400000I-160000J0D01*
G01*
X240000Y-400000D02*
G75*
G02*
X560000Y-400000I160000J0D01*
G01*
X560000Y-7600000D02*
G75*
G02*
X240000Y-7600000I-160000J0D01*
G01*
X240000Y-7600000D02*
G75*
G02*
X560000Y-7600000I160000J0D01*
G01*
X9760000Y-400000D02*
G75*
G02*
X9440000Y-400000I-160000J0D01*
G01*
X9440000Y-400000D02*
G75*
G02*
X9760000Y-400000I160000J0D01*
G01*
X9760000Y-7600000D02*
G75*
G02*
X9440000Y-7600000I-160000J0D01*
G01*
X9440000Y-7600000D02*
G75*
G02*
X9760000Y-7600000I160000J0D01*
G01*
D10*
D12*
X7263000Y-1990000D02*
X7283000Y-2010000D01*
X7283000Y-1990000D02*
X7263000Y-2010000D01*
X7338000Y-1913000D02*
X7358000Y-1933000D01*
X7358000Y-1913000D02*
X7338000Y-1933000D01*
X7338000Y-1990000D02*
X7358000Y-2010000D01*
X7358000Y-1990000D02*
X7338000Y-2010000D01*
X7338000Y-2067000D02*
X7358000Y-2087000D01*
X7358000Y-2067000D02*
X7338000Y-2087000D01*
X7443000Y-1913000D02*
X7463000Y-1933000D01*
X7463000Y-1913000D02*
X7443000Y-1933000D01*
X7443000Y-1990000D02*
X7463000Y-2010000D01*
X7463000Y-1990000D02*
X7443000Y-2010000D01*
X7443000Y-2067000D02*
X7463000Y-2087000D01*
X7463000Y-2067000D02*
X7443000Y-2087000D01*
X7518000Y-1990000D02*
X7538000Y-2010000D01*
X7538000Y-1990000D02*
X7518000Y-2010000D01*
X1115000Y-5600000D02*
G75*
G02*
X1085000Y-5600000I-15000J0D01*
G01*
X1085000Y-5600000D02*
G75*
G02*
X1115000Y-5600000I15000J0D01*
G01*
X1247500Y-6500000D02*
G75*
G02*
X1217500Y-6500000I-15000J0D01*
G01*
X1217500Y-6500000D02*
G75*
G02*
X1247500Y-6500000I15000J0D01*
G01*
X1280000Y-4800000D02*
G75*
G02*
X1250000Y-4800000I-15000J0D01*
G01*
X1250000Y-4800000D02*
G75*
G02*
X1280000Y-4800000I15000J0D01*
G01*
X1415000Y-6300000D02*
G75*
G02*
X1385000Y-6300000I-15000J0D01*
G01*
X1385000Y-6300000D02*
G75*
G02*
X1415000Y-6300000I15000J0D01*
G01*
X1615000Y-4900000D02*
G75*
G02*
X1585000Y-4900000I-15000J0D01*
G01*
X1585000Y-4900000D02*
G75*
G02*
X1615000Y-4900000I15000J0D01*
G01*
X1615000Y-5200000D02*
G75*
G02*
X1585000Y-5200000I-15000J0D01*
G01*
X1585000Y-5200000D02*
G75*
G02*
X1615000Y-5200000I15000J0D01*
G01*
X1715000Y-4600000D02*
G75*
G02*
X1685000Y-4600000I-15000J0D01*
G01*
X1685000Y-4600000D02*
G75*
G02*
X1715000Y-4600000I15000J0D01*
G01*
X1715000Y-4800000D02*
G75*
G02*
X1685000Y-4800000I-15000J0D01*
G01*
X1685000Y-4800000D02*
G75*
G02*
X1715000Y-4800000I15000J0D01*
G01*
X1915000Y-6500000D02*
G75*
G02*
X1885000Y-6500000I-15000J0D01*
G01*
X1885000Y-6500000D02*
G75*
G02*
X1915000Y-6500000I15000J0D01*
G01*
X2213000Y-5120000D02*
G75*
G02*
X2183000Y-5120000I-15000J0D01*
G01*
X2183000Y-5120000D02*
G75*
G02*
X2213000Y-5120000I15000J0D01*
G01*
X2218000Y-4480000D02*
G75*
G02*
X2188000Y-4480000I-15000J0D01*
G01*
X2188000Y-4480000D02*
G75*
G02*
X2218000Y-4480000I15000J0D01*
G01*
X2579000Y-6491000D02*
G75*
G02*
X2549000Y-6491000I-15000J0D01*
G01*
X2549000Y-6491000D02*
G75*
G02*
X2579000Y-6491000I15000J0D01*
G01*
X2615000Y-3000000D02*
G75*
G02*
X2585000Y-3000000I-15000J0D01*
G01*
X2585000Y-3000000D02*
G75*
G02*
X2615000Y-3000000I15000J0D01*
G01*
X2915000Y-3300000D02*
G75*
G02*
X2885000Y-3300000I-15000J0D01*
G01*
X2885000Y-3300000D02*
G75*
G02*
X2915000Y-3300000I15000J0D01*
G01*
X3075000Y-6440000D02*
G75*
G02*
X3045000Y-6440000I-15000J0D01*
G01*
X3045000Y-6440000D02*
G75*
G02*
X3075000Y-6440000I15000J0D01*
G01*
X3115000Y-3300000D02*
G75*
G02*
X3085000Y-3300000I-15000J0D01*
G01*
X3085000Y-3300000D02*
G75*
G02*
X3115000Y-3300000I15000J0D01*
G01*
X3215000Y-7700000D02*
G75*
G02*
X3185000Y-7700000I-15000J0D01*
G01*
X3185000Y-7700000D02*
G75*
G02*
X3215000Y-7700000I15000J0D01*
G01*
X3315000Y-3200000D02*
G75*
G02*
X3285000Y-3200000I-15000J0D01*
G01*
X3285000Y-3200000D02*
G75*
G02*
X3315000Y-3200000I15000J0D01*
G01*
X3915000Y-4700000D02*
G75*
G02*
X3885000Y-4700000I-15000J0D01*
G01*
X3885000Y-4700000D02*
G75*
G02*
X3915000Y-4700000I15000J0D01*
G01*
X4015000Y-700000D02*
G75*
G02*
X3985000Y-700000I-15000J0D01*
G01*
X3985000Y-700000D02*
G75*
G02*
X4015000Y-700000I15000J0D01*
G01*
X4015000Y-2600000D02*
G75*
G02*
X3985000Y-2600000I-15000J0D01*
G01*
X3985000Y-2600000D02*
G75*
G02*
X4015000Y-2600000I15000J0D01*
G01*
X4115000Y-2000000D02*
G75*
G02*
X4085000Y-2000000I-15000J0D01*
G01*
X4085000Y-2000000D02*
G75*
G02*
X4115000Y-2000000I15000J0D01*
G01*
X4115000Y-3000000D02*
G75*
G02*
X4085000Y-3000000I-15000J0D01*
G01*
X4085000Y-3000000D02*
G75*
G02*
X4115000Y-3000000I15000J0D01*
G01*
X5415000Y-4600000D02*
G75*
G02*
X5385000Y-4600000I-15000J0D01*
G01*
X5385000Y-4600000D02*
G75*
G02*
X5415000Y-4600000I15000J0D01*
G01*
X5915000Y-3900000D02*
G75*
G02*
X5885000Y-3900000I-15000J0D01*
G01*
X5885000Y-3900000D02*
G75*
G02*
X5915000Y-3900000I15000J0D01*
G01*
X6115000Y-5100000D02*
G75*
G02*
X6085000Y-5100000I-15000J0D01*
G01*
X6085000Y-5100000D02*
G75*
G02*
X6115000Y-5100000I15000J0D01*
G01*
X6215000Y-3600000D02*
G75*
G02*
X6185000Y-3600000I-15000J0D01*
G01*
X6185000Y-3600000D02*
G75*
G02*
X6215000Y-3600000I15000J0D01*
G01*
X6215000Y-4900000D02*
G75*
G02*
X6185000Y-4900000I-15000J0D01*
G01*
X6185000Y-4900000D02*
G75*
G02*
X6215000Y-4900000I15000J0D01*
G01*
X6215000Y-5100000D02*
G75*
G02*
X6185000Y-5100000I-15000J0D01*
G01*
X6185000Y-5100000D02*
G75*
G02*
X6215000Y-5100000I15000J0D01*
G01*
X6515000Y-2900000D02*
G75*
G02*
X6485000Y-2900000I-15000J0D01*
G01*
X6485000Y-2900000D02*
G75*
G02*
X6515000Y-2900000I15000J0D01*
G01*
X6715000Y-3900000D02*
G75*
G02*
X6685000Y-3900000I-15000J0D01*
G01*
X6685000Y-3900000D02*
G75*
G02*
X6715000Y-3900000I15000J0D01*
G01*
X6715000Y-5400000D02*
G75*
G02*
X6685000Y-5400000I-15000J0D01*
G01*
X6685000Y-5400000D02*
G75*
G02*
X6715000Y-5400000I15000J0D01*
G01*
X6815000Y-2100000D02*
G75*
G02*
X6785000Y-2100000I-15000J0D01*
G01*
X6785000Y-2100000D02*
G75*
G02*
X6815000Y-2100000I15000J0D01*
G01*
X7015000Y-1805000D02*
G75*
G02*
X6985000Y-1805000I-15000J0D01*
G01*
X6985000Y-1805000D02*
G75*
G02*
X7015000Y-1805000I15000J0D01*
G01*
X7015000Y-2600000D02*
G75*
G02*
X6985000Y-2600000I-15000J0D01*
G01*
X6985000Y-2600000D02*
G75*
G02*
X7015000Y-2600000I15000J0D01*
G01*
X7015000Y-4000000D02*
G75*
G02*
X6985000Y-4000000I-15000J0D01*
G01*
X6985000Y-4000000D02*
G75*
G02*
X7015000Y-4000000I15000J0D01*
G01*
X7015000Y-5500000D02*
G75*
G02*
X6985000Y-5500000I-15000J0D01*
G01*
X6985000Y-5500000D02*
G75*
G02*
X7015000Y-5500000I15000J0D01*
G01*
X7065000Y-4550000D02*
G75*
G02*
X7035000Y-4550000I-15000J0D01*
G01*
X7035000Y-4550000D02*
G75*
G02*
X7065000Y-4550000I15000J0D01*
G01*
X7115000Y-4800000D02*
G75*
G02*
X7085000Y-4800000I-15000J0D01*
G01*
X7085000Y-4800000D02*
G75*
G02*
X7115000Y-4800000I15000J0D01*
G01*
X7187000Y-5172000D02*
G75*
G02*
X7157000Y-5172000I-15000J0D01*
G01*
X7157000Y-5172000D02*
G75*
G02*
X7187000Y-5172000I15000J0D01*
G01*
X7317000Y-4972000D02*
G75*
G02*
X7287000Y-4972000I-15000J0D01*
G01*
X7287000Y-4972000D02*
G75*
G02*
X7317000Y-4972000I15000J0D01*
G01*
X7415000Y-5200000D02*
G75*
G02*
X7385000Y-5200000I-15000J0D01*
G01*
X7385000Y-5200000D02*
G75*
G02*
X7415000Y-5200000I15000J0D01*
G01*
X7515000Y-5200000D02*
G75*
G02*
X7485000Y-5200000I-15000J0D01*
G01*
X7485000Y-5200000D02*
G75*
G02*
X7515000Y-5200000I15000J0D01*
G01*
X7742500Y-5500000D02*
G75*
G02*
X7712500Y-5500000I-15000J0D01*
G01*
X7712500Y-5500000D02*
G75*
G02*
X7742500Y-5500000I15000J0D01*
G01*
X7882218Y-4822782D02*
G75*
G02*
X7852218Y-4822782I-15000J0D01*
G01*
X7852218Y-4822782D02*
G75*
G02*
X7882218Y-4822782I15000J0D01*
G01*
X7915000Y-3690000D02*
G75*
G02*
X7885000Y-3690000I-15000J0D01*
G01*
X7885000Y-3690000D02*
G75*
G02*
X7915000Y-3690000I15000J0D01*
G01*
X400000Y-2780000D02*
X400000Y-2820000D01*
X380000Y-2800000D02*
X420000Y-2800000D01*
X600000Y-2480000D02*
X600000Y-2520000D01*
X580000Y-2500000D02*
X620000Y-2500000D01*
X700000Y-1580000D02*
X700000Y-1620000D01*
X680000Y-1600000D02*
X720000Y-1600000D01*
X700000Y-1980000D02*
X700000Y-2020000D01*
X680000Y-2000000D02*
X720000Y-2000000D01*
X700000Y-3780000D02*
X700000Y-3820000D01*
X680000Y-3800000D02*
X720000Y-3800000D01*
X900000Y-7180000D02*
X900000Y-7220000D01*
X880000Y-7200000D02*
X920000Y-7200000D01*
X900000Y-7680000D02*
X900000Y-7720000D01*
X880000Y-7700000D02*
X920000Y-7700000D01*
X1000000Y-6680000D02*
X1000000Y-6720000D01*
X980000Y-6700000D02*
X1020000Y-6700000D01*
X1400000Y-5780000D02*
X1400000Y-5820000D01*
X1380000Y-5800000D02*
X1420000Y-5800000D01*
X1655000Y-5780000D02*
X1655000Y-5820000D01*
X1635000Y-5800000D02*
X1675000Y-5800000D01*
X1700000Y-4480000D02*
X1700000Y-4520000D01*
X1680000Y-4500000D02*
X1720000Y-4500000D01*
X1700000Y-6280000D02*
X1700000Y-6320000D01*
X1680000Y-6300000D02*
X1720000Y-6300000D01*
X1900000Y-180000D02*
X1900000Y-220000D01*
X1880000Y-200000D02*
X1920000Y-200000D01*
X1900000Y-3580000D02*
X1900000Y-3620000D01*
X1880000Y-3600000D02*
X1920000Y-3600000D01*
X1900000Y-5280000D02*
X1900000Y-5320000D01*
X1880000Y-5300000D02*
X1920000Y-5300000D01*
X2000000Y-5680000D02*
X2000000Y-5720000D01*
X1980000Y-5700000D02*
X2020000Y-5700000D01*
X2000000Y-5980000D02*
X2000000Y-6020000D01*
X1980000Y-6000000D02*
X2020000Y-6000000D01*
X2029000Y-2151000D02*
X2029000Y-2191000D01*
X2009000Y-2171000D02*
X2049000Y-2171000D01*
X2067000Y-3113000D02*
X2067000Y-3153000D01*
X2047000Y-3133000D02*
X2087000Y-3133000D01*
X2100000Y-3580000D02*
X2100000Y-3620000D01*
X2080000Y-3600000D02*
X2120000Y-3600000D01*
X2100000Y-5280000D02*
X2100000Y-5320000D01*
X2080000Y-5300000D02*
X2120000Y-5300000D01*
X2100000Y-7180000D02*
X2100000Y-7220000D01*
X2080000Y-7200000D02*
X2120000Y-7200000D01*
X2100000Y-7580000D02*
X2100000Y-7620000D01*
X2080000Y-7600000D02*
X2120000Y-7600000D01*
X2103000Y-4460000D02*
X2103000Y-4500000D01*
X2083000Y-4480000D02*
X2123000Y-4480000D01*
X2200000Y-6880000D02*
X2200000Y-6920000D01*
X2180000Y-6900000D02*
X2220000Y-6900000D01*
X2300000Y-680000D02*
X2300000Y-720000D01*
X2280000Y-700000D02*
X2320000Y-700000D01*
X2500000Y-4980000D02*
X2500000Y-5020000D01*
X2480000Y-5000000D02*
X2520000Y-5000000D01*
X2500000Y-6180000D02*
X2500000Y-6220000D01*
X2480000Y-6200000D02*
X2520000Y-6200000D01*
X2700000Y-5080000D02*
X2700000Y-5120000D01*
X2680000Y-5100000D02*
X2720000Y-5100000D01*
X2900000Y-4080000D02*
X2900000Y-4120000D01*
X2880000Y-4100000D02*
X2920000Y-4100000D01*
X3200000Y-3680000D02*
X3200000Y-3720000D01*
X3180000Y-3700000D02*
X3220000Y-3700000D01*
X3200000Y-4480000D02*
X3200000Y-4520000D01*
X3180000Y-4500000D02*
X3220000Y-4500000D01*
X3200000Y-5480000D02*
X3200000Y-5520000D01*
X3180000Y-5500000D02*
X3220000Y-5500000D01*
X3497000Y-5377000D02*
X3497000Y-5417000D01*
X3477000Y-5397000D02*
X3517000Y-5397000D01*
X3600000Y-3780000D02*
X3600000Y-3820000D01*
X3580000Y-3800000D02*
X3620000Y-3800000D01*
X3700000Y-180000D02*
X3700000Y-220000D01*
X3680000Y-200000D02*
X3720000Y-200000D01*
X3800000Y-5480000D02*
X3800000Y-5520000D01*
X3780000Y-5500000D02*
X3820000Y-5500000D01*
X4300000Y-5980000D02*
X4300000Y-6020000D01*
X4280000Y-6000000D02*
X4320000Y-6000000D01*
X4600000Y-1480000D02*
X4600000Y-1520000D01*
X4580000Y-1500000D02*
X4620000Y-1500000D01*
X4600000Y-7580000D02*
X4600000Y-7620000D01*
X4580000Y-7600000D02*
X4620000Y-7600000D01*
X4700000Y-2480000D02*
X4700000Y-2520000D01*
X4680000Y-2500000D02*
X4720000Y-2500000D01*
X4700000Y-3680000D02*
X4700000Y-3720000D01*
X4680000Y-3700000D02*
X4720000Y-3700000D01*
X4700000Y-7280000D02*
X4700000Y-7320000D01*
X4680000Y-7300000D02*
X4720000Y-7300000D01*
X5200000Y-5980000D02*
X5200000Y-6020000D01*
X5180000Y-6000000D02*
X5220000Y-6000000D01*
X5200000Y-7280000D02*
X5200000Y-7320000D01*
X5180000Y-7300000D02*
X5220000Y-7300000D01*
X5500000Y-3480000D02*
X5500000Y-3520000D01*
X5480000Y-3500000D02*
X5520000Y-3500000D01*
X5500000Y-4180000D02*
X5500000Y-4220000D01*
X5480000Y-4200000D02*
X5520000Y-4200000D01*
X5500000Y-4880000D02*
X5500000Y-4920000D01*
X5480000Y-4900000D02*
X5520000Y-4900000D01*
X5622500Y-4180000D02*
X5622500Y-4220000D01*
X5602500Y-4200000D02*
X5642500Y-4200000D01*
X6200000Y-2980000D02*
X6200000Y-3020000D01*
X6180000Y-3000000D02*
X6220000Y-3000000D01*
X6200000Y-6780000D02*
X6200000Y-6820000D01*
X6180000Y-6800000D02*
X6220000Y-6800000D01*
X6200000Y-7380000D02*
X6200000Y-7420000D01*
X6180000Y-7400000D02*
X6220000Y-7400000D01*
X6500000Y-3980000D02*
X6500000Y-4020000D01*
X6480000Y-4000000D02*
X6520000Y-4000000D01*
X6500000Y-4280000D02*
X6500000Y-4320000D01*
X6480000Y-4300000D02*
X6520000Y-4300000D01*
X6700000Y-1380000D02*
X6700000Y-1420000D01*
X6680000Y-1400000D02*
X6720000Y-1400000D01*
X6700000Y-4695000D02*
X6700000Y-4735000D01*
X6680000Y-4715000D02*
X6720000Y-4715000D01*
X6900000Y-2780000D02*
X6900000Y-2820000D01*
X6880000Y-2800000D02*
X6920000Y-2800000D01*
X6900000Y-5080000D02*
X6900000Y-5120000D01*
X6880000Y-5100000D02*
X6920000Y-5100000D01*
X7081674Y-1877831D02*
X7081674Y-1917831D01*
X7061674Y-1897831D02*
X7101674Y-1897831D01*
X7100000Y-3280000D02*
X7100000Y-3320000D01*
X7080000Y-3300000D02*
X7120000Y-3300000D01*
X7192710Y-4068612D02*
X7192710Y-4108612D01*
X7172710Y-4088612D02*
X7212710Y-4088612D01*
X7383040Y-4075518D02*
X7383040Y-4115518D01*
X7363040Y-4095518D02*
X7403040Y-4095518D01*
X7400000Y-5080000D02*
X7400000Y-5120000D01*
X7380000Y-5100000D02*
X7420000Y-5100000D01*
X7500000Y-3180000D02*
X7500000Y-3220000D01*
X7480000Y-3200000D02*
X7520000Y-3200000D01*
X7563000Y-4328436D02*
X7563000Y-4368436D01*
X7543000Y-4348436D02*
X7583000Y-4348436D01*
X7600000Y-5180000D02*
X7600000Y-5220000D01*
X7580000Y-5200000D02*
X7620000Y-5200000D01*
X7888000Y-4952000D02*
X7888000Y-4992000D01*
X7868000Y-4972000D02*
X7908000Y-4972000D01*
X7888000Y-4952000D02*
X7888000Y-4992000D01*
X7868000Y-4972000D02*
X7908000Y-4972000D01*
X8100000Y-3080000D02*
X8100000Y-3120000D01*
X8080000Y-3100000D02*
X8120000Y-3100000D01*
X8100000Y-4280000D02*
X8100000Y-4320000D01*
X8080000Y-4300000D02*
X8120000Y-4300000D01*
X8100000Y-6880000D02*
X8100000Y-6920000D01*
X8080000Y-6900000D02*
X8120000Y-6900000D01*
X8100000Y-7380000D02*
X8100000Y-7420000D01*
X8080000Y-7400000D02*
X8120000Y-7400000D01*
X8300000Y-4980000D02*
X8300000Y-5020000D01*
X8280000Y-5000000D02*
X8320000Y-5000000D01*
X8800000Y-1280000D02*
X8800000Y-1320000D01*
X8780000Y-1300000D02*
X8820000Y-1300000D01*
X8800000Y-1880000D02*
X8800000Y-1920000D01*
X8780000Y-1900000D02*
X8820000Y-1900000D01*
X8800000Y-2380000D02*
X8800000Y-2420000D01*
X8780000Y-2400000D02*
X8820000Y-2400000D01*
X9600000Y-3580000D02*
X9600000Y-3620000D01*
X9580000Y-3600000D02*
X9620000Y-3600000D01*
X9800000Y-3380000D02*
X9800000Y-3420000D01*
X9780000Y-3400000D02*
X9820000Y-3400000D01*
X1117678Y-5317678D02*
X1117678Y-5282322D01*
X1082322Y-5282322D01*
X1082322Y-5317678D01*
X1117678Y-5317678D01*
X1990678Y-4517678D02*
X1990678Y-4482322D01*
X1955322Y-4482322D01*
X1955322Y-4517678D01*
X1990678Y-4517678D01*
X1990678Y-4517678D02*
X1990678Y-4482322D01*
X1955322Y-4482322D01*
X1955322Y-4517678D01*
X1990678Y-4517678D01*
X1990678Y-5137678D02*
X1990678Y-5102322D01*
X1955322Y-5102322D01*
X1955322Y-5137678D01*
X1990678Y-5137678D01*
X2717678Y-5917678D02*
X2717678Y-5882322D01*
X2682322Y-5882322D01*
X2682322Y-5917678D01*
X2717678Y-5917678D01*
X2717678Y-5917678D02*
X2717678Y-5882322D01*
X2682322Y-5882322D01*
X2682322Y-5917678D01*
X2717678Y-5917678D01*
X2717678Y-5917678D02*
X2717678Y-5882322D01*
X2682322Y-5882322D01*
X2682322Y-5917678D01*
X2717678Y-5917678D01*
X3717678Y-6017678D02*
X3717678Y-5982322D01*
X3682322Y-5982322D01*
X3682322Y-6017678D01*
X3717678Y-6017678D01*
X4317678Y-4417678D02*
X4317678Y-4382322D01*
X4282322Y-4382322D01*
X4282322Y-4417678D01*
X4317678Y-4417678D01*
X4317678Y-4917678D02*
X4317678Y-4882322D01*
X4282322Y-4882322D01*
X4282322Y-4917678D01*
X4317678Y-4917678D01*
X4695178Y-1940178D02*
X4695178Y-1904822D01*
X4659822Y-1904822D01*
X4659822Y-1940178D01*
X4695178Y-1940178D01*
X4717678Y-2117678D02*
X4717678Y-2082322D01*
X4682322Y-2082322D01*
X4682322Y-2117678D01*
X4717678Y-2117678D01*
X5017678Y-2117678D02*
X5017678Y-2082322D01*
X4982322Y-2082322D01*
X4982322Y-2117678D01*
X5017678Y-2117678D01*
X5317678Y-6417678D02*
X5317678Y-6382322D01*
X5282322Y-6382322D01*
X5282322Y-6417678D01*
X5317678Y-6417678D01*
X5717678Y-5817678D02*
X5717678Y-5782322D01*
X5682322Y-5782322D01*
X5682322Y-5817678D01*
X5717678Y-5817678D01*
X6117678Y-6217678D02*
X6117678Y-6182322D01*
X6082322Y-6182322D01*
X6082322Y-6217678D01*
X6117678Y-6217678D01*
X6617678Y-5117678D02*
X6617678Y-5082322D01*
X6582322Y-5082322D01*
X6582322Y-5117678D01*
X6617678Y-5117678D01*
X6617678Y-7117678D02*
X6617678Y-7082322D01*
X6582322Y-7082322D01*
X6582322Y-7117678D01*
X6617678Y-7117678D01*
X6626219Y-6534760D02*
X6626219Y-6499404D01*
X6590863Y-6499404D01*
X6590863Y-6534760D01*
X6626219Y-6534760D01*
X6717678Y-1717678D02*
X6717678Y-1682322D01*
X6682322Y-1682322D01*
X6682322Y-1717678D01*
X6717678Y-1717678D01*
X6717678Y-4617678D02*
X6717678Y-4582322D01*
X6682322Y-4582322D01*
X6682322Y-4617678D01*
X6717678Y-4617678D01*
X6817678Y-1917678D02*
X6817678Y-1882322D01*
X6782322Y-1882322D01*
X6782322Y-1917678D01*
X6817678Y-1917678D01*
X6817678Y-7717678D02*
X6817678Y-7682322D01*
X6782322Y-7682322D01*
X6782322Y-7717678D01*
X6817678Y-7717678D01*
X6905806Y-4629550D02*
X6905806Y-4594194D01*
X6870450Y-4594194D01*
X6870450Y-4629550D01*
X6905806Y-4629550D01*
X6967528Y-4245678D02*
X6967528Y-4210322D01*
X6932172Y-4210322D01*
X6932172Y-4245678D01*
X6967528Y-4245678D01*
X7150178Y-4463367D02*
X7150178Y-4428012D01*
X7114822Y-4428012D01*
X7114822Y-4463367D01*
X7150178Y-4463367D01*
X7205478Y-2200319D02*
X7205478Y-2164964D01*
X7170122Y-2164964D01*
X7170122Y-2200319D01*
X7205478Y-2200319D01*
X7417678Y-4717678D02*
X7417678Y-4682322D01*
X7382322Y-4682322D01*
X7382322Y-4717678D01*
X7417678Y-4717678D01*
X7417678Y-5517678D02*
X7417678Y-5482322D01*
X7382322Y-5482322D01*
X7382322Y-5517678D01*
X7417678Y-5517678D01*
X7417678Y-6017678D02*
X7417678Y-5982322D01*
X7382322Y-5982322D01*
X7382322Y-6017678D01*
X7417678Y-6017678D01*
X7442684Y-2200212D02*
X7442684Y-2164856D01*
X7407328Y-2164856D01*
X7407328Y-2200212D01*
X7442684Y-2200212D01*
X7517678Y-3917678D02*
X7517678Y-3882322D01*
X7482322Y-3882322D01*
X7482322Y-3917678D01*
X7517678Y-3917678D01*
X7541249Y-2347085D02*
X7541249Y-2311729D01*
X7505894Y-2311729D01*
X7505894Y-2347085D01*
X7541249Y-2347085D01*
X7545078Y-1645078D02*
X7545078Y-1609722D01*
X7509722Y-1609722D01*
X7509722Y-1645078D01*
X7545078Y-1645078D01*
X7617678Y-3817678D02*
X7617678Y-3782322D01*
X7582322Y-3782322D01*
X7582322Y-3817678D01*
X7617678Y-3817678D01*
X7617678Y-5817678D02*
X7617678Y-5782322D01*
X7582322Y-5782322D01*
X7582322Y-5817678D01*
X7617678Y-5817678D01*
X7747181Y-2033300D02*
X7747181Y-1997944D01*
X7711826Y-1997944D01*
X7711826Y-2033300D01*
X7747181Y-2033300D01*
X7802828Y-4245678D02*
X7802828Y-4210322D01*
X7767472Y-4210322D01*
X7767472Y-4245678D01*
X7802828Y-4245678D01*
X7817678Y-6617678D02*
X7817678Y-6582322D01*
X7782322Y-6582322D01*
X7782322Y-6617678D01*
X7817678Y-6617678D01*
X7817678Y-7717678D02*
X7817678Y-7682322D01*
X7782322Y-7682322D01*
X7782322Y-7717678D01*
X7817678Y-7717678D01*
X8100178Y-2517678D02*
X8100178Y-2482322D01*
X8064822Y-2482322D01*
X8064822Y-2517678D01*
X8100178Y-2517678D01*
X8117678Y-6117678D02*
X8117678Y-6082322D01*
X8082322Y-6082322D01*
X8082322Y-6117678D01*
X8117678Y-6117678D01*
X8317678Y-2617678D02*
X8317678Y-2582322D01*
X8282322Y-2582322D01*
X8282322Y-2617678D01*
X8317678Y-2617678D01*
X8317678Y-7717678D02*
X8317678Y-7682322D01*
X8282322Y-7682322D01*
X8282322Y-7717678D01*
X8317678Y-7717678D01*
X8417678Y-2217678D02*
X8417678Y-2182322D01*
X8382322Y-2182322D01*
X8382322Y-2217678D01*
X8417678Y-2217678D01*
X8417678Y-3617678D02*
X8417678Y-3582322D01*
X8382322Y-3582322D01*
X8382322Y-3617678D01*
X8417678Y-3617678D01*
X8517678Y-4517678D02*
X8517678Y-4482322D01*
X8482322Y-4482322D01*
X8482322Y-4517678D01*
X8517678Y-4517678D01*
X8517678Y-5517678D02*
X8517678Y-5482322D01*
X8482322Y-5482322D01*
X8482322Y-5517678D01*
X8517678Y-5517678D01*
X8917678Y-7717678D02*
X8917678Y-7682322D01*
X8882322Y-7682322D01*
X8882322Y-7717678D01*
X8917678Y-7717678D01*
X9117678Y-7117678D02*
X9117678Y-7082322D01*
X9082322Y-7082322D01*
X9082322Y-7117678D01*
X9117678Y-7117678D01*
X9217678Y-6117678D02*
X9217678Y-6082322D01*
X9182322Y-6082322D01*
X9182322Y-6117678D01*
X9217678Y-6117678D01*
X9717678Y-5817678D02*
X9717678Y-5782322D01*
X9682322Y-5782322D01*
X9682322Y-5817678D01*
X9717678Y-5817678D01*
X3060000Y-7025001D02*
X3085001Y-7000000D01*
X3060000Y-6974999D01*
X3034999Y-7000000D01*
X3060000Y-7025001D01*
X3085001Y-7049999D02*
X3085001Y-6950001D01*
X3034999Y-6950001D02*
G75*
G02*
X3085001Y-6950001I25001J0D01*
G01*
X3034999Y-6950001D02*
X3034999Y-7049999D01*
X3034999Y-7049999D02*
G75*
G03*
X3085001Y-7049999I25001J0D01*
G01*
X3060000Y-7425001D02*
X3085001Y-7400000D01*
X3060000Y-7374999D01*
X3034999Y-7400000D01*
X3060000Y-7425001D01*
X3085001Y-7449999D02*
X3085001Y-7350001D01*
X3034999Y-7350001D02*
G75*
G02*
X3085001Y-7350001I25001J0D01*
G01*
X3034999Y-7350001D02*
X3034999Y-7449999D01*
X3034999Y-7449999D02*
G75*
G03*
X3085001Y-7449999I25001J0D01*
G01*
X3060000Y-7725001D02*
X3085001Y-7700000D01*
X3060000Y-7674999D01*
X3034999Y-7700000D01*
X3060000Y-7725001D01*
X3085001Y-7749999D02*
X3085001Y-7650001D01*
X3034999Y-7650001D02*
G75*
G02*
X3085001Y-7650001I25001J0D01*
G01*
X3034999Y-7650001D02*
X3034999Y-7749999D01*
X3034999Y-7749999D02*
G75*
G03*
X3085001Y-7749999I25001J0D01*
G01*
X3540000Y-6925001D02*
X3565001Y-6900000D01*
X3540000Y-6874999D01*
X3514999Y-6900000D01*
X3540000Y-6925001D01*
X3565001Y-6949999D02*
X3565001Y-6850001D01*
X3514999Y-6850001D02*
G75*
G02*
X3565001Y-6850001I25001J0D01*
G01*
X3514999Y-6850001D02*
X3514999Y-6949999D01*
X3514999Y-6949999D02*
G75*
G03*
X3565001Y-6949999I25001J0D01*
G01*
X1180000Y-7249000D02*
X1240000Y-7309000D01*
X1240000Y-7249000D02*
X1180000Y-7309000D01*
X1240000Y-7279000D02*
G75*
G02*
X1180000Y-7279000I-30000J0D01*
G01*
X1180000Y-7279000D02*
G75*
G02*
X1240000Y-7279000I30000J0D01*
G01*
X1760000Y-7249000D02*
X1820000Y-7309000D01*
X1820000Y-7249000D02*
X1760000Y-7309000D01*
X1820000Y-7279000D02*
G75*
G02*
X1760000Y-7279000I-30000J0D01*
G01*
X1760000Y-7279000D02*
G75*
G02*
X1820000Y-7279000I30000J0D01*
G01*
X1027000Y-7189000D02*
X1107000Y-7269000D01*
X1107000Y-7189000D02*
X1027000Y-7269000D01*
X1067000Y-7189000D02*
X1067000Y-7269000D01*
X1027000Y-7229000D02*
X1107000Y-7229000D01*
X1027000Y-7194000D02*
X1027000Y-7264000D01*
X1107000Y-7264000D02*
G75*
G02*
X1027000Y-7264000I-40000J0D01*
G01*
X1107000Y-7264000D02*
X1107000Y-7194000D01*
X1107000Y-7194000D02*
G75*
G03*
X1027000Y-7194000I-40000J0D01*
G01*
X1027000Y-7607000D02*
X1107000Y-7687000D01*
X1107000Y-7607000D02*
X1027000Y-7687000D01*
X1067000Y-7607000D02*
X1067000Y-7687000D01*
X1027000Y-7647000D02*
X1107000Y-7647000D01*
X1027000Y-7627000D02*
X1027000Y-7667000D01*
X1107000Y-7667000D02*
G75*
G02*
X1027000Y-7667000I-40000J0D01*
G01*
X1107000Y-7667000D02*
X1107000Y-7627000D01*
X1107000Y-7627000D02*
G75*
G03*
X1027000Y-7627000I-40000J0D01*
G01*
X1893000Y-7189000D02*
X1973000Y-7269000D01*
X1973000Y-7189000D02*
X1893000Y-7269000D01*
X1933000Y-7189000D02*
X1933000Y-7269000D01*
X1893000Y-7229000D02*
X1973000Y-7229000D01*
X1893000Y-7194000D02*
X1893000Y-7264000D01*
X1973000Y-7264000D02*
G75*
G02*
X1893000Y-7264000I-40000J0D01*
G01*
X1973000Y-7264000D02*
X1973000Y-7194000D01*
X1973000Y-7194000D02*
G75*
G03*
X1893000Y-7194000I-40000J0D01*
G01*
X1893000Y-7607000D02*
X1973000Y-7687000D01*
X1973000Y-7607000D02*
X1893000Y-7687000D01*
X1933000Y-7607000D02*
X1933000Y-7687000D01*
X1893000Y-7647000D02*
X1973000Y-7647000D01*
X1893000Y-7627000D02*
X1893000Y-7667000D01*
X1973000Y-7667000D02*
G75*
G02*
X1893000Y-7667000I-40000J0D01*
G01*
X1973000Y-7667000D02*
X1973000Y-7627000D01*
X1973000Y-7627000D02*
G75*
G03*
X1893000Y-7627000I-40000J0D01*
G01*
X700000Y-4575000D02*
X800000Y-4675000D01*
X800000Y-4575000D02*
X700000Y-4675000D01*
X785356Y-4660356D02*
X785356Y-4589644D01*
X714644Y-4589644D01*
X714644Y-4660356D01*
X785356Y-4660356D01*
X700000Y-4825000D02*
X800000Y-4925000D01*
X800000Y-4825000D02*
X700000Y-4925000D01*
X785356Y-4910356D02*
X785356Y-4839644D01*
X714644Y-4839644D01*
X714644Y-4910356D01*
X785356Y-4910356D01*
X4615000Y-6900000D02*
X4715000Y-7000000D01*
X4715000Y-6900000D02*
X4615000Y-7000000D01*
X4700356Y-6985356D02*
X4700356Y-6914644D01*
X4629644Y-6914644D01*
X4629644Y-6985356D01*
X4700356Y-6985356D01*
X4539999Y-7000000D02*
X4790001Y-7000000D01*
X4790001Y-6900000D02*
G75*
G02*
X4790001Y-7000000I0J-50000D01*
G01*
X4790001Y-6900000D02*
X4539999Y-6900000D01*
X4539999Y-6900000D02*
G75*
G03*
X4539999Y-7000000I0J-50000D01*
G01*
X4615000Y-7500000D02*
X4715000Y-7600000D01*
X4715000Y-7500000D02*
X4615000Y-7600000D01*
X4700356Y-7585356D02*
X4700356Y-7514644D01*
X4629644Y-7514644D01*
X4629644Y-7585356D01*
X4700356Y-7585356D01*
X4765000Y-7500000D02*
X4565000Y-7500000D01*
X4565000Y-7600000D02*
G75*
G02*
X4565000Y-7500000I0J50000D01*
G01*
X4565000Y-7600000D02*
X4765000Y-7600000D01*
X4765000Y-7600000D02*
G75*
G03*
X4765000Y-7500000I0J50000D01*
G01*
X5085000Y-7200000D02*
X5185000Y-7300000D01*
X5185000Y-7200000D02*
X5085000Y-7300000D01*
X5170356Y-7285356D02*
X5170356Y-7214644D01*
X5099644Y-7214644D01*
X5099644Y-7285356D01*
X5170356Y-7285356D01*
X5085000Y-7150000D02*
X5085000Y-7350000D01*
X5185000Y-7350000D02*
G75*
G02*
X5085000Y-7350000I-50000J0D01*
G01*
X5185000Y-7350000D02*
X5185000Y-7150000D01*
X5185000Y-7150000D02*
G75*
G03*
X5085000Y-7150000I-50000J0D01*
G01*
D13*
X3240000Y-7100000D02*
X3360000Y-7220000D01*
X3360000Y-7100000D02*
X3240000Y-7220000D01*
X3300000Y-7220000D02*
X3360000Y-7160000D01*
X3300000Y-7100000D01*
X3240000Y-7160000D01*
X3300000Y-7220000D01*
X3240000Y-7800000D02*
X3360000Y-7920000D01*
X3360000Y-7800000D02*
X3240000Y-7920000D01*
X3300000Y-7920000D02*
X3360000Y-7860000D01*
X3300000Y-7800000D01*
X3240000Y-7860000D01*
X3300000Y-7920000D01*
D14*
X6600000Y-7335000D02*
X6600000Y-7465000D01*
X6535000Y-7400000D02*
X6665000Y-7400000D01*
X6665000Y-7400000D02*
G75*
G02*
X6535000Y-7400000I-65000J0D01*
G01*
X6535000Y-7400000D02*
G75*
G02*
X6665000Y-7400000I65000J0D01*
G01*
X7100000Y-7335000D02*
X7100000Y-7465000D01*
X7035000Y-7400000D02*
X7165000Y-7400000D01*
X7165000Y-7400000D02*
G75*
G02*
X7035000Y-7400000I-65000J0D01*
G01*
X7035000Y-7400000D02*
G75*
G02*
X7165000Y-7400000I65000J0D01*
G01*
X8600000Y-7335000D02*
X8600000Y-7465000D01*
X8535000Y-7400000D02*
X8665000Y-7400000D01*
X8665000Y-7400000D02*
G75*
G02*
X8535000Y-7400000I-65000J0D01*
G01*
X8535000Y-7400000D02*
G75*
G02*
X8665000Y-7400000I65000J0D01*
G01*
X9100000Y-7335000D02*
X9100000Y-7465000D01*
X9035000Y-7400000D02*
X9165000Y-7400000D01*
X9165000Y-7400000D02*
G75*
G02*
X9035000Y-7400000I-65000J0D01*
G01*
X9035000Y-7400000D02*
G75*
G02*
X9165000Y-7400000I65000J0D01*
G01*
D10*
X250777Y-8321484D02*
X250777Y-8121484D01*
X250777Y-8121484D02*
X298396Y-8121484D01*
X298396Y-8121484D02*
X326967Y-8131008D01*
X326967Y-8131008D02*
X346015Y-8150055D01*
X346015Y-8150055D02*
X355539Y-8169103D01*
X355539Y-8169103D02*
X365062Y-8207198D01*
X365062Y-8207198D02*
X365062Y-8235769D01*
X365062Y-8235769D02*
X355539Y-8273865D01*
X355539Y-8273865D02*
X346015Y-8292912D01*
X346015Y-8292912D02*
X326967Y-8311960D01*
X326967Y-8311960D02*
X298396Y-8321484D01*
X298396Y-8321484D02*
X250777Y-8321484D01*
X450777Y-8321484D02*
X450777Y-8188150D01*
X450777Y-8226246D02*
X460301Y-8207198D01*
X460301Y-8207198D02*
X469824Y-8197674D01*
X469824Y-8197674D02*
X488872Y-8188150D01*
X488872Y-8188150D02*
X507920Y-8188150D01*
X574586Y-8321484D02*
X574586Y-8188150D01*
X574586Y-8121484D02*
X565063Y-8131008D01*
X565063Y-8131008D02*
X574586Y-8140531D01*
X574586Y-8140531D02*
X584110Y-8131008D01*
X584110Y-8131008D02*
X574586Y-8121484D01*
X574586Y-8121484D02*
X574586Y-8140531D01*
X698396Y-8321484D02*
X679348Y-8311960D01*
X679348Y-8311960D02*
X669824Y-8292912D01*
X669824Y-8292912D02*
X669824Y-8121484D01*
X803158Y-8321484D02*
X784110Y-8311960D01*
X784110Y-8311960D02*
X774586Y-8292912D01*
X774586Y-8292912D02*
X774586Y-8121484D01*
X1031729Y-8321484D02*
X1031729Y-8121484D01*
X1031729Y-8121484D02*
X1098396Y-8264341D01*
X1098396Y-8264341D02*
X1165063Y-8121484D01*
X1165063Y-8121484D02*
X1165063Y-8321484D01*
X1346015Y-8321484D02*
X1346015Y-8216722D01*
X1346015Y-8216722D02*
X1336491Y-8197674D01*
X1336491Y-8197674D02*
X1317444Y-8188150D01*
X1317444Y-8188150D02*
X1279348Y-8188150D01*
X1279348Y-8188150D02*
X1260301Y-8197674D01*
X1346015Y-8311960D02*
X1326967Y-8321484D01*
X1326967Y-8321484D02*
X1279348Y-8321484D01*
X1279348Y-8321484D02*
X1260301Y-8311960D01*
X1260301Y-8311960D02*
X1250777Y-8292912D01*
X1250777Y-8292912D02*
X1250777Y-8273865D01*
X1250777Y-8273865D02*
X1260301Y-8254817D01*
X1260301Y-8254817D02*
X1279348Y-8245293D01*
X1279348Y-8245293D02*
X1326967Y-8245293D01*
X1326967Y-8245293D02*
X1346015Y-8235769D01*
X1441253Y-8188150D02*
X1441253Y-8388150D01*
X1441253Y-8197674D02*
X1460301Y-8188150D01*
X1460301Y-8188150D02*
X1498396Y-8188150D01*
X1498396Y-8188150D02*
X1517443Y-8197674D01*
X1517443Y-8197674D02*
X1526967Y-8207198D01*
X1526967Y-8207198D02*
X1536491Y-8226246D01*
X1536491Y-8226246D02*
X1536491Y-8283388D01*
X1536491Y-8283388D02*
X1526967Y-8302436D01*
X1526967Y-8302436D02*
X1517443Y-8311960D01*
X1517443Y-8311960D02*
X1498396Y-8321484D01*
X1498396Y-8321484D02*
X1460301Y-8321484D01*
X1460301Y-8321484D02*
X1441253Y-8311960D01*
X1622205Y-8302436D02*
X1631729Y-8311960D01*
X1631729Y-8311960D02*
X1622205Y-8321484D01*
X1622205Y-8321484D02*
X1612682Y-8311960D01*
X1612682Y-8311960D02*
X1622205Y-8302436D01*
X1622205Y-8302436D02*
X1622205Y-8321484D01*
X1622205Y-8197674D02*
X1631729Y-8207198D01*
X1631729Y-8207198D02*
X1622205Y-8216722D01*
X1622205Y-8216722D02*
X1612682Y-8207198D01*
X1612682Y-8207198D02*
X1622205Y-8197674D01*
X1622205Y-8197674D02*
X1622205Y-8216722D01*
D12*
X-30000Y-8640000D02*
X-10000Y-8660000D01*
X-10000Y-8640000D02*
X-30000Y-8660000D01*
D10*
X288872Y-8541484D02*
X307920Y-8541484D01*
X307920Y-8541484D02*
X326967Y-8551008D01*
X326967Y-8551008D02*
X336491Y-8560531D01*
X336491Y-8560531D02*
X346015Y-8579579D01*
X346015Y-8579579D02*
X355539Y-8617674D01*
X355539Y-8617674D02*
X355539Y-8665293D01*
X355539Y-8665293D02*
X346015Y-8703389D01*
X346015Y-8703389D02*
X336491Y-8722436D01*
X336491Y-8722436D02*
X326967Y-8731960D01*
X326967Y-8731960D02*
X307920Y-8741484D01*
X307920Y-8741484D02*
X288872Y-8741484D01*
X288872Y-8741484D02*
X269824Y-8731960D01*
X269824Y-8731960D02*
X260301Y-8722436D01*
X260301Y-8722436D02*
X250777Y-8703389D01*
X250777Y-8703389D02*
X241253Y-8665293D01*
X241253Y-8665293D02*
X241253Y-8617674D01*
X241253Y-8617674D02*
X250777Y-8579579D01*
X250777Y-8579579D02*
X260301Y-8560531D01*
X260301Y-8560531D02*
X269824Y-8551008D01*
X269824Y-8551008D02*
X288872Y-8541484D01*
X441253Y-8722436D02*
X450777Y-8731960D01*
X450777Y-8731960D02*
X441253Y-8741484D01*
X441253Y-8741484D02*
X431729Y-8731960D01*
X431729Y-8731960D02*
X441253Y-8722436D01*
X441253Y-8722436D02*
X441253Y-8741484D01*
X526967Y-8560531D02*
X536491Y-8551008D01*
X536491Y-8551008D02*
X555539Y-8541484D01*
X555539Y-8541484D02*
X603158Y-8541484D01*
X603158Y-8541484D02*
X622205Y-8551008D01*
X622205Y-8551008D02*
X631729Y-8560531D01*
X631729Y-8560531D02*
X641253Y-8579579D01*
X641253Y-8579579D02*
X641253Y-8598627D01*
X641253Y-8598627D02*
X631729Y-8627198D01*
X631729Y-8627198D02*
X517443Y-8741484D01*
X517443Y-8741484D02*
X641253Y-8741484D01*
X765062Y-8541484D02*
X784110Y-8541484D01*
X784110Y-8541484D02*
X803158Y-8551008D01*
X803158Y-8551008D02*
X812682Y-8560531D01*
X812682Y-8560531D02*
X822205Y-8579579D01*
X822205Y-8579579D02*
X831729Y-8617674D01*
X831729Y-8617674D02*
X831729Y-8665293D01*
X831729Y-8665293D02*
X822205Y-8703389D01*
X822205Y-8703389D02*
X812682Y-8722436D01*
X812682Y-8722436D02*
X803158Y-8731960D01*
X803158Y-8731960D02*
X784110Y-8741484D01*
X784110Y-8741484D02*
X765062Y-8741484D01*
X765062Y-8741484D02*
X746015Y-8731960D01*
X746015Y-8731960D02*
X736491Y-8722436D01*
X736491Y-8722436D02*
X726967Y-8703389D01*
X726967Y-8703389D02*
X717443Y-8665293D01*
X717443Y-8665293D02*
X717443Y-8617674D01*
X717443Y-8617674D02*
X726967Y-8579579D01*
X726967Y-8579579D02*
X736491Y-8560531D01*
X736491Y-8560531D02*
X746015Y-8551008D01*
X746015Y-8551008D02*
X765062Y-8541484D01*
X955539Y-8541484D02*
X974586Y-8541484D01*
X974586Y-8541484D02*
X993634Y-8551008D01*
X993634Y-8551008D02*
X1003158Y-8560531D01*
X1003158Y-8560531D02*
X1012682Y-8579579D01*
X1012682Y-8579579D02*
X1022205Y-8617674D01*
X1022205Y-8617674D02*
X1022205Y-8665293D01*
X1022205Y-8665293D02*
X1012682Y-8703389D01*
X1012682Y-8703389D02*
X1003158Y-8722436D01*
X1003158Y-8722436D02*
X993634Y-8731960D01*
X993634Y-8731960D02*
X974586Y-8741484D01*
X974586Y-8741484D02*
X955539Y-8741484D01*
X955539Y-8741484D02*
X936491Y-8731960D01*
X936491Y-8731960D02*
X926967Y-8722436D01*
X926967Y-8722436D02*
X917443Y-8703389D01*
X917443Y-8703389D02*
X907920Y-8665293D01*
X907920Y-8665293D02*
X907920Y-8617674D01*
X907920Y-8617674D02*
X917443Y-8579579D01*
X917443Y-8579579D02*
X926967Y-8560531D01*
X926967Y-8560531D02*
X936491Y-8551008D01*
X936491Y-8551008D02*
X955539Y-8541484D01*
X1107920Y-8741484D02*
X1107920Y-8608150D01*
X1107920Y-8627198D02*
X1117444Y-8617674D01*
X1117444Y-8617674D02*
X1136491Y-8608150D01*
X1136491Y-8608150D02*
X1165063Y-8608150D01*
X1165063Y-8608150D02*
X1184110Y-8617674D01*
X1184110Y-8617674D02*
X1193634Y-8636722D01*
X1193634Y-8636722D02*
X1193634Y-8741484D01*
X1193634Y-8636722D02*
X1203158Y-8617674D01*
X1203158Y-8617674D02*
X1222205Y-8608150D01*
X1222205Y-8608150D02*
X1250777Y-8608150D01*
X1250777Y-8608150D02*
X1269825Y-8617674D01*
X1269825Y-8617674D02*
X1279348Y-8636722D01*
X1279348Y-8636722D02*
X1279348Y-8741484D01*
X1374586Y-8741484D02*
X1374586Y-8608150D01*
X1374586Y-8627198D02*
X1384110Y-8617674D01*
X1384110Y-8617674D02*
X1403158Y-8608150D01*
X1403158Y-8608150D02*
X1431729Y-8608150D01*
X1431729Y-8608150D02*
X1450777Y-8617674D01*
X1450777Y-8617674D02*
X1460301Y-8636722D01*
X1460301Y-8636722D02*
X1460301Y-8741484D01*
X1460301Y-8636722D02*
X1469824Y-8617674D01*
X1469824Y-8617674D02*
X1488872Y-8608150D01*
X1488872Y-8608150D02*
X1517443Y-8608150D01*
X1517443Y-8608150D02*
X1536491Y-8617674D01*
X1536491Y-8617674D02*
X1546015Y-8636722D01*
X1546015Y-8636722D02*
X1546015Y-8741484D01*
X1936491Y-8531960D02*
X1765063Y-8789103D01*
X2193634Y-8541484D02*
X2212682Y-8541484D01*
X2212682Y-8541484D02*
X2231729Y-8551008D01*
X2231729Y-8551008D02*
X2241253Y-8560531D01*
X2241253Y-8560531D02*
X2250777Y-8579579D01*
X2250777Y-8579579D02*
X2260301Y-8617674D01*
X2260301Y-8617674D02*
X2260301Y-8665293D01*
X2260301Y-8665293D02*
X2250777Y-8703389D01*
X2250777Y-8703389D02*
X2241253Y-8722436D01*
X2241253Y-8722436D02*
X2231729Y-8731960D01*
X2231729Y-8731960D02*
X2212682Y-8741484D01*
X2212682Y-8741484D02*
X2193634Y-8741484D01*
X2193634Y-8741484D02*
X2174587Y-8731960D01*
X2174587Y-8731960D02*
X2165063Y-8722436D01*
X2165063Y-8722436D02*
X2155539Y-8703389D01*
X2155539Y-8703389D02*
X2146015Y-8665293D01*
X2146015Y-8665293D02*
X2146015Y-8617674D01*
X2146015Y-8617674D02*
X2155539Y-8579579D01*
X2155539Y-8579579D02*
X2165063Y-8560531D01*
X2165063Y-8560531D02*
X2174587Y-8551008D01*
X2174587Y-8551008D02*
X2193634Y-8541484D01*
X2346015Y-8722436D02*
X2355539Y-8731960D01*
X2355539Y-8731960D02*
X2346015Y-8741484D01*
X2346015Y-8741484D02*
X2336491Y-8731960D01*
X2336491Y-8731960D02*
X2346015Y-8722436D01*
X2346015Y-8722436D02*
X2346015Y-8741484D01*
X2479348Y-8541484D02*
X2498396Y-8541484D01*
X2498396Y-8541484D02*
X2517444Y-8551008D01*
X2517444Y-8551008D02*
X2526968Y-8560531D01*
X2526968Y-8560531D02*
X2536491Y-8579579D01*
X2536491Y-8579579D02*
X2546015Y-8617674D01*
X2546015Y-8617674D02*
X2546015Y-8665293D01*
X2546015Y-8665293D02*
X2536491Y-8703389D01*
X2536491Y-8703389D02*
X2526968Y-8722436D01*
X2526968Y-8722436D02*
X2517444Y-8731960D01*
X2517444Y-8731960D02*
X2498396Y-8741484D01*
X2498396Y-8741484D02*
X2479348Y-8741484D01*
X2479348Y-8741484D02*
X2460301Y-8731960D01*
X2460301Y-8731960D02*
X2450777Y-8722436D01*
X2450777Y-8722436D02*
X2441253Y-8703389D01*
X2441253Y-8703389D02*
X2431729Y-8665293D01*
X2431729Y-8665293D02*
X2431729Y-8617674D01*
X2431729Y-8617674D02*
X2441253Y-8579579D01*
X2441253Y-8579579D02*
X2450777Y-8560531D01*
X2450777Y-8560531D02*
X2460301Y-8551008D01*
X2460301Y-8551008D02*
X2479348Y-8541484D01*
X2669825Y-8541484D02*
X2688872Y-8541484D01*
X2688872Y-8541484D02*
X2707920Y-8551008D01*
X2707920Y-8551008D02*
X2717444Y-8560531D01*
X2717444Y-8560531D02*
X2726968Y-8579579D01*
X2726968Y-8579579D02*
X2736491Y-8617674D01*
X2736491Y-8617674D02*
X2736491Y-8665293D01*
X2736491Y-8665293D02*
X2726968Y-8703389D01*
X2726968Y-8703389D02*
X2717444Y-8722436D01*
X2717444Y-8722436D02*
X2707920Y-8731960D01*
X2707920Y-8731960D02*
X2688872Y-8741484D01*
X2688872Y-8741484D02*
X2669825Y-8741484D01*
X2669825Y-8741484D02*
X2650777Y-8731960D01*
X2650777Y-8731960D02*
X2641253Y-8722436D01*
X2641253Y-8722436D02*
X2631729Y-8703389D01*
X2631729Y-8703389D02*
X2622206Y-8665293D01*
X2622206Y-8665293D02*
X2622206Y-8617674D01*
X2622206Y-8617674D02*
X2631729Y-8579579D01*
X2631729Y-8579579D02*
X2641253Y-8560531D01*
X2641253Y-8560531D02*
X2650777Y-8551008D01*
X2650777Y-8551008D02*
X2669825Y-8541484D01*
X2803158Y-8541484D02*
X2936491Y-8541484D01*
X2936491Y-8541484D02*
X2850777Y-8741484D01*
X3022206Y-8741484D02*
X3060301Y-8741484D01*
X3060301Y-8741484D02*
X3079348Y-8731960D01*
X3079348Y-8731960D02*
X3088872Y-8722436D01*
X3088872Y-8722436D02*
X3107920Y-8693865D01*
X3107920Y-8693865D02*
X3117444Y-8655770D01*
X3117444Y-8655770D02*
X3117444Y-8579579D01*
X3117444Y-8579579D02*
X3107920Y-8560531D01*
X3107920Y-8560531D02*
X3098396Y-8551008D01*
X3098396Y-8551008D02*
X3079348Y-8541484D01*
X3079348Y-8541484D02*
X3041253Y-8541484D01*
X3041253Y-8541484D02*
X3022206Y-8551008D01*
X3022206Y-8551008D02*
X3012682Y-8560531D01*
X3012682Y-8560531D02*
X3003158Y-8579579D01*
X3003158Y-8579579D02*
X3003158Y-8627198D01*
X3003158Y-8627198D02*
X3012682Y-8646246D01*
X3012682Y-8646246D02*
X3022206Y-8655770D01*
X3022206Y-8655770D02*
X3041253Y-8665293D01*
X3041253Y-8665293D02*
X3079348Y-8665293D01*
X3079348Y-8665293D02*
X3098396Y-8655770D01*
X3098396Y-8655770D02*
X3107920Y-8646246D01*
X3107920Y-8646246D02*
X3117444Y-8627198D01*
X3193634Y-8541484D02*
X3193634Y-8579579D01*
X3269825Y-8541484D02*
X3269825Y-8579579D01*
X3565063Y-8817674D02*
X3555539Y-8808150D01*
X3555539Y-8808150D02*
X3536491Y-8779579D01*
X3536491Y-8779579D02*
X3526968Y-8760531D01*
X3526968Y-8760531D02*
X3517444Y-8731960D01*
X3517444Y-8731960D02*
X3507920Y-8684341D01*
X3507920Y-8684341D02*
X3507920Y-8646246D01*
X3507920Y-8646246D02*
X3517444Y-8598627D01*
X3517444Y-8598627D02*
X3526968Y-8570055D01*
X3526968Y-8570055D02*
X3536491Y-8551008D01*
X3536491Y-8551008D02*
X3555539Y-8522436D01*
X3555539Y-8522436D02*
X3565063Y-8512912D01*
X3669825Y-8627198D02*
X3650777Y-8617674D01*
X3650777Y-8617674D02*
X3641253Y-8608150D01*
X3641253Y-8608150D02*
X3631729Y-8589103D01*
X3631729Y-8589103D02*
X3631729Y-8579579D01*
X3631729Y-8579579D02*
X3641253Y-8560531D01*
X3641253Y-8560531D02*
X3650777Y-8551008D01*
X3650777Y-8551008D02*
X3669825Y-8541484D01*
X3669825Y-8541484D02*
X3707920Y-8541484D01*
X3707920Y-8541484D02*
X3726968Y-8551008D01*
X3726968Y-8551008D02*
X3736491Y-8560531D01*
X3736491Y-8560531D02*
X3746015Y-8579579D01*
X3746015Y-8579579D02*
X3746015Y-8589103D01*
X3746015Y-8589103D02*
X3736491Y-8608150D01*
X3736491Y-8608150D02*
X3726968Y-8617674D01*
X3726968Y-8617674D02*
X3707920Y-8627198D01*
X3707920Y-8627198D02*
X3669825Y-8627198D01*
X3669825Y-8627198D02*
X3650777Y-8636722D01*
X3650777Y-8636722D02*
X3641253Y-8646246D01*
X3641253Y-8646246D02*
X3631729Y-8665293D01*
X3631729Y-8665293D02*
X3631729Y-8703389D01*
X3631729Y-8703389D02*
X3641253Y-8722436D01*
X3641253Y-8722436D02*
X3650777Y-8731960D01*
X3650777Y-8731960D02*
X3669825Y-8741484D01*
X3669825Y-8741484D02*
X3707920Y-8741484D01*
X3707920Y-8741484D02*
X3726968Y-8731960D01*
X3726968Y-8731960D02*
X3736491Y-8722436D01*
X3736491Y-8722436D02*
X3746015Y-8703389D01*
X3746015Y-8703389D02*
X3746015Y-8665293D01*
X3746015Y-8665293D02*
X3736491Y-8646246D01*
X3736491Y-8646246D02*
X3726968Y-8636722D01*
X3726968Y-8636722D02*
X3707920Y-8627198D01*
X3984110Y-8741484D02*
X3984110Y-8541484D01*
X4069825Y-8741484D02*
X4069825Y-8636722D01*
X4069825Y-8636722D02*
X4060301Y-8617674D01*
X4060301Y-8617674D02*
X4041253Y-8608150D01*
X4041253Y-8608150D02*
X4012682Y-8608150D01*
X4012682Y-8608150D02*
X3993634Y-8617674D01*
X3993634Y-8617674D02*
X3984110Y-8627198D01*
X4193634Y-8741484D02*
X4174587Y-8731960D01*
X4174587Y-8731960D02*
X4165063Y-8722436D01*
X4165063Y-8722436D02*
X4155539Y-8703389D01*
X4155539Y-8703389D02*
X4155539Y-8646246D01*
X4155539Y-8646246D02*
X4165063Y-8627198D01*
X4165063Y-8627198D02*
X4174587Y-8617674D01*
X4174587Y-8617674D02*
X4193634Y-8608150D01*
X4193634Y-8608150D02*
X4222206Y-8608150D01*
X4222206Y-8608150D02*
X4241253Y-8617674D01*
X4241253Y-8617674D02*
X4250777Y-8627198D01*
X4250777Y-8627198D02*
X4260301Y-8646246D01*
X4260301Y-8646246D02*
X4260301Y-8703389D01*
X4260301Y-8703389D02*
X4250777Y-8722436D01*
X4250777Y-8722436D02*
X4241253Y-8731960D01*
X4241253Y-8731960D02*
X4222206Y-8741484D01*
X4222206Y-8741484D02*
X4193634Y-8741484D01*
X4374587Y-8741484D02*
X4355539Y-8731960D01*
X4355539Y-8731960D02*
X4346015Y-8712912D01*
X4346015Y-8712912D02*
X4346015Y-8541484D01*
X4526968Y-8731960D02*
X4507920Y-8741484D01*
X4507920Y-8741484D02*
X4469825Y-8741484D01*
X4469825Y-8741484D02*
X4450777Y-8731960D01*
X4450777Y-8731960D02*
X4441253Y-8712912D01*
X4441253Y-8712912D02*
X4441253Y-8636722D01*
X4441253Y-8636722D02*
X4450777Y-8617674D01*
X4450777Y-8617674D02*
X4469825Y-8608150D01*
X4469825Y-8608150D02*
X4507920Y-8608150D01*
X4507920Y-8608150D02*
X4526968Y-8617674D01*
X4526968Y-8617674D02*
X4536492Y-8636722D01*
X4536492Y-8636722D02*
X4536492Y-8655770D01*
X4536492Y-8655770D02*
X4441253Y-8674817D01*
X4612682Y-8731960D02*
X4631730Y-8741484D01*
X4631730Y-8741484D02*
X4669825Y-8741484D01*
X4669825Y-8741484D02*
X4688873Y-8731960D01*
X4688873Y-8731960D02*
X4698396Y-8712912D01*
X4698396Y-8712912D02*
X4698396Y-8703389D01*
X4698396Y-8703389D02*
X4688873Y-8684341D01*
X4688873Y-8684341D02*
X4669825Y-8674817D01*
X4669825Y-8674817D02*
X4641253Y-8674817D01*
X4641253Y-8674817D02*
X4622206Y-8665293D01*
X4622206Y-8665293D02*
X4612682Y-8646246D01*
X4612682Y-8646246D02*
X4612682Y-8636722D01*
X4612682Y-8636722D02*
X4622206Y-8617674D01*
X4622206Y-8617674D02*
X4641253Y-8608150D01*
X4641253Y-8608150D02*
X4669825Y-8608150D01*
X4669825Y-8608150D02*
X4688873Y-8617674D01*
X4765063Y-8817674D02*
X4774587Y-8808150D01*
X4774587Y-8808150D02*
X4793634Y-8779579D01*
X4793634Y-8779579D02*
X4803158Y-8760531D01*
X4803158Y-8760531D02*
X4812682Y-8731960D01*
X4812682Y-8731960D02*
X4822206Y-8684341D01*
X4822206Y-8684341D02*
X4822206Y-8646246D01*
X4822206Y-8646246D02*
X4812682Y-8598627D01*
X4812682Y-8598627D02*
X4803158Y-8570055D01*
X4803158Y-8570055D02*
X4793634Y-8551008D01*
X4793634Y-8551008D02*
X4774587Y-8522436D01*
X4774587Y-8522436D02*
X4765063Y-8512912D01*
D12*
X-10000Y-8914000D02*
G75*
G02*
X-40000Y-8914000I-15000J0D01*
G01*
X-40000Y-8914000D02*
G75*
G02*
X-10000Y-8914000I15000J0D01*
G01*
D10*
X288872Y-8805484D02*
X307920Y-8805484D01*
X307920Y-8805484D02*
X326967Y-8815008D01*
X326967Y-8815008D02*
X336491Y-8824531D01*
X336491Y-8824531D02*
X346015Y-8843579D01*
X346015Y-8843579D02*
X355539Y-8881674D01*
X355539Y-8881674D02*
X355539Y-8929293D01*
X355539Y-8929293D02*
X346015Y-8967389D01*
X346015Y-8967389D02*
X336491Y-8986436D01*
X336491Y-8986436D02*
X326967Y-8995960D01*
X326967Y-8995960D02*
X307920Y-9005484D01*
X307920Y-9005484D02*
X288872Y-9005484D01*
X288872Y-9005484D02*
X269824Y-8995960D01*
X269824Y-8995960D02*
X260301Y-8986436D01*
X260301Y-8986436D02*
X250777Y-8967389D01*
X250777Y-8967389D02*
X241253Y-8929293D01*
X241253Y-8929293D02*
X241253Y-8881674D01*
X241253Y-8881674D02*
X250777Y-8843579D01*
X250777Y-8843579D02*
X260301Y-8824531D01*
X260301Y-8824531D02*
X269824Y-8815008D01*
X269824Y-8815008D02*
X288872Y-8805484D01*
X441253Y-8986436D02*
X450777Y-8995960D01*
X450777Y-8995960D02*
X441253Y-9005484D01*
X441253Y-9005484D02*
X431729Y-8995960D01*
X431729Y-8995960D02*
X441253Y-8986436D01*
X441253Y-8986436D02*
X441253Y-9005484D01*
X517443Y-8805484D02*
X641253Y-8805484D01*
X641253Y-8805484D02*
X574586Y-8881674D01*
X574586Y-8881674D02*
X603158Y-8881674D01*
X603158Y-8881674D02*
X622205Y-8891198D01*
X622205Y-8891198D02*
X631729Y-8900722D01*
X631729Y-8900722D02*
X641253Y-8919770D01*
X641253Y-8919770D02*
X641253Y-8967389D01*
X641253Y-8967389D02*
X631729Y-8986436D01*
X631729Y-8986436D02*
X622205Y-8995960D01*
X622205Y-8995960D02*
X603158Y-9005484D01*
X603158Y-9005484D02*
X546015Y-9005484D01*
X546015Y-9005484D02*
X526967Y-8995960D01*
X526967Y-8995960D02*
X517443Y-8986436D01*
X765062Y-8805484D02*
X784110Y-8805484D01*
X784110Y-8805484D02*
X803158Y-8815008D01*
X803158Y-8815008D02*
X812682Y-8824531D01*
X812682Y-8824531D02*
X822205Y-8843579D01*
X822205Y-8843579D02*
X831729Y-8881674D01*
X831729Y-8881674D02*
X831729Y-8929293D01*
X831729Y-8929293D02*
X822205Y-8967389D01*
X822205Y-8967389D02*
X812682Y-8986436D01*
X812682Y-8986436D02*
X803158Y-8995960D01*
X803158Y-8995960D02*
X784110Y-9005484D01*
X784110Y-9005484D02*
X765062Y-9005484D01*
X765062Y-9005484D02*
X746015Y-8995960D01*
X746015Y-8995960D02*
X736491Y-8986436D01*
X736491Y-8986436D02*
X726967Y-8967389D01*
X726967Y-8967389D02*
X717443Y-8929293D01*
X717443Y-8929293D02*
X717443Y-8881674D01*
X717443Y-8881674D02*
X726967Y-8843579D01*
X726967Y-8843579D02*
X736491Y-8824531D01*
X736491Y-8824531D02*
X746015Y-8815008D01*
X746015Y-8815008D02*
X765062Y-8805484D01*
X955539Y-8805484D02*
X974586Y-8805484D01*
X974586Y-8805484D02*
X993634Y-8815008D01*
X993634Y-8815008D02*
X1003158Y-8824531D01*
X1003158Y-8824531D02*
X1012682Y-8843579D01*
X1012682Y-8843579D02*
X1022205Y-8881674D01*
X1022205Y-8881674D02*
X1022205Y-8929293D01*
X1022205Y-8929293D02*
X1012682Y-8967389D01*
X1012682Y-8967389D02*
X1003158Y-8986436D01*
X1003158Y-8986436D02*
X993634Y-8995960D01*
X993634Y-8995960D02*
X974586Y-9005484D01*
X974586Y-9005484D02*
X955539Y-9005484D01*
X955539Y-9005484D02*
X936491Y-8995960D01*
X936491Y-8995960D02*
X926967Y-8986436D01*
X926967Y-8986436D02*
X917443Y-8967389D01*
X917443Y-8967389D02*
X907920Y-8929293D01*
X907920Y-8929293D02*
X907920Y-8881674D01*
X907920Y-8881674D02*
X917443Y-8843579D01*
X917443Y-8843579D02*
X926967Y-8824531D01*
X926967Y-8824531D02*
X936491Y-8815008D01*
X936491Y-8815008D02*
X955539Y-8805484D01*
X1107920Y-9005484D02*
X1107920Y-8872150D01*
X1107920Y-8891198D02*
X1117444Y-8881674D01*
X1117444Y-8881674D02*
X1136491Y-8872150D01*
X1136491Y-8872150D02*
X1165063Y-8872150D01*
X1165063Y-8872150D02*
X1184110Y-8881674D01*
X1184110Y-8881674D02*
X1193634Y-8900722D01*
X1193634Y-8900722D02*
X1193634Y-9005484D01*
X1193634Y-8900722D02*
X1203158Y-8881674D01*
X1203158Y-8881674D02*
X1222205Y-8872150D01*
X1222205Y-8872150D02*
X1250777Y-8872150D01*
X1250777Y-8872150D02*
X1269825Y-8881674D01*
X1269825Y-8881674D02*
X1279348Y-8900722D01*
X1279348Y-8900722D02*
X1279348Y-9005484D01*
X1374586Y-9005484D02*
X1374586Y-8872150D01*
X1374586Y-8891198D02*
X1384110Y-8881674D01*
X1384110Y-8881674D02*
X1403158Y-8872150D01*
X1403158Y-8872150D02*
X1431729Y-8872150D01*
X1431729Y-8872150D02*
X1450777Y-8881674D01*
X1450777Y-8881674D02*
X1460301Y-8900722D01*
X1460301Y-8900722D02*
X1460301Y-9005484D01*
X1460301Y-8900722D02*
X1469824Y-8881674D01*
X1469824Y-8881674D02*
X1488872Y-8872150D01*
X1488872Y-8872150D02*
X1517443Y-8872150D01*
X1517443Y-8872150D02*
X1536491Y-8881674D01*
X1536491Y-8881674D02*
X1546015Y-8900722D01*
X1546015Y-8900722D02*
X1546015Y-9005484D01*
X1936491Y-8795960D02*
X1765063Y-9053103D01*
X2193634Y-8805484D02*
X2212682Y-8805484D01*
X2212682Y-8805484D02*
X2231729Y-8815008D01*
X2231729Y-8815008D02*
X2241253Y-8824531D01*
X2241253Y-8824531D02*
X2250777Y-8843579D01*
X2250777Y-8843579D02*
X2260301Y-8881674D01*
X2260301Y-8881674D02*
X2260301Y-8929293D01*
X2260301Y-8929293D02*
X2250777Y-8967389D01*
X2250777Y-8967389D02*
X2241253Y-8986436D01*
X2241253Y-8986436D02*
X2231729Y-8995960D01*
X2231729Y-8995960D02*
X2212682Y-9005484D01*
X2212682Y-9005484D02*
X2193634Y-9005484D01*
X2193634Y-9005484D02*
X2174587Y-8995960D01*
X2174587Y-8995960D02*
X2165063Y-8986436D01*
X2165063Y-8986436D02*
X2155539Y-8967389D01*
X2155539Y-8967389D02*
X2146015Y-8929293D01*
X2146015Y-8929293D02*
X2146015Y-8881674D01*
X2146015Y-8881674D02*
X2155539Y-8843579D01*
X2155539Y-8843579D02*
X2165063Y-8824531D01*
X2165063Y-8824531D02*
X2174587Y-8815008D01*
X2174587Y-8815008D02*
X2193634Y-8805484D01*
X2346015Y-8986436D02*
X2355539Y-8995960D01*
X2355539Y-8995960D02*
X2346015Y-9005484D01*
X2346015Y-9005484D02*
X2336491Y-8995960D01*
X2336491Y-8995960D02*
X2346015Y-8986436D01*
X2346015Y-8986436D02*
X2346015Y-9005484D01*
X2479348Y-8805484D02*
X2498396Y-8805484D01*
X2498396Y-8805484D02*
X2517444Y-8815008D01*
X2517444Y-8815008D02*
X2526968Y-8824531D01*
X2526968Y-8824531D02*
X2536491Y-8843579D01*
X2536491Y-8843579D02*
X2546015Y-8881674D01*
X2546015Y-8881674D02*
X2546015Y-8929293D01*
X2546015Y-8929293D02*
X2536491Y-8967389D01*
X2536491Y-8967389D02*
X2526968Y-8986436D01*
X2526968Y-8986436D02*
X2517444Y-8995960D01*
X2517444Y-8995960D02*
X2498396Y-9005484D01*
X2498396Y-9005484D02*
X2479348Y-9005484D01*
X2479348Y-9005484D02*
X2460301Y-8995960D01*
X2460301Y-8995960D02*
X2450777Y-8986436D01*
X2450777Y-8986436D02*
X2441253Y-8967389D01*
X2441253Y-8967389D02*
X2431729Y-8929293D01*
X2431729Y-8929293D02*
X2431729Y-8881674D01*
X2431729Y-8881674D02*
X2441253Y-8843579D01*
X2441253Y-8843579D02*
X2450777Y-8824531D01*
X2450777Y-8824531D02*
X2460301Y-8815008D01*
X2460301Y-8815008D02*
X2479348Y-8805484D01*
X2736491Y-9005484D02*
X2622206Y-9005484D01*
X2679348Y-9005484D02*
X2679348Y-8805484D01*
X2679348Y-8805484D02*
X2660301Y-8834055D01*
X2660301Y-8834055D02*
X2641253Y-8853103D01*
X2641253Y-8853103D02*
X2622206Y-8862627D01*
X2926967Y-9005484D02*
X2812682Y-9005484D01*
X2869825Y-9005484D02*
X2869825Y-8805484D01*
X2869825Y-8805484D02*
X2850777Y-8834055D01*
X2850777Y-8834055D02*
X2831729Y-8853103D01*
X2831729Y-8853103D02*
X2812682Y-8862627D01*
X3041253Y-8891198D02*
X3022206Y-8881674D01*
X3022206Y-8881674D02*
X3012682Y-8872150D01*
X3012682Y-8872150D02*
X3003158Y-8853103D01*
X3003158Y-8853103D02*
X3003158Y-8843579D01*
X3003158Y-8843579D02*
X3012682Y-8824531D01*
X3012682Y-8824531D02*
X3022206Y-8815008D01*
X3022206Y-8815008D02*
X3041253Y-8805484D01*
X3041253Y-8805484D02*
X3079348Y-8805484D01*
X3079348Y-8805484D02*
X3098396Y-8815008D01*
X3098396Y-8815008D02*
X3107920Y-8824531D01*
X3107920Y-8824531D02*
X3117444Y-8843579D01*
X3117444Y-8843579D02*
X3117444Y-8853103D01*
X3117444Y-8853103D02*
X3107920Y-8872150D01*
X3107920Y-8872150D02*
X3098396Y-8881674D01*
X3098396Y-8881674D02*
X3079348Y-8891198D01*
X3079348Y-8891198D02*
X3041253Y-8891198D01*
X3041253Y-8891198D02*
X3022206Y-8900722D01*
X3022206Y-8900722D02*
X3012682Y-8910246D01*
X3012682Y-8910246D02*
X3003158Y-8929293D01*
X3003158Y-8929293D02*
X3003158Y-8967389D01*
X3003158Y-8967389D02*
X3012682Y-8986436D01*
X3012682Y-8986436D02*
X3022206Y-8995960D01*
X3022206Y-8995960D02*
X3041253Y-9005484D01*
X3041253Y-9005484D02*
X3079348Y-9005484D01*
X3079348Y-9005484D02*
X3098396Y-8995960D01*
X3098396Y-8995960D02*
X3107920Y-8986436D01*
X3107920Y-8986436D02*
X3117444Y-8967389D01*
X3117444Y-8967389D02*
X3117444Y-8929293D01*
X3117444Y-8929293D02*
X3107920Y-8910246D01*
X3107920Y-8910246D02*
X3098396Y-8900722D01*
X3098396Y-8900722D02*
X3079348Y-8891198D01*
X3193634Y-8805484D02*
X3193634Y-8843579D01*
X3269825Y-8805484D02*
X3269825Y-8843579D01*
X3565063Y-9081674D02*
X3555539Y-9072150D01*
X3555539Y-9072150D02*
X3536491Y-9043579D01*
X3536491Y-9043579D02*
X3526968Y-9024531D01*
X3526968Y-9024531D02*
X3517444Y-8995960D01*
X3517444Y-8995960D02*
X3507920Y-8948341D01*
X3507920Y-8948341D02*
X3507920Y-8910246D01*
X3507920Y-8910246D02*
X3517444Y-8862627D01*
X3517444Y-8862627D02*
X3526968Y-8834055D01*
X3526968Y-8834055D02*
X3536491Y-8815008D01*
X3536491Y-8815008D02*
X3555539Y-8786436D01*
X3555539Y-8786436D02*
X3565063Y-8776912D01*
X3726968Y-8872150D02*
X3726968Y-9005484D01*
X3679348Y-8795960D02*
X3631729Y-8938817D01*
X3631729Y-8938817D02*
X3755539Y-8938817D01*
X3917444Y-8805484D02*
X3879348Y-8805484D01*
X3879348Y-8805484D02*
X3860301Y-8815008D01*
X3860301Y-8815008D02*
X3850777Y-8824531D01*
X3850777Y-8824531D02*
X3831729Y-8853103D01*
X3831729Y-8853103D02*
X3822206Y-8891198D01*
X3822206Y-8891198D02*
X3822206Y-8967389D01*
X3822206Y-8967389D02*
X3831729Y-8986436D01*
X3831729Y-8986436D02*
X3841253Y-8995960D01*
X3841253Y-8995960D02*
X3860301Y-9005484D01*
X3860301Y-9005484D02*
X3898396Y-9005484D01*
X3898396Y-9005484D02*
X3917444Y-8995960D01*
X3917444Y-8995960D02*
X3926968Y-8986436D01*
X3926968Y-8986436D02*
X3936491Y-8967389D01*
X3936491Y-8967389D02*
X3936491Y-8919770D01*
X3936491Y-8919770D02*
X3926968Y-8900722D01*
X3926968Y-8900722D02*
X3917444Y-8891198D01*
X3917444Y-8891198D02*
X3898396Y-8881674D01*
X3898396Y-8881674D02*
X3860301Y-8881674D01*
X3860301Y-8881674D02*
X3841253Y-8891198D01*
X3841253Y-8891198D02*
X3831729Y-8900722D01*
X3831729Y-8900722D02*
X3822206Y-8919770D01*
X4174587Y-9005484D02*
X4174587Y-8805484D01*
X4260301Y-9005484D02*
X4260301Y-8900722D01*
X4260301Y-8900722D02*
X4250777Y-8881674D01*
X4250777Y-8881674D02*
X4231730Y-8872150D01*
X4231730Y-8872150D02*
X4203158Y-8872150D01*
X4203158Y-8872150D02*
X4184110Y-8881674D01*
X4184110Y-8881674D02*
X4174587Y-8891198D01*
X4384111Y-9005484D02*
X4365063Y-8995960D01*
X4365063Y-8995960D02*
X4355539Y-8986436D01*
X4355539Y-8986436D02*
X4346015Y-8967389D01*
X4346015Y-8967389D02*
X4346015Y-8910246D01*
X4346015Y-8910246D02*
X4355539Y-8891198D01*
X4355539Y-8891198D02*
X4365063Y-8881674D01*
X4365063Y-8881674D02*
X4384111Y-8872150D01*
X4384111Y-8872150D02*
X4412682Y-8872150D01*
X4412682Y-8872150D02*
X4431730Y-8881674D01*
X4431730Y-8881674D02*
X4441253Y-8891198D01*
X4441253Y-8891198D02*
X4450777Y-8910246D01*
X4450777Y-8910246D02*
X4450777Y-8967389D01*
X4450777Y-8967389D02*
X4441253Y-8986436D01*
X4441253Y-8986436D02*
X4431730Y-8995960D01*
X4431730Y-8995960D02*
X4412682Y-9005484D01*
X4412682Y-9005484D02*
X4384111Y-9005484D01*
X4565063Y-9005484D02*
X4546015Y-8995960D01*
X4546015Y-8995960D02*
X4536492Y-8976912D01*
X4536492Y-8976912D02*
X4536492Y-8805484D01*
X4717444Y-8995960D02*
X4698396Y-9005484D01*
X4698396Y-9005484D02*
X4660301Y-9005484D01*
X4660301Y-9005484D02*
X4641253Y-8995960D01*
X4641253Y-8995960D02*
X4631730Y-8976912D01*
X4631730Y-8976912D02*
X4631730Y-8900722D01*
X4631730Y-8900722D02*
X4641253Y-8881674D01*
X4641253Y-8881674D02*
X4660301Y-8872150D01*
X4660301Y-8872150D02*
X4698396Y-8872150D01*
X4698396Y-8872150D02*
X4717444Y-8881674D01*
X4717444Y-8881674D02*
X4726968Y-8900722D01*
X4726968Y-8900722D02*
X4726968Y-8919770D01*
X4726968Y-8919770D02*
X4631730Y-8938817D01*
X4803158Y-8995960D02*
X4822206Y-9005484D01*
X4822206Y-9005484D02*
X4860301Y-9005484D01*
X4860301Y-9005484D02*
X4879349Y-8995960D01*
X4879349Y-8995960D02*
X4888873Y-8976912D01*
X4888873Y-8976912D02*
X4888873Y-8967389D01*
X4888873Y-8967389D02*
X4879349Y-8948341D01*
X4879349Y-8948341D02*
X4860301Y-8938817D01*
X4860301Y-8938817D02*
X4831730Y-8938817D01*
X4831730Y-8938817D02*
X4812682Y-8929293D01*
X4812682Y-8929293D02*
X4803158Y-8910246D01*
X4803158Y-8910246D02*
X4803158Y-8900722D01*
X4803158Y-8900722D02*
X4812682Y-8881674D01*
X4812682Y-8881674D02*
X4831730Y-8872150D01*
X4831730Y-8872150D02*
X4860301Y-8872150D01*
X4860301Y-8872150D02*
X4879349Y-8881674D01*
X4955539Y-9081674D02*
X4965063Y-9072150D01*
X4965063Y-9072150D02*
X4984111Y-9043579D01*
X4984111Y-9043579D02*
X4993634Y-9024531D01*
X4993634Y-9024531D02*
X5003158Y-8995960D01*
X5003158Y-8995960D02*
X5012682Y-8948341D01*
X5012682Y-8948341D02*
X5012682Y-8910246D01*
X5012682Y-8910246D02*
X5003158Y-8862627D01*
X5003158Y-8862627D02*
X4993634Y-8834055D01*
X4993634Y-8834055D02*
X4984111Y-8815008D01*
X4984111Y-8815008D02*
X4965063Y-8786436D01*
X4965063Y-8786436D02*
X4955539Y-8776912D01*
D12*
X-30000Y-9158000D02*
X-30000Y-9198000D01*
X-50000Y-9178000D02*
X-10000Y-9178000D01*
D10*
X288872Y-9069484D02*
X307920Y-9069484D01*
X307920Y-9069484D02*
X326967Y-9079008D01*
X326967Y-9079008D02*
X336491Y-9088531D01*
X336491Y-9088531D02*
X346015Y-9107579D01*
X346015Y-9107579D02*
X355539Y-9145674D01*
X355539Y-9145674D02*
X355539Y-9193293D01*
X355539Y-9193293D02*
X346015Y-9231389D01*
X346015Y-9231389D02*
X336491Y-9250436D01*
X336491Y-9250436D02*
X326967Y-9259960D01*
X326967Y-9259960D02*
X307920Y-9269484D01*
X307920Y-9269484D02*
X288872Y-9269484D01*
X288872Y-9269484D02*
X269824Y-9259960D01*
X269824Y-9259960D02*
X260301Y-9250436D01*
X260301Y-9250436D02*
X250777Y-9231389D01*
X250777Y-9231389D02*
X241253Y-9193293D01*
X241253Y-9193293D02*
X241253Y-9145674D01*
X241253Y-9145674D02*
X250777Y-9107579D01*
X250777Y-9107579D02*
X260301Y-9088531D01*
X260301Y-9088531D02*
X269824Y-9079008D01*
X269824Y-9079008D02*
X288872Y-9069484D01*
X441253Y-9250436D02*
X450777Y-9259960D01*
X450777Y-9259960D02*
X441253Y-9269484D01*
X441253Y-9269484D02*
X431729Y-9259960D01*
X431729Y-9259960D02*
X441253Y-9250436D01*
X441253Y-9250436D02*
X441253Y-9269484D01*
X622205Y-9136150D02*
X622205Y-9269484D01*
X574586Y-9059960D02*
X526967Y-9202817D01*
X526967Y-9202817D02*
X650777Y-9202817D01*
X765062Y-9069484D02*
X784110Y-9069484D01*
X784110Y-9069484D02*
X803158Y-9079008D01*
X803158Y-9079008D02*
X812682Y-9088531D01*
X812682Y-9088531D02*
X822205Y-9107579D01*
X822205Y-9107579D02*
X831729Y-9145674D01*
X831729Y-9145674D02*
X831729Y-9193293D01*
X831729Y-9193293D02*
X822205Y-9231389D01*
X822205Y-9231389D02*
X812682Y-9250436D01*
X812682Y-9250436D02*
X803158Y-9259960D01*
X803158Y-9259960D02*
X784110Y-9269484D01*
X784110Y-9269484D02*
X765062Y-9269484D01*
X765062Y-9269484D02*
X746015Y-9259960D01*
X746015Y-9259960D02*
X736491Y-9250436D01*
X736491Y-9250436D02*
X726967Y-9231389D01*
X726967Y-9231389D02*
X717443Y-9193293D01*
X717443Y-9193293D02*
X717443Y-9145674D01*
X717443Y-9145674D02*
X726967Y-9107579D01*
X726967Y-9107579D02*
X736491Y-9088531D01*
X736491Y-9088531D02*
X746015Y-9079008D01*
X746015Y-9079008D02*
X765062Y-9069484D01*
X955539Y-9069484D02*
X974586Y-9069484D01*
X974586Y-9069484D02*
X993634Y-9079008D01*
X993634Y-9079008D02*
X1003158Y-9088531D01*
X1003158Y-9088531D02*
X1012682Y-9107579D01*
X1012682Y-9107579D02*
X1022205Y-9145674D01*
X1022205Y-9145674D02*
X1022205Y-9193293D01*
X1022205Y-9193293D02*
X1012682Y-9231389D01*
X1012682Y-9231389D02*
X1003158Y-9250436D01*
X1003158Y-9250436D02*
X993634Y-9259960D01*
X993634Y-9259960D02*
X974586Y-9269484D01*
X974586Y-9269484D02*
X955539Y-9269484D01*
X955539Y-9269484D02*
X936491Y-9259960D01*
X936491Y-9259960D02*
X926967Y-9250436D01*
X926967Y-9250436D02*
X917443Y-9231389D01*
X917443Y-9231389D02*
X907920Y-9193293D01*
X907920Y-9193293D02*
X907920Y-9145674D01*
X907920Y-9145674D02*
X917443Y-9107579D01*
X917443Y-9107579D02*
X926967Y-9088531D01*
X926967Y-9088531D02*
X936491Y-9079008D01*
X936491Y-9079008D02*
X955539Y-9069484D01*
X1107920Y-9269484D02*
X1107920Y-9136150D01*
X1107920Y-9155198D02*
X1117444Y-9145674D01*
X1117444Y-9145674D02*
X1136491Y-9136150D01*
X1136491Y-9136150D02*
X1165063Y-9136150D01*
X1165063Y-9136150D02*
X1184110Y-9145674D01*
X1184110Y-9145674D02*
X1193634Y-9164722D01*
X1193634Y-9164722D02*
X1193634Y-9269484D01*
X1193634Y-9164722D02*
X1203158Y-9145674D01*
X1203158Y-9145674D02*
X1222205Y-9136150D01*
X1222205Y-9136150D02*
X1250777Y-9136150D01*
X1250777Y-9136150D02*
X1269825Y-9145674D01*
X1269825Y-9145674D02*
X1279348Y-9164722D01*
X1279348Y-9164722D02*
X1279348Y-9269484D01*
X1374586Y-9269484D02*
X1374586Y-9136150D01*
X1374586Y-9155198D02*
X1384110Y-9145674D01*
X1384110Y-9145674D02*
X1403158Y-9136150D01*
X1403158Y-9136150D02*
X1431729Y-9136150D01*
X1431729Y-9136150D02*
X1450777Y-9145674D01*
X1450777Y-9145674D02*
X1460301Y-9164722D01*
X1460301Y-9164722D02*
X1460301Y-9269484D01*
X1460301Y-9164722D02*
X1469824Y-9145674D01*
X1469824Y-9145674D02*
X1488872Y-9136150D01*
X1488872Y-9136150D02*
X1517443Y-9136150D01*
X1517443Y-9136150D02*
X1536491Y-9145674D01*
X1536491Y-9145674D02*
X1546015Y-9164722D01*
X1546015Y-9164722D02*
X1546015Y-9269484D01*
X1936491Y-9059960D02*
X1765063Y-9317103D01*
X2193634Y-9069484D02*
X2212682Y-9069484D01*
X2212682Y-9069484D02*
X2231729Y-9079008D01*
X2231729Y-9079008D02*
X2241253Y-9088531D01*
X2241253Y-9088531D02*
X2250777Y-9107579D01*
X2250777Y-9107579D02*
X2260301Y-9145674D01*
X2260301Y-9145674D02*
X2260301Y-9193293D01*
X2260301Y-9193293D02*
X2250777Y-9231389D01*
X2250777Y-9231389D02*
X2241253Y-9250436D01*
X2241253Y-9250436D02*
X2231729Y-9259960D01*
X2231729Y-9259960D02*
X2212682Y-9269484D01*
X2212682Y-9269484D02*
X2193634Y-9269484D01*
X2193634Y-9269484D02*
X2174587Y-9259960D01*
X2174587Y-9259960D02*
X2165063Y-9250436D01*
X2165063Y-9250436D02*
X2155539Y-9231389D01*
X2155539Y-9231389D02*
X2146015Y-9193293D01*
X2146015Y-9193293D02*
X2146015Y-9145674D01*
X2146015Y-9145674D02*
X2155539Y-9107579D01*
X2155539Y-9107579D02*
X2165063Y-9088531D01*
X2165063Y-9088531D02*
X2174587Y-9079008D01*
X2174587Y-9079008D02*
X2193634Y-9069484D01*
X2346015Y-9250436D02*
X2355539Y-9259960D01*
X2355539Y-9259960D02*
X2346015Y-9269484D01*
X2346015Y-9269484D02*
X2336491Y-9259960D01*
X2336491Y-9259960D02*
X2346015Y-9250436D01*
X2346015Y-9250436D02*
X2346015Y-9269484D01*
X2479348Y-9069484D02*
X2498396Y-9069484D01*
X2498396Y-9069484D02*
X2517444Y-9079008D01*
X2517444Y-9079008D02*
X2526968Y-9088531D01*
X2526968Y-9088531D02*
X2536491Y-9107579D01*
X2536491Y-9107579D02*
X2546015Y-9145674D01*
X2546015Y-9145674D02*
X2546015Y-9193293D01*
X2546015Y-9193293D02*
X2536491Y-9231389D01*
X2536491Y-9231389D02*
X2526968Y-9250436D01*
X2526968Y-9250436D02*
X2517444Y-9259960D01*
X2517444Y-9259960D02*
X2498396Y-9269484D01*
X2498396Y-9269484D02*
X2479348Y-9269484D01*
X2479348Y-9269484D02*
X2460301Y-9259960D01*
X2460301Y-9259960D02*
X2450777Y-9250436D01*
X2450777Y-9250436D02*
X2441253Y-9231389D01*
X2441253Y-9231389D02*
X2431729Y-9193293D01*
X2431729Y-9193293D02*
X2431729Y-9145674D01*
X2431729Y-9145674D02*
X2441253Y-9107579D01*
X2441253Y-9107579D02*
X2450777Y-9088531D01*
X2450777Y-9088531D02*
X2460301Y-9079008D01*
X2460301Y-9079008D02*
X2479348Y-9069484D01*
X2736491Y-9269484D02*
X2622206Y-9269484D01*
X2679348Y-9269484D02*
X2679348Y-9069484D01*
X2679348Y-9069484D02*
X2660301Y-9098055D01*
X2660301Y-9098055D02*
X2641253Y-9117103D01*
X2641253Y-9117103D02*
X2622206Y-9126627D01*
X2917444Y-9069484D02*
X2822206Y-9069484D01*
X2822206Y-9069484D02*
X2812682Y-9164722D01*
X2812682Y-9164722D02*
X2822206Y-9155198D01*
X2822206Y-9155198D02*
X2841253Y-9145674D01*
X2841253Y-9145674D02*
X2888872Y-9145674D01*
X2888872Y-9145674D02*
X2907920Y-9155198D01*
X2907920Y-9155198D02*
X2917444Y-9164722D01*
X2917444Y-9164722D02*
X2926967Y-9183770D01*
X2926967Y-9183770D02*
X2926967Y-9231389D01*
X2926967Y-9231389D02*
X2917444Y-9250436D01*
X2917444Y-9250436D02*
X2907920Y-9259960D01*
X2907920Y-9259960D02*
X2888872Y-9269484D01*
X2888872Y-9269484D02*
X2841253Y-9269484D01*
X2841253Y-9269484D02*
X2822206Y-9259960D01*
X2822206Y-9259960D02*
X2812682Y-9250436D01*
X2993634Y-9069484D02*
X3126967Y-9069484D01*
X3126967Y-9069484D02*
X3041253Y-9269484D01*
X3193634Y-9069484D02*
X3193634Y-9107579D01*
X3269825Y-9069484D02*
X3269825Y-9107579D01*
X3565063Y-9345674D02*
X3555539Y-9336150D01*
X3555539Y-9336150D02*
X3536491Y-9307579D01*
X3536491Y-9307579D02*
X3526968Y-9288531D01*
X3526968Y-9288531D02*
X3517444Y-9259960D01*
X3517444Y-9259960D02*
X3507920Y-9212341D01*
X3507920Y-9212341D02*
X3507920Y-9174246D01*
X3507920Y-9174246D02*
X3517444Y-9126627D01*
X3517444Y-9126627D02*
X3526968Y-9098055D01*
X3526968Y-9098055D02*
X3536491Y-9079008D01*
X3536491Y-9079008D02*
X3555539Y-9050436D01*
X3555539Y-9050436D02*
X3565063Y-9040912D01*
X3622206Y-9069484D02*
X3755539Y-9069484D01*
X3755539Y-9069484D02*
X3669825Y-9269484D01*
X3860301Y-9155198D02*
X3841253Y-9145674D01*
X3841253Y-9145674D02*
X3831729Y-9136150D01*
X3831729Y-9136150D02*
X3822206Y-9117103D01*
X3822206Y-9117103D02*
X3822206Y-9107579D01*
X3822206Y-9107579D02*
X3831729Y-9088531D01*
X3831729Y-9088531D02*
X3841253Y-9079008D01*
X3841253Y-9079008D02*
X3860301Y-9069484D01*
X3860301Y-9069484D02*
X3898396Y-9069484D01*
X3898396Y-9069484D02*
X3917444Y-9079008D01*
X3917444Y-9079008D02*
X3926968Y-9088531D01*
X3926968Y-9088531D02*
X3936491Y-9107579D01*
X3936491Y-9107579D02*
X3936491Y-9117103D01*
X3936491Y-9117103D02*
X3926968Y-9136150D01*
X3926968Y-9136150D02*
X3917444Y-9145674D01*
X3917444Y-9145674D02*
X3898396Y-9155198D01*
X3898396Y-9155198D02*
X3860301Y-9155198D01*
X3860301Y-9155198D02*
X3841253Y-9164722D01*
X3841253Y-9164722D02*
X3831729Y-9174246D01*
X3831729Y-9174246D02*
X3822206Y-9193293D01*
X3822206Y-9193293D02*
X3822206Y-9231389D01*
X3822206Y-9231389D02*
X3831729Y-9250436D01*
X3831729Y-9250436D02*
X3841253Y-9259960D01*
X3841253Y-9259960D02*
X3860301Y-9269484D01*
X3860301Y-9269484D02*
X3898396Y-9269484D01*
X3898396Y-9269484D02*
X3917444Y-9259960D01*
X3917444Y-9259960D02*
X3926968Y-9250436D01*
X3926968Y-9250436D02*
X3936491Y-9231389D01*
X3936491Y-9231389D02*
X3936491Y-9193293D01*
X3936491Y-9193293D02*
X3926968Y-9174246D01*
X3926968Y-9174246D02*
X3917444Y-9164722D01*
X3917444Y-9164722D02*
X3898396Y-9155198D01*
X4174587Y-9269484D02*
X4174587Y-9069484D01*
X4260301Y-9269484D02*
X4260301Y-9164722D01*
X4260301Y-9164722D02*
X4250777Y-9145674D01*
X4250777Y-9145674D02*
X4231730Y-9136150D01*
X4231730Y-9136150D02*
X4203158Y-9136150D01*
X4203158Y-9136150D02*
X4184110Y-9145674D01*
X4184110Y-9145674D02*
X4174587Y-9155198D01*
X4384111Y-9269484D02*
X4365063Y-9259960D01*
X4365063Y-9259960D02*
X4355539Y-9250436D01*
X4355539Y-9250436D02*
X4346015Y-9231389D01*
X4346015Y-9231389D02*
X4346015Y-9174246D01*
X4346015Y-9174246D02*
X4355539Y-9155198D01*
X4355539Y-9155198D02*
X4365063Y-9145674D01*
X4365063Y-9145674D02*
X4384111Y-9136150D01*
X4384111Y-9136150D02*
X4412682Y-9136150D01*
X4412682Y-9136150D02*
X4431730Y-9145674D01*
X4431730Y-9145674D02*
X4441253Y-9155198D01*
X4441253Y-9155198D02*
X4450777Y-9174246D01*
X4450777Y-9174246D02*
X4450777Y-9231389D01*
X4450777Y-9231389D02*
X4441253Y-9250436D01*
X4441253Y-9250436D02*
X4431730Y-9259960D01*
X4431730Y-9259960D02*
X4412682Y-9269484D01*
X4412682Y-9269484D02*
X4384111Y-9269484D01*
X4565063Y-9269484D02*
X4546015Y-9259960D01*
X4546015Y-9259960D02*
X4536492Y-9240912D01*
X4536492Y-9240912D02*
X4536492Y-9069484D01*
X4717444Y-9259960D02*
X4698396Y-9269484D01*
X4698396Y-9269484D02*
X4660301Y-9269484D01*
X4660301Y-9269484D02*
X4641253Y-9259960D01*
X4641253Y-9259960D02*
X4631730Y-9240912D01*
X4631730Y-9240912D02*
X4631730Y-9164722D01*
X4631730Y-9164722D02*
X4641253Y-9145674D01*
X4641253Y-9145674D02*
X4660301Y-9136150D01*
X4660301Y-9136150D02*
X4698396Y-9136150D01*
X4698396Y-9136150D02*
X4717444Y-9145674D01*
X4717444Y-9145674D02*
X4726968Y-9164722D01*
X4726968Y-9164722D02*
X4726968Y-9183770D01*
X4726968Y-9183770D02*
X4631730Y-9202817D01*
X4803158Y-9259960D02*
X4822206Y-9269484D01*
X4822206Y-9269484D02*
X4860301Y-9269484D01*
X4860301Y-9269484D02*
X4879349Y-9259960D01*
X4879349Y-9259960D02*
X4888873Y-9240912D01*
X4888873Y-9240912D02*
X4888873Y-9231389D01*
X4888873Y-9231389D02*
X4879349Y-9212341D01*
X4879349Y-9212341D02*
X4860301Y-9202817D01*
X4860301Y-9202817D02*
X4831730Y-9202817D01*
X4831730Y-9202817D02*
X4812682Y-9193293D01*
X4812682Y-9193293D02*
X4803158Y-9174246D01*
X4803158Y-9174246D02*
X4803158Y-9164722D01*
X4803158Y-9164722D02*
X4812682Y-9145674D01*
X4812682Y-9145674D02*
X4831730Y-9136150D01*
X4831730Y-9136150D02*
X4860301Y-9136150D01*
X4860301Y-9136150D02*
X4879349Y-9145674D01*
X4955539Y-9345674D02*
X4965063Y-9336150D01*
X4965063Y-9336150D02*
X4984111Y-9307579D01*
X4984111Y-9307579D02*
X4993634Y-9288531D01*
X4993634Y-9288531D02*
X5003158Y-9259960D01*
X5003158Y-9259960D02*
X5012682Y-9212341D01*
X5012682Y-9212341D02*
X5012682Y-9174246D01*
X5012682Y-9174246D02*
X5003158Y-9126627D01*
X5003158Y-9126627D02*
X4993634Y-9098055D01*
X4993634Y-9098055D02*
X4984111Y-9079008D01*
X4984111Y-9079008D02*
X4965063Y-9050436D01*
X4965063Y-9050436D02*
X4955539Y-9040912D01*
D12*
X-17322Y-9459678D02*
X-17322Y-9424322D01*
X-52678Y-9424322D01*
X-52678Y-9459678D01*
X-17322Y-9459678D01*
D10*
X288872Y-9333484D02*
X307920Y-9333484D01*
X307920Y-9333484D02*
X326967Y-9343008D01*
X326967Y-9343008D02*
X336491Y-9352531D01*
X336491Y-9352531D02*
X346015Y-9371579D01*
X346015Y-9371579D02*
X355539Y-9409674D01*
X355539Y-9409674D02*
X355539Y-9457293D01*
X355539Y-9457293D02*
X346015Y-9495389D01*
X346015Y-9495389D02*
X336491Y-9514436D01*
X336491Y-9514436D02*
X326967Y-9523960D01*
X326967Y-9523960D02*
X307920Y-9533484D01*
X307920Y-9533484D02*
X288872Y-9533484D01*
X288872Y-9533484D02*
X269824Y-9523960D01*
X269824Y-9523960D02*
X260301Y-9514436D01*
X260301Y-9514436D02*
X250777Y-9495389D01*
X250777Y-9495389D02*
X241253Y-9457293D01*
X241253Y-9457293D02*
X241253Y-9409674D01*
X241253Y-9409674D02*
X250777Y-9371579D01*
X250777Y-9371579D02*
X260301Y-9352531D01*
X260301Y-9352531D02*
X269824Y-9343008D01*
X269824Y-9343008D02*
X288872Y-9333484D01*
X441253Y-9514436D02*
X450777Y-9523960D01*
X450777Y-9523960D02*
X441253Y-9533484D01*
X441253Y-9533484D02*
X431729Y-9523960D01*
X431729Y-9523960D02*
X441253Y-9514436D01*
X441253Y-9514436D02*
X441253Y-9533484D01*
X631729Y-9333484D02*
X536491Y-9333484D01*
X536491Y-9333484D02*
X526967Y-9428722D01*
X526967Y-9428722D02*
X536491Y-9419198D01*
X536491Y-9419198D02*
X555539Y-9409674D01*
X555539Y-9409674D02*
X603158Y-9409674D01*
X603158Y-9409674D02*
X622205Y-9419198D01*
X622205Y-9419198D02*
X631729Y-9428722D01*
X631729Y-9428722D02*
X641253Y-9447770D01*
X641253Y-9447770D02*
X641253Y-9495389D01*
X641253Y-9495389D02*
X631729Y-9514436D01*
X631729Y-9514436D02*
X622205Y-9523960D01*
X622205Y-9523960D02*
X603158Y-9533484D01*
X603158Y-9533484D02*
X555539Y-9533484D01*
X555539Y-9533484D02*
X536491Y-9523960D01*
X536491Y-9523960D02*
X526967Y-9514436D01*
X765062Y-9333484D02*
X784110Y-9333484D01*
X784110Y-9333484D02*
X803158Y-9343008D01*
X803158Y-9343008D02*
X812682Y-9352531D01*
X812682Y-9352531D02*
X822205Y-9371579D01*
X822205Y-9371579D02*
X831729Y-9409674D01*
X831729Y-9409674D02*
X831729Y-9457293D01*
X831729Y-9457293D02*
X822205Y-9495389D01*
X822205Y-9495389D02*
X812682Y-9514436D01*
X812682Y-9514436D02*
X803158Y-9523960D01*
X803158Y-9523960D02*
X784110Y-9533484D01*
X784110Y-9533484D02*
X765062Y-9533484D01*
X765062Y-9533484D02*
X746015Y-9523960D01*
X746015Y-9523960D02*
X736491Y-9514436D01*
X736491Y-9514436D02*
X726967Y-9495389D01*
X726967Y-9495389D02*
X717443Y-9457293D01*
X717443Y-9457293D02*
X717443Y-9409674D01*
X717443Y-9409674D02*
X726967Y-9371579D01*
X726967Y-9371579D02*
X736491Y-9352531D01*
X736491Y-9352531D02*
X746015Y-9343008D01*
X746015Y-9343008D02*
X765062Y-9333484D01*
X955539Y-9333484D02*
X974586Y-9333484D01*
X974586Y-9333484D02*
X993634Y-9343008D01*
X993634Y-9343008D02*
X1003158Y-9352531D01*
X1003158Y-9352531D02*
X1012682Y-9371579D01*
X1012682Y-9371579D02*
X1022205Y-9409674D01*
X1022205Y-9409674D02*
X1022205Y-9457293D01*
X1022205Y-9457293D02*
X1012682Y-9495389D01*
X1012682Y-9495389D02*
X1003158Y-9514436D01*
X1003158Y-9514436D02*
X993634Y-9523960D01*
X993634Y-9523960D02*
X974586Y-9533484D01*
X974586Y-9533484D02*
X955539Y-9533484D01*
X955539Y-9533484D02*
X936491Y-9523960D01*
X936491Y-9523960D02*
X926967Y-9514436D01*
X926967Y-9514436D02*
X917443Y-9495389D01*
X917443Y-9495389D02*
X907920Y-9457293D01*
X907920Y-9457293D02*
X907920Y-9409674D01*
X907920Y-9409674D02*
X917443Y-9371579D01*
X917443Y-9371579D02*
X926967Y-9352531D01*
X926967Y-9352531D02*
X936491Y-9343008D01*
X936491Y-9343008D02*
X955539Y-9333484D01*
X1107920Y-9533484D02*
X1107920Y-9400150D01*
X1107920Y-9419198D02*
X1117444Y-9409674D01*
X1117444Y-9409674D02*
X1136491Y-9400150D01*
X1136491Y-9400150D02*
X1165063Y-9400150D01*
X1165063Y-9400150D02*
X1184110Y-9409674D01*
X1184110Y-9409674D02*
X1193634Y-9428722D01*
X1193634Y-9428722D02*
X1193634Y-9533484D01*
X1193634Y-9428722D02*
X1203158Y-9409674D01*
X1203158Y-9409674D02*
X1222205Y-9400150D01*
X1222205Y-9400150D02*
X1250777Y-9400150D01*
X1250777Y-9400150D02*
X1269825Y-9409674D01*
X1269825Y-9409674D02*
X1279348Y-9428722D01*
X1279348Y-9428722D02*
X1279348Y-9533484D01*
X1374586Y-9533484D02*
X1374586Y-9400150D01*
X1374586Y-9419198D02*
X1384110Y-9409674D01*
X1384110Y-9409674D02*
X1403158Y-9400150D01*
X1403158Y-9400150D02*
X1431729Y-9400150D01*
X1431729Y-9400150D02*
X1450777Y-9409674D01*
X1450777Y-9409674D02*
X1460301Y-9428722D01*
X1460301Y-9428722D02*
X1460301Y-9533484D01*
X1460301Y-9428722D02*
X1469824Y-9409674D01*
X1469824Y-9409674D02*
X1488872Y-9400150D01*
X1488872Y-9400150D02*
X1517443Y-9400150D01*
X1517443Y-9400150D02*
X1536491Y-9409674D01*
X1536491Y-9409674D02*
X1546015Y-9428722D01*
X1546015Y-9428722D02*
X1546015Y-9533484D01*
X1936491Y-9323960D02*
X1765063Y-9581103D01*
X2193634Y-9333484D02*
X2212682Y-9333484D01*
X2212682Y-9333484D02*
X2231729Y-9343008D01*
X2231729Y-9343008D02*
X2241253Y-9352531D01*
X2241253Y-9352531D02*
X2250777Y-9371579D01*
X2250777Y-9371579D02*
X2260301Y-9409674D01*
X2260301Y-9409674D02*
X2260301Y-9457293D01*
X2260301Y-9457293D02*
X2250777Y-9495389D01*
X2250777Y-9495389D02*
X2241253Y-9514436D01*
X2241253Y-9514436D02*
X2231729Y-9523960D01*
X2231729Y-9523960D02*
X2212682Y-9533484D01*
X2212682Y-9533484D02*
X2193634Y-9533484D01*
X2193634Y-9533484D02*
X2174587Y-9523960D01*
X2174587Y-9523960D02*
X2165063Y-9514436D01*
X2165063Y-9514436D02*
X2155539Y-9495389D01*
X2155539Y-9495389D02*
X2146015Y-9457293D01*
X2146015Y-9457293D02*
X2146015Y-9409674D01*
X2146015Y-9409674D02*
X2155539Y-9371579D01*
X2155539Y-9371579D02*
X2165063Y-9352531D01*
X2165063Y-9352531D02*
X2174587Y-9343008D01*
X2174587Y-9343008D02*
X2193634Y-9333484D01*
X2346015Y-9514436D02*
X2355539Y-9523960D01*
X2355539Y-9523960D02*
X2346015Y-9533484D01*
X2346015Y-9533484D02*
X2336491Y-9523960D01*
X2336491Y-9523960D02*
X2346015Y-9514436D01*
X2346015Y-9514436D02*
X2346015Y-9533484D01*
X2479348Y-9333484D02*
X2498396Y-9333484D01*
X2498396Y-9333484D02*
X2517444Y-9343008D01*
X2517444Y-9343008D02*
X2526968Y-9352531D01*
X2526968Y-9352531D02*
X2536491Y-9371579D01*
X2536491Y-9371579D02*
X2546015Y-9409674D01*
X2546015Y-9409674D02*
X2546015Y-9457293D01*
X2546015Y-9457293D02*
X2536491Y-9495389D01*
X2536491Y-9495389D02*
X2526968Y-9514436D01*
X2526968Y-9514436D02*
X2517444Y-9523960D01*
X2517444Y-9523960D02*
X2498396Y-9533484D01*
X2498396Y-9533484D02*
X2479348Y-9533484D01*
X2479348Y-9533484D02*
X2460301Y-9523960D01*
X2460301Y-9523960D02*
X2450777Y-9514436D01*
X2450777Y-9514436D02*
X2441253Y-9495389D01*
X2441253Y-9495389D02*
X2431729Y-9457293D01*
X2431729Y-9457293D02*
X2431729Y-9409674D01*
X2431729Y-9409674D02*
X2441253Y-9371579D01*
X2441253Y-9371579D02*
X2450777Y-9352531D01*
X2450777Y-9352531D02*
X2460301Y-9343008D01*
X2460301Y-9343008D02*
X2479348Y-9333484D01*
X2736491Y-9533484D02*
X2622206Y-9533484D01*
X2679348Y-9533484D02*
X2679348Y-9333484D01*
X2679348Y-9333484D02*
X2660301Y-9362055D01*
X2660301Y-9362055D02*
X2641253Y-9381103D01*
X2641253Y-9381103D02*
X2622206Y-9390627D01*
X2831729Y-9533484D02*
X2869825Y-9533484D01*
X2869825Y-9533484D02*
X2888872Y-9523960D01*
X2888872Y-9523960D02*
X2898396Y-9514436D01*
X2898396Y-9514436D02*
X2917444Y-9485865D01*
X2917444Y-9485865D02*
X2926967Y-9447770D01*
X2926967Y-9447770D02*
X2926967Y-9371579D01*
X2926967Y-9371579D02*
X2917444Y-9352531D01*
X2917444Y-9352531D02*
X2907920Y-9343008D01*
X2907920Y-9343008D02*
X2888872Y-9333484D01*
X2888872Y-9333484D02*
X2850777Y-9333484D01*
X2850777Y-9333484D02*
X2831729Y-9343008D01*
X2831729Y-9343008D02*
X2822206Y-9352531D01*
X2822206Y-9352531D02*
X2812682Y-9371579D01*
X2812682Y-9371579D02*
X2812682Y-9419198D01*
X2812682Y-9419198D02*
X2822206Y-9438246D01*
X2822206Y-9438246D02*
X2831729Y-9447770D01*
X2831729Y-9447770D02*
X2850777Y-9457293D01*
X2850777Y-9457293D02*
X2888872Y-9457293D01*
X2888872Y-9457293D02*
X2907920Y-9447770D01*
X2907920Y-9447770D02*
X2917444Y-9438246D01*
X2917444Y-9438246D02*
X2926967Y-9419198D01*
X2993634Y-9333484D02*
X3126967Y-9333484D01*
X3126967Y-9333484D02*
X3041253Y-9533484D01*
X3193634Y-9333484D02*
X3193634Y-9371579D01*
X3269825Y-9333484D02*
X3269825Y-9371579D01*
X3565063Y-9609674D02*
X3555539Y-9600150D01*
X3555539Y-9600150D02*
X3536491Y-9571579D01*
X3536491Y-9571579D02*
X3526968Y-9552531D01*
X3526968Y-9552531D02*
X3517444Y-9523960D01*
X3517444Y-9523960D02*
X3507920Y-9476341D01*
X3507920Y-9476341D02*
X3507920Y-9438246D01*
X3507920Y-9438246D02*
X3517444Y-9390627D01*
X3517444Y-9390627D02*
X3526968Y-9362055D01*
X3526968Y-9362055D02*
X3536491Y-9343008D01*
X3536491Y-9343008D02*
X3555539Y-9314436D01*
X3555539Y-9314436D02*
X3565063Y-9304912D01*
X3736491Y-9333484D02*
X3641253Y-9333484D01*
X3641253Y-9333484D02*
X3631729Y-9428722D01*
X3631729Y-9428722D02*
X3641253Y-9419198D01*
X3641253Y-9419198D02*
X3660301Y-9409674D01*
X3660301Y-9409674D02*
X3707920Y-9409674D01*
X3707920Y-9409674D02*
X3726968Y-9419198D01*
X3726968Y-9419198D02*
X3736491Y-9428722D01*
X3736491Y-9428722D02*
X3746015Y-9447770D01*
X3746015Y-9447770D02*
X3746015Y-9495389D01*
X3746015Y-9495389D02*
X3736491Y-9514436D01*
X3736491Y-9514436D02*
X3726968Y-9523960D01*
X3726968Y-9523960D02*
X3707920Y-9533484D01*
X3707920Y-9533484D02*
X3660301Y-9533484D01*
X3660301Y-9533484D02*
X3641253Y-9523960D01*
X3641253Y-9523960D02*
X3631729Y-9514436D01*
X3822206Y-9352531D02*
X3831729Y-9343008D01*
X3831729Y-9343008D02*
X3850777Y-9333484D01*
X3850777Y-9333484D02*
X3898396Y-9333484D01*
X3898396Y-9333484D02*
X3917444Y-9343008D01*
X3917444Y-9343008D02*
X3926968Y-9352531D01*
X3926968Y-9352531D02*
X3936491Y-9371579D01*
X3936491Y-9371579D02*
X3936491Y-9390627D01*
X3936491Y-9390627D02*
X3926968Y-9419198D01*
X3926968Y-9419198D02*
X3812682Y-9533484D01*
X3812682Y-9533484D02*
X3936491Y-9533484D01*
X4174587Y-9533484D02*
X4174587Y-9333484D01*
X4260301Y-9533484D02*
X4260301Y-9428722D01*
X4260301Y-9428722D02*
X4250777Y-9409674D01*
X4250777Y-9409674D02*
X4231730Y-9400150D01*
X4231730Y-9400150D02*
X4203158Y-9400150D01*
X4203158Y-9400150D02*
X4184110Y-9409674D01*
X4184110Y-9409674D02*
X4174587Y-9419198D01*
X4384111Y-9533484D02*
X4365063Y-9523960D01*
X4365063Y-9523960D02*
X4355539Y-9514436D01*
X4355539Y-9514436D02*
X4346015Y-9495389D01*
X4346015Y-9495389D02*
X4346015Y-9438246D01*
X4346015Y-9438246D02*
X4355539Y-9419198D01*
X4355539Y-9419198D02*
X4365063Y-9409674D01*
X4365063Y-9409674D02*
X4384111Y-9400150D01*
X4384111Y-9400150D02*
X4412682Y-9400150D01*
X4412682Y-9400150D02*
X4431730Y-9409674D01*
X4431730Y-9409674D02*
X4441253Y-9419198D01*
X4441253Y-9419198D02*
X4450777Y-9438246D01*
X4450777Y-9438246D02*
X4450777Y-9495389D01*
X4450777Y-9495389D02*
X4441253Y-9514436D01*
X4441253Y-9514436D02*
X4431730Y-9523960D01*
X4431730Y-9523960D02*
X4412682Y-9533484D01*
X4412682Y-9533484D02*
X4384111Y-9533484D01*
X4565063Y-9533484D02*
X4546015Y-9523960D01*
X4546015Y-9523960D02*
X4536492Y-9504912D01*
X4536492Y-9504912D02*
X4536492Y-9333484D01*
X4717444Y-9523960D02*
X4698396Y-9533484D01*
X4698396Y-9533484D02*
X4660301Y-9533484D01*
X4660301Y-9533484D02*
X4641253Y-9523960D01*
X4641253Y-9523960D02*
X4631730Y-9504912D01*
X4631730Y-9504912D02*
X4631730Y-9428722D01*
X4631730Y-9428722D02*
X4641253Y-9409674D01*
X4641253Y-9409674D02*
X4660301Y-9400150D01*
X4660301Y-9400150D02*
X4698396Y-9400150D01*
X4698396Y-9400150D02*
X4717444Y-9409674D01*
X4717444Y-9409674D02*
X4726968Y-9428722D01*
X4726968Y-9428722D02*
X4726968Y-9447770D01*
X4726968Y-9447770D02*
X4631730Y-9466817D01*
X4803158Y-9523960D02*
X4822206Y-9533484D01*
X4822206Y-9533484D02*
X4860301Y-9533484D01*
X4860301Y-9533484D02*
X4879349Y-9523960D01*
X4879349Y-9523960D02*
X4888873Y-9504912D01*
X4888873Y-9504912D02*
X4888873Y-9495389D01*
X4888873Y-9495389D02*
X4879349Y-9476341D01*
X4879349Y-9476341D02*
X4860301Y-9466817D01*
X4860301Y-9466817D02*
X4831730Y-9466817D01*
X4831730Y-9466817D02*
X4812682Y-9457293D01*
X4812682Y-9457293D02*
X4803158Y-9438246D01*
X4803158Y-9438246D02*
X4803158Y-9428722D01*
X4803158Y-9428722D02*
X4812682Y-9409674D01*
X4812682Y-9409674D02*
X4831730Y-9400150D01*
X4831730Y-9400150D02*
X4860301Y-9400150D01*
X4860301Y-9400150D02*
X4879349Y-9409674D01*
X4955539Y-9609674D02*
X4965063Y-9600150D01*
X4965063Y-9600150D02*
X4984111Y-9571579D01*
X4984111Y-9571579D02*
X4993634Y-9552531D01*
X4993634Y-9552531D02*
X5003158Y-9523960D01*
X5003158Y-9523960D02*
X5012682Y-9476341D01*
X5012682Y-9476341D02*
X5012682Y-9438246D01*
X5012682Y-9438246D02*
X5003158Y-9390627D01*
X5003158Y-9390627D02*
X4993634Y-9362055D01*
X4993634Y-9362055D02*
X4984111Y-9343008D01*
X4984111Y-9343008D02*
X4965063Y-9314436D01*
X4965063Y-9314436D02*
X4955539Y-9304912D01*
D12*
X-35001Y-9731001D02*
X-10000Y-9706000D01*
X-35001Y-9680999D01*
X-60002Y-9706000D01*
X-35001Y-9731001D01*
D10*
X288872Y-9597484D02*
X307920Y-9597484D01*
X307920Y-9597484D02*
X326967Y-9607008D01*
X326967Y-9607008D02*
X336491Y-9616531D01*
X336491Y-9616531D02*
X346015Y-9635579D01*
X346015Y-9635579D02*
X355539Y-9673674D01*
X355539Y-9673674D02*
X355539Y-9721293D01*
X355539Y-9721293D02*
X346015Y-9759389D01*
X346015Y-9759389D02*
X336491Y-9778436D01*
X336491Y-9778436D02*
X326967Y-9787960D01*
X326967Y-9787960D02*
X307920Y-9797484D01*
X307920Y-9797484D02*
X288872Y-9797484D01*
X288872Y-9797484D02*
X269824Y-9787960D01*
X269824Y-9787960D02*
X260301Y-9778436D01*
X260301Y-9778436D02*
X250777Y-9759389D01*
X250777Y-9759389D02*
X241253Y-9721293D01*
X241253Y-9721293D02*
X241253Y-9673674D01*
X241253Y-9673674D02*
X250777Y-9635579D01*
X250777Y-9635579D02*
X260301Y-9616531D01*
X260301Y-9616531D02*
X269824Y-9607008D01*
X269824Y-9607008D02*
X288872Y-9597484D01*
X441253Y-9778436D02*
X450777Y-9787960D01*
X450777Y-9787960D02*
X441253Y-9797484D01*
X441253Y-9797484D02*
X431729Y-9787960D01*
X431729Y-9787960D02*
X441253Y-9778436D01*
X441253Y-9778436D02*
X441253Y-9797484D01*
X631729Y-9597484D02*
X536491Y-9597484D01*
X536491Y-9597484D02*
X526967Y-9692722D01*
X526967Y-9692722D02*
X536491Y-9683198D01*
X536491Y-9683198D02*
X555539Y-9673674D01*
X555539Y-9673674D02*
X603158Y-9673674D01*
X603158Y-9673674D02*
X622205Y-9683198D01*
X622205Y-9683198D02*
X631729Y-9692722D01*
X631729Y-9692722D02*
X641253Y-9711770D01*
X641253Y-9711770D02*
X641253Y-9759389D01*
X641253Y-9759389D02*
X631729Y-9778436D01*
X631729Y-9778436D02*
X622205Y-9787960D01*
X622205Y-9787960D02*
X603158Y-9797484D01*
X603158Y-9797484D02*
X555539Y-9797484D01*
X555539Y-9797484D02*
X536491Y-9787960D01*
X536491Y-9787960D02*
X526967Y-9778436D01*
X765062Y-9597484D02*
X784110Y-9597484D01*
X784110Y-9597484D02*
X803158Y-9607008D01*
X803158Y-9607008D02*
X812682Y-9616531D01*
X812682Y-9616531D02*
X822205Y-9635579D01*
X822205Y-9635579D02*
X831729Y-9673674D01*
X831729Y-9673674D02*
X831729Y-9721293D01*
X831729Y-9721293D02*
X822205Y-9759389D01*
X822205Y-9759389D02*
X812682Y-9778436D01*
X812682Y-9778436D02*
X803158Y-9787960D01*
X803158Y-9787960D02*
X784110Y-9797484D01*
X784110Y-9797484D02*
X765062Y-9797484D01*
X765062Y-9797484D02*
X746015Y-9787960D01*
X746015Y-9787960D02*
X736491Y-9778436D01*
X736491Y-9778436D02*
X726967Y-9759389D01*
X726967Y-9759389D02*
X717443Y-9721293D01*
X717443Y-9721293D02*
X717443Y-9673674D01*
X717443Y-9673674D02*
X726967Y-9635579D01*
X726967Y-9635579D02*
X736491Y-9616531D01*
X736491Y-9616531D02*
X746015Y-9607008D01*
X746015Y-9607008D02*
X765062Y-9597484D01*
X955539Y-9597484D02*
X974586Y-9597484D01*
X974586Y-9597484D02*
X993634Y-9607008D01*
X993634Y-9607008D02*
X1003158Y-9616531D01*
X1003158Y-9616531D02*
X1012682Y-9635579D01*
X1012682Y-9635579D02*
X1022205Y-9673674D01*
X1022205Y-9673674D02*
X1022205Y-9721293D01*
X1022205Y-9721293D02*
X1012682Y-9759389D01*
X1012682Y-9759389D02*
X1003158Y-9778436D01*
X1003158Y-9778436D02*
X993634Y-9787960D01*
X993634Y-9787960D02*
X974586Y-9797484D01*
X974586Y-9797484D02*
X955539Y-9797484D01*
X955539Y-9797484D02*
X936491Y-9787960D01*
X936491Y-9787960D02*
X926967Y-9778436D01*
X926967Y-9778436D02*
X917443Y-9759389D01*
X917443Y-9759389D02*
X907920Y-9721293D01*
X907920Y-9721293D02*
X907920Y-9673674D01*
X907920Y-9673674D02*
X917443Y-9635579D01*
X917443Y-9635579D02*
X926967Y-9616531D01*
X926967Y-9616531D02*
X936491Y-9607008D01*
X936491Y-9607008D02*
X955539Y-9597484D01*
X1107920Y-9797484D02*
X1107920Y-9664150D01*
X1107920Y-9683198D02*
X1117444Y-9673674D01*
X1117444Y-9673674D02*
X1136491Y-9664150D01*
X1136491Y-9664150D02*
X1165063Y-9664150D01*
X1165063Y-9664150D02*
X1184110Y-9673674D01*
X1184110Y-9673674D02*
X1193634Y-9692722D01*
X1193634Y-9692722D02*
X1193634Y-9797484D01*
X1193634Y-9692722D02*
X1203158Y-9673674D01*
X1203158Y-9673674D02*
X1222205Y-9664150D01*
X1222205Y-9664150D02*
X1250777Y-9664150D01*
X1250777Y-9664150D02*
X1269825Y-9673674D01*
X1269825Y-9673674D02*
X1279348Y-9692722D01*
X1279348Y-9692722D02*
X1279348Y-9797484D01*
X1374586Y-9797484D02*
X1374586Y-9664150D01*
X1374586Y-9683198D02*
X1384110Y-9673674D01*
X1384110Y-9673674D02*
X1403158Y-9664150D01*
X1403158Y-9664150D02*
X1431729Y-9664150D01*
X1431729Y-9664150D02*
X1450777Y-9673674D01*
X1450777Y-9673674D02*
X1460301Y-9692722D01*
X1460301Y-9692722D02*
X1460301Y-9797484D01*
X1460301Y-9692722D02*
X1469824Y-9673674D01*
X1469824Y-9673674D02*
X1488872Y-9664150D01*
X1488872Y-9664150D02*
X1517443Y-9664150D01*
X1517443Y-9664150D02*
X1536491Y-9673674D01*
X1536491Y-9673674D02*
X1546015Y-9692722D01*
X1546015Y-9692722D02*
X1546015Y-9797484D01*
X1936491Y-9587960D02*
X1765063Y-9845103D01*
X2193634Y-9597484D02*
X2212682Y-9597484D01*
X2212682Y-9597484D02*
X2231729Y-9607008D01*
X2231729Y-9607008D02*
X2241253Y-9616531D01*
X2241253Y-9616531D02*
X2250777Y-9635579D01*
X2250777Y-9635579D02*
X2260301Y-9673674D01*
X2260301Y-9673674D02*
X2260301Y-9721293D01*
X2260301Y-9721293D02*
X2250777Y-9759389D01*
X2250777Y-9759389D02*
X2241253Y-9778436D01*
X2241253Y-9778436D02*
X2231729Y-9787960D01*
X2231729Y-9787960D02*
X2212682Y-9797484D01*
X2212682Y-9797484D02*
X2193634Y-9797484D01*
X2193634Y-9797484D02*
X2174587Y-9787960D01*
X2174587Y-9787960D02*
X2165063Y-9778436D01*
X2165063Y-9778436D02*
X2155539Y-9759389D01*
X2155539Y-9759389D02*
X2146015Y-9721293D01*
X2146015Y-9721293D02*
X2146015Y-9673674D01*
X2146015Y-9673674D02*
X2155539Y-9635579D01*
X2155539Y-9635579D02*
X2165063Y-9616531D01*
X2165063Y-9616531D02*
X2174587Y-9607008D01*
X2174587Y-9607008D02*
X2193634Y-9597484D01*
X2346015Y-9778436D02*
X2355539Y-9787960D01*
X2355539Y-9787960D02*
X2346015Y-9797484D01*
X2346015Y-9797484D02*
X2336491Y-9787960D01*
X2336491Y-9787960D02*
X2346015Y-9778436D01*
X2346015Y-9778436D02*
X2346015Y-9797484D01*
X2479348Y-9597484D02*
X2498396Y-9597484D01*
X2498396Y-9597484D02*
X2517444Y-9607008D01*
X2517444Y-9607008D02*
X2526968Y-9616531D01*
X2526968Y-9616531D02*
X2536491Y-9635579D01*
X2536491Y-9635579D02*
X2546015Y-9673674D01*
X2546015Y-9673674D02*
X2546015Y-9721293D01*
X2546015Y-9721293D02*
X2536491Y-9759389D01*
X2536491Y-9759389D02*
X2526968Y-9778436D01*
X2526968Y-9778436D02*
X2517444Y-9787960D01*
X2517444Y-9787960D02*
X2498396Y-9797484D01*
X2498396Y-9797484D02*
X2479348Y-9797484D01*
X2479348Y-9797484D02*
X2460301Y-9787960D01*
X2460301Y-9787960D02*
X2450777Y-9778436D01*
X2450777Y-9778436D02*
X2441253Y-9759389D01*
X2441253Y-9759389D02*
X2431729Y-9721293D01*
X2431729Y-9721293D02*
X2431729Y-9673674D01*
X2431729Y-9673674D02*
X2441253Y-9635579D01*
X2441253Y-9635579D02*
X2450777Y-9616531D01*
X2450777Y-9616531D02*
X2460301Y-9607008D01*
X2460301Y-9607008D02*
X2479348Y-9597484D01*
X2736491Y-9797484D02*
X2622206Y-9797484D01*
X2679348Y-9797484D02*
X2679348Y-9597484D01*
X2679348Y-9597484D02*
X2660301Y-9626055D01*
X2660301Y-9626055D02*
X2641253Y-9645103D01*
X2641253Y-9645103D02*
X2622206Y-9654627D01*
X2831729Y-9797484D02*
X2869825Y-9797484D01*
X2869825Y-9797484D02*
X2888872Y-9787960D01*
X2888872Y-9787960D02*
X2898396Y-9778436D01*
X2898396Y-9778436D02*
X2917444Y-9749865D01*
X2917444Y-9749865D02*
X2926967Y-9711770D01*
X2926967Y-9711770D02*
X2926967Y-9635579D01*
X2926967Y-9635579D02*
X2917444Y-9616531D01*
X2917444Y-9616531D02*
X2907920Y-9607008D01*
X2907920Y-9607008D02*
X2888872Y-9597484D01*
X2888872Y-9597484D02*
X2850777Y-9597484D01*
X2850777Y-9597484D02*
X2831729Y-9607008D01*
X2831729Y-9607008D02*
X2822206Y-9616531D01*
X2822206Y-9616531D02*
X2812682Y-9635579D01*
X2812682Y-9635579D02*
X2812682Y-9683198D01*
X2812682Y-9683198D02*
X2822206Y-9702246D01*
X2822206Y-9702246D02*
X2831729Y-9711770D01*
X2831729Y-9711770D02*
X2850777Y-9721293D01*
X2850777Y-9721293D02*
X2888872Y-9721293D01*
X2888872Y-9721293D02*
X2907920Y-9711770D01*
X2907920Y-9711770D02*
X2917444Y-9702246D01*
X2917444Y-9702246D02*
X2926967Y-9683198D01*
X2993634Y-9597484D02*
X3126967Y-9597484D01*
X3126967Y-9597484D02*
X3041253Y-9797484D01*
X3193634Y-9597484D02*
X3193634Y-9635579D01*
X3269825Y-9597484D02*
X3269825Y-9635579D01*
X3565063Y-9873674D02*
X3555539Y-9864150D01*
X3555539Y-9864150D02*
X3536491Y-9835579D01*
X3536491Y-9835579D02*
X3526968Y-9816531D01*
X3526968Y-9816531D02*
X3517444Y-9787960D01*
X3517444Y-9787960D02*
X3507920Y-9740341D01*
X3507920Y-9740341D02*
X3507920Y-9702246D01*
X3507920Y-9702246D02*
X3517444Y-9654627D01*
X3517444Y-9654627D02*
X3526968Y-9626055D01*
X3526968Y-9626055D02*
X3536491Y-9607008D01*
X3536491Y-9607008D02*
X3555539Y-9578436D01*
X3555539Y-9578436D02*
X3565063Y-9568912D01*
X3679348Y-9597484D02*
X3698396Y-9597484D01*
X3698396Y-9597484D02*
X3717444Y-9607008D01*
X3717444Y-9607008D02*
X3726968Y-9616531D01*
X3726968Y-9616531D02*
X3736491Y-9635579D01*
X3736491Y-9635579D02*
X3746015Y-9673674D01*
X3746015Y-9673674D02*
X3746015Y-9721293D01*
X3746015Y-9721293D02*
X3736491Y-9759389D01*
X3736491Y-9759389D02*
X3726968Y-9778436D01*
X3726968Y-9778436D02*
X3717444Y-9787960D01*
X3717444Y-9787960D02*
X3698396Y-9797484D01*
X3698396Y-9797484D02*
X3679348Y-9797484D01*
X3679348Y-9797484D02*
X3660301Y-9787960D01*
X3660301Y-9787960D02*
X3650777Y-9778436D01*
X3650777Y-9778436D02*
X3641253Y-9759389D01*
X3641253Y-9759389D02*
X3631729Y-9721293D01*
X3631729Y-9721293D02*
X3631729Y-9673674D01*
X3631729Y-9673674D02*
X3641253Y-9635579D01*
X3641253Y-9635579D02*
X3650777Y-9616531D01*
X3650777Y-9616531D02*
X3660301Y-9607008D01*
X3660301Y-9607008D02*
X3679348Y-9597484D01*
X3984110Y-9797484D02*
X3984110Y-9597484D01*
X4069825Y-9797484D02*
X4069825Y-9692722D01*
X4069825Y-9692722D02*
X4060301Y-9673674D01*
X4060301Y-9673674D02*
X4041253Y-9664150D01*
X4041253Y-9664150D02*
X4012682Y-9664150D01*
X4012682Y-9664150D02*
X3993634Y-9673674D01*
X3993634Y-9673674D02*
X3984110Y-9683198D01*
X4193634Y-9797484D02*
X4174587Y-9787960D01*
X4174587Y-9787960D02*
X4165063Y-9778436D01*
X4165063Y-9778436D02*
X4155539Y-9759389D01*
X4155539Y-9759389D02*
X4155539Y-9702246D01*
X4155539Y-9702246D02*
X4165063Y-9683198D01*
X4165063Y-9683198D02*
X4174587Y-9673674D01*
X4174587Y-9673674D02*
X4193634Y-9664150D01*
X4193634Y-9664150D02*
X4222206Y-9664150D01*
X4222206Y-9664150D02*
X4241253Y-9673674D01*
X4241253Y-9673674D02*
X4250777Y-9683198D01*
X4250777Y-9683198D02*
X4260301Y-9702246D01*
X4260301Y-9702246D02*
X4260301Y-9759389D01*
X4260301Y-9759389D02*
X4250777Y-9778436D01*
X4250777Y-9778436D02*
X4241253Y-9787960D01*
X4241253Y-9787960D02*
X4222206Y-9797484D01*
X4222206Y-9797484D02*
X4193634Y-9797484D01*
X4374587Y-9797484D02*
X4355539Y-9787960D01*
X4355539Y-9787960D02*
X4346015Y-9768912D01*
X4346015Y-9768912D02*
X4346015Y-9597484D01*
X4526968Y-9787960D02*
X4507920Y-9797484D01*
X4507920Y-9797484D02*
X4469825Y-9797484D01*
X4469825Y-9797484D02*
X4450777Y-9787960D01*
X4450777Y-9787960D02*
X4441253Y-9768912D01*
X4441253Y-9768912D02*
X4441253Y-9692722D01*
X4441253Y-9692722D02*
X4450777Y-9673674D01*
X4450777Y-9673674D02*
X4469825Y-9664150D01*
X4469825Y-9664150D02*
X4507920Y-9664150D01*
X4507920Y-9664150D02*
X4526968Y-9673674D01*
X4526968Y-9673674D02*
X4536492Y-9692722D01*
X4536492Y-9692722D02*
X4536492Y-9711770D01*
X4536492Y-9711770D02*
X4441253Y-9730817D01*
X4612682Y-9787960D02*
X4631730Y-9797484D01*
X4631730Y-9797484D02*
X4669825Y-9797484D01*
X4669825Y-9797484D02*
X4688873Y-9787960D01*
X4688873Y-9787960D02*
X4698396Y-9768912D01*
X4698396Y-9768912D02*
X4698396Y-9759389D01*
X4698396Y-9759389D02*
X4688873Y-9740341D01*
X4688873Y-9740341D02*
X4669825Y-9730817D01*
X4669825Y-9730817D02*
X4641253Y-9730817D01*
X4641253Y-9730817D02*
X4622206Y-9721293D01*
X4622206Y-9721293D02*
X4612682Y-9702246D01*
X4612682Y-9702246D02*
X4612682Y-9692722D01*
X4612682Y-9692722D02*
X4622206Y-9673674D01*
X4622206Y-9673674D02*
X4641253Y-9664150D01*
X4641253Y-9664150D02*
X4669825Y-9664150D01*
X4669825Y-9664150D02*
X4688873Y-9673674D01*
X4936492Y-9721293D02*
X5088873Y-9721293D01*
X5012682Y-9797484D02*
X5012682Y-9645103D01*
X5422206Y-9664150D02*
X5422206Y-9797484D01*
X5374587Y-9587960D02*
X5326968Y-9730817D01*
X5326968Y-9730817D02*
X5450777Y-9730817D01*
X5669825Y-9787960D02*
X5688873Y-9797484D01*
X5688873Y-9797484D02*
X5726968Y-9797484D01*
X5726968Y-9797484D02*
X5746015Y-9787960D01*
X5746015Y-9787960D02*
X5755539Y-9768912D01*
X5755539Y-9768912D02*
X5755539Y-9759389D01*
X5755539Y-9759389D02*
X5746015Y-9740341D01*
X5746015Y-9740341D02*
X5726968Y-9730817D01*
X5726968Y-9730817D02*
X5698396Y-9730817D01*
X5698396Y-9730817D02*
X5679349Y-9721293D01*
X5679349Y-9721293D02*
X5669825Y-9702246D01*
X5669825Y-9702246D02*
X5669825Y-9692722D01*
X5669825Y-9692722D02*
X5679349Y-9673674D01*
X5679349Y-9673674D02*
X5698396Y-9664150D01*
X5698396Y-9664150D02*
X5726968Y-9664150D01*
X5726968Y-9664150D02*
X5746015Y-9673674D01*
X5869825Y-9797484D02*
X5850777Y-9787960D01*
X5850777Y-9787960D02*
X5841254Y-9768912D01*
X5841254Y-9768912D02*
X5841254Y-9597484D01*
X5974587Y-9797484D02*
X5955539Y-9787960D01*
X5955539Y-9787960D02*
X5946015Y-9778436D01*
X5946015Y-9778436D02*
X5936492Y-9759389D01*
X5936492Y-9759389D02*
X5936492Y-9702246D01*
X5936492Y-9702246D02*
X5946015Y-9683198D01*
X5946015Y-9683198D02*
X5955539Y-9673674D01*
X5955539Y-9673674D02*
X5974587Y-9664150D01*
X5974587Y-9664150D02*
X6003158Y-9664150D01*
X6003158Y-9664150D02*
X6022206Y-9673674D01*
X6022206Y-9673674D02*
X6031730Y-9683198D01*
X6031730Y-9683198D02*
X6041254Y-9702246D01*
X6041254Y-9702246D02*
X6041254Y-9759389D01*
X6041254Y-9759389D02*
X6031730Y-9778436D01*
X6031730Y-9778436D02*
X6022206Y-9787960D01*
X6022206Y-9787960D02*
X6003158Y-9797484D01*
X6003158Y-9797484D02*
X5974587Y-9797484D01*
X6098396Y-9664150D02*
X6174587Y-9664150D01*
X6126968Y-9597484D02*
X6126968Y-9768912D01*
X6126968Y-9768912D02*
X6136492Y-9787960D01*
X6136492Y-9787960D02*
X6155539Y-9797484D01*
X6155539Y-9797484D02*
X6174587Y-9797484D01*
X6231730Y-9787960D02*
X6250777Y-9797484D01*
X6250777Y-9797484D02*
X6288873Y-9797484D01*
X6288873Y-9797484D02*
X6307920Y-9787960D01*
X6307920Y-9787960D02*
X6317444Y-9768912D01*
X6317444Y-9768912D02*
X6317444Y-9759389D01*
X6317444Y-9759389D02*
X6307920Y-9740341D01*
X6307920Y-9740341D02*
X6288873Y-9730817D01*
X6288873Y-9730817D02*
X6260301Y-9730817D01*
X6260301Y-9730817D02*
X6241254Y-9721293D01*
X6241254Y-9721293D02*
X6231730Y-9702246D01*
X6231730Y-9702246D02*
X6231730Y-9692722D01*
X6231730Y-9692722D02*
X6241254Y-9673674D01*
X6241254Y-9673674D02*
X6260301Y-9664150D01*
X6260301Y-9664150D02*
X6288873Y-9664150D01*
X6288873Y-9664150D02*
X6307920Y-9673674D01*
X6384111Y-9873674D02*
X6393635Y-9864150D01*
X6393635Y-9864150D02*
X6412682Y-9835579D01*
X6412682Y-9835579D02*
X6422206Y-9816531D01*
X6422206Y-9816531D02*
X6431730Y-9787960D01*
X6431730Y-9787960D02*
X6441254Y-9740341D01*
X6441254Y-9740341D02*
X6441254Y-9702246D01*
X6441254Y-9702246D02*
X6431730Y-9654627D01*
X6431730Y-9654627D02*
X6422206Y-9626055D01*
X6422206Y-9626055D02*
X6412682Y-9607008D01*
X6412682Y-9607008D02*
X6393635Y-9578436D01*
X6393635Y-9578436D02*
X6384111Y-9568912D01*
D12*
X-70000Y-9940000D02*
X-10000Y-10000000D01*
X-10000Y-9940000D02*
X-70000Y-10000000D01*
X-10000Y-9970000D02*
G75*
G02*
X-70000Y-9970000I-30000J0D01*
G01*
X-70000Y-9970000D02*
G75*
G02*
X-10000Y-9970000I30000J0D01*
G01*
D10*
X288872Y-9861484D02*
X307920Y-9861484D01*
X307920Y-9861484D02*
X326967Y-9871008D01*
X326967Y-9871008D02*
X336491Y-9880531D01*
X336491Y-9880531D02*
X346015Y-9899579D01*
X346015Y-9899579D02*
X355539Y-9937674D01*
X355539Y-9937674D02*
X355539Y-9985293D01*
X355539Y-9985293D02*
X346015Y-10023389D01*
X346015Y-10023389D02*
X336491Y-10042436D01*
X336491Y-10042436D02*
X326967Y-10051960D01*
X326967Y-10051960D02*
X307920Y-10061484D01*
X307920Y-10061484D02*
X288872Y-10061484D01*
X288872Y-10061484D02*
X269824Y-10051960D01*
X269824Y-10051960D02*
X260301Y-10042436D01*
X260301Y-10042436D02*
X250777Y-10023389D01*
X250777Y-10023389D02*
X241253Y-9985293D01*
X241253Y-9985293D02*
X241253Y-9937674D01*
X241253Y-9937674D02*
X250777Y-9899579D01*
X250777Y-9899579D02*
X260301Y-9880531D01*
X260301Y-9880531D02*
X269824Y-9871008D01*
X269824Y-9871008D02*
X288872Y-9861484D01*
X441253Y-10042436D02*
X450777Y-10051960D01*
X450777Y-10051960D02*
X441253Y-10061484D01*
X441253Y-10061484D02*
X431729Y-10051960D01*
X431729Y-10051960D02*
X441253Y-10042436D01*
X441253Y-10042436D02*
X441253Y-10061484D01*
X622205Y-9861484D02*
X584110Y-9861484D01*
X584110Y-9861484D02*
X565063Y-9871008D01*
X565063Y-9871008D02*
X555539Y-9880531D01*
X555539Y-9880531D02*
X536491Y-9909103D01*
X536491Y-9909103D02*
X526967Y-9947198D01*
X526967Y-9947198D02*
X526967Y-10023389D01*
X526967Y-10023389D02*
X536491Y-10042436D01*
X536491Y-10042436D02*
X546015Y-10051960D01*
X546015Y-10051960D02*
X565063Y-10061484D01*
X565063Y-10061484D02*
X603158Y-10061484D01*
X603158Y-10061484D02*
X622205Y-10051960D01*
X622205Y-10051960D02*
X631729Y-10042436D01*
X631729Y-10042436D02*
X641253Y-10023389D01*
X641253Y-10023389D02*
X641253Y-9975770D01*
X641253Y-9975770D02*
X631729Y-9956722D01*
X631729Y-9956722D02*
X622205Y-9947198D01*
X622205Y-9947198D02*
X603158Y-9937674D01*
X603158Y-9937674D02*
X565063Y-9937674D01*
X565063Y-9937674D02*
X546015Y-9947198D01*
X546015Y-9947198D02*
X536491Y-9956722D01*
X536491Y-9956722D02*
X526967Y-9975770D01*
X765062Y-9861484D02*
X784110Y-9861484D01*
X784110Y-9861484D02*
X803158Y-9871008D01*
X803158Y-9871008D02*
X812682Y-9880531D01*
X812682Y-9880531D02*
X822205Y-9899579D01*
X822205Y-9899579D02*
X831729Y-9937674D01*
X831729Y-9937674D02*
X831729Y-9985293D01*
X831729Y-9985293D02*
X822205Y-10023389D01*
X822205Y-10023389D02*
X812682Y-10042436D01*
X812682Y-10042436D02*
X803158Y-10051960D01*
X803158Y-10051960D02*
X784110Y-10061484D01*
X784110Y-10061484D02*
X765062Y-10061484D01*
X765062Y-10061484D02*
X746015Y-10051960D01*
X746015Y-10051960D02*
X736491Y-10042436D01*
X736491Y-10042436D02*
X726967Y-10023389D01*
X726967Y-10023389D02*
X717443Y-9985293D01*
X717443Y-9985293D02*
X717443Y-9937674D01*
X717443Y-9937674D02*
X726967Y-9899579D01*
X726967Y-9899579D02*
X736491Y-9880531D01*
X736491Y-9880531D02*
X746015Y-9871008D01*
X746015Y-9871008D02*
X765062Y-9861484D01*
X955539Y-9861484D02*
X974586Y-9861484D01*
X974586Y-9861484D02*
X993634Y-9871008D01*
X993634Y-9871008D02*
X1003158Y-9880531D01*
X1003158Y-9880531D02*
X1012682Y-9899579D01*
X1012682Y-9899579D02*
X1022205Y-9937674D01*
X1022205Y-9937674D02*
X1022205Y-9985293D01*
X1022205Y-9985293D02*
X1012682Y-10023389D01*
X1012682Y-10023389D02*
X1003158Y-10042436D01*
X1003158Y-10042436D02*
X993634Y-10051960D01*
X993634Y-10051960D02*
X974586Y-10061484D01*
X974586Y-10061484D02*
X955539Y-10061484D01*
X955539Y-10061484D02*
X936491Y-10051960D01*
X936491Y-10051960D02*
X926967Y-10042436D01*
X926967Y-10042436D02*
X917443Y-10023389D01*
X917443Y-10023389D02*
X907920Y-9985293D01*
X907920Y-9985293D02*
X907920Y-9937674D01*
X907920Y-9937674D02*
X917443Y-9899579D01*
X917443Y-9899579D02*
X926967Y-9880531D01*
X926967Y-9880531D02*
X936491Y-9871008D01*
X936491Y-9871008D02*
X955539Y-9861484D01*
X1107920Y-10061484D02*
X1107920Y-9928150D01*
X1107920Y-9947198D02*
X1117444Y-9937674D01*
X1117444Y-9937674D02*
X1136491Y-9928150D01*
X1136491Y-9928150D02*
X1165063Y-9928150D01*
X1165063Y-9928150D02*
X1184110Y-9937674D01*
X1184110Y-9937674D02*
X1193634Y-9956722D01*
X1193634Y-9956722D02*
X1193634Y-10061484D01*
X1193634Y-9956722D02*
X1203158Y-9937674D01*
X1203158Y-9937674D02*
X1222205Y-9928150D01*
X1222205Y-9928150D02*
X1250777Y-9928150D01*
X1250777Y-9928150D02*
X1269825Y-9937674D01*
X1269825Y-9937674D02*
X1279348Y-9956722D01*
X1279348Y-9956722D02*
X1279348Y-10061484D01*
X1374586Y-10061484D02*
X1374586Y-9928150D01*
X1374586Y-9947198D02*
X1384110Y-9937674D01*
X1384110Y-9937674D02*
X1403158Y-9928150D01*
X1403158Y-9928150D02*
X1431729Y-9928150D01*
X1431729Y-9928150D02*
X1450777Y-9937674D01*
X1450777Y-9937674D02*
X1460301Y-9956722D01*
X1460301Y-9956722D02*
X1460301Y-10061484D01*
X1460301Y-9956722D02*
X1469824Y-9937674D01*
X1469824Y-9937674D02*
X1488872Y-9928150D01*
X1488872Y-9928150D02*
X1517443Y-9928150D01*
X1517443Y-9928150D02*
X1536491Y-9937674D01*
X1536491Y-9937674D02*
X1546015Y-9956722D01*
X1546015Y-9956722D02*
X1546015Y-10061484D01*
X1936491Y-9851960D02*
X1765063Y-10109103D01*
X2193634Y-9861484D02*
X2212682Y-9861484D01*
X2212682Y-9861484D02*
X2231729Y-9871008D01*
X2231729Y-9871008D02*
X2241253Y-9880531D01*
X2241253Y-9880531D02*
X2250777Y-9899579D01*
X2250777Y-9899579D02*
X2260301Y-9937674D01*
X2260301Y-9937674D02*
X2260301Y-9985293D01*
X2260301Y-9985293D02*
X2250777Y-10023389D01*
X2250777Y-10023389D02*
X2241253Y-10042436D01*
X2241253Y-10042436D02*
X2231729Y-10051960D01*
X2231729Y-10051960D02*
X2212682Y-10061484D01*
X2212682Y-10061484D02*
X2193634Y-10061484D01*
X2193634Y-10061484D02*
X2174587Y-10051960D01*
X2174587Y-10051960D02*
X2165063Y-10042436D01*
X2165063Y-10042436D02*
X2155539Y-10023389D01*
X2155539Y-10023389D02*
X2146015Y-9985293D01*
X2146015Y-9985293D02*
X2146015Y-9937674D01*
X2146015Y-9937674D02*
X2155539Y-9899579D01*
X2155539Y-9899579D02*
X2165063Y-9880531D01*
X2165063Y-9880531D02*
X2174587Y-9871008D01*
X2174587Y-9871008D02*
X2193634Y-9861484D01*
X2346015Y-10042436D02*
X2355539Y-10051960D01*
X2355539Y-10051960D02*
X2346015Y-10061484D01*
X2346015Y-10061484D02*
X2336491Y-10051960D01*
X2336491Y-10051960D02*
X2346015Y-10042436D01*
X2346015Y-10042436D02*
X2346015Y-10061484D01*
X2479348Y-9861484D02*
X2498396Y-9861484D01*
X2498396Y-9861484D02*
X2517444Y-9871008D01*
X2517444Y-9871008D02*
X2526968Y-9880531D01*
X2526968Y-9880531D02*
X2536491Y-9899579D01*
X2536491Y-9899579D02*
X2546015Y-9937674D01*
X2546015Y-9937674D02*
X2546015Y-9985293D01*
X2546015Y-9985293D02*
X2536491Y-10023389D01*
X2536491Y-10023389D02*
X2526968Y-10042436D01*
X2526968Y-10042436D02*
X2517444Y-10051960D01*
X2517444Y-10051960D02*
X2498396Y-10061484D01*
X2498396Y-10061484D02*
X2479348Y-10061484D01*
X2479348Y-10061484D02*
X2460301Y-10051960D01*
X2460301Y-10051960D02*
X2450777Y-10042436D01*
X2450777Y-10042436D02*
X2441253Y-10023389D01*
X2441253Y-10023389D02*
X2431729Y-9985293D01*
X2431729Y-9985293D02*
X2431729Y-9937674D01*
X2431729Y-9937674D02*
X2441253Y-9899579D01*
X2441253Y-9899579D02*
X2450777Y-9880531D01*
X2450777Y-9880531D02*
X2460301Y-9871008D01*
X2460301Y-9871008D02*
X2479348Y-9861484D01*
X2622206Y-9880531D02*
X2631729Y-9871008D01*
X2631729Y-9871008D02*
X2650777Y-9861484D01*
X2650777Y-9861484D02*
X2698396Y-9861484D01*
X2698396Y-9861484D02*
X2717444Y-9871008D01*
X2717444Y-9871008D02*
X2726968Y-9880531D01*
X2726968Y-9880531D02*
X2736491Y-9899579D01*
X2736491Y-9899579D02*
X2736491Y-9918627D01*
X2736491Y-9918627D02*
X2726968Y-9947198D01*
X2726968Y-9947198D02*
X2612682Y-10061484D01*
X2612682Y-10061484D02*
X2736491Y-10061484D01*
X2803158Y-9861484D02*
X2926967Y-9861484D01*
X2926967Y-9861484D02*
X2860301Y-9937674D01*
X2860301Y-9937674D02*
X2888872Y-9937674D01*
X2888872Y-9937674D02*
X2907920Y-9947198D01*
X2907920Y-9947198D02*
X2917444Y-9956722D01*
X2917444Y-9956722D02*
X2926967Y-9975770D01*
X2926967Y-9975770D02*
X2926967Y-10023389D01*
X2926967Y-10023389D02*
X2917444Y-10042436D01*
X2917444Y-10042436D02*
X2907920Y-10051960D01*
X2907920Y-10051960D02*
X2888872Y-10061484D01*
X2888872Y-10061484D02*
X2831729Y-10061484D01*
X2831729Y-10061484D02*
X2812682Y-10051960D01*
X2812682Y-10051960D02*
X2803158Y-10042436D01*
X3098396Y-9861484D02*
X3060301Y-9861484D01*
X3060301Y-9861484D02*
X3041253Y-9871008D01*
X3041253Y-9871008D02*
X3031729Y-9880531D01*
X3031729Y-9880531D02*
X3012682Y-9909103D01*
X3012682Y-9909103D02*
X3003158Y-9947198D01*
X3003158Y-9947198D02*
X3003158Y-10023389D01*
X3003158Y-10023389D02*
X3012682Y-10042436D01*
X3012682Y-10042436D02*
X3022206Y-10051960D01*
X3022206Y-10051960D02*
X3041253Y-10061484D01*
X3041253Y-10061484D02*
X3079348Y-10061484D01*
X3079348Y-10061484D02*
X3098396Y-10051960D01*
X3098396Y-10051960D02*
X3107920Y-10042436D01*
X3107920Y-10042436D02*
X3117444Y-10023389D01*
X3117444Y-10023389D02*
X3117444Y-9975770D01*
X3117444Y-9975770D02*
X3107920Y-9956722D01*
X3107920Y-9956722D02*
X3098396Y-9947198D01*
X3098396Y-9947198D02*
X3079348Y-9937674D01*
X3079348Y-9937674D02*
X3041253Y-9937674D01*
X3041253Y-9937674D02*
X3022206Y-9947198D01*
X3022206Y-9947198D02*
X3012682Y-9956722D01*
X3012682Y-9956722D02*
X3003158Y-9975770D01*
X3193634Y-9861484D02*
X3193634Y-9899579D01*
X3269825Y-9861484D02*
X3269825Y-9899579D01*
X3565063Y-10137674D02*
X3555539Y-10128150D01*
X3555539Y-10128150D02*
X3536491Y-10099579D01*
X3536491Y-10099579D02*
X3526968Y-10080531D01*
X3526968Y-10080531D02*
X3517444Y-10051960D01*
X3517444Y-10051960D02*
X3507920Y-10004341D01*
X3507920Y-10004341D02*
X3507920Y-9966246D01*
X3507920Y-9966246D02*
X3517444Y-9918627D01*
X3517444Y-9918627D02*
X3526968Y-9890055D01*
X3526968Y-9890055D02*
X3536491Y-9871008D01*
X3536491Y-9871008D02*
X3555539Y-9842436D01*
X3555539Y-9842436D02*
X3565063Y-9832912D01*
X3631729Y-9880531D02*
X3641253Y-9871008D01*
X3641253Y-9871008D02*
X3660301Y-9861484D01*
X3660301Y-9861484D02*
X3707920Y-9861484D01*
X3707920Y-9861484D02*
X3726968Y-9871008D01*
X3726968Y-9871008D02*
X3736491Y-9880531D01*
X3736491Y-9880531D02*
X3746015Y-9899579D01*
X3746015Y-9899579D02*
X3746015Y-9918627D01*
X3746015Y-9918627D02*
X3736491Y-9947198D01*
X3736491Y-9947198D02*
X3622206Y-10061484D01*
X3622206Y-10061484D02*
X3746015Y-10061484D01*
X3984110Y-10061484D02*
X3984110Y-9861484D01*
X4069825Y-10061484D02*
X4069825Y-9956722D01*
X4069825Y-9956722D02*
X4060301Y-9937674D01*
X4060301Y-9937674D02*
X4041253Y-9928150D01*
X4041253Y-9928150D02*
X4012682Y-9928150D01*
X4012682Y-9928150D02*
X3993634Y-9937674D01*
X3993634Y-9937674D02*
X3984110Y-9947198D01*
X4193634Y-10061484D02*
X4174587Y-10051960D01*
X4174587Y-10051960D02*
X4165063Y-10042436D01*
X4165063Y-10042436D02*
X4155539Y-10023389D01*
X4155539Y-10023389D02*
X4155539Y-9966246D01*
X4155539Y-9966246D02*
X4165063Y-9947198D01*
X4165063Y-9947198D02*
X4174587Y-9937674D01*
X4174587Y-9937674D02*
X4193634Y-9928150D01*
X4193634Y-9928150D02*
X4222206Y-9928150D01*
X4222206Y-9928150D02*
X4241253Y-9937674D01*
X4241253Y-9937674D02*
X4250777Y-9947198D01*
X4250777Y-9947198D02*
X4260301Y-9966246D01*
X4260301Y-9966246D02*
X4260301Y-10023389D01*
X4260301Y-10023389D02*
X4250777Y-10042436D01*
X4250777Y-10042436D02*
X4241253Y-10051960D01*
X4241253Y-10051960D02*
X4222206Y-10061484D01*
X4222206Y-10061484D02*
X4193634Y-10061484D01*
X4374587Y-10061484D02*
X4355539Y-10051960D01*
X4355539Y-10051960D02*
X4346015Y-10032912D01*
X4346015Y-10032912D02*
X4346015Y-9861484D01*
X4526968Y-10051960D02*
X4507920Y-10061484D01*
X4507920Y-10061484D02*
X4469825Y-10061484D01*
X4469825Y-10061484D02*
X4450777Y-10051960D01*
X4450777Y-10051960D02*
X4441253Y-10032912D01*
X4441253Y-10032912D02*
X4441253Y-9956722D01*
X4441253Y-9956722D02*
X4450777Y-9937674D01*
X4450777Y-9937674D02*
X4469825Y-9928150D01*
X4469825Y-9928150D02*
X4507920Y-9928150D01*
X4507920Y-9928150D02*
X4526968Y-9937674D01*
X4526968Y-9937674D02*
X4536492Y-9956722D01*
X4536492Y-9956722D02*
X4536492Y-9975770D01*
X4536492Y-9975770D02*
X4441253Y-9994817D01*
X4612682Y-10051960D02*
X4631730Y-10061484D01*
X4631730Y-10061484D02*
X4669825Y-10061484D01*
X4669825Y-10061484D02*
X4688873Y-10051960D01*
X4688873Y-10051960D02*
X4698396Y-10032912D01*
X4698396Y-10032912D02*
X4698396Y-10023389D01*
X4698396Y-10023389D02*
X4688873Y-10004341D01*
X4688873Y-10004341D02*
X4669825Y-9994817D01*
X4669825Y-9994817D02*
X4641253Y-9994817D01*
X4641253Y-9994817D02*
X4622206Y-9985293D01*
X4622206Y-9985293D02*
X4612682Y-9966246D01*
X4612682Y-9966246D02*
X4612682Y-9956722D01*
X4612682Y-9956722D02*
X4622206Y-9937674D01*
X4622206Y-9937674D02*
X4641253Y-9928150D01*
X4641253Y-9928150D02*
X4669825Y-9928150D01*
X4669825Y-9928150D02*
X4688873Y-9937674D01*
X4765063Y-10137674D02*
X4774587Y-10128150D01*
X4774587Y-10128150D02*
X4793634Y-10099579D01*
X4793634Y-10099579D02*
X4803158Y-10080531D01*
X4803158Y-10080531D02*
X4812682Y-10051960D01*
X4812682Y-10051960D02*
X4822206Y-10004341D01*
X4822206Y-10004341D02*
X4822206Y-9966246D01*
X4822206Y-9966246D02*
X4812682Y-9918627D01*
X4812682Y-9918627D02*
X4803158Y-9890055D01*
X4803158Y-9890055D02*
X4793634Y-9871008D01*
X4793634Y-9871008D02*
X4774587Y-9842436D01*
X4774587Y-9842436D02*
X4765063Y-9832912D01*
D12*
X-90000Y-10194000D02*
X-10000Y-10274000D01*
X-10000Y-10194000D02*
X-90000Y-10274000D01*
X-50000Y-10194000D02*
X-50000Y-10274000D01*
X-90000Y-10234000D02*
X-10000Y-10234000D01*
D10*
X288872Y-10125484D02*
X307920Y-10125484D01*
X307920Y-10125484D02*
X326967Y-10135008D01*
X326967Y-10135008D02*
X336491Y-10144531D01*
X336491Y-10144531D02*
X346015Y-10163579D01*
X346015Y-10163579D02*
X355539Y-10201674D01*
X355539Y-10201674D02*
X355539Y-10249293D01*
X355539Y-10249293D02*
X346015Y-10287389D01*
X346015Y-10287389D02*
X336491Y-10306436D01*
X336491Y-10306436D02*
X326967Y-10315960D01*
X326967Y-10315960D02*
X307920Y-10325484D01*
X307920Y-10325484D02*
X288872Y-10325484D01*
X288872Y-10325484D02*
X269824Y-10315960D01*
X269824Y-10315960D02*
X260301Y-10306436D01*
X260301Y-10306436D02*
X250777Y-10287389D01*
X250777Y-10287389D02*
X241253Y-10249293D01*
X241253Y-10249293D02*
X241253Y-10201674D01*
X241253Y-10201674D02*
X250777Y-10163579D01*
X250777Y-10163579D02*
X260301Y-10144531D01*
X260301Y-10144531D02*
X269824Y-10135008D01*
X269824Y-10135008D02*
X288872Y-10125484D01*
X441253Y-10306436D02*
X450777Y-10315960D01*
X450777Y-10315960D02*
X441253Y-10325484D01*
X441253Y-10325484D02*
X431729Y-10315960D01*
X431729Y-10315960D02*
X441253Y-10306436D01*
X441253Y-10306436D02*
X441253Y-10325484D01*
X565063Y-10211198D02*
X546015Y-10201674D01*
X546015Y-10201674D02*
X536491Y-10192150D01*
X536491Y-10192150D02*
X526967Y-10173103D01*
X526967Y-10173103D02*
X526967Y-10163579D01*
X526967Y-10163579D02*
X536491Y-10144531D01*
X536491Y-10144531D02*
X546015Y-10135008D01*
X546015Y-10135008D02*
X565063Y-10125484D01*
X565063Y-10125484D02*
X603158Y-10125484D01*
X603158Y-10125484D02*
X622205Y-10135008D01*
X622205Y-10135008D02*
X631729Y-10144531D01*
X631729Y-10144531D02*
X641253Y-10163579D01*
X641253Y-10163579D02*
X641253Y-10173103D01*
X641253Y-10173103D02*
X631729Y-10192150D01*
X631729Y-10192150D02*
X622205Y-10201674D01*
X622205Y-10201674D02*
X603158Y-10211198D01*
X603158Y-10211198D02*
X565063Y-10211198D01*
X565063Y-10211198D02*
X546015Y-10220722D01*
X546015Y-10220722D02*
X536491Y-10230246D01*
X536491Y-10230246D02*
X526967Y-10249293D01*
X526967Y-10249293D02*
X526967Y-10287389D01*
X526967Y-10287389D02*
X536491Y-10306436D01*
X536491Y-10306436D02*
X546015Y-10315960D01*
X546015Y-10315960D02*
X565063Y-10325484D01*
X565063Y-10325484D02*
X603158Y-10325484D01*
X603158Y-10325484D02*
X622205Y-10315960D01*
X622205Y-10315960D02*
X631729Y-10306436D01*
X631729Y-10306436D02*
X641253Y-10287389D01*
X641253Y-10287389D02*
X641253Y-10249293D01*
X641253Y-10249293D02*
X631729Y-10230246D01*
X631729Y-10230246D02*
X622205Y-10220722D01*
X622205Y-10220722D02*
X603158Y-10211198D01*
X765062Y-10125484D02*
X784110Y-10125484D01*
X784110Y-10125484D02*
X803158Y-10135008D01*
X803158Y-10135008D02*
X812682Y-10144531D01*
X812682Y-10144531D02*
X822205Y-10163579D01*
X822205Y-10163579D02*
X831729Y-10201674D01*
X831729Y-10201674D02*
X831729Y-10249293D01*
X831729Y-10249293D02*
X822205Y-10287389D01*
X822205Y-10287389D02*
X812682Y-10306436D01*
X812682Y-10306436D02*
X803158Y-10315960D01*
X803158Y-10315960D02*
X784110Y-10325484D01*
X784110Y-10325484D02*
X765062Y-10325484D01*
X765062Y-10325484D02*
X746015Y-10315960D01*
X746015Y-10315960D02*
X736491Y-10306436D01*
X736491Y-10306436D02*
X726967Y-10287389D01*
X726967Y-10287389D02*
X717443Y-10249293D01*
X717443Y-10249293D02*
X717443Y-10201674D01*
X717443Y-10201674D02*
X726967Y-10163579D01*
X726967Y-10163579D02*
X736491Y-10144531D01*
X736491Y-10144531D02*
X746015Y-10135008D01*
X746015Y-10135008D02*
X765062Y-10125484D01*
X955539Y-10125484D02*
X974586Y-10125484D01*
X974586Y-10125484D02*
X993634Y-10135008D01*
X993634Y-10135008D02*
X1003158Y-10144531D01*
X1003158Y-10144531D02*
X1012682Y-10163579D01*
X1012682Y-10163579D02*
X1022205Y-10201674D01*
X1022205Y-10201674D02*
X1022205Y-10249293D01*
X1022205Y-10249293D02*
X1012682Y-10287389D01*
X1012682Y-10287389D02*
X1003158Y-10306436D01*
X1003158Y-10306436D02*
X993634Y-10315960D01*
X993634Y-10315960D02*
X974586Y-10325484D01*
X974586Y-10325484D02*
X955539Y-10325484D01*
X955539Y-10325484D02*
X936491Y-10315960D01*
X936491Y-10315960D02*
X926967Y-10306436D01*
X926967Y-10306436D02*
X917443Y-10287389D01*
X917443Y-10287389D02*
X907920Y-10249293D01*
X907920Y-10249293D02*
X907920Y-10201674D01*
X907920Y-10201674D02*
X917443Y-10163579D01*
X917443Y-10163579D02*
X926967Y-10144531D01*
X926967Y-10144531D02*
X936491Y-10135008D01*
X936491Y-10135008D02*
X955539Y-10125484D01*
X1107920Y-10325484D02*
X1107920Y-10192150D01*
X1107920Y-10211198D02*
X1117444Y-10201674D01*
X1117444Y-10201674D02*
X1136491Y-10192150D01*
X1136491Y-10192150D02*
X1165063Y-10192150D01*
X1165063Y-10192150D02*
X1184110Y-10201674D01*
X1184110Y-10201674D02*
X1193634Y-10220722D01*
X1193634Y-10220722D02*
X1193634Y-10325484D01*
X1193634Y-10220722D02*
X1203158Y-10201674D01*
X1203158Y-10201674D02*
X1222205Y-10192150D01*
X1222205Y-10192150D02*
X1250777Y-10192150D01*
X1250777Y-10192150D02*
X1269825Y-10201674D01*
X1269825Y-10201674D02*
X1279348Y-10220722D01*
X1279348Y-10220722D02*
X1279348Y-10325484D01*
X1374586Y-10325484D02*
X1374586Y-10192150D01*
X1374586Y-10211198D02*
X1384110Y-10201674D01*
X1384110Y-10201674D02*
X1403158Y-10192150D01*
X1403158Y-10192150D02*
X1431729Y-10192150D01*
X1431729Y-10192150D02*
X1450777Y-10201674D01*
X1450777Y-10201674D02*
X1460301Y-10220722D01*
X1460301Y-10220722D02*
X1460301Y-10325484D01*
X1460301Y-10220722D02*
X1469824Y-10201674D01*
X1469824Y-10201674D02*
X1488872Y-10192150D01*
X1488872Y-10192150D02*
X1517443Y-10192150D01*
X1517443Y-10192150D02*
X1536491Y-10201674D01*
X1536491Y-10201674D02*
X1546015Y-10220722D01*
X1546015Y-10220722D02*
X1546015Y-10325484D01*
X1936491Y-10115960D02*
X1765063Y-10373103D01*
X2193634Y-10125484D02*
X2212682Y-10125484D01*
X2212682Y-10125484D02*
X2231729Y-10135008D01*
X2231729Y-10135008D02*
X2241253Y-10144531D01*
X2241253Y-10144531D02*
X2250777Y-10163579D01*
X2250777Y-10163579D02*
X2260301Y-10201674D01*
X2260301Y-10201674D02*
X2260301Y-10249293D01*
X2260301Y-10249293D02*
X2250777Y-10287389D01*
X2250777Y-10287389D02*
X2241253Y-10306436D01*
X2241253Y-10306436D02*
X2231729Y-10315960D01*
X2231729Y-10315960D02*
X2212682Y-10325484D01*
X2212682Y-10325484D02*
X2193634Y-10325484D01*
X2193634Y-10325484D02*
X2174587Y-10315960D01*
X2174587Y-10315960D02*
X2165063Y-10306436D01*
X2165063Y-10306436D02*
X2155539Y-10287389D01*
X2155539Y-10287389D02*
X2146015Y-10249293D01*
X2146015Y-10249293D02*
X2146015Y-10201674D01*
X2146015Y-10201674D02*
X2155539Y-10163579D01*
X2155539Y-10163579D02*
X2165063Y-10144531D01*
X2165063Y-10144531D02*
X2174587Y-10135008D01*
X2174587Y-10135008D02*
X2193634Y-10125484D01*
X2346015Y-10306436D02*
X2355539Y-10315960D01*
X2355539Y-10315960D02*
X2346015Y-10325484D01*
X2346015Y-10325484D02*
X2336491Y-10315960D01*
X2336491Y-10315960D02*
X2346015Y-10306436D01*
X2346015Y-10306436D02*
X2346015Y-10325484D01*
X2479348Y-10125484D02*
X2498396Y-10125484D01*
X2498396Y-10125484D02*
X2517444Y-10135008D01*
X2517444Y-10135008D02*
X2526968Y-10144531D01*
X2526968Y-10144531D02*
X2536491Y-10163579D01*
X2536491Y-10163579D02*
X2546015Y-10201674D01*
X2546015Y-10201674D02*
X2546015Y-10249293D01*
X2546015Y-10249293D02*
X2536491Y-10287389D01*
X2536491Y-10287389D02*
X2526968Y-10306436D01*
X2526968Y-10306436D02*
X2517444Y-10315960D01*
X2517444Y-10315960D02*
X2498396Y-10325484D01*
X2498396Y-10325484D02*
X2479348Y-10325484D01*
X2479348Y-10325484D02*
X2460301Y-10315960D01*
X2460301Y-10315960D02*
X2450777Y-10306436D01*
X2450777Y-10306436D02*
X2441253Y-10287389D01*
X2441253Y-10287389D02*
X2431729Y-10249293D01*
X2431729Y-10249293D02*
X2431729Y-10201674D01*
X2431729Y-10201674D02*
X2441253Y-10163579D01*
X2441253Y-10163579D02*
X2450777Y-10144531D01*
X2450777Y-10144531D02*
X2460301Y-10135008D01*
X2460301Y-10135008D02*
X2479348Y-10125484D01*
X2612682Y-10125484D02*
X2736491Y-10125484D01*
X2736491Y-10125484D02*
X2669825Y-10201674D01*
X2669825Y-10201674D02*
X2698396Y-10201674D01*
X2698396Y-10201674D02*
X2717444Y-10211198D01*
X2717444Y-10211198D02*
X2726968Y-10220722D01*
X2726968Y-10220722D02*
X2736491Y-10239770D01*
X2736491Y-10239770D02*
X2736491Y-10287389D01*
X2736491Y-10287389D02*
X2726968Y-10306436D01*
X2726968Y-10306436D02*
X2717444Y-10315960D01*
X2717444Y-10315960D02*
X2698396Y-10325484D01*
X2698396Y-10325484D02*
X2641253Y-10325484D01*
X2641253Y-10325484D02*
X2622206Y-10315960D01*
X2622206Y-10315960D02*
X2612682Y-10306436D01*
X2926967Y-10325484D02*
X2812682Y-10325484D01*
X2869825Y-10325484D02*
X2869825Y-10125484D01*
X2869825Y-10125484D02*
X2850777Y-10154055D01*
X2850777Y-10154055D02*
X2831729Y-10173103D01*
X2831729Y-10173103D02*
X2812682Y-10182627D01*
X3107920Y-10125484D02*
X3012682Y-10125484D01*
X3012682Y-10125484D02*
X3003158Y-10220722D01*
X3003158Y-10220722D02*
X3012682Y-10211198D01*
X3012682Y-10211198D02*
X3031729Y-10201674D01*
X3031729Y-10201674D02*
X3079348Y-10201674D01*
X3079348Y-10201674D02*
X3098396Y-10211198D01*
X3098396Y-10211198D02*
X3107920Y-10220722D01*
X3107920Y-10220722D02*
X3117444Y-10239770D01*
X3117444Y-10239770D02*
X3117444Y-10287389D01*
X3117444Y-10287389D02*
X3107920Y-10306436D01*
X3107920Y-10306436D02*
X3098396Y-10315960D01*
X3098396Y-10315960D02*
X3079348Y-10325484D01*
X3079348Y-10325484D02*
X3031729Y-10325484D01*
X3031729Y-10325484D02*
X3012682Y-10315960D01*
X3012682Y-10315960D02*
X3003158Y-10306436D01*
X3193634Y-10125484D02*
X3193634Y-10163579D01*
X3269825Y-10125484D02*
X3269825Y-10163579D01*
X3565063Y-10401674D02*
X3555539Y-10392150D01*
X3555539Y-10392150D02*
X3536491Y-10363579D01*
X3536491Y-10363579D02*
X3526968Y-10344531D01*
X3526968Y-10344531D02*
X3517444Y-10315960D01*
X3517444Y-10315960D02*
X3507920Y-10268341D01*
X3507920Y-10268341D02*
X3507920Y-10230246D01*
X3507920Y-10230246D02*
X3517444Y-10182627D01*
X3517444Y-10182627D02*
X3526968Y-10154055D01*
X3526968Y-10154055D02*
X3536491Y-10135008D01*
X3536491Y-10135008D02*
X3555539Y-10106436D01*
X3555539Y-10106436D02*
X3565063Y-10096912D01*
X3679348Y-10125484D02*
X3698396Y-10125484D01*
X3698396Y-10125484D02*
X3717444Y-10135008D01*
X3717444Y-10135008D02*
X3726968Y-10144531D01*
X3726968Y-10144531D02*
X3736491Y-10163579D01*
X3736491Y-10163579D02*
X3746015Y-10201674D01*
X3746015Y-10201674D02*
X3746015Y-10249293D01*
X3746015Y-10249293D02*
X3736491Y-10287389D01*
X3736491Y-10287389D02*
X3726968Y-10306436D01*
X3726968Y-10306436D02*
X3717444Y-10315960D01*
X3717444Y-10315960D02*
X3698396Y-10325484D01*
X3698396Y-10325484D02*
X3679348Y-10325484D01*
X3679348Y-10325484D02*
X3660301Y-10315960D01*
X3660301Y-10315960D02*
X3650777Y-10306436D01*
X3650777Y-10306436D02*
X3641253Y-10287389D01*
X3641253Y-10287389D02*
X3631729Y-10249293D01*
X3631729Y-10249293D02*
X3631729Y-10201674D01*
X3631729Y-10201674D02*
X3641253Y-10163579D01*
X3641253Y-10163579D02*
X3650777Y-10144531D01*
X3650777Y-10144531D02*
X3660301Y-10135008D01*
X3660301Y-10135008D02*
X3679348Y-10125484D01*
X3984110Y-10325484D02*
X3984110Y-10125484D01*
X4069825Y-10325484D02*
X4069825Y-10220722D01*
X4069825Y-10220722D02*
X4060301Y-10201674D01*
X4060301Y-10201674D02*
X4041253Y-10192150D01*
X4041253Y-10192150D02*
X4012682Y-10192150D01*
X4012682Y-10192150D02*
X3993634Y-10201674D01*
X3993634Y-10201674D02*
X3984110Y-10211198D01*
X4193634Y-10325484D02*
X4174587Y-10315960D01*
X4174587Y-10315960D02*
X4165063Y-10306436D01*
X4165063Y-10306436D02*
X4155539Y-10287389D01*
X4155539Y-10287389D02*
X4155539Y-10230246D01*
X4155539Y-10230246D02*
X4165063Y-10211198D01*
X4165063Y-10211198D02*
X4174587Y-10201674D01*
X4174587Y-10201674D02*
X4193634Y-10192150D01*
X4193634Y-10192150D02*
X4222206Y-10192150D01*
X4222206Y-10192150D02*
X4241253Y-10201674D01*
X4241253Y-10201674D02*
X4250777Y-10211198D01*
X4250777Y-10211198D02*
X4260301Y-10230246D01*
X4260301Y-10230246D02*
X4260301Y-10287389D01*
X4260301Y-10287389D02*
X4250777Y-10306436D01*
X4250777Y-10306436D02*
X4241253Y-10315960D01*
X4241253Y-10315960D02*
X4222206Y-10325484D01*
X4222206Y-10325484D02*
X4193634Y-10325484D01*
X4374587Y-10325484D02*
X4355539Y-10315960D01*
X4355539Y-10315960D02*
X4346015Y-10296912D01*
X4346015Y-10296912D02*
X4346015Y-10125484D01*
X4526968Y-10315960D02*
X4507920Y-10325484D01*
X4507920Y-10325484D02*
X4469825Y-10325484D01*
X4469825Y-10325484D02*
X4450777Y-10315960D01*
X4450777Y-10315960D02*
X4441253Y-10296912D01*
X4441253Y-10296912D02*
X4441253Y-10220722D01*
X4441253Y-10220722D02*
X4450777Y-10201674D01*
X4450777Y-10201674D02*
X4469825Y-10192150D01*
X4469825Y-10192150D02*
X4507920Y-10192150D01*
X4507920Y-10192150D02*
X4526968Y-10201674D01*
X4526968Y-10201674D02*
X4536492Y-10220722D01*
X4536492Y-10220722D02*
X4536492Y-10239770D01*
X4536492Y-10239770D02*
X4441253Y-10258817D01*
X4612682Y-10315960D02*
X4631730Y-10325484D01*
X4631730Y-10325484D02*
X4669825Y-10325484D01*
X4669825Y-10325484D02*
X4688873Y-10315960D01*
X4688873Y-10315960D02*
X4698396Y-10296912D01*
X4698396Y-10296912D02*
X4698396Y-10287389D01*
X4698396Y-10287389D02*
X4688873Y-10268341D01*
X4688873Y-10268341D02*
X4669825Y-10258817D01*
X4669825Y-10258817D02*
X4641253Y-10258817D01*
X4641253Y-10258817D02*
X4622206Y-10249293D01*
X4622206Y-10249293D02*
X4612682Y-10230246D01*
X4612682Y-10230246D02*
X4612682Y-10220722D01*
X4612682Y-10220722D02*
X4622206Y-10201674D01*
X4622206Y-10201674D02*
X4641253Y-10192150D01*
X4641253Y-10192150D02*
X4669825Y-10192150D01*
X4669825Y-10192150D02*
X4688873Y-10201674D01*
X4936492Y-10249293D02*
X5088873Y-10249293D01*
X5012682Y-10325484D02*
X5012682Y-10173103D01*
X5422206Y-10192150D02*
X5422206Y-10325484D01*
X5374587Y-10115960D02*
X5326968Y-10258817D01*
X5326968Y-10258817D02*
X5450777Y-10258817D01*
X5669825Y-10315960D02*
X5688873Y-10325484D01*
X5688873Y-10325484D02*
X5726968Y-10325484D01*
X5726968Y-10325484D02*
X5746015Y-10315960D01*
X5746015Y-10315960D02*
X5755539Y-10296912D01*
X5755539Y-10296912D02*
X5755539Y-10287389D01*
X5755539Y-10287389D02*
X5746015Y-10268341D01*
X5746015Y-10268341D02*
X5726968Y-10258817D01*
X5726968Y-10258817D02*
X5698396Y-10258817D01*
X5698396Y-10258817D02*
X5679349Y-10249293D01*
X5679349Y-10249293D02*
X5669825Y-10230246D01*
X5669825Y-10230246D02*
X5669825Y-10220722D01*
X5669825Y-10220722D02*
X5679349Y-10201674D01*
X5679349Y-10201674D02*
X5698396Y-10192150D01*
X5698396Y-10192150D02*
X5726968Y-10192150D01*
X5726968Y-10192150D02*
X5746015Y-10201674D01*
X5869825Y-10325484D02*
X5850777Y-10315960D01*
X5850777Y-10315960D02*
X5841254Y-10296912D01*
X5841254Y-10296912D02*
X5841254Y-10125484D01*
X5974587Y-10325484D02*
X5955539Y-10315960D01*
X5955539Y-10315960D02*
X5946015Y-10306436D01*
X5946015Y-10306436D02*
X5936492Y-10287389D01*
X5936492Y-10287389D02*
X5936492Y-10230246D01*
X5936492Y-10230246D02*
X5946015Y-10211198D01*
X5946015Y-10211198D02*
X5955539Y-10201674D01*
X5955539Y-10201674D02*
X5974587Y-10192150D01*
X5974587Y-10192150D02*
X6003158Y-10192150D01*
X6003158Y-10192150D02*
X6022206Y-10201674D01*
X6022206Y-10201674D02*
X6031730Y-10211198D01*
X6031730Y-10211198D02*
X6041254Y-10230246D01*
X6041254Y-10230246D02*
X6041254Y-10287389D01*
X6041254Y-10287389D02*
X6031730Y-10306436D01*
X6031730Y-10306436D02*
X6022206Y-10315960D01*
X6022206Y-10315960D02*
X6003158Y-10325484D01*
X6003158Y-10325484D02*
X5974587Y-10325484D01*
X6098396Y-10192150D02*
X6174587Y-10192150D01*
X6126968Y-10125484D02*
X6126968Y-10296912D01*
X6126968Y-10296912D02*
X6136492Y-10315960D01*
X6136492Y-10315960D02*
X6155539Y-10325484D01*
X6155539Y-10325484D02*
X6174587Y-10325484D01*
X6231730Y-10315960D02*
X6250777Y-10325484D01*
X6250777Y-10325484D02*
X6288873Y-10325484D01*
X6288873Y-10325484D02*
X6307920Y-10315960D01*
X6307920Y-10315960D02*
X6317444Y-10296912D01*
X6317444Y-10296912D02*
X6317444Y-10287389D01*
X6317444Y-10287389D02*
X6307920Y-10268341D01*
X6307920Y-10268341D02*
X6288873Y-10258817D01*
X6288873Y-10258817D02*
X6260301Y-10258817D01*
X6260301Y-10258817D02*
X6241254Y-10249293D01*
X6241254Y-10249293D02*
X6231730Y-10230246D01*
X6231730Y-10230246D02*
X6231730Y-10220722D01*
X6231730Y-10220722D02*
X6241254Y-10201674D01*
X6241254Y-10201674D02*
X6260301Y-10192150D01*
X6260301Y-10192150D02*
X6288873Y-10192150D01*
X6288873Y-10192150D02*
X6307920Y-10201674D01*
X6384111Y-10401674D02*
X6393635Y-10392150D01*
X6393635Y-10392150D02*
X6412682Y-10363579D01*
X6412682Y-10363579D02*
X6422206Y-10344531D01*
X6422206Y-10344531D02*
X6431730Y-10315960D01*
X6431730Y-10315960D02*
X6441254Y-10268341D01*
X6441254Y-10268341D02*
X6441254Y-10230246D01*
X6441254Y-10230246D02*
X6431730Y-10182627D01*
X6431730Y-10182627D02*
X6422206Y-10154055D01*
X6422206Y-10154055D02*
X6412682Y-10135008D01*
X6412682Y-10135008D02*
X6393635Y-10106436D01*
X6393635Y-10106436D02*
X6384111Y-10096912D01*
D12*
X-110000Y-10448000D02*
X-10000Y-10548000D01*
X-10000Y-10448000D02*
X-110000Y-10548000D01*
X-24644Y-10533356D02*
X-24644Y-10462644D01*
X-95355Y-10462644D01*
X-95355Y-10533356D01*
X-24644Y-10533356D01*
D10*
X355539Y-10589484D02*
X241253Y-10589484D01*
X298396Y-10589484D02*
X298396Y-10389484D01*
X298396Y-10389484D02*
X279348Y-10418055D01*
X279348Y-10418055D02*
X260301Y-10437103D01*
X260301Y-10437103D02*
X241253Y-10446627D01*
X441253Y-10570436D02*
X450777Y-10579960D01*
X450777Y-10579960D02*
X441253Y-10589484D01*
X441253Y-10589484D02*
X431729Y-10579960D01*
X431729Y-10579960D02*
X441253Y-10570436D01*
X441253Y-10570436D02*
X441253Y-10589484D01*
X574586Y-10389484D02*
X593634Y-10389484D01*
X593634Y-10389484D02*
X612682Y-10399008D01*
X612682Y-10399008D02*
X622205Y-10408531D01*
X622205Y-10408531D02*
X631729Y-10427579D01*
X631729Y-10427579D02*
X641253Y-10465674D01*
X641253Y-10465674D02*
X641253Y-10513293D01*
X641253Y-10513293D02*
X631729Y-10551389D01*
X631729Y-10551389D02*
X622205Y-10570436D01*
X622205Y-10570436D02*
X612682Y-10579960D01*
X612682Y-10579960D02*
X593634Y-10589484D01*
X593634Y-10589484D02*
X574586Y-10589484D01*
X574586Y-10589484D02*
X555539Y-10579960D01*
X555539Y-10579960D02*
X546015Y-10570436D01*
X546015Y-10570436D02*
X536491Y-10551389D01*
X536491Y-10551389D02*
X526967Y-10513293D01*
X526967Y-10513293D02*
X526967Y-10465674D01*
X526967Y-10465674D02*
X536491Y-10427579D01*
X536491Y-10427579D02*
X546015Y-10408531D01*
X546015Y-10408531D02*
X555539Y-10399008D01*
X555539Y-10399008D02*
X574586Y-10389484D01*
X765062Y-10389484D02*
X784110Y-10389484D01*
X784110Y-10389484D02*
X803158Y-10399008D01*
X803158Y-10399008D02*
X812682Y-10408531D01*
X812682Y-10408531D02*
X822205Y-10427579D01*
X822205Y-10427579D02*
X831729Y-10465674D01*
X831729Y-10465674D02*
X831729Y-10513293D01*
X831729Y-10513293D02*
X822205Y-10551389D01*
X822205Y-10551389D02*
X812682Y-10570436D01*
X812682Y-10570436D02*
X803158Y-10579960D01*
X803158Y-10579960D02*
X784110Y-10589484D01*
X784110Y-10589484D02*
X765062Y-10589484D01*
X765062Y-10589484D02*
X746015Y-10579960D01*
X746015Y-10579960D02*
X736491Y-10570436D01*
X736491Y-10570436D02*
X726967Y-10551389D01*
X726967Y-10551389D02*
X717443Y-10513293D01*
X717443Y-10513293D02*
X717443Y-10465674D01*
X717443Y-10465674D02*
X726967Y-10427579D01*
X726967Y-10427579D02*
X736491Y-10408531D01*
X736491Y-10408531D02*
X746015Y-10399008D01*
X746015Y-10399008D02*
X765062Y-10389484D01*
X955539Y-10389484D02*
X974586Y-10389484D01*
X974586Y-10389484D02*
X993634Y-10399008D01*
X993634Y-10399008D02*
X1003158Y-10408531D01*
X1003158Y-10408531D02*
X1012682Y-10427579D01*
X1012682Y-10427579D02*
X1022205Y-10465674D01*
X1022205Y-10465674D02*
X1022205Y-10513293D01*
X1022205Y-10513293D02*
X1012682Y-10551389D01*
X1012682Y-10551389D02*
X1003158Y-10570436D01*
X1003158Y-10570436D02*
X993634Y-10579960D01*
X993634Y-10579960D02*
X974586Y-10589484D01*
X974586Y-10589484D02*
X955539Y-10589484D01*
X955539Y-10589484D02*
X936491Y-10579960D01*
X936491Y-10579960D02*
X926967Y-10570436D01*
X926967Y-10570436D02*
X917443Y-10551389D01*
X917443Y-10551389D02*
X907920Y-10513293D01*
X907920Y-10513293D02*
X907920Y-10465674D01*
X907920Y-10465674D02*
X917443Y-10427579D01*
X917443Y-10427579D02*
X926967Y-10408531D01*
X926967Y-10408531D02*
X936491Y-10399008D01*
X936491Y-10399008D02*
X955539Y-10389484D01*
X1107920Y-10589484D02*
X1107920Y-10456150D01*
X1107920Y-10475198D02*
X1117444Y-10465674D01*
X1117444Y-10465674D02*
X1136491Y-10456150D01*
X1136491Y-10456150D02*
X1165063Y-10456150D01*
X1165063Y-10456150D02*
X1184110Y-10465674D01*
X1184110Y-10465674D02*
X1193634Y-10484722D01*
X1193634Y-10484722D02*
X1193634Y-10589484D01*
X1193634Y-10484722D02*
X1203158Y-10465674D01*
X1203158Y-10465674D02*
X1222205Y-10456150D01*
X1222205Y-10456150D02*
X1250777Y-10456150D01*
X1250777Y-10456150D02*
X1269825Y-10465674D01*
X1269825Y-10465674D02*
X1279348Y-10484722D01*
X1279348Y-10484722D02*
X1279348Y-10589484D01*
X1374586Y-10589484D02*
X1374586Y-10456150D01*
X1374586Y-10475198D02*
X1384110Y-10465674D01*
X1384110Y-10465674D02*
X1403158Y-10456150D01*
X1403158Y-10456150D02*
X1431729Y-10456150D01*
X1431729Y-10456150D02*
X1450777Y-10465674D01*
X1450777Y-10465674D02*
X1460301Y-10484722D01*
X1460301Y-10484722D02*
X1460301Y-10589484D01*
X1460301Y-10484722D02*
X1469824Y-10465674D01*
X1469824Y-10465674D02*
X1488872Y-10456150D01*
X1488872Y-10456150D02*
X1517443Y-10456150D01*
X1517443Y-10456150D02*
X1536491Y-10465674D01*
X1536491Y-10465674D02*
X1546015Y-10484722D01*
X1546015Y-10484722D02*
X1546015Y-10589484D01*
X1936491Y-10379960D02*
X1765063Y-10637103D01*
X2193634Y-10389484D02*
X2212682Y-10389484D01*
X2212682Y-10389484D02*
X2231729Y-10399008D01*
X2231729Y-10399008D02*
X2241253Y-10408531D01*
X2241253Y-10408531D02*
X2250777Y-10427579D01*
X2250777Y-10427579D02*
X2260301Y-10465674D01*
X2260301Y-10465674D02*
X2260301Y-10513293D01*
X2260301Y-10513293D02*
X2250777Y-10551389D01*
X2250777Y-10551389D02*
X2241253Y-10570436D01*
X2241253Y-10570436D02*
X2231729Y-10579960D01*
X2231729Y-10579960D02*
X2212682Y-10589484D01*
X2212682Y-10589484D02*
X2193634Y-10589484D01*
X2193634Y-10589484D02*
X2174587Y-10579960D01*
X2174587Y-10579960D02*
X2165063Y-10570436D01*
X2165063Y-10570436D02*
X2155539Y-10551389D01*
X2155539Y-10551389D02*
X2146015Y-10513293D01*
X2146015Y-10513293D02*
X2146015Y-10465674D01*
X2146015Y-10465674D02*
X2155539Y-10427579D01*
X2155539Y-10427579D02*
X2165063Y-10408531D01*
X2165063Y-10408531D02*
X2174587Y-10399008D01*
X2174587Y-10399008D02*
X2193634Y-10389484D01*
X2346015Y-10570436D02*
X2355539Y-10579960D01*
X2355539Y-10579960D02*
X2346015Y-10589484D01*
X2346015Y-10589484D02*
X2336491Y-10579960D01*
X2336491Y-10579960D02*
X2346015Y-10570436D01*
X2346015Y-10570436D02*
X2346015Y-10589484D01*
X2479348Y-10389484D02*
X2498396Y-10389484D01*
X2498396Y-10389484D02*
X2517444Y-10399008D01*
X2517444Y-10399008D02*
X2526968Y-10408531D01*
X2526968Y-10408531D02*
X2536491Y-10427579D01*
X2536491Y-10427579D02*
X2546015Y-10465674D01*
X2546015Y-10465674D02*
X2546015Y-10513293D01*
X2546015Y-10513293D02*
X2536491Y-10551389D01*
X2536491Y-10551389D02*
X2526968Y-10570436D01*
X2526968Y-10570436D02*
X2517444Y-10579960D01*
X2517444Y-10579960D02*
X2498396Y-10589484D01*
X2498396Y-10589484D02*
X2479348Y-10589484D01*
X2479348Y-10589484D02*
X2460301Y-10579960D01*
X2460301Y-10579960D02*
X2450777Y-10570436D01*
X2450777Y-10570436D02*
X2441253Y-10551389D01*
X2441253Y-10551389D02*
X2431729Y-10513293D01*
X2431729Y-10513293D02*
X2431729Y-10465674D01*
X2431729Y-10465674D02*
X2441253Y-10427579D01*
X2441253Y-10427579D02*
X2450777Y-10408531D01*
X2450777Y-10408531D02*
X2460301Y-10399008D01*
X2460301Y-10399008D02*
X2479348Y-10389484D01*
X2612682Y-10389484D02*
X2736491Y-10389484D01*
X2736491Y-10389484D02*
X2669825Y-10465674D01*
X2669825Y-10465674D02*
X2698396Y-10465674D01*
X2698396Y-10465674D02*
X2717444Y-10475198D01*
X2717444Y-10475198D02*
X2726968Y-10484722D01*
X2726968Y-10484722D02*
X2736491Y-10503770D01*
X2736491Y-10503770D02*
X2736491Y-10551389D01*
X2736491Y-10551389D02*
X2726968Y-10570436D01*
X2726968Y-10570436D02*
X2717444Y-10579960D01*
X2717444Y-10579960D02*
X2698396Y-10589484D01*
X2698396Y-10589484D02*
X2641253Y-10589484D01*
X2641253Y-10589484D02*
X2622206Y-10579960D01*
X2622206Y-10579960D02*
X2612682Y-10570436D01*
X2831729Y-10589484D02*
X2869825Y-10589484D01*
X2869825Y-10589484D02*
X2888872Y-10579960D01*
X2888872Y-10579960D02*
X2898396Y-10570436D01*
X2898396Y-10570436D02*
X2917444Y-10541865D01*
X2917444Y-10541865D02*
X2926967Y-10503770D01*
X2926967Y-10503770D02*
X2926967Y-10427579D01*
X2926967Y-10427579D02*
X2917444Y-10408531D01*
X2917444Y-10408531D02*
X2907920Y-10399008D01*
X2907920Y-10399008D02*
X2888872Y-10389484D01*
X2888872Y-10389484D02*
X2850777Y-10389484D01*
X2850777Y-10389484D02*
X2831729Y-10399008D01*
X2831729Y-10399008D02*
X2822206Y-10408531D01*
X2822206Y-10408531D02*
X2812682Y-10427579D01*
X2812682Y-10427579D02*
X2812682Y-10475198D01*
X2812682Y-10475198D02*
X2822206Y-10494246D01*
X2822206Y-10494246D02*
X2831729Y-10503770D01*
X2831729Y-10503770D02*
X2850777Y-10513293D01*
X2850777Y-10513293D02*
X2888872Y-10513293D01*
X2888872Y-10513293D02*
X2907920Y-10503770D01*
X2907920Y-10503770D02*
X2917444Y-10494246D01*
X2917444Y-10494246D02*
X2926967Y-10475198D01*
X3098396Y-10456150D02*
X3098396Y-10589484D01*
X3050777Y-10379960D02*
X3003158Y-10522817D01*
X3003158Y-10522817D02*
X3126967Y-10522817D01*
X3193634Y-10389484D02*
X3193634Y-10427579D01*
X3269825Y-10389484D02*
X3269825Y-10427579D01*
X3565063Y-10665674D02*
X3555539Y-10656150D01*
X3555539Y-10656150D02*
X3536491Y-10627579D01*
X3536491Y-10627579D02*
X3526968Y-10608531D01*
X3526968Y-10608531D02*
X3517444Y-10579960D01*
X3517444Y-10579960D02*
X3507920Y-10532341D01*
X3507920Y-10532341D02*
X3507920Y-10494246D01*
X3507920Y-10494246D02*
X3517444Y-10446627D01*
X3517444Y-10446627D02*
X3526968Y-10418055D01*
X3526968Y-10418055D02*
X3536491Y-10399008D01*
X3536491Y-10399008D02*
X3555539Y-10370436D01*
X3555539Y-10370436D02*
X3565063Y-10360912D01*
X3631729Y-10408531D02*
X3641253Y-10399008D01*
X3641253Y-10399008D02*
X3660301Y-10389484D01*
X3660301Y-10389484D02*
X3707920Y-10389484D01*
X3707920Y-10389484D02*
X3726968Y-10399008D01*
X3726968Y-10399008D02*
X3736491Y-10408531D01*
X3736491Y-10408531D02*
X3746015Y-10427579D01*
X3746015Y-10427579D02*
X3746015Y-10446627D01*
X3746015Y-10446627D02*
X3736491Y-10475198D01*
X3736491Y-10475198D02*
X3622206Y-10589484D01*
X3622206Y-10589484D02*
X3746015Y-10589484D01*
X3984110Y-10589484D02*
X3984110Y-10389484D01*
X4069825Y-10589484D02*
X4069825Y-10484722D01*
X4069825Y-10484722D02*
X4060301Y-10465674D01*
X4060301Y-10465674D02*
X4041253Y-10456150D01*
X4041253Y-10456150D02*
X4012682Y-10456150D01*
X4012682Y-10456150D02*
X3993634Y-10465674D01*
X3993634Y-10465674D02*
X3984110Y-10475198D01*
X4193634Y-10589484D02*
X4174587Y-10579960D01*
X4174587Y-10579960D02*
X4165063Y-10570436D01*
X4165063Y-10570436D02*
X4155539Y-10551389D01*
X4155539Y-10551389D02*
X4155539Y-10494246D01*
X4155539Y-10494246D02*
X4165063Y-10475198D01*
X4165063Y-10475198D02*
X4174587Y-10465674D01*
X4174587Y-10465674D02*
X4193634Y-10456150D01*
X4193634Y-10456150D02*
X4222206Y-10456150D01*
X4222206Y-10456150D02*
X4241253Y-10465674D01*
X4241253Y-10465674D02*
X4250777Y-10475198D01*
X4250777Y-10475198D02*
X4260301Y-10494246D01*
X4260301Y-10494246D02*
X4260301Y-10551389D01*
X4260301Y-10551389D02*
X4250777Y-10570436D01*
X4250777Y-10570436D02*
X4241253Y-10579960D01*
X4241253Y-10579960D02*
X4222206Y-10589484D01*
X4222206Y-10589484D02*
X4193634Y-10589484D01*
X4374587Y-10589484D02*
X4355539Y-10579960D01*
X4355539Y-10579960D02*
X4346015Y-10560912D01*
X4346015Y-10560912D02*
X4346015Y-10389484D01*
X4526968Y-10579960D02*
X4507920Y-10589484D01*
X4507920Y-10589484D02*
X4469825Y-10589484D01*
X4469825Y-10589484D02*
X4450777Y-10579960D01*
X4450777Y-10579960D02*
X4441253Y-10560912D01*
X4441253Y-10560912D02*
X4441253Y-10484722D01*
X4441253Y-10484722D02*
X4450777Y-10465674D01*
X4450777Y-10465674D02*
X4469825Y-10456150D01*
X4469825Y-10456150D02*
X4507920Y-10456150D01*
X4507920Y-10456150D02*
X4526968Y-10465674D01*
X4526968Y-10465674D02*
X4536492Y-10484722D01*
X4536492Y-10484722D02*
X4536492Y-10503770D01*
X4536492Y-10503770D02*
X4441253Y-10522817D01*
X4612682Y-10579960D02*
X4631730Y-10589484D01*
X4631730Y-10589484D02*
X4669825Y-10589484D01*
X4669825Y-10589484D02*
X4688873Y-10579960D01*
X4688873Y-10579960D02*
X4698396Y-10560912D01*
X4698396Y-10560912D02*
X4698396Y-10551389D01*
X4698396Y-10551389D02*
X4688873Y-10532341D01*
X4688873Y-10532341D02*
X4669825Y-10522817D01*
X4669825Y-10522817D02*
X4641253Y-10522817D01*
X4641253Y-10522817D02*
X4622206Y-10513293D01*
X4622206Y-10513293D02*
X4612682Y-10494246D01*
X4612682Y-10494246D02*
X4612682Y-10484722D01*
X4612682Y-10484722D02*
X4622206Y-10465674D01*
X4622206Y-10465674D02*
X4641253Y-10456150D01*
X4641253Y-10456150D02*
X4669825Y-10456150D01*
X4669825Y-10456150D02*
X4688873Y-10465674D01*
X4936492Y-10513293D02*
X5088873Y-10513293D01*
X5012682Y-10589484D02*
X5012682Y-10437103D01*
X5317444Y-10389484D02*
X5441254Y-10389484D01*
X5441254Y-10389484D02*
X5374587Y-10465674D01*
X5374587Y-10465674D02*
X5403158Y-10465674D01*
X5403158Y-10465674D02*
X5422206Y-10475198D01*
X5422206Y-10475198D02*
X5431730Y-10484722D01*
X5431730Y-10484722D02*
X5441254Y-10503770D01*
X5441254Y-10503770D02*
X5441254Y-10551389D01*
X5441254Y-10551389D02*
X5431730Y-10570436D01*
X5431730Y-10570436D02*
X5422206Y-10579960D01*
X5422206Y-10579960D02*
X5403158Y-10589484D01*
X5403158Y-10589484D02*
X5346015Y-10589484D01*
X5346015Y-10589484D02*
X5326968Y-10579960D01*
X5326968Y-10579960D02*
X5317444Y-10570436D01*
X5669825Y-10579960D02*
X5688873Y-10589484D01*
X5688873Y-10589484D02*
X5726968Y-10589484D01*
X5726968Y-10589484D02*
X5746015Y-10579960D01*
X5746015Y-10579960D02*
X5755539Y-10560912D01*
X5755539Y-10560912D02*
X5755539Y-10551389D01*
X5755539Y-10551389D02*
X5746015Y-10532341D01*
X5746015Y-10532341D02*
X5726968Y-10522817D01*
X5726968Y-10522817D02*
X5698396Y-10522817D01*
X5698396Y-10522817D02*
X5679349Y-10513293D01*
X5679349Y-10513293D02*
X5669825Y-10494246D01*
X5669825Y-10494246D02*
X5669825Y-10484722D01*
X5669825Y-10484722D02*
X5679349Y-10465674D01*
X5679349Y-10465674D02*
X5698396Y-10456150D01*
X5698396Y-10456150D02*
X5726968Y-10456150D01*
X5726968Y-10456150D02*
X5746015Y-10465674D01*
X5869825Y-10589484D02*
X5850777Y-10579960D01*
X5850777Y-10579960D02*
X5841254Y-10560912D01*
X5841254Y-10560912D02*
X5841254Y-10389484D01*
X5974587Y-10589484D02*
X5955539Y-10579960D01*
X5955539Y-10579960D02*
X5946015Y-10570436D01*
X5946015Y-10570436D02*
X5936492Y-10551389D01*
X5936492Y-10551389D02*
X5936492Y-10494246D01*
X5936492Y-10494246D02*
X5946015Y-10475198D01*
X5946015Y-10475198D02*
X5955539Y-10465674D01*
X5955539Y-10465674D02*
X5974587Y-10456150D01*
X5974587Y-10456150D02*
X6003158Y-10456150D01*
X6003158Y-10456150D02*
X6022206Y-10465674D01*
X6022206Y-10465674D02*
X6031730Y-10475198D01*
X6031730Y-10475198D02*
X6041254Y-10494246D01*
X6041254Y-10494246D02*
X6041254Y-10551389D01*
X6041254Y-10551389D02*
X6031730Y-10570436D01*
X6031730Y-10570436D02*
X6022206Y-10579960D01*
X6022206Y-10579960D02*
X6003158Y-10589484D01*
X6003158Y-10589484D02*
X5974587Y-10589484D01*
X6098396Y-10456150D02*
X6174587Y-10456150D01*
X6126968Y-10389484D02*
X6126968Y-10560912D01*
X6126968Y-10560912D02*
X6136492Y-10579960D01*
X6136492Y-10579960D02*
X6155539Y-10589484D01*
X6155539Y-10589484D02*
X6174587Y-10589484D01*
X6231730Y-10579960D02*
X6250777Y-10589484D01*
X6250777Y-10589484D02*
X6288873Y-10589484D01*
X6288873Y-10589484D02*
X6307920Y-10579960D01*
X6307920Y-10579960D02*
X6317444Y-10560912D01*
X6317444Y-10560912D02*
X6317444Y-10551389D01*
X6317444Y-10551389D02*
X6307920Y-10532341D01*
X6307920Y-10532341D02*
X6288873Y-10522817D01*
X6288873Y-10522817D02*
X6260301Y-10522817D01*
X6260301Y-10522817D02*
X6241254Y-10513293D01*
X6241254Y-10513293D02*
X6231730Y-10494246D01*
X6231730Y-10494246D02*
X6231730Y-10484722D01*
X6231730Y-10484722D02*
X6241254Y-10465674D01*
X6241254Y-10465674D02*
X6260301Y-10456150D01*
X6260301Y-10456150D02*
X6288873Y-10456150D01*
X6288873Y-10456150D02*
X6307920Y-10465674D01*
X6384111Y-10665674D02*
X6393635Y-10656150D01*
X6393635Y-10656150D02*
X6412682Y-10627579D01*
X6412682Y-10627579D02*
X6422206Y-10608531D01*
X6422206Y-10608531D02*
X6431730Y-10579960D01*
X6431730Y-10579960D02*
X6441254Y-10532341D01*
X6441254Y-10532341D02*
X6441254Y-10494246D01*
X6441254Y-10494246D02*
X6431730Y-10446627D01*
X6431730Y-10446627D02*
X6422206Y-10418055D01*
X6422206Y-10418055D02*
X6412682Y-10399008D01*
X6412682Y-10399008D02*
X6393635Y-10370436D01*
X6393635Y-10370436D02*
X6384111Y-10360912D01*
D13*
X-130000Y-10702000D02*
X-10000Y-10822000D01*
X-10000Y-10702000D02*
X-130000Y-10822000D01*
X-70000Y-10822000D02*
X-10000Y-10762000D01*
X-70000Y-10702000D01*
X-130000Y-10762000D01*
X-70000Y-10822000D01*
D10*
X355539Y-10853484D02*
X241253Y-10853484D01*
X298396Y-10853484D02*
X298396Y-10653484D01*
X298396Y-10653484D02*
X279348Y-10682055D01*
X279348Y-10682055D02*
X260301Y-10701103D01*
X260301Y-10701103D02*
X241253Y-10710627D01*
X441253Y-10834436D02*
X450777Y-10843960D01*
X450777Y-10843960D02*
X441253Y-10853484D01*
X441253Y-10853484D02*
X431729Y-10843960D01*
X431729Y-10843960D02*
X441253Y-10834436D01*
X441253Y-10834436D02*
X441253Y-10853484D01*
X526967Y-10672531D02*
X536491Y-10663008D01*
X536491Y-10663008D02*
X555539Y-10653484D01*
X555539Y-10653484D02*
X603158Y-10653484D01*
X603158Y-10653484D02*
X622205Y-10663008D01*
X622205Y-10663008D02*
X631729Y-10672531D01*
X631729Y-10672531D02*
X641253Y-10691579D01*
X641253Y-10691579D02*
X641253Y-10710627D01*
X641253Y-10710627D02*
X631729Y-10739198D01*
X631729Y-10739198D02*
X517443Y-10853484D01*
X517443Y-10853484D02*
X641253Y-10853484D01*
X765062Y-10653484D02*
X784110Y-10653484D01*
X784110Y-10653484D02*
X803158Y-10663008D01*
X803158Y-10663008D02*
X812682Y-10672531D01*
X812682Y-10672531D02*
X822205Y-10691579D01*
X822205Y-10691579D02*
X831729Y-10729674D01*
X831729Y-10729674D02*
X831729Y-10777293D01*
X831729Y-10777293D02*
X822205Y-10815389D01*
X822205Y-10815389D02*
X812682Y-10834436D01*
X812682Y-10834436D02*
X803158Y-10843960D01*
X803158Y-10843960D02*
X784110Y-10853484D01*
X784110Y-10853484D02*
X765062Y-10853484D01*
X765062Y-10853484D02*
X746015Y-10843960D01*
X746015Y-10843960D02*
X736491Y-10834436D01*
X736491Y-10834436D02*
X726967Y-10815389D01*
X726967Y-10815389D02*
X717443Y-10777293D01*
X717443Y-10777293D02*
X717443Y-10729674D01*
X717443Y-10729674D02*
X726967Y-10691579D01*
X726967Y-10691579D02*
X736491Y-10672531D01*
X736491Y-10672531D02*
X746015Y-10663008D01*
X746015Y-10663008D02*
X765062Y-10653484D01*
X955539Y-10653484D02*
X974586Y-10653484D01*
X974586Y-10653484D02*
X993634Y-10663008D01*
X993634Y-10663008D02*
X1003158Y-10672531D01*
X1003158Y-10672531D02*
X1012682Y-10691579D01*
X1012682Y-10691579D02*
X1022205Y-10729674D01*
X1022205Y-10729674D02*
X1022205Y-10777293D01*
X1022205Y-10777293D02*
X1012682Y-10815389D01*
X1012682Y-10815389D02*
X1003158Y-10834436D01*
X1003158Y-10834436D02*
X993634Y-10843960D01*
X993634Y-10843960D02*
X974586Y-10853484D01*
X974586Y-10853484D02*
X955539Y-10853484D01*
X955539Y-10853484D02*
X936491Y-10843960D01*
X936491Y-10843960D02*
X926967Y-10834436D01*
X926967Y-10834436D02*
X917443Y-10815389D01*
X917443Y-10815389D02*
X907920Y-10777293D01*
X907920Y-10777293D02*
X907920Y-10729674D01*
X907920Y-10729674D02*
X917443Y-10691579D01*
X917443Y-10691579D02*
X926967Y-10672531D01*
X926967Y-10672531D02*
X936491Y-10663008D01*
X936491Y-10663008D02*
X955539Y-10653484D01*
X1107920Y-10853484D02*
X1107920Y-10720150D01*
X1107920Y-10739198D02*
X1117444Y-10729674D01*
X1117444Y-10729674D02*
X1136491Y-10720150D01*
X1136491Y-10720150D02*
X1165063Y-10720150D01*
X1165063Y-10720150D02*
X1184110Y-10729674D01*
X1184110Y-10729674D02*
X1193634Y-10748722D01*
X1193634Y-10748722D02*
X1193634Y-10853484D01*
X1193634Y-10748722D02*
X1203158Y-10729674D01*
X1203158Y-10729674D02*
X1222205Y-10720150D01*
X1222205Y-10720150D02*
X1250777Y-10720150D01*
X1250777Y-10720150D02*
X1269825Y-10729674D01*
X1269825Y-10729674D02*
X1279348Y-10748722D01*
X1279348Y-10748722D02*
X1279348Y-10853484D01*
X1374586Y-10853484D02*
X1374586Y-10720150D01*
X1374586Y-10739198D02*
X1384110Y-10729674D01*
X1384110Y-10729674D02*
X1403158Y-10720150D01*
X1403158Y-10720150D02*
X1431729Y-10720150D01*
X1431729Y-10720150D02*
X1450777Y-10729674D01*
X1450777Y-10729674D02*
X1460301Y-10748722D01*
X1460301Y-10748722D02*
X1460301Y-10853484D01*
X1460301Y-10748722D02*
X1469824Y-10729674D01*
X1469824Y-10729674D02*
X1488872Y-10720150D01*
X1488872Y-10720150D02*
X1517443Y-10720150D01*
X1517443Y-10720150D02*
X1536491Y-10729674D01*
X1536491Y-10729674D02*
X1546015Y-10748722D01*
X1546015Y-10748722D02*
X1546015Y-10853484D01*
X1936491Y-10643960D02*
X1765063Y-10901103D01*
X2193634Y-10653484D02*
X2212682Y-10653484D01*
X2212682Y-10653484D02*
X2231729Y-10663008D01*
X2231729Y-10663008D02*
X2241253Y-10672531D01*
X2241253Y-10672531D02*
X2250777Y-10691579D01*
X2250777Y-10691579D02*
X2260301Y-10729674D01*
X2260301Y-10729674D02*
X2260301Y-10777293D01*
X2260301Y-10777293D02*
X2250777Y-10815389D01*
X2250777Y-10815389D02*
X2241253Y-10834436D01*
X2241253Y-10834436D02*
X2231729Y-10843960D01*
X2231729Y-10843960D02*
X2212682Y-10853484D01*
X2212682Y-10853484D02*
X2193634Y-10853484D01*
X2193634Y-10853484D02*
X2174587Y-10843960D01*
X2174587Y-10843960D02*
X2165063Y-10834436D01*
X2165063Y-10834436D02*
X2155539Y-10815389D01*
X2155539Y-10815389D02*
X2146015Y-10777293D01*
X2146015Y-10777293D02*
X2146015Y-10729674D01*
X2146015Y-10729674D02*
X2155539Y-10691579D01*
X2155539Y-10691579D02*
X2165063Y-10672531D01*
X2165063Y-10672531D02*
X2174587Y-10663008D01*
X2174587Y-10663008D02*
X2193634Y-10653484D01*
X2346015Y-10834436D02*
X2355539Y-10843960D01*
X2355539Y-10843960D02*
X2346015Y-10853484D01*
X2346015Y-10853484D02*
X2336491Y-10843960D01*
X2336491Y-10843960D02*
X2346015Y-10834436D01*
X2346015Y-10834436D02*
X2346015Y-10853484D01*
X2479348Y-10653484D02*
X2498396Y-10653484D01*
X2498396Y-10653484D02*
X2517444Y-10663008D01*
X2517444Y-10663008D02*
X2526968Y-10672531D01*
X2526968Y-10672531D02*
X2536491Y-10691579D01*
X2536491Y-10691579D02*
X2546015Y-10729674D01*
X2546015Y-10729674D02*
X2546015Y-10777293D01*
X2546015Y-10777293D02*
X2536491Y-10815389D01*
X2536491Y-10815389D02*
X2526968Y-10834436D01*
X2526968Y-10834436D02*
X2517444Y-10843960D01*
X2517444Y-10843960D02*
X2498396Y-10853484D01*
X2498396Y-10853484D02*
X2479348Y-10853484D01*
X2479348Y-10853484D02*
X2460301Y-10843960D01*
X2460301Y-10843960D02*
X2450777Y-10834436D01*
X2450777Y-10834436D02*
X2441253Y-10815389D01*
X2441253Y-10815389D02*
X2431729Y-10777293D01*
X2431729Y-10777293D02*
X2431729Y-10729674D01*
X2431729Y-10729674D02*
X2441253Y-10691579D01*
X2441253Y-10691579D02*
X2450777Y-10672531D01*
X2450777Y-10672531D02*
X2460301Y-10663008D01*
X2460301Y-10663008D02*
X2479348Y-10653484D01*
X2717444Y-10720150D02*
X2717444Y-10853484D01*
X2669825Y-10643960D02*
X2622206Y-10786817D01*
X2622206Y-10786817D02*
X2746015Y-10786817D01*
X2803158Y-10653484D02*
X2936491Y-10653484D01*
X2936491Y-10653484D02*
X2850777Y-10853484D01*
X3003158Y-10672531D02*
X3012682Y-10663008D01*
X3012682Y-10663008D02*
X3031729Y-10653484D01*
X3031729Y-10653484D02*
X3079348Y-10653484D01*
X3079348Y-10653484D02*
X3098396Y-10663008D01*
X3098396Y-10663008D02*
X3107920Y-10672531D01*
X3107920Y-10672531D02*
X3117444Y-10691579D01*
X3117444Y-10691579D02*
X3117444Y-10710627D01*
X3117444Y-10710627D02*
X3107920Y-10739198D01*
X3107920Y-10739198D02*
X2993634Y-10853484D01*
X2993634Y-10853484D02*
X3117444Y-10853484D01*
X3193634Y-10653484D02*
X3193634Y-10691579D01*
X3269825Y-10653484D02*
X3269825Y-10691579D01*
X3565063Y-10929674D02*
X3555539Y-10920150D01*
X3555539Y-10920150D02*
X3536491Y-10891579D01*
X3536491Y-10891579D02*
X3526968Y-10872531D01*
X3526968Y-10872531D02*
X3517444Y-10843960D01*
X3517444Y-10843960D02*
X3507920Y-10796341D01*
X3507920Y-10796341D02*
X3507920Y-10758246D01*
X3507920Y-10758246D02*
X3517444Y-10710627D01*
X3517444Y-10710627D02*
X3526968Y-10682055D01*
X3526968Y-10682055D02*
X3536491Y-10663008D01*
X3536491Y-10663008D02*
X3555539Y-10634436D01*
X3555539Y-10634436D02*
X3565063Y-10624912D01*
X3631729Y-10672531D02*
X3641253Y-10663008D01*
X3641253Y-10663008D02*
X3660301Y-10653484D01*
X3660301Y-10653484D02*
X3707920Y-10653484D01*
X3707920Y-10653484D02*
X3726968Y-10663008D01*
X3726968Y-10663008D02*
X3736491Y-10672531D01*
X3736491Y-10672531D02*
X3746015Y-10691579D01*
X3746015Y-10691579D02*
X3746015Y-10710627D01*
X3746015Y-10710627D02*
X3736491Y-10739198D01*
X3736491Y-10739198D02*
X3622206Y-10853484D01*
X3622206Y-10853484D02*
X3746015Y-10853484D01*
X3984110Y-10853484D02*
X3984110Y-10653484D01*
X4069825Y-10853484D02*
X4069825Y-10748722D01*
X4069825Y-10748722D02*
X4060301Y-10729674D01*
X4060301Y-10729674D02*
X4041253Y-10720150D01*
X4041253Y-10720150D02*
X4012682Y-10720150D01*
X4012682Y-10720150D02*
X3993634Y-10729674D01*
X3993634Y-10729674D02*
X3984110Y-10739198D01*
X4193634Y-10853484D02*
X4174587Y-10843960D01*
X4174587Y-10843960D02*
X4165063Y-10834436D01*
X4165063Y-10834436D02*
X4155539Y-10815389D01*
X4155539Y-10815389D02*
X4155539Y-10758246D01*
X4155539Y-10758246D02*
X4165063Y-10739198D01*
X4165063Y-10739198D02*
X4174587Y-10729674D01*
X4174587Y-10729674D02*
X4193634Y-10720150D01*
X4193634Y-10720150D02*
X4222206Y-10720150D01*
X4222206Y-10720150D02*
X4241253Y-10729674D01*
X4241253Y-10729674D02*
X4250777Y-10739198D01*
X4250777Y-10739198D02*
X4260301Y-10758246D01*
X4260301Y-10758246D02*
X4260301Y-10815389D01*
X4260301Y-10815389D02*
X4250777Y-10834436D01*
X4250777Y-10834436D02*
X4241253Y-10843960D01*
X4241253Y-10843960D02*
X4222206Y-10853484D01*
X4222206Y-10853484D02*
X4193634Y-10853484D01*
X4374587Y-10853484D02*
X4355539Y-10843960D01*
X4355539Y-10843960D02*
X4346015Y-10824912D01*
X4346015Y-10824912D02*
X4346015Y-10653484D01*
X4526968Y-10843960D02*
X4507920Y-10853484D01*
X4507920Y-10853484D02*
X4469825Y-10853484D01*
X4469825Y-10853484D02*
X4450777Y-10843960D01*
X4450777Y-10843960D02*
X4441253Y-10824912D01*
X4441253Y-10824912D02*
X4441253Y-10748722D01*
X4441253Y-10748722D02*
X4450777Y-10729674D01*
X4450777Y-10729674D02*
X4469825Y-10720150D01*
X4469825Y-10720150D02*
X4507920Y-10720150D01*
X4507920Y-10720150D02*
X4526968Y-10729674D01*
X4526968Y-10729674D02*
X4536492Y-10748722D01*
X4536492Y-10748722D02*
X4536492Y-10767770D01*
X4536492Y-10767770D02*
X4441253Y-10786817D01*
X4612682Y-10843960D02*
X4631730Y-10853484D01*
X4631730Y-10853484D02*
X4669825Y-10853484D01*
X4669825Y-10853484D02*
X4688873Y-10843960D01*
X4688873Y-10843960D02*
X4698396Y-10824912D01*
X4698396Y-10824912D02*
X4698396Y-10815389D01*
X4698396Y-10815389D02*
X4688873Y-10796341D01*
X4688873Y-10796341D02*
X4669825Y-10786817D01*
X4669825Y-10786817D02*
X4641253Y-10786817D01*
X4641253Y-10786817D02*
X4622206Y-10777293D01*
X4622206Y-10777293D02*
X4612682Y-10758246D01*
X4612682Y-10758246D02*
X4612682Y-10748722D01*
X4612682Y-10748722D02*
X4622206Y-10729674D01*
X4622206Y-10729674D02*
X4641253Y-10720150D01*
X4641253Y-10720150D02*
X4669825Y-10720150D01*
X4669825Y-10720150D02*
X4688873Y-10729674D01*
X4765063Y-10929674D02*
X4774587Y-10920150D01*
X4774587Y-10920150D02*
X4793634Y-10891579D01*
X4793634Y-10891579D02*
X4803158Y-10872531D01*
X4803158Y-10872531D02*
X4812682Y-10843960D01*
X4812682Y-10843960D02*
X4822206Y-10796341D01*
X4822206Y-10796341D02*
X4822206Y-10758246D01*
X4822206Y-10758246D02*
X4812682Y-10710627D01*
X4812682Y-10710627D02*
X4803158Y-10682055D01*
X4803158Y-10682055D02*
X4793634Y-10663008D01*
X4793634Y-10663008D02*
X4774587Y-10634436D01*
X4774587Y-10634436D02*
X4765063Y-10624912D01*
D14*
X-75000Y-10961000D02*
X-75000Y-11091000D01*
X-140000Y-11026000D02*
X-10000Y-11026000D01*
X-10000Y-11026000D02*
G75*
G02*
X-140000Y-11026000I-65000J0D01*
G01*
X-140000Y-11026000D02*
G75*
G02*
X-10000Y-11026000I65000J0D01*
G01*
D10*
X355539Y-11117484D02*
X241253Y-11117484D01*
X298396Y-11117484D02*
X298396Y-10917484D01*
X298396Y-10917484D02*
X279348Y-10946055D01*
X279348Y-10946055D02*
X260301Y-10965103D01*
X260301Y-10965103D02*
X241253Y-10974627D01*
X441253Y-11098436D02*
X450777Y-11107960D01*
X450777Y-11107960D02*
X441253Y-11117484D01*
X441253Y-11117484D02*
X431729Y-11107960D01*
X431729Y-11107960D02*
X441253Y-11098436D01*
X441253Y-11098436D02*
X441253Y-11117484D01*
X517443Y-10917484D02*
X641253Y-10917484D01*
X641253Y-10917484D02*
X574586Y-10993674D01*
X574586Y-10993674D02*
X603158Y-10993674D01*
X603158Y-10993674D02*
X622205Y-11003198D01*
X622205Y-11003198D02*
X631729Y-11012722D01*
X631729Y-11012722D02*
X641253Y-11031770D01*
X641253Y-11031770D02*
X641253Y-11079389D01*
X641253Y-11079389D02*
X631729Y-11098436D01*
X631729Y-11098436D02*
X622205Y-11107960D01*
X622205Y-11107960D02*
X603158Y-11117484D01*
X603158Y-11117484D02*
X546015Y-11117484D01*
X546015Y-11117484D02*
X526967Y-11107960D01*
X526967Y-11107960D02*
X517443Y-11098436D01*
X765062Y-10917484D02*
X784110Y-10917484D01*
X784110Y-10917484D02*
X803158Y-10927008D01*
X803158Y-10927008D02*
X812682Y-10936531D01*
X812682Y-10936531D02*
X822205Y-10955579D01*
X822205Y-10955579D02*
X831729Y-10993674D01*
X831729Y-10993674D02*
X831729Y-11041293D01*
X831729Y-11041293D02*
X822205Y-11079389D01*
X822205Y-11079389D02*
X812682Y-11098436D01*
X812682Y-11098436D02*
X803158Y-11107960D01*
X803158Y-11107960D02*
X784110Y-11117484D01*
X784110Y-11117484D02*
X765062Y-11117484D01*
X765062Y-11117484D02*
X746015Y-11107960D01*
X746015Y-11107960D02*
X736491Y-11098436D01*
X736491Y-11098436D02*
X726967Y-11079389D01*
X726967Y-11079389D02*
X717443Y-11041293D01*
X717443Y-11041293D02*
X717443Y-10993674D01*
X717443Y-10993674D02*
X726967Y-10955579D01*
X726967Y-10955579D02*
X736491Y-10936531D01*
X736491Y-10936531D02*
X746015Y-10927008D01*
X746015Y-10927008D02*
X765062Y-10917484D01*
X955539Y-10917484D02*
X974586Y-10917484D01*
X974586Y-10917484D02*
X993634Y-10927008D01*
X993634Y-10927008D02*
X1003158Y-10936531D01*
X1003158Y-10936531D02*
X1012682Y-10955579D01*
X1012682Y-10955579D02*
X1022205Y-10993674D01*
X1022205Y-10993674D02*
X1022205Y-11041293D01*
X1022205Y-11041293D02*
X1012682Y-11079389D01*
X1012682Y-11079389D02*
X1003158Y-11098436D01*
X1003158Y-11098436D02*
X993634Y-11107960D01*
X993634Y-11107960D02*
X974586Y-11117484D01*
X974586Y-11117484D02*
X955539Y-11117484D01*
X955539Y-11117484D02*
X936491Y-11107960D01*
X936491Y-11107960D02*
X926967Y-11098436D01*
X926967Y-11098436D02*
X917443Y-11079389D01*
X917443Y-11079389D02*
X907920Y-11041293D01*
X907920Y-11041293D02*
X907920Y-10993674D01*
X907920Y-10993674D02*
X917443Y-10955579D01*
X917443Y-10955579D02*
X926967Y-10936531D01*
X926967Y-10936531D02*
X936491Y-10927008D01*
X936491Y-10927008D02*
X955539Y-10917484D01*
X1107920Y-11117484D02*
X1107920Y-10984150D01*
X1107920Y-11003198D02*
X1117444Y-10993674D01*
X1117444Y-10993674D02*
X1136491Y-10984150D01*
X1136491Y-10984150D02*
X1165063Y-10984150D01*
X1165063Y-10984150D02*
X1184110Y-10993674D01*
X1184110Y-10993674D02*
X1193634Y-11012722D01*
X1193634Y-11012722D02*
X1193634Y-11117484D01*
X1193634Y-11012722D02*
X1203158Y-10993674D01*
X1203158Y-10993674D02*
X1222205Y-10984150D01*
X1222205Y-10984150D02*
X1250777Y-10984150D01*
X1250777Y-10984150D02*
X1269825Y-10993674D01*
X1269825Y-10993674D02*
X1279348Y-11012722D01*
X1279348Y-11012722D02*
X1279348Y-11117484D01*
X1374586Y-11117484D02*
X1374586Y-10984150D01*
X1374586Y-11003198D02*
X1384110Y-10993674D01*
X1384110Y-10993674D02*
X1403158Y-10984150D01*
X1403158Y-10984150D02*
X1431729Y-10984150D01*
X1431729Y-10984150D02*
X1450777Y-10993674D01*
X1450777Y-10993674D02*
X1460301Y-11012722D01*
X1460301Y-11012722D02*
X1460301Y-11117484D01*
X1460301Y-11012722D02*
X1469824Y-10993674D01*
X1469824Y-10993674D02*
X1488872Y-10984150D01*
X1488872Y-10984150D02*
X1517443Y-10984150D01*
X1517443Y-10984150D02*
X1536491Y-10993674D01*
X1536491Y-10993674D02*
X1546015Y-11012722D01*
X1546015Y-11012722D02*
X1546015Y-11117484D01*
X1936491Y-10907960D02*
X1765063Y-11165103D01*
X2193634Y-10917484D02*
X2212682Y-10917484D01*
X2212682Y-10917484D02*
X2231729Y-10927008D01*
X2231729Y-10927008D02*
X2241253Y-10936531D01*
X2241253Y-10936531D02*
X2250777Y-10955579D01*
X2250777Y-10955579D02*
X2260301Y-10993674D01*
X2260301Y-10993674D02*
X2260301Y-11041293D01*
X2260301Y-11041293D02*
X2250777Y-11079389D01*
X2250777Y-11079389D02*
X2241253Y-11098436D01*
X2241253Y-11098436D02*
X2231729Y-11107960D01*
X2231729Y-11107960D02*
X2212682Y-11117484D01*
X2212682Y-11117484D02*
X2193634Y-11117484D01*
X2193634Y-11117484D02*
X2174587Y-11107960D01*
X2174587Y-11107960D02*
X2165063Y-11098436D01*
X2165063Y-11098436D02*
X2155539Y-11079389D01*
X2155539Y-11079389D02*
X2146015Y-11041293D01*
X2146015Y-11041293D02*
X2146015Y-10993674D01*
X2146015Y-10993674D02*
X2155539Y-10955579D01*
X2155539Y-10955579D02*
X2165063Y-10936531D01*
X2165063Y-10936531D02*
X2174587Y-10927008D01*
X2174587Y-10927008D02*
X2193634Y-10917484D01*
X2346015Y-11098436D02*
X2355539Y-11107960D01*
X2355539Y-11107960D02*
X2346015Y-11117484D01*
X2346015Y-11117484D02*
X2336491Y-11107960D01*
X2336491Y-11107960D02*
X2346015Y-11098436D01*
X2346015Y-11098436D02*
X2346015Y-11117484D01*
X2479348Y-10917484D02*
X2498396Y-10917484D01*
X2498396Y-10917484D02*
X2517444Y-10927008D01*
X2517444Y-10927008D02*
X2526968Y-10936531D01*
X2526968Y-10936531D02*
X2536491Y-10955579D01*
X2536491Y-10955579D02*
X2546015Y-10993674D01*
X2546015Y-10993674D02*
X2546015Y-11041293D01*
X2546015Y-11041293D02*
X2536491Y-11079389D01*
X2536491Y-11079389D02*
X2526968Y-11098436D01*
X2526968Y-11098436D02*
X2517444Y-11107960D01*
X2517444Y-11107960D02*
X2498396Y-11117484D01*
X2498396Y-11117484D02*
X2479348Y-11117484D01*
X2479348Y-11117484D02*
X2460301Y-11107960D01*
X2460301Y-11107960D02*
X2450777Y-11098436D01*
X2450777Y-11098436D02*
X2441253Y-11079389D01*
X2441253Y-11079389D02*
X2431729Y-11041293D01*
X2431729Y-11041293D02*
X2431729Y-10993674D01*
X2431729Y-10993674D02*
X2441253Y-10955579D01*
X2441253Y-10955579D02*
X2450777Y-10936531D01*
X2450777Y-10936531D02*
X2460301Y-10927008D01*
X2460301Y-10927008D02*
X2479348Y-10917484D01*
X2726968Y-10917484D02*
X2631729Y-10917484D01*
X2631729Y-10917484D02*
X2622206Y-11012722D01*
X2622206Y-11012722D02*
X2631729Y-11003198D01*
X2631729Y-11003198D02*
X2650777Y-10993674D01*
X2650777Y-10993674D02*
X2698396Y-10993674D01*
X2698396Y-10993674D02*
X2717444Y-11003198D01*
X2717444Y-11003198D02*
X2726968Y-11012722D01*
X2726968Y-11012722D02*
X2736491Y-11031770D01*
X2736491Y-11031770D02*
X2736491Y-11079389D01*
X2736491Y-11079389D02*
X2726968Y-11098436D01*
X2726968Y-11098436D02*
X2717444Y-11107960D01*
X2717444Y-11107960D02*
X2698396Y-11117484D01*
X2698396Y-11117484D02*
X2650777Y-11117484D01*
X2650777Y-11117484D02*
X2631729Y-11107960D01*
X2631729Y-11107960D02*
X2622206Y-11098436D01*
X2926967Y-11117484D02*
X2812682Y-11117484D01*
X2869825Y-11117484D02*
X2869825Y-10917484D01*
X2869825Y-10917484D02*
X2850777Y-10946055D01*
X2850777Y-10946055D02*
X2831729Y-10965103D01*
X2831729Y-10965103D02*
X2812682Y-10974627D01*
X3003158Y-10936531D02*
X3012682Y-10927008D01*
X3012682Y-10927008D02*
X3031729Y-10917484D01*
X3031729Y-10917484D02*
X3079348Y-10917484D01*
X3079348Y-10917484D02*
X3098396Y-10927008D01*
X3098396Y-10927008D02*
X3107920Y-10936531D01*
X3107920Y-10936531D02*
X3117444Y-10955579D01*
X3117444Y-10955579D02*
X3117444Y-10974627D01*
X3117444Y-10974627D02*
X3107920Y-11003198D01*
X3107920Y-11003198D02*
X2993634Y-11117484D01*
X2993634Y-11117484D02*
X3117444Y-11117484D01*
X3193634Y-10917484D02*
X3193634Y-10955579D01*
X3269825Y-10917484D02*
X3269825Y-10955579D01*
X3565063Y-11193674D02*
X3555539Y-11184150D01*
X3555539Y-11184150D02*
X3536491Y-11155579D01*
X3536491Y-11155579D02*
X3526968Y-11136531D01*
X3526968Y-11136531D02*
X3517444Y-11107960D01*
X3517444Y-11107960D02*
X3507920Y-11060341D01*
X3507920Y-11060341D02*
X3507920Y-11022246D01*
X3507920Y-11022246D02*
X3517444Y-10974627D01*
X3517444Y-10974627D02*
X3526968Y-10946055D01*
X3526968Y-10946055D02*
X3536491Y-10927008D01*
X3536491Y-10927008D02*
X3555539Y-10898436D01*
X3555539Y-10898436D02*
X3565063Y-10888912D01*
X3726968Y-10984150D02*
X3726968Y-11117484D01*
X3679348Y-10907960D02*
X3631729Y-11050817D01*
X3631729Y-11050817D02*
X3755539Y-11050817D01*
X3984110Y-11117484D02*
X3984110Y-10917484D01*
X4069825Y-11117484D02*
X4069825Y-11012722D01*
X4069825Y-11012722D02*
X4060301Y-10993674D01*
X4060301Y-10993674D02*
X4041253Y-10984150D01*
X4041253Y-10984150D02*
X4012682Y-10984150D01*
X4012682Y-10984150D02*
X3993634Y-10993674D01*
X3993634Y-10993674D02*
X3984110Y-11003198D01*
X4193634Y-11117484D02*
X4174587Y-11107960D01*
X4174587Y-11107960D02*
X4165063Y-11098436D01*
X4165063Y-11098436D02*
X4155539Y-11079389D01*
X4155539Y-11079389D02*
X4155539Y-11022246D01*
X4155539Y-11022246D02*
X4165063Y-11003198D01*
X4165063Y-11003198D02*
X4174587Y-10993674D01*
X4174587Y-10993674D02*
X4193634Y-10984150D01*
X4193634Y-10984150D02*
X4222206Y-10984150D01*
X4222206Y-10984150D02*
X4241253Y-10993674D01*
X4241253Y-10993674D02*
X4250777Y-11003198D01*
X4250777Y-11003198D02*
X4260301Y-11022246D01*
X4260301Y-11022246D02*
X4260301Y-11079389D01*
X4260301Y-11079389D02*
X4250777Y-11098436D01*
X4250777Y-11098436D02*
X4241253Y-11107960D01*
X4241253Y-11107960D02*
X4222206Y-11117484D01*
X4222206Y-11117484D02*
X4193634Y-11117484D01*
X4374587Y-11117484D02*
X4355539Y-11107960D01*
X4355539Y-11107960D02*
X4346015Y-11088912D01*
X4346015Y-11088912D02*
X4346015Y-10917484D01*
X4526968Y-11107960D02*
X4507920Y-11117484D01*
X4507920Y-11117484D02*
X4469825Y-11117484D01*
X4469825Y-11117484D02*
X4450777Y-11107960D01*
X4450777Y-11107960D02*
X4441253Y-11088912D01*
X4441253Y-11088912D02*
X4441253Y-11012722D01*
X4441253Y-11012722D02*
X4450777Y-10993674D01*
X4450777Y-10993674D02*
X4469825Y-10984150D01*
X4469825Y-10984150D02*
X4507920Y-10984150D01*
X4507920Y-10984150D02*
X4526968Y-10993674D01*
X4526968Y-10993674D02*
X4536492Y-11012722D01*
X4536492Y-11012722D02*
X4536492Y-11031770D01*
X4536492Y-11031770D02*
X4441253Y-11050817D01*
X4612682Y-11107960D02*
X4631730Y-11117484D01*
X4631730Y-11117484D02*
X4669825Y-11117484D01*
X4669825Y-11117484D02*
X4688873Y-11107960D01*
X4688873Y-11107960D02*
X4698396Y-11088912D01*
X4698396Y-11088912D02*
X4698396Y-11079389D01*
X4698396Y-11079389D02*
X4688873Y-11060341D01*
X4688873Y-11060341D02*
X4669825Y-11050817D01*
X4669825Y-11050817D02*
X4641253Y-11050817D01*
X4641253Y-11050817D02*
X4622206Y-11041293D01*
X4622206Y-11041293D02*
X4612682Y-11022246D01*
X4612682Y-11022246D02*
X4612682Y-11012722D01*
X4612682Y-11012722D02*
X4622206Y-10993674D01*
X4622206Y-10993674D02*
X4641253Y-10984150D01*
X4641253Y-10984150D02*
X4669825Y-10984150D01*
X4669825Y-10984150D02*
X4688873Y-10993674D01*
X4765063Y-11193674D02*
X4774587Y-11184150D01*
X4774587Y-11184150D02*
X4793634Y-11155579D01*
X4793634Y-11155579D02*
X4803158Y-11136531D01*
X4803158Y-11136531D02*
X4812682Y-11107960D01*
X4812682Y-11107960D02*
X4822206Y-11060341D01*
X4822206Y-11060341D02*
X4822206Y-11022246D01*
X4822206Y-11022246D02*
X4812682Y-10974627D01*
X4812682Y-10974627D02*
X4803158Y-10946055D01*
X4803158Y-10946055D02*
X4793634Y-10927008D01*
X4793634Y-10927008D02*
X4774587Y-10898436D01*
X4774587Y-10898436D02*
X4765063Y-10888912D01*
M02*
