%TF.GenerationSoftware,KiCad,Pcbnew,10.0.5*%
%TF.CreationDate,2026-09-24T00:42:17+05:30*%
%TF.ProjectId,AuraForge_50X,41757261-466f-4726-9765-5f3530582e6b,v2.0*%
%TF.SameCoordinates,Original*%
%TF.FileFunction,Drillmap*%
%TF.FilePolarity,Positive*%
%FSLAX45Y45*%
G04 Gerber Fmt 4.5, Leading zero omitted, Abs format (unit mm)*
G04 Created by KiCad (PCBNEW 10.0.5) date 2026-09-24 00:42:17*
%MOMM*%
%LPD*%
G01*
G04 APERTURE LIST*
%ADD10C,0.200000*%
%ADD11C,0.150000*%
%ADD12C,0.100000*%
%ADD13C,0.120000*%
G04 APERTURE END LIST*
D10*
X9448750Y-2441250D02*
X9448750Y-2441250D01*
G75*
G02*
X9948750Y-1941250I500000J0D01*
G01*
X18948750Y-1941250D01*
G75*
G02*
X19448750Y-2441250I0J-500000D01*
G01*
X19448750Y-9441250D01*
G75*
G02*
X18948750Y-9941250I-500000J0D01*
G01*
X9948750Y-9941250D01*
G75*
G02*
X9448750Y-9441250I0J500000D01*
G01*
X9448750Y-2441250D01*
D11*
X10008750Y-2341250D02*
G75*
G02*
X9688750Y-2341250I-160000J0D01*
G01*
X9688750Y-2341250D02*
G75*
G02*
X10008750Y-2341250I160000J0D01*
G01*
X10008750Y-9541250D02*
G75*
G02*
X9688750Y-9541250I-160000J0D01*
G01*
X9688750Y-9541250D02*
G75*
G02*
X10008750Y-9541250I160000J0D01*
G01*
X19009821Y-9541250D02*
G75*
G02*
X18689821Y-9541250I-160000J0D01*
G01*
X18689821Y-9541250D02*
G75*
G02*
X19009821Y-9541250I160000J0D01*
G01*
X19208750Y-2341250D02*
G75*
G02*
X18888750Y-2341250I-160000J0D01*
G01*
X18888750Y-2341250D02*
G75*
G02*
X19208750Y-2341250I160000J0D01*
G01*
D10*
D12*
X10139750Y-7921250D02*
X10199750Y-7981250D01*
X10199750Y-7921250D02*
X10139750Y-7981250D01*
X10139750Y-8501250D02*
X10199750Y-8561250D01*
X10199750Y-8501250D02*
X10139750Y-8561250D01*
X9841750Y-7808250D02*
G75*
G02*
X9761750Y-7808250I-40000J0D01*
G01*
X9761750Y-7808250D02*
G75*
G02*
X9841750Y-7808250I40000J0D01*
G01*
X9821750Y-7768250D02*
X9781750Y-7768250D01*
X9781750Y-7848250D02*
G75*
G02*
X9781750Y-7768250I0J40000D01*
G01*
X9781750Y-7848250D02*
X9821750Y-7848250D01*
X9821750Y-7848250D02*
G75*
G03*
X9821750Y-7768250I0J40000D01*
G01*
X9841750Y-8674250D02*
G75*
G02*
X9761750Y-8674250I-40000J0D01*
G01*
X9761750Y-8674250D02*
G75*
G02*
X9841750Y-8674250I40000J0D01*
G01*
X9821750Y-8634250D02*
X9781750Y-8634250D01*
X9781750Y-8714250D02*
G75*
G02*
X9781750Y-8634250I0J40000D01*
G01*
X9781750Y-8714250D02*
X9821750Y-8714250D01*
X9821750Y-8714250D02*
G75*
G03*
X9821750Y-8634250I0J40000D01*
G01*
X10259750Y-7808250D02*
G75*
G02*
X10179750Y-7808250I-40000J0D01*
G01*
X10179750Y-7808250D02*
G75*
G02*
X10259750Y-7808250I40000J0D01*
G01*
X10254750Y-7768250D02*
X10184750Y-7768250D01*
X10184750Y-7848250D02*
G75*
G02*
X10184750Y-7768250I0J40000D01*
G01*
X10184750Y-7848250D02*
X10254750Y-7848250D01*
X10254750Y-7848250D02*
G75*
G03*
X10254750Y-7768250I0J40000D01*
G01*
X10259750Y-8674250D02*
G75*
G02*
X10179750Y-8674250I-40000J0D01*
G01*
X10179750Y-8674250D02*
G75*
G02*
X10259750Y-8674250I40000J0D01*
G01*
X10254750Y-8634250D02*
X10184750Y-8634250D01*
X10184750Y-8714250D02*
G75*
G02*
X10184750Y-8634250I0J40000D01*
G01*
X10184750Y-8714250D02*
X10254750Y-8714250D01*
X10254750Y-8714250D02*
G75*
G03*
X10254750Y-8634250I0J40000D01*
G01*
D13*
X9688750Y-4781250D02*
X9688750Y-4901250D01*
X9628750Y-4841250D02*
X9748750Y-4841250D01*
X10388750Y-4781250D02*
X10388750Y-4901250D01*
X10328750Y-4841250D02*
X10448750Y-4841250D01*
D10*
X9699527Y-10262734D02*
X9699527Y-10062734D01*
X9699527Y-10062734D02*
X9747146Y-10062734D01*
X9747146Y-10062734D02*
X9775717Y-10072258D01*
X9775717Y-10072258D02*
X9794765Y-10091305D01*
X9794765Y-10091305D02*
X9804289Y-10110353D01*
X9804289Y-10110353D02*
X9813813Y-10148448D01*
X9813813Y-10148448D02*
X9813813Y-10177020D01*
X9813813Y-10177020D02*
X9804289Y-10215115D01*
X9804289Y-10215115D02*
X9794765Y-10234162D01*
X9794765Y-10234162D02*
X9775717Y-10253210D01*
X9775717Y-10253210D02*
X9747146Y-10262734D01*
X9747146Y-10262734D02*
X9699527Y-10262734D01*
X9899527Y-10262734D02*
X9899527Y-10129400D01*
X9899527Y-10167496D02*
X9909051Y-10148448D01*
X9909051Y-10148448D02*
X9918574Y-10138924D01*
X9918574Y-10138924D02*
X9937622Y-10129400D01*
X9937622Y-10129400D02*
X9956670Y-10129400D01*
X10023336Y-10262734D02*
X10023336Y-10129400D01*
X10023336Y-10062734D02*
X10013813Y-10072258D01*
X10013813Y-10072258D02*
X10023336Y-10081781D01*
X10023336Y-10081781D02*
X10032860Y-10072258D01*
X10032860Y-10072258D02*
X10023336Y-10062734D01*
X10023336Y-10062734D02*
X10023336Y-10081781D01*
X10147146Y-10262734D02*
X10128098Y-10253210D01*
X10128098Y-10253210D02*
X10118574Y-10234162D01*
X10118574Y-10234162D02*
X10118574Y-10062734D01*
X10251908Y-10262734D02*
X10232860Y-10253210D01*
X10232860Y-10253210D02*
X10223336Y-10234162D01*
X10223336Y-10234162D02*
X10223336Y-10062734D01*
X10480479Y-10262734D02*
X10480479Y-10062734D01*
X10480479Y-10062734D02*
X10547146Y-10205591D01*
X10547146Y-10205591D02*
X10613813Y-10062734D01*
X10613813Y-10062734D02*
X10613813Y-10262734D01*
X10794765Y-10262734D02*
X10794765Y-10157972D01*
X10794765Y-10157972D02*
X10785241Y-10138924D01*
X10785241Y-10138924D02*
X10766194Y-10129400D01*
X10766194Y-10129400D02*
X10728098Y-10129400D01*
X10728098Y-10129400D02*
X10709051Y-10138924D01*
X10794765Y-10253210D02*
X10775717Y-10262734D01*
X10775717Y-10262734D02*
X10728098Y-10262734D01*
X10728098Y-10262734D02*
X10709051Y-10253210D01*
X10709051Y-10253210D02*
X10699527Y-10234162D01*
X10699527Y-10234162D02*
X10699527Y-10215115D01*
X10699527Y-10215115D02*
X10709051Y-10196067D01*
X10709051Y-10196067D02*
X10728098Y-10186543D01*
X10728098Y-10186543D02*
X10775717Y-10186543D01*
X10775717Y-10186543D02*
X10794765Y-10177020D01*
X10890003Y-10129400D02*
X10890003Y-10329400D01*
X10890003Y-10138924D02*
X10909051Y-10129400D01*
X10909051Y-10129400D02*
X10947146Y-10129400D01*
X10947146Y-10129400D02*
X10966194Y-10138924D01*
X10966194Y-10138924D02*
X10975717Y-10148448D01*
X10975717Y-10148448D02*
X10985241Y-10167496D01*
X10985241Y-10167496D02*
X10985241Y-10224639D01*
X10985241Y-10224639D02*
X10975717Y-10243686D01*
X10975717Y-10243686D02*
X10966194Y-10253210D01*
X10966194Y-10253210D02*
X10947146Y-10262734D01*
X10947146Y-10262734D02*
X10909051Y-10262734D01*
X10909051Y-10262734D02*
X10890003Y-10253210D01*
X11070955Y-10243686D02*
X11080479Y-10253210D01*
X11080479Y-10253210D02*
X11070955Y-10262734D01*
X11070955Y-10262734D02*
X11061432Y-10253210D01*
X11061432Y-10253210D02*
X11070955Y-10243686D01*
X11070955Y-10243686D02*
X11070955Y-10262734D01*
X11070955Y-10138924D02*
X11080479Y-10148448D01*
X11080479Y-10148448D02*
X11070955Y-10157972D01*
X11070955Y-10157972D02*
X11061432Y-10148448D01*
X11061432Y-10148448D02*
X11070955Y-10138924D01*
X11070955Y-10138924D02*
X11070955Y-10157972D01*
D12*
X9378750Y-10561250D02*
X9438750Y-10621250D01*
X9438750Y-10561250D02*
X9378750Y-10621250D01*
D10*
X9737622Y-10482734D02*
X9756670Y-10482734D01*
X9756670Y-10482734D02*
X9775717Y-10492258D01*
X9775717Y-10492258D02*
X9785241Y-10501781D01*
X9785241Y-10501781D02*
X9794765Y-10520829D01*
X9794765Y-10520829D02*
X9804289Y-10558924D01*
X9804289Y-10558924D02*
X9804289Y-10606543D01*
X9804289Y-10606543D02*
X9794765Y-10644639D01*
X9794765Y-10644639D02*
X9785241Y-10663686D01*
X9785241Y-10663686D02*
X9775717Y-10673210D01*
X9775717Y-10673210D02*
X9756670Y-10682734D01*
X9756670Y-10682734D02*
X9737622Y-10682734D01*
X9737622Y-10682734D02*
X9718574Y-10673210D01*
X9718574Y-10673210D02*
X9709051Y-10663686D01*
X9709051Y-10663686D02*
X9699527Y-10644639D01*
X9699527Y-10644639D02*
X9690003Y-10606543D01*
X9690003Y-10606543D02*
X9690003Y-10558924D01*
X9690003Y-10558924D02*
X9699527Y-10520829D01*
X9699527Y-10520829D02*
X9709051Y-10501781D01*
X9709051Y-10501781D02*
X9718574Y-10492258D01*
X9718574Y-10492258D02*
X9737622Y-10482734D01*
X9890003Y-10663686D02*
X9899527Y-10673210D01*
X9899527Y-10673210D02*
X9890003Y-10682734D01*
X9890003Y-10682734D02*
X9880479Y-10673210D01*
X9880479Y-10673210D02*
X9890003Y-10663686D01*
X9890003Y-10663686D02*
X9890003Y-10682734D01*
X10070955Y-10482734D02*
X10032860Y-10482734D01*
X10032860Y-10482734D02*
X10013813Y-10492258D01*
X10013813Y-10492258D02*
X10004289Y-10501781D01*
X10004289Y-10501781D02*
X9985241Y-10530353D01*
X9985241Y-10530353D02*
X9975717Y-10568448D01*
X9975717Y-10568448D02*
X9975717Y-10644639D01*
X9975717Y-10644639D02*
X9985241Y-10663686D01*
X9985241Y-10663686D02*
X9994765Y-10673210D01*
X9994765Y-10673210D02*
X10013813Y-10682734D01*
X10013813Y-10682734D02*
X10051908Y-10682734D01*
X10051908Y-10682734D02*
X10070955Y-10673210D01*
X10070955Y-10673210D02*
X10080479Y-10663686D01*
X10080479Y-10663686D02*
X10090003Y-10644639D01*
X10090003Y-10644639D02*
X10090003Y-10597020D01*
X10090003Y-10597020D02*
X10080479Y-10577972D01*
X10080479Y-10577972D02*
X10070955Y-10568448D01*
X10070955Y-10568448D02*
X10051908Y-10558924D01*
X10051908Y-10558924D02*
X10013813Y-10558924D01*
X10013813Y-10558924D02*
X9994765Y-10568448D01*
X9994765Y-10568448D02*
X9985241Y-10577972D01*
X9985241Y-10577972D02*
X9975717Y-10597020D01*
X10213813Y-10482734D02*
X10232860Y-10482734D01*
X10232860Y-10482734D02*
X10251908Y-10492258D01*
X10251908Y-10492258D02*
X10261432Y-10501781D01*
X10261432Y-10501781D02*
X10270955Y-10520829D01*
X10270955Y-10520829D02*
X10280479Y-10558924D01*
X10280479Y-10558924D02*
X10280479Y-10606543D01*
X10280479Y-10606543D02*
X10270955Y-10644639D01*
X10270955Y-10644639D02*
X10261432Y-10663686D01*
X10261432Y-10663686D02*
X10251908Y-10673210D01*
X10251908Y-10673210D02*
X10232860Y-10682734D01*
X10232860Y-10682734D02*
X10213813Y-10682734D01*
X10213813Y-10682734D02*
X10194765Y-10673210D01*
X10194765Y-10673210D02*
X10185241Y-10663686D01*
X10185241Y-10663686D02*
X10175717Y-10644639D01*
X10175717Y-10644639D02*
X10166194Y-10606543D01*
X10166194Y-10606543D02*
X10166194Y-10558924D01*
X10166194Y-10558924D02*
X10175717Y-10520829D01*
X10175717Y-10520829D02*
X10185241Y-10501781D01*
X10185241Y-10501781D02*
X10194765Y-10492258D01*
X10194765Y-10492258D02*
X10213813Y-10482734D01*
X10404289Y-10482734D02*
X10423336Y-10482734D01*
X10423336Y-10482734D02*
X10442384Y-10492258D01*
X10442384Y-10492258D02*
X10451908Y-10501781D01*
X10451908Y-10501781D02*
X10461432Y-10520829D01*
X10461432Y-10520829D02*
X10470955Y-10558924D01*
X10470955Y-10558924D02*
X10470955Y-10606543D01*
X10470955Y-10606543D02*
X10461432Y-10644639D01*
X10461432Y-10644639D02*
X10451908Y-10663686D01*
X10451908Y-10663686D02*
X10442384Y-10673210D01*
X10442384Y-10673210D02*
X10423336Y-10682734D01*
X10423336Y-10682734D02*
X10404289Y-10682734D01*
X10404289Y-10682734D02*
X10385241Y-10673210D01*
X10385241Y-10673210D02*
X10375717Y-10663686D01*
X10375717Y-10663686D02*
X10366194Y-10644639D01*
X10366194Y-10644639D02*
X10356670Y-10606543D01*
X10356670Y-10606543D02*
X10356670Y-10558924D01*
X10356670Y-10558924D02*
X10366194Y-10520829D01*
X10366194Y-10520829D02*
X10375717Y-10501781D01*
X10375717Y-10501781D02*
X10385241Y-10492258D01*
X10385241Y-10492258D02*
X10404289Y-10482734D01*
X10556670Y-10682734D02*
X10556670Y-10549400D01*
X10556670Y-10568448D02*
X10566194Y-10558924D01*
X10566194Y-10558924D02*
X10585241Y-10549400D01*
X10585241Y-10549400D02*
X10613813Y-10549400D01*
X10613813Y-10549400D02*
X10632860Y-10558924D01*
X10632860Y-10558924D02*
X10642384Y-10577972D01*
X10642384Y-10577972D02*
X10642384Y-10682734D01*
X10642384Y-10577972D02*
X10651908Y-10558924D01*
X10651908Y-10558924D02*
X10670955Y-10549400D01*
X10670955Y-10549400D02*
X10699527Y-10549400D01*
X10699527Y-10549400D02*
X10718575Y-10558924D01*
X10718575Y-10558924D02*
X10728098Y-10577972D01*
X10728098Y-10577972D02*
X10728098Y-10682734D01*
X10823336Y-10682734D02*
X10823336Y-10549400D01*
X10823336Y-10568448D02*
X10832860Y-10558924D01*
X10832860Y-10558924D02*
X10851908Y-10549400D01*
X10851908Y-10549400D02*
X10880479Y-10549400D01*
X10880479Y-10549400D02*
X10899527Y-10558924D01*
X10899527Y-10558924D02*
X10909051Y-10577972D01*
X10909051Y-10577972D02*
X10909051Y-10682734D01*
X10909051Y-10577972D02*
X10918575Y-10558924D01*
X10918575Y-10558924D02*
X10937622Y-10549400D01*
X10937622Y-10549400D02*
X10966194Y-10549400D01*
X10966194Y-10549400D02*
X10985241Y-10558924D01*
X10985241Y-10558924D02*
X10994765Y-10577972D01*
X10994765Y-10577972D02*
X10994765Y-10682734D01*
X11385241Y-10473210D02*
X11213813Y-10730353D01*
X11642384Y-10482734D02*
X11661432Y-10482734D01*
X11661432Y-10482734D02*
X11680479Y-10492258D01*
X11680479Y-10492258D02*
X11690003Y-10501781D01*
X11690003Y-10501781D02*
X11699527Y-10520829D01*
X11699527Y-10520829D02*
X11709051Y-10558924D01*
X11709051Y-10558924D02*
X11709051Y-10606543D01*
X11709051Y-10606543D02*
X11699527Y-10644639D01*
X11699527Y-10644639D02*
X11690003Y-10663686D01*
X11690003Y-10663686D02*
X11680479Y-10673210D01*
X11680479Y-10673210D02*
X11661432Y-10682734D01*
X11661432Y-10682734D02*
X11642384Y-10682734D01*
X11642384Y-10682734D02*
X11623336Y-10673210D01*
X11623336Y-10673210D02*
X11613813Y-10663686D01*
X11613813Y-10663686D02*
X11604289Y-10644639D01*
X11604289Y-10644639D02*
X11594765Y-10606543D01*
X11594765Y-10606543D02*
X11594765Y-10558924D01*
X11594765Y-10558924D02*
X11604289Y-10520829D01*
X11604289Y-10520829D02*
X11613813Y-10501781D01*
X11613813Y-10501781D02*
X11623336Y-10492258D01*
X11623336Y-10492258D02*
X11642384Y-10482734D01*
X11794765Y-10663686D02*
X11804289Y-10673210D01*
X11804289Y-10673210D02*
X11794765Y-10682734D01*
X11794765Y-10682734D02*
X11785241Y-10673210D01*
X11785241Y-10673210D02*
X11794765Y-10663686D01*
X11794765Y-10663686D02*
X11794765Y-10682734D01*
X11928098Y-10482734D02*
X11947146Y-10482734D01*
X11947146Y-10482734D02*
X11966194Y-10492258D01*
X11966194Y-10492258D02*
X11975717Y-10501781D01*
X11975717Y-10501781D02*
X11985241Y-10520829D01*
X11985241Y-10520829D02*
X11994765Y-10558924D01*
X11994765Y-10558924D02*
X11994765Y-10606543D01*
X11994765Y-10606543D02*
X11985241Y-10644639D01*
X11985241Y-10644639D02*
X11975717Y-10663686D01*
X11975717Y-10663686D02*
X11966194Y-10673210D01*
X11966194Y-10673210D02*
X11947146Y-10682734D01*
X11947146Y-10682734D02*
X11928098Y-10682734D01*
X11928098Y-10682734D02*
X11909051Y-10673210D01*
X11909051Y-10673210D02*
X11899527Y-10663686D01*
X11899527Y-10663686D02*
X11890003Y-10644639D01*
X11890003Y-10644639D02*
X11880479Y-10606543D01*
X11880479Y-10606543D02*
X11880479Y-10558924D01*
X11880479Y-10558924D02*
X11890003Y-10520829D01*
X11890003Y-10520829D02*
X11899527Y-10501781D01*
X11899527Y-10501781D02*
X11909051Y-10492258D01*
X11909051Y-10492258D02*
X11928098Y-10482734D01*
X12070956Y-10501781D02*
X12080479Y-10492258D01*
X12080479Y-10492258D02*
X12099527Y-10482734D01*
X12099527Y-10482734D02*
X12147146Y-10482734D01*
X12147146Y-10482734D02*
X12166194Y-10492258D01*
X12166194Y-10492258D02*
X12175717Y-10501781D01*
X12175717Y-10501781D02*
X12185241Y-10520829D01*
X12185241Y-10520829D02*
X12185241Y-10539877D01*
X12185241Y-10539877D02*
X12175717Y-10568448D01*
X12175717Y-10568448D02*
X12061432Y-10682734D01*
X12061432Y-10682734D02*
X12185241Y-10682734D01*
X12251908Y-10482734D02*
X12375717Y-10482734D01*
X12375717Y-10482734D02*
X12309051Y-10558924D01*
X12309051Y-10558924D02*
X12337622Y-10558924D01*
X12337622Y-10558924D02*
X12356670Y-10568448D01*
X12356670Y-10568448D02*
X12366194Y-10577972D01*
X12366194Y-10577972D02*
X12375717Y-10597020D01*
X12375717Y-10597020D02*
X12375717Y-10644639D01*
X12375717Y-10644639D02*
X12366194Y-10663686D01*
X12366194Y-10663686D02*
X12356670Y-10673210D01*
X12356670Y-10673210D02*
X12337622Y-10682734D01*
X12337622Y-10682734D02*
X12280479Y-10682734D01*
X12280479Y-10682734D02*
X12261432Y-10673210D01*
X12261432Y-10673210D02*
X12251908Y-10663686D01*
X12547146Y-10482734D02*
X12509051Y-10482734D01*
X12509051Y-10482734D02*
X12490003Y-10492258D01*
X12490003Y-10492258D02*
X12480479Y-10501781D01*
X12480479Y-10501781D02*
X12461432Y-10530353D01*
X12461432Y-10530353D02*
X12451908Y-10568448D01*
X12451908Y-10568448D02*
X12451908Y-10644639D01*
X12451908Y-10644639D02*
X12461432Y-10663686D01*
X12461432Y-10663686D02*
X12470956Y-10673210D01*
X12470956Y-10673210D02*
X12490003Y-10682734D01*
X12490003Y-10682734D02*
X12528098Y-10682734D01*
X12528098Y-10682734D02*
X12547146Y-10673210D01*
X12547146Y-10673210D02*
X12556670Y-10663686D01*
X12556670Y-10663686D02*
X12566194Y-10644639D01*
X12566194Y-10644639D02*
X12566194Y-10597020D01*
X12566194Y-10597020D02*
X12556670Y-10577972D01*
X12556670Y-10577972D02*
X12547146Y-10568448D01*
X12547146Y-10568448D02*
X12528098Y-10558924D01*
X12528098Y-10558924D02*
X12490003Y-10558924D01*
X12490003Y-10558924D02*
X12470956Y-10568448D01*
X12470956Y-10568448D02*
X12461432Y-10577972D01*
X12461432Y-10577972D02*
X12451908Y-10597020D01*
X12642384Y-10482734D02*
X12642384Y-10520829D01*
X12718575Y-10482734D02*
X12718575Y-10520829D01*
X13013813Y-10758924D02*
X13004289Y-10749400D01*
X13004289Y-10749400D02*
X12985241Y-10720829D01*
X12985241Y-10720829D02*
X12975718Y-10701781D01*
X12975718Y-10701781D02*
X12966194Y-10673210D01*
X12966194Y-10673210D02*
X12956670Y-10625591D01*
X12956670Y-10625591D02*
X12956670Y-10587496D01*
X12956670Y-10587496D02*
X12966194Y-10539877D01*
X12966194Y-10539877D02*
X12975718Y-10511305D01*
X12975718Y-10511305D02*
X12985241Y-10492258D01*
X12985241Y-10492258D02*
X13004289Y-10463686D01*
X13004289Y-10463686D02*
X13013813Y-10454162D01*
X13080479Y-10501781D02*
X13090003Y-10492258D01*
X13090003Y-10492258D02*
X13109051Y-10482734D01*
X13109051Y-10482734D02*
X13156670Y-10482734D01*
X13156670Y-10482734D02*
X13175718Y-10492258D01*
X13175718Y-10492258D02*
X13185241Y-10501781D01*
X13185241Y-10501781D02*
X13194765Y-10520829D01*
X13194765Y-10520829D02*
X13194765Y-10539877D01*
X13194765Y-10539877D02*
X13185241Y-10568448D01*
X13185241Y-10568448D02*
X13070956Y-10682734D01*
X13070956Y-10682734D02*
X13194765Y-10682734D01*
X13432860Y-10682734D02*
X13432860Y-10482734D01*
X13518575Y-10682734D02*
X13518575Y-10577972D01*
X13518575Y-10577972D02*
X13509051Y-10558924D01*
X13509051Y-10558924D02*
X13490003Y-10549400D01*
X13490003Y-10549400D02*
X13461432Y-10549400D01*
X13461432Y-10549400D02*
X13442384Y-10558924D01*
X13442384Y-10558924D02*
X13432860Y-10568448D01*
X13642384Y-10682734D02*
X13623337Y-10673210D01*
X13623337Y-10673210D02*
X13613813Y-10663686D01*
X13613813Y-10663686D02*
X13604289Y-10644639D01*
X13604289Y-10644639D02*
X13604289Y-10587496D01*
X13604289Y-10587496D02*
X13613813Y-10568448D01*
X13613813Y-10568448D02*
X13623337Y-10558924D01*
X13623337Y-10558924D02*
X13642384Y-10549400D01*
X13642384Y-10549400D02*
X13670956Y-10549400D01*
X13670956Y-10549400D02*
X13690003Y-10558924D01*
X13690003Y-10558924D02*
X13699527Y-10568448D01*
X13699527Y-10568448D02*
X13709051Y-10587496D01*
X13709051Y-10587496D02*
X13709051Y-10644639D01*
X13709051Y-10644639D02*
X13699527Y-10663686D01*
X13699527Y-10663686D02*
X13690003Y-10673210D01*
X13690003Y-10673210D02*
X13670956Y-10682734D01*
X13670956Y-10682734D02*
X13642384Y-10682734D01*
X13823337Y-10682734D02*
X13804289Y-10673210D01*
X13804289Y-10673210D02*
X13794765Y-10654162D01*
X13794765Y-10654162D02*
X13794765Y-10482734D01*
X13975718Y-10673210D02*
X13956670Y-10682734D01*
X13956670Y-10682734D02*
X13918575Y-10682734D01*
X13918575Y-10682734D02*
X13899527Y-10673210D01*
X13899527Y-10673210D02*
X13890003Y-10654162D01*
X13890003Y-10654162D02*
X13890003Y-10577972D01*
X13890003Y-10577972D02*
X13899527Y-10558924D01*
X13899527Y-10558924D02*
X13918575Y-10549400D01*
X13918575Y-10549400D02*
X13956670Y-10549400D01*
X13956670Y-10549400D02*
X13975718Y-10558924D01*
X13975718Y-10558924D02*
X13985241Y-10577972D01*
X13985241Y-10577972D02*
X13985241Y-10597020D01*
X13985241Y-10597020D02*
X13890003Y-10616067D01*
X14061432Y-10673210D02*
X14080480Y-10682734D01*
X14080480Y-10682734D02*
X14118575Y-10682734D01*
X14118575Y-10682734D02*
X14137622Y-10673210D01*
X14137622Y-10673210D02*
X14147146Y-10654162D01*
X14147146Y-10654162D02*
X14147146Y-10644639D01*
X14147146Y-10644639D02*
X14137622Y-10625591D01*
X14137622Y-10625591D02*
X14118575Y-10616067D01*
X14118575Y-10616067D02*
X14090003Y-10616067D01*
X14090003Y-10616067D02*
X14070956Y-10606543D01*
X14070956Y-10606543D02*
X14061432Y-10587496D01*
X14061432Y-10587496D02*
X14061432Y-10577972D01*
X14061432Y-10577972D02*
X14070956Y-10558924D01*
X14070956Y-10558924D02*
X14090003Y-10549400D01*
X14090003Y-10549400D02*
X14118575Y-10549400D01*
X14118575Y-10549400D02*
X14137622Y-10558924D01*
X14213813Y-10758924D02*
X14223337Y-10749400D01*
X14223337Y-10749400D02*
X14242384Y-10720829D01*
X14242384Y-10720829D02*
X14251908Y-10701781D01*
X14251908Y-10701781D02*
X14261432Y-10673210D01*
X14261432Y-10673210D02*
X14270956Y-10625591D01*
X14270956Y-10625591D02*
X14270956Y-10587496D01*
X14270956Y-10587496D02*
X14261432Y-10539877D01*
X14261432Y-10539877D02*
X14251908Y-10511305D01*
X14251908Y-10511305D02*
X14242384Y-10492258D01*
X14242384Y-10492258D02*
X14223337Y-10463686D01*
X14223337Y-10463686D02*
X14213813Y-10454162D01*
X14575718Y-10758924D02*
X14566194Y-10749400D01*
X14566194Y-10749400D02*
X14547146Y-10720829D01*
X14547146Y-10720829D02*
X14537622Y-10701781D01*
X14537622Y-10701781D02*
X14528099Y-10673210D01*
X14528099Y-10673210D02*
X14518575Y-10625591D01*
X14518575Y-10625591D02*
X14518575Y-10587496D01*
X14518575Y-10587496D02*
X14528099Y-10539877D01*
X14528099Y-10539877D02*
X14537622Y-10511305D01*
X14537622Y-10511305D02*
X14547146Y-10492258D01*
X14547146Y-10492258D02*
X14566194Y-10463686D01*
X14566194Y-10463686D02*
X14575718Y-10454162D01*
X14651908Y-10549400D02*
X14651908Y-10682734D01*
X14651908Y-10568448D02*
X14661432Y-10558924D01*
X14661432Y-10558924D02*
X14680480Y-10549400D01*
X14680480Y-10549400D02*
X14709051Y-10549400D01*
X14709051Y-10549400D02*
X14728099Y-10558924D01*
X14728099Y-10558924D02*
X14737622Y-10577972D01*
X14737622Y-10577972D02*
X14737622Y-10682734D01*
X14861432Y-10682734D02*
X14842384Y-10673210D01*
X14842384Y-10673210D02*
X14832861Y-10663686D01*
X14832861Y-10663686D02*
X14823337Y-10644639D01*
X14823337Y-10644639D02*
X14823337Y-10587496D01*
X14823337Y-10587496D02*
X14832861Y-10568448D01*
X14832861Y-10568448D02*
X14842384Y-10558924D01*
X14842384Y-10558924D02*
X14861432Y-10549400D01*
X14861432Y-10549400D02*
X14890003Y-10549400D01*
X14890003Y-10549400D02*
X14909051Y-10558924D01*
X14909051Y-10558924D02*
X14918575Y-10568448D01*
X14918575Y-10568448D02*
X14928099Y-10587496D01*
X14928099Y-10587496D02*
X14928099Y-10644639D01*
X14928099Y-10644639D02*
X14918575Y-10663686D01*
X14918575Y-10663686D02*
X14909051Y-10673210D01*
X14909051Y-10673210D02*
X14890003Y-10682734D01*
X14890003Y-10682734D02*
X14861432Y-10682734D01*
X14985242Y-10549400D02*
X15061432Y-10549400D01*
X15013813Y-10482734D02*
X15013813Y-10654162D01*
X15013813Y-10654162D02*
X15023337Y-10673210D01*
X15023337Y-10673210D02*
X15042384Y-10682734D01*
X15042384Y-10682734D02*
X15061432Y-10682734D01*
X15280480Y-10549400D02*
X15280480Y-10749400D01*
X15280480Y-10558924D02*
X15299527Y-10549400D01*
X15299527Y-10549400D02*
X15337623Y-10549400D01*
X15337623Y-10549400D02*
X15356670Y-10558924D01*
X15356670Y-10558924D02*
X15366194Y-10568448D01*
X15366194Y-10568448D02*
X15375718Y-10587496D01*
X15375718Y-10587496D02*
X15375718Y-10644639D01*
X15375718Y-10644639D02*
X15366194Y-10663686D01*
X15366194Y-10663686D02*
X15356670Y-10673210D01*
X15356670Y-10673210D02*
X15337623Y-10682734D01*
X15337623Y-10682734D02*
X15299527Y-10682734D01*
X15299527Y-10682734D02*
X15280480Y-10673210D01*
X15490003Y-10682734D02*
X15470956Y-10673210D01*
X15470956Y-10673210D02*
X15461432Y-10654162D01*
X15461432Y-10654162D02*
X15461432Y-10482734D01*
X15651908Y-10682734D02*
X15651908Y-10577972D01*
X15651908Y-10577972D02*
X15642384Y-10558924D01*
X15642384Y-10558924D02*
X15623337Y-10549400D01*
X15623337Y-10549400D02*
X15585242Y-10549400D01*
X15585242Y-10549400D02*
X15566194Y-10558924D01*
X15651908Y-10673210D02*
X15632861Y-10682734D01*
X15632861Y-10682734D02*
X15585242Y-10682734D01*
X15585242Y-10682734D02*
X15566194Y-10673210D01*
X15566194Y-10673210D02*
X15556670Y-10654162D01*
X15556670Y-10654162D02*
X15556670Y-10635115D01*
X15556670Y-10635115D02*
X15566194Y-10616067D01*
X15566194Y-10616067D02*
X15585242Y-10606543D01*
X15585242Y-10606543D02*
X15632861Y-10606543D01*
X15632861Y-10606543D02*
X15651908Y-10597020D01*
X15718575Y-10549400D02*
X15794765Y-10549400D01*
X15747146Y-10482734D02*
X15747146Y-10654162D01*
X15747146Y-10654162D02*
X15756670Y-10673210D01*
X15756670Y-10673210D02*
X15775718Y-10682734D01*
X15775718Y-10682734D02*
X15794765Y-10682734D01*
X15937623Y-10673210D02*
X15918575Y-10682734D01*
X15918575Y-10682734D02*
X15880480Y-10682734D01*
X15880480Y-10682734D02*
X15861432Y-10673210D01*
X15861432Y-10673210D02*
X15851908Y-10654162D01*
X15851908Y-10654162D02*
X15851908Y-10577972D01*
X15851908Y-10577972D02*
X15861432Y-10558924D01*
X15861432Y-10558924D02*
X15880480Y-10549400D01*
X15880480Y-10549400D02*
X15918575Y-10549400D01*
X15918575Y-10549400D02*
X15937623Y-10558924D01*
X15937623Y-10558924D02*
X15947146Y-10577972D01*
X15947146Y-10577972D02*
X15947146Y-10597020D01*
X15947146Y-10597020D02*
X15851908Y-10616067D01*
X16118575Y-10682734D02*
X16118575Y-10482734D01*
X16118575Y-10673210D02*
X16099527Y-10682734D01*
X16099527Y-10682734D02*
X16061432Y-10682734D01*
X16061432Y-10682734D02*
X16042384Y-10673210D01*
X16042384Y-10673210D02*
X16032861Y-10663686D01*
X16032861Y-10663686D02*
X16023337Y-10644639D01*
X16023337Y-10644639D02*
X16023337Y-10587496D01*
X16023337Y-10587496D02*
X16032861Y-10568448D01*
X16032861Y-10568448D02*
X16042384Y-10558924D01*
X16042384Y-10558924D02*
X16061432Y-10549400D01*
X16061432Y-10549400D02*
X16099527Y-10549400D01*
X16099527Y-10549400D02*
X16118575Y-10558924D01*
X16194765Y-10758924D02*
X16204289Y-10749400D01*
X16204289Y-10749400D02*
X16223337Y-10720829D01*
X16223337Y-10720829D02*
X16232861Y-10701781D01*
X16232861Y-10701781D02*
X16242384Y-10673210D01*
X16242384Y-10673210D02*
X16251908Y-10625591D01*
X16251908Y-10625591D02*
X16251908Y-10587496D01*
X16251908Y-10587496D02*
X16242384Y-10539877D01*
X16242384Y-10539877D02*
X16232861Y-10511305D01*
X16232861Y-10511305D02*
X16223337Y-10492258D01*
X16223337Y-10492258D02*
X16204289Y-10463686D01*
X16204289Y-10463686D02*
X16194765Y-10454162D01*
D12*
X9438750Y-10855250D02*
G75*
G02*
X9358750Y-10855250I-40000J0D01*
G01*
X9358750Y-10855250D02*
G75*
G02*
X9438750Y-10855250I40000J0D01*
G01*
D10*
X9737622Y-10746734D02*
X9756670Y-10746734D01*
X9756670Y-10746734D02*
X9775717Y-10756258D01*
X9775717Y-10756258D02*
X9785241Y-10765781D01*
X9785241Y-10765781D02*
X9794765Y-10784829D01*
X9794765Y-10784829D02*
X9804289Y-10822924D01*
X9804289Y-10822924D02*
X9804289Y-10870543D01*
X9804289Y-10870543D02*
X9794765Y-10908639D01*
X9794765Y-10908639D02*
X9785241Y-10927686D01*
X9785241Y-10927686D02*
X9775717Y-10937210D01*
X9775717Y-10937210D02*
X9756670Y-10946734D01*
X9756670Y-10946734D02*
X9737622Y-10946734D01*
X9737622Y-10946734D02*
X9718574Y-10937210D01*
X9718574Y-10937210D02*
X9709051Y-10927686D01*
X9709051Y-10927686D02*
X9699527Y-10908639D01*
X9699527Y-10908639D02*
X9690003Y-10870543D01*
X9690003Y-10870543D02*
X9690003Y-10822924D01*
X9690003Y-10822924D02*
X9699527Y-10784829D01*
X9699527Y-10784829D02*
X9709051Y-10765781D01*
X9709051Y-10765781D02*
X9718574Y-10756258D01*
X9718574Y-10756258D02*
X9737622Y-10746734D01*
X9890003Y-10927686D02*
X9899527Y-10937210D01*
X9899527Y-10937210D02*
X9890003Y-10946734D01*
X9890003Y-10946734D02*
X9880479Y-10937210D01*
X9880479Y-10937210D02*
X9890003Y-10927686D01*
X9890003Y-10927686D02*
X9890003Y-10946734D01*
X10013813Y-10832448D02*
X9994765Y-10822924D01*
X9994765Y-10822924D02*
X9985241Y-10813400D01*
X9985241Y-10813400D02*
X9975717Y-10794353D01*
X9975717Y-10794353D02*
X9975717Y-10784829D01*
X9975717Y-10784829D02*
X9985241Y-10765781D01*
X9985241Y-10765781D02*
X9994765Y-10756258D01*
X9994765Y-10756258D02*
X10013813Y-10746734D01*
X10013813Y-10746734D02*
X10051908Y-10746734D01*
X10051908Y-10746734D02*
X10070955Y-10756258D01*
X10070955Y-10756258D02*
X10080479Y-10765781D01*
X10080479Y-10765781D02*
X10090003Y-10784829D01*
X10090003Y-10784829D02*
X10090003Y-10794353D01*
X10090003Y-10794353D02*
X10080479Y-10813400D01*
X10080479Y-10813400D02*
X10070955Y-10822924D01*
X10070955Y-10822924D02*
X10051908Y-10832448D01*
X10051908Y-10832448D02*
X10013813Y-10832448D01*
X10013813Y-10832448D02*
X9994765Y-10841972D01*
X9994765Y-10841972D02*
X9985241Y-10851496D01*
X9985241Y-10851496D02*
X9975717Y-10870543D01*
X9975717Y-10870543D02*
X9975717Y-10908639D01*
X9975717Y-10908639D02*
X9985241Y-10927686D01*
X9985241Y-10927686D02*
X9994765Y-10937210D01*
X9994765Y-10937210D02*
X10013813Y-10946734D01*
X10013813Y-10946734D02*
X10051908Y-10946734D01*
X10051908Y-10946734D02*
X10070955Y-10937210D01*
X10070955Y-10937210D02*
X10080479Y-10927686D01*
X10080479Y-10927686D02*
X10090003Y-10908639D01*
X10090003Y-10908639D02*
X10090003Y-10870543D01*
X10090003Y-10870543D02*
X10080479Y-10851496D01*
X10080479Y-10851496D02*
X10070955Y-10841972D01*
X10070955Y-10841972D02*
X10051908Y-10832448D01*
X10213813Y-10746734D02*
X10232860Y-10746734D01*
X10232860Y-10746734D02*
X10251908Y-10756258D01*
X10251908Y-10756258D02*
X10261432Y-10765781D01*
X10261432Y-10765781D02*
X10270955Y-10784829D01*
X10270955Y-10784829D02*
X10280479Y-10822924D01*
X10280479Y-10822924D02*
X10280479Y-10870543D01*
X10280479Y-10870543D02*
X10270955Y-10908639D01*
X10270955Y-10908639D02*
X10261432Y-10927686D01*
X10261432Y-10927686D02*
X10251908Y-10937210D01*
X10251908Y-10937210D02*
X10232860Y-10946734D01*
X10232860Y-10946734D02*
X10213813Y-10946734D01*
X10213813Y-10946734D02*
X10194765Y-10937210D01*
X10194765Y-10937210D02*
X10185241Y-10927686D01*
X10185241Y-10927686D02*
X10175717Y-10908639D01*
X10175717Y-10908639D02*
X10166194Y-10870543D01*
X10166194Y-10870543D02*
X10166194Y-10822924D01*
X10166194Y-10822924D02*
X10175717Y-10784829D01*
X10175717Y-10784829D02*
X10185241Y-10765781D01*
X10185241Y-10765781D02*
X10194765Y-10756258D01*
X10194765Y-10756258D02*
X10213813Y-10746734D01*
X10404289Y-10746734D02*
X10423336Y-10746734D01*
X10423336Y-10746734D02*
X10442384Y-10756258D01*
X10442384Y-10756258D02*
X10451908Y-10765781D01*
X10451908Y-10765781D02*
X10461432Y-10784829D01*
X10461432Y-10784829D02*
X10470955Y-10822924D01*
X10470955Y-10822924D02*
X10470955Y-10870543D01*
X10470955Y-10870543D02*
X10461432Y-10908639D01*
X10461432Y-10908639D02*
X10451908Y-10927686D01*
X10451908Y-10927686D02*
X10442384Y-10937210D01*
X10442384Y-10937210D02*
X10423336Y-10946734D01*
X10423336Y-10946734D02*
X10404289Y-10946734D01*
X10404289Y-10946734D02*
X10385241Y-10937210D01*
X10385241Y-10937210D02*
X10375717Y-10927686D01*
X10375717Y-10927686D02*
X10366194Y-10908639D01*
X10366194Y-10908639D02*
X10356670Y-10870543D01*
X10356670Y-10870543D02*
X10356670Y-10822924D01*
X10356670Y-10822924D02*
X10366194Y-10784829D01*
X10366194Y-10784829D02*
X10375717Y-10765781D01*
X10375717Y-10765781D02*
X10385241Y-10756258D01*
X10385241Y-10756258D02*
X10404289Y-10746734D01*
X10556670Y-10946734D02*
X10556670Y-10813400D01*
X10556670Y-10832448D02*
X10566194Y-10822924D01*
X10566194Y-10822924D02*
X10585241Y-10813400D01*
X10585241Y-10813400D02*
X10613813Y-10813400D01*
X10613813Y-10813400D02*
X10632860Y-10822924D01*
X10632860Y-10822924D02*
X10642384Y-10841972D01*
X10642384Y-10841972D02*
X10642384Y-10946734D01*
X10642384Y-10841972D02*
X10651908Y-10822924D01*
X10651908Y-10822924D02*
X10670955Y-10813400D01*
X10670955Y-10813400D02*
X10699527Y-10813400D01*
X10699527Y-10813400D02*
X10718575Y-10822924D01*
X10718575Y-10822924D02*
X10728098Y-10841972D01*
X10728098Y-10841972D02*
X10728098Y-10946734D01*
X10823336Y-10946734D02*
X10823336Y-10813400D01*
X10823336Y-10832448D02*
X10832860Y-10822924D01*
X10832860Y-10822924D02*
X10851908Y-10813400D01*
X10851908Y-10813400D02*
X10880479Y-10813400D01*
X10880479Y-10813400D02*
X10899527Y-10822924D01*
X10899527Y-10822924D02*
X10909051Y-10841972D01*
X10909051Y-10841972D02*
X10909051Y-10946734D01*
X10909051Y-10841972D02*
X10918575Y-10822924D01*
X10918575Y-10822924D02*
X10937622Y-10813400D01*
X10937622Y-10813400D02*
X10966194Y-10813400D01*
X10966194Y-10813400D02*
X10985241Y-10822924D01*
X10985241Y-10822924D02*
X10994765Y-10841972D01*
X10994765Y-10841972D02*
X10994765Y-10946734D01*
X11385241Y-10737210D02*
X11213813Y-10994353D01*
X11642384Y-10746734D02*
X11661432Y-10746734D01*
X11661432Y-10746734D02*
X11680479Y-10756258D01*
X11680479Y-10756258D02*
X11690003Y-10765781D01*
X11690003Y-10765781D02*
X11699527Y-10784829D01*
X11699527Y-10784829D02*
X11709051Y-10822924D01*
X11709051Y-10822924D02*
X11709051Y-10870543D01*
X11709051Y-10870543D02*
X11699527Y-10908639D01*
X11699527Y-10908639D02*
X11690003Y-10927686D01*
X11690003Y-10927686D02*
X11680479Y-10937210D01*
X11680479Y-10937210D02*
X11661432Y-10946734D01*
X11661432Y-10946734D02*
X11642384Y-10946734D01*
X11642384Y-10946734D02*
X11623336Y-10937210D01*
X11623336Y-10937210D02*
X11613813Y-10927686D01*
X11613813Y-10927686D02*
X11604289Y-10908639D01*
X11604289Y-10908639D02*
X11594765Y-10870543D01*
X11594765Y-10870543D02*
X11594765Y-10822924D01*
X11594765Y-10822924D02*
X11604289Y-10784829D01*
X11604289Y-10784829D02*
X11613813Y-10765781D01*
X11613813Y-10765781D02*
X11623336Y-10756258D01*
X11623336Y-10756258D02*
X11642384Y-10746734D01*
X11794765Y-10927686D02*
X11804289Y-10937210D01*
X11804289Y-10937210D02*
X11794765Y-10946734D01*
X11794765Y-10946734D02*
X11785241Y-10937210D01*
X11785241Y-10937210D02*
X11794765Y-10927686D01*
X11794765Y-10927686D02*
X11794765Y-10946734D01*
X11928098Y-10746734D02*
X11947146Y-10746734D01*
X11947146Y-10746734D02*
X11966194Y-10756258D01*
X11966194Y-10756258D02*
X11975717Y-10765781D01*
X11975717Y-10765781D02*
X11985241Y-10784829D01*
X11985241Y-10784829D02*
X11994765Y-10822924D01*
X11994765Y-10822924D02*
X11994765Y-10870543D01*
X11994765Y-10870543D02*
X11985241Y-10908639D01*
X11985241Y-10908639D02*
X11975717Y-10927686D01*
X11975717Y-10927686D02*
X11966194Y-10937210D01*
X11966194Y-10937210D02*
X11947146Y-10946734D01*
X11947146Y-10946734D02*
X11928098Y-10946734D01*
X11928098Y-10946734D02*
X11909051Y-10937210D01*
X11909051Y-10937210D02*
X11899527Y-10927686D01*
X11899527Y-10927686D02*
X11890003Y-10908639D01*
X11890003Y-10908639D02*
X11880479Y-10870543D01*
X11880479Y-10870543D02*
X11880479Y-10822924D01*
X11880479Y-10822924D02*
X11890003Y-10784829D01*
X11890003Y-10784829D02*
X11899527Y-10765781D01*
X11899527Y-10765781D02*
X11909051Y-10756258D01*
X11909051Y-10756258D02*
X11928098Y-10746734D01*
X12061432Y-10746734D02*
X12185241Y-10746734D01*
X12185241Y-10746734D02*
X12118575Y-10822924D01*
X12118575Y-10822924D02*
X12147146Y-10822924D01*
X12147146Y-10822924D02*
X12166194Y-10832448D01*
X12166194Y-10832448D02*
X12175717Y-10841972D01*
X12175717Y-10841972D02*
X12185241Y-10861020D01*
X12185241Y-10861020D02*
X12185241Y-10908639D01*
X12185241Y-10908639D02*
X12175717Y-10927686D01*
X12175717Y-10927686D02*
X12166194Y-10937210D01*
X12166194Y-10937210D02*
X12147146Y-10946734D01*
X12147146Y-10946734D02*
X12090003Y-10946734D01*
X12090003Y-10946734D02*
X12070956Y-10937210D01*
X12070956Y-10937210D02*
X12061432Y-10927686D01*
X12375717Y-10946734D02*
X12261432Y-10946734D01*
X12318575Y-10946734D02*
X12318575Y-10746734D01*
X12318575Y-10746734D02*
X12299527Y-10775305D01*
X12299527Y-10775305D02*
X12280479Y-10794353D01*
X12280479Y-10794353D02*
X12261432Y-10803877D01*
X12556670Y-10746734D02*
X12461432Y-10746734D01*
X12461432Y-10746734D02*
X12451908Y-10841972D01*
X12451908Y-10841972D02*
X12461432Y-10832448D01*
X12461432Y-10832448D02*
X12480479Y-10822924D01*
X12480479Y-10822924D02*
X12528098Y-10822924D01*
X12528098Y-10822924D02*
X12547146Y-10832448D01*
X12547146Y-10832448D02*
X12556670Y-10841972D01*
X12556670Y-10841972D02*
X12566194Y-10861020D01*
X12566194Y-10861020D02*
X12566194Y-10908639D01*
X12566194Y-10908639D02*
X12556670Y-10927686D01*
X12556670Y-10927686D02*
X12547146Y-10937210D01*
X12547146Y-10937210D02*
X12528098Y-10946734D01*
X12528098Y-10946734D02*
X12480479Y-10946734D01*
X12480479Y-10946734D02*
X12461432Y-10937210D01*
X12461432Y-10937210D02*
X12451908Y-10927686D01*
X12642384Y-10746734D02*
X12642384Y-10784829D01*
X12718575Y-10746734D02*
X12718575Y-10784829D01*
X13013813Y-11022924D02*
X13004289Y-11013400D01*
X13004289Y-11013400D02*
X12985241Y-10984829D01*
X12985241Y-10984829D02*
X12975718Y-10965781D01*
X12975718Y-10965781D02*
X12966194Y-10937210D01*
X12966194Y-10937210D02*
X12956670Y-10889591D01*
X12956670Y-10889591D02*
X12956670Y-10851496D01*
X12956670Y-10851496D02*
X12966194Y-10803877D01*
X12966194Y-10803877D02*
X12975718Y-10775305D01*
X12975718Y-10775305D02*
X12985241Y-10756258D01*
X12985241Y-10756258D02*
X13004289Y-10727686D01*
X13004289Y-10727686D02*
X13013813Y-10718162D01*
X13128098Y-10746734D02*
X13147146Y-10746734D01*
X13147146Y-10746734D02*
X13166194Y-10756258D01*
X13166194Y-10756258D02*
X13175718Y-10765781D01*
X13175718Y-10765781D02*
X13185241Y-10784829D01*
X13185241Y-10784829D02*
X13194765Y-10822924D01*
X13194765Y-10822924D02*
X13194765Y-10870543D01*
X13194765Y-10870543D02*
X13185241Y-10908639D01*
X13185241Y-10908639D02*
X13175718Y-10927686D01*
X13175718Y-10927686D02*
X13166194Y-10937210D01*
X13166194Y-10937210D02*
X13147146Y-10946734D01*
X13147146Y-10946734D02*
X13128098Y-10946734D01*
X13128098Y-10946734D02*
X13109051Y-10937210D01*
X13109051Y-10937210D02*
X13099527Y-10927686D01*
X13099527Y-10927686D02*
X13090003Y-10908639D01*
X13090003Y-10908639D02*
X13080479Y-10870543D01*
X13080479Y-10870543D02*
X13080479Y-10822924D01*
X13080479Y-10822924D02*
X13090003Y-10784829D01*
X13090003Y-10784829D02*
X13099527Y-10765781D01*
X13099527Y-10765781D02*
X13109051Y-10756258D01*
X13109051Y-10756258D02*
X13128098Y-10746734D01*
X13432860Y-10946734D02*
X13432860Y-10746734D01*
X13518575Y-10946734D02*
X13518575Y-10841972D01*
X13518575Y-10841972D02*
X13509051Y-10822924D01*
X13509051Y-10822924D02*
X13490003Y-10813400D01*
X13490003Y-10813400D02*
X13461432Y-10813400D01*
X13461432Y-10813400D02*
X13442384Y-10822924D01*
X13442384Y-10822924D02*
X13432860Y-10832448D01*
X13642384Y-10946734D02*
X13623337Y-10937210D01*
X13623337Y-10937210D02*
X13613813Y-10927686D01*
X13613813Y-10927686D02*
X13604289Y-10908639D01*
X13604289Y-10908639D02*
X13604289Y-10851496D01*
X13604289Y-10851496D02*
X13613813Y-10832448D01*
X13613813Y-10832448D02*
X13623337Y-10822924D01*
X13623337Y-10822924D02*
X13642384Y-10813400D01*
X13642384Y-10813400D02*
X13670956Y-10813400D01*
X13670956Y-10813400D02*
X13690003Y-10822924D01*
X13690003Y-10822924D02*
X13699527Y-10832448D01*
X13699527Y-10832448D02*
X13709051Y-10851496D01*
X13709051Y-10851496D02*
X13709051Y-10908639D01*
X13709051Y-10908639D02*
X13699527Y-10927686D01*
X13699527Y-10927686D02*
X13690003Y-10937210D01*
X13690003Y-10937210D02*
X13670956Y-10946734D01*
X13670956Y-10946734D02*
X13642384Y-10946734D01*
X13823337Y-10946734D02*
X13804289Y-10937210D01*
X13804289Y-10937210D02*
X13794765Y-10918162D01*
X13794765Y-10918162D02*
X13794765Y-10746734D01*
X13975718Y-10937210D02*
X13956670Y-10946734D01*
X13956670Y-10946734D02*
X13918575Y-10946734D01*
X13918575Y-10946734D02*
X13899527Y-10937210D01*
X13899527Y-10937210D02*
X13890003Y-10918162D01*
X13890003Y-10918162D02*
X13890003Y-10841972D01*
X13890003Y-10841972D02*
X13899527Y-10822924D01*
X13899527Y-10822924D02*
X13918575Y-10813400D01*
X13918575Y-10813400D02*
X13956670Y-10813400D01*
X13956670Y-10813400D02*
X13975718Y-10822924D01*
X13975718Y-10822924D02*
X13985241Y-10841972D01*
X13985241Y-10841972D02*
X13985241Y-10861020D01*
X13985241Y-10861020D02*
X13890003Y-10880067D01*
X14061432Y-10937210D02*
X14080480Y-10946734D01*
X14080480Y-10946734D02*
X14118575Y-10946734D01*
X14118575Y-10946734D02*
X14137622Y-10937210D01*
X14137622Y-10937210D02*
X14147146Y-10918162D01*
X14147146Y-10918162D02*
X14147146Y-10908639D01*
X14147146Y-10908639D02*
X14137622Y-10889591D01*
X14137622Y-10889591D02*
X14118575Y-10880067D01*
X14118575Y-10880067D02*
X14090003Y-10880067D01*
X14090003Y-10880067D02*
X14070956Y-10870543D01*
X14070956Y-10870543D02*
X14061432Y-10851496D01*
X14061432Y-10851496D02*
X14061432Y-10841972D01*
X14061432Y-10841972D02*
X14070956Y-10822924D01*
X14070956Y-10822924D02*
X14090003Y-10813400D01*
X14090003Y-10813400D02*
X14118575Y-10813400D01*
X14118575Y-10813400D02*
X14137622Y-10822924D01*
X14385242Y-10870543D02*
X14537623Y-10870543D01*
X14461432Y-10946734D02*
X14461432Y-10794353D01*
X14870956Y-10813400D02*
X14870956Y-10946734D01*
X14823337Y-10737210D02*
X14775718Y-10880067D01*
X14775718Y-10880067D02*
X14899527Y-10880067D01*
X15118575Y-10937210D02*
X15137623Y-10946734D01*
X15137623Y-10946734D02*
X15175718Y-10946734D01*
X15175718Y-10946734D02*
X15194765Y-10937210D01*
X15194765Y-10937210D02*
X15204289Y-10918162D01*
X15204289Y-10918162D02*
X15204289Y-10908639D01*
X15204289Y-10908639D02*
X15194765Y-10889591D01*
X15194765Y-10889591D02*
X15175718Y-10880067D01*
X15175718Y-10880067D02*
X15147146Y-10880067D01*
X15147146Y-10880067D02*
X15128099Y-10870543D01*
X15128099Y-10870543D02*
X15118575Y-10851496D01*
X15118575Y-10851496D02*
X15118575Y-10841972D01*
X15118575Y-10841972D02*
X15128099Y-10822924D01*
X15128099Y-10822924D02*
X15147146Y-10813400D01*
X15147146Y-10813400D02*
X15175718Y-10813400D01*
X15175718Y-10813400D02*
X15194765Y-10822924D01*
X15318575Y-10946734D02*
X15299527Y-10937210D01*
X15299527Y-10937210D02*
X15290004Y-10918162D01*
X15290004Y-10918162D02*
X15290004Y-10746734D01*
X15423337Y-10946734D02*
X15404289Y-10937210D01*
X15404289Y-10937210D02*
X15394765Y-10927686D01*
X15394765Y-10927686D02*
X15385242Y-10908639D01*
X15385242Y-10908639D02*
X15385242Y-10851496D01*
X15385242Y-10851496D02*
X15394765Y-10832448D01*
X15394765Y-10832448D02*
X15404289Y-10822924D01*
X15404289Y-10822924D02*
X15423337Y-10813400D01*
X15423337Y-10813400D02*
X15451908Y-10813400D01*
X15451908Y-10813400D02*
X15470956Y-10822924D01*
X15470956Y-10822924D02*
X15480480Y-10832448D01*
X15480480Y-10832448D02*
X15490004Y-10851496D01*
X15490004Y-10851496D02*
X15490004Y-10908639D01*
X15490004Y-10908639D02*
X15480480Y-10927686D01*
X15480480Y-10927686D02*
X15470956Y-10937210D01*
X15470956Y-10937210D02*
X15451908Y-10946734D01*
X15451908Y-10946734D02*
X15423337Y-10946734D01*
X15547146Y-10813400D02*
X15623337Y-10813400D01*
X15575718Y-10746734D02*
X15575718Y-10918162D01*
X15575718Y-10918162D02*
X15585242Y-10937210D01*
X15585242Y-10937210D02*
X15604289Y-10946734D01*
X15604289Y-10946734D02*
X15623337Y-10946734D01*
X15680480Y-10937210D02*
X15699527Y-10946734D01*
X15699527Y-10946734D02*
X15737623Y-10946734D01*
X15737623Y-10946734D02*
X15756670Y-10937210D01*
X15756670Y-10937210D02*
X15766194Y-10918162D01*
X15766194Y-10918162D02*
X15766194Y-10908639D01*
X15766194Y-10908639D02*
X15756670Y-10889591D01*
X15756670Y-10889591D02*
X15737623Y-10880067D01*
X15737623Y-10880067D02*
X15709051Y-10880067D01*
X15709051Y-10880067D02*
X15690004Y-10870543D01*
X15690004Y-10870543D02*
X15680480Y-10851496D01*
X15680480Y-10851496D02*
X15680480Y-10841972D01*
X15680480Y-10841972D02*
X15690004Y-10822924D01*
X15690004Y-10822924D02*
X15709051Y-10813400D01*
X15709051Y-10813400D02*
X15737623Y-10813400D01*
X15737623Y-10813400D02*
X15756670Y-10822924D01*
X15832861Y-11022924D02*
X15842385Y-11013400D01*
X15842385Y-11013400D02*
X15861432Y-10984829D01*
X15861432Y-10984829D02*
X15870956Y-10965781D01*
X15870956Y-10965781D02*
X15880480Y-10937210D01*
X15880480Y-10937210D02*
X15890004Y-10889591D01*
X15890004Y-10889591D02*
X15890004Y-10851496D01*
X15890004Y-10851496D02*
X15880480Y-10803877D01*
X15880480Y-10803877D02*
X15870956Y-10775305D01*
X15870956Y-10775305D02*
X15861432Y-10756258D01*
X15861432Y-10756258D02*
X15842385Y-10727686D01*
X15842385Y-10727686D02*
X15832861Y-10718162D01*
X16194766Y-11022924D02*
X16185242Y-11013400D01*
X16185242Y-11013400D02*
X16166194Y-10984829D01*
X16166194Y-10984829D02*
X16156670Y-10965781D01*
X16156670Y-10965781D02*
X16147146Y-10937210D01*
X16147146Y-10937210D02*
X16137623Y-10889591D01*
X16137623Y-10889591D02*
X16137623Y-10851496D01*
X16137623Y-10851496D02*
X16147146Y-10803877D01*
X16147146Y-10803877D02*
X16156670Y-10775305D01*
X16156670Y-10775305D02*
X16166194Y-10756258D01*
X16166194Y-10756258D02*
X16185242Y-10727686D01*
X16185242Y-10727686D02*
X16194766Y-10718162D01*
X16270956Y-10813400D02*
X16270956Y-10946734D01*
X16270956Y-10832448D02*
X16280480Y-10822924D01*
X16280480Y-10822924D02*
X16299527Y-10813400D01*
X16299527Y-10813400D02*
X16328099Y-10813400D01*
X16328099Y-10813400D02*
X16347146Y-10822924D01*
X16347146Y-10822924D02*
X16356670Y-10841972D01*
X16356670Y-10841972D02*
X16356670Y-10946734D01*
X16480480Y-10946734D02*
X16461432Y-10937210D01*
X16461432Y-10937210D02*
X16451908Y-10927686D01*
X16451908Y-10927686D02*
X16442385Y-10908639D01*
X16442385Y-10908639D02*
X16442385Y-10851496D01*
X16442385Y-10851496D02*
X16451908Y-10832448D01*
X16451908Y-10832448D02*
X16461432Y-10822924D01*
X16461432Y-10822924D02*
X16480480Y-10813400D01*
X16480480Y-10813400D02*
X16509051Y-10813400D01*
X16509051Y-10813400D02*
X16528099Y-10822924D01*
X16528099Y-10822924D02*
X16537623Y-10832448D01*
X16537623Y-10832448D02*
X16547146Y-10851496D01*
X16547146Y-10851496D02*
X16547146Y-10908639D01*
X16547146Y-10908639D02*
X16537623Y-10927686D01*
X16537623Y-10927686D02*
X16528099Y-10937210D01*
X16528099Y-10937210D02*
X16509051Y-10946734D01*
X16509051Y-10946734D02*
X16480480Y-10946734D01*
X16604289Y-10813400D02*
X16680480Y-10813400D01*
X16632861Y-10746734D02*
X16632861Y-10918162D01*
X16632861Y-10918162D02*
X16642385Y-10937210D01*
X16642385Y-10937210D02*
X16661432Y-10946734D01*
X16661432Y-10946734D02*
X16680480Y-10946734D01*
X16899528Y-10813400D02*
X16899528Y-11013400D01*
X16899528Y-10822924D02*
X16918575Y-10813400D01*
X16918575Y-10813400D02*
X16956670Y-10813400D01*
X16956670Y-10813400D02*
X16975718Y-10822924D01*
X16975718Y-10822924D02*
X16985242Y-10832448D01*
X16985242Y-10832448D02*
X16994766Y-10851496D01*
X16994766Y-10851496D02*
X16994766Y-10908639D01*
X16994766Y-10908639D02*
X16985242Y-10927686D01*
X16985242Y-10927686D02*
X16975718Y-10937210D01*
X16975718Y-10937210D02*
X16956670Y-10946734D01*
X16956670Y-10946734D02*
X16918575Y-10946734D01*
X16918575Y-10946734D02*
X16899528Y-10937210D01*
X17109051Y-10946734D02*
X17090004Y-10937210D01*
X17090004Y-10937210D02*
X17080480Y-10918162D01*
X17080480Y-10918162D02*
X17080480Y-10746734D01*
X17270956Y-10946734D02*
X17270956Y-10841972D01*
X17270956Y-10841972D02*
X17261432Y-10822924D01*
X17261432Y-10822924D02*
X17242385Y-10813400D01*
X17242385Y-10813400D02*
X17204289Y-10813400D01*
X17204289Y-10813400D02*
X17185242Y-10822924D01*
X17270956Y-10937210D02*
X17251909Y-10946734D01*
X17251909Y-10946734D02*
X17204289Y-10946734D01*
X17204289Y-10946734D02*
X17185242Y-10937210D01*
X17185242Y-10937210D02*
X17175718Y-10918162D01*
X17175718Y-10918162D02*
X17175718Y-10899115D01*
X17175718Y-10899115D02*
X17185242Y-10880067D01*
X17185242Y-10880067D02*
X17204289Y-10870543D01*
X17204289Y-10870543D02*
X17251909Y-10870543D01*
X17251909Y-10870543D02*
X17270956Y-10861020D01*
X17337623Y-10813400D02*
X17413813Y-10813400D01*
X17366194Y-10746734D02*
X17366194Y-10918162D01*
X17366194Y-10918162D02*
X17375718Y-10937210D01*
X17375718Y-10937210D02*
X17394766Y-10946734D01*
X17394766Y-10946734D02*
X17413813Y-10946734D01*
X17556670Y-10937210D02*
X17537623Y-10946734D01*
X17537623Y-10946734D02*
X17499528Y-10946734D01*
X17499528Y-10946734D02*
X17480480Y-10937210D01*
X17480480Y-10937210D02*
X17470956Y-10918162D01*
X17470956Y-10918162D02*
X17470956Y-10841972D01*
X17470956Y-10841972D02*
X17480480Y-10822924D01*
X17480480Y-10822924D02*
X17499528Y-10813400D01*
X17499528Y-10813400D02*
X17537623Y-10813400D01*
X17537623Y-10813400D02*
X17556670Y-10822924D01*
X17556670Y-10822924D02*
X17566194Y-10841972D01*
X17566194Y-10841972D02*
X17566194Y-10861020D01*
X17566194Y-10861020D02*
X17470956Y-10880067D01*
X17737623Y-10946734D02*
X17737623Y-10746734D01*
X17737623Y-10937210D02*
X17718575Y-10946734D01*
X17718575Y-10946734D02*
X17680480Y-10946734D01*
X17680480Y-10946734D02*
X17661432Y-10937210D01*
X17661432Y-10937210D02*
X17651909Y-10927686D01*
X17651909Y-10927686D02*
X17642385Y-10908639D01*
X17642385Y-10908639D02*
X17642385Y-10851496D01*
X17642385Y-10851496D02*
X17651909Y-10832448D01*
X17651909Y-10832448D02*
X17661432Y-10822924D01*
X17661432Y-10822924D02*
X17680480Y-10813400D01*
X17680480Y-10813400D02*
X17718575Y-10813400D01*
X17718575Y-10813400D02*
X17737623Y-10822924D01*
X17813813Y-11022924D02*
X17823337Y-11013400D01*
X17823337Y-11013400D02*
X17842385Y-10984829D01*
X17842385Y-10984829D02*
X17851909Y-10965781D01*
X17851909Y-10965781D02*
X17861432Y-10937210D01*
X17861432Y-10937210D02*
X17870956Y-10889591D01*
X17870956Y-10889591D02*
X17870956Y-10851496D01*
X17870956Y-10851496D02*
X17861432Y-10803877D01*
X17861432Y-10803877D02*
X17851909Y-10775305D01*
X17851909Y-10775305D02*
X17842385Y-10756258D01*
X17842385Y-10756258D02*
X17823337Y-10727686D01*
X17823337Y-10727686D02*
X17813813Y-10718162D01*
D13*
X9378750Y-11059250D02*
X9378750Y-11179250D01*
X9318750Y-11119250D02*
X9438750Y-11119250D01*
D10*
X9804289Y-11210734D02*
X9690003Y-11210734D01*
X9747146Y-11210734D02*
X9747146Y-11010734D01*
X9747146Y-11010734D02*
X9728098Y-11039305D01*
X9728098Y-11039305D02*
X9709051Y-11058353D01*
X9709051Y-11058353D02*
X9690003Y-11067877D01*
X9890003Y-11191686D02*
X9899527Y-11201210D01*
X9899527Y-11201210D02*
X9890003Y-11210734D01*
X9890003Y-11210734D02*
X9880479Y-11201210D01*
X9880479Y-11201210D02*
X9890003Y-11191686D01*
X9890003Y-11191686D02*
X9890003Y-11210734D01*
X9975717Y-11029781D02*
X9985241Y-11020258D01*
X9985241Y-11020258D02*
X10004289Y-11010734D01*
X10004289Y-11010734D02*
X10051908Y-11010734D01*
X10051908Y-11010734D02*
X10070955Y-11020258D01*
X10070955Y-11020258D02*
X10080479Y-11029781D01*
X10080479Y-11029781D02*
X10090003Y-11048829D01*
X10090003Y-11048829D02*
X10090003Y-11067877D01*
X10090003Y-11067877D02*
X10080479Y-11096448D01*
X10080479Y-11096448D02*
X9966194Y-11210734D01*
X9966194Y-11210734D02*
X10090003Y-11210734D01*
X10213813Y-11010734D02*
X10232860Y-11010734D01*
X10232860Y-11010734D02*
X10251908Y-11020258D01*
X10251908Y-11020258D02*
X10261432Y-11029781D01*
X10261432Y-11029781D02*
X10270955Y-11048829D01*
X10270955Y-11048829D02*
X10280479Y-11086924D01*
X10280479Y-11086924D02*
X10280479Y-11134543D01*
X10280479Y-11134543D02*
X10270955Y-11172639D01*
X10270955Y-11172639D02*
X10261432Y-11191686D01*
X10261432Y-11191686D02*
X10251908Y-11201210D01*
X10251908Y-11201210D02*
X10232860Y-11210734D01*
X10232860Y-11210734D02*
X10213813Y-11210734D01*
X10213813Y-11210734D02*
X10194765Y-11201210D01*
X10194765Y-11201210D02*
X10185241Y-11191686D01*
X10185241Y-11191686D02*
X10175717Y-11172639D01*
X10175717Y-11172639D02*
X10166194Y-11134543D01*
X10166194Y-11134543D02*
X10166194Y-11086924D01*
X10166194Y-11086924D02*
X10175717Y-11048829D01*
X10175717Y-11048829D02*
X10185241Y-11029781D01*
X10185241Y-11029781D02*
X10194765Y-11020258D01*
X10194765Y-11020258D02*
X10213813Y-11010734D01*
X10404289Y-11010734D02*
X10423336Y-11010734D01*
X10423336Y-11010734D02*
X10442384Y-11020258D01*
X10442384Y-11020258D02*
X10451908Y-11029781D01*
X10451908Y-11029781D02*
X10461432Y-11048829D01*
X10461432Y-11048829D02*
X10470955Y-11086924D01*
X10470955Y-11086924D02*
X10470955Y-11134543D01*
X10470955Y-11134543D02*
X10461432Y-11172639D01*
X10461432Y-11172639D02*
X10451908Y-11191686D01*
X10451908Y-11191686D02*
X10442384Y-11201210D01*
X10442384Y-11201210D02*
X10423336Y-11210734D01*
X10423336Y-11210734D02*
X10404289Y-11210734D01*
X10404289Y-11210734D02*
X10385241Y-11201210D01*
X10385241Y-11201210D02*
X10375717Y-11191686D01*
X10375717Y-11191686D02*
X10366194Y-11172639D01*
X10366194Y-11172639D02*
X10356670Y-11134543D01*
X10356670Y-11134543D02*
X10356670Y-11086924D01*
X10356670Y-11086924D02*
X10366194Y-11048829D01*
X10366194Y-11048829D02*
X10375717Y-11029781D01*
X10375717Y-11029781D02*
X10385241Y-11020258D01*
X10385241Y-11020258D02*
X10404289Y-11010734D01*
X10556670Y-11210734D02*
X10556670Y-11077400D01*
X10556670Y-11096448D02*
X10566194Y-11086924D01*
X10566194Y-11086924D02*
X10585241Y-11077400D01*
X10585241Y-11077400D02*
X10613813Y-11077400D01*
X10613813Y-11077400D02*
X10632860Y-11086924D01*
X10632860Y-11086924D02*
X10642384Y-11105972D01*
X10642384Y-11105972D02*
X10642384Y-11210734D01*
X10642384Y-11105972D02*
X10651908Y-11086924D01*
X10651908Y-11086924D02*
X10670955Y-11077400D01*
X10670955Y-11077400D02*
X10699527Y-11077400D01*
X10699527Y-11077400D02*
X10718575Y-11086924D01*
X10718575Y-11086924D02*
X10728098Y-11105972D01*
X10728098Y-11105972D02*
X10728098Y-11210734D01*
X10823336Y-11210734D02*
X10823336Y-11077400D01*
X10823336Y-11096448D02*
X10832860Y-11086924D01*
X10832860Y-11086924D02*
X10851908Y-11077400D01*
X10851908Y-11077400D02*
X10880479Y-11077400D01*
X10880479Y-11077400D02*
X10899527Y-11086924D01*
X10899527Y-11086924D02*
X10909051Y-11105972D01*
X10909051Y-11105972D02*
X10909051Y-11210734D01*
X10909051Y-11105972D02*
X10918575Y-11086924D01*
X10918575Y-11086924D02*
X10937622Y-11077400D01*
X10937622Y-11077400D02*
X10966194Y-11077400D01*
X10966194Y-11077400D02*
X10985241Y-11086924D01*
X10985241Y-11086924D02*
X10994765Y-11105972D01*
X10994765Y-11105972D02*
X10994765Y-11210734D01*
X11385241Y-11001210D02*
X11213813Y-11258353D01*
X11642384Y-11010734D02*
X11661432Y-11010734D01*
X11661432Y-11010734D02*
X11680479Y-11020258D01*
X11680479Y-11020258D02*
X11690003Y-11029781D01*
X11690003Y-11029781D02*
X11699527Y-11048829D01*
X11699527Y-11048829D02*
X11709051Y-11086924D01*
X11709051Y-11086924D02*
X11709051Y-11134543D01*
X11709051Y-11134543D02*
X11699527Y-11172639D01*
X11699527Y-11172639D02*
X11690003Y-11191686D01*
X11690003Y-11191686D02*
X11680479Y-11201210D01*
X11680479Y-11201210D02*
X11661432Y-11210734D01*
X11661432Y-11210734D02*
X11642384Y-11210734D01*
X11642384Y-11210734D02*
X11623336Y-11201210D01*
X11623336Y-11201210D02*
X11613813Y-11191686D01*
X11613813Y-11191686D02*
X11604289Y-11172639D01*
X11604289Y-11172639D02*
X11594765Y-11134543D01*
X11594765Y-11134543D02*
X11594765Y-11086924D01*
X11594765Y-11086924D02*
X11604289Y-11048829D01*
X11604289Y-11048829D02*
X11613813Y-11029781D01*
X11613813Y-11029781D02*
X11623336Y-11020258D01*
X11623336Y-11020258D02*
X11642384Y-11010734D01*
X11794765Y-11191686D02*
X11804289Y-11201210D01*
X11804289Y-11201210D02*
X11794765Y-11210734D01*
X11794765Y-11210734D02*
X11785241Y-11201210D01*
X11785241Y-11201210D02*
X11794765Y-11191686D01*
X11794765Y-11191686D02*
X11794765Y-11210734D01*
X11928098Y-11010734D02*
X11947146Y-11010734D01*
X11947146Y-11010734D02*
X11966194Y-11020258D01*
X11966194Y-11020258D02*
X11975717Y-11029781D01*
X11975717Y-11029781D02*
X11985241Y-11048829D01*
X11985241Y-11048829D02*
X11994765Y-11086924D01*
X11994765Y-11086924D02*
X11994765Y-11134543D01*
X11994765Y-11134543D02*
X11985241Y-11172639D01*
X11985241Y-11172639D02*
X11975717Y-11191686D01*
X11975717Y-11191686D02*
X11966194Y-11201210D01*
X11966194Y-11201210D02*
X11947146Y-11210734D01*
X11947146Y-11210734D02*
X11928098Y-11210734D01*
X11928098Y-11210734D02*
X11909051Y-11201210D01*
X11909051Y-11201210D02*
X11899527Y-11191686D01*
X11899527Y-11191686D02*
X11890003Y-11172639D01*
X11890003Y-11172639D02*
X11880479Y-11134543D01*
X11880479Y-11134543D02*
X11880479Y-11086924D01*
X11880479Y-11086924D02*
X11890003Y-11048829D01*
X11890003Y-11048829D02*
X11899527Y-11029781D01*
X11899527Y-11029781D02*
X11909051Y-11020258D01*
X11909051Y-11020258D02*
X11928098Y-11010734D01*
X12166194Y-11077400D02*
X12166194Y-11210734D01*
X12118575Y-11001210D02*
X12070956Y-11144067D01*
X12070956Y-11144067D02*
X12194765Y-11144067D01*
X12251908Y-11010734D02*
X12385241Y-11010734D01*
X12385241Y-11010734D02*
X12299527Y-11210734D01*
X12451908Y-11029781D02*
X12461432Y-11020258D01*
X12461432Y-11020258D02*
X12480479Y-11010734D01*
X12480479Y-11010734D02*
X12528098Y-11010734D01*
X12528098Y-11010734D02*
X12547146Y-11020258D01*
X12547146Y-11020258D02*
X12556670Y-11029781D01*
X12556670Y-11029781D02*
X12566194Y-11048829D01*
X12566194Y-11048829D02*
X12566194Y-11067877D01*
X12566194Y-11067877D02*
X12556670Y-11096448D01*
X12556670Y-11096448D02*
X12442384Y-11210734D01*
X12442384Y-11210734D02*
X12566194Y-11210734D01*
X12642384Y-11010734D02*
X12642384Y-11048829D01*
X12718575Y-11010734D02*
X12718575Y-11048829D01*
X13013813Y-11286924D02*
X13004289Y-11277400D01*
X13004289Y-11277400D02*
X12985241Y-11248829D01*
X12985241Y-11248829D02*
X12975718Y-11229781D01*
X12975718Y-11229781D02*
X12966194Y-11201210D01*
X12966194Y-11201210D02*
X12956670Y-11153591D01*
X12956670Y-11153591D02*
X12956670Y-11115496D01*
X12956670Y-11115496D02*
X12966194Y-11067877D01*
X12966194Y-11067877D02*
X12975718Y-11039305D01*
X12975718Y-11039305D02*
X12985241Y-11020258D01*
X12985241Y-11020258D02*
X13004289Y-10991686D01*
X13004289Y-10991686D02*
X13013813Y-10982162D01*
X13080479Y-11029781D02*
X13090003Y-11020258D01*
X13090003Y-11020258D02*
X13109051Y-11010734D01*
X13109051Y-11010734D02*
X13156670Y-11010734D01*
X13156670Y-11010734D02*
X13175718Y-11020258D01*
X13175718Y-11020258D02*
X13185241Y-11029781D01*
X13185241Y-11029781D02*
X13194765Y-11048829D01*
X13194765Y-11048829D02*
X13194765Y-11067877D01*
X13194765Y-11067877D02*
X13185241Y-11096448D01*
X13185241Y-11096448D02*
X13070956Y-11210734D01*
X13070956Y-11210734D02*
X13194765Y-11210734D01*
X13432860Y-11210734D02*
X13432860Y-11010734D01*
X13518575Y-11210734D02*
X13518575Y-11105972D01*
X13518575Y-11105972D02*
X13509051Y-11086924D01*
X13509051Y-11086924D02*
X13490003Y-11077400D01*
X13490003Y-11077400D02*
X13461432Y-11077400D01*
X13461432Y-11077400D02*
X13442384Y-11086924D01*
X13442384Y-11086924D02*
X13432860Y-11096448D01*
X13642384Y-11210734D02*
X13623337Y-11201210D01*
X13623337Y-11201210D02*
X13613813Y-11191686D01*
X13613813Y-11191686D02*
X13604289Y-11172639D01*
X13604289Y-11172639D02*
X13604289Y-11115496D01*
X13604289Y-11115496D02*
X13613813Y-11096448D01*
X13613813Y-11096448D02*
X13623337Y-11086924D01*
X13623337Y-11086924D02*
X13642384Y-11077400D01*
X13642384Y-11077400D02*
X13670956Y-11077400D01*
X13670956Y-11077400D02*
X13690003Y-11086924D01*
X13690003Y-11086924D02*
X13699527Y-11096448D01*
X13699527Y-11096448D02*
X13709051Y-11115496D01*
X13709051Y-11115496D02*
X13709051Y-11172639D01*
X13709051Y-11172639D02*
X13699527Y-11191686D01*
X13699527Y-11191686D02*
X13690003Y-11201210D01*
X13690003Y-11201210D02*
X13670956Y-11210734D01*
X13670956Y-11210734D02*
X13642384Y-11210734D01*
X13823337Y-11210734D02*
X13804289Y-11201210D01*
X13804289Y-11201210D02*
X13794765Y-11182162D01*
X13794765Y-11182162D02*
X13794765Y-11010734D01*
X13975718Y-11201210D02*
X13956670Y-11210734D01*
X13956670Y-11210734D02*
X13918575Y-11210734D01*
X13918575Y-11210734D02*
X13899527Y-11201210D01*
X13899527Y-11201210D02*
X13890003Y-11182162D01*
X13890003Y-11182162D02*
X13890003Y-11105972D01*
X13890003Y-11105972D02*
X13899527Y-11086924D01*
X13899527Y-11086924D02*
X13918575Y-11077400D01*
X13918575Y-11077400D02*
X13956670Y-11077400D01*
X13956670Y-11077400D02*
X13975718Y-11086924D01*
X13975718Y-11086924D02*
X13985241Y-11105972D01*
X13985241Y-11105972D02*
X13985241Y-11125020D01*
X13985241Y-11125020D02*
X13890003Y-11144067D01*
X14061432Y-11201210D02*
X14080480Y-11210734D01*
X14080480Y-11210734D02*
X14118575Y-11210734D01*
X14118575Y-11210734D02*
X14137622Y-11201210D01*
X14137622Y-11201210D02*
X14147146Y-11182162D01*
X14147146Y-11182162D02*
X14147146Y-11172639D01*
X14147146Y-11172639D02*
X14137622Y-11153591D01*
X14137622Y-11153591D02*
X14118575Y-11144067D01*
X14118575Y-11144067D02*
X14090003Y-11144067D01*
X14090003Y-11144067D02*
X14070956Y-11134543D01*
X14070956Y-11134543D02*
X14061432Y-11115496D01*
X14061432Y-11115496D02*
X14061432Y-11105972D01*
X14061432Y-11105972D02*
X14070956Y-11086924D01*
X14070956Y-11086924D02*
X14090003Y-11077400D01*
X14090003Y-11077400D02*
X14118575Y-11077400D01*
X14118575Y-11077400D02*
X14137622Y-11086924D01*
X14213813Y-11286924D02*
X14223337Y-11277400D01*
X14223337Y-11277400D02*
X14242384Y-11248829D01*
X14242384Y-11248829D02*
X14251908Y-11229781D01*
X14251908Y-11229781D02*
X14261432Y-11201210D01*
X14261432Y-11201210D02*
X14270956Y-11153591D01*
X14270956Y-11153591D02*
X14270956Y-11115496D01*
X14270956Y-11115496D02*
X14261432Y-11067877D01*
X14261432Y-11067877D02*
X14251908Y-11039305D01*
X14251908Y-11039305D02*
X14242384Y-11020258D01*
X14242384Y-11020258D02*
X14223337Y-10991686D01*
X14223337Y-10991686D02*
X14213813Y-10982162D01*
X14575718Y-11286924D02*
X14566194Y-11277400D01*
X14566194Y-11277400D02*
X14547146Y-11248829D01*
X14547146Y-11248829D02*
X14537622Y-11229781D01*
X14537622Y-11229781D02*
X14528099Y-11201210D01*
X14528099Y-11201210D02*
X14518575Y-11153591D01*
X14518575Y-11153591D02*
X14518575Y-11115496D01*
X14518575Y-11115496D02*
X14528099Y-11067877D01*
X14528099Y-11067877D02*
X14537622Y-11039305D01*
X14537622Y-11039305D02*
X14547146Y-11020258D01*
X14547146Y-11020258D02*
X14566194Y-10991686D01*
X14566194Y-10991686D02*
X14575718Y-10982162D01*
X14651908Y-11077400D02*
X14651908Y-11210734D01*
X14651908Y-11096448D02*
X14661432Y-11086924D01*
X14661432Y-11086924D02*
X14680480Y-11077400D01*
X14680480Y-11077400D02*
X14709051Y-11077400D01*
X14709051Y-11077400D02*
X14728099Y-11086924D01*
X14728099Y-11086924D02*
X14737622Y-11105972D01*
X14737622Y-11105972D02*
X14737622Y-11210734D01*
X14861432Y-11210734D02*
X14842384Y-11201210D01*
X14842384Y-11201210D02*
X14832861Y-11191686D01*
X14832861Y-11191686D02*
X14823337Y-11172639D01*
X14823337Y-11172639D02*
X14823337Y-11115496D01*
X14823337Y-11115496D02*
X14832861Y-11096448D01*
X14832861Y-11096448D02*
X14842384Y-11086924D01*
X14842384Y-11086924D02*
X14861432Y-11077400D01*
X14861432Y-11077400D02*
X14890003Y-11077400D01*
X14890003Y-11077400D02*
X14909051Y-11086924D01*
X14909051Y-11086924D02*
X14918575Y-11096448D01*
X14918575Y-11096448D02*
X14928099Y-11115496D01*
X14928099Y-11115496D02*
X14928099Y-11172639D01*
X14928099Y-11172639D02*
X14918575Y-11191686D01*
X14918575Y-11191686D02*
X14909051Y-11201210D01*
X14909051Y-11201210D02*
X14890003Y-11210734D01*
X14890003Y-11210734D02*
X14861432Y-11210734D01*
X14985242Y-11077400D02*
X15061432Y-11077400D01*
X15013813Y-11010734D02*
X15013813Y-11182162D01*
X15013813Y-11182162D02*
X15023337Y-11201210D01*
X15023337Y-11201210D02*
X15042384Y-11210734D01*
X15042384Y-11210734D02*
X15061432Y-11210734D01*
X15280480Y-11077400D02*
X15280480Y-11277400D01*
X15280480Y-11086924D02*
X15299527Y-11077400D01*
X15299527Y-11077400D02*
X15337623Y-11077400D01*
X15337623Y-11077400D02*
X15356670Y-11086924D01*
X15356670Y-11086924D02*
X15366194Y-11096448D01*
X15366194Y-11096448D02*
X15375718Y-11115496D01*
X15375718Y-11115496D02*
X15375718Y-11172639D01*
X15375718Y-11172639D02*
X15366194Y-11191686D01*
X15366194Y-11191686D02*
X15356670Y-11201210D01*
X15356670Y-11201210D02*
X15337623Y-11210734D01*
X15337623Y-11210734D02*
X15299527Y-11210734D01*
X15299527Y-11210734D02*
X15280480Y-11201210D01*
X15490003Y-11210734D02*
X15470956Y-11201210D01*
X15470956Y-11201210D02*
X15461432Y-11182162D01*
X15461432Y-11182162D02*
X15461432Y-11010734D01*
X15651908Y-11210734D02*
X15651908Y-11105972D01*
X15651908Y-11105972D02*
X15642384Y-11086924D01*
X15642384Y-11086924D02*
X15623337Y-11077400D01*
X15623337Y-11077400D02*
X15585242Y-11077400D01*
X15585242Y-11077400D02*
X15566194Y-11086924D01*
X15651908Y-11201210D02*
X15632861Y-11210734D01*
X15632861Y-11210734D02*
X15585242Y-11210734D01*
X15585242Y-11210734D02*
X15566194Y-11201210D01*
X15566194Y-11201210D02*
X15556670Y-11182162D01*
X15556670Y-11182162D02*
X15556670Y-11163115D01*
X15556670Y-11163115D02*
X15566194Y-11144067D01*
X15566194Y-11144067D02*
X15585242Y-11134543D01*
X15585242Y-11134543D02*
X15632861Y-11134543D01*
X15632861Y-11134543D02*
X15651908Y-11125020D01*
X15718575Y-11077400D02*
X15794765Y-11077400D01*
X15747146Y-11010734D02*
X15747146Y-11182162D01*
X15747146Y-11182162D02*
X15756670Y-11201210D01*
X15756670Y-11201210D02*
X15775718Y-11210734D01*
X15775718Y-11210734D02*
X15794765Y-11210734D01*
X15937623Y-11201210D02*
X15918575Y-11210734D01*
X15918575Y-11210734D02*
X15880480Y-11210734D01*
X15880480Y-11210734D02*
X15861432Y-11201210D01*
X15861432Y-11201210D02*
X15851908Y-11182162D01*
X15851908Y-11182162D02*
X15851908Y-11105972D01*
X15851908Y-11105972D02*
X15861432Y-11086924D01*
X15861432Y-11086924D02*
X15880480Y-11077400D01*
X15880480Y-11077400D02*
X15918575Y-11077400D01*
X15918575Y-11077400D02*
X15937623Y-11086924D01*
X15937623Y-11086924D02*
X15947146Y-11105972D01*
X15947146Y-11105972D02*
X15947146Y-11125020D01*
X15947146Y-11125020D02*
X15851908Y-11144067D01*
X16118575Y-11210734D02*
X16118575Y-11010734D01*
X16118575Y-11201210D02*
X16099527Y-11210734D01*
X16099527Y-11210734D02*
X16061432Y-11210734D01*
X16061432Y-11210734D02*
X16042384Y-11201210D01*
X16042384Y-11201210D02*
X16032861Y-11191686D01*
X16032861Y-11191686D02*
X16023337Y-11172639D01*
X16023337Y-11172639D02*
X16023337Y-11115496D01*
X16023337Y-11115496D02*
X16032861Y-11096448D01*
X16032861Y-11096448D02*
X16042384Y-11086924D01*
X16042384Y-11086924D02*
X16061432Y-11077400D01*
X16061432Y-11077400D02*
X16099527Y-11077400D01*
X16099527Y-11077400D02*
X16118575Y-11086924D01*
X16194765Y-11286924D02*
X16204289Y-11277400D01*
X16204289Y-11277400D02*
X16223337Y-11248829D01*
X16223337Y-11248829D02*
X16232861Y-11229781D01*
X16232861Y-11229781D02*
X16242384Y-11201210D01*
X16242384Y-11201210D02*
X16251908Y-11153591D01*
X16251908Y-11153591D02*
X16251908Y-11115496D01*
X16251908Y-11115496D02*
X16242384Y-11067877D01*
X16242384Y-11067877D02*
X16232861Y-11039305D01*
X16232861Y-11039305D02*
X16223337Y-11020258D01*
X16223337Y-11020258D02*
X16204289Y-10991686D01*
X16204289Y-10991686D02*
X16194765Y-10982162D01*
M02*
