%TF.GenerationSoftware,KiCad,Pcbnew,10.0.5*%
%TF.CreationDate,2026-09-24T16:33:05+05:30*%
%TF.ProjectId,AuraForge_50X,41757261-466f-4726-9765-5f3530582e6b,v2.0*%
%TF.SameCoordinates,Original*%
%TF.FileFunction,Copper,L1,Top*%
%TF.FilePolarity,Positive*%
%FSLAX46Y46*%
G04 Gerber Fmt 4.6, Leading zero omitted, Abs format (unit mm)*
G04 Created by KiCad (PCBNEW 10.0.5) date 2026-09-24 16:33:05*
%MOMM*%
%LPD*%
G01*
G04 APERTURE LIST*
G04 Aperture macros list*
%AMRoundRect*
0 Rectangle with rounded corners*
0 $1 Rounding radius*
0 $2 $3 $4 $5 $6 $7 $8 $9 X,Y pos of 4 corners*
0 Add a 4 corners polygon primitive as box body*
4,1,4,$2,$3,$4,$5,$6,$7,$8,$9,$2,$3,0*
0 Add four circle primitives for the rounded corners*
1,1,$1+$1,$2,$3*
1,1,$1+$1,$4,$5*
1,1,$1+$1,$6,$7*
1,1,$1+$1,$8,$9*
0 Add four rect primitives between the rounded corners*
20,1,$1+$1,$2,$3,$4,$5,0*
20,1,$1+$1,$4,$5,$6,$7,0*
20,1,$1+$1,$6,$7,$8,$9,0*
20,1,$1+$1,$8,$9,$2,$3,0*%
%AMFreePoly0*
4,1,17,0.335278,0.685443,0.349923,0.650088,0.349923,-0.649935,0.335278,-0.685290,0.299923,-0.699935,0.000318,-0.699935,-0.000051,-0.700088,-0.300050,-0.700088,-0.335405,-0.685443,-0.350050,-0.650088,-0.350050,0.649935,-0.335405,0.685290,-0.300050,0.699935,-0.000445,0.699935,-0.000076,0.700088,0.299923,0.700088,0.335278,0.685443,0.335278,0.685443,$1*%
%AMFreePoly1*
4,1,17,0.335431,0.685290,0.350076,0.649935,0.350076,-0.650037,0.335431,-0.685392,0.300076,-0.700037,0.000187,-0.700037,0.000127,-0.700062,-0.299898,-0.700062,-0.335253,-0.685417,-0.349898,-0.650062,-0.349898,0.649910,-0.335253,0.685265,-0.299898,0.699910,-0.000009,0.699910,0.000051,0.699935,0.300076,0.699935,0.335431,0.685290,0.335431,0.685290,$1*%
%AMFreePoly2*
4,1,13,0.335227,0.685443,0.349872,0.650088,0.349872,-0.649884,0.335227,-0.685239,0.299872,-0.699884,-0.300152,-0.699884,-0.335507,-0.685239,-0.350152,-0.649884,-0.350152,0.650088,-0.335507,0.685443,-0.300152,0.700088,0.299872,0.700088,0.335227,0.685443,0.335227,0.685443,$1*%
%AMFreePoly3*
4,1,64,1.561387,1.050847,1.576032,1.015492,1.576031,1.015155,1.573373,0.620484,1.621028,0.620484,1.656383,0.605839,1.671022,0.571273,1.673243,0.430492,2.485034,0.430492,2.520389,0.415847,2.535034,0.380492,2.535034,0.146482,2.520389,0.111127,2.485034,0.096482,1.671558,0.096482,1.673500,-0.087516,2.485034,-0.087516,2.520389,-0.102161,2.535034,-0.137516,2.535034,-0.371500,
2.520389,-0.406855,2.485034,-0.421500,1.671823,-0.421500,1.674019,-0.560729,1.659934,-0.596311,1.624814,-0.611512,1.624025,-0.611518,1.576032,-0.611518,1.576032,-1.014501,1.561387,-1.049856,1.526065,-1.064501,-1.521935,-1.066508,-1.557300,-1.051887,-1.571968,-1.016541,-1.571968,-0.617512,-1.619961,-0.617512,-1.655316,-0.602867,-1.669961,-0.567512,-1.669228,-0.424498,-2.480970,-0.424498,
-2.516325,-0.409853,-2.530970,-0.374498,-2.530970,-0.374278,-2.529954,-0.143290,-2.515153,-0.107999,-2.479897,-0.093510,-1.668131,-0.094443,-1.668789,0.092659,-2.485131,0.095491,-2.520436,0.110259,-2.534958,0.145491,-2.534958,0.375488,-2.520313,0.410843,-2.485190,0.425487,-1.670170,0.429272,-1.667948,0.565307,-1.652728,0.600418,-1.618471,0.614487,-1.571859,0.614967,-1.570977,1.015602,
-1.556254,1.050925,-1.520977,1.065492,1.526032,1.065492,1.561387,1.050847,1.561387,1.050847,$1*%
G04 Aperture macros list end*
%TA.AperFunction,SMDPad,CuDef*%
%ADD10RoundRect,0.225000X-0.225000X-0.250000X0.225000X-0.250000X0.225000X0.250000X-0.225000X0.250000X0*%
%TD*%
%TA.AperFunction,SMDPad,CuDef*%
%ADD11RoundRect,0.225000X-0.250000X0.225000X-0.250000X-0.225000X0.250000X-0.225000X0.250000X0.225000X0*%
%TD*%
%TA.AperFunction,SMDPad,CuDef*%
%ADD12RoundRect,0.250000X-0.250000X-0.475000X0.250000X-0.475000X0.250000X0.475000X-0.250000X0.475000X0*%
%TD*%
%TA.AperFunction,SMDPad,CuDef*%
%ADD13R,1.790700X7.493000*%
%TD*%
%TA.AperFunction,SMDPad,CuDef*%
%ADD14RoundRect,0.200000X-0.200000X-0.275000X0.200000X-0.275000X0.200000X0.275000X-0.200000X0.275000X0*%
%TD*%
%TA.AperFunction,SMDPad,CuDef*%
%ADD15RoundRect,0.225000X0.250000X-0.225000X0.250000X0.225000X-0.250000X0.225000X-0.250000X-0.225000X0*%
%TD*%
%TA.AperFunction,SMDPad,CuDef*%
%ADD16RoundRect,0.200000X0.275000X-0.200000X0.275000X0.200000X-0.275000X0.200000X-0.275000X-0.200000X0*%
%TD*%
%TA.AperFunction,SMDPad,CuDef*%
%ADD17RoundRect,0.225000X0.225000X0.250000X-0.225000X0.250000X-0.225000X-0.250000X0.225000X-0.250000X0*%
%TD*%
%TA.AperFunction,SMDPad,CuDef*%
%ADD18RoundRect,0.250000X1.000000X0.650000X-1.000000X0.650000X-1.000000X-0.650000X1.000000X-0.650000X0*%
%TD*%
%TA.AperFunction,SMDPad,CuDef*%
%ADD19RoundRect,0.200000X0.200000X0.275000X-0.200000X0.275000X-0.200000X-0.275000X0.200000X-0.275000X0*%
%TD*%
%TA.AperFunction,SMDPad,CuDef*%
%ADD20O,0.400000X1.500000*%
%TD*%
%TA.AperFunction,SMDPad,CuDef*%
%ADD21R,1.100000X0.600000*%
%TD*%
%TA.AperFunction,SMDPad,CuDef*%
%ADD22RoundRect,0.250000X-1.000000X1.950000X-1.000000X-1.950000X1.000000X-1.950000X1.000000X1.950000X0*%
%TD*%
%TA.AperFunction,SMDPad,CuDef*%
%ADD23O,0.343000X1.747000*%
%TD*%
%TA.AperFunction,SMDPad,CuDef*%
%ADD24RoundRect,0.250000X-0.475000X0.250000X-0.475000X-0.250000X0.475000X-0.250000X0.475000X0.250000X0*%
%TD*%
%TA.AperFunction,SMDPad,CuDef*%
%ADD25RoundRect,0.250000X0.250000X0.475000X-0.250000X0.475000X-0.250000X-0.475000X0.250000X-0.475000X0*%
%TD*%
%TA.AperFunction,SMDPad,CuDef*%
%ADD26R,2.100000X0.950000*%
%TD*%
%TA.AperFunction,SMDPad,CuDef*%
%ADD27R,0.950000X2.100000*%
%TD*%
%TA.AperFunction,SMDPad,CuDef*%
%ADD28R,0.900000X0.900000*%
%TD*%
%TA.AperFunction,SMDPad,CuDef*%
%ADD29RoundRect,0.250000X-0.525000X-0.400000X0.525000X-0.400000X0.525000X0.400000X-0.525000X0.400000X0*%
%TD*%
%TA.AperFunction,SMDPad,CuDef*%
%ADD30RoundRect,0.218750X-0.218750X-0.256250X0.218750X-0.256250X0.218750X0.256250X-0.218750X0.256250X0*%
%TD*%
%TA.AperFunction,SMDPad,CuDef*%
%ADD31R,2.300000X3.000000*%
%TD*%
%TA.AperFunction,SMDPad,CuDef*%
%ADD32FreePoly0,270.000000*%
%TD*%
%TA.AperFunction,SMDPad,CuDef*%
%ADD33FreePoly1,270.000000*%
%TD*%
%TA.AperFunction,SMDPad,CuDef*%
%ADD34R,1.300000X0.300000*%
%TD*%
%TA.AperFunction,SMDPad,CuDef*%
%ADD35FreePoly2,270.000000*%
%TD*%
%TA.AperFunction,SMDPad,CuDef*%
%ADD36RoundRect,0.200000X-0.275000X0.200000X-0.275000X-0.200000X0.275000X-0.200000X0.275000X0.200000X0*%
%TD*%
%TA.AperFunction,SMDPad,CuDef*%
%ADD37R,0.700000X0.244000*%
%TD*%
%TA.AperFunction,SMDPad,CuDef*%
%ADD38R,0.244000X0.700000*%
%TD*%
%TA.AperFunction,ComponentPad*%
%ADD39C,0.400000*%
%TD*%
%TA.AperFunction,SMDPad,CuDef*%
%ADD40FreePoly3,0.000000*%
%TD*%
%TA.AperFunction,SMDPad,CuDef*%
%ADD41R,7.493000X1.790700*%
%TD*%
%TA.AperFunction,ComponentPad*%
%ADD42O,4.500000X2.000000*%
%TD*%
%TA.AperFunction,ComponentPad*%
%ADD43O,4.000000X1.800000*%
%TD*%
%TA.AperFunction,ComponentPad*%
%ADD44O,1.800000X4.000000*%
%TD*%
%TA.AperFunction,ComponentPad*%
%ADD45C,1.700000*%
%TD*%
%TA.AperFunction,SMDPad,CuDef*%
%ADD46RoundRect,0.250000X0.650000X-0.325000X0.650000X0.325000X-0.650000X0.325000X-0.650000X-0.325000X0*%
%TD*%
%TA.AperFunction,SMDPad,CuDef*%
%ADD47R,0.600000X1.200000*%
%TD*%
%TA.AperFunction,SMDPad,CuDef*%
%ADD48R,3.300000X2.400000*%
%TD*%
%TA.AperFunction,ComponentPad*%
%ADD49RoundRect,0.250000X-1.050000X-1.050000X1.050000X-1.050000X1.050000X1.050000X-1.050000X1.050000X0*%
%TD*%
%TA.AperFunction,ComponentPad*%
%ADD50C,2.600000*%
%TD*%
%TA.AperFunction,SMDPad,CuDef*%
%ADD51R,2.500000X1.100000*%
%TD*%
%TA.AperFunction,SMDPad,CuDef*%
%ADD52R,2.340000X3.600000*%
%TD*%
%TA.AperFunction,SMDPad,CuDef*%
%ADD53O,0.630000X1.865000*%
%TD*%
%TA.AperFunction,ComponentPad*%
%ADD54O,2.000000X1.000000*%
%TD*%
%TA.AperFunction,SMDPad,CuDef*%
%ADD55R,3.210000X2.670000*%
%TD*%
%TA.AperFunction,ViaPad*%
%ADD56C,1.000000*%
%TD*%
%TA.AperFunction,ViaPad*%
%ADD57C,0.800000*%
%TD*%
%TA.AperFunction,ViaPad*%
%ADD58C,0.600000*%
%TD*%
%TA.AperFunction,Conductor*%
%ADD59C,1.000000*%
%TD*%
%TA.AperFunction,Conductor*%
%ADD60C,0.500000*%
%TD*%
%TA.AperFunction,Conductor*%
%ADD61C,0.250000*%
%TD*%
%TA.AperFunction,Conductor*%
%ADD62C,0.150000*%
%TD*%
%TA.AperFunction,Conductor*%
%ADD63C,0.300000*%
%TD*%
%TA.AperFunction,Conductor*%
%ADD64C,0.230000*%
%TD*%
%TA.AperFunction,Conductor*%
%ADD65C,0.450000*%
%TD*%
%TA.AperFunction,Conductor*%
%ADD66C,0.200000*%
%TD*%
G04 APERTURE END LIST*
D10*
%TO.P,C23,1*%
%TO.N,/+21V_BOOST*%
X188712500Y-46412500D03*
%TO.P,C23,2*%
%TO.N,GND*%
X190262500Y-46412500D03*
%TD*%
D11*
%TO.P,C24,1*%
%TO.N,GND*%
X181487500Y-34637500D03*
%TO.P,C24,2*%
%TO.N,Net-(U1-GVDD)*%
X181487500Y-36187500D03*
%TD*%
D10*
%TO.P,C22,1*%
%TO.N,/+21V_BOOST*%
X188712500Y-44412500D03*
%TO.P,C22,2*%
%TO.N,GND*%
X190262500Y-44412500D03*
%TD*%
D11*
%TO.P,C25,1*%
%TO.N,/AUDIO_R*%
X185487500Y-34637500D03*
%TO.P,C25,2*%
%TO.N,Net-(U1-RINP)*%
X185487500Y-36187500D03*
%TD*%
%TO.P,C27,1*%
%TO.N,/AUDIO_L*%
X179487500Y-34637500D03*
%TO.P,C27,2*%
%TO.N,Net-(U1-LINP)*%
X179487500Y-36187500D03*
%TD*%
D12*
%TO.P,C36,1*%
%TO.N,/SPK_R_PLUS*%
X184537500Y-86412500D03*
%TO.P,C36,2*%
%TO.N,GND*%
X186437500Y-86412500D03*
%TD*%
D13*
%TO.P,L6,1,1_1*%
%TO.N,Net-(U1-OUTNR)*%
X172687150Y-80412500D03*
%TO.P,L6,2,2_2*%
%TO.N,/SPK_R_MINUS*%
X178287850Y-80412500D03*
%TD*%
D14*
%TO.P,R12,1*%
%TO.N,GND*%
X154182500Y-36412500D03*
%TO.P,R12,2*%
%TO.N,Net-(U2-ILIM)*%
X155832500Y-36412500D03*
%TD*%
D10*
%TO.P,C13,1*%
%TO.N,Net-(U2-SS)*%
X164712500Y-34412500D03*
%TO.P,C13,2*%
%TO.N,GND*%
X166262500Y-34412500D03*
%TD*%
D15*
%TO.P,C31,1*%
%TO.N,Net-(U1-OUTNR)*%
X185487500Y-52187500D03*
%TO.P,C31,2*%
%TO.N,Net-(U1-BSNR)*%
X185487500Y-50637500D03*
%TD*%
D16*
%TO.P,R19,1*%
%TO.N,/+21V_BOOST*%
X174512500Y-46462500D03*
%TO.P,R19,2*%
%TO.N,Net-(U1-AVCC)*%
X174512500Y-44812500D03*
%TD*%
D17*
%TO.P,C30,1*%
%TO.N,Net-(U1-BSPL)*%
X183262500Y-49412500D03*
%TO.P,C30,2*%
%TO.N,Net-(U1-OUTPL)*%
X181712500Y-49412500D03*
%TD*%
D12*
%TO.P,C4,1*%
%TO.N,GND*%
X117537500Y-68412500D03*
%TO.P,C4,2*%
%TO.N,/V_LDO_IN*%
X119437500Y-68412500D03*
%TD*%
D16*
%TO.P,R18,1*%
%TO.N,/AUDIO_R*%
X102487500Y-36237500D03*
%TO.P,R18,2*%
%TO.N,/DAC_OUT_R*%
X102487500Y-34587500D03*
%TD*%
D12*
%TO.P,C5,1*%
%TO.N,GND*%
X117537500Y-65412500D03*
%TO.P,C5,2*%
%TO.N,/+3V3_SYS*%
X119437500Y-65412500D03*
%TD*%
%TO.P,C6,1*%
%TO.N,GND*%
X101537500Y-23412500D03*
%TO.P,C6,2*%
%TO.N,/+3V3_SYS*%
X103437500Y-23412500D03*
%TD*%
D18*
%TO.P,D2,1,K_1*%
%TO.N,/V_LDO_IN*%
X114487500Y-67412500D03*
%TO.P,D2,2,A_2*%
%TO.N,/+BAT_3V7*%
X110487500Y-67412500D03*
%TD*%
D17*
%TO.P,C32,1*%
%TO.N,Net-(U1-BSPR)*%
X187262500Y-48412500D03*
%TO.P,C32,2*%
%TO.N,Net-(U1-OUTPR)*%
X185712500Y-48412500D03*
%TD*%
D19*
%TO.P,R2,1*%
%TO.N,Net-(J1-CC2)*%
X106312500Y-88412500D03*
%TO.P,R2,2*%
%TO.N,GND*%
X104662500Y-88412500D03*
%TD*%
D16*
%TO.P,R16,1*%
%TO.N,Net-(U5-VCC)*%
X120487500Y-79237500D03*
%TO.P,R16,2*%
%TO.N,/+BAT_3V7*%
X120487500Y-77587500D03*
%TD*%
D11*
%TO.P,C12,1*%
%TO.N,Net-(U2-BOOT)*%
X162487500Y-36637500D03*
%TO.P,C12,2*%
%TO.N,Net-(C12-Pad2)*%
X162487500Y-38187500D03*
%TD*%
D20*
%TO.P,U6,1,D12_1*%
%TO.N,Net-(U6-D12-Pad1)*%
X127507500Y-85612500D03*
%TO.P,U6,2,S1_2*%
%TO.N,GND*%
X128167500Y-85612500D03*
%TO.P,U6,3,S1_3*%
X128817500Y-85612500D03*
%TO.P,U6,4,G1_4*%
%TO.N,Net-(U5-OD)*%
X129467500Y-85612500D03*
%TO.P,U6,5,G2_5*%
%TO.N,Net-(U5-OC)*%
X129467500Y-79212500D03*
%TO.P,U6,6,S2_6*%
%TO.N,/BAT_NEG*%
X128817500Y-79212500D03*
%TO.P,U6,7,S2_7*%
X128167500Y-79212500D03*
%TO.P,U6,8,D12_8*%
%TO.N,Net-(U6-D12-Pad1)*%
X127507500Y-79212500D03*
%TD*%
D11*
%TO.P,C26,1*%
%TO.N,GND*%
X183487500Y-34637500D03*
%TO.P,C26,2*%
%TO.N,Net-(U1-RINN)*%
X183487500Y-36187500D03*
%TD*%
D19*
%TO.P,R6,1*%
%TO.N,Net-(LED2-K)*%
X115312500Y-91412500D03*
%TO.P,R6,2*%
%TO.N,Net-(U3-D2)*%
X113662500Y-91412500D03*
%TD*%
D11*
%TO.P,C28,1*%
%TO.N,GND*%
X177487500Y-34637500D03*
%TO.P,C28,2*%
%TO.N,Net-(U1-LINN)*%
X177487500Y-36187500D03*
%TD*%
D21*
%TO.P,U5,1,OD_1*%
%TO.N,Net-(U5-OD)*%
X124837500Y-83362500D03*
%TO.P,U5,2,CS_2*%
%TO.N,Net-(U5-CS)*%
X124837500Y-82412500D03*
%TO.P,U5,3,OC_3*%
%TO.N,Net-(U5-OC)*%
X124837500Y-81462500D03*
%TO.P,U5,4,TD_4*%
%TO.N,unconnected-(U5-TD-Pad4)*%
X122137500Y-81462500D03*
%TO.P,U5,5,VCC_5*%
%TO.N,Net-(U5-VCC)*%
X122137500Y-82412500D03*
%TO.P,U5,6,GND_6*%
%TO.N,/BAT_NEG*%
X122137500Y-83362500D03*
%TD*%
D22*
%TO.P,C18,1*%
%TO.N,/+21V_BOOST*%
X171487500Y-51712500D03*
%TO.P,C18,2*%
%TO.N,GND*%
X171487500Y-59112500D03*
%TD*%
D19*
%TO.P,R10,1*%
%TO.N,Net-(U2-FB)*%
X156832500Y-32412500D03*
%TO.P,R10,2*%
%TO.N,GND*%
X155182500Y-32412500D03*
%TD*%
%TO.P,R1,1*%
%TO.N,Net-(J1-CC1)*%
X104312500Y-75412500D03*
%TO.P,R1,2*%
%TO.N,GND*%
X102662500Y-75412500D03*
%TD*%
D23*
%TO.P,U1,1,MODSEL_1*%
%TO.N,GND*%
X186367500Y-38692500D03*
%TO.P,U1,2,SDZ_2*%
%TO.N,Net-(U1-SDZ)*%
X185717500Y-38692500D03*
%TO.P,U1,3,FAULTZ_3*%
%TO.N,Net-(U1-FAULTZ)*%
X185067500Y-38692500D03*
%TO.P,U1,4,RINP_4*%
%TO.N,Net-(U1-RINP)*%
X184417500Y-38692500D03*
%TO.P,U1,5,RINN_5*%
%TO.N,Net-(U1-RINN)*%
X183767500Y-38692500D03*
%TO.P,U1,6,PLIMIT_6*%
%TO.N,Net-(U1-GVDD)*%
X183117500Y-38692500D03*
%TO.P,U1,7,GVDD_7*%
X182467500Y-38692500D03*
%TO.P,U1,8,GAIN/SLV_8*%
%TO.N,GND*%
X181807500Y-38692500D03*
%TO.P,U1,9,GND_9*%
X181157500Y-38692500D03*
%TO.P,U1,10,LINP_10*%
%TO.N,Net-(U1-LINP)*%
X180507500Y-38692500D03*
%TO.P,U1,11,LINN_11*%
%TO.N,Net-(U1-LINN)*%
X179857500Y-38692500D03*
%TO.P,U1,12,MUTE_12*%
%TO.N,GND*%
X179207500Y-38692500D03*
%TO.P,U1,13,AM2_13*%
X178557500Y-38692500D03*
%TO.P,U1,14,AM1_14*%
X177907500Y-38692500D03*
%TO.P,U1,15,AM0_15*%
X177257500Y-38692500D03*
%TO.P,U1,16,SYNC_16*%
X176607500Y-38692500D03*
%TO.P,U1,17,AVCC_17*%
%TO.N,Net-(U1-AVCC)*%
X176607500Y-46132500D03*
%TO.P,U1,18,PVCC_18*%
%TO.N,/+21V_BOOST*%
X177257500Y-46132500D03*
%TO.P,U1,19,PVCC_19*%
X177907500Y-46132500D03*
%TO.P,U1,20,BSNL_20*%
%TO.N,Net-(U1-BSNL)*%
X178557500Y-46132500D03*
%TO.P,U1,21,OUTNL_21*%
%TO.N,Net-(U1-OUTNL)*%
X179207500Y-46132500D03*
%TO.P,U1,22,GND_22*%
%TO.N,GND*%
X179857500Y-46132500D03*
%TO.P,U1,23,OUTPL_23*%
%TO.N,Net-(U1-OUTPL)*%
X180507500Y-46132500D03*
%TO.P,U1,24,BSPL_24*%
%TO.N,Net-(U1-BSPL)*%
X181157500Y-46132500D03*
%TO.P,U1,25,GND_25*%
%TO.N,GND*%
X181807500Y-46132500D03*
%TO.P,U1,26,BSNR_26*%
%TO.N,Net-(U1-BSNR)*%
X182467500Y-46132500D03*
%TO.P,U1,27,OUTNR_27*%
%TO.N,Net-(U1-OUTNR)*%
X183117500Y-46132500D03*
%TO.P,U1,28,GND_28*%
%TO.N,GND*%
X183767500Y-46132500D03*
%TO.P,U1,29,OUTPR_29*%
%TO.N,Net-(U1-OUTPR)*%
X184417500Y-46132500D03*
%TO.P,U1,30,BSPR_30*%
%TO.N,Net-(U1-BSPR)*%
X185067500Y-46132500D03*
%TO.P,U1,31,PVCC_31*%
%TO.N,/+21V_BOOST*%
X185717500Y-46132500D03*
%TO.P,U1,32,PVCC_32*%
X186367500Y-46132500D03*
%TD*%
D19*
%TO.P,R5,1*%
%TO.N,Net-(LED1-K)*%
X111312500Y-91412500D03*
%TO.P,R5,2*%
%TO.N,Net-(U3-D1)*%
X109662500Y-91412500D03*
%TD*%
D24*
%TO.P,C2,1*%
%TO.N,/+BAT_3V7*%
X116487500Y-84462500D03*
%TO.P,C2,2*%
%TO.N,GND*%
X116487500Y-86362500D03*
%TD*%
D13*
%TO.P,L3,1,1_1*%
%TO.N,Net-(U1-OUTPL)*%
X186687150Y-66412500D03*
%TO.P,L3,2,2_2*%
%TO.N,/SPK_L_PLUS*%
X192287850Y-66412500D03*
%TD*%
D15*
%TO.P,C37,1*%
%TO.N,/BAT_NEG*%
X120487500Y-83187500D03*
%TO.P,C37,2*%
%TO.N,Net-(U5-VCC)*%
X120487500Y-81637500D03*
%TD*%
D25*
%TO.P,C10,1*%
%TO.N,GND*%
X166437500Y-38412500D03*
%TO.P,C10,2*%
%TO.N,/+BAT_3V7*%
X164537500Y-38412500D03*
%TD*%
D17*
%TO.P,C14,1*%
%TO.N,Net-(C14-Pad1)*%
X153782500Y-34412500D03*
%TO.P,C14,2*%
%TO.N,GND*%
X152232500Y-34412500D03*
%TD*%
D12*
%TO.P,C35,1*%
%TO.N,/SPK_L_MINUS*%
X180537500Y-72412500D03*
%TO.P,C35,2*%
%TO.N,GND*%
X182437500Y-72412500D03*
%TD*%
D14*
%TO.P,R3,1*%
%TO.N,Net-(U3-ICHG)*%
X113487500Y-80500000D03*
%TO.P,R3,2*%
%TO.N,GND*%
X115137500Y-80500000D03*
%TD*%
%TO.P,R8,1*%
%TO.N,/ESP_IO0*%
X125662500Y-37412500D03*
%TO.P,R8,2*%
%TO.N,/+3V3_SYS*%
X127312500Y-37412500D03*
%TD*%
D26*
%TO.P,U4,1,GND_1*%
%TO.N,GND*%
X105587500Y-21132500D03*
%TO.P,U4,2,3V3_2*%
%TO.N,/+3V3_SYS*%
X105587500Y-22402500D03*
%TO.P,U4,3,EN_3*%
%TO.N,/ESP_EN*%
X105587500Y-23672500D03*
%TO.P,U4,4,SENSOR_VP_4*%
%TO.N,unconnected-(U4-SENSOR_VP-Pad4)*%
X105587500Y-24942500D03*
%TO.P,U4,5,SENSOR_VN_5*%
%TO.N,unconnected-(U4-SENSOR_VN-Pad5)*%
X105587500Y-26212500D03*
%TO.P,U4,6,IO34_6*%
%TO.N,unconnected-(U4-IO34-Pad6)*%
X105587500Y-27482500D03*
%TO.P,U4,7,IO35_7*%
%TO.N,unconnected-(U4-IO35-Pad7)*%
X105587500Y-28752500D03*
%TO.P,U4,8,IO32_8*%
%TO.N,unconnected-(U4-IO32-Pad8)*%
X105587500Y-30022500D03*
%TO.P,U4,9,IO33_9*%
%TO.N,unconnected-(U4-IO33-Pad9)*%
X105587500Y-31292500D03*
%TO.P,U4,10,IO25_10*%
%TO.N,/DAC_OUT_L*%
X105587500Y-32562500D03*
%TO.P,U4,11,IO26_11*%
%TO.N,/DAC_OUT_R*%
X105587500Y-33832500D03*
%TO.P,U4,12,IO27_12*%
%TO.N,unconnected-(U4-IO27-Pad12)*%
X105587500Y-35102500D03*
%TO.P,U4,13,IO14_13*%
%TO.N,unconnected-(U4-IO14-Pad13)*%
X105587500Y-36372500D03*
%TO.P,U4,14,IO12_14*%
%TO.N,unconnected-(U4-IO12-Pad14)*%
X105587500Y-37642500D03*
D27*
%TO.P,U4,15,GND_15*%
%TO.N,GND*%
X108877500Y-39132500D03*
%TO.P,U4,16,IO13_16*%
%TO.N,unconnected-(U4-IO13-Pad16)*%
X110147500Y-39132500D03*
%TO.P,U4,17,NC_17*%
%TO.N,unconnected-(U4-NC-Pad17)*%
X111417500Y-39132500D03*
%TO.P,U4,18,NC_18*%
%TO.N,unconnected-(U4-NC-Pad18)*%
X112687500Y-39132500D03*
%TO.P,U4,19,NC_19*%
%TO.N,unconnected-(U4-NC-Pad19)*%
X113957500Y-39132500D03*
%TO.P,U4,20,NC_20*%
%TO.N,unconnected-(U4-NC-Pad20)*%
X115227500Y-39132500D03*
%TO.P,U4,21,NC_21*%
%TO.N,unconnected-(U4-NC-Pad21)*%
X116497500Y-39132500D03*
%TO.P,U4,22,NC_22*%
%TO.N,unconnected-(U4-NC-Pad22)*%
X117767500Y-39132500D03*
%TO.P,U4,23,IO15_23*%
%TO.N,unconnected-(U4-IO15-Pad23)*%
X119037500Y-39132500D03*
%TO.P,U4,24,IO2_24*%
%TO.N,unconnected-(U4-IO2-Pad24)*%
X120307500Y-39132500D03*
D26*
%TO.P,U4,25,IO0_25*%
%TO.N,/ESP_IO0*%
X123587500Y-37642500D03*
%TO.P,U4,26,IO4_26*%
%TO.N,unconnected-(U4-IO4-Pad26)*%
X123587500Y-36372500D03*
%TO.P,U4,27,IO16_27*%
%TO.N,unconnected-(U4-IO16-Pad27)*%
X123587500Y-35102500D03*
%TO.P,U4,28,IO17_28*%
%TO.N,unconnected-(U4-IO17-Pad28)*%
X123587500Y-33832500D03*
%TO.P,U4,29,IO5_29*%
%TO.N,unconnected-(U4-IO5-Pad29)*%
X123587500Y-32562500D03*
%TO.P,U4,30,IO18_30*%
%TO.N,unconnected-(U4-IO18-Pad30)*%
X123587500Y-31292500D03*
%TO.P,U4,31,IO19_31*%
%TO.N,unconnected-(U4-IO19-Pad31)*%
X123587500Y-30022500D03*
%TO.P,U4,32,NC_32*%
%TO.N,unconnected-(U4-NC-Pad32)*%
X123587500Y-28752500D03*
%TO.P,U4,33,IO21_33*%
%TO.N,unconnected-(U4-IO21-Pad33)*%
X123587500Y-27482500D03*
%TO.P,U4,34,RXD0_34*%
%TO.N,/ESP_RXD0*%
X123587500Y-26212500D03*
%TO.P,U4,35,TXD0_35*%
%TO.N,/ESP_TXD0*%
X123587500Y-24942500D03*
%TO.P,U4,36,IO22_36*%
%TO.N,unconnected-(U4-IO22-Pad36)*%
X123587500Y-23672500D03*
%TO.P,U4,37,IO23_37*%
%TO.N,unconnected-(U4-IO23-Pad37)*%
X123587500Y-22402500D03*
%TO.P,U4,38,GND_38*%
%TO.N,GND*%
X123587500Y-21132500D03*
D28*
%TO.P,U4,39,GND_39*%
X114487500Y-27412500D03*
X113087500Y-27412500D03*
X111687500Y-27412500D03*
X114487500Y-28812500D03*
X113087500Y-28812500D03*
X111687500Y-28812500D03*
X114487500Y-30212500D03*
X113087500Y-30212500D03*
X111687500Y-30212500D03*
%TD*%
D29*
%TO.P,SW_BOOT1,1,1_1*%
%TO.N,/ESP_IO0*%
X125487500Y-46412500D03*
X133447500Y-46412500D03*
%TO.P,SW_BOOT1,2,2_2*%
%TO.N,GND*%
X125487500Y-50912500D03*
X133447500Y-50912500D03*
%TD*%
D15*
%TO.P,C11,1*%
%TO.N,GND*%
X158007500Y-38187500D03*
%TO.P,C11,2*%
%TO.N,Net-(U2-VCC)*%
X158007500Y-36637500D03*
%TD*%
D30*
%TO.P,LED2,1,K_1*%
%TO.N,Net-(LED2-K)*%
X114912500Y-96412500D03*
%TO.P,LED2,2,A_2*%
%TO.N,/+5V_VBUS*%
X116487500Y-96412500D03*
%TD*%
D10*
%TO.P,C8,1*%
%TO.N,GND*%
X101712500Y-25412500D03*
%TO.P,C8,2*%
%TO.N,/ESP_EN*%
X103262500Y-25412500D03*
%TD*%
D31*
%TO.P,L2,1,1_1*%
%TO.N,/+BAT_3V7*%
X147137500Y-47412500D03*
%TO.P,L2,2,2_2*%
%TO.N,Net-(C12-Pad2)*%
X153837500Y-47412500D03*
%TD*%
D25*
%TO.P,C33,1*%
%TO.N,/SPK_R_MINUS*%
X175437500Y-86412500D03*
%TO.P,C33,2*%
%TO.N,GND*%
X173537500Y-86412500D03*
%TD*%
D32*
%TO.P,J1,A1B12,GND_A1B12*%
%TO.N,GND*%
X102957500Y-79212500D03*
D33*
%TO.P,J1,A4B9,VBUS_A4B9*%
%TO.N,/+5V_VBUS*%
X102957500Y-80012500D03*
D34*
%TO.P,J1,A5,CC1_A5*%
%TO.N,Net-(J1-CC1)*%
X102957500Y-81162500D03*
%TO.P,J1,A6,DP1_A6*%
%TO.N,/USB_DP*%
X102957500Y-82162500D03*
%TO.P,J1,A7,DN1_A7*%
%TO.N,/USB_DN*%
X102957500Y-82662500D03*
%TO.P,J1,A8,SBU1_A8*%
%TO.N,unconnected-(J1-SBU1-PadA8)*%
X102957500Y-83662500D03*
D35*
%TO.P,J1,B1A12,GND_B1A12*%
%TO.N,GND*%
X102957500Y-85612500D03*
%TO.P,J1,B4A9,VBUS_B4A9*%
%TO.N,/+5V_VBUS*%
X102957500Y-84812500D03*
D34*
%TO.P,J1,B5,CC2_B5*%
%TO.N,Net-(J1-CC2)*%
X102957500Y-84162500D03*
%TO.P,J1,B6,DP2_B6*%
%TO.N,/USB_DP*%
X102957500Y-83162500D03*
%TO.P,J1,B7,DN2_B7*%
%TO.N,/USB_DN*%
X102957500Y-81662500D03*
%TO.P,J1,B8,SBU2_B8*%
%TO.N,unconnected-(J1-SBU2-PadB8)*%
X102957500Y-80662500D03*
%TD*%
D11*
%TO.P,C29,1*%
%TO.N,Net-(U1-OUTNL)*%
X179487500Y-49637500D03*
%TO.P,C29,2*%
%TO.N,Net-(U1-BSNL)*%
X179487500Y-51187500D03*
%TD*%
D36*
%TO.P,R15,1*%
%TO.N,/+3V3_SYS*%
X186487500Y-30587500D03*
%TO.P,R15,2*%
%TO.N,Net-(U1-FAULTZ)*%
X186487500Y-32237500D03*
%TD*%
D18*
%TO.P,D3,1,K_1*%
%TO.N,/+21V_BOOST*%
X147487500Y-81412500D03*
%TO.P,D3,2,A_2*%
%TO.N,Net-(D3-A)*%
X143487500Y-81412500D03*
%TD*%
D37*
%TO.P,U2,1,VCC_1*%
%TO.N,Net-(U2-VCC)*%
X158827500Y-34162500D03*
D38*
%TO.P,U2,2,EN_2*%
%TO.N,/+BAT_3V7*%
X159257500Y-35142500D03*
%TO.P,U2,3,FSW_3*%
%TO.N,Net-(U2-FSW)*%
X159757500Y-35142500D03*
%TO.P,U2,4,SW_4*%
%TO.N,Net-(C12-Pad2)*%
X160257500Y-35142500D03*
%TO.P,U2,5,SW_5*%
X160757500Y-35142500D03*
%TO.P,U2,6,SW_6*%
X161257500Y-35142500D03*
%TO.P,U2,7,SW_7*%
X161757500Y-35142500D03*
%TO.P,U2,8,BOOT_8*%
%TO.N,Net-(U2-BOOT)*%
X162257500Y-35142500D03*
%TO.P,U2,9,VIN_9*%
%TO.N,/+BAT_3V7*%
X162757500Y-35142500D03*
D37*
%TO.P,U2,10,SS_10*%
%TO.N,Net-(U2-SS)*%
X163187500Y-34162500D03*
%TO.P,U2,11,NC_11*%
%TO.N,unconnected-(U2-NC-Pad11)*%
X163187500Y-32662500D03*
D38*
%TO.P,U2,12,NC_12*%
%TO.N,unconnected-(U2-NC-Pad12)*%
X162757500Y-31682500D03*
%TO.P,U2,13,MODE_13*%
%TO.N,/+BAT_3V7*%
X162257500Y-31682500D03*
%TO.P,U2,14,VOUT_14*%
%TO.N,/+21V_BOOST*%
X161757500Y-31682500D03*
%TO.P,U2,15,VOUT_15*%
X161257500Y-31682500D03*
%TO.P,U2,16,VOUT_16*%
X160757500Y-31682500D03*
%TO.P,U2,17,FB_17*%
%TO.N,Net-(U2-FB)*%
X160257500Y-31682500D03*
%TO.P,U2,18,COMP_18*%
%TO.N,Net-(U2-COMP)*%
X159757500Y-31682500D03*
%TO.P,U2,19,ILIM_19*%
%TO.N,Net-(U2-ILIM)*%
X159257500Y-31682500D03*
D37*
%TO.P,U2,20,AGND_20*%
%TO.N,GND*%
X158827500Y-32662500D03*
D39*
%TO.P,U2,21,PGND_21*%
X159737500Y-33412500D03*
X160487500Y-32642500D03*
X160487500Y-33412500D03*
X160487500Y-34182500D03*
D40*
X161007500Y-33412500D03*
D39*
X161537500Y-32642500D03*
X161537500Y-33412500D03*
X161537500Y-34182500D03*
X162287500Y-33412500D03*
%TD*%
D41*
%TO.P,L4,1,1_1*%
%TO.N,Net-(U1-OUTNL)*%
X180000000Y-63612150D03*
%TO.P,L4,2,2_2*%
%TO.N,/SPK_L_MINUS*%
X180000000Y-69212850D03*
%TD*%
D14*
%TO.P,R7,1*%
%TO.N,/+3V3_SYS*%
X101662500Y-27412500D03*
%TO.P,R7,2*%
%TO.N,/ESP_EN*%
X103312500Y-27412500D03*
%TD*%
D19*
%TO.P,R11,1*%
%TO.N,Net-(U2-COMP)*%
X156832500Y-34412500D03*
%TO.P,R11,2*%
%TO.N,Net-(C14-Pad1)*%
X155182500Y-34412500D03*
%TD*%
D42*
%TO.P,J2,1,1_1*%
%TO.N,Net-(D3-A)*%
X143000000Y-85000000D03*
D43*
%TO.P,J2,2,2_2*%
%TO.N,GND*%
X143000000Y-91000000D03*
D44*
%TO.P,J2,3,3_3*%
X147700000Y-88000000D03*
%TD*%
D18*
%TO.P,D1,1,K_1*%
%TO.N,/V_LDO_IN*%
X114487500Y-63412500D03*
%TO.P,D1,2,A_2*%
%TO.N,/+5V_VBUS*%
X110487500Y-63412500D03*
%TD*%
D45*
%TO.P,J6,1,1_1*%
%TO.N,/+BAT_3V7*%
X120987500Y-94662500D03*
%TO.P,J6,2,2_2*%
%TO.N,/BAT_NEG*%
X123487500Y-94662500D03*
%TD*%
D29*
%TO.P,SW_RST1,1,1_1*%
%TO.N,/ESP_EN*%
X113507500Y-46162500D03*
X121467500Y-46162500D03*
%TO.P,SW_RST1,2,2_2*%
%TO.N,GND*%
X113507500Y-50662500D03*
X121467500Y-50662500D03*
%TD*%
D25*
%TO.P,C1,1*%
%TO.N,/+5V_VBUS*%
X108437500Y-82412500D03*
%TO.P,C1,2*%
%TO.N,GND*%
X106537500Y-82412500D03*
%TD*%
D46*
%TO.P,C17,1*%
%TO.N,/+21V_BOOST*%
X158007500Y-28887500D03*
%TO.P,C17,2*%
%TO.N,GND*%
X158007500Y-25937500D03*
%TD*%
D16*
%TO.P,R9,1*%
%TO.N,Net-(U2-FB)*%
X156007500Y-30237500D03*
%TO.P,R9,2*%
%TO.N,/+21V_BOOST*%
X156007500Y-28587500D03*
%TD*%
D11*
%TO.P,C21,1*%
%TO.N,/+21V_BOOST*%
X177487500Y-51637500D03*
%TO.P,C21,2*%
%TO.N,GND*%
X177487500Y-53187500D03*
%TD*%
D47*
%TO.P,U3,1,D1_1*%
%TO.N,Net-(U3-D1)*%
X110577500Y-88412500D03*
%TO.P,U3,2,TEST_2*%
%TO.N,unconnected-(U3-TEST-Pad2)*%
X111857500Y-88412500D03*
%TO.P,U3,3,D2_3*%
%TO.N,Net-(U3-D2)*%
X113127500Y-88412500D03*
%TO.P,U3,4,NTC_4*%
%TO.N,Net-(U3-NTC)*%
X114397500Y-88412500D03*
%TO.P,U3,5,BAT_5*%
%TO.N,/+BAT_3V7*%
X114397500Y-82592500D03*
%TO.P,U3,6,ICHG_6*%
%TO.N,Net-(U3-ICHG)*%
X113127500Y-82592500D03*
%TO.P,U3,7,SW_7*%
%TO.N,Net-(U3-SW)*%
X111857500Y-82592500D03*
%TO.P,U3,8,VIN_8*%
%TO.N,/+5V_VBUS*%
X110577500Y-82592500D03*
D48*
%TO.P,U3,9,EP_9*%
%TO.N,GND*%
X112487500Y-85502500D03*
%TD*%
D41*
%TO.P,L5,1,1_1*%
%TO.N,Net-(U1-OUTPR)*%
X185000000Y-77612150D03*
%TO.P,L5,2,2_2*%
%TO.N,/SPK_R_PLUS*%
X185000000Y-83212850D03*
%TD*%
D49*
%TO.P,J4,1,Pin_1_1*%
%TO.N,/SPK_L_PLUS*%
X163998208Y-93585000D03*
D50*
%TO.P,J4,2,Pin_2_2*%
%TO.N,/SPK_L_MINUS*%
X168998208Y-93585000D03*
%TD*%
D16*
%TO.P,R13,1*%
%TO.N,GND*%
X160007500Y-39237500D03*
%TO.P,R13,2*%
%TO.N,Net-(U2-FSW)*%
X160007500Y-37587500D03*
%TD*%
D17*
%TO.P,C20,1*%
%TO.N,/+21V_BOOST*%
X175262500Y-48412500D03*
%TO.P,C20,2*%
%TO.N,GND*%
X173712500Y-48412500D03*
%TD*%
D36*
%TO.P,R14,1*%
%TO.N,/+3V3_SYS*%
X187487500Y-34587500D03*
%TO.P,R14,2*%
%TO.N,Net-(U1-SDZ)*%
X187487500Y-36237500D03*
%TD*%
D46*
%TO.P,C16,1*%
%TO.N,/+21V_BOOST*%
X161007500Y-28887500D03*
%TO.P,C16,2*%
%TO.N,GND*%
X161007500Y-25937500D03*
%TD*%
D12*
%TO.P,C9,1*%
%TO.N,/+BAT_3V7*%
X164537500Y-36412500D03*
%TO.P,C9,2*%
%TO.N,GND*%
X166437500Y-36412500D03*
%TD*%
D51*
%TO.P,U7,1,GND_1*%
%TO.N,GND*%
X122517500Y-64112500D03*
%TO.P,U7,2,VOUT_2*%
%TO.N,/+3V3_SYS*%
X122517500Y-66412500D03*
%TO.P,U7,3,VIN_3*%
%TO.N,/V_LDO_IN*%
X122517500Y-68712500D03*
D52*
%TO.P,U7,4,VOUT_4*%
%TO.N,unconnected-(U7-VOUT-Pad4)*%
X128457500Y-66412500D03*
%TD*%
D46*
%TO.P,C15,1*%
%TO.N,/+21V_BOOST*%
X164007500Y-28887500D03*
%TO.P,C15,2*%
%TO.N,GND*%
X164007500Y-25937500D03*
%TD*%
D36*
%TO.P,R17,1*%
%TO.N,Net-(U5-CS)*%
X125487500Y-85587500D03*
%TO.P,R17,2*%
%TO.N,GND*%
X125487500Y-87237500D03*
%TD*%
D49*
%TO.P,J5,1,Pin_1_1*%
%TO.N,/SPK_R_PLUS*%
X177498208Y-93585000D03*
D50*
%TO.P,J5,2,Pin_2_2*%
%TO.N,/SPK_R_MINUS*%
X182498208Y-93585000D03*
%TD*%
D53*
%TO.P,U_UART1,1,UD+_1*%
%TO.N,/USB_DP*%
X103577500Y-65092500D03*
%TO.P,U_UART1,2,UD-_2*%
%TO.N,/USB_DN*%
X104857500Y-65092500D03*
%TO.P,U_UART1,3,GND_3*%
%TO.N,GND*%
X106117500Y-65092500D03*
%TO.P,U_UART1,4,~{RTS}_4*%
%TO.N,unconnected-(U_UART1-~{RTS}-Pad4)*%
X107387500Y-65092500D03*
%TO.P,U_UART1,5,VCC_5*%
%TO.N,/+3V3_SYS*%
X107387500Y-59732500D03*
%TO.P,U_UART1,6,TXD_6*%
%TO.N,/ESP_RXD0*%
X106117500Y-59732500D03*
%TO.P,U_UART1,7,RXD_7*%
%TO.N,/ESP_TXD0*%
X104857500Y-59732500D03*
%TO.P,U_UART1,8,V3_8*%
%TO.N,/+3V3_SYS*%
X103577500Y-59732500D03*
%TD*%
D30*
%TO.P,LED1,1,K_1*%
%TO.N,Net-(LED1-K)*%
X108912500Y-96412500D03*
%TO.P,LED1,2,A_2*%
%TO.N,/+5V_VBUS*%
X110487500Y-96412500D03*
%TD*%
D25*
%TO.P,C34,1*%
%TO.N,/SPK_L_PLUS*%
X192437500Y-72412500D03*
%TO.P,C34,2*%
%TO.N,GND*%
X190537500Y-72412500D03*
%TD*%
D14*
%TO.P,R4,1*%
%TO.N,Net-(U3-NTC)*%
X115662500Y-89412500D03*
%TO.P,R4,2*%
%TO.N,GND*%
X117312500Y-89412500D03*
%TD*%
D15*
%TO.P,C19,1*%
%TO.N,/+21V_BOOST*%
X172512500Y-46412500D03*
%TO.P,C19,2*%
%TO.N,GND*%
X172512500Y-44862500D03*
%TD*%
D54*
%TO.P,J3,2,2_2*%
%TO.N,/AUDIO_L*%
X98487500Y-46012500D03*
%TO.P,J3,3,3_3*%
%TO.N,/AUDIO_R*%
X101487500Y-46012500D03*
%TO.P,J3,4,4_4*%
%TO.N,/DAC_OUT_L*%
X105487500Y-46012500D03*
%TO.P,J3,5,5_5*%
%TO.N,GND*%
X106487500Y-50812500D03*
%TD*%
D10*
%TO.P,C7,1*%
%TO.N,GND*%
X101712500Y-21412500D03*
%TO.P,C7,2*%
%TO.N,/+3V3_SYS*%
X103262500Y-21412500D03*
%TD*%
%TO.P,C3,1*%
%TO.N,/+3V3_SYS*%
X108712500Y-59412500D03*
%TO.P,C3,2*%
%TO.N,GND*%
X110262500Y-59412500D03*
%TD*%
D55*
%TO.P,L1,1,1_1*%
%TO.N,Net-(U3-SW)*%
X112487500Y-78032500D03*
%TO.P,L1,2,2_2*%
%TO.N,/+BAT_3V7*%
X112487500Y-72392500D03*
%TD*%
D56*
%TO.N,/+21V_BOOST*%
X138487500Y-42412500D03*
X188712499Y-43287501D03*
X177636000Y-45000000D03*
X138487500Y-51412500D03*
%TO.N,GND*%
X135000000Y-36000000D03*
X159000000Y-91000000D03*
X96000000Y-65000000D03*
D57*
X116000000Y-30000000D03*
D56*
X152000000Y-26000000D03*
X135000000Y-82000000D03*
X135000000Y-78000000D03*
X153000000Y-85000000D03*
D57*
X116000000Y-28000000D03*
D56*
X137000000Y-34000000D03*
X132000000Y-89000000D03*
X148000000Y-22000000D03*
X99000000Y-90000000D03*
X98000000Y-33000000D03*
X135000000Y-85000000D03*
D57*
X126000000Y-88000000D03*
D56*
X136000000Y-67000000D03*
X98000000Y-35000000D03*
X155000000Y-91000000D03*
X98000000Y-59000000D03*
D57*
X187000000Y-38000000D03*
D56*
X135000000Y-34000000D03*
X98000000Y-39000000D03*
X161000000Y-75000000D03*
X132000000Y-91000000D03*
X138000000Y-79000000D03*
X167000000Y-23000000D03*
X144000000Y-69000000D03*
X153000000Y-91000000D03*
X153000000Y-81000000D03*
X155000000Y-97000000D03*
X161000000Y-81000000D03*
X137000000Y-32000000D03*
D57*
X159737500Y-33412500D03*
D56*
X144000000Y-22000000D03*
X163000000Y-81000000D03*
D57*
X105000000Y-21000000D03*
X112000000Y-87000000D03*
X117000000Y-68000000D03*
D56*
X130000000Y-24000000D03*
X192000000Y-28000000D03*
D57*
X121000000Y-65000000D03*
D56*
X136000000Y-22000000D03*
X167000000Y-21000000D03*
X144000000Y-24000000D03*
X98000000Y-31000000D03*
X151000000Y-74000000D03*
X132000000Y-97000000D03*
X190000000Y-39000000D03*
X148000000Y-26000000D03*
X155000000Y-85000000D03*
X163000000Y-79000000D03*
D57*
X172000000Y-60000000D03*
X184256603Y-44624911D03*
X173000000Y-86000000D03*
D56*
X159000000Y-97000000D03*
D57*
X111000000Y-26000000D03*
D56*
X151000000Y-76000000D03*
X155000000Y-93000000D03*
X163000000Y-85000000D03*
D57*
X110000000Y-29000000D03*
D56*
X154000000Y-24000000D03*
X192000000Y-33000000D03*
X105000000Y-97000000D03*
X144000000Y-75000000D03*
X157000000Y-97000000D03*
X141000000Y-29000000D03*
X153000000Y-68000000D03*
X135000000Y-76000000D03*
X171000000Y-27000000D03*
D57*
X162347498Y-34142498D03*
D56*
X157000000Y-93000000D03*
X135000000Y-95000000D03*
X135000000Y-32000000D03*
X192000000Y-53000000D03*
X159000000Y-73000000D03*
X190000000Y-28000000D03*
X151000000Y-78000000D03*
X135000000Y-93000000D03*
D57*
X161540445Y-32675513D03*
X104000000Y-89000000D03*
X118000000Y-89000000D03*
X191000000Y-46000000D03*
X160492820Y-34152452D03*
D56*
X148000000Y-24000000D03*
X151000000Y-68000000D03*
X137000000Y-36000000D03*
X152000000Y-22000000D03*
D57*
X122000000Y-64000000D03*
D56*
X190500000Y-76500000D03*
X159000000Y-87000000D03*
D57*
X113000000Y-32000000D03*
D56*
X132000000Y-26000000D03*
D57*
X122000000Y-51000000D03*
D56*
X134000000Y-24000000D03*
X134000000Y-22000000D03*
X137000000Y-28000000D03*
X190000000Y-32000000D03*
X192000000Y-49000000D03*
D57*
X111000000Y-84000000D03*
D56*
X155000000Y-87000000D03*
X133000000Y-38000000D03*
X149000000Y-87000000D03*
X133000000Y-28000000D03*
X163000000Y-71000000D03*
X192000000Y-35000000D03*
D57*
X170000000Y-61000000D03*
X104000000Y-86000000D03*
D56*
X157000000Y-81000000D03*
X100000000Y-92000000D03*
X163000000Y-75000000D03*
D57*
X117000000Y-87000000D03*
D56*
X171000000Y-29000000D03*
X133000000Y-30000000D03*
X102000000Y-97000000D03*
X142000000Y-93000000D03*
D57*
X190000000Y-72000000D03*
X113000000Y-26000000D03*
D56*
X161000000Y-77000000D03*
D57*
X167000000Y-36000000D03*
D56*
X161000000Y-71000000D03*
X192000000Y-59000000D03*
D57*
X167000000Y-39000000D03*
X111000000Y-30000000D03*
D56*
X97000000Y-90000000D03*
X153000000Y-93000000D03*
X140000000Y-24000000D03*
X133000000Y-36000000D03*
X192000000Y-41000000D03*
D57*
X179881034Y-44899084D03*
D56*
X155000000Y-78000000D03*
X132000000Y-95000000D03*
D57*
X167000000Y-34000000D03*
X154000000Y-32000000D03*
D56*
X167000000Y-27000000D03*
X144000000Y-77000000D03*
X97000000Y-92000000D03*
X144000000Y-73000000D03*
X167000000Y-25000000D03*
X155000000Y-89000000D03*
X152000000Y-24000000D03*
X190000000Y-91000000D03*
X130000000Y-22000000D03*
D57*
X183000000Y-73000000D03*
X106000000Y-83000000D03*
D56*
X137000000Y-30000000D03*
X101000000Y-90000000D03*
X138000000Y-24000000D03*
X96000000Y-59000000D03*
X151000000Y-81000000D03*
X161000000Y-79000000D03*
X129000000Y-95000000D03*
X157000000Y-89000000D03*
D57*
X153000000Y-36000000D03*
D56*
X98000000Y-43000000D03*
X171000000Y-25000000D03*
X135000000Y-97000000D03*
X96000000Y-63000000D03*
X192000000Y-57000000D03*
D57*
X173000000Y-48000000D03*
D56*
X105000000Y-94000000D03*
D57*
X109000000Y-40000000D03*
D56*
X153000000Y-87000000D03*
X134000000Y-26000000D03*
X153000000Y-89000000D03*
X150000000Y-22000000D03*
X169000000Y-23000000D03*
X154000000Y-22000000D03*
X159000000Y-67000000D03*
X98000000Y-29000000D03*
X190000000Y-30000000D03*
X98000000Y-75000000D03*
X155000000Y-95000000D03*
D57*
X181790782Y-37126511D03*
X125000000Y-21000000D03*
D56*
X169000000Y-29000000D03*
D57*
X134000000Y-52000000D03*
D56*
X139000000Y-73000000D03*
X144000000Y-67000000D03*
X142000000Y-26000000D03*
X129000000Y-93000000D03*
X98000000Y-55000000D03*
X151000000Y-97000000D03*
X161000000Y-73000000D03*
X188000000Y-91000000D03*
X100000000Y-65000000D03*
D57*
X117000000Y-29000000D03*
D56*
X135000000Y-74000000D03*
X151000000Y-91000000D03*
X140000000Y-22000000D03*
D57*
X115000000Y-26000000D03*
X156000000Y-25000000D03*
D56*
X135000000Y-89000000D03*
X163000000Y-69000000D03*
X190000000Y-41000000D03*
X132000000Y-93000000D03*
X192000000Y-55000000D03*
X96000000Y-73000000D03*
X138000000Y-26000000D03*
X169000000Y-25000000D03*
X189000000Y-26000000D03*
D57*
X117000000Y-65000000D03*
X162287500Y-33412500D03*
X115000000Y-32000000D03*
D56*
X171000000Y-23000000D03*
X163000000Y-83000000D03*
X163000000Y-77000000D03*
X159000000Y-69000000D03*
X153000000Y-74000000D03*
X169000000Y-21000000D03*
D57*
X114000000Y-87000000D03*
D56*
X151000000Y-70000000D03*
X153000000Y-95000000D03*
D57*
X181119041Y-44770118D03*
D56*
X140000002Y-67000000D03*
D57*
X116000000Y-81000000D03*
D56*
X159000000Y-71000000D03*
D57*
X108000000Y-51000000D03*
D56*
X133000000Y-34000000D03*
X192000000Y-37000000D03*
X155000000Y-81000000D03*
X163000000Y-73000000D03*
D57*
X102000000Y-75000000D03*
D56*
X192000000Y-31000000D03*
D57*
X162000000Y-26000000D03*
D56*
X135000000Y-80000000D03*
X137000000Y-38000000D03*
X159000000Y-89000000D03*
X154000000Y-76000000D03*
D57*
X111000000Y-87000000D03*
X191000000Y-44000000D03*
D56*
X135000000Y-91000000D03*
X138000000Y-77000000D03*
X136000000Y-77000000D03*
X192000000Y-61000000D03*
X159000000Y-81000000D03*
X159000000Y-83000000D03*
X132000000Y-22000000D03*
X161000000Y-85000000D03*
D57*
X112000000Y-85000000D03*
D56*
X96000000Y-67000000D03*
D57*
X106000000Y-66000000D03*
D56*
X159000000Y-95000000D03*
X136000000Y-26000000D03*
D57*
X101000000Y-26000000D03*
D56*
X146000000Y-26000000D03*
D57*
X161007500Y-33412500D03*
D56*
X138000000Y-22000000D03*
X157000000Y-91000000D03*
X139000000Y-75000000D03*
D57*
X101000000Y-23000000D03*
D56*
X190500000Y-80500000D03*
D57*
X160000000Y-40000000D03*
D56*
X98000000Y-71000000D03*
D57*
X152000000Y-34000000D03*
D56*
X171000000Y-31000000D03*
D57*
X184000000Y-34000000D03*
D56*
X159000000Y-77000000D03*
X135000000Y-38000000D03*
X192000000Y-51000000D03*
X146000000Y-24000000D03*
X140000000Y-26000000D03*
X129000000Y-97000000D03*
X156000000Y-79000000D03*
D57*
X178000000Y-34000000D03*
D56*
X146000000Y-22000000D03*
X132000000Y-24000000D03*
X144000000Y-26000000D03*
X150000000Y-24000000D03*
X155000000Y-69000000D03*
X190500000Y-82500000D03*
X155000000Y-71000000D03*
D57*
X104000000Y-78000000D03*
X176000000Y-37000000D03*
D56*
X98000000Y-61000000D03*
X96000000Y-69000000D03*
X157000000Y-95000000D03*
X135000000Y-28000000D03*
D57*
X101000000Y-21000000D03*
D56*
X153000000Y-83000000D03*
X142000000Y-24000000D03*
X96000000Y-61000000D03*
X133000000Y-32000000D03*
D57*
X165000000Y-26000000D03*
D56*
X151000000Y-72000000D03*
X100000000Y-60000000D03*
X139000000Y-29000000D03*
X144000000Y-71000000D03*
D57*
X113000000Y-51000000D03*
D56*
X151000000Y-95000000D03*
D57*
X111000000Y-59000000D03*
D56*
X150000000Y-26000000D03*
X98000000Y-73000000D03*
X159000000Y-93000000D03*
X136000000Y-24000000D03*
X157000000Y-85000000D03*
D57*
X114000000Y-85000000D03*
D56*
X135000000Y-87000000D03*
D57*
X175000000Y-38000000D03*
D56*
X192000000Y-39000000D03*
X190500000Y-84500000D03*
X163000000Y-67000000D03*
X151000000Y-93000000D03*
X98000000Y-65000000D03*
X139000000Y-31000000D03*
X190000000Y-89000000D03*
X132000000Y-85000000D03*
X157000000Y-87000000D03*
X161000000Y-69000000D03*
X193000000Y-26000000D03*
X98000000Y-37000000D03*
X154000000Y-73000000D03*
D57*
X182000000Y-34000000D03*
D56*
X155000000Y-83000000D03*
X138000000Y-72000000D03*
D57*
X173000000Y-44000000D03*
X111000000Y-32000000D03*
D56*
X161000000Y-83000000D03*
X98000000Y-41000000D03*
D57*
X113000000Y-84000000D03*
X111000000Y-28000000D03*
X124000000Y-52000000D03*
D56*
X142000000Y-67000000D03*
X102000000Y-94000000D03*
X169000000Y-27000000D03*
X161000000Y-67000000D03*
X96000000Y-71000000D03*
X157000000Y-83000000D03*
D57*
X177000000Y-54000000D03*
X157000000Y-38000000D03*
D56*
X159000000Y-79000000D03*
X135000000Y-30000000D03*
X153000000Y-97000000D03*
X98000000Y-69000000D03*
X159000000Y-75000000D03*
X190500000Y-78500000D03*
X159000000Y-85000000D03*
X98000000Y-67000000D03*
X138000002Y-67000000D03*
X171000000Y-21000000D03*
X129000000Y-91000000D03*
X135000000Y-72000000D03*
X139000000Y-81000000D03*
X96000000Y-75000000D03*
D57*
X187000000Y-86000000D03*
D56*
X132000000Y-87000000D03*
X151000000Y-89000000D03*
X98000000Y-53000000D03*
X142000000Y-22000000D03*
X151000000Y-83000000D03*
D58*
%TO.N,/AUDIO_R*%
X185342500Y-32003660D03*
X106487500Y-52412500D03*
%TO.N,/AUDIO_L*%
X104487500Y-56412500D03*
X179487500Y-30412500D03*
D56*
%TO.N,Net-(U1-OUTNR)*%
X168487500Y-76412500D03*
X186785779Y-51162500D03*
X183056774Y-44722113D03*
D57*
%TO.N,/+3V3_SYS*%
X132487500Y-62412500D03*
X144487500Y-62412500D03*
X137487500Y-62412500D03*
X131487500Y-41412500D03*
X128487500Y-39412500D03*
X170487501Y-44412498D03*
D56*
%TO.N,Net-(U1-OUTPR)*%
X175987500Y-74412500D03*
X189487500Y-52412500D03*
%TO.N,Net-(U6-D12-Pad1)*%
X127275850Y-86490313D03*
X127217500Y-79270850D03*
D58*
%TO.N,/ESP_IO0*%
X125487500Y-44412500D03*
X125487500Y-40412500D03*
%TO.N,/ESP_EN*%
X112487500Y-44412500D03*
X99487500Y-41412500D03*
%TO.N,/DAC_OUT_L*%
X104000000Y-40000000D03*
X102000000Y-39000000D03*
%TO.N,/ESP_RXD0*%
X125487500Y-26412500D03*
X126487500Y-24412500D03*
D57*
%TO.N,/+5V_VBUS*%
X103976863Y-84905235D03*
X106487500Y-79412500D03*
X104487500Y-79412500D03*
%TD*%
%TO.N,/+21V_BOOST*%
D59*
X143487500Y-59412500D02*
X143487500Y-57412500D01*
X176712500Y-50187500D02*
X176712500Y-48412500D01*
X186647500Y-46412500D02*
X186367500Y-46132500D01*
X167487500Y-51712500D02*
X171487500Y-51712500D01*
X188712500Y-46412500D02*
X188712500Y-44412500D01*
X188712500Y-46412500D02*
X186647500Y-46412500D01*
X161257489Y-31309489D02*
X161258500Y-31310500D01*
D60*
X161257500Y-31682500D02*
X160879500Y-31682500D01*
X161257500Y-31682500D02*
X161635500Y-31682500D01*
D59*
X177487500Y-51637500D02*
X177487500Y-51412500D01*
X177487500Y-51412500D02*
X176487500Y-50412500D01*
D61*
X177907500Y-46132500D02*
X177257500Y-46132500D01*
D59*
X172787500Y-50412500D02*
X176487500Y-50412500D01*
D60*
X186367500Y-46132500D02*
X185739000Y-46132500D01*
D59*
X176712500Y-48412500D02*
X177636000Y-47489000D01*
X164487500Y-52412500D02*
X165187500Y-51712500D01*
X160487500Y-64412500D02*
X164487500Y-60412500D01*
X167487500Y-49412500D02*
X167487500Y-51712500D01*
X177636000Y-47489000D02*
X177636000Y-45000000D01*
X165187500Y-51712500D02*
X167487500Y-51712500D01*
X147487500Y-81412500D02*
X147487500Y-64412500D01*
X161007500Y-28887500D02*
X161257489Y-29137489D01*
X174462500Y-46412500D02*
X174512500Y-46462500D01*
X144312500Y-28587500D02*
X156007500Y-28587500D01*
X176487500Y-50412500D02*
X176712500Y-50187500D01*
X138487500Y-54412500D02*
X138487500Y-51412500D01*
X143487500Y-57412500D02*
X140487500Y-54412500D01*
X147487500Y-64412500D02*
X147487500Y-63412500D01*
X138487500Y-34412500D02*
X144312500Y-28587500D01*
X158007500Y-28887500D02*
X156307500Y-28887500D01*
X171487500Y-51712500D02*
X172787500Y-50412500D01*
X158007500Y-28887500D02*
X164007500Y-28887500D01*
X172512500Y-46412500D02*
X174462500Y-46412500D01*
X147487500Y-64412500D02*
X160487500Y-64412500D01*
X147487500Y-63412500D02*
X143487500Y-59412500D01*
X161257489Y-29137489D02*
X161257489Y-31309489D01*
X164487500Y-60412500D02*
X164487500Y-52412500D01*
X170487500Y-46412500D02*
X167487500Y-49412500D01*
X188712500Y-44412500D02*
X188712499Y-43287501D01*
X172512500Y-46412500D02*
X170487500Y-46412500D01*
X175262500Y-48412500D02*
X176712500Y-48412500D01*
X140487500Y-54412500D02*
X138487500Y-54412500D01*
X156307500Y-28887500D02*
X156007500Y-28587500D01*
X138487500Y-42412500D02*
X138487500Y-34412500D01*
%TO.N,GND*%
D61*
X108877500Y-39877500D02*
X109000000Y-40000000D01*
X181487500Y-34637500D02*
X181487500Y-34512500D01*
X161937500Y-25937500D02*
X162000000Y-26000000D01*
X105587500Y-21132500D02*
X105132500Y-21132500D01*
X112487500Y-84512500D02*
X113000000Y-84000000D01*
X161537500Y-34182500D02*
X160487500Y-34182500D01*
X106537500Y-82462500D02*
X106000000Y-83000000D01*
X190412500Y-72412500D02*
X190000000Y-72000000D01*
X128167500Y-85932500D02*
X128487500Y-85612500D01*
X181157500Y-38692500D02*
X181157500Y-37759793D01*
X113507500Y-50662500D02*
X121467500Y-50662500D01*
X153000000Y-36000000D02*
X153412500Y-36412500D01*
X121467500Y-50662500D02*
X121662500Y-50662500D01*
X179857500Y-46132500D02*
X179857500Y-44922618D01*
X171487500Y-59112500D02*
X171487500Y-59487500D01*
X108877500Y-39132500D02*
X108877500Y-39877500D01*
X183767500Y-45248824D02*
X184256603Y-44759721D01*
X181487500Y-34512500D02*
X182000000Y-34000000D01*
X125487500Y-87237500D02*
X126785600Y-87237500D01*
X173412500Y-86412500D02*
X173000000Y-86000000D01*
X160487500Y-32642500D02*
X160487500Y-33412500D01*
X177257500Y-38692500D02*
X175692500Y-38692500D01*
X143000000Y-92000000D02*
X142000000Y-93000000D01*
X125487500Y-87237500D02*
X125487500Y-87487500D01*
X166587500Y-34412500D02*
X167000000Y-34000000D01*
X110187500Y-28812500D02*
X110000000Y-29000000D01*
X190537500Y-72412500D02*
X190412500Y-72412500D01*
X190587500Y-44412500D02*
X191000000Y-44000000D01*
X114487500Y-26512500D02*
X115000000Y-26000000D01*
X128150850Y-86852750D02*
X128150850Y-86332323D01*
X125487500Y-50912500D02*
X125087500Y-50912500D01*
X116812500Y-28812500D02*
X117000000Y-29000000D01*
X113507500Y-50662500D02*
X113337500Y-50662500D01*
X102412500Y-75412500D02*
X102000000Y-75000000D01*
X125487500Y-87487500D02*
X126000000Y-88000000D01*
X160007500Y-39992500D02*
X160000000Y-40000000D01*
X177487500Y-34512500D02*
X178000000Y-34000000D01*
X181807500Y-45458577D02*
X181119041Y-44770118D01*
X112487500Y-85487500D02*
X112000000Y-85000000D01*
X112502500Y-85502500D02*
X114000000Y-87000000D01*
X161537500Y-34162500D02*
X162287500Y-33412500D01*
X133447500Y-51447500D02*
X134000000Y-52000000D01*
X111687500Y-30212500D02*
X114487500Y-30212500D01*
X112487500Y-85487500D02*
X111000000Y-84000000D01*
X179857500Y-44922618D02*
X179881034Y-44899084D01*
X160847500Y-32642500D02*
X162347498Y-34142498D01*
X171487500Y-59112500D02*
X170000000Y-60600000D01*
X112487500Y-86512500D02*
X112000000Y-87000000D01*
X186587500Y-86412500D02*
X187000000Y-86000000D01*
X176607500Y-38692500D02*
X179207500Y-38692500D01*
X106537500Y-82412500D02*
X106537500Y-82462500D01*
X161537500Y-33412500D02*
X161007500Y-33412500D01*
X111687500Y-30212500D02*
X111212500Y-30212500D01*
X161537500Y-32642500D02*
X161537500Y-33412500D01*
X181807500Y-46132500D02*
X181807500Y-45458577D01*
X186367500Y-38632500D02*
X187000000Y-38000000D01*
X115787500Y-30212500D02*
X116000000Y-30000000D01*
X161537500Y-34182500D02*
X161537500Y-34162500D01*
X112487500Y-85502500D02*
X112502500Y-85502500D01*
X103612500Y-85612500D02*
X104000000Y-86000000D01*
X101412500Y-23412500D02*
X101000000Y-23000000D01*
X115137500Y-80500000D02*
X115637500Y-81000000D01*
X158827500Y-32662500D02*
X160257500Y-32662500D01*
X101412500Y-21412500D02*
X101000000Y-21000000D01*
X177487500Y-53512500D02*
X177000000Y-54000000D01*
X114487500Y-30212500D02*
X115787500Y-30212500D01*
X126913413Y-87365313D02*
X127638287Y-87365313D01*
X166587500Y-36412500D02*
X167000000Y-36000000D01*
X154412500Y-32412500D02*
X154000000Y-32000000D01*
X173537500Y-86412500D02*
X173412500Y-86412500D01*
X183767500Y-46132500D02*
X183767500Y-45248824D01*
X128150850Y-86332323D02*
X128167500Y-86315673D01*
X104662500Y-88412500D02*
X104587500Y-88412500D01*
X113087500Y-27412500D02*
X113087500Y-30212500D01*
X186437500Y-86412500D02*
X186587500Y-86412500D01*
X155182500Y-32412500D02*
X154412500Y-32412500D01*
X166437500Y-38437500D02*
X167000000Y-39000000D01*
X160487500Y-32642500D02*
X161537500Y-32642500D01*
X147700000Y-88000000D02*
X148000000Y-88000000D01*
X116487500Y-86487500D02*
X117000000Y-87000000D01*
X106487500Y-50812500D02*
X107812500Y-50812500D01*
X181157500Y-38692500D02*
X181807500Y-38692500D01*
X114487500Y-28812500D02*
X116812500Y-28812500D01*
X181157500Y-37759793D02*
X181790782Y-37126511D01*
X173712500Y-48412500D02*
X173412500Y-48412500D01*
X112487500Y-85502500D02*
X112487500Y-86512500D01*
X113497500Y-85502500D02*
X114000000Y-85000000D01*
X175692500Y-38692500D02*
X175000000Y-38000000D01*
X121887500Y-64112500D02*
X121000000Y-65000000D01*
X114487500Y-31487500D02*
X115000000Y-32000000D01*
X101587500Y-25412500D02*
X101000000Y-26000000D01*
X113087500Y-26087500D02*
X113000000Y-26000000D01*
X133447500Y-50912500D02*
X133447500Y-51447500D01*
X157187500Y-38187500D02*
X157000000Y-38000000D01*
X122112500Y-64112500D02*
X122000000Y-64000000D01*
X127638287Y-87365313D02*
X128150850Y-86852750D01*
X111687500Y-27412500D02*
X111587500Y-27412500D01*
X104587500Y-88412500D02*
X104000000Y-89000000D01*
X125087500Y-50912500D02*
X124000000Y-52000000D01*
X124867500Y-21132500D02*
X125000000Y-21000000D01*
X112487500Y-85502500D02*
X113497500Y-85502500D01*
X110587500Y-59412500D02*
X111000000Y-59000000D01*
X128817500Y-85612500D02*
X128167500Y-85612500D01*
X154182500Y-36412500D02*
X153412500Y-36412500D01*
X111687500Y-26687500D02*
X111000000Y-26000000D01*
X148000000Y-88000000D02*
X149000000Y-87000000D01*
X111687500Y-28812500D02*
X110187500Y-28812500D01*
X114487500Y-30212500D02*
X114487500Y-27412500D01*
X113087500Y-31912500D02*
X113000000Y-32000000D01*
X182437500Y-72437500D02*
X183000000Y-73000000D01*
X111587500Y-27412500D02*
X111000000Y-28000000D01*
X117412500Y-68412500D02*
X117000000Y-68000000D01*
X111687500Y-30212500D02*
X111687500Y-31312500D01*
X186367500Y-38692500D02*
X186367500Y-38632500D01*
X106117500Y-65882500D02*
X106000000Y-66000000D01*
X166437500Y-38412500D02*
X166437500Y-38437500D01*
X160007500Y-39237500D02*
X160007500Y-39992500D01*
X117537500Y-65412500D02*
X117412500Y-65412500D01*
X101712500Y-21412500D02*
X101412500Y-21412500D01*
X110262500Y-59412500D02*
X110587500Y-59412500D01*
X102662500Y-75412500D02*
X102412500Y-75412500D01*
X111687500Y-31312500D02*
X111000000Y-32000000D01*
X111687500Y-28812500D02*
X114487500Y-28812500D01*
X111687500Y-27412500D02*
X111687500Y-26687500D01*
X172512500Y-44487500D02*
X173000000Y-44000000D01*
X177907500Y-38692500D02*
X177692500Y-38692500D01*
X152232500Y-34412500D02*
X152232500Y-34232500D01*
X114487500Y-27412500D02*
X115412500Y-27412500D01*
X112487500Y-85502500D02*
X112487500Y-85487500D01*
X105132500Y-21132500D02*
X105000000Y-21000000D01*
X161007500Y-25937500D02*
X161937500Y-25937500D01*
X182437500Y-72412500D02*
X182437500Y-72437500D01*
X114487500Y-27412500D02*
X111687500Y-27412500D01*
X170000000Y-60600000D02*
X170000000Y-61000000D01*
X177487500Y-34637500D02*
X177487500Y-34512500D01*
X166437500Y-36412500D02*
X166587500Y-36412500D01*
X160487500Y-32662500D02*
X159737500Y-33412500D01*
X117587500Y-89412500D02*
X118000000Y-89000000D01*
X164937500Y-25937500D02*
X165000000Y-26000000D01*
X113087500Y-27412500D02*
X113087500Y-26087500D01*
X171487500Y-59487500D02*
X172000000Y-60000000D01*
X158007500Y-38187500D02*
X157187500Y-38187500D01*
X115637500Y-81000000D02*
X116000000Y-81000000D01*
X125487500Y-50912500D02*
X133447500Y-50912500D01*
X117312500Y-89412500D02*
X117587500Y-89412500D01*
X112487500Y-85502500D02*
X112487500Y-84512500D01*
X161507432Y-32642500D02*
X161540445Y-32675513D01*
X102957500Y-85612500D02*
X103612500Y-85612500D01*
X156937500Y-25937500D02*
X156000000Y-25000000D01*
X112487500Y-85512500D02*
X111000000Y-87000000D01*
X117412500Y-65412500D02*
X117000000Y-65000000D01*
X122517500Y-64112500D02*
X121887500Y-64112500D01*
X190587500Y-46412500D02*
X191000000Y-46000000D01*
X111212500Y-30212500D02*
X111000000Y-30000000D01*
X160487500Y-32642500D02*
X161507432Y-32642500D01*
X172512500Y-44862500D02*
X172512500Y-44487500D01*
X122517500Y-64112500D02*
X122112500Y-64112500D01*
X166262500Y-34412500D02*
X166587500Y-34412500D01*
X152232500Y-34232500D02*
X152000000Y-34000000D01*
X114487500Y-27412500D02*
X114487500Y-26512500D01*
X101712500Y-25412500D02*
X101587500Y-25412500D01*
X159737500Y-33412500D02*
X160487500Y-33412500D01*
X177692500Y-38692500D02*
X176000000Y-37000000D01*
X160487500Y-34147132D02*
X160492820Y-34152452D01*
X123587500Y-21132500D02*
X124867500Y-21132500D01*
X102957500Y-79042500D02*
X104000000Y-78000000D01*
X173412500Y-48412500D02*
X173000000Y-48000000D01*
X177487500Y-53187500D02*
X177487500Y-53512500D01*
X121662500Y-50662500D02*
X122000000Y-51000000D01*
X160487500Y-33412500D02*
X160487500Y-34147132D01*
X115412500Y-27412500D02*
X116000000Y-28000000D01*
X112487500Y-85502500D02*
X112487500Y-85512500D01*
X101537500Y-23412500D02*
X101412500Y-23412500D01*
X114487500Y-30212500D02*
X114487500Y-31487500D01*
X164007500Y-25937500D02*
X164937500Y-25937500D01*
X190262500Y-46412500D02*
X190587500Y-46412500D01*
X160487500Y-32642500D02*
X160487500Y-32662500D01*
X183487500Y-34637500D02*
X183487500Y-34512500D01*
X160257500Y-32662500D02*
X161007500Y-33412500D01*
X107812500Y-50812500D02*
X108000000Y-51000000D01*
X106117500Y-65092500D02*
X106117500Y-65882500D01*
X184256603Y-44759721D02*
X184256603Y-44624911D01*
X158007500Y-25937500D02*
X156937500Y-25937500D01*
X117537500Y-68412500D02*
X117412500Y-68412500D01*
X162287500Y-33412500D02*
X161537500Y-33412500D01*
X183487500Y-34512500D02*
X184000000Y-34000000D01*
X116487500Y-86362500D02*
X116487500Y-86487500D01*
X190262500Y-44412500D02*
X190587500Y-44412500D01*
X126785600Y-87237500D02*
X126913413Y-87365313D01*
X128167500Y-86315673D02*
X128167500Y-85932500D01*
X113087500Y-30212500D02*
X113087500Y-31912500D01*
X160487500Y-32642500D02*
X160847500Y-32642500D01*
X143000000Y-91000000D02*
X143000000Y-92000000D01*
X113337500Y-50662500D02*
X113000000Y-51000000D01*
X111687500Y-27412500D02*
X111687500Y-30212500D01*
X102957500Y-79212500D02*
X102957500Y-79042500D01*
%TO.N,Net-(U1-GVDD)*%
D62*
X181962500Y-36187500D02*
X181487500Y-36187500D01*
X182467500Y-38692500D02*
X183117500Y-38692500D01*
X182467500Y-38692500D02*
X182467500Y-36692500D01*
X182467500Y-36692500D02*
X181962500Y-36187500D01*
%TO.N,/AUDIO_R*%
X102487500Y-52412500D02*
X106487500Y-52412500D01*
X185487500Y-34637500D02*
X185487500Y-32148660D01*
X101487500Y-40412500D02*
X103487500Y-38412500D01*
X185487500Y-32148660D02*
X185342500Y-32003660D01*
X101487500Y-51412500D02*
X102487500Y-52412500D01*
X101487500Y-46012500D02*
X101487500Y-51412500D01*
X103487500Y-37237500D02*
X102487500Y-36237500D01*
X103487500Y-38412500D02*
X103487500Y-37237500D01*
X101487500Y-46012500D02*
X101487500Y-40412500D01*
%TO.N,Net-(U1-RINP)*%
X185487500Y-36187500D02*
X185487500Y-36412500D01*
X185487500Y-36412500D02*
X184417500Y-37482500D01*
X184417500Y-37482500D02*
X184417500Y-38692500D01*
%TO.N,/AUDIO_L*%
X100487500Y-55412500D02*
X101487500Y-56412500D01*
X101487500Y-56412500D02*
X104487500Y-56412500D01*
X98487500Y-46012500D02*
X98487500Y-51412500D01*
X98487500Y-51412500D02*
X100487500Y-53412500D01*
X100487500Y-53412500D02*
X100487500Y-55412500D01*
X179487500Y-34637500D02*
X179487500Y-30412500D01*
%TO.N,Net-(U1-LINP)*%
X180507500Y-38692500D02*
X180507500Y-37207500D01*
X180507500Y-37207500D02*
X179487500Y-36187500D01*
%TO.N,/SPK_R_PLUS*%
D59*
X184537500Y-83262500D02*
X184537500Y-86412500D01*
X177498208Y-95423208D02*
X178237500Y-96162500D01*
X184737500Y-96162500D02*
X185187500Y-95712500D01*
X178237500Y-96162500D02*
X184737500Y-96162500D01*
X185187500Y-95712500D02*
X185187500Y-87062500D01*
X184487500Y-83212500D02*
X184537500Y-83262500D01*
X177498208Y-93585000D02*
X177498208Y-95423208D01*
X185187500Y-87062500D02*
X184537500Y-86412500D01*
%TO.N,Net-(U1-OUTNR)*%
X185487500Y-52187500D02*
X185976327Y-52187500D01*
X186785779Y-51378048D02*
X186785779Y-51162500D01*
X168487500Y-79412500D02*
X169487500Y-80412500D01*
X169487500Y-80412500D02*
X172687500Y-80412500D01*
X185976327Y-52187500D02*
X186785779Y-51378048D01*
D61*
X183117500Y-46132500D02*
X183117500Y-44782839D01*
X183117500Y-44782839D02*
X183056774Y-44722113D01*
D59*
X168487500Y-76412500D02*
X168487500Y-79412500D01*
%TO.N,/SPK_R_MINUS*%
X175437500Y-86412500D02*
X175437500Y-89362500D01*
X175437500Y-86412500D02*
X178487500Y-86412500D01*
X178487500Y-86412500D02*
X178487500Y-80612500D01*
X178487500Y-80612500D02*
X178287500Y-80412500D01*
X175437500Y-89362500D02*
X175487500Y-89412500D01*
X175487500Y-89412500D02*
X181487500Y-89412500D01*
X181487500Y-89412500D02*
X182498208Y-90423208D01*
X182498208Y-90423208D02*
X182498208Y-93585000D01*
%TO.N,Net-(U2-ILIM)*%
D62*
X158007500Y-31412500D02*
X158007500Y-35412500D01*
X158277500Y-31682500D02*
X158007500Y-31412500D01*
X156832500Y-35412500D02*
X155832500Y-36412500D01*
X158007500Y-35412500D02*
X156832500Y-35412500D01*
X159257500Y-31682500D02*
X158277500Y-31682500D01*
%TO.N,Net-(U2-SS)*%
X164462500Y-34162500D02*
X164712500Y-34412500D01*
X163187500Y-34162500D02*
X164462500Y-34162500D01*
%TO.N,Net-(U1-BSNR)*%
D61*
X185487500Y-50187500D02*
X182467500Y-47167500D01*
X185487500Y-50637500D02*
X185487500Y-50187500D01*
X182467500Y-47167500D02*
X182467500Y-46132500D01*
%TO.N,Net-(U1-AVCC)*%
D60*
X174512500Y-44812500D02*
X175266000Y-44812500D01*
X175266000Y-44812500D02*
X176586000Y-46132500D01*
%TO.N,Net-(U1-BSPL)*%
D61*
X183262500Y-49412500D02*
X183262500Y-48937500D01*
X183262500Y-48937500D02*
X181157500Y-46832500D01*
X181157500Y-46832500D02*
X181157500Y-46132500D01*
%TO.N,Net-(U1-OUTPL)*%
D59*
X183487500Y-51497592D02*
X181712500Y-49722592D01*
D60*
X180775802Y-47402446D02*
X180507500Y-47134144D01*
D59*
X181712500Y-49722592D02*
X181712500Y-49412500D01*
D60*
X180775802Y-47756000D02*
X180775802Y-47402446D01*
D59*
X186687500Y-66412500D02*
X186687500Y-58612500D01*
X181712500Y-48692698D02*
X180775802Y-47756000D01*
D61*
X180507500Y-46132500D02*
X180507500Y-47134144D01*
D59*
X181712500Y-49412500D02*
X181712500Y-48692698D01*
X183487500Y-55412500D02*
X183487500Y-51497592D01*
X186687500Y-58612500D02*
X183487500Y-55412500D01*
%TO.N,/V_LDO_IN*%
D63*
X114487500Y-67412500D02*
X116487500Y-69412500D01*
X119437500Y-68462500D02*
X119437500Y-68412500D01*
X118487500Y-69412500D02*
X119437500Y-68462500D01*
X116487500Y-69412500D02*
X118487500Y-69412500D01*
X114487500Y-67412500D02*
X114487500Y-63412500D01*
X119737500Y-68712500D02*
X119437500Y-68412500D01*
X122517500Y-68712500D02*
X119737500Y-68712500D01*
%TO.N,/DAC_OUT_R*%
D62*
X104242500Y-33832500D02*
X103487500Y-34587500D01*
X105587500Y-33832500D02*
X104242500Y-33832500D01*
X103487500Y-34587500D02*
X102487500Y-34587500D01*
%TO.N,/+3V3_SYS*%
D63*
X103437500Y-23412500D02*
X103437500Y-22412500D01*
X119437500Y-62362500D02*
X118487500Y-61412500D01*
X134487500Y-41412500D02*
X131487500Y-41412500D01*
X96000000Y-55925000D02*
X96000000Y-27900000D01*
X100360000Y-25095108D02*
X101077608Y-24377500D01*
X130487500Y-62412500D02*
X130487500Y-54412500D01*
X100360000Y-26265097D02*
X100360000Y-25095108D01*
X130487500Y-54412500D02*
X131487500Y-53412500D01*
X187487500Y-30412500D02*
X187312500Y-30587500D01*
X170487502Y-44412498D02*
X170487501Y-44412498D01*
X119437500Y-65412500D02*
X119437500Y-62362500D01*
X173487500Y-22412500D02*
X173487500Y-41412500D01*
X107387500Y-60512500D02*
X107387500Y-59732500D01*
X128487500Y-39412500D02*
X128487500Y-38587500D01*
X103667500Y-61412500D02*
X108487500Y-61412500D01*
X187312500Y-30587500D02*
X186487500Y-30587500D01*
X122517500Y-66412500D02*
X120437500Y-66412500D01*
X119487500Y-62412500D02*
X130487500Y-62412500D01*
X103577500Y-61322500D02*
X103667500Y-61412500D01*
X100262500Y-57412500D02*
X97487500Y-57412500D01*
X103577500Y-59732500D02*
X102582500Y-59732500D01*
X101365000Y-26640000D02*
X100734903Y-26640000D01*
X103577500Y-59732500D02*
X103577500Y-61322500D01*
X103447500Y-22402500D02*
X105587500Y-22402500D01*
X174487500Y-21412500D02*
X173487500Y-22412500D01*
X187487500Y-21412500D02*
X174487500Y-21412500D01*
X120437500Y-66412500D02*
X119437500Y-65412500D01*
X103437500Y-22412500D02*
X103447500Y-22402500D01*
X131487500Y-53412500D02*
X134487500Y-53412500D01*
X119437500Y-62362500D02*
X119487500Y-62412500D01*
X187487500Y-34587500D02*
X187487500Y-30412500D01*
X118487500Y-61412500D02*
X108487500Y-61412500D01*
X96000000Y-27900000D02*
X96487500Y-27412500D01*
X128487500Y-38587500D02*
X127312500Y-37412500D01*
X103437500Y-21587500D02*
X103262500Y-21412500D01*
X135487500Y-52412500D02*
X135487500Y-42412500D01*
X97487500Y-57412500D02*
X96000000Y-55925000D01*
X144487500Y-62412500D02*
X137487500Y-62412500D01*
X102582500Y-59732500D02*
X100262500Y-57412500D01*
X108487500Y-61412500D02*
X108712500Y-61187500D01*
X107707500Y-59412500D02*
X107387500Y-59732500D01*
X101077608Y-24377500D02*
X102472500Y-24377500D01*
X130487500Y-62412500D02*
X132487500Y-62412500D01*
X103437500Y-22412500D02*
X103437500Y-21587500D01*
X108712500Y-59412500D02*
X107707500Y-59412500D01*
X187487500Y-30412500D02*
X187487500Y-21412500D01*
X101662500Y-27412500D02*
X101662500Y-26937500D01*
X102472500Y-24377500D02*
X103437500Y-23412500D01*
X108712500Y-61187500D02*
X108712500Y-59412500D01*
X134487500Y-53412500D02*
X135487500Y-52412500D01*
X100734903Y-26640000D02*
X100360000Y-26265097D01*
X96487500Y-27412500D02*
X101662500Y-27412500D01*
X101662500Y-26937500D02*
X101365000Y-26640000D01*
X173487500Y-41412500D02*
X170487502Y-44412498D01*
X135487500Y-42412500D02*
X134487500Y-41412500D01*
%TO.N,/+BAT_3V7*%
D59*
X143487500Y-52644734D02*
X145255266Y-54412500D01*
X134487500Y-55412500D02*
X136487500Y-53412500D01*
X164537500Y-40412500D02*
X170487500Y-40412500D01*
X110487500Y-68412500D02*
X112487500Y-70412500D01*
X136487500Y-48412500D02*
X137487500Y-47412500D01*
D64*
X162257500Y-30642500D02*
X162257500Y-31682500D01*
D59*
X117642500Y-82592500D02*
X114397500Y-82592500D01*
X163364008Y-35239008D02*
X163129500Y-35239008D01*
X112487500Y-70412500D02*
X112487500Y-72392500D01*
X116487500Y-70685292D02*
X115802208Y-70000000D01*
X167487500Y-30412500D02*
X163487500Y-30412500D01*
X112900000Y-70000000D02*
X112487500Y-70412500D01*
X116487500Y-84462500D02*
X117212500Y-84462500D01*
X157487500Y-51412500D02*
X164537500Y-44362500D01*
X164537500Y-38412500D02*
X164537500Y-36412500D01*
X116487500Y-73412500D02*
X116487500Y-70685292D01*
D60*
X162257500Y-30642500D02*
X162487500Y-30412500D01*
X159182500Y-36107501D02*
X159135500Y-36060501D01*
D59*
X145255266Y-54412500D02*
X157487500Y-54412500D01*
X143487500Y-47412500D02*
X143487500Y-52644734D01*
X134487500Y-68412500D02*
X134487500Y-55412500D01*
X143487500Y-41412500D02*
X144487500Y-40412500D01*
X118000000Y-82950000D02*
X116487500Y-84462500D01*
X170487500Y-33412500D02*
X167487500Y-30412500D01*
X136487500Y-53412500D02*
X136487500Y-48412500D01*
X118000000Y-74925000D02*
X118000000Y-82950000D01*
D60*
X158487500Y-40412500D02*
X159032500Y-39867500D01*
X162905498Y-30412498D02*
X162487500Y-30412498D01*
D59*
X164537500Y-36412500D02*
X163364008Y-35239008D01*
X117212500Y-84462500D02*
X120987500Y-88237500D01*
X164537500Y-40412500D02*
X164537500Y-38412500D01*
D60*
X163487500Y-30412500D02*
X162487500Y-30412500D01*
X159135500Y-36060501D02*
X159135500Y-35142500D01*
D59*
X157487500Y-54412500D02*
X157487500Y-51412500D01*
D60*
X159032500Y-36257501D02*
X159182500Y-36107501D01*
X162905500Y-30412500D02*
X162905498Y-30412498D01*
D59*
X137487500Y-47412500D02*
X146337500Y-47412500D01*
D60*
X159032500Y-39867500D02*
X159032500Y-36257501D01*
D59*
X120312500Y-77587500D02*
X118000000Y-79900000D01*
X116487500Y-73412500D02*
X129487500Y-73412500D01*
X129487500Y-73412500D02*
X134487500Y-68412500D01*
X116487500Y-73412500D02*
X118000000Y-74925000D01*
X144487500Y-40412500D02*
X158487500Y-40412500D01*
X115802208Y-70000000D02*
X112900000Y-70000000D01*
X170487500Y-40412500D02*
X170487500Y-33412500D01*
D60*
X162487500Y-30412500D02*
X162487500Y-30412498D01*
D59*
X143487500Y-47412500D02*
X143487500Y-41412500D01*
X110487500Y-67412500D02*
X110487500Y-68412500D01*
X164537500Y-44362500D02*
X164537500Y-40412500D01*
X143487500Y-47412500D02*
X146337500Y-47412500D01*
X118000000Y-82950000D02*
X117642500Y-82592500D01*
X120487500Y-77587500D02*
X120312500Y-77587500D01*
X120987500Y-88237500D02*
X120987500Y-94662500D01*
%TO.N,Net-(U1-BSPR)*%
D61*
X187262500Y-48412500D02*
X186231000Y-47381000D01*
X185067500Y-46957368D02*
X185067500Y-46132500D01*
X185491132Y-47381000D02*
X185067500Y-46957368D01*
X186231000Y-47381000D02*
X185491132Y-47381000D01*
%TO.N,Net-(U1-OUTPR)*%
D59*
X186737500Y-49912500D02*
X187303546Y-49912500D01*
X175987500Y-74412500D02*
X181287500Y-74412500D01*
X181287500Y-74412500D02*
X184487150Y-77612150D01*
X185240275Y-48412500D02*
X184561565Y-47733790D01*
D65*
X184417500Y-46132500D02*
X184417500Y-47589725D01*
D59*
X185712500Y-48412500D02*
X185712500Y-48887500D01*
X189487500Y-52096454D02*
X189487500Y-52412500D01*
X187303546Y-49912500D02*
X189487500Y-52096454D01*
D61*
X184417500Y-47589725D02*
X184561565Y-47733790D01*
D59*
X184487150Y-77612150D02*
X185000000Y-77612150D01*
X185712500Y-48887500D02*
X186737500Y-49912500D01*
D60*
X185712500Y-48412500D02*
X185240275Y-48412500D01*
%TO.N,Net-(J1-CC2)*%
D62*
X104033159Y-84162500D02*
X102957500Y-84162500D01*
X106312500Y-86441841D02*
X104033159Y-84162500D01*
X106312500Y-88412500D02*
X106312500Y-86441841D01*
%TO.N,Net-(U5-VCC)*%
X121262500Y-82412500D02*
X122137500Y-82412500D01*
X120487500Y-79237500D02*
X120487500Y-81637500D01*
X120487500Y-81637500D02*
X121262500Y-82412500D01*
%TO.N,Net-(U2-BOOT)*%
X162487500Y-36637500D02*
X162257500Y-36407500D01*
X162257500Y-36407500D02*
X162257500Y-35142500D01*
%TO.N,Net-(C12-Pad2)*%
D59*
X162487500Y-38187500D02*
X162012500Y-38187500D01*
X162012500Y-38187500D02*
X161257500Y-37432500D01*
X162007500Y-43892500D02*
X162007500Y-38667500D01*
X162007500Y-38667500D02*
X162487500Y-38187500D01*
D60*
X160757500Y-35142500D02*
X160379500Y-35142500D01*
D59*
X154637500Y-47412500D02*
X158487500Y-47412500D01*
D60*
X160757500Y-35142500D02*
X161635500Y-35142500D01*
D59*
X158487500Y-47412500D02*
X162007500Y-43892500D01*
X161257500Y-37432500D02*
X161257500Y-35239008D01*
%TO.N,Net-(U6-D12-Pad1)*%
D61*
X127507500Y-85612500D02*
X127507500Y-86258663D01*
X127507500Y-79212500D02*
X127275850Y-79212500D01*
X127275850Y-79212500D02*
X127217500Y-79270850D01*
X127507500Y-86258663D02*
X127275850Y-86490313D01*
%TO.N,Net-(U5-OD)*%
D62*
X129467500Y-87432500D02*
X129467500Y-85612500D01*
X125487500Y-84012500D02*
X125487500Y-84412500D01*
X124837500Y-83362500D02*
X125487500Y-84012500D01*
X124487500Y-84412500D02*
X124487500Y-89000000D01*
X127900000Y-89000000D02*
X129467500Y-87432500D01*
X124487500Y-89000000D02*
X127900000Y-89000000D01*
X125487500Y-84412500D02*
X124487500Y-84412500D01*
%TO.N,Net-(U5-OC)*%
X129487500Y-78692500D02*
X129467500Y-78712500D01*
X129487500Y-80412500D02*
X129487500Y-78692500D01*
X129467500Y-78712500D02*
X129467500Y-79212500D01*
X124837500Y-80412500D02*
X129487500Y-80412500D01*
X124837500Y-81462500D02*
X124837500Y-80412500D01*
%TO.N,/BAT_NEG*%
D63*
X122927500Y-80972500D02*
X122927500Y-82952500D01*
X122387500Y-83362500D02*
X122137500Y-83362500D01*
X123837500Y-78062500D02*
X123487500Y-78412500D01*
X128817500Y-79212500D02*
X128167500Y-79212500D01*
X122517500Y-83362500D02*
X122137500Y-83362500D01*
X122487500Y-83262500D02*
X122387500Y-83362500D01*
X120662500Y-83362500D02*
X120487500Y-83187500D01*
X123487500Y-94662500D02*
X122137500Y-93312500D01*
X123487500Y-80412500D02*
X122927500Y-80972500D01*
X127756028Y-78062500D02*
X123837500Y-78062500D01*
X128167500Y-78473972D02*
X127756028Y-78062500D01*
X128167500Y-79212500D02*
X128167500Y-78473972D01*
X123487500Y-78412500D02*
X123487500Y-80412500D01*
X122927500Y-82952500D02*
X122517500Y-83362500D01*
X122137500Y-93312500D02*
X122137500Y-83362500D01*
X122137500Y-83362500D02*
X120662500Y-83362500D01*
%TO.N,Net-(U1-RINN)*%
D62*
X183767500Y-36467500D02*
X183487500Y-36187500D01*
X183767500Y-38692500D02*
X183767500Y-36467500D01*
%TO.N,Net-(LED2-K)*%
X115312500Y-91412500D02*
X115312500Y-96012500D01*
X115312500Y-96012500D02*
X114912500Y-96412500D01*
%TO.N,Net-(U3-D2)*%
X113662500Y-88947500D02*
X113127500Y-88412500D01*
X113662500Y-91412500D02*
X113662500Y-88947500D01*
%TO.N,Net-(U1-LINN)*%
X177962500Y-36187500D02*
X179857500Y-38082500D01*
X179857500Y-38082500D02*
X179857500Y-38692500D01*
X177487500Y-36187500D02*
X177962500Y-36187500D01*
%TO.N,Net-(U5-CS)*%
X125487500Y-84751911D02*
X125727500Y-84511911D01*
X124837500Y-82412500D02*
X125067500Y-82412500D01*
X125552500Y-83738088D02*
X125552500Y-82897500D01*
X125727500Y-84511911D02*
X125727500Y-83913088D01*
X125727500Y-83913088D02*
X125552500Y-83738088D01*
X125067500Y-82412500D02*
X125552500Y-82897500D01*
X125487500Y-85587500D02*
X125487500Y-84751911D01*
%TO.N,Net-(U2-FB)*%
X156832500Y-31412500D02*
X158007500Y-30237500D01*
X156007500Y-30237500D02*
X158007500Y-30237500D01*
X156832500Y-32412500D02*
X156832500Y-31412500D01*
X160007500Y-30412500D02*
X160257500Y-30662500D01*
X158007500Y-30237500D02*
X160007500Y-30237500D01*
X160257500Y-30662500D02*
X160257500Y-31682500D01*
X160007500Y-30237500D02*
X160007500Y-30412500D01*
%TO.N,Net-(J1-CC1)*%
X104312500Y-76312500D02*
X104312500Y-75412500D01*
X103757500Y-81162500D02*
X104487500Y-80432500D01*
X104487500Y-80211531D02*
X105052500Y-79646531D01*
X105052500Y-77052500D02*
X104312500Y-76312500D01*
X104487500Y-80432500D02*
X104487500Y-80211531D01*
X105052500Y-79646531D02*
X105052500Y-77052500D01*
X102957500Y-81162500D02*
X103757500Y-81162500D01*
%TO.N,Net-(U1-SDZ)*%
X187487500Y-36237500D02*
X185717500Y-38007500D01*
X185717500Y-38007500D02*
X185717500Y-38692500D01*
%TO.N,Net-(U1-FAULTZ)*%
X185578117Y-37565971D02*
X185731588Y-37412500D01*
X185973088Y-37412500D02*
X186487500Y-36898088D01*
X185067500Y-38076588D02*
X185578117Y-37565971D01*
X185067500Y-38692500D02*
X185067500Y-38076588D01*
X185731588Y-37412500D02*
X185973088Y-37412500D01*
X186487500Y-36898088D02*
X186487500Y-32237500D01*
%TO.N,Net-(U1-BSNL)*%
D61*
X179487500Y-51187500D02*
X179402500Y-51187500D01*
X178557500Y-50342500D02*
X178557500Y-46132500D01*
X179402500Y-51187500D02*
X178557500Y-50342500D01*
%TO.N,Net-(U1-OUTNL)*%
D59*
X179487500Y-49637500D02*
X179797592Y-49637500D01*
D60*
X179382500Y-47662698D02*
X179382500Y-47309144D01*
D59*
X180487150Y-63612150D02*
X180487500Y-63612500D01*
X180712500Y-50552408D02*
X180712500Y-62899650D01*
D61*
X179207500Y-46132500D02*
X179207500Y-47487698D01*
D59*
X180712500Y-62899650D02*
X180000000Y-63612150D01*
X179797592Y-49637500D02*
X180712500Y-50552408D01*
X180000000Y-63612150D02*
X180487150Y-63612150D01*
D61*
X179207500Y-47487698D02*
X179382500Y-47662698D01*
D59*
X179487500Y-49637500D02*
X179487500Y-47767698D01*
D60*
X179382500Y-47309144D02*
X179207500Y-47134144D01*
%TO.N,Net-(LED1-K)*%
D62*
X108912500Y-95987500D02*
X108912500Y-96412500D01*
X111312500Y-93587500D02*
X108912500Y-95987500D01*
X111312500Y-91412500D02*
X111312500Y-93587500D01*
%TO.N,Net-(U3-D1)*%
X109662500Y-89327500D02*
X110577500Y-88412500D01*
X109662500Y-91412500D02*
X109662500Y-89327500D01*
%TO.N,/SPK_L_PLUS*%
D59*
X192437500Y-72412500D02*
X192175164Y-72674836D01*
X186821252Y-97412500D02*
X161487500Y-97412500D01*
X187421252Y-98012500D02*
X186821252Y-97412500D01*
X161660000Y-93585000D02*
X163998208Y-93585000D01*
X192175164Y-96724836D02*
X190887500Y-98012500D01*
X192437500Y-72412500D02*
X192437500Y-66562500D01*
X161487500Y-97412500D02*
X161487500Y-93757500D01*
X192175164Y-72674836D02*
X192175164Y-96724836D01*
X161487500Y-93757500D02*
X161660000Y-93585000D01*
X190887500Y-98012500D02*
X187421252Y-98012500D01*
%TO.N,Net-(C14-Pad1)*%
D62*
X155182500Y-34412500D02*
X153782500Y-34412500D01*
%TO.N,/SPK_L_MINUS*%
D59*
X164487500Y-74412500D02*
X164487500Y-83412500D01*
X168998208Y-87923208D02*
X168998208Y-93585000D01*
X180537500Y-72412500D02*
X166487500Y-72412500D01*
X166487500Y-72412500D02*
X164487500Y-74412500D01*
X180537500Y-69750350D02*
X180000000Y-69212850D01*
X164487500Y-83412500D02*
X168998208Y-87923208D01*
X180537500Y-72412500D02*
X180537500Y-69750350D01*
%TO.N,Net-(U3-ICHG)*%
D62*
X113127500Y-81360000D02*
X113487500Y-81000000D01*
X113487500Y-81000000D02*
X113487500Y-80500000D01*
X113127500Y-82592500D02*
X113127500Y-81360000D01*
%TO.N,/ESP_IO0*%
X125662500Y-39237500D02*
X125662500Y-37412500D01*
X125487500Y-39412500D02*
X125662500Y-39237500D01*
X125487500Y-46412500D02*
X125487500Y-44412500D01*
X125487500Y-40412500D02*
X125487500Y-39412500D01*
X123587500Y-37642500D02*
X125432500Y-37642500D01*
X125487500Y-46412500D02*
X133447500Y-46412500D01*
X125432500Y-37642500D02*
X125662500Y-37412500D01*
%TO.N,/ESP_EN*%
X99487500Y-31237500D02*
X99487500Y-41412500D01*
X103312500Y-25462500D02*
X103262500Y-25412500D01*
X113507500Y-46162500D02*
X113507500Y-45432500D01*
X105587500Y-23672500D02*
X105002500Y-23672500D01*
X103312500Y-27412500D02*
X99487500Y-31237500D01*
X103312500Y-27412500D02*
X103312500Y-25462500D01*
X113507500Y-45432500D02*
X112487500Y-44412500D01*
X121467500Y-46162500D02*
X113507500Y-46162500D01*
X105002500Y-23672500D02*
X103262500Y-25412500D01*
%TO.N,/DAC_OUT_L*%
X105487500Y-42512500D02*
X104000000Y-41025000D01*
X105587500Y-32562500D02*
X101437500Y-32562500D01*
X105487500Y-46012500D02*
X105487500Y-42512500D01*
X101000000Y-38000000D02*
X102000000Y-39000000D01*
X101437500Y-32562500D02*
X101000000Y-33000000D01*
X104000000Y-41025000D02*
X104000000Y-40000000D01*
X101000000Y-33000000D02*
X101000000Y-38000000D01*
%TO.N,/ESP_RXD0*%
X110487500Y-52412500D02*
X110487500Y-43582206D01*
X110487500Y-43582206D02*
X111657206Y-42412500D01*
X111657206Y-42412500D02*
X130487500Y-42412500D01*
X106117500Y-59732500D02*
X106117500Y-58152500D01*
X107487500Y-55412500D02*
X110487500Y-52412500D01*
X106117500Y-58152500D02*
X107487500Y-56782500D01*
X130487500Y-42412500D02*
X130487500Y-28412500D01*
X123787500Y-26412500D02*
X123587500Y-26212500D01*
X125487500Y-26412500D02*
X123787500Y-26412500D01*
X130487500Y-28412500D02*
X126487500Y-24412500D01*
X107487500Y-56782500D02*
X107487500Y-55412500D01*
%TO.N,/ESP_TXD0*%
X129247500Y-28172500D02*
X126017500Y-24942500D01*
X129247500Y-41412500D02*
X129247500Y-28172500D01*
X126017500Y-24942500D02*
X123587500Y-24942500D01*
X105877500Y-54683088D02*
X109247500Y-51313088D01*
X104857500Y-59732500D02*
X105637500Y-58952500D01*
X105877500Y-58676177D02*
X105877500Y-54683088D01*
X109247500Y-51313088D02*
X109247500Y-42652500D01*
X110487500Y-41412500D02*
X129247500Y-41412500D01*
X109247500Y-42652500D02*
X110487500Y-41412500D01*
X105637500Y-58952500D02*
X105637500Y-58916177D01*
X105637500Y-58916177D02*
X105877500Y-58676177D01*
%TO.N,Net-(U2-VCC)*%
X158007500Y-36637500D02*
X158007500Y-35751911D01*
X158007500Y-35751911D02*
X158247500Y-35511911D01*
X158247500Y-34742500D02*
X158827500Y-34162500D01*
X158247500Y-35511911D02*
X158247500Y-34742500D01*
%TO.N,/+5V_VBUS*%
D63*
X106487500Y-92412500D02*
X106487500Y-96412500D01*
X104260000Y-86640000D02*
X103360000Y-87540000D01*
X102957500Y-80012500D02*
X103887500Y-80012500D01*
X107487500Y-67412500D02*
X108487500Y-66412500D01*
X104640000Y-86265097D02*
X104265097Y-86640000D01*
X103976863Y-84905235D02*
X104640000Y-85568372D01*
X103887500Y-80012500D02*
X104487500Y-79412500D01*
X106487500Y-67412500D02*
X107487500Y-67412500D01*
X103531466Y-84812500D02*
X102957500Y-84812500D01*
X108487500Y-66412500D02*
X108487500Y-65412500D01*
X103624201Y-84905235D02*
X103531466Y-84812500D01*
X110487500Y-96412500D02*
X110487500Y-97412500D01*
X107487500Y-97412500D02*
X110487500Y-97412500D01*
X103487500Y-91412500D02*
X107487500Y-91412500D01*
X108437500Y-82412500D02*
X108437500Y-90462500D01*
X110577500Y-82592500D02*
X110577500Y-82552500D01*
X104640000Y-85568372D02*
X104640000Y-86265097D01*
X107487500Y-91412500D02*
X106487500Y-92412500D01*
X102957500Y-84812500D02*
X103884128Y-84812500D01*
X110577500Y-82552500D02*
X110437500Y-82412500D01*
X108487500Y-65412500D02*
X110487500Y-63412500D01*
X106487500Y-79412500D02*
X106487500Y-67412500D01*
X104265097Y-86640000D02*
X104260000Y-86640000D01*
X110487500Y-97412500D02*
X115487500Y-97412500D01*
X110437500Y-82412500D02*
X108437500Y-82412500D01*
X103360000Y-91285000D02*
X103487500Y-91412500D01*
X106487500Y-96412500D02*
X107487500Y-97412500D01*
X103884128Y-84812500D02*
X103976863Y-84905235D01*
X103360000Y-87540000D02*
X103360000Y-91285000D01*
X103976863Y-84905235D02*
X103624201Y-84905235D01*
X108437500Y-90462500D02*
X107487500Y-91412500D01*
X115487500Y-97412500D02*
X116487500Y-96412500D01*
%TO.N,/USB_DP*%
D66*
X102237500Y-83162500D02*
X102957500Y-83162500D01*
X100487500Y-68182500D02*
X100487500Y-81412500D01*
X100487500Y-81412500D02*
X101237500Y-82162500D01*
X102277500Y-83162500D02*
X102957500Y-83162500D01*
X101237500Y-82162500D02*
X102957500Y-82162500D01*
X103577500Y-65092500D02*
X100487500Y-68182500D01*
X101237500Y-82162500D02*
X102237500Y-83162500D01*
%TO.N,/USB_DN*%
X104857500Y-65092500D02*
X104857500Y-65710000D01*
X103807500Y-81662500D02*
X102957500Y-81662500D01*
X104647622Y-82662500D02*
X104487500Y-82662500D01*
X105487500Y-66340000D02*
X105487500Y-81822622D01*
X104487500Y-82662500D02*
X104487500Y-82342500D01*
X104487500Y-82342500D02*
X103807500Y-81662500D01*
X104487500Y-82662500D02*
X102957500Y-82662500D01*
X104857500Y-65710000D02*
X105487500Y-66340000D01*
X105487500Y-81822622D02*
X104647622Y-82662500D01*
%TO.N,Net-(D3-A)*%
D59*
X143000000Y-85000000D02*
X143000000Y-81900000D01*
X143000000Y-81900000D02*
X143487500Y-81412500D01*
%TO.N,Net-(U2-FSW)*%
D62*
X160007500Y-36119328D02*
X159757500Y-35869328D01*
X159757500Y-35869328D02*
X159757500Y-35142500D01*
X160007500Y-37587500D02*
X160007500Y-36119328D01*
%TO.N,Net-(U2-COMP)*%
X159757500Y-31682500D02*
X159757500Y-31162500D01*
X159757500Y-31162500D02*
X159072500Y-30477500D01*
X157767500Y-33002500D02*
X156832500Y-33937500D01*
X158942500Y-30477500D02*
X158247500Y-31172500D01*
X157767500Y-31313089D02*
X157767500Y-33002500D01*
X158247500Y-31172500D02*
X157908088Y-31172500D01*
X156832500Y-33937500D02*
X156832500Y-34412500D01*
X157908088Y-31172500D02*
X157767500Y-31313089D01*
X159072500Y-30477500D02*
X158942500Y-30477500D01*
%TO.N,Net-(U3-NTC)*%
X115662500Y-89412500D02*
X115397500Y-89412500D01*
X115397500Y-89412500D02*
X114397500Y-88412500D01*
%TO.N,Net-(U3-SW)*%
D63*
X111857500Y-78662500D02*
X112487500Y-78032500D01*
X111857500Y-82592500D02*
X111857500Y-78662500D01*
X112487500Y-78032500D02*
X112487500Y-78412500D01*
%TD*%
M02*
