%TF.GenerationSoftware,KiCad,Pcbnew,10.0.5*%
%TF.CreationDate,2026-09-15T20:16:53+05:30*%
%TF.ProjectId,AuraForge_50X,41757261-466f-4726-9765-5f3530582e6b,v1.0*%
%TF.SameCoordinates,Original*%
%TF.FileFunction,Legend,Top*%
%TF.FilePolarity,Positive*%
%FSLAX46Y46*%
G04 Gerber Fmt 4.6, Leading zero omitted, Abs format (unit mm)*
G04 Created by KiCad (PCBNEW 10.0.5) date 2026-09-15 20:16:53*
%MOMM*%
%LPD*%
G01*
G04 APERTURE LIST*
%ADD10C,0.150000*%
%ADD11C,0.120000*%
%ADD12C,0.250000*%
%ADD13C,0.300000*%
%ADD14C,0.100000*%
%ADD15C,0.060000*%
%ADD16C,0.130000*%
G04 APERTURE END LIST*
D10*
X65359580Y-43642857D02*
X65407200Y-43690476D01*
X65407200Y-43690476D02*
X65454819Y-43833333D01*
X65454819Y-43833333D02*
X65454819Y-43928571D01*
X65454819Y-43928571D02*
X65407200Y-44071428D01*
X65407200Y-44071428D02*
X65311961Y-44166666D01*
X65311961Y-44166666D02*
X65216723Y-44214285D01*
X65216723Y-44214285D02*
X65026247Y-44261904D01*
X65026247Y-44261904D02*
X64883390Y-44261904D01*
X64883390Y-44261904D02*
X64692914Y-44214285D01*
X64692914Y-44214285D02*
X64597676Y-44166666D01*
X64597676Y-44166666D02*
X64502438Y-44071428D01*
X64502438Y-44071428D02*
X64454819Y-43928571D01*
X64454819Y-43928571D02*
X64454819Y-43833333D01*
X64454819Y-43833333D02*
X64502438Y-43690476D01*
X64502438Y-43690476D02*
X64550057Y-43642857D01*
X64550057Y-43261904D02*
X64502438Y-43214285D01*
X64502438Y-43214285D02*
X64454819Y-43119047D01*
X64454819Y-43119047D02*
X64454819Y-42880952D01*
X64454819Y-42880952D02*
X64502438Y-42785714D01*
X64502438Y-42785714D02*
X64550057Y-42738095D01*
X64550057Y-42738095D02*
X64645295Y-42690476D01*
X64645295Y-42690476D02*
X64740533Y-42690476D01*
X64740533Y-42690476D02*
X64883390Y-42738095D01*
X64883390Y-42738095D02*
X65454819Y-43309523D01*
X65454819Y-43309523D02*
X65454819Y-42690476D01*
X64454819Y-42357142D02*
X64454819Y-41738095D01*
X64454819Y-41738095D02*
X64835771Y-42071428D01*
X64835771Y-42071428D02*
X64835771Y-41928571D01*
X64835771Y-41928571D02*
X64883390Y-41833333D01*
X64883390Y-41833333D02*
X64931009Y-41785714D01*
X64931009Y-41785714D02*
X65026247Y-41738095D01*
X65026247Y-41738095D02*
X65264342Y-41738095D01*
X65264342Y-41738095D02*
X65359580Y-41785714D01*
X65359580Y-41785714D02*
X65407200Y-41833333D01*
X65407200Y-41833333D02*
X65454819Y-41928571D01*
X65454819Y-41928571D02*
X65454819Y-42214285D01*
X65454819Y-42214285D02*
X65407200Y-42309523D01*
X65407200Y-42309523D02*
X65359580Y-42357142D01*
X65357142Y-48429580D02*
X65309523Y-48477200D01*
X65309523Y-48477200D02*
X65166666Y-48524819D01*
X65166666Y-48524819D02*
X65071428Y-48524819D01*
X65071428Y-48524819D02*
X64928571Y-48477200D01*
X64928571Y-48477200D02*
X64833333Y-48381961D01*
X64833333Y-48381961D02*
X64785714Y-48286723D01*
X64785714Y-48286723D02*
X64738095Y-48096247D01*
X64738095Y-48096247D02*
X64738095Y-47953390D01*
X64738095Y-47953390D02*
X64785714Y-47762914D01*
X64785714Y-47762914D02*
X64833333Y-47667676D01*
X64833333Y-47667676D02*
X64928571Y-47572438D01*
X64928571Y-47572438D02*
X65071428Y-47524819D01*
X65071428Y-47524819D02*
X65166666Y-47524819D01*
X65166666Y-47524819D02*
X65309523Y-47572438D01*
X65309523Y-47572438D02*
X65357142Y-47620057D01*
X65738095Y-47620057D02*
X65785714Y-47572438D01*
X65785714Y-47572438D02*
X65880952Y-47524819D01*
X65880952Y-47524819D02*
X66119047Y-47524819D01*
X66119047Y-47524819D02*
X66214285Y-47572438D01*
X66214285Y-47572438D02*
X66261904Y-47620057D01*
X66261904Y-47620057D02*
X66309523Y-47715295D01*
X66309523Y-47715295D02*
X66309523Y-47810533D01*
X66309523Y-47810533D02*
X66261904Y-47953390D01*
X66261904Y-47953390D02*
X65690476Y-48524819D01*
X65690476Y-48524819D02*
X66309523Y-48524819D01*
X67166666Y-47858152D02*
X67166666Y-48524819D01*
X66928571Y-47477200D02*
X66690476Y-48191485D01*
X66690476Y-48191485D02*
X67309523Y-48191485D01*
X69359580Y-37642857D02*
X69407200Y-37690476D01*
X69407200Y-37690476D02*
X69454819Y-37833333D01*
X69454819Y-37833333D02*
X69454819Y-37928571D01*
X69454819Y-37928571D02*
X69407200Y-38071428D01*
X69407200Y-38071428D02*
X69311961Y-38166666D01*
X69311961Y-38166666D02*
X69216723Y-38214285D01*
X69216723Y-38214285D02*
X69026247Y-38261904D01*
X69026247Y-38261904D02*
X68883390Y-38261904D01*
X68883390Y-38261904D02*
X68692914Y-38214285D01*
X68692914Y-38214285D02*
X68597676Y-38166666D01*
X68597676Y-38166666D02*
X68502438Y-38071428D01*
X68502438Y-38071428D02*
X68454819Y-37928571D01*
X68454819Y-37928571D02*
X68454819Y-37833333D01*
X68454819Y-37833333D02*
X68502438Y-37690476D01*
X68502438Y-37690476D02*
X68550057Y-37642857D01*
X68550057Y-37261904D02*
X68502438Y-37214285D01*
X68502438Y-37214285D02*
X68454819Y-37119047D01*
X68454819Y-37119047D02*
X68454819Y-36880952D01*
X68454819Y-36880952D02*
X68502438Y-36785714D01*
X68502438Y-36785714D02*
X68550057Y-36738095D01*
X68550057Y-36738095D02*
X68645295Y-36690476D01*
X68645295Y-36690476D02*
X68740533Y-36690476D01*
X68740533Y-36690476D02*
X68883390Y-36738095D01*
X68883390Y-36738095D02*
X69454819Y-37309523D01*
X69454819Y-37309523D02*
X69454819Y-36690476D01*
X68550057Y-36309523D02*
X68502438Y-36261904D01*
X68502438Y-36261904D02*
X68454819Y-36166666D01*
X68454819Y-36166666D02*
X68454819Y-35928571D01*
X68454819Y-35928571D02*
X68502438Y-35833333D01*
X68502438Y-35833333D02*
X68550057Y-35785714D01*
X68550057Y-35785714D02*
X68645295Y-35738095D01*
X68645295Y-35738095D02*
X68740533Y-35738095D01*
X68740533Y-35738095D02*
X68883390Y-35785714D01*
X68883390Y-35785714D02*
X69454819Y-36357142D01*
X69454819Y-36357142D02*
X69454819Y-35738095D01*
X68357142Y-53859580D02*
X68309523Y-53907200D01*
X68309523Y-53907200D02*
X68166666Y-53954819D01*
X68166666Y-53954819D02*
X68071428Y-53954819D01*
X68071428Y-53954819D02*
X67928571Y-53907200D01*
X67928571Y-53907200D02*
X67833333Y-53811961D01*
X67833333Y-53811961D02*
X67785714Y-53716723D01*
X67785714Y-53716723D02*
X67738095Y-53526247D01*
X67738095Y-53526247D02*
X67738095Y-53383390D01*
X67738095Y-53383390D02*
X67785714Y-53192914D01*
X67785714Y-53192914D02*
X67833333Y-53097676D01*
X67833333Y-53097676D02*
X67928571Y-53002438D01*
X67928571Y-53002438D02*
X68071428Y-52954819D01*
X68071428Y-52954819D02*
X68166666Y-52954819D01*
X68166666Y-52954819D02*
X68309523Y-53002438D01*
X68309523Y-53002438D02*
X68357142Y-53050057D01*
X68738095Y-53050057D02*
X68785714Y-53002438D01*
X68785714Y-53002438D02*
X68880952Y-52954819D01*
X68880952Y-52954819D02*
X69119047Y-52954819D01*
X69119047Y-52954819D02*
X69214285Y-53002438D01*
X69214285Y-53002438D02*
X69261904Y-53050057D01*
X69261904Y-53050057D02*
X69309523Y-53145295D01*
X69309523Y-53145295D02*
X69309523Y-53240533D01*
X69309523Y-53240533D02*
X69261904Y-53383390D01*
X69261904Y-53383390D02*
X68690476Y-53954819D01*
X68690476Y-53954819D02*
X69309523Y-53954819D01*
X70214285Y-52954819D02*
X69738095Y-52954819D01*
X69738095Y-52954819D02*
X69690476Y-53431009D01*
X69690476Y-53431009D02*
X69738095Y-53383390D01*
X69738095Y-53383390D02*
X69833333Y-53335771D01*
X69833333Y-53335771D02*
X70071428Y-53335771D01*
X70071428Y-53335771D02*
X70166666Y-53383390D01*
X70166666Y-53383390D02*
X70214285Y-53431009D01*
X70214285Y-53431009D02*
X70261904Y-53526247D01*
X70261904Y-53526247D02*
X70261904Y-53764342D01*
X70261904Y-53764342D02*
X70214285Y-53859580D01*
X70214285Y-53859580D02*
X70166666Y-53907200D01*
X70166666Y-53907200D02*
X70071428Y-53954819D01*
X70071428Y-53954819D02*
X69833333Y-53954819D01*
X69833333Y-53954819D02*
X69738095Y-53907200D01*
X69738095Y-53907200D02*
X69690476Y-53859580D01*
X72857142Y-54359580D02*
X72809523Y-54407200D01*
X72809523Y-54407200D02*
X72666666Y-54454819D01*
X72666666Y-54454819D02*
X72571428Y-54454819D01*
X72571428Y-54454819D02*
X72428571Y-54407200D01*
X72428571Y-54407200D02*
X72333333Y-54311961D01*
X72333333Y-54311961D02*
X72285714Y-54216723D01*
X72285714Y-54216723D02*
X72238095Y-54026247D01*
X72238095Y-54026247D02*
X72238095Y-53883390D01*
X72238095Y-53883390D02*
X72285714Y-53692914D01*
X72285714Y-53692914D02*
X72333333Y-53597676D01*
X72333333Y-53597676D02*
X72428571Y-53502438D01*
X72428571Y-53502438D02*
X72571428Y-53454819D01*
X72571428Y-53454819D02*
X72666666Y-53454819D01*
X72666666Y-53454819D02*
X72809523Y-53502438D01*
X72809523Y-53502438D02*
X72857142Y-53550057D01*
X73238095Y-53550057D02*
X73285714Y-53502438D01*
X73285714Y-53502438D02*
X73380952Y-53454819D01*
X73380952Y-53454819D02*
X73619047Y-53454819D01*
X73619047Y-53454819D02*
X73714285Y-53502438D01*
X73714285Y-53502438D02*
X73761904Y-53550057D01*
X73761904Y-53550057D02*
X73809523Y-53645295D01*
X73809523Y-53645295D02*
X73809523Y-53740533D01*
X73809523Y-53740533D02*
X73761904Y-53883390D01*
X73761904Y-53883390D02*
X73190476Y-54454819D01*
X73190476Y-54454819D02*
X73809523Y-54454819D01*
X74142857Y-53454819D02*
X74809523Y-53454819D01*
X74809523Y-53454819D02*
X74380952Y-54454819D01*
X93857142Y-69039580D02*
X93809523Y-69087200D01*
X93809523Y-69087200D02*
X93666666Y-69134819D01*
X93666666Y-69134819D02*
X93571428Y-69134819D01*
X93571428Y-69134819D02*
X93428571Y-69087200D01*
X93428571Y-69087200D02*
X93333333Y-68991961D01*
X93333333Y-68991961D02*
X93285714Y-68896723D01*
X93285714Y-68896723D02*
X93238095Y-68706247D01*
X93238095Y-68706247D02*
X93238095Y-68563390D01*
X93238095Y-68563390D02*
X93285714Y-68372914D01*
X93285714Y-68372914D02*
X93333333Y-68277676D01*
X93333333Y-68277676D02*
X93428571Y-68182438D01*
X93428571Y-68182438D02*
X93571428Y-68134819D01*
X93571428Y-68134819D02*
X93666666Y-68134819D01*
X93666666Y-68134819D02*
X93809523Y-68182438D01*
X93809523Y-68182438D02*
X93857142Y-68230057D01*
X94190476Y-68134819D02*
X94809523Y-68134819D01*
X94809523Y-68134819D02*
X94476190Y-68515771D01*
X94476190Y-68515771D02*
X94619047Y-68515771D01*
X94619047Y-68515771D02*
X94714285Y-68563390D01*
X94714285Y-68563390D02*
X94761904Y-68611009D01*
X94761904Y-68611009D02*
X94809523Y-68706247D01*
X94809523Y-68706247D02*
X94809523Y-68944342D01*
X94809523Y-68944342D02*
X94761904Y-69039580D01*
X94761904Y-69039580D02*
X94714285Y-69087200D01*
X94714285Y-69087200D02*
X94619047Y-69134819D01*
X94619047Y-69134819D02*
X94333333Y-69134819D01*
X94333333Y-69134819D02*
X94238095Y-69087200D01*
X94238095Y-69087200D02*
X94190476Y-69039580D01*
X95666666Y-68134819D02*
X95476190Y-68134819D01*
X95476190Y-68134819D02*
X95380952Y-68182438D01*
X95380952Y-68182438D02*
X95333333Y-68230057D01*
X95333333Y-68230057D02*
X95238095Y-68372914D01*
X95238095Y-68372914D02*
X95190476Y-68563390D01*
X95190476Y-68563390D02*
X95190476Y-68944342D01*
X95190476Y-68944342D02*
X95238095Y-69039580D01*
X95238095Y-69039580D02*
X95285714Y-69087200D01*
X95285714Y-69087200D02*
X95380952Y-69134819D01*
X95380952Y-69134819D02*
X95571428Y-69134819D01*
X95571428Y-69134819D02*
X95666666Y-69087200D01*
X95666666Y-69087200D02*
X95714285Y-69039580D01*
X95714285Y-69039580D02*
X95761904Y-68944342D01*
X95761904Y-68944342D02*
X95761904Y-68706247D01*
X95761904Y-68706247D02*
X95714285Y-68611009D01*
X95714285Y-68611009D02*
X95666666Y-68563390D01*
X95666666Y-68563390D02*
X95571428Y-68515771D01*
X95571428Y-68515771D02*
X95380952Y-68515771D01*
X95380952Y-68515771D02*
X95285714Y-68563390D01*
X95285714Y-68563390D02*
X95238095Y-68611009D01*
X95238095Y-68611009D02*
X95190476Y-68706247D01*
X69024819Y-31642857D02*
X68548628Y-31976190D01*
X69024819Y-32214285D02*
X68024819Y-32214285D01*
X68024819Y-32214285D02*
X68024819Y-31833333D01*
X68024819Y-31833333D02*
X68072438Y-31738095D01*
X68072438Y-31738095D02*
X68120057Y-31690476D01*
X68120057Y-31690476D02*
X68215295Y-31642857D01*
X68215295Y-31642857D02*
X68358152Y-31642857D01*
X68358152Y-31642857D02*
X68453390Y-31690476D01*
X68453390Y-31690476D02*
X68501009Y-31738095D01*
X68501009Y-31738095D02*
X68548628Y-31833333D01*
X68548628Y-31833333D02*
X68548628Y-32214285D01*
X69024819Y-30690476D02*
X69024819Y-31261904D01*
X69024819Y-30976190D02*
X68024819Y-30976190D01*
X68024819Y-30976190D02*
X68167676Y-31071428D01*
X68167676Y-31071428D02*
X68262914Y-31166666D01*
X68262914Y-31166666D02*
X68310533Y-31261904D01*
X68120057Y-30309523D02*
X68072438Y-30261904D01*
X68072438Y-30261904D02*
X68024819Y-30166666D01*
X68024819Y-30166666D02*
X68024819Y-29928571D01*
X68024819Y-29928571D02*
X68072438Y-29833333D01*
X68072438Y-29833333D02*
X68120057Y-29785714D01*
X68120057Y-29785714D02*
X68215295Y-29738095D01*
X68215295Y-29738095D02*
X68310533Y-29738095D01*
X68310533Y-29738095D02*
X68453390Y-29785714D01*
X68453390Y-29785714D02*
X69024819Y-30357142D01*
X69024819Y-30357142D02*
X69024819Y-29738095D01*
X67357142Y-25929580D02*
X67309523Y-25977200D01*
X67309523Y-25977200D02*
X67166666Y-26024819D01*
X67166666Y-26024819D02*
X67071428Y-26024819D01*
X67071428Y-26024819D02*
X66928571Y-25977200D01*
X66928571Y-25977200D02*
X66833333Y-25881961D01*
X66833333Y-25881961D02*
X66785714Y-25786723D01*
X66785714Y-25786723D02*
X66738095Y-25596247D01*
X66738095Y-25596247D02*
X66738095Y-25453390D01*
X66738095Y-25453390D02*
X66785714Y-25262914D01*
X66785714Y-25262914D02*
X66833333Y-25167676D01*
X66833333Y-25167676D02*
X66928571Y-25072438D01*
X66928571Y-25072438D02*
X67071428Y-25024819D01*
X67071428Y-25024819D02*
X67166666Y-25024819D01*
X67166666Y-25024819D02*
X67309523Y-25072438D01*
X67309523Y-25072438D02*
X67357142Y-25120057D01*
X68309523Y-26024819D02*
X67738095Y-26024819D01*
X68023809Y-26024819D02*
X68023809Y-25024819D01*
X68023809Y-25024819D02*
X67928571Y-25167676D01*
X67928571Y-25167676D02*
X67833333Y-25262914D01*
X67833333Y-25262914D02*
X67738095Y-25310533D01*
X68642857Y-25024819D02*
X69261904Y-25024819D01*
X69261904Y-25024819D02*
X68928571Y-25405771D01*
X68928571Y-25405771D02*
X69071428Y-25405771D01*
X69071428Y-25405771D02*
X69166666Y-25453390D01*
X69166666Y-25453390D02*
X69214285Y-25501009D01*
X69214285Y-25501009D02*
X69261904Y-25596247D01*
X69261904Y-25596247D02*
X69261904Y-25834342D01*
X69261904Y-25834342D02*
X69214285Y-25929580D01*
X69214285Y-25929580D02*
X69166666Y-25977200D01*
X69166666Y-25977200D02*
X69071428Y-26024819D01*
X69071428Y-26024819D02*
X68785714Y-26024819D01*
X68785714Y-26024819D02*
X68690476Y-25977200D01*
X68690476Y-25977200D02*
X68642857Y-25929580D01*
X76454819Y-60966666D02*
X76454819Y-61442856D01*
X76454819Y-61442856D02*
X75454819Y-61442856D01*
X75454819Y-60204761D02*
X75454819Y-60395237D01*
X75454819Y-60395237D02*
X75502438Y-60490475D01*
X75502438Y-60490475D02*
X75550057Y-60538094D01*
X75550057Y-60538094D02*
X75692914Y-60633332D01*
X75692914Y-60633332D02*
X75883390Y-60680951D01*
X75883390Y-60680951D02*
X76264342Y-60680951D01*
X76264342Y-60680951D02*
X76359580Y-60633332D01*
X76359580Y-60633332D02*
X76407200Y-60585713D01*
X76407200Y-60585713D02*
X76454819Y-60490475D01*
X76454819Y-60490475D02*
X76454819Y-60299999D01*
X76454819Y-60299999D02*
X76407200Y-60204761D01*
X76407200Y-60204761D02*
X76359580Y-60157142D01*
X76359580Y-60157142D02*
X76264342Y-60109523D01*
X76264342Y-60109523D02*
X76026247Y-60109523D01*
X76026247Y-60109523D02*
X75931009Y-60157142D01*
X75931009Y-60157142D02*
X75883390Y-60204761D01*
X75883390Y-60204761D02*
X75835771Y-60299999D01*
X75835771Y-60299999D02*
X75835771Y-60490475D01*
X75835771Y-60490475D02*
X75883390Y-60585713D01*
X75883390Y-60585713D02*
X75931009Y-60633332D01*
X75931009Y-60633332D02*
X76026247Y-60680951D01*
X78857142Y-55359580D02*
X78809523Y-55407200D01*
X78809523Y-55407200D02*
X78666666Y-55454819D01*
X78666666Y-55454819D02*
X78571428Y-55454819D01*
X78571428Y-55454819D02*
X78428571Y-55407200D01*
X78428571Y-55407200D02*
X78333333Y-55311961D01*
X78333333Y-55311961D02*
X78285714Y-55216723D01*
X78285714Y-55216723D02*
X78238095Y-55026247D01*
X78238095Y-55026247D02*
X78238095Y-54883390D01*
X78238095Y-54883390D02*
X78285714Y-54692914D01*
X78285714Y-54692914D02*
X78333333Y-54597676D01*
X78333333Y-54597676D02*
X78428571Y-54502438D01*
X78428571Y-54502438D02*
X78571428Y-54454819D01*
X78571428Y-54454819D02*
X78666666Y-54454819D01*
X78666666Y-54454819D02*
X78809523Y-54502438D01*
X78809523Y-54502438D02*
X78857142Y-54550057D01*
X79190476Y-54454819D02*
X79809523Y-54454819D01*
X79809523Y-54454819D02*
X79476190Y-54835771D01*
X79476190Y-54835771D02*
X79619047Y-54835771D01*
X79619047Y-54835771D02*
X79714285Y-54883390D01*
X79714285Y-54883390D02*
X79761904Y-54931009D01*
X79761904Y-54931009D02*
X79809523Y-55026247D01*
X79809523Y-55026247D02*
X79809523Y-55264342D01*
X79809523Y-55264342D02*
X79761904Y-55359580D01*
X79761904Y-55359580D02*
X79714285Y-55407200D01*
X79714285Y-55407200D02*
X79619047Y-55454819D01*
X79619047Y-55454819D02*
X79333333Y-55454819D01*
X79333333Y-55454819D02*
X79238095Y-55407200D01*
X79238095Y-55407200D02*
X79190476Y-55359580D01*
X80761904Y-55454819D02*
X80190476Y-55454819D01*
X80476190Y-55454819D02*
X80476190Y-54454819D01*
X80476190Y-54454819D02*
X80380952Y-54597676D01*
X80380952Y-54597676D02*
X80285714Y-54692914D01*
X80285714Y-54692914D02*
X80190476Y-54740533D01*
X77294884Y-35454819D02*
X76961551Y-34978628D01*
X76723456Y-35454819D02*
X76723456Y-34454819D01*
X76723456Y-34454819D02*
X77104408Y-34454819D01*
X77104408Y-34454819D02*
X77199646Y-34502438D01*
X77199646Y-34502438D02*
X77247265Y-34550057D01*
X77247265Y-34550057D02*
X77294884Y-34645295D01*
X77294884Y-34645295D02*
X77294884Y-34788152D01*
X77294884Y-34788152D02*
X77247265Y-34883390D01*
X77247265Y-34883390D02*
X77199646Y-34931009D01*
X77199646Y-34931009D02*
X77104408Y-34978628D01*
X77104408Y-34978628D02*
X76723456Y-34978628D01*
X78247265Y-35454819D02*
X77675837Y-35454819D01*
X77961551Y-35454819D02*
X77961551Y-34454819D01*
X77961551Y-34454819D02*
X77866313Y-34597676D01*
X77866313Y-34597676D02*
X77771075Y-34692914D01*
X77771075Y-34692914D02*
X77675837Y-34740533D01*
X78723456Y-35454819D02*
X78913932Y-35454819D01*
X78913932Y-35454819D02*
X79009170Y-35407200D01*
X79009170Y-35407200D02*
X79056789Y-35359580D01*
X79056789Y-35359580D02*
X79152027Y-35216723D01*
X79152027Y-35216723D02*
X79199646Y-35026247D01*
X79199646Y-35026247D02*
X79199646Y-34645295D01*
X79199646Y-34645295D02*
X79152027Y-34550057D01*
X79152027Y-34550057D02*
X79104408Y-34502438D01*
X79104408Y-34502438D02*
X79009170Y-34454819D01*
X79009170Y-34454819D02*
X78818694Y-34454819D01*
X78818694Y-34454819D02*
X78723456Y-34502438D01*
X78723456Y-34502438D02*
X78675837Y-34550057D01*
X78675837Y-34550057D02*
X78628218Y-34645295D01*
X78628218Y-34645295D02*
X78628218Y-34883390D01*
X78628218Y-34883390D02*
X78675837Y-34978628D01*
X78675837Y-34978628D02*
X78723456Y-35026247D01*
X78723456Y-35026247D02*
X78818694Y-35073866D01*
X78818694Y-35073866D02*
X79009170Y-35073866D01*
X79009170Y-35073866D02*
X79104408Y-35026247D01*
X79104408Y-35026247D02*
X79152027Y-34978628D01*
X79152027Y-34978628D02*
X79199646Y-34883390D01*
X82289580Y-49642857D02*
X82337200Y-49690476D01*
X82337200Y-49690476D02*
X82384819Y-49833333D01*
X82384819Y-49833333D02*
X82384819Y-49928571D01*
X82384819Y-49928571D02*
X82337200Y-50071428D01*
X82337200Y-50071428D02*
X82241961Y-50166666D01*
X82241961Y-50166666D02*
X82146723Y-50214285D01*
X82146723Y-50214285D02*
X81956247Y-50261904D01*
X81956247Y-50261904D02*
X81813390Y-50261904D01*
X81813390Y-50261904D02*
X81622914Y-50214285D01*
X81622914Y-50214285D02*
X81527676Y-50166666D01*
X81527676Y-50166666D02*
X81432438Y-50071428D01*
X81432438Y-50071428D02*
X81384819Y-49928571D01*
X81384819Y-49928571D02*
X81384819Y-49833333D01*
X81384819Y-49833333D02*
X81432438Y-49690476D01*
X81432438Y-49690476D02*
X81480057Y-49642857D01*
X81384819Y-49309523D02*
X81384819Y-48690476D01*
X81384819Y-48690476D02*
X81765771Y-49023809D01*
X81765771Y-49023809D02*
X81765771Y-48880952D01*
X81765771Y-48880952D02*
X81813390Y-48785714D01*
X81813390Y-48785714D02*
X81861009Y-48738095D01*
X81861009Y-48738095D02*
X81956247Y-48690476D01*
X81956247Y-48690476D02*
X82194342Y-48690476D01*
X82194342Y-48690476D02*
X82289580Y-48738095D01*
X82289580Y-48738095D02*
X82337200Y-48785714D01*
X82337200Y-48785714D02*
X82384819Y-48880952D01*
X82384819Y-48880952D02*
X82384819Y-49166666D01*
X82384819Y-49166666D02*
X82337200Y-49261904D01*
X82337200Y-49261904D02*
X82289580Y-49309523D01*
X81384819Y-48071428D02*
X81384819Y-47976190D01*
X81384819Y-47976190D02*
X81432438Y-47880952D01*
X81432438Y-47880952D02*
X81480057Y-47833333D01*
X81480057Y-47833333D02*
X81575295Y-47785714D01*
X81575295Y-47785714D02*
X81765771Y-47738095D01*
X81765771Y-47738095D02*
X82003866Y-47738095D01*
X82003866Y-47738095D02*
X82194342Y-47785714D01*
X82194342Y-47785714D02*
X82289580Y-47833333D01*
X82289580Y-47833333D02*
X82337200Y-47880952D01*
X82337200Y-47880952D02*
X82384819Y-47976190D01*
X82384819Y-47976190D02*
X82384819Y-48071428D01*
X82384819Y-48071428D02*
X82337200Y-48166666D01*
X82337200Y-48166666D02*
X82289580Y-48214285D01*
X82289580Y-48214285D02*
X82194342Y-48261904D01*
X82194342Y-48261904D02*
X82003866Y-48309523D01*
X82003866Y-48309523D02*
X81765771Y-48309523D01*
X81765771Y-48309523D02*
X81575295Y-48261904D01*
X81575295Y-48261904D02*
X81480057Y-48214285D01*
X81480057Y-48214285D02*
X81432438Y-48166666D01*
X81432438Y-48166666D02*
X81384819Y-48071428D01*
X26333333Y-46859580D02*
X26285714Y-46907200D01*
X26285714Y-46907200D02*
X26142857Y-46954819D01*
X26142857Y-46954819D02*
X26047619Y-46954819D01*
X26047619Y-46954819D02*
X25904762Y-46907200D01*
X25904762Y-46907200D02*
X25809524Y-46811961D01*
X25809524Y-46811961D02*
X25761905Y-46716723D01*
X25761905Y-46716723D02*
X25714286Y-46526247D01*
X25714286Y-46526247D02*
X25714286Y-46383390D01*
X25714286Y-46383390D02*
X25761905Y-46192914D01*
X25761905Y-46192914D02*
X25809524Y-46097676D01*
X25809524Y-46097676D02*
X25904762Y-46002438D01*
X25904762Y-46002438D02*
X26047619Y-45954819D01*
X26047619Y-45954819D02*
X26142857Y-45954819D01*
X26142857Y-45954819D02*
X26285714Y-46002438D01*
X26285714Y-46002438D02*
X26333333Y-46050057D01*
X27190476Y-46288152D02*
X27190476Y-46954819D01*
X26952381Y-45907200D02*
X26714286Y-46621485D01*
X26714286Y-46621485D02*
X27333333Y-46621485D01*
X40024819Y-71642857D02*
X39548628Y-71976190D01*
X40024819Y-72214285D02*
X39024819Y-72214285D01*
X39024819Y-72214285D02*
X39024819Y-71833333D01*
X39024819Y-71833333D02*
X39072438Y-71738095D01*
X39072438Y-71738095D02*
X39120057Y-71690476D01*
X39120057Y-71690476D02*
X39215295Y-71642857D01*
X39215295Y-71642857D02*
X39358152Y-71642857D01*
X39358152Y-71642857D02*
X39453390Y-71690476D01*
X39453390Y-71690476D02*
X39501009Y-71738095D01*
X39501009Y-71738095D02*
X39548628Y-71833333D01*
X39548628Y-71833333D02*
X39548628Y-72214285D01*
X40024819Y-70690476D02*
X40024819Y-71261904D01*
X40024819Y-70976190D02*
X39024819Y-70976190D01*
X39024819Y-70976190D02*
X39167676Y-71071428D01*
X39167676Y-71071428D02*
X39262914Y-71166666D01*
X39262914Y-71166666D02*
X39310533Y-71261904D01*
X39453390Y-70119047D02*
X39405771Y-70214285D01*
X39405771Y-70214285D02*
X39358152Y-70261904D01*
X39358152Y-70261904D02*
X39262914Y-70309523D01*
X39262914Y-70309523D02*
X39215295Y-70309523D01*
X39215295Y-70309523D02*
X39120057Y-70261904D01*
X39120057Y-70261904D02*
X39072438Y-70214285D01*
X39072438Y-70214285D02*
X39024819Y-70119047D01*
X39024819Y-70119047D02*
X39024819Y-69928571D01*
X39024819Y-69928571D02*
X39072438Y-69833333D01*
X39072438Y-69833333D02*
X39120057Y-69785714D01*
X39120057Y-69785714D02*
X39215295Y-69738095D01*
X39215295Y-69738095D02*
X39262914Y-69738095D01*
X39262914Y-69738095D02*
X39358152Y-69785714D01*
X39358152Y-69785714D02*
X39405771Y-69833333D01*
X39405771Y-69833333D02*
X39453390Y-69928571D01*
X39453390Y-69928571D02*
X39453390Y-70119047D01*
X39453390Y-70119047D02*
X39501009Y-70214285D01*
X39501009Y-70214285D02*
X39548628Y-70261904D01*
X39548628Y-70261904D02*
X39643866Y-70309523D01*
X39643866Y-70309523D02*
X39834342Y-70309523D01*
X39834342Y-70309523D02*
X39929580Y-70261904D01*
X39929580Y-70261904D02*
X39977200Y-70214285D01*
X39977200Y-70214285D02*
X40024819Y-70119047D01*
X40024819Y-70119047D02*
X40024819Y-69928571D01*
X40024819Y-69928571D02*
X39977200Y-69833333D01*
X39977200Y-69833333D02*
X39929580Y-69785714D01*
X39929580Y-69785714D02*
X39834342Y-69738095D01*
X39834342Y-69738095D02*
X39643866Y-69738095D01*
X39643866Y-69738095D02*
X39548628Y-69785714D01*
X39548628Y-69785714D02*
X39501009Y-69833333D01*
X39501009Y-69833333D02*
X39453390Y-69928571D01*
X40359580Y-50216666D02*
X40407200Y-50264285D01*
X40407200Y-50264285D02*
X40454819Y-50407142D01*
X40454819Y-50407142D02*
X40454819Y-50502380D01*
X40454819Y-50502380D02*
X40407200Y-50645237D01*
X40407200Y-50645237D02*
X40311961Y-50740475D01*
X40311961Y-50740475D02*
X40216723Y-50788094D01*
X40216723Y-50788094D02*
X40026247Y-50835713D01*
X40026247Y-50835713D02*
X39883390Y-50835713D01*
X39883390Y-50835713D02*
X39692914Y-50788094D01*
X39692914Y-50788094D02*
X39597676Y-50740475D01*
X39597676Y-50740475D02*
X39502438Y-50645237D01*
X39502438Y-50645237D02*
X39454819Y-50502380D01*
X39454819Y-50502380D02*
X39454819Y-50407142D01*
X39454819Y-50407142D02*
X39502438Y-50264285D01*
X39502438Y-50264285D02*
X39550057Y-50216666D01*
X39454819Y-49311904D02*
X39454819Y-49788094D01*
X39454819Y-49788094D02*
X39931009Y-49835713D01*
X39931009Y-49835713D02*
X39883390Y-49788094D01*
X39883390Y-49788094D02*
X39835771Y-49692856D01*
X39835771Y-49692856D02*
X39835771Y-49454761D01*
X39835771Y-49454761D02*
X39883390Y-49359523D01*
X39883390Y-49359523D02*
X39931009Y-49311904D01*
X39931009Y-49311904D02*
X40026247Y-49264285D01*
X40026247Y-49264285D02*
X40264342Y-49264285D01*
X40264342Y-49264285D02*
X40359580Y-49311904D01*
X40359580Y-49311904D02*
X40407200Y-49359523D01*
X40407200Y-49359523D02*
X40454819Y-49454761D01*
X40454819Y-49454761D02*
X40454819Y-49692856D01*
X40454819Y-49692856D02*
X40407200Y-49788094D01*
X40407200Y-49788094D02*
X40359580Y-49835713D01*
X10859580Y-4166666D02*
X10907200Y-4214285D01*
X10907200Y-4214285D02*
X10954819Y-4357142D01*
X10954819Y-4357142D02*
X10954819Y-4452380D01*
X10954819Y-4452380D02*
X10907200Y-4595237D01*
X10907200Y-4595237D02*
X10811961Y-4690475D01*
X10811961Y-4690475D02*
X10716723Y-4738094D01*
X10716723Y-4738094D02*
X10526247Y-4785713D01*
X10526247Y-4785713D02*
X10383390Y-4785713D01*
X10383390Y-4785713D02*
X10192914Y-4738094D01*
X10192914Y-4738094D02*
X10097676Y-4690475D01*
X10097676Y-4690475D02*
X10002438Y-4595237D01*
X10002438Y-4595237D02*
X9954819Y-4452380D01*
X9954819Y-4452380D02*
X9954819Y-4357142D01*
X9954819Y-4357142D02*
X10002438Y-4214285D01*
X10002438Y-4214285D02*
X10050057Y-4166666D01*
X9954819Y-3309523D02*
X9954819Y-3499999D01*
X9954819Y-3499999D02*
X10002438Y-3595237D01*
X10002438Y-3595237D02*
X10050057Y-3642856D01*
X10050057Y-3642856D02*
X10192914Y-3738094D01*
X10192914Y-3738094D02*
X10383390Y-3785713D01*
X10383390Y-3785713D02*
X10764342Y-3785713D01*
X10764342Y-3785713D02*
X10859580Y-3738094D01*
X10859580Y-3738094D02*
X10907200Y-3690475D01*
X10907200Y-3690475D02*
X10954819Y-3595237D01*
X10954819Y-3595237D02*
X10954819Y-3404761D01*
X10954819Y-3404761D02*
X10907200Y-3309523D01*
X10907200Y-3309523D02*
X10859580Y-3261904D01*
X10859580Y-3261904D02*
X10764342Y-3214285D01*
X10764342Y-3214285D02*
X10526247Y-3214285D01*
X10526247Y-3214285D02*
X10431009Y-3261904D01*
X10431009Y-3261904D02*
X10383390Y-3309523D01*
X10383390Y-3309523D02*
X10335771Y-3404761D01*
X10335771Y-3404761D02*
X10335771Y-3595237D01*
X10335771Y-3595237D02*
X10383390Y-3690475D01*
X10383390Y-3690475D02*
X10431009Y-3738094D01*
X10431009Y-3738094D02*
X10526247Y-3785713D01*
X38261905Y-41954819D02*
X38261905Y-40954819D01*
X38261905Y-40954819D02*
X38500000Y-40954819D01*
X38500000Y-40954819D02*
X38642857Y-41002438D01*
X38642857Y-41002438D02*
X38738095Y-41097676D01*
X38738095Y-41097676D02*
X38785714Y-41192914D01*
X38785714Y-41192914D02*
X38833333Y-41383390D01*
X38833333Y-41383390D02*
X38833333Y-41526247D01*
X38833333Y-41526247D02*
X38785714Y-41716723D01*
X38785714Y-41716723D02*
X38738095Y-41811961D01*
X38738095Y-41811961D02*
X38642857Y-41907200D01*
X38642857Y-41907200D02*
X38500000Y-41954819D01*
X38500000Y-41954819D02*
X38261905Y-41954819D01*
X39214286Y-41050057D02*
X39261905Y-41002438D01*
X39261905Y-41002438D02*
X39357143Y-40954819D01*
X39357143Y-40954819D02*
X39595238Y-40954819D01*
X39595238Y-40954819D02*
X39690476Y-41002438D01*
X39690476Y-41002438D02*
X39738095Y-41050057D01*
X39738095Y-41050057D02*
X39785714Y-41145295D01*
X39785714Y-41145295D02*
X39785714Y-41240533D01*
X39785714Y-41240533D02*
X39738095Y-41383390D01*
X39738095Y-41383390D02*
X39166667Y-41954819D01*
X39166667Y-41954819D02*
X39785714Y-41954819D01*
X71929580Y-36642857D02*
X71977200Y-36690476D01*
X71977200Y-36690476D02*
X72024819Y-36833333D01*
X72024819Y-36833333D02*
X72024819Y-36928571D01*
X72024819Y-36928571D02*
X71977200Y-37071428D01*
X71977200Y-37071428D02*
X71881961Y-37166666D01*
X71881961Y-37166666D02*
X71786723Y-37214285D01*
X71786723Y-37214285D02*
X71596247Y-37261904D01*
X71596247Y-37261904D02*
X71453390Y-37261904D01*
X71453390Y-37261904D02*
X71262914Y-37214285D01*
X71262914Y-37214285D02*
X71167676Y-37166666D01*
X71167676Y-37166666D02*
X71072438Y-37071428D01*
X71072438Y-37071428D02*
X71024819Y-36928571D01*
X71024819Y-36928571D02*
X71024819Y-36833333D01*
X71024819Y-36833333D02*
X71072438Y-36690476D01*
X71072438Y-36690476D02*
X71120057Y-36642857D01*
X71024819Y-36309523D02*
X71024819Y-35690476D01*
X71024819Y-35690476D02*
X71405771Y-36023809D01*
X71405771Y-36023809D02*
X71405771Y-35880952D01*
X71405771Y-35880952D02*
X71453390Y-35785714D01*
X71453390Y-35785714D02*
X71501009Y-35738095D01*
X71501009Y-35738095D02*
X71596247Y-35690476D01*
X71596247Y-35690476D02*
X71834342Y-35690476D01*
X71834342Y-35690476D02*
X71929580Y-35738095D01*
X71929580Y-35738095D02*
X71977200Y-35785714D01*
X71977200Y-35785714D02*
X72024819Y-35880952D01*
X72024819Y-35880952D02*
X72024819Y-36166666D01*
X72024819Y-36166666D02*
X71977200Y-36261904D01*
X71977200Y-36261904D02*
X71929580Y-36309523D01*
X71120057Y-35309523D02*
X71072438Y-35261904D01*
X71072438Y-35261904D02*
X71024819Y-35166666D01*
X71024819Y-35166666D02*
X71024819Y-34928571D01*
X71024819Y-34928571D02*
X71072438Y-34833333D01*
X71072438Y-34833333D02*
X71120057Y-34785714D01*
X71120057Y-34785714D02*
X71215295Y-34738095D01*
X71215295Y-34738095D02*
X71310533Y-34738095D01*
X71310533Y-34738095D02*
X71453390Y-34785714D01*
X71453390Y-34785714D02*
X72024819Y-35357142D01*
X72024819Y-35357142D02*
X72024819Y-34738095D01*
X19024819Y-69166666D02*
X18548628Y-69499999D01*
X19024819Y-69738094D02*
X18024819Y-69738094D01*
X18024819Y-69738094D02*
X18024819Y-69357142D01*
X18024819Y-69357142D02*
X18072438Y-69261904D01*
X18072438Y-69261904D02*
X18120057Y-69214285D01*
X18120057Y-69214285D02*
X18215295Y-69166666D01*
X18215295Y-69166666D02*
X18358152Y-69166666D01*
X18358152Y-69166666D02*
X18453390Y-69214285D01*
X18453390Y-69214285D02*
X18501009Y-69261904D01*
X18501009Y-69261904D02*
X18548628Y-69357142D01*
X18548628Y-69357142D02*
X18548628Y-69738094D01*
X18120057Y-68785713D02*
X18072438Y-68738094D01*
X18072438Y-68738094D02*
X18024819Y-68642856D01*
X18024819Y-68642856D02*
X18024819Y-68404761D01*
X18024819Y-68404761D02*
X18072438Y-68309523D01*
X18072438Y-68309523D02*
X18120057Y-68261904D01*
X18120057Y-68261904D02*
X18215295Y-68214285D01*
X18215295Y-68214285D02*
X18310533Y-68214285D01*
X18310533Y-68214285D02*
X18453390Y-68261904D01*
X18453390Y-68261904D02*
X19024819Y-68833332D01*
X19024819Y-68833332D02*
X19024819Y-68214285D01*
X9024819Y-54642857D02*
X8548628Y-54976190D01*
X9024819Y-55214285D02*
X8024819Y-55214285D01*
X8024819Y-55214285D02*
X8024819Y-54833333D01*
X8024819Y-54833333D02*
X8072438Y-54738095D01*
X8072438Y-54738095D02*
X8120057Y-54690476D01*
X8120057Y-54690476D02*
X8215295Y-54642857D01*
X8215295Y-54642857D02*
X8358152Y-54642857D01*
X8358152Y-54642857D02*
X8453390Y-54690476D01*
X8453390Y-54690476D02*
X8501009Y-54738095D01*
X8501009Y-54738095D02*
X8548628Y-54833333D01*
X8548628Y-54833333D02*
X8548628Y-55214285D01*
X9024819Y-53690476D02*
X9024819Y-54261904D01*
X9024819Y-53976190D02*
X8024819Y-53976190D01*
X8024819Y-53976190D02*
X8167676Y-54071428D01*
X8167676Y-54071428D02*
X8262914Y-54166666D01*
X8262914Y-54166666D02*
X8310533Y-54261904D01*
X8024819Y-52833333D02*
X8024819Y-53023809D01*
X8024819Y-53023809D02*
X8072438Y-53119047D01*
X8072438Y-53119047D02*
X8120057Y-53166666D01*
X8120057Y-53166666D02*
X8262914Y-53261904D01*
X8262914Y-53261904D02*
X8453390Y-53309523D01*
X8453390Y-53309523D02*
X8834342Y-53309523D01*
X8834342Y-53309523D02*
X8929580Y-53261904D01*
X8929580Y-53261904D02*
X8977200Y-53214285D01*
X8977200Y-53214285D02*
X9024819Y-53119047D01*
X9024819Y-53119047D02*
X9024819Y-52928571D01*
X9024819Y-52928571D02*
X8977200Y-52833333D01*
X8977200Y-52833333D02*
X8929580Y-52785714D01*
X8929580Y-52785714D02*
X8834342Y-52738095D01*
X8834342Y-52738095D02*
X8596247Y-52738095D01*
X8596247Y-52738095D02*
X8501009Y-52785714D01*
X8501009Y-52785714D02*
X8453390Y-52833333D01*
X8453390Y-52833333D02*
X8405771Y-52928571D01*
X8405771Y-52928571D02*
X8405771Y-53119047D01*
X8405771Y-53119047D02*
X8453390Y-53214285D01*
X8453390Y-53214285D02*
X8501009Y-53261904D01*
X8501009Y-53261904D02*
X8596247Y-53309523D01*
X64929580Y-20642857D02*
X64977200Y-20690476D01*
X64977200Y-20690476D02*
X65024819Y-20833333D01*
X65024819Y-20833333D02*
X65024819Y-20928571D01*
X65024819Y-20928571D02*
X64977200Y-21071428D01*
X64977200Y-21071428D02*
X64881961Y-21166666D01*
X64881961Y-21166666D02*
X64786723Y-21214285D01*
X64786723Y-21214285D02*
X64596247Y-21261904D01*
X64596247Y-21261904D02*
X64453390Y-21261904D01*
X64453390Y-21261904D02*
X64262914Y-21214285D01*
X64262914Y-21214285D02*
X64167676Y-21166666D01*
X64167676Y-21166666D02*
X64072438Y-21071428D01*
X64072438Y-21071428D02*
X64024819Y-20928571D01*
X64024819Y-20928571D02*
X64024819Y-20833333D01*
X64024819Y-20833333D02*
X64072438Y-20690476D01*
X64072438Y-20690476D02*
X64120057Y-20642857D01*
X65024819Y-19690476D02*
X65024819Y-20261904D01*
X65024819Y-19976190D02*
X64024819Y-19976190D01*
X64024819Y-19976190D02*
X64167676Y-20071428D01*
X64167676Y-20071428D02*
X64262914Y-20166666D01*
X64262914Y-20166666D02*
X64310533Y-20261904D01*
X64120057Y-19309523D02*
X64072438Y-19261904D01*
X64072438Y-19261904D02*
X64024819Y-19166666D01*
X64024819Y-19166666D02*
X64024819Y-18928571D01*
X64024819Y-18928571D02*
X64072438Y-18833333D01*
X64072438Y-18833333D02*
X64120057Y-18785714D01*
X64120057Y-18785714D02*
X64215295Y-18738095D01*
X64215295Y-18738095D02*
X64310533Y-18738095D01*
X64310533Y-18738095D02*
X64453390Y-18785714D01*
X64453390Y-18785714D02*
X65024819Y-19357142D01*
X65024819Y-19357142D02*
X65024819Y-18738095D01*
X20238095Y-40254819D02*
X20238095Y-41064342D01*
X20238095Y-41064342D02*
X20285714Y-41159580D01*
X20285714Y-41159580D02*
X20333333Y-41207200D01*
X20333333Y-41207200D02*
X20428571Y-41254819D01*
X20428571Y-41254819D02*
X20619047Y-41254819D01*
X20619047Y-41254819D02*
X20714285Y-41207200D01*
X20714285Y-41207200D02*
X20761904Y-41159580D01*
X20761904Y-41159580D02*
X20809523Y-41064342D01*
X20809523Y-41064342D02*
X20809523Y-40254819D01*
X21714285Y-40254819D02*
X21523809Y-40254819D01*
X21523809Y-40254819D02*
X21428571Y-40302438D01*
X21428571Y-40302438D02*
X21380952Y-40350057D01*
X21380952Y-40350057D02*
X21285714Y-40492914D01*
X21285714Y-40492914D02*
X21238095Y-40683390D01*
X21238095Y-40683390D02*
X21238095Y-41064342D01*
X21238095Y-41064342D02*
X21285714Y-41159580D01*
X21285714Y-41159580D02*
X21333333Y-41207200D01*
X21333333Y-41207200D02*
X21428571Y-41254819D01*
X21428571Y-41254819D02*
X21619047Y-41254819D01*
X21619047Y-41254819D02*
X21714285Y-41207200D01*
X21714285Y-41207200D02*
X21761904Y-41159580D01*
X21761904Y-41159580D02*
X21809523Y-41064342D01*
X21809523Y-41064342D02*
X21809523Y-40826247D01*
X21809523Y-40826247D02*
X21761904Y-40731009D01*
X21761904Y-40731009D02*
X21714285Y-40683390D01*
X21714285Y-40683390D02*
X21619047Y-40635771D01*
X21619047Y-40635771D02*
X21428571Y-40635771D01*
X21428571Y-40635771D02*
X21333333Y-40683390D01*
X21333333Y-40683390D02*
X21285714Y-40731009D01*
X21285714Y-40731009D02*
X21238095Y-40826247D01*
X70357142Y-55859580D02*
X70309523Y-55907200D01*
X70309523Y-55907200D02*
X70166666Y-55954819D01*
X70166666Y-55954819D02*
X70071428Y-55954819D01*
X70071428Y-55954819D02*
X69928571Y-55907200D01*
X69928571Y-55907200D02*
X69833333Y-55811961D01*
X69833333Y-55811961D02*
X69785714Y-55716723D01*
X69785714Y-55716723D02*
X69738095Y-55526247D01*
X69738095Y-55526247D02*
X69738095Y-55383390D01*
X69738095Y-55383390D02*
X69785714Y-55192914D01*
X69785714Y-55192914D02*
X69833333Y-55097676D01*
X69833333Y-55097676D02*
X69928571Y-55002438D01*
X69928571Y-55002438D02*
X70071428Y-54954819D01*
X70071428Y-54954819D02*
X70166666Y-54954819D01*
X70166666Y-54954819D02*
X70309523Y-55002438D01*
X70309523Y-55002438D02*
X70357142Y-55050057D01*
X70738095Y-55050057D02*
X70785714Y-55002438D01*
X70785714Y-55002438D02*
X70880952Y-54954819D01*
X70880952Y-54954819D02*
X71119047Y-54954819D01*
X71119047Y-54954819D02*
X71214285Y-55002438D01*
X71214285Y-55002438D02*
X71261904Y-55050057D01*
X71261904Y-55050057D02*
X71309523Y-55145295D01*
X71309523Y-55145295D02*
X71309523Y-55240533D01*
X71309523Y-55240533D02*
X71261904Y-55383390D01*
X71261904Y-55383390D02*
X70690476Y-55954819D01*
X70690476Y-55954819D02*
X71309523Y-55954819D01*
X72166666Y-54954819D02*
X71976190Y-54954819D01*
X71976190Y-54954819D02*
X71880952Y-55002438D01*
X71880952Y-55002438D02*
X71833333Y-55050057D01*
X71833333Y-55050057D02*
X71738095Y-55192914D01*
X71738095Y-55192914D02*
X71690476Y-55383390D01*
X71690476Y-55383390D02*
X71690476Y-55764342D01*
X71690476Y-55764342D02*
X71738095Y-55859580D01*
X71738095Y-55859580D02*
X71785714Y-55907200D01*
X71785714Y-55907200D02*
X71880952Y-55954819D01*
X71880952Y-55954819D02*
X72071428Y-55954819D01*
X72071428Y-55954819D02*
X72166666Y-55907200D01*
X72166666Y-55907200D02*
X72214285Y-55859580D01*
X72214285Y-55859580D02*
X72261904Y-55764342D01*
X72261904Y-55764342D02*
X72261904Y-55526247D01*
X72261904Y-55526247D02*
X72214285Y-55431009D01*
X72214285Y-55431009D02*
X72166666Y-55383390D01*
X72166666Y-55383390D02*
X72071428Y-55335771D01*
X72071428Y-55335771D02*
X71880952Y-55335771D01*
X71880952Y-55335771D02*
X71785714Y-55383390D01*
X71785714Y-55383390D02*
X71738095Y-55431009D01*
X71738095Y-55431009D02*
X71690476Y-55526247D01*
X11333333Y-59024819D02*
X11000000Y-58548628D01*
X10761905Y-59024819D02*
X10761905Y-58024819D01*
X10761905Y-58024819D02*
X11142857Y-58024819D01*
X11142857Y-58024819D02*
X11238095Y-58072438D01*
X11238095Y-58072438D02*
X11285714Y-58120057D01*
X11285714Y-58120057D02*
X11333333Y-58215295D01*
X11333333Y-58215295D02*
X11333333Y-58358152D01*
X11333333Y-58358152D02*
X11285714Y-58453390D01*
X11285714Y-58453390D02*
X11238095Y-58501009D01*
X11238095Y-58501009D02*
X11142857Y-58548628D01*
X11142857Y-58548628D02*
X10761905Y-58548628D01*
X12190476Y-58024819D02*
X12000000Y-58024819D01*
X12000000Y-58024819D02*
X11904762Y-58072438D01*
X11904762Y-58072438D02*
X11857143Y-58120057D01*
X11857143Y-58120057D02*
X11761905Y-58262914D01*
X11761905Y-58262914D02*
X11714286Y-58453390D01*
X11714286Y-58453390D02*
X11714286Y-58834342D01*
X11714286Y-58834342D02*
X11761905Y-58929580D01*
X11761905Y-58929580D02*
X11809524Y-58977200D01*
X11809524Y-58977200D02*
X11904762Y-59024819D01*
X11904762Y-59024819D02*
X12095238Y-59024819D01*
X12095238Y-59024819D02*
X12190476Y-58977200D01*
X12190476Y-58977200D02*
X12238095Y-58929580D01*
X12238095Y-58929580D02*
X12285714Y-58834342D01*
X12285714Y-58834342D02*
X12285714Y-58596247D01*
X12285714Y-58596247D02*
X12238095Y-58501009D01*
X12238095Y-58501009D02*
X12190476Y-58453390D01*
X12190476Y-58453390D02*
X12095238Y-58405771D01*
X12095238Y-58405771D02*
X11904762Y-58405771D01*
X11904762Y-58405771D02*
X11809524Y-58453390D01*
X11809524Y-58453390D02*
X11761905Y-58501009D01*
X11761905Y-58501009D02*
X11714286Y-58596247D01*
X80357142Y-52359580D02*
X80309523Y-52407200D01*
X80309523Y-52407200D02*
X80166666Y-52454819D01*
X80166666Y-52454819D02*
X80071428Y-52454819D01*
X80071428Y-52454819D02*
X79928571Y-52407200D01*
X79928571Y-52407200D02*
X79833333Y-52311961D01*
X79833333Y-52311961D02*
X79785714Y-52216723D01*
X79785714Y-52216723D02*
X79738095Y-52026247D01*
X79738095Y-52026247D02*
X79738095Y-51883390D01*
X79738095Y-51883390D02*
X79785714Y-51692914D01*
X79785714Y-51692914D02*
X79833333Y-51597676D01*
X79833333Y-51597676D02*
X79928571Y-51502438D01*
X79928571Y-51502438D02*
X80071428Y-51454819D01*
X80071428Y-51454819D02*
X80166666Y-51454819D01*
X80166666Y-51454819D02*
X80309523Y-51502438D01*
X80309523Y-51502438D02*
X80357142Y-51550057D01*
X80738095Y-51550057D02*
X80785714Y-51502438D01*
X80785714Y-51502438D02*
X80880952Y-51454819D01*
X80880952Y-51454819D02*
X81119047Y-51454819D01*
X81119047Y-51454819D02*
X81214285Y-51502438D01*
X81214285Y-51502438D02*
X81261904Y-51550057D01*
X81261904Y-51550057D02*
X81309523Y-51645295D01*
X81309523Y-51645295D02*
X81309523Y-51740533D01*
X81309523Y-51740533D02*
X81261904Y-51883390D01*
X81261904Y-51883390D02*
X80690476Y-52454819D01*
X80690476Y-52454819D02*
X81309523Y-52454819D01*
X81880952Y-51883390D02*
X81785714Y-51835771D01*
X81785714Y-51835771D02*
X81738095Y-51788152D01*
X81738095Y-51788152D02*
X81690476Y-51692914D01*
X81690476Y-51692914D02*
X81690476Y-51645295D01*
X81690476Y-51645295D02*
X81738095Y-51550057D01*
X81738095Y-51550057D02*
X81785714Y-51502438D01*
X81785714Y-51502438D02*
X81880952Y-51454819D01*
X81880952Y-51454819D02*
X82071428Y-51454819D01*
X82071428Y-51454819D02*
X82166666Y-51502438D01*
X82166666Y-51502438D02*
X82214285Y-51550057D01*
X82214285Y-51550057D02*
X82261904Y-51645295D01*
X82261904Y-51645295D02*
X82261904Y-51692914D01*
X82261904Y-51692914D02*
X82214285Y-51788152D01*
X82214285Y-51788152D02*
X82166666Y-51835771D01*
X82166666Y-51835771D02*
X82071428Y-51883390D01*
X82071428Y-51883390D02*
X81880952Y-51883390D01*
X81880952Y-51883390D02*
X81785714Y-51931009D01*
X81785714Y-51931009D02*
X81738095Y-51978628D01*
X81738095Y-51978628D02*
X81690476Y-52073866D01*
X81690476Y-52073866D02*
X81690476Y-52264342D01*
X81690476Y-52264342D02*
X81738095Y-52359580D01*
X81738095Y-52359580D02*
X81785714Y-52407200D01*
X81785714Y-52407200D02*
X81880952Y-52454819D01*
X81880952Y-52454819D02*
X82071428Y-52454819D01*
X82071428Y-52454819D02*
X82166666Y-52407200D01*
X82166666Y-52407200D02*
X82214285Y-52359580D01*
X82214285Y-52359580D02*
X82261904Y-52264342D01*
X82261904Y-52264342D02*
X82261904Y-52073866D01*
X82261904Y-52073866D02*
X82214285Y-51978628D01*
X82214285Y-51978628D02*
X82166666Y-51931009D01*
X82166666Y-51931009D02*
X82071428Y-51883390D01*
X13238095Y-42504819D02*
X13238095Y-43314342D01*
X13238095Y-43314342D02*
X13285714Y-43409580D01*
X13285714Y-43409580D02*
X13333333Y-43457200D01*
X13333333Y-43457200D02*
X13428571Y-43504819D01*
X13428571Y-43504819D02*
X13619047Y-43504819D01*
X13619047Y-43504819D02*
X13714285Y-43457200D01*
X13714285Y-43457200D02*
X13761904Y-43409580D01*
X13761904Y-43409580D02*
X13809523Y-43314342D01*
X13809523Y-43314342D02*
X13809523Y-42504819D01*
X14761904Y-42504819D02*
X14285714Y-42504819D01*
X14285714Y-42504819D02*
X14238095Y-42981009D01*
X14238095Y-42981009D02*
X14285714Y-42933390D01*
X14285714Y-42933390D02*
X14380952Y-42885771D01*
X14380952Y-42885771D02*
X14619047Y-42885771D01*
X14619047Y-42885771D02*
X14714285Y-42933390D01*
X14714285Y-42933390D02*
X14761904Y-42981009D01*
X14761904Y-42981009D02*
X14809523Y-43076247D01*
X14809523Y-43076247D02*
X14809523Y-43314342D01*
X14809523Y-43314342D02*
X14761904Y-43409580D01*
X14761904Y-43409580D02*
X14714285Y-43457200D01*
X14714285Y-43457200D02*
X14619047Y-43504819D01*
X14619047Y-43504819D02*
X14380952Y-43504819D01*
X14380952Y-43504819D02*
X14285714Y-43457200D01*
X14285714Y-43457200D02*
X14238095Y-43409580D01*
X90857142Y-31059580D02*
X90809523Y-31107200D01*
X90809523Y-31107200D02*
X90666666Y-31154819D01*
X90666666Y-31154819D02*
X90571428Y-31154819D01*
X90571428Y-31154819D02*
X90428571Y-31107200D01*
X90428571Y-31107200D02*
X90333333Y-31011961D01*
X90333333Y-31011961D02*
X90285714Y-30916723D01*
X90285714Y-30916723D02*
X90238095Y-30726247D01*
X90238095Y-30726247D02*
X90238095Y-30583390D01*
X90238095Y-30583390D02*
X90285714Y-30392914D01*
X90285714Y-30392914D02*
X90333333Y-30297676D01*
X90333333Y-30297676D02*
X90428571Y-30202438D01*
X90428571Y-30202438D02*
X90571428Y-30154819D01*
X90571428Y-30154819D02*
X90666666Y-30154819D01*
X90666666Y-30154819D02*
X90809523Y-30202438D01*
X90809523Y-30202438D02*
X90857142Y-30250057D01*
X91809523Y-31154819D02*
X91238095Y-31154819D01*
X91523809Y-31154819D02*
X91523809Y-30154819D01*
X91523809Y-30154819D02*
X91428571Y-30297676D01*
X91428571Y-30297676D02*
X91333333Y-30392914D01*
X91333333Y-30392914D02*
X91238095Y-30440533D01*
X92380952Y-30583390D02*
X92285714Y-30535771D01*
X92285714Y-30535771D02*
X92238095Y-30488152D01*
X92238095Y-30488152D02*
X92190476Y-30392914D01*
X92190476Y-30392914D02*
X92190476Y-30345295D01*
X92190476Y-30345295D02*
X92238095Y-30250057D01*
X92238095Y-30250057D02*
X92285714Y-30202438D01*
X92285714Y-30202438D02*
X92380952Y-30154819D01*
X92380952Y-30154819D02*
X92571428Y-30154819D01*
X92571428Y-30154819D02*
X92666666Y-30202438D01*
X92666666Y-30202438D02*
X92714285Y-30250057D01*
X92714285Y-30250057D02*
X92761904Y-30345295D01*
X92761904Y-30345295D02*
X92761904Y-30392914D01*
X92761904Y-30392914D02*
X92714285Y-30488152D01*
X92714285Y-30488152D02*
X92666666Y-30535771D01*
X92666666Y-30535771D02*
X92571428Y-30583390D01*
X92571428Y-30583390D02*
X92380952Y-30583390D01*
X92380952Y-30583390D02*
X92285714Y-30631009D01*
X92285714Y-30631009D02*
X92238095Y-30678628D01*
X92238095Y-30678628D02*
X92190476Y-30773866D01*
X92190476Y-30773866D02*
X92190476Y-30964342D01*
X92190476Y-30964342D02*
X92238095Y-31059580D01*
X92238095Y-31059580D02*
X92285714Y-31107200D01*
X92285714Y-31107200D02*
X92380952Y-31154819D01*
X92380952Y-31154819D02*
X92571428Y-31154819D01*
X92571428Y-31154819D02*
X92666666Y-31107200D01*
X92666666Y-31107200D02*
X92714285Y-31059580D01*
X92714285Y-31059580D02*
X92761904Y-30964342D01*
X92761904Y-30964342D02*
X92761904Y-30773866D01*
X92761904Y-30773866D02*
X92714285Y-30678628D01*
X92714285Y-30678628D02*
X92666666Y-30631009D01*
X92666666Y-30631009D02*
X92571428Y-30583390D01*
X78357142Y-30024819D02*
X78023809Y-29548628D01*
X77785714Y-30024819D02*
X77785714Y-29024819D01*
X77785714Y-29024819D02*
X78166666Y-29024819D01*
X78166666Y-29024819D02*
X78261904Y-29072438D01*
X78261904Y-29072438D02*
X78309523Y-29120057D01*
X78309523Y-29120057D02*
X78357142Y-29215295D01*
X78357142Y-29215295D02*
X78357142Y-29358152D01*
X78357142Y-29358152D02*
X78309523Y-29453390D01*
X78309523Y-29453390D02*
X78261904Y-29501009D01*
X78261904Y-29501009D02*
X78166666Y-29548628D01*
X78166666Y-29548628D02*
X77785714Y-29548628D01*
X79309523Y-30024819D02*
X78738095Y-30024819D01*
X79023809Y-30024819D02*
X79023809Y-29024819D01*
X79023809Y-29024819D02*
X78928571Y-29167676D01*
X78928571Y-29167676D02*
X78833333Y-29262914D01*
X78833333Y-29262914D02*
X78738095Y-29310533D01*
X79928571Y-29024819D02*
X80023809Y-29024819D01*
X80023809Y-29024819D02*
X80119047Y-29072438D01*
X80119047Y-29072438D02*
X80166666Y-29120057D01*
X80166666Y-29120057D02*
X80214285Y-29215295D01*
X80214285Y-29215295D02*
X80261904Y-29405771D01*
X80261904Y-29405771D02*
X80261904Y-29643866D01*
X80261904Y-29643866D02*
X80214285Y-29834342D01*
X80214285Y-29834342D02*
X80166666Y-29929580D01*
X80166666Y-29929580D02*
X80119047Y-29977200D01*
X80119047Y-29977200D02*
X80023809Y-30024819D01*
X80023809Y-30024819D02*
X79928571Y-30024819D01*
X79928571Y-30024819D02*
X79833333Y-29977200D01*
X79833333Y-29977200D02*
X79785714Y-29929580D01*
X79785714Y-29929580D02*
X79738095Y-29834342D01*
X79738095Y-29834342D02*
X79690476Y-29643866D01*
X79690476Y-29643866D02*
X79690476Y-29405771D01*
X79690476Y-29405771D02*
X79738095Y-29215295D01*
X79738095Y-29215295D02*
X79785714Y-29120057D01*
X79785714Y-29120057D02*
X79833333Y-29072438D01*
X79833333Y-29072438D02*
X79928571Y-29024819D01*
X10524819Y-68166666D02*
X10048628Y-68499999D01*
X10524819Y-68738094D02*
X9524819Y-68738094D01*
X9524819Y-68738094D02*
X9524819Y-68357142D01*
X9524819Y-68357142D02*
X9572438Y-68261904D01*
X9572438Y-68261904D02*
X9620057Y-68214285D01*
X9620057Y-68214285D02*
X9715295Y-68166666D01*
X9715295Y-68166666D02*
X9858152Y-68166666D01*
X9858152Y-68166666D02*
X9953390Y-68214285D01*
X9953390Y-68214285D02*
X10001009Y-68261904D01*
X10001009Y-68261904D02*
X10048628Y-68357142D01*
X10048628Y-68357142D02*
X10048628Y-68738094D01*
X10524819Y-67214285D02*
X10524819Y-67785713D01*
X10524819Y-67499999D02*
X9524819Y-67499999D01*
X9524819Y-67499999D02*
X9667676Y-67595237D01*
X9667676Y-67595237D02*
X9762914Y-67690475D01*
X9762914Y-67690475D02*
X9810533Y-67785713D01*
X76238095Y-36454819D02*
X76238095Y-37264342D01*
X76238095Y-37264342D02*
X76285714Y-37359580D01*
X76285714Y-37359580D02*
X76333333Y-37407200D01*
X76333333Y-37407200D02*
X76428571Y-37454819D01*
X76428571Y-37454819D02*
X76619047Y-37454819D01*
X76619047Y-37454819D02*
X76714285Y-37407200D01*
X76714285Y-37407200D02*
X76761904Y-37359580D01*
X76761904Y-37359580D02*
X76809523Y-37264342D01*
X76809523Y-37264342D02*
X76809523Y-36454819D01*
X77809523Y-37454819D02*
X77238095Y-37454819D01*
X77523809Y-37454819D02*
X77523809Y-36454819D01*
X77523809Y-36454819D02*
X77428571Y-36597676D01*
X77428571Y-36597676D02*
X77333333Y-36692914D01*
X77333333Y-36692914D02*
X77238095Y-36740533D01*
X11333333Y-64024819D02*
X11000000Y-63548628D01*
X10761905Y-64024819D02*
X10761905Y-63024819D01*
X10761905Y-63024819D02*
X11142857Y-63024819D01*
X11142857Y-63024819D02*
X11238095Y-63072438D01*
X11238095Y-63072438D02*
X11285714Y-63120057D01*
X11285714Y-63120057D02*
X11333333Y-63215295D01*
X11333333Y-63215295D02*
X11333333Y-63358152D01*
X11333333Y-63358152D02*
X11285714Y-63453390D01*
X11285714Y-63453390D02*
X11238095Y-63501009D01*
X11238095Y-63501009D02*
X11142857Y-63548628D01*
X11142857Y-63548628D02*
X10761905Y-63548628D01*
X12238095Y-63024819D02*
X11761905Y-63024819D01*
X11761905Y-63024819D02*
X11714286Y-63501009D01*
X11714286Y-63501009D02*
X11761905Y-63453390D01*
X11761905Y-63453390D02*
X11857143Y-63405771D01*
X11857143Y-63405771D02*
X12095238Y-63405771D01*
X12095238Y-63405771D02*
X12190476Y-63453390D01*
X12190476Y-63453390D02*
X12238095Y-63501009D01*
X12238095Y-63501009D02*
X12285714Y-63596247D01*
X12285714Y-63596247D02*
X12285714Y-63834342D01*
X12285714Y-63834342D02*
X12238095Y-63929580D01*
X12238095Y-63929580D02*
X12190476Y-63977200D01*
X12190476Y-63977200D02*
X12095238Y-64024819D01*
X12095238Y-64024819D02*
X11857143Y-64024819D01*
X11857143Y-64024819D02*
X11761905Y-63977200D01*
X11761905Y-63977200D02*
X11714286Y-63929580D01*
X41333333Y-60679580D02*
X41285714Y-60727200D01*
X41285714Y-60727200D02*
X41142857Y-60774819D01*
X41142857Y-60774819D02*
X41047619Y-60774819D01*
X41047619Y-60774819D02*
X40904762Y-60727200D01*
X40904762Y-60727200D02*
X40809524Y-60631961D01*
X40809524Y-60631961D02*
X40761905Y-60536723D01*
X40761905Y-60536723D02*
X40714286Y-60346247D01*
X40714286Y-60346247D02*
X40714286Y-60203390D01*
X40714286Y-60203390D02*
X40761905Y-60012914D01*
X40761905Y-60012914D02*
X40809524Y-59917676D01*
X40809524Y-59917676D02*
X40904762Y-59822438D01*
X40904762Y-59822438D02*
X41047619Y-59774819D01*
X41047619Y-59774819D02*
X41142857Y-59774819D01*
X41142857Y-59774819D02*
X41285714Y-59822438D01*
X41285714Y-59822438D02*
X41333333Y-59870057D01*
X41714286Y-59870057D02*
X41761905Y-59822438D01*
X41761905Y-59822438D02*
X41857143Y-59774819D01*
X41857143Y-59774819D02*
X42095238Y-59774819D01*
X42095238Y-59774819D02*
X42190476Y-59822438D01*
X42190476Y-59822438D02*
X42238095Y-59870057D01*
X42238095Y-59870057D02*
X42285714Y-59965295D01*
X42285714Y-59965295D02*
X42285714Y-60060533D01*
X42285714Y-60060533D02*
X42238095Y-60203390D01*
X42238095Y-60203390D02*
X41666667Y-60774819D01*
X41666667Y-60774819D02*
X42285714Y-60774819D01*
X66454819Y-60966666D02*
X66454819Y-61442856D01*
X66454819Y-61442856D02*
X65454819Y-61442856D01*
X65454819Y-60728570D02*
X65454819Y-60109523D01*
X65454819Y-60109523D02*
X65835771Y-60442856D01*
X65835771Y-60442856D02*
X65835771Y-60299999D01*
X65835771Y-60299999D02*
X65883390Y-60204761D01*
X65883390Y-60204761D02*
X65931009Y-60157142D01*
X65931009Y-60157142D02*
X66026247Y-60109523D01*
X66026247Y-60109523D02*
X66264342Y-60109523D01*
X66264342Y-60109523D02*
X66359580Y-60157142D01*
X66359580Y-60157142D02*
X66407200Y-60204761D01*
X66407200Y-60204761D02*
X66454819Y-60299999D01*
X66454819Y-60299999D02*
X66454819Y-60585713D01*
X66454819Y-60585713D02*
X66407200Y-60680951D01*
X66407200Y-60680951D02*
X66359580Y-60728570D01*
X10357142Y-44359580D02*
X10309523Y-44407200D01*
X10309523Y-44407200D02*
X10166666Y-44454819D01*
X10166666Y-44454819D02*
X10071428Y-44454819D01*
X10071428Y-44454819D02*
X9928571Y-44407200D01*
X9928571Y-44407200D02*
X9833333Y-44311961D01*
X9833333Y-44311961D02*
X9785714Y-44216723D01*
X9785714Y-44216723D02*
X9738095Y-44026247D01*
X9738095Y-44026247D02*
X9738095Y-43883390D01*
X9738095Y-43883390D02*
X9785714Y-43692914D01*
X9785714Y-43692914D02*
X9833333Y-43597676D01*
X9833333Y-43597676D02*
X9928571Y-43502438D01*
X9928571Y-43502438D02*
X10071428Y-43454819D01*
X10071428Y-43454819D02*
X10166666Y-43454819D01*
X10166666Y-43454819D02*
X10309523Y-43502438D01*
X10309523Y-43502438D02*
X10357142Y-43550057D01*
X10690476Y-43454819D02*
X11309523Y-43454819D01*
X11309523Y-43454819D02*
X10976190Y-43835771D01*
X10976190Y-43835771D02*
X11119047Y-43835771D01*
X11119047Y-43835771D02*
X11214285Y-43883390D01*
X11214285Y-43883390D02*
X11261904Y-43931009D01*
X11261904Y-43931009D02*
X11309523Y-44026247D01*
X11309523Y-44026247D02*
X11309523Y-44264342D01*
X11309523Y-44264342D02*
X11261904Y-44359580D01*
X11261904Y-44359580D02*
X11214285Y-44407200D01*
X11214285Y-44407200D02*
X11119047Y-44454819D01*
X11119047Y-44454819D02*
X10833333Y-44454819D01*
X10833333Y-44454819D02*
X10738095Y-44407200D01*
X10738095Y-44407200D02*
X10690476Y-44359580D01*
X11642857Y-43454819D02*
X12309523Y-43454819D01*
X12309523Y-43454819D02*
X11880952Y-44454819D01*
X44679580Y-23142857D02*
X44727200Y-23190476D01*
X44727200Y-23190476D02*
X44774819Y-23333333D01*
X44774819Y-23333333D02*
X44774819Y-23428571D01*
X44774819Y-23428571D02*
X44727200Y-23571428D01*
X44727200Y-23571428D02*
X44631961Y-23666666D01*
X44631961Y-23666666D02*
X44536723Y-23714285D01*
X44536723Y-23714285D02*
X44346247Y-23761904D01*
X44346247Y-23761904D02*
X44203390Y-23761904D01*
X44203390Y-23761904D02*
X44012914Y-23714285D01*
X44012914Y-23714285D02*
X43917676Y-23666666D01*
X43917676Y-23666666D02*
X43822438Y-23571428D01*
X43822438Y-23571428D02*
X43774819Y-23428571D01*
X43774819Y-23428571D02*
X43774819Y-23333333D01*
X43774819Y-23333333D02*
X43822438Y-23190476D01*
X43822438Y-23190476D02*
X43870057Y-23142857D01*
X44774819Y-22190476D02*
X44774819Y-22761904D01*
X44774819Y-22476190D02*
X43774819Y-22476190D01*
X43774819Y-22476190D02*
X43917676Y-22571428D01*
X43917676Y-22571428D02*
X44012914Y-22666666D01*
X44012914Y-22666666D02*
X44060533Y-22761904D01*
X43774819Y-21571428D02*
X43774819Y-21476190D01*
X43774819Y-21476190D02*
X43822438Y-21380952D01*
X43822438Y-21380952D02*
X43870057Y-21333333D01*
X43870057Y-21333333D02*
X43965295Y-21285714D01*
X43965295Y-21285714D02*
X44155771Y-21238095D01*
X44155771Y-21238095D02*
X44393866Y-21238095D01*
X44393866Y-21238095D02*
X44584342Y-21285714D01*
X44584342Y-21285714D02*
X44679580Y-21333333D01*
X44679580Y-21333333D02*
X44727200Y-21380952D01*
X44727200Y-21380952D02*
X44774819Y-21476190D01*
X44774819Y-21476190D02*
X44774819Y-21571428D01*
X44774819Y-21571428D02*
X44727200Y-21666666D01*
X44727200Y-21666666D02*
X44679580Y-21714285D01*
X44679580Y-21714285D02*
X44584342Y-21761904D01*
X44584342Y-21761904D02*
X44393866Y-21809523D01*
X44393866Y-21809523D02*
X44155771Y-21809523D01*
X44155771Y-21809523D02*
X43965295Y-21761904D01*
X43965295Y-21761904D02*
X43870057Y-21714285D01*
X43870057Y-21714285D02*
X43822438Y-21666666D01*
X43822438Y-21666666D02*
X43774819Y-21571428D01*
X73357142Y-30859580D02*
X73309523Y-30907200D01*
X73309523Y-30907200D02*
X73166666Y-30954819D01*
X73166666Y-30954819D02*
X73071428Y-30954819D01*
X73071428Y-30954819D02*
X72928571Y-30907200D01*
X72928571Y-30907200D02*
X72833333Y-30811961D01*
X72833333Y-30811961D02*
X72785714Y-30716723D01*
X72785714Y-30716723D02*
X72738095Y-30526247D01*
X72738095Y-30526247D02*
X72738095Y-30383390D01*
X72738095Y-30383390D02*
X72785714Y-30192914D01*
X72785714Y-30192914D02*
X72833333Y-30097676D01*
X72833333Y-30097676D02*
X72928571Y-30002438D01*
X72928571Y-30002438D02*
X73071428Y-29954819D01*
X73071428Y-29954819D02*
X73166666Y-29954819D01*
X73166666Y-29954819D02*
X73309523Y-30002438D01*
X73309523Y-30002438D02*
X73357142Y-30050057D01*
X74309523Y-30954819D02*
X73738095Y-30954819D01*
X74023809Y-30954819D02*
X74023809Y-29954819D01*
X74023809Y-29954819D02*
X73928571Y-30097676D01*
X73928571Y-30097676D02*
X73833333Y-30192914D01*
X73833333Y-30192914D02*
X73738095Y-30240533D01*
X75166666Y-30288152D02*
X75166666Y-30954819D01*
X74928571Y-29907200D02*
X74690476Y-30621485D01*
X74690476Y-30621485D02*
X75309523Y-30621485D01*
X65179580Y-75142857D02*
X65227200Y-75190476D01*
X65227200Y-75190476D02*
X65274819Y-75333333D01*
X65274819Y-75333333D02*
X65274819Y-75428571D01*
X65274819Y-75428571D02*
X65227200Y-75571428D01*
X65227200Y-75571428D02*
X65131961Y-75666666D01*
X65131961Y-75666666D02*
X65036723Y-75714285D01*
X65036723Y-75714285D02*
X64846247Y-75761904D01*
X64846247Y-75761904D02*
X64703390Y-75761904D01*
X64703390Y-75761904D02*
X64512914Y-75714285D01*
X64512914Y-75714285D02*
X64417676Y-75666666D01*
X64417676Y-75666666D02*
X64322438Y-75571428D01*
X64322438Y-75571428D02*
X64274819Y-75428571D01*
X64274819Y-75428571D02*
X64274819Y-75333333D01*
X64274819Y-75333333D02*
X64322438Y-75190476D01*
X64322438Y-75190476D02*
X64370057Y-75142857D01*
X64274819Y-74809523D02*
X64274819Y-74190476D01*
X64274819Y-74190476D02*
X64655771Y-74523809D01*
X64655771Y-74523809D02*
X64655771Y-74380952D01*
X64655771Y-74380952D02*
X64703390Y-74285714D01*
X64703390Y-74285714D02*
X64751009Y-74238095D01*
X64751009Y-74238095D02*
X64846247Y-74190476D01*
X64846247Y-74190476D02*
X65084342Y-74190476D01*
X65084342Y-74190476D02*
X65179580Y-74238095D01*
X65179580Y-74238095D02*
X65227200Y-74285714D01*
X65227200Y-74285714D02*
X65274819Y-74380952D01*
X65274819Y-74380952D02*
X65274819Y-74666666D01*
X65274819Y-74666666D02*
X65227200Y-74761904D01*
X65227200Y-74761904D02*
X65179580Y-74809523D01*
X64274819Y-73285714D02*
X64274819Y-73761904D01*
X64274819Y-73761904D02*
X64751009Y-73809523D01*
X64751009Y-73809523D02*
X64703390Y-73761904D01*
X64703390Y-73761904D02*
X64655771Y-73666666D01*
X64655771Y-73666666D02*
X64655771Y-73428571D01*
X64655771Y-73428571D02*
X64703390Y-73333333D01*
X64703390Y-73333333D02*
X64751009Y-73285714D01*
X64751009Y-73285714D02*
X64846247Y-73238095D01*
X64846247Y-73238095D02*
X65084342Y-73238095D01*
X65084342Y-73238095D02*
X65179580Y-73285714D01*
X65179580Y-73285714D02*
X65227200Y-73333333D01*
X65227200Y-73333333D02*
X65274819Y-73428571D01*
X65274819Y-73428571D02*
X65274819Y-73666666D01*
X65274819Y-73666666D02*
X65227200Y-73761904D01*
X65227200Y-73761904D02*
X65179580Y-73809523D01*
X17524819Y-61991666D02*
X17048628Y-62324999D01*
X17524819Y-62563094D02*
X16524819Y-62563094D01*
X16524819Y-62563094D02*
X16524819Y-62182142D01*
X16524819Y-62182142D02*
X16572438Y-62086904D01*
X16572438Y-62086904D02*
X16620057Y-62039285D01*
X16620057Y-62039285D02*
X16715295Y-61991666D01*
X16715295Y-61991666D02*
X16858152Y-61991666D01*
X16858152Y-61991666D02*
X16953390Y-62039285D01*
X16953390Y-62039285D02*
X17001009Y-62086904D01*
X17001009Y-62086904D02*
X17048628Y-62182142D01*
X17048628Y-62182142D02*
X17048628Y-62563094D01*
X16524819Y-61658332D02*
X16524819Y-61039285D01*
X16524819Y-61039285D02*
X16905771Y-61372618D01*
X16905771Y-61372618D02*
X16905771Y-61229761D01*
X16905771Y-61229761D02*
X16953390Y-61134523D01*
X16953390Y-61134523D02*
X17001009Y-61086904D01*
X17001009Y-61086904D02*
X17096247Y-61039285D01*
X17096247Y-61039285D02*
X17334342Y-61039285D01*
X17334342Y-61039285D02*
X17429580Y-61086904D01*
X17429580Y-61086904D02*
X17477200Y-61134523D01*
X17477200Y-61134523D02*
X17524819Y-61229761D01*
X17524819Y-61229761D02*
X17524819Y-61515475D01*
X17524819Y-61515475D02*
X17477200Y-61610713D01*
X17477200Y-61610713D02*
X17429580Y-61658332D01*
X37833333Y-18024819D02*
X37500000Y-17548628D01*
X37261905Y-18024819D02*
X37261905Y-17024819D01*
X37261905Y-17024819D02*
X37642857Y-17024819D01*
X37642857Y-17024819D02*
X37738095Y-17072438D01*
X37738095Y-17072438D02*
X37785714Y-17120057D01*
X37785714Y-17120057D02*
X37833333Y-17215295D01*
X37833333Y-17215295D02*
X37833333Y-17358152D01*
X37833333Y-17358152D02*
X37785714Y-17453390D01*
X37785714Y-17453390D02*
X37738095Y-17501009D01*
X37738095Y-17501009D02*
X37642857Y-17548628D01*
X37642857Y-17548628D02*
X37261905Y-17548628D01*
X38404762Y-17453390D02*
X38309524Y-17405771D01*
X38309524Y-17405771D02*
X38261905Y-17358152D01*
X38261905Y-17358152D02*
X38214286Y-17262914D01*
X38214286Y-17262914D02*
X38214286Y-17215295D01*
X38214286Y-17215295D02*
X38261905Y-17120057D01*
X38261905Y-17120057D02*
X38309524Y-17072438D01*
X38309524Y-17072438D02*
X38404762Y-17024819D01*
X38404762Y-17024819D02*
X38595238Y-17024819D01*
X38595238Y-17024819D02*
X38690476Y-17072438D01*
X38690476Y-17072438D02*
X38738095Y-17120057D01*
X38738095Y-17120057D02*
X38785714Y-17215295D01*
X38785714Y-17215295D02*
X38785714Y-17262914D01*
X38785714Y-17262914D02*
X38738095Y-17358152D01*
X38738095Y-17358152D02*
X38690476Y-17405771D01*
X38690476Y-17405771D02*
X38595238Y-17453390D01*
X38595238Y-17453390D02*
X38404762Y-17453390D01*
X38404762Y-17453390D02*
X38309524Y-17501009D01*
X38309524Y-17501009D02*
X38261905Y-17548628D01*
X38261905Y-17548628D02*
X38214286Y-17643866D01*
X38214286Y-17643866D02*
X38214286Y-17834342D01*
X38214286Y-17834342D02*
X38261905Y-17929580D01*
X38261905Y-17929580D02*
X38309524Y-17977200D01*
X38309524Y-17977200D02*
X38404762Y-18024819D01*
X38404762Y-18024819D02*
X38595238Y-18024819D01*
X38595238Y-18024819D02*
X38690476Y-17977200D01*
X38690476Y-17977200D02*
X38738095Y-17929580D01*
X38738095Y-17929580D02*
X38785714Y-17834342D01*
X38785714Y-17834342D02*
X38785714Y-17643866D01*
X38785714Y-17643866D02*
X38738095Y-17548628D01*
X38738095Y-17548628D02*
X38690476Y-17501009D01*
X38690476Y-17501009D02*
X38595238Y-17453390D01*
X38357143Y-32357200D02*
X38500000Y-32404819D01*
X38500000Y-32404819D02*
X38738095Y-32404819D01*
X38738095Y-32404819D02*
X38833333Y-32357200D01*
X38833333Y-32357200D02*
X38880952Y-32309580D01*
X38880952Y-32309580D02*
X38928571Y-32214342D01*
X38928571Y-32214342D02*
X38928571Y-32119104D01*
X38928571Y-32119104D02*
X38880952Y-32023866D01*
X38880952Y-32023866D02*
X38833333Y-31976247D01*
X38833333Y-31976247D02*
X38738095Y-31928628D01*
X38738095Y-31928628D02*
X38547619Y-31881009D01*
X38547619Y-31881009D02*
X38452381Y-31833390D01*
X38452381Y-31833390D02*
X38404762Y-31785771D01*
X38404762Y-31785771D02*
X38357143Y-31690533D01*
X38357143Y-31690533D02*
X38357143Y-31595295D01*
X38357143Y-31595295D02*
X38404762Y-31500057D01*
X38404762Y-31500057D02*
X38452381Y-31452438D01*
X38452381Y-31452438D02*
X38547619Y-31404819D01*
X38547619Y-31404819D02*
X38785714Y-31404819D01*
X38785714Y-31404819D02*
X38928571Y-31452438D01*
X39261905Y-31404819D02*
X39500000Y-32404819D01*
X39500000Y-32404819D02*
X39690476Y-31690533D01*
X39690476Y-31690533D02*
X39880952Y-32404819D01*
X39880952Y-32404819D02*
X40119048Y-31404819D01*
X40261905Y-32500057D02*
X41023809Y-32500057D01*
X41595238Y-31881009D02*
X41738095Y-31928628D01*
X41738095Y-31928628D02*
X41785714Y-31976247D01*
X41785714Y-31976247D02*
X41833333Y-32071485D01*
X41833333Y-32071485D02*
X41833333Y-32214342D01*
X41833333Y-32214342D02*
X41785714Y-32309580D01*
X41785714Y-32309580D02*
X41738095Y-32357200D01*
X41738095Y-32357200D02*
X41642857Y-32404819D01*
X41642857Y-32404819D02*
X41261905Y-32404819D01*
X41261905Y-32404819D02*
X41261905Y-31404819D01*
X41261905Y-31404819D02*
X41595238Y-31404819D01*
X41595238Y-31404819D02*
X41690476Y-31452438D01*
X41690476Y-31452438D02*
X41738095Y-31500057D01*
X41738095Y-31500057D02*
X41785714Y-31595295D01*
X41785714Y-31595295D02*
X41785714Y-31690533D01*
X41785714Y-31690533D02*
X41738095Y-31785771D01*
X41738095Y-31785771D02*
X41690476Y-31833390D01*
X41690476Y-31833390D02*
X41595238Y-31881009D01*
X41595238Y-31881009D02*
X41261905Y-31881009D01*
X42452381Y-31404819D02*
X42642857Y-31404819D01*
X42642857Y-31404819D02*
X42738095Y-31452438D01*
X42738095Y-31452438D02*
X42833333Y-31547676D01*
X42833333Y-31547676D02*
X42880952Y-31738152D01*
X42880952Y-31738152D02*
X42880952Y-32071485D01*
X42880952Y-32071485D02*
X42833333Y-32261961D01*
X42833333Y-32261961D02*
X42738095Y-32357200D01*
X42738095Y-32357200D02*
X42642857Y-32404819D01*
X42642857Y-32404819D02*
X42452381Y-32404819D01*
X42452381Y-32404819D02*
X42357143Y-32357200D01*
X42357143Y-32357200D02*
X42261905Y-32261961D01*
X42261905Y-32261961D02*
X42214286Y-32071485D01*
X42214286Y-32071485D02*
X42214286Y-31738152D01*
X42214286Y-31738152D02*
X42261905Y-31547676D01*
X42261905Y-31547676D02*
X42357143Y-31452438D01*
X42357143Y-31452438D02*
X42452381Y-31404819D01*
X43500000Y-31404819D02*
X43690476Y-31404819D01*
X43690476Y-31404819D02*
X43785714Y-31452438D01*
X43785714Y-31452438D02*
X43880952Y-31547676D01*
X43880952Y-31547676D02*
X43928571Y-31738152D01*
X43928571Y-31738152D02*
X43928571Y-32071485D01*
X43928571Y-32071485D02*
X43880952Y-32261961D01*
X43880952Y-32261961D02*
X43785714Y-32357200D01*
X43785714Y-32357200D02*
X43690476Y-32404819D01*
X43690476Y-32404819D02*
X43500000Y-32404819D01*
X43500000Y-32404819D02*
X43404762Y-32357200D01*
X43404762Y-32357200D02*
X43309524Y-32261961D01*
X43309524Y-32261961D02*
X43261905Y-32071485D01*
X43261905Y-32071485D02*
X43261905Y-31738152D01*
X43261905Y-31738152D02*
X43309524Y-31547676D01*
X43309524Y-31547676D02*
X43404762Y-31452438D01*
X43404762Y-31452438D02*
X43500000Y-31404819D01*
X44214286Y-31404819D02*
X44785714Y-31404819D01*
X44500000Y-32404819D02*
X44500000Y-31404819D01*
X45642857Y-32404819D02*
X45071429Y-32404819D01*
X45357143Y-32404819D02*
X45357143Y-31404819D01*
X45357143Y-31404819D02*
X45261905Y-31547676D01*
X45261905Y-31547676D02*
X45166667Y-31642914D01*
X45166667Y-31642914D02*
X45071429Y-31690533D01*
X67357142Y-11929580D02*
X67309523Y-11977200D01*
X67309523Y-11977200D02*
X67166666Y-12024819D01*
X67166666Y-12024819D02*
X67071428Y-12024819D01*
X67071428Y-12024819D02*
X66928571Y-11977200D01*
X66928571Y-11977200D02*
X66833333Y-11881961D01*
X66833333Y-11881961D02*
X66785714Y-11786723D01*
X66785714Y-11786723D02*
X66738095Y-11596247D01*
X66738095Y-11596247D02*
X66738095Y-11453390D01*
X66738095Y-11453390D02*
X66785714Y-11262914D01*
X66785714Y-11262914D02*
X66833333Y-11167676D01*
X66833333Y-11167676D02*
X66928571Y-11072438D01*
X66928571Y-11072438D02*
X67071428Y-11024819D01*
X67071428Y-11024819D02*
X67166666Y-11024819D01*
X67166666Y-11024819D02*
X67309523Y-11072438D01*
X67309523Y-11072438D02*
X67357142Y-11120057D01*
X68309523Y-12024819D02*
X67738095Y-12024819D01*
X68023809Y-12024819D02*
X68023809Y-11024819D01*
X68023809Y-11024819D02*
X67928571Y-11167676D01*
X67928571Y-11167676D02*
X67833333Y-11262914D01*
X67833333Y-11262914D02*
X67738095Y-11310533D01*
X69261904Y-12024819D02*
X68690476Y-12024819D01*
X68976190Y-12024819D02*
X68976190Y-11024819D01*
X68976190Y-11024819D02*
X68880952Y-11167676D01*
X68880952Y-11167676D02*
X68785714Y-11262914D01*
X68785714Y-11262914D02*
X68690476Y-11310533D01*
X5524819Y-61119047D02*
X5524819Y-61595237D01*
X5524819Y-61595237D02*
X4524819Y-61595237D01*
X5001009Y-60785713D02*
X5001009Y-60452380D01*
X5524819Y-60309523D02*
X5524819Y-60785713D01*
X5524819Y-60785713D02*
X4524819Y-60785713D01*
X4524819Y-60785713D02*
X4524819Y-60309523D01*
X5524819Y-59880951D02*
X4524819Y-59880951D01*
X4524819Y-59880951D02*
X4524819Y-59642856D01*
X4524819Y-59642856D02*
X4572438Y-59499999D01*
X4572438Y-59499999D02*
X4667676Y-59404761D01*
X4667676Y-59404761D02*
X4762914Y-59357142D01*
X4762914Y-59357142D02*
X4953390Y-59309523D01*
X4953390Y-59309523D02*
X5096247Y-59309523D01*
X5096247Y-59309523D02*
X5286723Y-59357142D01*
X5286723Y-59357142D02*
X5381961Y-59404761D01*
X5381961Y-59404761D02*
X5477200Y-59499999D01*
X5477200Y-59499999D02*
X5524819Y-59642856D01*
X5524819Y-59642856D02*
X5524819Y-59880951D01*
X4620057Y-58928570D02*
X4572438Y-58880951D01*
X4572438Y-58880951D02*
X4524819Y-58785713D01*
X4524819Y-58785713D02*
X4524819Y-58547618D01*
X4524819Y-58547618D02*
X4572438Y-58452380D01*
X4572438Y-58452380D02*
X4620057Y-58404761D01*
X4620057Y-58404761D02*
X4715295Y-58357142D01*
X4715295Y-58357142D02*
X4810533Y-58357142D01*
X4810533Y-58357142D02*
X4953390Y-58404761D01*
X4953390Y-58404761D02*
X5524819Y-58976189D01*
X5524819Y-58976189D02*
X5524819Y-58357142D01*
X12833333Y-12359580D02*
X12785714Y-12407200D01*
X12785714Y-12407200D02*
X12642857Y-12454819D01*
X12642857Y-12454819D02*
X12547619Y-12454819D01*
X12547619Y-12454819D02*
X12404762Y-12407200D01*
X12404762Y-12407200D02*
X12309524Y-12311961D01*
X12309524Y-12311961D02*
X12261905Y-12216723D01*
X12261905Y-12216723D02*
X12214286Y-12026247D01*
X12214286Y-12026247D02*
X12214286Y-11883390D01*
X12214286Y-11883390D02*
X12261905Y-11692914D01*
X12261905Y-11692914D02*
X12309524Y-11597676D01*
X12309524Y-11597676D02*
X12404762Y-11502438D01*
X12404762Y-11502438D02*
X12547619Y-11454819D01*
X12547619Y-11454819D02*
X12642857Y-11454819D01*
X12642857Y-11454819D02*
X12785714Y-11502438D01*
X12785714Y-11502438D02*
X12833333Y-11550057D01*
X13404762Y-11883390D02*
X13309524Y-11835771D01*
X13309524Y-11835771D02*
X13261905Y-11788152D01*
X13261905Y-11788152D02*
X13214286Y-11692914D01*
X13214286Y-11692914D02*
X13214286Y-11645295D01*
X13214286Y-11645295D02*
X13261905Y-11550057D01*
X13261905Y-11550057D02*
X13309524Y-11502438D01*
X13309524Y-11502438D02*
X13404762Y-11454819D01*
X13404762Y-11454819D02*
X13595238Y-11454819D01*
X13595238Y-11454819D02*
X13690476Y-11502438D01*
X13690476Y-11502438D02*
X13738095Y-11550057D01*
X13738095Y-11550057D02*
X13785714Y-11645295D01*
X13785714Y-11645295D02*
X13785714Y-11692914D01*
X13785714Y-11692914D02*
X13738095Y-11788152D01*
X13738095Y-11788152D02*
X13690476Y-11835771D01*
X13690476Y-11835771D02*
X13595238Y-11883390D01*
X13595238Y-11883390D02*
X13404762Y-11883390D01*
X13404762Y-11883390D02*
X13309524Y-11931009D01*
X13309524Y-11931009D02*
X13261905Y-11978628D01*
X13261905Y-11978628D02*
X13214286Y-12073866D01*
X13214286Y-12073866D02*
X13214286Y-12264342D01*
X13214286Y-12264342D02*
X13261905Y-12359580D01*
X13261905Y-12359580D02*
X13309524Y-12407200D01*
X13309524Y-12407200D02*
X13404762Y-12454819D01*
X13404762Y-12454819D02*
X13595238Y-12454819D01*
X13595238Y-12454819D02*
X13690476Y-12407200D01*
X13690476Y-12407200D02*
X13738095Y-12359580D01*
X13738095Y-12359580D02*
X13785714Y-12264342D01*
X13785714Y-12264342D02*
X13785714Y-12073866D01*
X13785714Y-12073866D02*
X13738095Y-11978628D01*
X13738095Y-11978628D02*
X13690476Y-11931009D01*
X13690476Y-11931009D02*
X13595238Y-11883390D01*
X55833333Y-14104819D02*
X55357143Y-14104819D01*
X55357143Y-14104819D02*
X55357143Y-13104819D01*
X56119048Y-13200057D02*
X56166667Y-13152438D01*
X56166667Y-13152438D02*
X56261905Y-13104819D01*
X56261905Y-13104819D02*
X56500000Y-13104819D01*
X56500000Y-13104819D02*
X56595238Y-13152438D01*
X56595238Y-13152438D02*
X56642857Y-13200057D01*
X56642857Y-13200057D02*
X56690476Y-13295295D01*
X56690476Y-13295295D02*
X56690476Y-13390533D01*
X56690476Y-13390533D02*
X56642857Y-13533390D01*
X56642857Y-13533390D02*
X56071429Y-14104819D01*
X56071429Y-14104819D02*
X56690476Y-14104819D01*
X88357142Y-65679580D02*
X88309523Y-65727200D01*
X88309523Y-65727200D02*
X88166666Y-65774819D01*
X88166666Y-65774819D02*
X88071428Y-65774819D01*
X88071428Y-65774819D02*
X87928571Y-65727200D01*
X87928571Y-65727200D02*
X87833333Y-65631961D01*
X87833333Y-65631961D02*
X87785714Y-65536723D01*
X87785714Y-65536723D02*
X87738095Y-65346247D01*
X87738095Y-65346247D02*
X87738095Y-65203390D01*
X87738095Y-65203390D02*
X87785714Y-65012914D01*
X87785714Y-65012914D02*
X87833333Y-64917676D01*
X87833333Y-64917676D02*
X87928571Y-64822438D01*
X87928571Y-64822438D02*
X88071428Y-64774819D01*
X88071428Y-64774819D02*
X88166666Y-64774819D01*
X88166666Y-64774819D02*
X88309523Y-64822438D01*
X88309523Y-64822438D02*
X88357142Y-64870057D01*
X88690476Y-64774819D02*
X89309523Y-64774819D01*
X89309523Y-64774819D02*
X88976190Y-65155771D01*
X88976190Y-65155771D02*
X89119047Y-65155771D01*
X89119047Y-65155771D02*
X89214285Y-65203390D01*
X89214285Y-65203390D02*
X89261904Y-65251009D01*
X89261904Y-65251009D02*
X89309523Y-65346247D01*
X89309523Y-65346247D02*
X89309523Y-65584342D01*
X89309523Y-65584342D02*
X89261904Y-65679580D01*
X89261904Y-65679580D02*
X89214285Y-65727200D01*
X89214285Y-65727200D02*
X89119047Y-65774819D01*
X89119047Y-65774819D02*
X88833333Y-65774819D01*
X88833333Y-65774819D02*
X88738095Y-65727200D01*
X88738095Y-65727200D02*
X88690476Y-65679580D01*
X89642857Y-64774819D02*
X90261904Y-64774819D01*
X90261904Y-64774819D02*
X89928571Y-65155771D01*
X89928571Y-65155771D02*
X90071428Y-65155771D01*
X90071428Y-65155771D02*
X90166666Y-65203390D01*
X90166666Y-65203390D02*
X90214285Y-65251009D01*
X90214285Y-65251009D02*
X90261904Y-65346247D01*
X90261904Y-65346247D02*
X90261904Y-65584342D01*
X90261904Y-65584342D02*
X90214285Y-65679580D01*
X90214285Y-65679580D02*
X90166666Y-65727200D01*
X90166666Y-65727200D02*
X90071428Y-65774819D01*
X90071428Y-65774819D02*
X89785714Y-65774819D01*
X89785714Y-65774819D02*
X89690476Y-65727200D01*
X89690476Y-65727200D02*
X89642857Y-65679580D01*
X14666666Y-66980819D02*
X14666666Y-67695104D01*
X14666666Y-67695104D02*
X14619047Y-67837961D01*
X14619047Y-67837961D02*
X14523809Y-67933200D01*
X14523809Y-67933200D02*
X14380952Y-67980819D01*
X14380952Y-67980819D02*
X14285714Y-67980819D01*
X15666666Y-67980819D02*
X15095238Y-67980819D01*
X15380952Y-67980819D02*
X15380952Y-66980819D01*
X15380952Y-66980819D02*
X15285714Y-67123676D01*
X15285714Y-67123676D02*
X15190476Y-67218914D01*
X15190476Y-67218914D02*
X15095238Y-67266533D01*
X86359580Y-48642857D02*
X86407200Y-48690476D01*
X86407200Y-48690476D02*
X86454819Y-48833333D01*
X86454819Y-48833333D02*
X86454819Y-48928571D01*
X86454819Y-48928571D02*
X86407200Y-49071428D01*
X86407200Y-49071428D02*
X86311961Y-49166666D01*
X86311961Y-49166666D02*
X86216723Y-49214285D01*
X86216723Y-49214285D02*
X86026247Y-49261904D01*
X86026247Y-49261904D02*
X85883390Y-49261904D01*
X85883390Y-49261904D02*
X85692914Y-49214285D01*
X85692914Y-49214285D02*
X85597676Y-49166666D01*
X85597676Y-49166666D02*
X85502438Y-49071428D01*
X85502438Y-49071428D02*
X85454819Y-48928571D01*
X85454819Y-48928571D02*
X85454819Y-48833333D01*
X85454819Y-48833333D02*
X85502438Y-48690476D01*
X85502438Y-48690476D02*
X85550057Y-48642857D01*
X85550057Y-48261904D02*
X85502438Y-48214285D01*
X85502438Y-48214285D02*
X85454819Y-48119047D01*
X85454819Y-48119047D02*
X85454819Y-47880952D01*
X85454819Y-47880952D02*
X85502438Y-47785714D01*
X85502438Y-47785714D02*
X85550057Y-47738095D01*
X85550057Y-47738095D02*
X85645295Y-47690476D01*
X85645295Y-47690476D02*
X85740533Y-47690476D01*
X85740533Y-47690476D02*
X85883390Y-47738095D01*
X85883390Y-47738095D02*
X86454819Y-48309523D01*
X86454819Y-48309523D02*
X86454819Y-47690476D01*
X86454819Y-47214285D02*
X86454819Y-47023809D01*
X86454819Y-47023809D02*
X86407200Y-46928571D01*
X86407200Y-46928571D02*
X86359580Y-46880952D01*
X86359580Y-46880952D02*
X86216723Y-46785714D01*
X86216723Y-46785714D02*
X86026247Y-46738095D01*
X86026247Y-46738095D02*
X85645295Y-46738095D01*
X85645295Y-46738095D02*
X85550057Y-46785714D01*
X85550057Y-46785714D02*
X85502438Y-46833333D01*
X85502438Y-46833333D02*
X85454819Y-46928571D01*
X85454819Y-46928571D02*
X85454819Y-47119047D01*
X85454819Y-47119047D02*
X85502438Y-47214285D01*
X85502438Y-47214285D02*
X85550057Y-47261904D01*
X85550057Y-47261904D02*
X85645295Y-47309523D01*
X85645295Y-47309523D02*
X85883390Y-47309523D01*
X85883390Y-47309523D02*
X85978628Y-47261904D01*
X85978628Y-47261904D02*
X86026247Y-47214285D01*
X86026247Y-47214285D02*
X86073866Y-47119047D01*
X86073866Y-47119047D02*
X86073866Y-46928571D01*
X86073866Y-46928571D02*
X86026247Y-46833333D01*
X86026247Y-46833333D02*
X85978628Y-46785714D01*
X85978628Y-46785714D02*
X85883390Y-46738095D01*
X68357142Y-34024819D02*
X68023809Y-33548628D01*
X67785714Y-34024819D02*
X67785714Y-33024819D01*
X67785714Y-33024819D02*
X68166666Y-33024819D01*
X68166666Y-33024819D02*
X68261904Y-33072438D01*
X68261904Y-33072438D02*
X68309523Y-33120057D01*
X68309523Y-33120057D02*
X68357142Y-33215295D01*
X68357142Y-33215295D02*
X68357142Y-33358152D01*
X68357142Y-33358152D02*
X68309523Y-33453390D01*
X68309523Y-33453390D02*
X68261904Y-33501009D01*
X68261904Y-33501009D02*
X68166666Y-33548628D01*
X68166666Y-33548628D02*
X67785714Y-33548628D01*
X69309523Y-34024819D02*
X68738095Y-34024819D01*
X69023809Y-34024819D02*
X69023809Y-33024819D01*
X69023809Y-33024819D02*
X68928571Y-33167676D01*
X68928571Y-33167676D02*
X68833333Y-33262914D01*
X68833333Y-33262914D02*
X68738095Y-33310533D01*
X70214285Y-33024819D02*
X69738095Y-33024819D01*
X69738095Y-33024819D02*
X69690476Y-33501009D01*
X69690476Y-33501009D02*
X69738095Y-33453390D01*
X69738095Y-33453390D02*
X69833333Y-33405771D01*
X69833333Y-33405771D02*
X70071428Y-33405771D01*
X70071428Y-33405771D02*
X70166666Y-33453390D01*
X70166666Y-33453390D02*
X70214285Y-33501009D01*
X70214285Y-33501009D02*
X70261904Y-33596247D01*
X70261904Y-33596247D02*
X70261904Y-33834342D01*
X70261904Y-33834342D02*
X70214285Y-33929580D01*
X70214285Y-33929580D02*
X70166666Y-33977200D01*
X70166666Y-33977200D02*
X70071428Y-34024819D01*
X70071428Y-34024819D02*
X69833333Y-34024819D01*
X69833333Y-34024819D02*
X69738095Y-33977200D01*
X69738095Y-33977200D02*
X69690476Y-33929580D01*
X46954819Y-62738094D02*
X45954819Y-62738094D01*
X45954819Y-62738094D02*
X45954819Y-62499999D01*
X45954819Y-62499999D02*
X46002438Y-62357142D01*
X46002438Y-62357142D02*
X46097676Y-62261904D01*
X46097676Y-62261904D02*
X46192914Y-62214285D01*
X46192914Y-62214285D02*
X46383390Y-62166666D01*
X46383390Y-62166666D02*
X46526247Y-62166666D01*
X46526247Y-62166666D02*
X46716723Y-62214285D01*
X46716723Y-62214285D02*
X46811961Y-62261904D01*
X46811961Y-62261904D02*
X46907200Y-62357142D01*
X46907200Y-62357142D02*
X46954819Y-62499999D01*
X46954819Y-62499999D02*
X46954819Y-62738094D01*
X45954819Y-61833332D02*
X45954819Y-61214285D01*
X45954819Y-61214285D02*
X46335771Y-61547618D01*
X46335771Y-61547618D02*
X46335771Y-61404761D01*
X46335771Y-61404761D02*
X46383390Y-61309523D01*
X46383390Y-61309523D02*
X46431009Y-61261904D01*
X46431009Y-61261904D02*
X46526247Y-61214285D01*
X46526247Y-61214285D02*
X46764342Y-61214285D01*
X46764342Y-61214285D02*
X46859580Y-61261904D01*
X46859580Y-61261904D02*
X46907200Y-61309523D01*
X46907200Y-61309523D02*
X46954819Y-61404761D01*
X46954819Y-61404761D02*
X46954819Y-61690475D01*
X46954819Y-61690475D02*
X46907200Y-61785713D01*
X46907200Y-61785713D02*
X46859580Y-61833332D01*
X73238095Y-13727819D02*
X73238095Y-14537342D01*
X73238095Y-14537342D02*
X73285714Y-14632580D01*
X73285714Y-14632580D02*
X73333333Y-14680200D01*
X73333333Y-14680200D02*
X73428571Y-14727819D01*
X73428571Y-14727819D02*
X73619047Y-14727819D01*
X73619047Y-14727819D02*
X73714285Y-14680200D01*
X73714285Y-14680200D02*
X73761904Y-14632580D01*
X73761904Y-14632580D02*
X73809523Y-14537342D01*
X73809523Y-14537342D02*
X73809523Y-13727819D01*
X74238095Y-13823057D02*
X74285714Y-13775438D01*
X74285714Y-13775438D02*
X74380952Y-13727819D01*
X74380952Y-13727819D02*
X74619047Y-13727819D01*
X74619047Y-13727819D02*
X74714285Y-13775438D01*
X74714285Y-13775438D02*
X74761904Y-13823057D01*
X74761904Y-13823057D02*
X74809523Y-13918295D01*
X74809523Y-13918295D02*
X74809523Y-14013533D01*
X74809523Y-14013533D02*
X74761904Y-14156390D01*
X74761904Y-14156390D02*
X74190476Y-14727819D01*
X74190476Y-14727819D02*
X74809523Y-14727819D01*
X56454819Y-60966666D02*
X56454819Y-61442856D01*
X56454819Y-61442856D02*
X55454819Y-61442856D01*
X55788152Y-60204761D02*
X56454819Y-60204761D01*
X55407200Y-60442856D02*
X56121485Y-60680951D01*
X56121485Y-60680951D02*
X56121485Y-60061904D01*
X13333333Y-8954819D02*
X13000000Y-8478628D01*
X12761905Y-8954819D02*
X12761905Y-7954819D01*
X12761905Y-7954819D02*
X13142857Y-7954819D01*
X13142857Y-7954819D02*
X13238095Y-8002438D01*
X13238095Y-8002438D02*
X13285714Y-8050057D01*
X13285714Y-8050057D02*
X13333333Y-8145295D01*
X13333333Y-8145295D02*
X13333333Y-8288152D01*
X13333333Y-8288152D02*
X13285714Y-8383390D01*
X13285714Y-8383390D02*
X13238095Y-8431009D01*
X13238095Y-8431009D02*
X13142857Y-8478628D01*
X13142857Y-8478628D02*
X12761905Y-8478628D01*
X13666667Y-7954819D02*
X14333333Y-7954819D01*
X14333333Y-7954819D02*
X13904762Y-8954819D01*
X73357142Y-25954819D02*
X73023809Y-25478628D01*
X72785714Y-25954819D02*
X72785714Y-24954819D01*
X72785714Y-24954819D02*
X73166666Y-24954819D01*
X73166666Y-24954819D02*
X73261904Y-25002438D01*
X73261904Y-25002438D02*
X73309523Y-25050057D01*
X73309523Y-25050057D02*
X73357142Y-25145295D01*
X73357142Y-25145295D02*
X73357142Y-25288152D01*
X73357142Y-25288152D02*
X73309523Y-25383390D01*
X73309523Y-25383390D02*
X73261904Y-25431009D01*
X73261904Y-25431009D02*
X73166666Y-25478628D01*
X73166666Y-25478628D02*
X72785714Y-25478628D01*
X74309523Y-25954819D02*
X73738095Y-25954819D01*
X74023809Y-25954819D02*
X74023809Y-24954819D01*
X74023809Y-24954819D02*
X73928571Y-25097676D01*
X73928571Y-25097676D02*
X73833333Y-25192914D01*
X73833333Y-25192914D02*
X73738095Y-25240533D01*
X75261904Y-25954819D02*
X74690476Y-25954819D01*
X74976190Y-25954819D02*
X74976190Y-24954819D01*
X74976190Y-24954819D02*
X74880952Y-25097676D01*
X74880952Y-25097676D02*
X74785714Y-25192914D01*
X74785714Y-25192914D02*
X74690476Y-25240533D01*
X54804819Y-72833333D02*
X55519104Y-72833333D01*
X55519104Y-72833333D02*
X55661961Y-72880952D01*
X55661961Y-72880952D02*
X55757200Y-72976190D01*
X55757200Y-72976190D02*
X55804819Y-73119047D01*
X55804819Y-73119047D02*
X55804819Y-73214285D01*
X54900057Y-72404761D02*
X54852438Y-72357142D01*
X54852438Y-72357142D02*
X54804819Y-72261904D01*
X54804819Y-72261904D02*
X54804819Y-72023809D01*
X54804819Y-72023809D02*
X54852438Y-71928571D01*
X54852438Y-71928571D02*
X54900057Y-71880952D01*
X54900057Y-71880952D02*
X54995295Y-71833333D01*
X54995295Y-71833333D02*
X55090533Y-71833333D01*
X55090533Y-71833333D02*
X55233390Y-71880952D01*
X55233390Y-71880952D02*
X55804819Y-72452380D01*
X55804819Y-72452380D02*
X55804819Y-71833333D01*
X26261905Y-41954819D02*
X26261905Y-40954819D01*
X26261905Y-40954819D02*
X26500000Y-40954819D01*
X26500000Y-40954819D02*
X26642857Y-41002438D01*
X26642857Y-41002438D02*
X26738095Y-41097676D01*
X26738095Y-41097676D02*
X26785714Y-41192914D01*
X26785714Y-41192914D02*
X26833333Y-41383390D01*
X26833333Y-41383390D02*
X26833333Y-41526247D01*
X26833333Y-41526247D02*
X26785714Y-41716723D01*
X26785714Y-41716723D02*
X26738095Y-41811961D01*
X26738095Y-41811961D02*
X26642857Y-41907200D01*
X26642857Y-41907200D02*
X26500000Y-41954819D01*
X26500000Y-41954819D02*
X26261905Y-41954819D01*
X27785714Y-41954819D02*
X27214286Y-41954819D01*
X27500000Y-41954819D02*
X27500000Y-40954819D01*
X27500000Y-40954819D02*
X27404762Y-41097676D01*
X27404762Y-41097676D02*
X27309524Y-41192914D01*
X27309524Y-41192914D02*
X27214286Y-41240533D01*
X9954819Y-50833333D02*
X10669104Y-50833333D01*
X10669104Y-50833333D02*
X10811961Y-50880952D01*
X10811961Y-50880952D02*
X10907200Y-50976190D01*
X10907200Y-50976190D02*
X10954819Y-51119047D01*
X10954819Y-51119047D02*
X10954819Y-51214285D01*
X9954819Y-49928571D02*
X9954819Y-50119047D01*
X9954819Y-50119047D02*
X10002438Y-50214285D01*
X10002438Y-50214285D02*
X10050057Y-50261904D01*
X10050057Y-50261904D02*
X10192914Y-50357142D01*
X10192914Y-50357142D02*
X10383390Y-50404761D01*
X10383390Y-50404761D02*
X10764342Y-50404761D01*
X10764342Y-50404761D02*
X10859580Y-50357142D01*
X10859580Y-50357142D02*
X10907200Y-50309523D01*
X10907200Y-50309523D02*
X10954819Y-50214285D01*
X10954819Y-50214285D02*
X10954819Y-50023809D01*
X10954819Y-50023809D02*
X10907200Y-49928571D01*
X10907200Y-49928571D02*
X10859580Y-49880952D01*
X10859580Y-49880952D02*
X10764342Y-49833333D01*
X10764342Y-49833333D02*
X10526247Y-49833333D01*
X10526247Y-49833333D02*
X10431009Y-49880952D01*
X10431009Y-49880952D02*
X10383390Y-49928571D01*
X10383390Y-49928571D02*
X10335771Y-50023809D01*
X10335771Y-50023809D02*
X10335771Y-50214285D01*
X10335771Y-50214285D02*
X10383390Y-50309523D01*
X10383390Y-50309523D02*
X10431009Y-50357142D01*
X10431009Y-50357142D02*
X10526247Y-50404761D01*
X10428571Y-29357200D02*
X10571428Y-29404819D01*
X10571428Y-29404819D02*
X10809523Y-29404819D01*
X10809523Y-29404819D02*
X10904761Y-29357200D01*
X10904761Y-29357200D02*
X10952380Y-29309580D01*
X10952380Y-29309580D02*
X10999999Y-29214342D01*
X10999999Y-29214342D02*
X10999999Y-29119104D01*
X10999999Y-29119104D02*
X10952380Y-29023866D01*
X10952380Y-29023866D02*
X10904761Y-28976247D01*
X10904761Y-28976247D02*
X10809523Y-28928628D01*
X10809523Y-28928628D02*
X10619047Y-28881009D01*
X10619047Y-28881009D02*
X10523809Y-28833390D01*
X10523809Y-28833390D02*
X10476190Y-28785771D01*
X10476190Y-28785771D02*
X10428571Y-28690533D01*
X10428571Y-28690533D02*
X10428571Y-28595295D01*
X10428571Y-28595295D02*
X10476190Y-28500057D01*
X10476190Y-28500057D02*
X10523809Y-28452438D01*
X10523809Y-28452438D02*
X10619047Y-28404819D01*
X10619047Y-28404819D02*
X10857142Y-28404819D01*
X10857142Y-28404819D02*
X10999999Y-28452438D01*
X11333333Y-28404819D02*
X11571428Y-29404819D01*
X11571428Y-29404819D02*
X11761904Y-28690533D01*
X11761904Y-28690533D02*
X11952380Y-29404819D01*
X11952380Y-29404819D02*
X12190476Y-28404819D01*
X12333333Y-29500057D02*
X13095237Y-29500057D01*
X13904761Y-29404819D02*
X13571428Y-28928628D01*
X13333333Y-29404819D02*
X13333333Y-28404819D01*
X13333333Y-28404819D02*
X13714285Y-28404819D01*
X13714285Y-28404819D02*
X13809523Y-28452438D01*
X13809523Y-28452438D02*
X13857142Y-28500057D01*
X13857142Y-28500057D02*
X13904761Y-28595295D01*
X13904761Y-28595295D02*
X13904761Y-28738152D01*
X13904761Y-28738152D02*
X13857142Y-28833390D01*
X13857142Y-28833390D02*
X13809523Y-28881009D01*
X13809523Y-28881009D02*
X13714285Y-28928628D01*
X13714285Y-28928628D02*
X13333333Y-28928628D01*
X14285714Y-29357200D02*
X14428571Y-29404819D01*
X14428571Y-29404819D02*
X14666666Y-29404819D01*
X14666666Y-29404819D02*
X14761904Y-29357200D01*
X14761904Y-29357200D02*
X14809523Y-29309580D01*
X14809523Y-29309580D02*
X14857142Y-29214342D01*
X14857142Y-29214342D02*
X14857142Y-29119104D01*
X14857142Y-29119104D02*
X14809523Y-29023866D01*
X14809523Y-29023866D02*
X14761904Y-28976247D01*
X14761904Y-28976247D02*
X14666666Y-28928628D01*
X14666666Y-28928628D02*
X14476190Y-28881009D01*
X14476190Y-28881009D02*
X14380952Y-28833390D01*
X14380952Y-28833390D02*
X14333333Y-28785771D01*
X14333333Y-28785771D02*
X14285714Y-28690533D01*
X14285714Y-28690533D02*
X14285714Y-28595295D01*
X14285714Y-28595295D02*
X14333333Y-28500057D01*
X14333333Y-28500057D02*
X14380952Y-28452438D01*
X14380952Y-28452438D02*
X14476190Y-28404819D01*
X14476190Y-28404819D02*
X14714285Y-28404819D01*
X14714285Y-28404819D02*
X14857142Y-28452438D01*
X15142857Y-28404819D02*
X15714285Y-28404819D01*
X15428571Y-29404819D02*
X15428571Y-28404819D01*
X16571428Y-29404819D02*
X16000000Y-29404819D01*
X16285714Y-29404819D02*
X16285714Y-28404819D01*
X16285714Y-28404819D02*
X16190476Y-28547676D01*
X16190476Y-28547676D02*
X16095238Y-28642914D01*
X16095238Y-28642914D02*
X16000000Y-28690533D01*
X17333333Y-56679580D02*
X17285714Y-56727200D01*
X17285714Y-56727200D02*
X17142857Y-56774819D01*
X17142857Y-56774819D02*
X17047619Y-56774819D01*
X17047619Y-56774819D02*
X16904762Y-56727200D01*
X16904762Y-56727200D02*
X16809524Y-56631961D01*
X16809524Y-56631961D02*
X16761905Y-56536723D01*
X16761905Y-56536723D02*
X16714286Y-56346247D01*
X16714286Y-56346247D02*
X16714286Y-56203390D01*
X16714286Y-56203390D02*
X16761905Y-56012914D01*
X16761905Y-56012914D02*
X16809524Y-55917676D01*
X16809524Y-55917676D02*
X16904762Y-55822438D01*
X16904762Y-55822438D02*
X17047619Y-55774819D01*
X17047619Y-55774819D02*
X17142857Y-55774819D01*
X17142857Y-55774819D02*
X17285714Y-55822438D01*
X17285714Y-55822438D02*
X17333333Y-55870057D01*
X18285714Y-56774819D02*
X17714286Y-56774819D01*
X18000000Y-56774819D02*
X18000000Y-55774819D01*
X18000000Y-55774819D02*
X17904762Y-55917676D01*
X17904762Y-55917676D02*
X17809524Y-56012914D01*
X17809524Y-56012914D02*
X17714286Y-56060533D01*
X85359580Y-20642857D02*
X85407200Y-20690476D01*
X85407200Y-20690476D02*
X85454819Y-20833333D01*
X85454819Y-20833333D02*
X85454819Y-20928571D01*
X85454819Y-20928571D02*
X85407200Y-21071428D01*
X85407200Y-21071428D02*
X85311961Y-21166666D01*
X85311961Y-21166666D02*
X85216723Y-21214285D01*
X85216723Y-21214285D02*
X85026247Y-21261904D01*
X85026247Y-21261904D02*
X84883390Y-21261904D01*
X84883390Y-21261904D02*
X84692914Y-21214285D01*
X84692914Y-21214285D02*
X84597676Y-21166666D01*
X84597676Y-21166666D02*
X84502438Y-21071428D01*
X84502438Y-21071428D02*
X84454819Y-20928571D01*
X84454819Y-20928571D02*
X84454819Y-20833333D01*
X84454819Y-20833333D02*
X84502438Y-20690476D01*
X84502438Y-20690476D02*
X84550057Y-20642857D01*
X85454819Y-19690476D02*
X85454819Y-20261904D01*
X85454819Y-19976190D02*
X84454819Y-19976190D01*
X84454819Y-19976190D02*
X84597676Y-20071428D01*
X84597676Y-20071428D02*
X84692914Y-20166666D01*
X84692914Y-20166666D02*
X84740533Y-20261904D01*
X84454819Y-19357142D02*
X84454819Y-18690476D01*
X84454819Y-18690476D02*
X85454819Y-19119047D01*
X79833333Y-27024819D02*
X79500000Y-26548628D01*
X79261905Y-27024819D02*
X79261905Y-26024819D01*
X79261905Y-26024819D02*
X79642857Y-26024819D01*
X79642857Y-26024819D02*
X79738095Y-26072438D01*
X79738095Y-26072438D02*
X79785714Y-26120057D01*
X79785714Y-26120057D02*
X79833333Y-26215295D01*
X79833333Y-26215295D02*
X79833333Y-26358152D01*
X79833333Y-26358152D02*
X79785714Y-26453390D01*
X79785714Y-26453390D02*
X79738095Y-26501009D01*
X79738095Y-26501009D02*
X79642857Y-26548628D01*
X79642857Y-26548628D02*
X79261905Y-26548628D01*
X80309524Y-27024819D02*
X80500000Y-27024819D01*
X80500000Y-27024819D02*
X80595238Y-26977200D01*
X80595238Y-26977200D02*
X80642857Y-26929580D01*
X80642857Y-26929580D02*
X80738095Y-26786723D01*
X80738095Y-26786723D02*
X80785714Y-26596247D01*
X80785714Y-26596247D02*
X80785714Y-26215295D01*
X80785714Y-26215295D02*
X80738095Y-26120057D01*
X80738095Y-26120057D02*
X80690476Y-26072438D01*
X80690476Y-26072438D02*
X80595238Y-26024819D01*
X80595238Y-26024819D02*
X80404762Y-26024819D01*
X80404762Y-26024819D02*
X80309524Y-26072438D01*
X80309524Y-26072438D02*
X80261905Y-26120057D01*
X80261905Y-26120057D02*
X80214286Y-26215295D01*
X80214286Y-26215295D02*
X80214286Y-26453390D01*
X80214286Y-26453390D02*
X80261905Y-26548628D01*
X80261905Y-26548628D02*
X80309524Y-26596247D01*
X80309524Y-26596247D02*
X80404762Y-26643866D01*
X80404762Y-26643866D02*
X80595238Y-26643866D01*
X80595238Y-26643866D02*
X80690476Y-26596247D01*
X80690476Y-26596247D02*
X80738095Y-26548628D01*
X80738095Y-26548628D02*
X80785714Y-26453390D01*
X76929580Y-40417857D02*
X76977200Y-40465476D01*
X76977200Y-40465476D02*
X77024819Y-40608333D01*
X77024819Y-40608333D02*
X77024819Y-40703571D01*
X77024819Y-40703571D02*
X76977200Y-40846428D01*
X76977200Y-40846428D02*
X76881961Y-40941666D01*
X76881961Y-40941666D02*
X76786723Y-40989285D01*
X76786723Y-40989285D02*
X76596247Y-41036904D01*
X76596247Y-41036904D02*
X76453390Y-41036904D01*
X76453390Y-41036904D02*
X76262914Y-40989285D01*
X76262914Y-40989285D02*
X76167676Y-40941666D01*
X76167676Y-40941666D02*
X76072438Y-40846428D01*
X76072438Y-40846428D02*
X76024819Y-40703571D01*
X76024819Y-40703571D02*
X76024819Y-40608333D01*
X76024819Y-40608333D02*
X76072438Y-40465476D01*
X76072438Y-40465476D02*
X76120057Y-40417857D01*
X76120057Y-40036904D02*
X76072438Y-39989285D01*
X76072438Y-39989285D02*
X76024819Y-39894047D01*
X76024819Y-39894047D02*
X76024819Y-39655952D01*
X76024819Y-39655952D02*
X76072438Y-39560714D01*
X76072438Y-39560714D02*
X76120057Y-39513095D01*
X76120057Y-39513095D02*
X76215295Y-39465476D01*
X76215295Y-39465476D02*
X76310533Y-39465476D01*
X76310533Y-39465476D02*
X76453390Y-39513095D01*
X76453390Y-39513095D02*
X77024819Y-40084523D01*
X77024819Y-40084523D02*
X77024819Y-39465476D01*
X77024819Y-38513095D02*
X77024819Y-39084523D01*
X77024819Y-38798809D02*
X76024819Y-38798809D01*
X76024819Y-38798809D02*
X76167676Y-38894047D01*
X76167676Y-38894047D02*
X76262914Y-38989285D01*
X76262914Y-38989285D02*
X76310533Y-39084523D01*
X24238095Y-54546819D02*
X24238095Y-55356342D01*
X24238095Y-55356342D02*
X24285714Y-55451580D01*
X24285714Y-55451580D02*
X24333333Y-55499200D01*
X24333333Y-55499200D02*
X24428571Y-55546819D01*
X24428571Y-55546819D02*
X24619047Y-55546819D01*
X24619047Y-55546819D02*
X24714285Y-55499200D01*
X24714285Y-55499200D02*
X24761904Y-55451580D01*
X24761904Y-55451580D02*
X24809523Y-55356342D01*
X24809523Y-55356342D02*
X24809523Y-54546819D01*
X25190476Y-54546819D02*
X25809523Y-54546819D01*
X25809523Y-54546819D02*
X25476190Y-54927771D01*
X25476190Y-54927771D02*
X25619047Y-54927771D01*
X25619047Y-54927771D02*
X25714285Y-54975390D01*
X25714285Y-54975390D02*
X25761904Y-55023009D01*
X25761904Y-55023009D02*
X25809523Y-55118247D01*
X25809523Y-55118247D02*
X25809523Y-55356342D01*
X25809523Y-55356342D02*
X25761904Y-55451580D01*
X25761904Y-55451580D02*
X25714285Y-55499200D01*
X25714285Y-55499200D02*
X25619047Y-55546819D01*
X25619047Y-55546819D02*
X25333333Y-55546819D01*
X25333333Y-55546819D02*
X25238095Y-55499200D01*
X25238095Y-55499200D02*
X25190476Y-55451580D01*
X86454819Y-60966666D02*
X86454819Y-61442856D01*
X86454819Y-61442856D02*
X85454819Y-61442856D01*
X85454819Y-60157142D02*
X85454819Y-60633332D01*
X85454819Y-60633332D02*
X85931009Y-60680951D01*
X85931009Y-60680951D02*
X85883390Y-60633332D01*
X85883390Y-60633332D02*
X85835771Y-60538094D01*
X85835771Y-60538094D02*
X85835771Y-60299999D01*
X85835771Y-60299999D02*
X85883390Y-60204761D01*
X85883390Y-60204761D02*
X85931009Y-60157142D01*
X85931009Y-60157142D02*
X86026247Y-60109523D01*
X86026247Y-60109523D02*
X86264342Y-60109523D01*
X86264342Y-60109523D02*
X86359580Y-60157142D01*
X86359580Y-60157142D02*
X86407200Y-60204761D01*
X86407200Y-60204761D02*
X86454819Y-60299999D01*
X86454819Y-60299999D02*
X86454819Y-60538094D01*
X86454819Y-60538094D02*
X86407200Y-60633332D01*
X86407200Y-60633332D02*
X86359580Y-60680951D01*
X72666666Y-67134819D02*
X72666666Y-67849104D01*
X72666666Y-67849104D02*
X72619047Y-67991961D01*
X72619047Y-67991961D02*
X72523809Y-68087200D01*
X72523809Y-68087200D02*
X72380952Y-68134819D01*
X72380952Y-68134819D02*
X72285714Y-68134819D01*
X73571428Y-67468152D02*
X73571428Y-68134819D01*
X73333333Y-67087200D02*
X73095238Y-67801485D01*
X73095238Y-67801485D02*
X73714285Y-67801485D01*
X63357142Y-30024819D02*
X63023809Y-29548628D01*
X62785714Y-30024819D02*
X62785714Y-29024819D01*
X62785714Y-29024819D02*
X63166666Y-29024819D01*
X63166666Y-29024819D02*
X63261904Y-29072438D01*
X63261904Y-29072438D02*
X63309523Y-29120057D01*
X63309523Y-29120057D02*
X63357142Y-29215295D01*
X63357142Y-29215295D02*
X63357142Y-29358152D01*
X63357142Y-29358152D02*
X63309523Y-29453390D01*
X63309523Y-29453390D02*
X63261904Y-29501009D01*
X63261904Y-29501009D02*
X63166666Y-29548628D01*
X63166666Y-29548628D02*
X62785714Y-29548628D01*
X64309523Y-30024819D02*
X63738095Y-30024819D01*
X64023809Y-30024819D02*
X64023809Y-29024819D01*
X64023809Y-29024819D02*
X63928571Y-29167676D01*
X63928571Y-29167676D02*
X63833333Y-29262914D01*
X63833333Y-29262914D02*
X63738095Y-29310533D01*
X64642857Y-29024819D02*
X65261904Y-29024819D01*
X65261904Y-29024819D02*
X64928571Y-29405771D01*
X64928571Y-29405771D02*
X65071428Y-29405771D01*
X65071428Y-29405771D02*
X65166666Y-29453390D01*
X65166666Y-29453390D02*
X65214285Y-29501009D01*
X65214285Y-29501009D02*
X65261904Y-29596247D01*
X65261904Y-29596247D02*
X65261904Y-29834342D01*
X65261904Y-29834342D02*
X65214285Y-29929580D01*
X65214285Y-29929580D02*
X65166666Y-29977200D01*
X65166666Y-29977200D02*
X65071428Y-30024819D01*
X65071428Y-30024819D02*
X64785714Y-30024819D01*
X64785714Y-30024819D02*
X64690476Y-29977200D01*
X64690476Y-29977200D02*
X64642857Y-29929580D01*
X80857142Y-41359580D02*
X80809523Y-41407200D01*
X80809523Y-41407200D02*
X80666666Y-41454819D01*
X80666666Y-41454819D02*
X80571428Y-41454819D01*
X80571428Y-41454819D02*
X80428571Y-41407200D01*
X80428571Y-41407200D02*
X80333333Y-41311961D01*
X80333333Y-41311961D02*
X80285714Y-41216723D01*
X80285714Y-41216723D02*
X80238095Y-41026247D01*
X80238095Y-41026247D02*
X80238095Y-40883390D01*
X80238095Y-40883390D02*
X80285714Y-40692914D01*
X80285714Y-40692914D02*
X80333333Y-40597676D01*
X80333333Y-40597676D02*
X80428571Y-40502438D01*
X80428571Y-40502438D02*
X80571428Y-40454819D01*
X80571428Y-40454819D02*
X80666666Y-40454819D01*
X80666666Y-40454819D02*
X80809523Y-40502438D01*
X80809523Y-40502438D02*
X80857142Y-40550057D01*
X81238095Y-40550057D02*
X81285714Y-40502438D01*
X81285714Y-40502438D02*
X81380952Y-40454819D01*
X81380952Y-40454819D02*
X81619047Y-40454819D01*
X81619047Y-40454819D02*
X81714285Y-40502438D01*
X81714285Y-40502438D02*
X81761904Y-40550057D01*
X81761904Y-40550057D02*
X81809523Y-40645295D01*
X81809523Y-40645295D02*
X81809523Y-40740533D01*
X81809523Y-40740533D02*
X81761904Y-40883390D01*
X81761904Y-40883390D02*
X81190476Y-41454819D01*
X81190476Y-41454819D02*
X81809523Y-41454819D01*
X82428571Y-40454819D02*
X82523809Y-40454819D01*
X82523809Y-40454819D02*
X82619047Y-40502438D01*
X82619047Y-40502438D02*
X82666666Y-40550057D01*
X82666666Y-40550057D02*
X82714285Y-40645295D01*
X82714285Y-40645295D02*
X82761904Y-40835771D01*
X82761904Y-40835771D02*
X82761904Y-41073866D01*
X82761904Y-41073866D02*
X82714285Y-41264342D01*
X82714285Y-41264342D02*
X82666666Y-41359580D01*
X82666666Y-41359580D02*
X82619047Y-41407200D01*
X82619047Y-41407200D02*
X82523809Y-41454819D01*
X82523809Y-41454819D02*
X82428571Y-41454819D01*
X82428571Y-41454819D02*
X82333333Y-41407200D01*
X82333333Y-41407200D02*
X82285714Y-41359580D01*
X82285714Y-41359580D02*
X82238095Y-41264342D01*
X82238095Y-41264342D02*
X82190476Y-41073866D01*
X82190476Y-41073866D02*
X82190476Y-40835771D01*
X82190476Y-40835771D02*
X82238095Y-40645295D01*
X82238095Y-40645295D02*
X82285714Y-40550057D01*
X82285714Y-40550057D02*
X82333333Y-40502438D01*
X82333333Y-40502438D02*
X82428571Y-40454819D01*
X65357142Y-39454819D02*
X65023809Y-38978628D01*
X64785714Y-39454819D02*
X64785714Y-38454819D01*
X64785714Y-38454819D02*
X65166666Y-38454819D01*
X65166666Y-38454819D02*
X65261904Y-38502438D01*
X65261904Y-38502438D02*
X65309523Y-38550057D01*
X65309523Y-38550057D02*
X65357142Y-38645295D01*
X65357142Y-38645295D02*
X65357142Y-38788152D01*
X65357142Y-38788152D02*
X65309523Y-38883390D01*
X65309523Y-38883390D02*
X65261904Y-38931009D01*
X65261904Y-38931009D02*
X65166666Y-38978628D01*
X65166666Y-38978628D02*
X64785714Y-38978628D01*
X66309523Y-39454819D02*
X65738095Y-39454819D01*
X66023809Y-39454819D02*
X66023809Y-38454819D01*
X66023809Y-38454819D02*
X65928571Y-38597676D01*
X65928571Y-38597676D02*
X65833333Y-38692914D01*
X65833333Y-38692914D02*
X65738095Y-38740533D01*
X67166666Y-38788152D02*
X67166666Y-39454819D01*
X66928571Y-38407200D02*
X66690476Y-39121485D01*
X66690476Y-39121485D02*
X67309523Y-39121485D01*
X84859580Y-15142857D02*
X84907200Y-15190476D01*
X84907200Y-15190476D02*
X84954819Y-15333333D01*
X84954819Y-15333333D02*
X84954819Y-15428571D01*
X84954819Y-15428571D02*
X84907200Y-15571428D01*
X84907200Y-15571428D02*
X84811961Y-15666666D01*
X84811961Y-15666666D02*
X84716723Y-15714285D01*
X84716723Y-15714285D02*
X84526247Y-15761904D01*
X84526247Y-15761904D02*
X84383390Y-15761904D01*
X84383390Y-15761904D02*
X84192914Y-15714285D01*
X84192914Y-15714285D02*
X84097676Y-15666666D01*
X84097676Y-15666666D02*
X84002438Y-15571428D01*
X84002438Y-15571428D02*
X83954819Y-15428571D01*
X83954819Y-15428571D02*
X83954819Y-15333333D01*
X83954819Y-15333333D02*
X84002438Y-15190476D01*
X84002438Y-15190476D02*
X84050057Y-15142857D01*
X84954819Y-14190476D02*
X84954819Y-14761904D01*
X84954819Y-14476190D02*
X83954819Y-14476190D01*
X83954819Y-14476190D02*
X84097676Y-14571428D01*
X84097676Y-14571428D02*
X84192914Y-14666666D01*
X84192914Y-14666666D02*
X84240533Y-14761904D01*
X83954819Y-13333333D02*
X83954819Y-13523809D01*
X83954819Y-13523809D02*
X84002438Y-13619047D01*
X84002438Y-13619047D02*
X84050057Y-13666666D01*
X84050057Y-13666666D02*
X84192914Y-13761904D01*
X84192914Y-13761904D02*
X84383390Y-13809523D01*
X84383390Y-13809523D02*
X84764342Y-13809523D01*
X84764342Y-13809523D02*
X84859580Y-13761904D01*
X84859580Y-13761904D02*
X84907200Y-13714285D01*
X84907200Y-13714285D02*
X84954819Y-13619047D01*
X84954819Y-13619047D02*
X84954819Y-13428571D01*
X84954819Y-13428571D02*
X84907200Y-13333333D01*
X84907200Y-13333333D02*
X84859580Y-13285714D01*
X84859580Y-13285714D02*
X84764342Y-13238095D01*
X84764342Y-13238095D02*
X84526247Y-13238095D01*
X84526247Y-13238095D02*
X84431009Y-13285714D01*
X84431009Y-13285714D02*
X84383390Y-13333333D01*
X84383390Y-13333333D02*
X84335771Y-13428571D01*
X84335771Y-13428571D02*
X84335771Y-13619047D01*
X84335771Y-13619047D02*
X84383390Y-13714285D01*
X84383390Y-13714285D02*
X84431009Y-13761904D01*
X84431009Y-13761904D02*
X84526247Y-13809523D01*
X44679580Y-17666666D02*
X44727200Y-17714285D01*
X44727200Y-17714285D02*
X44774819Y-17857142D01*
X44774819Y-17857142D02*
X44774819Y-17952380D01*
X44774819Y-17952380D02*
X44727200Y-18095237D01*
X44727200Y-18095237D02*
X44631961Y-18190475D01*
X44631961Y-18190475D02*
X44536723Y-18238094D01*
X44536723Y-18238094D02*
X44346247Y-18285713D01*
X44346247Y-18285713D02*
X44203390Y-18285713D01*
X44203390Y-18285713D02*
X44012914Y-18238094D01*
X44012914Y-18238094D02*
X43917676Y-18190475D01*
X43917676Y-18190475D02*
X43822438Y-18095237D01*
X43822438Y-18095237D02*
X43774819Y-17952380D01*
X43774819Y-17952380D02*
X43774819Y-17857142D01*
X43774819Y-17857142D02*
X43822438Y-17714285D01*
X43822438Y-17714285D02*
X43870057Y-17666666D01*
X44774819Y-17190475D02*
X44774819Y-16999999D01*
X44774819Y-16999999D02*
X44727200Y-16904761D01*
X44727200Y-16904761D02*
X44679580Y-16857142D01*
X44679580Y-16857142D02*
X44536723Y-16761904D01*
X44536723Y-16761904D02*
X44346247Y-16714285D01*
X44346247Y-16714285D02*
X43965295Y-16714285D01*
X43965295Y-16714285D02*
X43870057Y-16761904D01*
X43870057Y-16761904D02*
X43822438Y-16809523D01*
X43822438Y-16809523D02*
X43774819Y-16904761D01*
X43774819Y-16904761D02*
X43774819Y-17095237D01*
X43774819Y-17095237D02*
X43822438Y-17190475D01*
X43822438Y-17190475D02*
X43870057Y-17238094D01*
X43870057Y-17238094D02*
X43965295Y-17285713D01*
X43965295Y-17285713D02*
X44203390Y-17285713D01*
X44203390Y-17285713D02*
X44298628Y-17238094D01*
X44298628Y-17238094D02*
X44346247Y-17190475D01*
X44346247Y-17190475D02*
X44393866Y-17095237D01*
X44393866Y-17095237D02*
X44393866Y-16904761D01*
X44393866Y-16904761D02*
X44346247Y-16809523D01*
X44346247Y-16809523D02*
X44298628Y-16761904D01*
X44298628Y-16761904D02*
X44203390Y-16714285D01*
X31238095Y-43154819D02*
X31238095Y-43964342D01*
X31238095Y-43964342D02*
X31285714Y-44059580D01*
X31285714Y-44059580D02*
X31333333Y-44107200D01*
X31333333Y-44107200D02*
X31428571Y-44154819D01*
X31428571Y-44154819D02*
X31619047Y-44154819D01*
X31619047Y-44154819D02*
X31714285Y-44107200D01*
X31714285Y-44107200D02*
X31761904Y-44059580D01*
X31761904Y-44059580D02*
X31809523Y-43964342D01*
X31809523Y-43964342D02*
X31809523Y-43154819D01*
X32190476Y-43154819D02*
X32857142Y-43154819D01*
X32857142Y-43154819D02*
X32428571Y-44154819D01*
X77357142Y-13709580D02*
X77309523Y-13757200D01*
X77309523Y-13757200D02*
X77166666Y-13804819D01*
X77166666Y-13804819D02*
X77071428Y-13804819D01*
X77071428Y-13804819D02*
X76928571Y-13757200D01*
X76928571Y-13757200D02*
X76833333Y-13661961D01*
X76833333Y-13661961D02*
X76785714Y-13566723D01*
X76785714Y-13566723D02*
X76738095Y-13376247D01*
X76738095Y-13376247D02*
X76738095Y-13233390D01*
X76738095Y-13233390D02*
X76785714Y-13042914D01*
X76785714Y-13042914D02*
X76833333Y-12947676D01*
X76833333Y-12947676D02*
X76928571Y-12852438D01*
X76928571Y-12852438D02*
X77071428Y-12804819D01*
X77071428Y-12804819D02*
X77166666Y-12804819D01*
X77166666Y-12804819D02*
X77309523Y-12852438D01*
X77309523Y-12852438D02*
X77357142Y-12900057D01*
X78309523Y-13804819D02*
X77738095Y-13804819D01*
X78023809Y-13804819D02*
X78023809Y-12804819D01*
X78023809Y-12804819D02*
X77928571Y-12947676D01*
X77928571Y-12947676D02*
X77833333Y-13042914D01*
X77833333Y-13042914D02*
X77738095Y-13090533D01*
X79214285Y-12804819D02*
X78738095Y-12804819D01*
X78738095Y-12804819D02*
X78690476Y-13281009D01*
X78690476Y-13281009D02*
X78738095Y-13233390D01*
X78738095Y-13233390D02*
X78833333Y-13185771D01*
X78833333Y-13185771D02*
X79071428Y-13185771D01*
X79071428Y-13185771D02*
X79166666Y-13233390D01*
X79166666Y-13233390D02*
X79214285Y-13281009D01*
X79214285Y-13281009D02*
X79261904Y-13376247D01*
X79261904Y-13376247D02*
X79261904Y-13614342D01*
X79261904Y-13614342D02*
X79214285Y-13709580D01*
X79214285Y-13709580D02*
X79166666Y-13757200D01*
X79166666Y-13757200D02*
X79071428Y-13804819D01*
X79071428Y-13804819D02*
X78833333Y-13804819D01*
X78833333Y-13804819D02*
X78738095Y-13757200D01*
X78738095Y-13757200D02*
X78690476Y-13709580D01*
X15857142Y-51524819D02*
X15523809Y-51048628D01*
X15285714Y-51524819D02*
X15285714Y-50524819D01*
X15285714Y-50524819D02*
X15666666Y-50524819D01*
X15666666Y-50524819D02*
X15761904Y-50572438D01*
X15761904Y-50572438D02*
X15809523Y-50620057D01*
X15809523Y-50620057D02*
X15857142Y-50715295D01*
X15857142Y-50715295D02*
X15857142Y-50858152D01*
X15857142Y-50858152D02*
X15809523Y-50953390D01*
X15809523Y-50953390D02*
X15761904Y-51001009D01*
X15761904Y-51001009D02*
X15666666Y-51048628D01*
X15666666Y-51048628D02*
X15285714Y-51048628D01*
X16809523Y-51524819D02*
X16238095Y-51524819D01*
X16523809Y-51524819D02*
X16523809Y-50524819D01*
X16523809Y-50524819D02*
X16428571Y-50667676D01*
X16428571Y-50667676D02*
X16333333Y-50762914D01*
X16333333Y-50762914D02*
X16238095Y-50810533D01*
X17142857Y-50524819D02*
X17809523Y-50524819D01*
X17809523Y-50524819D02*
X17380952Y-51524819D01*
X85666666Y-67134819D02*
X85666666Y-67849104D01*
X85666666Y-67849104D02*
X85619047Y-67991961D01*
X85619047Y-67991961D02*
X85523809Y-68087200D01*
X85523809Y-68087200D02*
X85380952Y-68134819D01*
X85380952Y-68134819D02*
X85285714Y-68134819D01*
X86619047Y-67134819D02*
X86142857Y-67134819D01*
X86142857Y-67134819D02*
X86095238Y-67611009D01*
X86095238Y-67611009D02*
X86142857Y-67563390D01*
X86142857Y-67563390D02*
X86238095Y-67515771D01*
X86238095Y-67515771D02*
X86476190Y-67515771D01*
X86476190Y-67515771D02*
X86571428Y-67563390D01*
X86571428Y-67563390D02*
X86619047Y-67611009D01*
X86619047Y-67611009D02*
X86666666Y-67706247D01*
X86666666Y-67706247D02*
X86666666Y-67944342D01*
X86666666Y-67944342D02*
X86619047Y-68039580D01*
X86619047Y-68039580D02*
X86571428Y-68087200D01*
X86571428Y-68087200D02*
X86476190Y-68134819D01*
X86476190Y-68134819D02*
X86238095Y-68134819D01*
X86238095Y-68134819D02*
X86142857Y-68087200D01*
X86142857Y-68087200D02*
X86095238Y-68039580D01*
X25523809Y-31454819D02*
X25523809Y-32264342D01*
X25523809Y-32264342D02*
X25571428Y-32359580D01*
X25571428Y-32359580D02*
X25619047Y-32407200D01*
X25619047Y-32407200D02*
X25714285Y-32454819D01*
X25714285Y-32454819D02*
X25904761Y-32454819D01*
X25904761Y-32454819D02*
X25999999Y-32407200D01*
X25999999Y-32407200D02*
X26047618Y-32359580D01*
X26047618Y-32359580D02*
X26095237Y-32264342D01*
X26095237Y-32264342D02*
X26095237Y-31454819D01*
X26333333Y-32550057D02*
X27095237Y-32550057D01*
X27333333Y-31454819D02*
X27333333Y-32264342D01*
X27333333Y-32264342D02*
X27380952Y-32359580D01*
X27380952Y-32359580D02*
X27428571Y-32407200D01*
X27428571Y-32407200D02*
X27523809Y-32454819D01*
X27523809Y-32454819D02*
X27714285Y-32454819D01*
X27714285Y-32454819D02*
X27809523Y-32407200D01*
X27809523Y-32407200D02*
X27857142Y-32359580D01*
X27857142Y-32359580D02*
X27904761Y-32264342D01*
X27904761Y-32264342D02*
X27904761Y-31454819D01*
X28333333Y-32169104D02*
X28809523Y-32169104D01*
X28238095Y-32454819D02*
X28571428Y-31454819D01*
X28571428Y-31454819D02*
X28904761Y-32454819D01*
X29809523Y-32454819D02*
X29476190Y-31978628D01*
X29238095Y-32454819D02*
X29238095Y-31454819D01*
X29238095Y-31454819D02*
X29619047Y-31454819D01*
X29619047Y-31454819D02*
X29714285Y-31502438D01*
X29714285Y-31502438D02*
X29761904Y-31550057D01*
X29761904Y-31550057D02*
X29809523Y-31645295D01*
X29809523Y-31645295D02*
X29809523Y-31788152D01*
X29809523Y-31788152D02*
X29761904Y-31883390D01*
X29761904Y-31883390D02*
X29714285Y-31931009D01*
X29714285Y-31931009D02*
X29619047Y-31978628D01*
X29619047Y-31978628D02*
X29238095Y-31978628D01*
X30095238Y-31454819D02*
X30666666Y-31454819D01*
X30380952Y-32454819D02*
X30380952Y-31454819D01*
X31523809Y-32454819D02*
X30952381Y-32454819D01*
X31238095Y-32454819D02*
X31238095Y-31454819D01*
X31238095Y-31454819D02*
X31142857Y-31597676D01*
X31142857Y-31597676D02*
X31047619Y-31692914D01*
X31047619Y-31692914D02*
X30952381Y-31740533D01*
X5524819Y-67119047D02*
X5524819Y-67595237D01*
X5524819Y-67595237D02*
X4524819Y-67595237D01*
X5001009Y-66785713D02*
X5001009Y-66452380D01*
X5524819Y-66309523D02*
X5524819Y-66785713D01*
X5524819Y-66785713D02*
X4524819Y-66785713D01*
X4524819Y-66785713D02*
X4524819Y-66309523D01*
X5524819Y-65880951D02*
X4524819Y-65880951D01*
X4524819Y-65880951D02*
X4524819Y-65642856D01*
X4524819Y-65642856D02*
X4572438Y-65499999D01*
X4572438Y-65499999D02*
X4667676Y-65404761D01*
X4667676Y-65404761D02*
X4762914Y-65357142D01*
X4762914Y-65357142D02*
X4953390Y-65309523D01*
X4953390Y-65309523D02*
X5096247Y-65309523D01*
X5096247Y-65309523D02*
X5286723Y-65357142D01*
X5286723Y-65357142D02*
X5381961Y-65404761D01*
X5381961Y-65404761D02*
X5477200Y-65499999D01*
X5477200Y-65499999D02*
X5524819Y-65642856D01*
X5524819Y-65642856D02*
X5524819Y-65880951D01*
X5524819Y-64357142D02*
X5524819Y-64928570D01*
X5524819Y-64642856D02*
X4524819Y-64642856D01*
X4524819Y-64642856D02*
X4667676Y-64738094D01*
X4667676Y-64738094D02*
X4762914Y-64833332D01*
X4762914Y-64833332D02*
X4810533Y-64928570D01*
X64357142Y-70539580D02*
X64309523Y-70587200D01*
X64309523Y-70587200D02*
X64166666Y-70634819D01*
X64166666Y-70634819D02*
X64071428Y-70634819D01*
X64071428Y-70634819D02*
X63928571Y-70587200D01*
X63928571Y-70587200D02*
X63833333Y-70491961D01*
X63833333Y-70491961D02*
X63785714Y-70396723D01*
X63785714Y-70396723D02*
X63738095Y-70206247D01*
X63738095Y-70206247D02*
X63738095Y-70063390D01*
X63738095Y-70063390D02*
X63785714Y-69872914D01*
X63785714Y-69872914D02*
X63833333Y-69777676D01*
X63833333Y-69777676D02*
X63928571Y-69682438D01*
X63928571Y-69682438D02*
X64071428Y-69634819D01*
X64071428Y-69634819D02*
X64166666Y-69634819D01*
X64166666Y-69634819D02*
X64309523Y-69682438D01*
X64309523Y-69682438D02*
X64357142Y-69730057D01*
X64690476Y-69634819D02*
X65309523Y-69634819D01*
X65309523Y-69634819D02*
X64976190Y-70015771D01*
X64976190Y-70015771D02*
X65119047Y-70015771D01*
X65119047Y-70015771D02*
X65214285Y-70063390D01*
X65214285Y-70063390D02*
X65261904Y-70111009D01*
X65261904Y-70111009D02*
X65309523Y-70206247D01*
X65309523Y-70206247D02*
X65309523Y-70444342D01*
X65309523Y-70444342D02*
X65261904Y-70539580D01*
X65261904Y-70539580D02*
X65214285Y-70587200D01*
X65214285Y-70587200D02*
X65119047Y-70634819D01*
X65119047Y-70634819D02*
X64833333Y-70634819D01*
X64833333Y-70634819D02*
X64738095Y-70587200D01*
X64738095Y-70587200D02*
X64690476Y-70539580D01*
X66166666Y-69968152D02*
X66166666Y-70634819D01*
X65928571Y-69587200D02*
X65690476Y-70301485D01*
X65690476Y-70301485D02*
X66309523Y-70301485D01*
X16524819Y-65666666D02*
X16048628Y-65999999D01*
X16524819Y-66238094D02*
X15524819Y-66238094D01*
X15524819Y-66238094D02*
X15524819Y-65857142D01*
X15524819Y-65857142D02*
X15572438Y-65761904D01*
X15572438Y-65761904D02*
X15620057Y-65714285D01*
X15620057Y-65714285D02*
X15715295Y-65666666D01*
X15715295Y-65666666D02*
X15858152Y-65666666D01*
X15858152Y-65666666D02*
X15953390Y-65714285D01*
X15953390Y-65714285D02*
X16001009Y-65761904D01*
X16001009Y-65761904D02*
X16048628Y-65857142D01*
X16048628Y-65857142D02*
X16048628Y-66238094D01*
X15858152Y-64809523D02*
X16524819Y-64809523D01*
X15477200Y-65047618D02*
X16191485Y-65285713D01*
X16191485Y-65285713D02*
X16191485Y-64666666D01*
X82857142Y-31859580D02*
X82809523Y-31907200D01*
X82809523Y-31907200D02*
X82666666Y-31954819D01*
X82666666Y-31954819D02*
X82571428Y-31954819D01*
X82571428Y-31954819D02*
X82428571Y-31907200D01*
X82428571Y-31907200D02*
X82333333Y-31811961D01*
X82333333Y-31811961D02*
X82285714Y-31716723D01*
X82285714Y-31716723D02*
X82238095Y-31526247D01*
X82238095Y-31526247D02*
X82238095Y-31383390D01*
X82238095Y-31383390D02*
X82285714Y-31192914D01*
X82285714Y-31192914D02*
X82333333Y-31097676D01*
X82333333Y-31097676D02*
X82428571Y-31002438D01*
X82428571Y-31002438D02*
X82571428Y-30954819D01*
X82571428Y-30954819D02*
X82666666Y-30954819D01*
X82666666Y-30954819D02*
X82809523Y-31002438D01*
X82809523Y-31002438D02*
X82857142Y-31050057D01*
X83809523Y-31954819D02*
X83238095Y-31954819D01*
X83523809Y-31954819D02*
X83523809Y-30954819D01*
X83523809Y-30954819D02*
X83428571Y-31097676D01*
X83428571Y-31097676D02*
X83333333Y-31192914D01*
X83333333Y-31192914D02*
X83238095Y-31240533D01*
X84285714Y-31954819D02*
X84476190Y-31954819D01*
X84476190Y-31954819D02*
X84571428Y-31907200D01*
X84571428Y-31907200D02*
X84619047Y-31859580D01*
X84619047Y-31859580D02*
X84714285Y-31716723D01*
X84714285Y-31716723D02*
X84761904Y-31526247D01*
X84761904Y-31526247D02*
X84761904Y-31145295D01*
X84761904Y-31145295D02*
X84714285Y-31050057D01*
X84714285Y-31050057D02*
X84666666Y-31002438D01*
X84666666Y-31002438D02*
X84571428Y-30954819D01*
X84571428Y-30954819D02*
X84380952Y-30954819D01*
X84380952Y-30954819D02*
X84285714Y-31002438D01*
X84285714Y-31002438D02*
X84238095Y-31050057D01*
X84238095Y-31050057D02*
X84190476Y-31145295D01*
X84190476Y-31145295D02*
X84190476Y-31383390D01*
X84190476Y-31383390D02*
X84238095Y-31478628D01*
X84238095Y-31478628D02*
X84285714Y-31526247D01*
X84285714Y-31526247D02*
X84380952Y-31573866D01*
X84380952Y-31573866D02*
X84571428Y-31573866D01*
X84571428Y-31573866D02*
X84666666Y-31526247D01*
X84666666Y-31526247D02*
X84714285Y-31478628D01*
X84714285Y-31478628D02*
X84761904Y-31383390D01*
X26054819Y-73333333D02*
X26769104Y-73333333D01*
X26769104Y-73333333D02*
X26911961Y-73380952D01*
X26911961Y-73380952D02*
X27007200Y-73476190D01*
X27007200Y-73476190D02*
X27054819Y-73619047D01*
X27054819Y-73619047D02*
X27054819Y-73714285D01*
X26054819Y-72952380D02*
X26054819Y-72333333D01*
X26054819Y-72333333D02*
X26435771Y-72666666D01*
X26435771Y-72666666D02*
X26435771Y-72523809D01*
X26435771Y-72523809D02*
X26483390Y-72428571D01*
X26483390Y-72428571D02*
X26531009Y-72380952D01*
X26531009Y-72380952D02*
X26626247Y-72333333D01*
X26626247Y-72333333D02*
X26864342Y-72333333D01*
X26864342Y-72333333D02*
X26959580Y-72380952D01*
X26959580Y-72380952D02*
X27007200Y-72428571D01*
X27007200Y-72428571D02*
X27054819Y-72523809D01*
X27054819Y-72523809D02*
X27054819Y-72809523D01*
X27054819Y-72809523D02*
X27007200Y-72904761D01*
X27007200Y-72904761D02*
X26959580Y-72952380D01*
X14859580Y-5166666D02*
X14907200Y-5214285D01*
X14907200Y-5214285D02*
X14954819Y-5357142D01*
X14954819Y-5357142D02*
X14954819Y-5452380D01*
X14954819Y-5452380D02*
X14907200Y-5595237D01*
X14907200Y-5595237D02*
X14811961Y-5690475D01*
X14811961Y-5690475D02*
X14716723Y-5738094D01*
X14716723Y-5738094D02*
X14526247Y-5785713D01*
X14526247Y-5785713D02*
X14383390Y-5785713D01*
X14383390Y-5785713D02*
X14192914Y-5738094D01*
X14192914Y-5738094D02*
X14097676Y-5690475D01*
X14097676Y-5690475D02*
X14002438Y-5595237D01*
X14002438Y-5595237D02*
X13954819Y-5452380D01*
X13954819Y-5452380D02*
X13954819Y-5357142D01*
X13954819Y-5357142D02*
X14002438Y-5214285D01*
X14002438Y-5214285D02*
X14050057Y-5166666D01*
X13954819Y-4833332D02*
X13954819Y-4166666D01*
X13954819Y-4166666D02*
X14954819Y-4595237D01*
X38833333Y-29429580D02*
X38785714Y-29477200D01*
X38785714Y-29477200D02*
X38642857Y-29524819D01*
X38642857Y-29524819D02*
X38547619Y-29524819D01*
X38547619Y-29524819D02*
X38404762Y-29477200D01*
X38404762Y-29477200D02*
X38309524Y-29381961D01*
X38309524Y-29381961D02*
X38261905Y-29286723D01*
X38261905Y-29286723D02*
X38214286Y-29096247D01*
X38214286Y-29096247D02*
X38214286Y-28953390D01*
X38214286Y-28953390D02*
X38261905Y-28762914D01*
X38261905Y-28762914D02*
X38309524Y-28667676D01*
X38309524Y-28667676D02*
X38404762Y-28572438D01*
X38404762Y-28572438D02*
X38547619Y-28524819D01*
X38547619Y-28524819D02*
X38642857Y-28524819D01*
X38642857Y-28524819D02*
X38785714Y-28572438D01*
X38785714Y-28572438D02*
X38833333Y-28620057D01*
X39166667Y-28524819D02*
X39785714Y-28524819D01*
X39785714Y-28524819D02*
X39452381Y-28905771D01*
X39452381Y-28905771D02*
X39595238Y-28905771D01*
X39595238Y-28905771D02*
X39690476Y-28953390D01*
X39690476Y-28953390D02*
X39738095Y-29001009D01*
X39738095Y-29001009D02*
X39785714Y-29096247D01*
X39785714Y-29096247D02*
X39785714Y-29334342D01*
X39785714Y-29334342D02*
X39738095Y-29429580D01*
X39738095Y-29429580D02*
X39690476Y-29477200D01*
X39690476Y-29477200D02*
X39595238Y-29524819D01*
X39595238Y-29524819D02*
X39309524Y-29524819D01*
X39309524Y-29524819D02*
X39214286Y-29477200D01*
X39214286Y-29477200D02*
X39166667Y-29429580D01*
X33333333Y-58004819D02*
X32857143Y-58004819D01*
X32857143Y-58004819D02*
X32857143Y-57004819D01*
X34190476Y-58004819D02*
X33619048Y-58004819D01*
X33904762Y-58004819D02*
X33904762Y-57004819D01*
X33904762Y-57004819D02*
X33809524Y-57147676D01*
X33809524Y-57147676D02*
X33714286Y-57242914D01*
X33714286Y-57242914D02*
X33619048Y-57290533D01*
%TO.C,C23*%
D11*
X66490000Y-42915580D02*
X66490000Y-42634420D01*
X67510000Y-42915580D02*
X67510000Y-42634420D01*
%TO.C,C24*%
X65859420Y-48990000D02*
X66140580Y-48990000D01*
X65859420Y-50010000D02*
X66140580Y-50010000D01*
%TO.C,C22*%
X68490000Y-40365580D02*
X68490000Y-40084420D01*
X69510000Y-40365580D02*
X69510000Y-40084420D01*
%TO.C,C25*%
X68859420Y-51490000D02*
X69140580Y-51490000D01*
X68859420Y-52510000D02*
X69140580Y-52510000D01*
%TO.C,C27*%
X74359420Y-51990000D02*
X74640580Y-51990000D01*
X74359420Y-53010000D02*
X74640580Y-53010000D01*
%TO.C,C36*%
X94761252Y-66265000D02*
X94238748Y-66265000D01*
X94761252Y-67735000D02*
X94238748Y-67735000D01*
%TO.C,R12*%
X69477500Y-31237258D02*
X69477500Y-30762742D01*
X70522500Y-31237258D02*
X70522500Y-30762742D01*
%TO.C,C13*%
X67859420Y-26490000D02*
X68140580Y-26490000D01*
X67859420Y-27510000D02*
X68140580Y-27510000D01*
%TO.C,L6*%
X76900000Y-64800000D02*
X76900000Y-56800000D01*
X85100000Y-64800000D02*
X85100000Y-56800000D01*
%TO.C,C31*%
X76359420Y-54490000D02*
X76640580Y-54490000D01*
X76359420Y-55510000D02*
X76640580Y-55510000D01*
%TO.C,R19*%
X78412258Y-32477500D02*
X77937742Y-32477500D01*
X78412258Y-33522500D02*
X77937742Y-33522500D01*
%TO.C,C30*%
X79990000Y-48859420D02*
X79990000Y-49140580D01*
X81010000Y-48859420D02*
X81010000Y-49140580D01*
%TO.C,C4*%
X23765000Y-48311252D02*
X23765000Y-47788748D01*
X25235000Y-48311252D02*
X25235000Y-47788748D01*
%TO.C,R18*%
X40477500Y-71237258D02*
X40477500Y-70762742D01*
X41522500Y-71237258D02*
X41522500Y-70762742D01*
%TO.C,C5*%
X37265000Y-50311252D02*
X37265000Y-49788748D01*
X38735000Y-50311252D02*
X38735000Y-49788748D01*
%TO.C,C6*%
X11765000Y-2688748D02*
X11765000Y-3211252D01*
X13235000Y-2688748D02*
X13235000Y-3211252D01*
%TO.C,D2*%
X35490000Y-42350000D02*
X35490000Y-45650000D01*
X35490000Y-42350000D02*
X41000000Y-42350000D01*
X35490000Y-45650000D02*
X41000000Y-45650000D01*
%TO.C,C32*%
X72490000Y-38365580D02*
X72490000Y-38084420D01*
X73510000Y-38365580D02*
X73510000Y-38084420D01*
%TO.C,R2*%
X19477500Y-69237258D02*
X19477500Y-68762742D01*
X20522500Y-69237258D02*
X20522500Y-68762742D01*
%TO.C,R16*%
X9477500Y-54237258D02*
X9477500Y-53762742D01*
X10522500Y-54237258D02*
X10522500Y-53762742D01*
%TO.C,C12*%
X65490000Y-20140580D02*
X65490000Y-19859420D01*
X66510000Y-20140580D02*
X66510000Y-19859420D01*
%TO.C,U6*%
D12*
X19500000Y-47240000D02*
X19500000Y-45840000D01*
X19500000Y-50110000D02*
X19500000Y-48710000D01*
X19500000Y-50110000D02*
X22500000Y-50110000D01*
X22460000Y-45840000D02*
X19500000Y-45840000D01*
X22500000Y-50110000D02*
X22500000Y-45840000D01*
D13*
X19270000Y-50570000D02*
G75*
G02*
X19267459Y-50569852I-10011J-149999D01*
G01*
D12*
X19500000Y-47230000D02*
G75*
G02*
X19500000Y-48690000I0J-730000D01*
G01*
D14*
X19550000Y-51200000D02*
G75*
G02*
X19450000Y-51200000I-50000J0D01*
G01*
X19450000Y-51200000D02*
G75*
G02*
X19550000Y-51200000I50000J0D01*
G01*
%TO.C,C26*%
D11*
X70990000Y-53140580D02*
X70990000Y-52859420D01*
X72010000Y-53140580D02*
X72010000Y-52859420D01*
%TO.C,R6*%
X11262742Y-59477500D02*
X11737258Y-59477500D01*
X11262742Y-60522500D02*
X11737258Y-60522500D01*
%TO.C,C28*%
X77915580Y-51490000D02*
X77634420Y-51490000D01*
X77915580Y-52510000D02*
X77634420Y-52510000D01*
%TO.C,U5*%
D12*
X13100000Y-46450000D02*
X14900000Y-46450000D01*
X13100000Y-49550000D02*
X14900000Y-49550000D01*
D15*
X15430000Y-49450000D02*
G75*
G02*
X15370000Y-49450000I-30000J0D01*
G01*
X15370000Y-49450000D02*
G75*
G02*
X15430000Y-49450000I30000J0D01*
G01*
D12*
X15520000Y-49650000D02*
G75*
G02*
X15280000Y-49650000I-120000J0D01*
G01*
X15280000Y-49650000D02*
G75*
G02*
X15520000Y-49650000I120000J0D01*
G01*
%TO.C,C18*%
D11*
X85900000Y-33490000D02*
X86900000Y-33490000D01*
X86400000Y-32990000D02*
X86400000Y-33990000D01*
X87140000Y-32704437D02*
X87140000Y-34490000D01*
X87140000Y-32704437D02*
X88204437Y-31640000D01*
X87140000Y-39295563D02*
X87140000Y-37510000D01*
X87140000Y-39295563D02*
X88204437Y-40360000D01*
X88204437Y-31640000D02*
X95860000Y-31640000D01*
X88204437Y-40360000D02*
X95860000Y-40360000D01*
X95860000Y-31640000D02*
X95860000Y-34490000D01*
X95860000Y-40360000D02*
X95860000Y-37510000D01*
%TO.C,R10*%
X79762742Y-30477500D02*
X80237258Y-30477500D01*
X79762742Y-31522500D02*
X80237258Y-31522500D01*
%TO.C,R1*%
X10977500Y-68237258D02*
X10977500Y-67762742D01*
X12022500Y-68237258D02*
X12022500Y-67762742D01*
%TO.C,U1*%
D10*
X68420000Y-43380000D02*
X79580000Y-43380000D01*
X68420000Y-48620000D02*
X68420000Y-43380000D01*
X79580000Y-43380000D02*
X79580000Y-48620000D01*
X79580000Y-48620000D02*
X68420000Y-48620000D01*
D13*
X68650000Y-49720000D02*
G75*
G02*
X68350000Y-49720000I-150000J0D01*
G01*
X68350000Y-49720000D02*
G75*
G02*
X68650000Y-49720000I150000J0D01*
G01*
D15*
X68530000Y-50050000D02*
G75*
G02*
X68470000Y-50050000I-30000J0D01*
G01*
X68470000Y-50050000D02*
G75*
G02*
X68530000Y-50050000I30000J0D01*
G01*
D13*
X69280000Y-47870000D02*
G75*
G02*
X68960000Y-47870000I-160000J0D01*
G01*
X68960000Y-47870000D02*
G75*
G02*
X69280000Y-47870000I160000J0D01*
G01*
%TO.C,R5*%
D11*
X11262742Y-64477500D02*
X11737258Y-64477500D01*
X11262742Y-65522500D02*
X11737258Y-65522500D01*
%TO.C,C2*%
X41238748Y-61265000D02*
X41761252Y-61265000D01*
X41238748Y-62735000D02*
X41761252Y-62735000D01*
%TO.C,L3*%
X66900000Y-64800000D02*
X66900000Y-56800000D01*
X75100000Y-64800000D02*
X75100000Y-56800000D01*
%TO.C,C37*%
X10490000Y-46084420D02*
X10490000Y-46365580D01*
X11510000Y-46084420D02*
X11510000Y-46365580D01*
%TO.C,C10*%
X45265000Y-22761252D02*
X45265000Y-22238748D01*
X46735000Y-22761252D02*
X46735000Y-22238748D01*
%TO.C,C14*%
X73490000Y-32640580D02*
X73490000Y-32359420D01*
X74510000Y-32640580D02*
X74510000Y-32359420D01*
%TO.C,C35*%
X65765000Y-74761252D02*
X65765000Y-74238748D01*
X67235000Y-74761252D02*
X67235000Y-74238748D01*
%TO.C,R3*%
X17977500Y-62062258D02*
X17977500Y-61587742D01*
X19022500Y-62062258D02*
X19022500Y-61587742D01*
%TO.C,R8*%
X37762742Y-18477500D02*
X38237258Y-18477500D01*
X37762742Y-19522500D02*
X38237258Y-19522500D01*
%TO.C,U4*%
D12*
X17000000Y5480000D02*
X17000000Y-970000D01*
X17000000Y-810000D02*
X17000000Y-1320000D01*
X17000000Y-19190000D02*
X17000000Y-20020000D01*
X17000000Y-20020000D02*
X19600000Y-20020000D01*
X32400000Y-20020000D02*
X35020000Y-20020000D01*
X35000000Y5480000D02*
X17000000Y5480000D01*
X35000000Y5480000D02*
X35000000Y-990000D01*
X35000000Y-810000D02*
X17000000Y-810000D01*
X35020000Y-1320000D02*
X35020000Y-810000D01*
X35020000Y-20020000D02*
X35020000Y-19190000D01*
D15*
X17030000Y5530000D02*
G75*
G02*
X16970000Y5530000I-30000J0D01*
G01*
X16970000Y5530000D02*
G75*
G02*
X17030000Y5530000I30000J0D01*
G01*
%TO.C,SW_BOOT1*%
D11*
X38770000Y-32770000D02*
X45230000Y-32770000D01*
X38770000Y-32800000D02*
X38770000Y-32770000D01*
X38770000Y-34700000D02*
X38770000Y-37300000D01*
X38770000Y-39230000D02*
X38770000Y-39200000D01*
X38770000Y-39230000D02*
X45230000Y-39230000D01*
X45230000Y-32770000D02*
X45230000Y-32800000D01*
X45230000Y-34700000D02*
X45230000Y-37300000D01*
X45230000Y-39230000D02*
X45230000Y-39200000D01*
%TO.C,C11*%
X67859420Y-12490000D02*
X68140580Y-12490000D01*
X67859420Y-13510000D02*
X68140580Y-13510000D01*
%TO.C,LED2*%
X5765000Y-59200000D02*
X5765000Y-61485000D01*
X5765000Y-61485000D02*
X7235000Y-61485000D01*
X7235000Y-61485000D02*
X7235000Y-59200000D01*
%TO.C,C8*%
X13859420Y-9490000D02*
X14140580Y-9490000D01*
X13859420Y-10510000D02*
X14140580Y-10510000D01*
%TO.C,L2*%
X50700000Y-14700000D02*
X61300000Y-14700000D01*
X50700000Y-17900000D02*
X50700000Y-14700000D01*
X50700000Y-25300000D02*
X50700000Y-22100000D01*
X61300000Y-14700000D02*
X61300000Y-17900000D01*
X61300000Y-22100000D02*
X61300000Y-25300000D01*
X61300000Y-25300000D02*
X50700000Y-25300000D01*
%TO.C,C33*%
X88738748Y-66265000D02*
X89261252Y-66265000D01*
X88738748Y-67735000D02*
X89261252Y-67735000D01*
%TO.C,J1*%
D12*
X10530000Y-75380000D02*
X10530000Y-73510000D01*
X10530000Y-79090000D02*
X10530000Y-77610000D01*
X19470000Y-75380000D02*
X19470000Y-73510000D01*
X19470000Y-79090000D02*
X10530000Y-79090000D01*
X19470000Y-79090000D02*
X19470000Y-77610000D01*
D15*
X19500000Y-71240000D02*
G75*
G02*
X19440000Y-71240000I-30000J0D01*
G01*
X19440000Y-71240000D02*
G75*
G02*
X19500000Y-71240000I30000J0D01*
G01*
%TO.C,C29*%
D11*
X83990000Y-47640580D02*
X83990000Y-47359420D01*
X85010000Y-47640580D02*
X85010000Y-47359420D01*
%TO.C,R15*%
X68762742Y-34477500D02*
X69237258Y-34477500D01*
X68762742Y-35522500D02*
X69237258Y-35522500D01*
%TO.C,D3*%
X47350000Y-65510000D02*
X47350000Y-60000000D01*
X47350000Y-65510000D02*
X50650000Y-65510000D01*
X50650000Y-65510000D02*
X50650000Y-60000000D01*
%TO.C,U2*%
D12*
X71700000Y-18200000D02*
X71700000Y-18880000D01*
X71700000Y-18200000D02*
X71870000Y-18200000D01*
X71700000Y-21120000D02*
X71700000Y-21800000D01*
X71700000Y-21800000D02*
X71870000Y-21800000D01*
X76130000Y-18200000D02*
X76300000Y-18200000D01*
X76130000Y-21800000D02*
X76300000Y-21800000D01*
X76300000Y-18200000D02*
X76300000Y-18880000D01*
X76300000Y-21120000D02*
X76300000Y-21800000D01*
D16*
X71410000Y-21200000D02*
G75*
G02*
X71190000Y-21200000I-110000J0D01*
G01*
X71190000Y-21200000D02*
G75*
G02*
X71410000Y-21200000I110000J0D01*
G01*
D15*
X71740000Y-21750000D02*
G75*
G02*
X71680000Y-21750000I-30000J0D01*
G01*
X71680000Y-21750000D02*
G75*
G02*
X71740000Y-21750000I30000J0D01*
G01*
%TO.C,L4*%
D11*
X56900000Y-64800000D02*
X56900000Y-56800000D01*
X65100000Y-64800000D02*
X65100000Y-56800000D01*
%TO.C,R7*%
X12937742Y-6477500D02*
X13412258Y-6477500D01*
X12937742Y-7522500D02*
X13412258Y-7522500D01*
%TO.C,R11*%
X73477500Y-28237258D02*
X73477500Y-27762742D01*
X74522500Y-28237258D02*
X74522500Y-27762742D01*
%TO.C,J2*%
D12*
X42150000Y-68800000D02*
X42150000Y-83200000D01*
X42150000Y-83200000D02*
X51130000Y-83200000D01*
X44390000Y-68800000D02*
X42150000Y-68800000D01*
X51150000Y-68800000D02*
X48910000Y-68800000D01*
X51150000Y-70290000D02*
X51150000Y-68800000D01*
X51150000Y-79700000D02*
X42150000Y-79700000D01*
X51150000Y-83200000D02*
X51150000Y-74710000D01*
D15*
X42180000Y-68800000D02*
G75*
G02*
X42120000Y-68800000I-30000J0D01*
G01*
X42120000Y-68800000D02*
G75*
G02*
X42180000Y-68800000I30000J0D01*
G01*
%TO.C,D1*%
D11*
X23490000Y-42350000D02*
X23490000Y-45650000D01*
X23490000Y-42350000D02*
X29000000Y-42350000D01*
X23490000Y-45650000D02*
X29000000Y-45650000D01*
%TO.C,J6*%
D12*
X3590000Y-43820000D02*
X3590000Y-44830000D01*
X3590000Y-43820000D02*
X3840000Y-43820000D01*
X3590000Y-46230000D02*
X3590000Y-48770000D01*
X3590000Y-51180000D02*
X3590000Y-50040000D01*
X3590000Y-51180000D02*
X3840000Y-51180000D01*
X4980000Y-43820000D02*
X9430000Y-43820000D01*
X9430000Y-43820000D02*
X9430000Y-51180000D01*
X9430000Y-51180000D02*
X4980000Y-51180000D01*
D15*
X9560000Y-51230000D02*
G75*
G02*
X9500000Y-51230000I-30000J0D01*
G01*
X9500000Y-51230000D02*
G75*
G02*
X9560000Y-51230000I30000J0D01*
G01*
%TO.C,SW_RST1*%
D11*
X10270000Y-29770000D02*
X16730000Y-29770000D01*
X10270000Y-29800000D02*
X10270000Y-29770000D01*
X10270000Y-31700000D02*
X10270000Y-34300000D01*
X10270000Y-36230000D02*
X10270000Y-36200000D01*
X10270000Y-36230000D02*
X16730000Y-36230000D01*
X16730000Y-29770000D02*
X16730000Y-29800000D01*
X16730000Y-31700000D02*
X16730000Y-34300000D01*
X16730000Y-36230000D02*
X16730000Y-36200000D01*
%TO.C,C1*%
X17238748Y-57265000D02*
X17761252Y-57265000D01*
X17238748Y-58735000D02*
X17761252Y-58735000D01*
%TO.C,C17*%
X81590000Y-19736252D02*
X81590000Y-18313748D01*
X83410000Y-19736252D02*
X83410000Y-18313748D01*
%TO.C,R9*%
X79762742Y-27477500D02*
X80237258Y-27477500D01*
X79762742Y-28522500D02*
X80237258Y-28522500D01*
%TO.C,C21*%
X77490000Y-39915580D02*
X77490000Y-39634420D01*
X78510000Y-39915580D02*
X78510000Y-39634420D01*
%TO.C,U3*%
D12*
X22450000Y-59950000D02*
X27550000Y-59950000D01*
X22450000Y-61200000D02*
X22450000Y-59950000D01*
X22450000Y-62800000D02*
X22450000Y-64050000D01*
X27550000Y-59950000D02*
X27550000Y-64050000D01*
X27550000Y-64050000D02*
X22450000Y-64050000D01*
X22492227Y-61196354D02*
G75*
G02*
X22500000Y-62800000I-372227J-803646D01*
G01*
X22140000Y-64500000D02*
G75*
G02*
X21800000Y-64500000I-170000J0D01*
G01*
X21800000Y-64500000D02*
G75*
G02*
X22140000Y-64500000I170000J0D01*
G01*
D15*
X22580000Y-64950000D02*
G75*
G02*
X22520000Y-64950000I-30000J0D01*
G01*
X22520000Y-64950000D02*
G75*
G02*
X22580000Y-64950000I30000J0D01*
G01*
%TO.C,L5*%
D11*
X86900000Y-64800000D02*
X86900000Y-56800000D01*
X95100000Y-64800000D02*
X95100000Y-56800000D01*
%TO.C,J4*%
X67880000Y-68680000D02*
X78120000Y-68680000D01*
X67880000Y-71700000D02*
X78120000Y-71700000D01*
X67880000Y-76600000D02*
X78120000Y-76600000D01*
X67880000Y-78100000D02*
X78120000Y-78100000D01*
X67880000Y-78720000D02*
X67880000Y-68680000D01*
X70200000Y-78720000D02*
X67880000Y-78720000D01*
X78120000Y-68680000D02*
X78120000Y-78720000D01*
X78120000Y-78720000D02*
X70800000Y-78720000D01*
X70500000Y-78720000D02*
X70940000Y-79330000D01*
X70060000Y-79330000D01*
X70500000Y-78720000D01*
G36*
X70940000Y-79330000D02*
G01*
X70060000Y-79330000D01*
X70500000Y-78720000D01*
X70940000Y-79330000D01*
G37*
%TO.C,R13*%
X63762742Y-30477500D02*
X64237258Y-30477500D01*
X63762742Y-31522500D02*
X64237258Y-31522500D01*
%TO.C,C20*%
X80490000Y-43365580D02*
X80490000Y-43084420D01*
X81510000Y-43365580D02*
X81510000Y-43084420D01*
%TO.C,R14*%
X65762742Y-36477500D02*
X66237258Y-36477500D01*
X65762742Y-37522500D02*
X66237258Y-37522500D01*
%TO.C,C16*%
X81590000Y-14236252D02*
X81590000Y-12813748D01*
X83410000Y-14236252D02*
X83410000Y-12813748D01*
%TO.C,C9*%
X45265000Y-17761252D02*
X45265000Y-17238748D01*
X46735000Y-17761252D02*
X46735000Y-17238748D01*
%TO.C,U7*%
D10*
X30430000Y-46670000D02*
X33370000Y-46670000D01*
X30430000Y-53330000D02*
X30430000Y-46670000D01*
X33370000Y-46670000D02*
X33370000Y-53330000D01*
X33370000Y-53330000D02*
X30430000Y-53330000D01*
D15*
X35430000Y-53250000D02*
G75*
G02*
X35370000Y-53250000I-30000J0D01*
G01*
X35370000Y-53250000D02*
G75*
G02*
X35430000Y-53250000I30000J0D01*
G01*
%TO.C,C15*%
D11*
X78711252Y-10590000D02*
X77288748Y-10590000D01*
X78711252Y-12410000D02*
X77288748Y-12410000D01*
%TO.C,R17*%
X16262742Y-51977500D02*
X16737258Y-51977500D01*
X16262742Y-53022500D02*
X16737258Y-53022500D01*
%TO.C,J5*%
X81880000Y-68680000D02*
X92120000Y-68680000D01*
X81880000Y-71700000D02*
X92120000Y-71700000D01*
X81880000Y-76600000D02*
X92120000Y-76600000D01*
X81880000Y-78100000D02*
X92120000Y-78100000D01*
X81880000Y-78720000D02*
X81880000Y-68680000D01*
X84200000Y-78720000D02*
X81880000Y-78720000D01*
X92120000Y-68680000D02*
X92120000Y-78720000D01*
X92120000Y-78720000D02*
X84800000Y-78720000D01*
X84500000Y-78720000D02*
X84940000Y-79330000D01*
X84060000Y-79330000D01*
X84500000Y-78720000D01*
G36*
X84940000Y-79330000D02*
G01*
X84060000Y-79330000D01*
X84500000Y-78720000D01*
X84940000Y-79330000D01*
G37*
%TO.C,U_UART1*%
D10*
X25920000Y-35980000D02*
X31080000Y-35980000D01*
X25920000Y-39020000D02*
X25920000Y-35980000D01*
X31080000Y-35980000D02*
X31080000Y-39020000D01*
X31080000Y-39020000D02*
X25920000Y-39020000D01*
D13*
X25980000Y-40180000D02*
G75*
G02*
X25680000Y-40180000I-150000J0D01*
G01*
X25680000Y-40180000D02*
G75*
G02*
X25980000Y-40180000I150000J0D01*
G01*
D15*
X26080000Y-40500000D02*
G75*
G02*
X26020000Y-40500000I-30000J0D01*
G01*
X26020000Y-40500000D02*
G75*
G02*
X26080000Y-40500000I30000J0D01*
G01*
D13*
X26750000Y-38270000D02*
G75*
G02*
X26430000Y-38270000I-160000J0D01*
G01*
X26430000Y-38270000D02*
G75*
G02*
X26750000Y-38270000I160000J0D01*
G01*
%TO.C,LED1*%
D11*
X5765000Y-65200000D02*
X5765000Y-67485000D01*
X5765000Y-67485000D02*
X7235000Y-67485000D01*
X7235000Y-67485000D02*
X7235000Y-65200000D01*
%TO.C,C34*%
X65261252Y-67765000D02*
X64738748Y-67765000D01*
X65261252Y-69235000D02*
X64738748Y-69235000D01*
%TO.C,R4*%
X16977500Y-65737258D02*
X16977500Y-65262742D01*
X18022500Y-65737258D02*
X18022500Y-65262742D01*
%TO.C,C19*%
X83490000Y-33915580D02*
X83490000Y-33634420D01*
X84510000Y-33915580D02*
X84510000Y-33634420D01*
%TO.C,J3*%
D12*
X29950000Y-69170000D02*
X29950000Y-67930000D01*
X29950000Y-73170000D02*
X29950000Y-70830000D01*
X29950000Y-76170000D02*
X29950000Y-74830000D01*
X29950000Y-80110000D02*
X36050000Y-80110000D01*
X29950000Y-82200000D02*
X29950000Y-77830000D01*
X29950000Y-82200000D02*
X36050000Y-82200000D01*
X35180000Y-67800000D02*
X29950000Y-67800000D01*
X36050000Y-67800000D02*
X35620000Y-67800000D01*
X36050000Y-68170000D02*
X36050000Y-67800000D01*
X36050000Y-82200000D02*
X36050000Y-69830000D01*
D15*
X29980000Y-82200000D02*
G75*
G02*
X29920000Y-82200000I-30000J0D01*
G01*
X29920000Y-82200000D02*
G75*
G02*
X29980000Y-82200000I30000J0D01*
G01*
%TO.C,C7*%
D11*
X13990000Y-1859420D02*
X13990000Y-2140580D01*
X15010000Y-1859420D02*
X15010000Y-2140580D01*
%TO.C,C3*%
X38359420Y-29990000D02*
X38640580Y-29990000D01*
X38359420Y-31010000D02*
X38640580Y-31010000D01*
%TO.C,L1*%
X29800000Y-58300000D02*
X37200000Y-58300000D01*
X29800000Y-60600000D02*
X29800000Y-58300000D01*
X29800000Y-65700000D02*
X29800000Y-63400000D01*
X37200000Y-58300000D02*
X37200000Y-60600000D01*
X37200000Y-63400000D02*
X37200000Y-65700000D01*
X37200000Y-65700000D02*
X29800000Y-65700000D01*
%TD*%
M02*
