%TF.GenerationSoftware,KiCad,Pcbnew,10.0.5*%
%TF.CreationDate,2026-09-15T20:16:53+05:30*%
%TF.ProjectId,AuraForge_50X,41757261-466f-4726-9765-5f3530582e6b,v1.0*%
%TF.SameCoordinates,Original*%
%TF.FileFunction,Copper,L2,Inr*%
%TF.FilePolarity,Positive*%
%FSLAX46Y46*%
G04 Gerber Fmt 4.6, Leading zero omitted, Abs format (unit mm)*
G04 Created by KiCad (PCBNEW 10.0.5) date 2026-09-15 20:16:53*
%MOMM*%
%LPD*%
G01*
G04 APERTURE LIST*
G04 Aperture macros list*
%AMRoundRect*
0 Rectangle with rounded corners*
0 $1 Rounding radius*
0 $2 $3 $4 $5 $6 $7 $8 $9 X,Y pos of 4 corners*
0 Add a 4 corners polygon primitive as box body*
4,1,4,$2,$3,$4,$5,$6,$7,$8,$9,$2,$3,0*
0 Add four circle primitives for the rounded corners*
1,1,$1+$1,$2,$3*
1,1,$1+$1,$4,$5*
1,1,$1+$1,$6,$7*
1,1,$1+$1,$8,$9*
0 Add four rect primitives between the rounded corners*
20,1,$1+$1,$2,$3,$4,$5,0*
20,1,$1+$1,$4,$5,$6,$7,0*
20,1,$1+$1,$6,$7,$8,$9,0*
20,1,$1+$1,$8,$9,$2,$3,0*%
G04 Aperture macros list end*
%TA.AperFunction,ComponentPad*%
%ADD10C,0.600000*%
%TD*%
%TA.AperFunction,ComponentPad*%
%ADD11O,1.200000X2.000000*%
%TD*%
%TA.AperFunction,ComponentPad*%
%ADD12O,1.200000X1.800000*%
%TD*%
%TA.AperFunction,ComponentPad*%
%ADD13C,0.400000*%
%TD*%
%TA.AperFunction,ComponentPad*%
%ADD14O,4.500000X2.000000*%
%TD*%
%TA.AperFunction,ComponentPad*%
%ADD15O,4.000000X1.800000*%
%TD*%
%TA.AperFunction,ComponentPad*%
%ADD16O,1.800000X4.000000*%
%TD*%
%TA.AperFunction,ComponentPad*%
%ADD17C,1.700000*%
%TD*%
%TA.AperFunction,ComponentPad*%
%ADD18RoundRect,0.250000X-1.050000X-1.050000X1.050000X-1.050000X1.050000X1.050000X-1.050000X1.050000X0*%
%TD*%
%TA.AperFunction,ComponentPad*%
%ADD19C,2.600000*%
%TD*%
%TA.AperFunction,ComponentPad*%
%ADD20C,1.200000*%
%TD*%
%TA.AperFunction,ComponentPad*%
%ADD21O,1.000000X2.000000*%
%TD*%
%TA.AperFunction,ViaPad*%
%ADD22C,1.000000*%
%TD*%
%TA.AperFunction,ViaPad*%
%ADD23C,0.800000*%
%TD*%
%TA.AperFunction,ViaPad*%
%ADD24C,0.600000*%
%TD*%
%TA.AperFunction,Conductor*%
%ADD25C,0.250000*%
%TD*%
%TA.AperFunction,Conductor*%
%ADD26C,0.150000*%
%TD*%
G04 APERTURE END LIST*
D10*
%TO.N,*%
%TO.C,J1*%
X12100000Y-72790000D03*
X17900000Y-72790000D03*
D11*
%TO.N,GND*%
X19330000Y-72290000D03*
D12*
X19330000Y-76470000D03*
X10670000Y-76470000D03*
D11*
X10670000Y-72290000D03*
%TD*%
D13*
%TO.N,GND*%
%TO.C,U2*%
X72730000Y-20000000D03*
X73480000Y-19230000D03*
X73480000Y-20000000D03*
X73480000Y-20770000D03*
X74530000Y-19230000D03*
X74530000Y-20000000D03*
X74530000Y-20770000D03*
X75280000Y-20000000D03*
%TD*%
D14*
%TO.N,Net-(D3-A)*%
%TO.C,J2*%
X46650000Y-69500000D03*
D15*
%TO.N,GND*%
X46650000Y-75500000D03*
D16*
X51350000Y-72500000D03*
%TD*%
D17*
%TO.N,/+BAT_3V7*%
%TO.C,J6*%
X6000000Y-48750000D03*
%TO.N,/BAT_NEG*%
X6000000Y-46250000D03*
%TD*%
D18*
%TO.N,/SPK_L_PLUS*%
%TO.C,J4*%
X70500000Y-74000000D03*
D19*
%TO.N,/SPK_L_MINUS*%
X75500000Y-74000000D03*
%TD*%
D18*
%TO.N,/SPK_R_PLUS*%
%TO.C,J5*%
X84500000Y-74000000D03*
D19*
%TO.N,/SPK_R_MINUS*%
X89500000Y-74000000D03*
%TD*%
D20*
%TO.N,*%
%TO.C,J3*%
X33000000Y-78600000D03*
X33000000Y-71600000D03*
D21*
%TO.N,/AUDIO_L*%
X30600000Y-77000000D03*
%TO.N,/AUDIO_R*%
X30600000Y-74000000D03*
%TO.N,/I2S_LRCK*%
X30600000Y-70000000D03*
%TO.N,GND*%
X35400000Y-69000000D03*
%TD*%
D22*
%TO.N,/+21V_BOOST*%
X77851500Y-42280000D03*
X69120001Y-45879999D03*
X80825000Y-25000000D03*
X84000000Y-36000000D03*
X67000000Y-45000000D03*
X79250000Y-19250000D03*
X80825000Y-15850000D03*
X53000000Y-64000000D03*
X69498500Y-42280000D03*
X83000000Y-29000000D03*
X75274000Y-16274000D03*
X84999999Y-45000001D03*
D23*
%TO.N,GND*%
X21000000Y-76000000D03*
X19000000Y-53000000D03*
X12000000Y-10000000D03*
X8000000Y-35000000D03*
X43000000Y-60000000D03*
X81000000Y-30000000D03*
X73711494Y-41011737D03*
X70000000Y-54500000D03*
X84237500Y-12262500D03*
X68000000Y-49000000D03*
X9000000Y-72000000D03*
X75000000Y-11500000D03*
X24500000Y-50500000D03*
X10000000Y-67000000D03*
X92000000Y-67000000D03*
X64000000Y-49500000D03*
X75000000Y-32000000D03*
X25000000Y-62000000D03*
X20000000Y-57000000D03*
X78880000Y-49720000D03*
X47000000Y-37000000D03*
X74000000Y-51000000D03*
X23000000Y-7000000D03*
X84474999Y-17550001D03*
X46000000Y-76000000D03*
X95200001Y-34200001D03*
X9000000Y-77000000D03*
X91500000Y-66000000D03*
X37000000Y-2000000D03*
X19000000Y-36000000D03*
X47000000Y-25000000D03*
X34970000Y-53970000D03*
X71000000Y-33000000D03*
X46000000Y-15000000D03*
X36000000Y-38000000D03*
X69000000Y-28000000D03*
X80000000Y-51150000D03*
X20290000Y-21710000D03*
X19000000Y-2000000D03*
X62500001Y-68500001D03*
X66500000Y-72000000D03*
X70000000Y-38000000D03*
X17000000Y-63000000D03*
X40500000Y-31000000D03*
X47000000Y-73000000D03*
X79000000Y-39000000D03*
X21000000Y-53000000D03*
X29000000Y-41000000D03*
X20000000Y-60000000D03*
X76286622Y-43803295D03*
X71927099Y-40886117D03*
X38000000Y-52500000D03*
X76280000Y-51000000D03*
X22000000Y-69000000D03*
X10500000Y-2000000D03*
X62000000Y-30000000D03*
X67000000Y-40000000D03*
X78880000Y-49720000D03*
X21000000Y-72000000D03*
X70816736Y-18978307D03*
X52000000Y-73000000D03*
X82125000Y-43000000D03*
X67000000Y-14000000D03*
X82425674Y-32799328D03*
D24*
%TO.N,Net-(U1-GVDD)*%
X73020000Y-49720000D03*
X67000000Y-47500000D03*
%TO.N,/AUDIO_L*%
X72500000Y-52000000D03*
X32000000Y-77000000D03*
%TO.N,Net-(U2-ILIM)*%
X70000000Y-26000000D03*
X70000000Y-18050000D03*
D22*
%TO.N,Net-(U1-OUTNR)*%
X81000000Y-61000000D03*
X74000000Y-47000000D03*
X76000000Y-58000000D03*
D24*
%TO.N,Net-(U1-BSNR)*%
X75000000Y-48000000D03*
X77275000Y-55000000D03*
%TO.N,Net-(U1-AVCC)*%
X79000000Y-36800000D03*
X76000000Y-33950000D03*
D22*
%TO.N,Net-(U1-OUTPL)*%
X74000000Y-60000000D03*
X74750000Y-39000000D03*
X94000000Y-54000000D03*
D24*
%TO.N,/I2S_BCK*%
X33000000Y-32000000D03*
X39000000Y-47000000D03*
D23*
%TO.N,/+3V3_SYS*%
X37500000Y-46918611D03*
X20670000Y-31330000D03*
X9000000Y-10000000D03*
X32000000Y-37000000D03*
D22*
%TO.N,/+BAT_3V7*%
X67000000Y-17000000D03*
X77295034Y-20156222D03*
X75235714Y-23294067D03*
X46775000Y-19225000D03*
X27000000Y-59000000D03*
X71877998Y-21826413D03*
X43000000Y-44000000D03*
X27000000Y-59000000D03*
X37000000Y-60000000D03*
X43000000Y-49000000D03*
X47000000Y-21000000D03*
X10999999Y-52999999D03*
X27000000Y-59000000D03*
X50000000Y-21000000D03*
%TO.N,Net-(U1-OUTPR)*%
X71325000Y-44456893D03*
X92000000Y-61000000D03*
X91500000Y-49500000D03*
D24*
%TO.N,Net-(U5-VCC)*%
X12649998Y-48000000D03*
X11000000Y-56000000D03*
D22*
%TO.N,Net-(C12-Pad2)*%
X68000000Y-19000000D03*
X74250063Y-21825342D03*
%TO.N,Net-(U6-D12-Pad1)*%
X19730000Y-51200000D03*
X19730000Y-45000000D03*
X19730000Y-45000000D03*
D24*
%TO.N,Net-(U5-OD)*%
X16000000Y-49000000D03*
X21980000Y-51200000D03*
%TO.N,Net-(U5-OC)*%
X17000000Y-46000000D03*
X22030000Y-44800000D03*
D23*
%TO.N,/BAT_NEG*%
X17000000Y-45000000D03*
X21029997Y-44800000D03*
D24*
%TO.N,Net-(U3-D2)*%
X14000000Y-63000000D03*
X25640000Y-64910000D03*
%TO.N,Net-(U5-CS)*%
X17000000Y-48000000D03*
X16000000Y-52000000D03*
%TO.N,Net-(U1-FAULTZ)*%
X70500000Y-45500000D03*
X71000000Y-38000000D03*
D22*
%TO.N,Net-(U1-OUTNL)*%
X61000000Y-62000000D03*
X95250000Y-52000000D03*
X76000000Y-38000000D03*
D24*
%TO.N,Net-(U3-D1)*%
X19000000Y-65000000D03*
X12325000Y-65000000D03*
D22*
%TO.N,/SPK_L_MINUS*%
X57000000Y-58000000D03*
X68000000Y-77000000D03*
D24*
%TO.N,/ESP_IO0*%
X41000000Y-30000000D03*
X40000000Y-26000000D03*
%TO.N,/I2S_LRCK*%
X31000000Y-33000000D03*
X30600000Y-64400000D03*
%TO.N,/ESP_RXD0*%
X41000000Y-20000000D03*
X29000000Y-33000000D03*
%TO.N,/ESP_TXD0*%
X40000000Y-7000000D03*
X26000000Y-30000000D03*
D23*
%TO.N,/+5V_VBUS*%
X14000000Y-58000000D03*
X16550000Y-58000000D03*
%TO.N,Net-(D3-A)*%
X52000000Y-60000000D03*
D24*
%TO.N,Net-(U2-FSW)*%
X65000000Y-29000000D03*
X68000000Y-21000000D03*
%TD*%
%TO.N,GND*%
D25*
X19330000Y-72290000D02*
X20710000Y-72290000D01*
X9530000Y-76470000D02*
X9000000Y-77000000D01*
D26*
X73480000Y-20000000D02*
X73480000Y-20770000D01*
D25*
X50500000Y-72500000D02*
X47500000Y-75500000D01*
X20530000Y-76470000D02*
X21000000Y-76000000D01*
X10670000Y-72290000D02*
X9290000Y-72290000D01*
X46500000Y-75500000D02*
X46000000Y-76000000D01*
D26*
X74530000Y-20000000D02*
X73480000Y-20000000D01*
D25*
X51350000Y-72500000D02*
X51500000Y-72500000D01*
X46650000Y-75500000D02*
X46500000Y-75500000D01*
D26*
X72730000Y-19980000D02*
X73480000Y-19230000D01*
X72730000Y-20000000D02*
X72730000Y-20020000D01*
D25*
X51350000Y-72500000D02*
X50500000Y-72500000D01*
X51500000Y-72500000D02*
X52000000Y-73000000D01*
D26*
X72730000Y-20020000D02*
X73480000Y-20770000D01*
X72730000Y-20000000D02*
X72730000Y-19980000D01*
X74530000Y-19250000D02*
X75280000Y-20000000D01*
X73480000Y-19230000D02*
X73480000Y-20000000D01*
D25*
X20710000Y-72290000D02*
X21000000Y-72000000D01*
D26*
X73480000Y-20770000D02*
X74530000Y-20770000D01*
D25*
X19330000Y-76470000D02*
X20530000Y-76470000D01*
D26*
X75280000Y-20000000D02*
X75280000Y-20020000D01*
X73480000Y-19230000D02*
X74530000Y-19230000D01*
D25*
X10670000Y-76470000D02*
X9530000Y-76470000D01*
X78000000Y-50000000D02*
X78600000Y-50000000D01*
D26*
X75280000Y-20000000D02*
X74530000Y-20000000D01*
D25*
X47500000Y-72500000D02*
X47000000Y-73000000D01*
X51350000Y-72500000D02*
X47500000Y-72500000D01*
D26*
X74530000Y-20000000D02*
X74530000Y-19230000D01*
X72730000Y-20000000D02*
X73480000Y-20000000D01*
D25*
X47500000Y-75500000D02*
X46650000Y-75500000D01*
D26*
X75280000Y-20020000D02*
X74530000Y-20770000D01*
D25*
X78600000Y-50000000D02*
X78880000Y-49720000D01*
D26*
X74530000Y-19230000D02*
X74530000Y-19250000D01*
D25*
X9290000Y-72290000D02*
X9000000Y-72000000D01*
%TD*%
%TA.AperFunction,Conductor*%
%TO.N,GND*%
G36*
X15459191Y-519407D02*
G01*
X15495155Y-568907D01*
X15500000Y-599500D01*
X15500000Y-1000000D01*
X15500001Y-1000000D01*
X36999999Y-1000000D01*
X37000000Y-1000000D01*
X37000000Y-599500D01*
X37018907Y-541309D01*
X37068407Y-505345D01*
X37099000Y-500500D01*
X94934108Y-500500D01*
X94997835Y-500500D01*
X95002152Y-500593D01*
X95387853Y-517434D01*
X95396433Y-518184D01*
X95777046Y-568293D01*
X95785551Y-569792D01*
X96160349Y-652884D01*
X96168660Y-655110D01*
X96534797Y-770553D01*
X96542913Y-773507D01*
X96897587Y-920418D01*
X96905398Y-924060D01*
X97051275Y-999999D01*
X97245910Y-1101320D01*
X97253390Y-1105638D01*
X97577167Y-1311906D01*
X97584241Y-1316860D01*
X97888797Y-1550554D01*
X97895398Y-1556093D01*
X98178459Y-1815470D01*
X98184529Y-1821540D01*
X98443905Y-2104599D01*
X98449445Y-2111202D01*
X98683139Y-2415758D01*
X98688093Y-2422832D01*
X98894361Y-2746609D01*
X98898679Y-2754089D01*
X99075935Y-3094593D01*
X99079585Y-3102420D01*
X99226492Y-3457086D01*
X99229446Y-3465202D01*
X99344884Y-3831324D01*
X99347119Y-3839666D01*
X99430206Y-4214447D01*
X99431706Y-4222953D01*
X99481813Y-4603554D01*
X99482566Y-4612158D01*
X99499406Y-4997847D01*
X99499500Y-5002165D01*
X99499500Y-74997834D01*
X99499406Y-75002152D01*
X99482566Y-75387841D01*
X99481813Y-75396445D01*
X99431706Y-75777046D01*
X99430206Y-75785552D01*
X99347119Y-76160333D01*
X99344884Y-76168675D01*
X99229446Y-76534797D01*
X99226492Y-76542913D01*
X99079585Y-76897579D01*
X99075935Y-76905406D01*
X98898679Y-77245910D01*
X98894361Y-77253390D01*
X98688093Y-77577167D01*
X98683139Y-77584241D01*
X98449445Y-77888797D01*
X98443895Y-77895411D01*
X98184540Y-78178447D01*
X98178447Y-78184540D01*
X97995787Y-78351918D01*
X97895413Y-78443894D01*
X97888797Y-78449445D01*
X97584241Y-78683139D01*
X97577167Y-78688093D01*
X97253390Y-78894361D01*
X97245910Y-78898679D01*
X96905406Y-79075935D01*
X96897579Y-79079585D01*
X96542913Y-79226492D01*
X96534797Y-79229446D01*
X96168675Y-79344884D01*
X96160333Y-79347119D01*
X95785552Y-79430206D01*
X95777046Y-79431706D01*
X95396445Y-79481813D01*
X95387841Y-79482566D01*
X95002153Y-79499406D01*
X94997835Y-79499500D01*
X33511021Y-79499500D01*
X33452830Y-79480593D01*
X33416866Y-79431093D01*
X33416866Y-79369907D01*
X33452830Y-79320407D01*
X33456019Y-79318185D01*
X33542162Y-79260626D01*
X33660626Y-79142162D01*
X33753703Y-79002863D01*
X33817816Y-78848082D01*
X33850500Y-78683767D01*
X33850500Y-78516233D01*
X33817816Y-78351918D01*
X33753703Y-78197137D01*
X33660626Y-78057838D01*
X33542162Y-77939374D01*
X33402863Y-77846297D01*
X33402864Y-77846297D01*
X33402862Y-77846296D01*
X33248085Y-77782185D01*
X33248079Y-77782183D01*
X33083769Y-77749500D01*
X33083767Y-77749500D01*
X32916233Y-77749500D01*
X32916230Y-77749500D01*
X32751920Y-77782183D01*
X32751914Y-77782185D01*
X32597137Y-77846296D01*
X32457838Y-77939374D01*
X32457834Y-77939377D01*
X32339377Y-78057834D01*
X32339374Y-78057838D01*
X32246296Y-78197137D01*
X32182185Y-78351914D01*
X32182183Y-78351920D01*
X32149500Y-78516230D01*
X32149500Y-78683769D01*
X32182183Y-78848079D01*
X32182185Y-78848085D01*
X32246296Y-79002862D01*
X32246297Y-79002863D01*
X32339374Y-79142162D01*
X32457838Y-79260626D01*
X32543981Y-79318185D01*
X32581860Y-79366235D01*
X32584262Y-79427373D01*
X32550269Y-79478247D01*
X32492865Y-79499424D01*
X32488979Y-79499500D01*
X5002165Y-79499500D01*
X4997847Y-79499406D01*
X4612158Y-79482566D01*
X4603554Y-79481813D01*
X4222953Y-79431706D01*
X4214447Y-79430206D01*
X3839666Y-79347119D01*
X3831324Y-79344884D01*
X3465202Y-79229446D01*
X3457086Y-79226492D01*
X3102420Y-79079585D01*
X3094593Y-79075935D01*
X2754089Y-78898679D01*
X2746609Y-78894361D01*
X2422832Y-78688093D01*
X2415758Y-78683139D01*
X2111202Y-78449445D01*
X2104599Y-78443905D01*
X1821540Y-78184529D01*
X1815470Y-78178459D01*
X1556093Y-77895398D01*
X1550554Y-77888797D01*
X1525000Y-77855495D01*
X1316859Y-77584240D01*
X1311906Y-77577167D01*
X1218303Y-77430240D01*
X1170685Y-77355493D01*
X1105638Y-77253390D01*
X1101320Y-77245910D01*
X940760Y-76937478D01*
X924060Y-76905398D01*
X920414Y-76897579D01*
X902245Y-76853716D01*
X773507Y-76542913D01*
X770553Y-76534797D01*
X731415Y-76410666D01*
X655110Y-76168660D01*
X652884Y-76160349D01*
X586813Y-75862324D01*
X1899500Y-75862324D01*
X1899500Y-76137675D01*
X1914222Y-76249500D01*
X1935440Y-76410666D01*
X1954974Y-76483568D01*
X2006704Y-76676631D01*
X2112074Y-76931016D01*
X2249753Y-77169482D01*
X2346837Y-77296005D01*
X2417372Y-77387928D01*
X2612072Y-77582628D01*
X2830521Y-77750249D01*
X3068979Y-77887923D01*
X3068980Y-77887923D01*
X3068983Y-77887925D01*
X3087061Y-77895413D01*
X3323368Y-77993295D01*
X3589334Y-78064560D01*
X3862326Y-78100500D01*
X3862327Y-78100500D01*
X4137673Y-78100500D01*
X4137674Y-78100500D01*
X4410666Y-78064560D01*
X4676632Y-77993295D01*
X4931021Y-77887923D01*
X5169479Y-77750249D01*
X5387928Y-77582628D01*
X5582628Y-77387928D01*
X5750249Y-77169479D01*
X5887923Y-76931021D01*
X5993295Y-76676632D01*
X6064560Y-76410666D01*
X6100500Y-76137674D01*
X6100500Y-76086279D01*
X9820000Y-76086279D01*
X9820000Y-76269999D01*
X9820001Y-76270000D01*
X10270001Y-76270000D01*
X10270001Y-76670000D01*
X9820001Y-76670000D01*
X9820000Y-76670001D01*
X9820000Y-76853720D01*
X9852664Y-77017934D01*
X9916739Y-77172625D01*
X10009759Y-77311840D01*
X10128159Y-77430240D01*
X10267374Y-77523260D01*
X10422065Y-77587335D01*
X10470000Y-77596870D01*
X10470000Y-77016409D01*
X10515606Y-77042740D01*
X10617339Y-77069999D01*
X10722661Y-77069999D01*
X10824394Y-77042740D01*
X10870000Y-77016409D01*
X10870000Y-77596869D01*
X10917934Y-77587335D01*
X11072625Y-77523260D01*
X11211840Y-77430240D01*
X11330240Y-77311840D01*
X11423260Y-77172625D01*
X11487335Y-77017934D01*
X11519999Y-76853720D01*
X11520000Y-76853716D01*
X11520000Y-76670001D01*
X11519999Y-76670000D01*
X11069999Y-76670000D01*
X11069999Y-76270000D01*
X11519999Y-76270000D01*
X11520000Y-76269999D01*
X11520000Y-76086283D01*
X11519999Y-76086279D01*
X18480000Y-76086279D01*
X18480000Y-76269999D01*
X18480001Y-76270000D01*
X18930001Y-76270000D01*
X18930001Y-76670000D01*
X18480001Y-76670000D01*
X18480000Y-76670001D01*
X18480000Y-76853720D01*
X18512664Y-77017934D01*
X18576739Y-77172625D01*
X18669759Y-77311840D01*
X18788159Y-77430240D01*
X18927374Y-77523260D01*
X19082065Y-77587335D01*
X19130000Y-77596870D01*
X19130000Y-77016409D01*
X19175606Y-77042740D01*
X19277339Y-77069999D01*
X19382661Y-77069999D01*
X19484394Y-77042740D01*
X19530000Y-77016409D01*
X19530000Y-77596869D01*
X19577934Y-77587335D01*
X19732625Y-77523260D01*
X19871840Y-77430240D01*
X19990240Y-77311840D01*
X20083260Y-77172625D01*
X20147335Y-77017934D01*
X20179999Y-76853720D01*
X20180000Y-76853716D01*
X20180000Y-76670001D01*
X20179999Y-76670000D01*
X19729999Y-76670000D01*
X19729999Y-76426081D01*
X29849500Y-76426081D01*
X29849500Y-77573918D01*
X29878342Y-77718914D01*
X29931106Y-77846297D01*
X29934916Y-77855495D01*
X30017049Y-77978416D01*
X30121584Y-78082951D01*
X30244505Y-78165084D01*
X30381087Y-78221658D01*
X30526082Y-78250500D01*
X30526083Y-78250500D01*
X30673917Y-78250500D01*
X30673918Y-78250500D01*
X30818913Y-78221658D01*
X30955495Y-78165084D01*
X31078416Y-78082951D01*
X31182951Y-77978416D01*
X31265084Y-77855495D01*
X31321658Y-77718913D01*
X31350500Y-77573918D01*
X31350500Y-77345505D01*
X31369407Y-77287314D01*
X31418907Y-77251350D01*
X31480093Y-77251350D01*
X31529593Y-77287314D01*
X31535231Y-77295997D01*
X31559491Y-77338015D01*
X31661985Y-77440509D01*
X31661987Y-77440510D01*
X31661989Y-77440512D01*
X31787511Y-77512982D01*
X31787512Y-77512982D01*
X31787515Y-77512984D01*
X31927525Y-77550500D01*
X31927526Y-77550500D01*
X32072474Y-77550500D01*
X32072475Y-77550500D01*
X32212485Y-77512984D01*
X32212487Y-77512982D01*
X32212489Y-77512982D01*
X32338010Y-77440512D01*
X32338010Y-77440511D01*
X32338015Y-77440509D01*
X32440509Y-77338015D01*
X32464764Y-77296005D01*
X32512982Y-77212489D01*
X32512982Y-77212487D01*
X32512984Y-77212485D01*
X32550500Y-77072475D01*
X32550500Y-76927525D01*
X32550113Y-76926081D01*
X67249500Y-76926081D01*
X67249500Y-77073918D01*
X67278342Y-77218914D01*
X67330778Y-77345505D01*
X67334916Y-77355495D01*
X67417049Y-77478416D01*
X67521584Y-77582951D01*
X67644505Y-77665084D01*
X67781087Y-77721658D01*
X67926082Y-77750500D01*
X67926083Y-77750500D01*
X68073917Y-77750500D01*
X68073918Y-77750500D01*
X68218913Y-77721658D01*
X68355495Y-77665084D01*
X68478416Y-77582951D01*
X68582951Y-77478416D01*
X68665084Y-77355495D01*
X68721658Y-77218913D01*
X68750500Y-77073918D01*
X68750500Y-76926082D01*
X68721658Y-76781087D01*
X68665084Y-76644505D01*
X68582951Y-76521584D01*
X68478416Y-76417049D01*
X68355495Y-76334916D01*
X68355493Y-76334915D01*
X68218914Y-76278342D01*
X68073918Y-76249500D01*
X67926082Y-76249500D01*
X67926081Y-76249500D01*
X67781085Y-76278342D01*
X67644506Y-76334915D01*
X67521585Y-76417048D01*
X67417048Y-76521585D01*
X67334915Y-76644506D01*
X67278342Y-76781085D01*
X67249500Y-76926081D01*
X32550113Y-76926081D01*
X32512984Y-76787515D01*
X32512982Y-76787512D01*
X32512982Y-76787510D01*
X32440512Y-76661989D01*
X32440510Y-76661987D01*
X32440509Y-76661985D01*
X32338015Y-76559491D01*
X32338012Y-76559489D01*
X32338010Y-76559487D01*
X32212488Y-76487017D01*
X32212489Y-76487017D01*
X32182896Y-76479087D01*
X32072475Y-76449500D01*
X31927525Y-76449500D01*
X31865790Y-76466041D01*
X31787510Y-76487017D01*
X31661989Y-76559487D01*
X31559489Y-76661987D01*
X31535236Y-76703995D01*
X31489766Y-76744935D01*
X31428916Y-76751330D01*
X31375928Y-76720737D01*
X31351042Y-76664842D01*
X31350500Y-76654494D01*
X31350500Y-76426083D01*
X31350500Y-76426082D01*
X31321658Y-76281087D01*
X31265084Y-76144505D01*
X31182951Y-76021584D01*
X31078416Y-75917049D01*
X30955495Y-75834916D01*
X30955493Y-75834915D01*
X30818914Y-75778342D01*
X30793322Y-75773251D01*
X30673918Y-75749500D01*
X30526082Y-75749500D01*
X30526081Y-75749500D01*
X30381085Y-75778342D01*
X30244506Y-75834915D01*
X30121585Y-75917048D01*
X30017048Y-76021585D01*
X29934915Y-76144506D01*
X29878342Y-76281085D01*
X29849500Y-76426081D01*
X19729999Y-76426081D01*
X19729999Y-76270000D01*
X20179999Y-76270000D01*
X20180000Y-76269999D01*
X20180000Y-76086283D01*
X20179999Y-76086279D01*
X20147335Y-75922065D01*
X20083260Y-75767374D01*
X19990240Y-75628159D01*
X19871840Y-75509759D01*
X19732625Y-75416739D01*
X19577934Y-75352664D01*
X19577928Y-75352662D01*
X19530001Y-75343128D01*
X19530000Y-75343129D01*
X19530000Y-75923590D01*
X19484394Y-75897260D01*
X19382661Y-75870001D01*
X19277339Y-75870001D01*
X19175606Y-75897260D01*
X19130000Y-75923590D01*
X19130000Y-75343129D01*
X19129998Y-75343128D01*
X19082071Y-75352662D01*
X19082065Y-75352664D01*
X18927374Y-75416739D01*
X18788159Y-75509759D01*
X18669759Y-75628159D01*
X18576739Y-75767374D01*
X18512664Y-75922065D01*
X18480000Y-76086279D01*
X11519999Y-76086279D01*
X11487335Y-75922065D01*
X11423260Y-75767374D01*
X11330240Y-75628159D01*
X11211840Y-75509759D01*
X11072625Y-75416739D01*
X10917934Y-75352664D01*
X10917928Y-75352662D01*
X10870001Y-75343128D01*
X10870000Y-75343129D01*
X10870000Y-75923590D01*
X10824394Y-75897260D01*
X10722661Y-75870001D01*
X10617339Y-75870001D01*
X10515606Y-75897260D01*
X10470000Y-75923590D01*
X10470000Y-75343129D01*
X10469998Y-75343128D01*
X10422071Y-75352662D01*
X10422065Y-75352664D01*
X10267374Y-75416739D01*
X10128159Y-75509759D01*
X10009759Y-75628159D01*
X9916739Y-75767374D01*
X9852664Y-75922065D01*
X9820000Y-76086279D01*
X6100500Y-76086279D01*
X6100500Y-75862326D01*
X6064560Y-75589334D01*
X5993295Y-75323368D01*
X5983615Y-75299999D01*
X44417341Y-75299999D01*
X44417342Y-75300000D01*
X45188124Y-75300000D01*
X45184078Y-75307008D01*
X45150003Y-75434174D01*
X45150003Y-75565826D01*
X45184078Y-75692992D01*
X45188124Y-75700000D01*
X44417341Y-75700000D01*
X44428316Y-75769289D01*
X44484250Y-75941440D01*
X44566431Y-76102730D01*
X44566433Y-76102734D01*
X44672824Y-76249169D01*
X44800830Y-76377175D01*
X44947265Y-76483566D01*
X44947269Y-76483568D01*
X45108559Y-76565749D01*
X45280710Y-76621683D01*
X45459490Y-76650000D01*
X46449999Y-76650000D01*
X46450000Y-76649999D01*
X46450000Y-75999999D01*
X46850000Y-75999999D01*
X46850000Y-76649999D01*
X46850001Y-76650000D01*
X47840510Y-76650000D01*
X48019289Y-76621683D01*
X48191440Y-76565749D01*
X48352730Y-76483568D01*
X48352734Y-76483566D01*
X48499169Y-76377175D01*
X48627175Y-76249169D01*
X48733566Y-76102734D01*
X48733568Y-76102730D01*
X48815748Y-75941442D01*
X48841455Y-75862324D01*
X93899500Y-75862324D01*
X93899500Y-76137675D01*
X93914222Y-76249500D01*
X93935440Y-76410666D01*
X93954974Y-76483568D01*
X94006704Y-76676631D01*
X94112074Y-76931016D01*
X94249753Y-77169482D01*
X94346837Y-77296005D01*
X94417372Y-77387928D01*
X94612072Y-77582628D01*
X94830521Y-77750249D01*
X95068979Y-77887923D01*
X95068980Y-77887923D01*
X95068983Y-77887925D01*
X95087061Y-77895413D01*
X95323368Y-77993295D01*
X95589334Y-78064560D01*
X95862326Y-78100500D01*
X95862327Y-78100500D01*
X96137673Y-78100500D01*
X96137674Y-78100500D01*
X96410666Y-78064560D01*
X96676632Y-77993295D01*
X96931021Y-77887923D01*
X97169479Y-77750249D01*
X97387928Y-77582628D01*
X97582628Y-77387928D01*
X97750249Y-77169479D01*
X97887923Y-76931021D01*
X97993295Y-76676632D01*
X98064560Y-76410666D01*
X98100500Y-76137674D01*
X98100500Y-75862326D01*
X98064560Y-75589334D01*
X97993295Y-75323368D01*
X97963112Y-75250500D01*
X97887925Y-75068983D01*
X97881907Y-75058559D01*
X97750249Y-74830521D01*
X97582628Y-74612072D01*
X97387928Y-74417372D01*
X97169479Y-74249751D01*
X96931021Y-74112077D01*
X96931016Y-74112074D01*
X96676631Y-74006704D01*
X96555521Y-73974253D01*
X96410666Y-73935440D01*
X96410659Y-73935439D01*
X96137675Y-73899500D01*
X96137674Y-73899500D01*
X95862326Y-73899500D01*
X95862324Y-73899500D01*
X95589340Y-73935439D01*
X95589338Y-73935439D01*
X95589334Y-73935440D01*
X95488805Y-73962376D01*
X95323368Y-74006704D01*
X95068983Y-74112074D01*
X94830517Y-74249753D01*
X94612075Y-74417369D01*
X94417369Y-74612075D01*
X94249753Y-74830517D01*
X94112074Y-75068983D01*
X94006704Y-75323368D01*
X93976283Y-75436904D01*
X93935440Y-75589334D01*
X93935439Y-75589338D01*
X93935439Y-75589340D01*
X93899500Y-75862324D01*
X48841455Y-75862324D01*
X48852448Y-75828492D01*
X48852448Y-75828491D01*
X48871683Y-75769289D01*
X48882658Y-75700000D01*
X48111876Y-75700000D01*
X48115922Y-75692992D01*
X48149997Y-75565826D01*
X48149997Y-75434174D01*
X48115922Y-75307008D01*
X48111876Y-75300000D01*
X48882658Y-75300000D01*
X48882658Y-75299999D01*
X48871683Y-75230710D01*
X48815749Y-75058559D01*
X48733568Y-74897269D01*
X48733566Y-74897265D01*
X48627175Y-74750830D01*
X48499169Y-74622824D01*
X48352734Y-74516433D01*
X48352730Y-74516431D01*
X48191440Y-74434250D01*
X48019289Y-74378316D01*
X47840510Y-74350000D01*
X46850001Y-74350000D01*
X46850000Y-74350001D01*
X46850000Y-75000001D01*
X46450000Y-75000001D01*
X46450000Y-74350001D01*
X46449999Y-74350000D01*
X45459490Y-74350000D01*
X45280710Y-74378316D01*
X45108559Y-74434250D01*
X44947269Y-74516431D01*
X44947265Y-74516433D01*
X44800830Y-74622824D01*
X44672824Y-74750830D01*
X44566433Y-74897265D01*
X44566431Y-74897269D01*
X44484250Y-75058559D01*
X44428316Y-75230710D01*
X44417341Y-75299999D01*
X5983615Y-75299999D01*
X5963112Y-75250500D01*
X5887925Y-75068983D01*
X5881907Y-75058559D01*
X5750249Y-74830521D01*
X5582628Y-74612072D01*
X5387928Y-74417372D01*
X5169479Y-74249751D01*
X4931021Y-74112077D01*
X4931016Y-74112074D01*
X4676631Y-74006704D01*
X4555521Y-73974253D01*
X4410666Y-73935440D01*
X4410659Y-73935439D01*
X4137675Y-73899500D01*
X4137674Y-73899500D01*
X3862326Y-73899500D01*
X3862324Y-73899500D01*
X3589340Y-73935439D01*
X3589338Y-73935439D01*
X3589334Y-73935440D01*
X3488805Y-73962376D01*
X3323368Y-74006704D01*
X3068983Y-74112074D01*
X2830517Y-74249753D01*
X2612075Y-74417369D01*
X2417369Y-74612075D01*
X2249753Y-74830517D01*
X2112074Y-75068983D01*
X2006704Y-75323368D01*
X1976283Y-75436904D01*
X1935440Y-75589334D01*
X1935439Y-75589338D01*
X1935439Y-75589340D01*
X1899500Y-75862324D01*
X586813Y-75862324D01*
X569793Y-75785551D01*
X568293Y-75777046D01*
X543581Y-75589340D01*
X518184Y-75396433D01*
X517434Y-75387853D01*
X500594Y-75002152D01*
X500500Y-74997834D01*
X500500Y-71806279D01*
X9820000Y-71806279D01*
X9820000Y-72089999D01*
X9820001Y-72090000D01*
X10270001Y-72090000D01*
X10270001Y-72490000D01*
X9820001Y-72490000D01*
X9820000Y-72490001D01*
X9820000Y-72773720D01*
X9852664Y-72937934D01*
X9916739Y-73092625D01*
X10009759Y-73231840D01*
X10128159Y-73350240D01*
X10267374Y-73443260D01*
X10422065Y-73507335D01*
X10470000Y-73516870D01*
X10470000Y-72986409D01*
X10515606Y-73012740D01*
X10617339Y-73039999D01*
X10722661Y-73039999D01*
X10824394Y-73012740D01*
X10870000Y-72986409D01*
X10870000Y-73516869D01*
X10917934Y-73507335D01*
X11072625Y-73443260D01*
X11211840Y-73350240D01*
X11330240Y-73231840D01*
X11423260Y-73092625D01*
X11436581Y-73060464D01*
X11476316Y-73013937D01*
X11535811Y-72999652D01*
X11592339Y-73023065D01*
X11613782Y-73048847D01*
X11659487Y-73128010D01*
X11659489Y-73128012D01*
X11659491Y-73128015D01*
X11761985Y-73230509D01*
X11761987Y-73230510D01*
X11761989Y-73230512D01*
X11887511Y-73302982D01*
X11887512Y-73302982D01*
X11887515Y-73302984D01*
X12027525Y-73340500D01*
X12027526Y-73340500D01*
X12172474Y-73340500D01*
X12172475Y-73340500D01*
X12312485Y-73302984D01*
X12312487Y-73302982D01*
X12312489Y-73302982D01*
X12438010Y-73230512D01*
X12438010Y-73230511D01*
X12438015Y-73230509D01*
X12540509Y-73128015D01*
X12540512Y-73128010D01*
X12612982Y-73002489D01*
X12612982Y-73002487D01*
X12612984Y-73002485D01*
X12650500Y-72862475D01*
X12650500Y-72717525D01*
X17349500Y-72717525D01*
X17349500Y-72862475D01*
X17364123Y-72917048D01*
X17387017Y-73002489D01*
X17459487Y-73128010D01*
X17459489Y-73128012D01*
X17459491Y-73128015D01*
X17561985Y-73230509D01*
X17561987Y-73230510D01*
X17561989Y-73230512D01*
X17687511Y-73302982D01*
X17687512Y-73302982D01*
X17687515Y-73302984D01*
X17827525Y-73340500D01*
X17827526Y-73340500D01*
X17972474Y-73340500D01*
X17972475Y-73340500D01*
X18112485Y-73302984D01*
X18112487Y-73302982D01*
X18112489Y-73302982D01*
X18238010Y-73230512D01*
X18238010Y-73230511D01*
X18238015Y-73230509D01*
X18340509Y-73128015D01*
X18386217Y-73048845D01*
X18431686Y-73007906D01*
X18492536Y-73001510D01*
X18545524Y-73032103D01*
X18563417Y-73060462D01*
X18576738Y-73092623D01*
X18669759Y-73231840D01*
X18788159Y-73350240D01*
X18927374Y-73443260D01*
X19082065Y-73507335D01*
X19130000Y-73516870D01*
X19130000Y-72986409D01*
X19175606Y-73012740D01*
X19277339Y-73039999D01*
X19382661Y-73039999D01*
X19484394Y-73012740D01*
X19530000Y-72986409D01*
X19530000Y-73516869D01*
X19577934Y-73507335D01*
X19732625Y-73443260D01*
X19758335Y-73426081D01*
X29849500Y-73426081D01*
X29849500Y-74573918D01*
X29878342Y-74718914D01*
X29924570Y-74830517D01*
X29934916Y-74855495D01*
X30017049Y-74978416D01*
X30121584Y-75082951D01*
X30244505Y-75165084D01*
X30381087Y-75221658D01*
X30526082Y-75250500D01*
X30526083Y-75250500D01*
X30673917Y-75250500D01*
X30673918Y-75250500D01*
X30818913Y-75221658D01*
X30955495Y-75165084D01*
X31078416Y-75082951D01*
X31182951Y-74978416D01*
X31265084Y-74855495D01*
X31321658Y-74718913D01*
X31350500Y-74573918D01*
X31350500Y-73426082D01*
X31321658Y-73281087D01*
X31265084Y-73144505D01*
X31182951Y-73021584D01*
X31078416Y-72917049D01*
X30955495Y-72834916D01*
X30913075Y-72817345D01*
X30818914Y-72778342D01*
X30707052Y-72756091D01*
X30673918Y-72749500D01*
X30526082Y-72749500D01*
X30526081Y-72749500D01*
X30381085Y-72778342D01*
X30244506Y-72834915D01*
X30121585Y-72917048D01*
X30017048Y-73021585D01*
X29934915Y-73144506D01*
X29878342Y-73281085D01*
X29849500Y-73426081D01*
X19758335Y-73426081D01*
X19871840Y-73350240D01*
X19990240Y-73231840D01*
X20083260Y-73092625D01*
X20147335Y-72937934D01*
X20179999Y-72773720D01*
X20180000Y-72773716D01*
X20180000Y-72490001D01*
X20179999Y-72490000D01*
X19729999Y-72490000D01*
X19729999Y-72090000D01*
X20179999Y-72090000D01*
X20180000Y-72089999D01*
X20180000Y-71806283D01*
X20179999Y-71806279D01*
X20147334Y-71642064D01*
X20147334Y-71642062D01*
X20108892Y-71549254D01*
X20095213Y-71516230D01*
X32149500Y-71516230D01*
X32149500Y-71683769D01*
X32182183Y-71848079D01*
X32182185Y-71848085D01*
X32246296Y-72002862D01*
X32246297Y-72002863D01*
X32339374Y-72142162D01*
X32457838Y-72260626D01*
X32597137Y-72353703D01*
X32751918Y-72417816D01*
X32916233Y-72450500D01*
X32916234Y-72450500D01*
X33083766Y-72450500D01*
X33083767Y-72450500D01*
X33248082Y-72417816D01*
X33402863Y-72353703D01*
X33542162Y-72260626D01*
X33660626Y-72142162D01*
X33753703Y-72002863D01*
X33817816Y-71848082D01*
X33850500Y-71683767D01*
X33850500Y-71516233D01*
X33817816Y-71351918D01*
X33800241Y-71309489D01*
X50200000Y-71309489D01*
X50200000Y-72299999D01*
X50200001Y-72300000D01*
X50850001Y-72300000D01*
X50850001Y-72700000D01*
X50200001Y-72700000D01*
X50200000Y-72700001D01*
X50200000Y-73690510D01*
X50228316Y-73869289D01*
X50284250Y-74041440D01*
X50366431Y-74202730D01*
X50366433Y-74202734D01*
X50472824Y-74349169D01*
X50600830Y-74477175D01*
X50747265Y-74583566D01*
X50747269Y-74583568D01*
X50908559Y-74665749D01*
X51080710Y-74721683D01*
X51080711Y-74721684D01*
X51149999Y-74732657D01*
X51150000Y-74732656D01*
X51150000Y-73961875D01*
X51157008Y-73965922D01*
X51284174Y-73999997D01*
X51415826Y-73999997D01*
X51542992Y-73965922D01*
X51550000Y-73961875D01*
X51550000Y-74732657D01*
X51619288Y-74721684D01*
X51619289Y-74721683D01*
X51791440Y-74665749D01*
X51952730Y-74583568D01*
X51952734Y-74583566D01*
X52099169Y-74477175D01*
X52227175Y-74349169D01*
X52333566Y-74202734D01*
X52333568Y-74202730D01*
X52415749Y-74041440D01*
X52471683Y-73869289D01*
X52500000Y-73690510D01*
X52500000Y-72902129D01*
X68949500Y-72902129D01*
X68949500Y-75097866D01*
X68949501Y-75097870D01*
X68955908Y-75157480D01*
X68955909Y-75157485D01*
X69006202Y-75292329D01*
X69084144Y-75396445D01*
X69092454Y-75407546D01*
X69092457Y-75407548D01*
X69092458Y-75407549D01*
X69207670Y-75493797D01*
X69342511Y-75544089D01*
X69342512Y-75544089D01*
X69342517Y-75544091D01*
X69402127Y-75550500D01*
X71597872Y-75550499D01*
X71657483Y-75544091D01*
X71749532Y-75509759D01*
X71792329Y-75493797D01*
X71792329Y-75493796D01*
X71792331Y-75493796D01*
X71907546Y-75407546D01*
X71993796Y-75292331D01*
X72016115Y-75232492D01*
X72044089Y-75157488D01*
X72044090Y-75157485D01*
X72044091Y-75157483D01*
X72050500Y-75097873D01*
X72050499Y-73877969D01*
X73949500Y-73877969D01*
X73949500Y-74122030D01*
X73987677Y-74363071D01*
X74063096Y-74595185D01*
X74173892Y-74812637D01*
X74235378Y-74897265D01*
X74317345Y-75010083D01*
X74489917Y-75182655D01*
X74558512Y-75232492D01*
X74687362Y-75326107D01*
X74739480Y-75352662D01*
X74904815Y-75436904D01*
X75136924Y-75512321D01*
X75136925Y-75512321D01*
X75136928Y-75512322D01*
X75377970Y-75550500D01*
X75377973Y-75550500D01*
X75622030Y-75550500D01*
X75863071Y-75512322D01*
X75863072Y-75512321D01*
X75863076Y-75512321D01*
X76095185Y-75436904D01*
X76312639Y-75326106D01*
X76510083Y-75182655D01*
X76682655Y-75010083D01*
X76826106Y-74812639D01*
X76936904Y-74595185D01*
X77012321Y-74363076D01*
X77030270Y-74249753D01*
X77050500Y-74122030D01*
X77050500Y-73877969D01*
X77012322Y-73636928D01*
X76989219Y-73565824D01*
X76936904Y-73404815D01*
X76848769Y-73231840D01*
X76826107Y-73187362D01*
X76733910Y-73060464D01*
X76682655Y-72989917D01*
X76594867Y-72902129D01*
X82949500Y-72902129D01*
X82949500Y-75097866D01*
X82949501Y-75097870D01*
X82955908Y-75157480D01*
X82955909Y-75157485D01*
X83006202Y-75292329D01*
X83084144Y-75396445D01*
X83092454Y-75407546D01*
X83092457Y-75407548D01*
X83092458Y-75407549D01*
X83207670Y-75493797D01*
X83342511Y-75544089D01*
X83342512Y-75544089D01*
X83342517Y-75544091D01*
X83402127Y-75550500D01*
X85597872Y-75550499D01*
X85657483Y-75544091D01*
X85749532Y-75509759D01*
X85792329Y-75493797D01*
X85792329Y-75493796D01*
X85792331Y-75493796D01*
X85907546Y-75407546D01*
X85993796Y-75292331D01*
X86016115Y-75232492D01*
X86044089Y-75157488D01*
X86044090Y-75157485D01*
X86044091Y-75157483D01*
X86050500Y-75097873D01*
X86050499Y-73877969D01*
X87949500Y-73877969D01*
X87949500Y-74122030D01*
X87987677Y-74363071D01*
X88063096Y-74595185D01*
X88173892Y-74812637D01*
X88235378Y-74897265D01*
X88317345Y-75010083D01*
X88489917Y-75182655D01*
X88558512Y-75232492D01*
X88687362Y-75326107D01*
X88739480Y-75352662D01*
X88904815Y-75436904D01*
X89136924Y-75512321D01*
X89136925Y-75512321D01*
X89136928Y-75512322D01*
X89377970Y-75550500D01*
X89377973Y-75550500D01*
X89622030Y-75550500D01*
X89863071Y-75512322D01*
X89863072Y-75512321D01*
X89863076Y-75512321D01*
X90095185Y-75436904D01*
X90312639Y-75326106D01*
X90510083Y-75182655D01*
X90682655Y-75010083D01*
X90826106Y-74812639D01*
X90936904Y-74595185D01*
X91012321Y-74363076D01*
X91030270Y-74249753D01*
X91050500Y-74122030D01*
X91050500Y-73877969D01*
X91012322Y-73636928D01*
X90989219Y-73565824D01*
X90936904Y-73404815D01*
X90848769Y-73231840D01*
X90826107Y-73187362D01*
X90733910Y-73060464D01*
X90682655Y-72989917D01*
X90510083Y-72817345D01*
X90359128Y-72707670D01*
X90312637Y-72673892D01*
X90095185Y-72563096D01*
X89863071Y-72487677D01*
X89622030Y-72449500D01*
X89622027Y-72449500D01*
X89377973Y-72449500D01*
X89377970Y-72449500D01*
X89136928Y-72487677D01*
X88904814Y-72563096D01*
X88687362Y-72673892D01*
X88489918Y-72817344D01*
X88317344Y-72989918D01*
X88173892Y-73187362D01*
X88063096Y-73404814D01*
X87987677Y-73636928D01*
X87949500Y-73877969D01*
X86050499Y-73877969D01*
X86050499Y-72902128D01*
X86044091Y-72842517D01*
X86041256Y-72834915D01*
X85993797Y-72707670D01*
X85907549Y-72592458D01*
X85907548Y-72592457D01*
X85907546Y-72592454D01*
X85887590Y-72577515D01*
X85792329Y-72506202D01*
X85657488Y-72455910D01*
X85657483Y-72455909D01*
X85657481Y-72455908D01*
X85657477Y-72455908D01*
X85620995Y-72451986D01*
X85597873Y-72449500D01*
X85597870Y-72449500D01*
X83402133Y-72449500D01*
X83402129Y-72449500D01*
X83402128Y-72449501D01*
X83394949Y-72450272D01*
X83342519Y-72455908D01*
X83342514Y-72455909D01*
X83207670Y-72506202D01*
X83092458Y-72592450D01*
X83092450Y-72592458D01*
X83006202Y-72707670D01*
X82955910Y-72842511D01*
X82955908Y-72842522D01*
X82949500Y-72902129D01*
X76594867Y-72902129D01*
X76510083Y-72817345D01*
X76359128Y-72707670D01*
X76312637Y-72673892D01*
X76095185Y-72563096D01*
X75863071Y-72487677D01*
X75622030Y-72449500D01*
X75622027Y-72449500D01*
X75377973Y-72449500D01*
X75377970Y-72449500D01*
X75136928Y-72487677D01*
X74904814Y-72563096D01*
X74687362Y-72673892D01*
X74489918Y-72817344D01*
X74317344Y-72989918D01*
X74173892Y-73187362D01*
X74063096Y-73404814D01*
X73987677Y-73636928D01*
X73949500Y-73877969D01*
X72050499Y-73877969D01*
X72050499Y-72902128D01*
X72044091Y-72842517D01*
X72041256Y-72834915D01*
X71993797Y-72707670D01*
X71907549Y-72592458D01*
X71907548Y-72592457D01*
X71907546Y-72592454D01*
X71887590Y-72577515D01*
X71792329Y-72506202D01*
X71657488Y-72455910D01*
X71657483Y-72455909D01*
X71657481Y-72455908D01*
X71657477Y-72455908D01*
X71620995Y-72451986D01*
X71597873Y-72449500D01*
X71597870Y-72449500D01*
X69402133Y-72449500D01*
X69402129Y-72449500D01*
X69402128Y-72449501D01*
X69394949Y-72450272D01*
X69342519Y-72455908D01*
X69342514Y-72455909D01*
X69207670Y-72506202D01*
X69092458Y-72592450D01*
X69092450Y-72592458D01*
X69006202Y-72707670D01*
X68955910Y-72842511D01*
X68955908Y-72842522D01*
X68949500Y-72902129D01*
X52500000Y-72902129D01*
X52500000Y-72700001D01*
X52499999Y-72700000D01*
X51849999Y-72700000D01*
X51849999Y-72300000D01*
X52499999Y-72300000D01*
X52500000Y-72299999D01*
X52500000Y-71309489D01*
X52471683Y-71130710D01*
X52415749Y-70958559D01*
X52333568Y-70797269D01*
X52333566Y-70797265D01*
X52227175Y-70650830D01*
X52099169Y-70522824D01*
X51952734Y-70416433D01*
X51952730Y-70416431D01*
X51791440Y-70334250D01*
X51619289Y-70278316D01*
X51550000Y-70267341D01*
X51550000Y-71038124D01*
X51542992Y-71034078D01*
X51415826Y-71000003D01*
X51284174Y-71000003D01*
X51157008Y-71034078D01*
X51150000Y-71038124D01*
X51150000Y-70267342D01*
X51149999Y-70267341D01*
X51080710Y-70278316D01*
X50908559Y-70334250D01*
X50747269Y-70416431D01*
X50747265Y-70416433D01*
X50600830Y-70522824D01*
X50472824Y-70650830D01*
X50366433Y-70797265D01*
X50366431Y-70797269D01*
X50284250Y-70958559D01*
X50228316Y-71130710D01*
X50200000Y-71309489D01*
X33800241Y-71309489D01*
X33753703Y-71197137D01*
X33660626Y-71057838D01*
X33542162Y-70939374D01*
X33402863Y-70846297D01*
X33402864Y-70846297D01*
X33402862Y-70846296D01*
X33248085Y-70782185D01*
X33248079Y-70782183D01*
X33083769Y-70749500D01*
X33083767Y-70749500D01*
X32916233Y-70749500D01*
X32916230Y-70749500D01*
X32751920Y-70782183D01*
X32751914Y-70782185D01*
X32597137Y-70846296D01*
X32457838Y-70939374D01*
X32457834Y-70939377D01*
X32339377Y-71057834D01*
X32339374Y-71057838D01*
X32246296Y-71197137D01*
X32182185Y-71351914D01*
X32182184Y-71351918D01*
X32149500Y-71516230D01*
X20095213Y-71516230D01*
X20083260Y-71487374D01*
X19990240Y-71348159D01*
X19871840Y-71229759D01*
X19732625Y-71136739D01*
X19577934Y-71072664D01*
X19577928Y-71072662D01*
X19530001Y-71063128D01*
X19530000Y-71063129D01*
X19530000Y-71593590D01*
X19484394Y-71567260D01*
X19382661Y-71540001D01*
X19277339Y-71540001D01*
X19175606Y-71567260D01*
X19130000Y-71593590D01*
X19130000Y-71063129D01*
X19129998Y-71063128D01*
X19082071Y-71072662D01*
X19082065Y-71072664D01*
X18927374Y-71136739D01*
X18788159Y-71229759D01*
X18669759Y-71348159D01*
X18576739Y-71487374D01*
X18512664Y-71642065D01*
X18480000Y-71806279D01*
X18480000Y-72089999D01*
X18480001Y-72090000D01*
X18930001Y-72090000D01*
X18930001Y-72490000D01*
X18463912Y-72490000D01*
X18442190Y-72501067D01*
X18381758Y-72491493D01*
X18345065Y-72456669D01*
X18344460Y-72457134D01*
X18341523Y-72453306D01*
X18340967Y-72452779D01*
X18340511Y-72451989D01*
X18340509Y-72451985D01*
X18238015Y-72349491D01*
X18238012Y-72349489D01*
X18238010Y-72349487D01*
X18112488Y-72277017D01*
X18112489Y-72277017D01*
X18051317Y-72260626D01*
X17972475Y-72239500D01*
X17827525Y-72239500D01*
X17765790Y-72256041D01*
X17687510Y-72277017D01*
X17561989Y-72349487D01*
X17459487Y-72451989D01*
X17387017Y-72577510D01*
X17361191Y-72673894D01*
X17349500Y-72717525D01*
X12650500Y-72717525D01*
X12612984Y-72577515D01*
X12612982Y-72577512D01*
X12612982Y-72577510D01*
X12540512Y-72451989D01*
X12540510Y-72451987D01*
X12540509Y-72451985D01*
X12438015Y-72349491D01*
X12438012Y-72349489D01*
X12438010Y-72349487D01*
X12312488Y-72277017D01*
X12312489Y-72277017D01*
X12251317Y-72260626D01*
X12172475Y-72239500D01*
X12027525Y-72239500D01*
X11965790Y-72256041D01*
X11887510Y-72277017D01*
X11761989Y-72349487D01*
X11659487Y-72451989D01*
X11659026Y-72452789D01*
X11658534Y-72453231D01*
X11655540Y-72457134D01*
X11654816Y-72456578D01*
X11613555Y-72493728D01*
X11552704Y-72500121D01*
X11534064Y-72490000D01*
X11069999Y-72490000D01*
X11069999Y-72090000D01*
X11519999Y-72090000D01*
X11520000Y-72089999D01*
X11520000Y-71806283D01*
X11519999Y-71806279D01*
X11487335Y-71642065D01*
X11423260Y-71487374D01*
X11330240Y-71348159D01*
X11211840Y-71229759D01*
X11072625Y-71136739D01*
X10917934Y-71072664D01*
X10917928Y-71072662D01*
X10870001Y-71063128D01*
X10870000Y-71063129D01*
X10870000Y-71593590D01*
X10824394Y-71567260D01*
X10722661Y-71540001D01*
X10617339Y-71540001D01*
X10515606Y-71567260D01*
X10470000Y-71593590D01*
X10470000Y-71063129D01*
X10469998Y-71063128D01*
X10422071Y-71072662D01*
X10422065Y-71072664D01*
X10267374Y-71136739D01*
X10128159Y-71229759D01*
X10009759Y-71348159D01*
X9916739Y-71487374D01*
X9852664Y-71642065D01*
X9820000Y-71806279D01*
X500500Y-71806279D01*
X500500Y-69426081D01*
X29849500Y-69426081D01*
X29849500Y-70573918D01*
X29878342Y-70718914D01*
X29931106Y-70846297D01*
X29934916Y-70855495D01*
X30017049Y-70978416D01*
X30121584Y-71082951D01*
X30244505Y-71165084D01*
X30381087Y-71221658D01*
X30526082Y-71250500D01*
X30526083Y-71250500D01*
X30673917Y-71250500D01*
X30673918Y-71250500D01*
X30818913Y-71221658D01*
X30955495Y-71165084D01*
X31078416Y-71082951D01*
X31182951Y-70978416D01*
X31265084Y-70855495D01*
X31321658Y-70718913D01*
X31350500Y-70573918D01*
X31350500Y-69426082D01*
X31321658Y-69281087D01*
X31291044Y-69207178D01*
X31286778Y-69196878D01*
X31265084Y-69144506D01*
X31265084Y-69144505D01*
X31182951Y-69021584D01*
X31078416Y-68917049D01*
X30955495Y-68834916D01*
X30955493Y-68834915D01*
X30818914Y-68778342D01*
X30673918Y-68749500D01*
X30526082Y-68749500D01*
X30526081Y-68749500D01*
X30381085Y-68778342D01*
X30244506Y-68834915D01*
X30121585Y-68917048D01*
X30017048Y-69021585D01*
X29934915Y-69144506D01*
X29878342Y-69281085D01*
X29849500Y-69426081D01*
X500500Y-69426081D01*
X500500Y-68426128D01*
X34650000Y-68426128D01*
X34650000Y-68799999D01*
X34650001Y-68800000D01*
X35149988Y-68800000D01*
X35149988Y-69200000D01*
X34650001Y-69200000D01*
X34650000Y-69200001D01*
X34650000Y-69573871D01*
X34678821Y-69718764D01*
X34678823Y-69718770D01*
X34735358Y-69855257D01*
X34817434Y-69978093D01*
X34921906Y-70082565D01*
X35044742Y-70164641D01*
X35181231Y-70221177D01*
X35200000Y-70224909D01*
X35200000Y-69653557D01*
X35258380Y-69711937D01*
X35350270Y-69749999D01*
X35449730Y-69749999D01*
X35541620Y-69711937D01*
X35600000Y-69653557D01*
X35600000Y-70224909D01*
X35618768Y-70221177D01*
X35755257Y-70164641D01*
X35878093Y-70082565D01*
X35982565Y-69978093D01*
X36064641Y-69855257D01*
X36121176Y-69718770D01*
X36121178Y-69718764D01*
X36149999Y-69573871D01*
X36150000Y-69573867D01*
X36150000Y-69401579D01*
X44149500Y-69401579D01*
X44149500Y-69598420D01*
X44180289Y-69792821D01*
X44180291Y-69792826D01*
X44241116Y-69980025D01*
X44330476Y-70155405D01*
X44446172Y-70314646D01*
X44585354Y-70453828D01*
X44744595Y-70569524D01*
X44919975Y-70658884D01*
X45107174Y-70719709D01*
X45107175Y-70719709D01*
X45107178Y-70719710D01*
X45301580Y-70750500D01*
X45301583Y-70750500D01*
X47998420Y-70750500D01*
X48192821Y-70719710D01*
X48192822Y-70719709D01*
X48192826Y-70719709D01*
X48380025Y-70658884D01*
X48555405Y-70569524D01*
X48714646Y-70453828D01*
X48853828Y-70314646D01*
X48969524Y-70155405D01*
X49058884Y-69980025D01*
X49119709Y-69792826D01*
X49131439Y-69718764D01*
X49150500Y-69598420D01*
X49150500Y-69401579D01*
X49119710Y-69207178D01*
X49117378Y-69200000D01*
X49058884Y-69019975D01*
X48969524Y-68844595D01*
X48853828Y-68685354D01*
X48714646Y-68546172D01*
X48555405Y-68430476D01*
X48555404Y-68430475D01*
X48555402Y-68430474D01*
X48380025Y-68341116D01*
X48192821Y-68280289D01*
X47998420Y-68249500D01*
X47998417Y-68249500D01*
X45301583Y-68249500D01*
X45301580Y-68249500D01*
X45107178Y-68280289D01*
X44919974Y-68341116D01*
X44744597Y-68430474D01*
X44585355Y-68546171D01*
X44446171Y-68685355D01*
X44330474Y-68844597D01*
X44241116Y-69019974D01*
X44180289Y-69207178D01*
X44149500Y-69401579D01*
X36150000Y-69401579D01*
X36150000Y-69200001D01*
X36149999Y-69200000D01*
X35650012Y-69200000D01*
X35650012Y-68800000D01*
X36149999Y-68800000D01*
X36150000Y-68799999D01*
X36150000Y-68426132D01*
X36149999Y-68426128D01*
X36121178Y-68281235D01*
X36121176Y-68281229D01*
X36064641Y-68144742D01*
X35982565Y-68021906D01*
X35878093Y-67917434D01*
X35755257Y-67835358D01*
X35618770Y-67778823D01*
X35618764Y-67778821D01*
X35600000Y-67775089D01*
X35600000Y-68346443D01*
X35541620Y-68288063D01*
X35449730Y-68250001D01*
X35350270Y-68250001D01*
X35258380Y-68288063D01*
X35200000Y-68346443D01*
X35200000Y-67775089D01*
X35181235Y-67778821D01*
X35181229Y-67778823D01*
X35044742Y-67835358D01*
X34921906Y-67917434D01*
X34817434Y-68021906D01*
X34735358Y-68144742D01*
X34678823Y-68281229D01*
X34678821Y-68281235D01*
X34650000Y-68426128D01*
X500500Y-68426128D01*
X500500Y-64927525D01*
X11774500Y-64927525D01*
X11774500Y-65072475D01*
X11804087Y-65182896D01*
X11812017Y-65212489D01*
X11884487Y-65338010D01*
X11884489Y-65338012D01*
X11884491Y-65338015D01*
X11986985Y-65440509D01*
X11986987Y-65440510D01*
X11986989Y-65440512D01*
X12112511Y-65512982D01*
X12112512Y-65512982D01*
X12112515Y-65512984D01*
X12252525Y-65550500D01*
X12252526Y-65550500D01*
X12397474Y-65550500D01*
X12397475Y-65550500D01*
X12537485Y-65512984D01*
X12537487Y-65512982D01*
X12537489Y-65512982D01*
X12663010Y-65440512D01*
X12663010Y-65440511D01*
X12663015Y-65440509D01*
X12765509Y-65338015D01*
X12837984Y-65212485D01*
X12875500Y-65072475D01*
X12875500Y-64927525D01*
X18449500Y-64927525D01*
X18449500Y-65072475D01*
X18479087Y-65182896D01*
X18487017Y-65212489D01*
X18559487Y-65338010D01*
X18559489Y-65338012D01*
X18559491Y-65338015D01*
X18661985Y-65440509D01*
X18661987Y-65440510D01*
X18661989Y-65440512D01*
X18787511Y-65512982D01*
X18787512Y-65512982D01*
X18787515Y-65512984D01*
X18927525Y-65550500D01*
X18927526Y-65550500D01*
X19072474Y-65550500D01*
X19072475Y-65550500D01*
X19212485Y-65512984D01*
X19212487Y-65512982D01*
X19212489Y-65512982D01*
X19338010Y-65440512D01*
X19338010Y-65440511D01*
X19338015Y-65440509D01*
X19440509Y-65338015D01*
X19512984Y-65212485D01*
X19550500Y-65072475D01*
X19550500Y-64927525D01*
X19526384Y-64837525D01*
X25089500Y-64837525D01*
X25089500Y-64982474D01*
X25127017Y-65122489D01*
X25199487Y-65248010D01*
X25199489Y-65248012D01*
X25199491Y-65248015D01*
X25301985Y-65350509D01*
X25301987Y-65350510D01*
X25301989Y-65350512D01*
X25427511Y-65422982D01*
X25427512Y-65422982D01*
X25427515Y-65422984D01*
X25567525Y-65460500D01*
X25567526Y-65460500D01*
X25712474Y-65460500D01*
X25712475Y-65460500D01*
X25852485Y-65422984D01*
X25852487Y-65422982D01*
X25852489Y-65422982D01*
X25978010Y-65350512D01*
X25978010Y-65350511D01*
X25978015Y-65350509D01*
X26080509Y-65248015D01*
X26152984Y-65122485D01*
X26190500Y-64982475D01*
X26190500Y-64837525D01*
X26152984Y-64697515D01*
X26152982Y-64697512D01*
X26152982Y-64697510D01*
X26080512Y-64571989D01*
X26080510Y-64571987D01*
X26080509Y-64571985D01*
X25978015Y-64469491D01*
X25978012Y-64469489D01*
X25978010Y-64469487D01*
X25869384Y-64406772D01*
X25869383Y-64406772D01*
X25852487Y-64397017D01*
X25852486Y-64397016D01*
X25852485Y-64397016D01*
X25712475Y-64359500D01*
X25567525Y-64359500D01*
X25505790Y-64376041D01*
X25427510Y-64397017D01*
X25301989Y-64469487D01*
X25199487Y-64571989D01*
X25127017Y-64697510D01*
X25089500Y-64837525D01*
X19526384Y-64837525D01*
X19512984Y-64787515D01*
X19512981Y-64787509D01*
X19440512Y-64661989D01*
X19440510Y-64661987D01*
X19440509Y-64661985D01*
X19338015Y-64559491D01*
X19338012Y-64559489D01*
X19338010Y-64559487D01*
X19212488Y-64487017D01*
X19212489Y-64487017D01*
X19158214Y-64472474D01*
X19072475Y-64449500D01*
X18927525Y-64449500D01*
X18865790Y-64466041D01*
X18787510Y-64487017D01*
X18661989Y-64559487D01*
X18559487Y-64661989D01*
X18487017Y-64787510D01*
X18472816Y-64840509D01*
X18449500Y-64927525D01*
X12875500Y-64927525D01*
X12837984Y-64787515D01*
X12837982Y-64787512D01*
X12837982Y-64787510D01*
X12765512Y-64661989D01*
X12765510Y-64661987D01*
X12765509Y-64661985D01*
X12663015Y-64559491D01*
X12663012Y-64559489D01*
X12663010Y-64559487D01*
X12537488Y-64487017D01*
X12537489Y-64487017D01*
X12483214Y-64472474D01*
X12397475Y-64449500D01*
X12252525Y-64449500D01*
X12190790Y-64466041D01*
X12112510Y-64487017D01*
X11986989Y-64559487D01*
X11884487Y-64661989D01*
X11812017Y-64787510D01*
X11797816Y-64840509D01*
X11774500Y-64927525D01*
X500500Y-64927525D01*
X500500Y-64327525D01*
X30049500Y-64327525D01*
X30049500Y-64472475D01*
X30053397Y-64487017D01*
X30087017Y-64612489D01*
X30159487Y-64738010D01*
X30159489Y-64738012D01*
X30159491Y-64738015D01*
X30261985Y-64840509D01*
X30261987Y-64840510D01*
X30261989Y-64840512D01*
X30387511Y-64912982D01*
X30387512Y-64912982D01*
X30387515Y-64912984D01*
X30527525Y-64950500D01*
X30527526Y-64950500D01*
X30672474Y-64950500D01*
X30672475Y-64950500D01*
X30812485Y-64912984D01*
X30812487Y-64912982D01*
X30812489Y-64912982D01*
X30938010Y-64840512D01*
X30938010Y-64840511D01*
X30938015Y-64840509D01*
X31040509Y-64738015D01*
X31112984Y-64612485D01*
X31150500Y-64472475D01*
X31150500Y-64327525D01*
X31112984Y-64187515D01*
X31112982Y-64187512D01*
X31112982Y-64187510D01*
X31040512Y-64061989D01*
X31040510Y-64061987D01*
X31040509Y-64061985D01*
X30938015Y-63959491D01*
X30938012Y-63959489D01*
X30938010Y-63959487D01*
X30880149Y-63926081D01*
X52249500Y-63926081D01*
X52249500Y-63926082D01*
X52249500Y-64073918D01*
X52278342Y-64218913D01*
X52334916Y-64355495D01*
X52417049Y-64478416D01*
X52521584Y-64582951D01*
X52644505Y-64665084D01*
X52781087Y-64721658D01*
X52926082Y-64750500D01*
X52926083Y-64750500D01*
X53073917Y-64750500D01*
X53073918Y-64750500D01*
X53218913Y-64721658D01*
X53355495Y-64665084D01*
X53478416Y-64582951D01*
X53582951Y-64478416D01*
X53665084Y-64355495D01*
X53721658Y-64218913D01*
X53750500Y-64073918D01*
X53750500Y-63926082D01*
X53721658Y-63781087D01*
X53665084Y-63644505D01*
X53582951Y-63521584D01*
X53478416Y-63417049D01*
X53355495Y-63334916D01*
X53355493Y-63334915D01*
X53218914Y-63278342D01*
X53073918Y-63249500D01*
X52926082Y-63249500D01*
X52926081Y-63249500D01*
X52781085Y-63278342D01*
X52644506Y-63334915D01*
X52521585Y-63417048D01*
X52417048Y-63521585D01*
X52334915Y-63644506D01*
X52278342Y-63781085D01*
X52249500Y-63926081D01*
X30880149Y-63926081D01*
X30812488Y-63887017D01*
X30812489Y-63887017D01*
X30782896Y-63879087D01*
X30672475Y-63849500D01*
X30527525Y-63849500D01*
X30465790Y-63866041D01*
X30387510Y-63887017D01*
X30261989Y-63959487D01*
X30159487Y-64061989D01*
X30087017Y-64187510D01*
X30049500Y-64327525D01*
X500500Y-64327525D01*
X500500Y-62927525D01*
X13449500Y-62927525D01*
X13449500Y-63072474D01*
X13487017Y-63212489D01*
X13559487Y-63338010D01*
X13559489Y-63338012D01*
X13559491Y-63338015D01*
X13661985Y-63440509D01*
X13661987Y-63440510D01*
X13661989Y-63440512D01*
X13787511Y-63512982D01*
X13787512Y-63512982D01*
X13787515Y-63512984D01*
X13927525Y-63550500D01*
X13927526Y-63550500D01*
X14072474Y-63550500D01*
X14072475Y-63550500D01*
X14212485Y-63512984D01*
X14212487Y-63512982D01*
X14212489Y-63512982D01*
X14338010Y-63440512D01*
X14338010Y-63440511D01*
X14338015Y-63440509D01*
X14440509Y-63338015D01*
X14442299Y-63334915D01*
X14512982Y-63212489D01*
X14512982Y-63212487D01*
X14512984Y-63212485D01*
X14550500Y-63072475D01*
X14550500Y-62927525D01*
X14512984Y-62787515D01*
X14512982Y-62787512D01*
X14512982Y-62787510D01*
X14440512Y-62661989D01*
X14440510Y-62661987D01*
X14440509Y-62661985D01*
X14338015Y-62559491D01*
X14338012Y-62559489D01*
X14338010Y-62559487D01*
X14212488Y-62487017D01*
X14212489Y-62487017D01*
X14180382Y-62478414D01*
X14072475Y-62449500D01*
X13927525Y-62449500D01*
X13865790Y-62466041D01*
X13787510Y-62487017D01*
X13661989Y-62559487D01*
X13559487Y-62661989D01*
X13487017Y-62787510D01*
X13449500Y-62927525D01*
X500500Y-62927525D01*
X500500Y-61926082D01*
X60249500Y-61926082D01*
X60249500Y-62073918D01*
X60278342Y-62218913D01*
X60334916Y-62355495D01*
X60417049Y-62478416D01*
X60521584Y-62582951D01*
X60644505Y-62665084D01*
X60781087Y-62721658D01*
X60926082Y-62750500D01*
X60926083Y-62750500D01*
X61073917Y-62750500D01*
X61073918Y-62750500D01*
X61218913Y-62721658D01*
X61355495Y-62665084D01*
X61478416Y-62582951D01*
X61582951Y-62478416D01*
X61665084Y-62355495D01*
X61721658Y-62218913D01*
X61750500Y-62073918D01*
X61750500Y-61926082D01*
X61721658Y-61781087D01*
X61665084Y-61644505D01*
X61582951Y-61521584D01*
X61478416Y-61417049D01*
X61355495Y-61334916D01*
X61355493Y-61334915D01*
X61218914Y-61278342D01*
X61073918Y-61249500D01*
X60926082Y-61249500D01*
X60926081Y-61249500D01*
X60781085Y-61278342D01*
X60644506Y-61334915D01*
X60521585Y-61417048D01*
X60417048Y-61521585D01*
X60334915Y-61644506D01*
X60278342Y-61781085D01*
X60278342Y-61781087D01*
X60249500Y-61926082D01*
X500500Y-61926082D01*
X500500Y-60926081D01*
X80249500Y-60926081D01*
X80249500Y-61073918D01*
X80278342Y-61218914D01*
X80326392Y-61334916D01*
X80334916Y-61355495D01*
X80417049Y-61478416D01*
X80521584Y-61582951D01*
X80644505Y-61665084D01*
X80781087Y-61721658D01*
X80926082Y-61750500D01*
X80926083Y-61750500D01*
X81073917Y-61750500D01*
X81073918Y-61750500D01*
X81218913Y-61721658D01*
X81355495Y-61665084D01*
X81478416Y-61582951D01*
X81582951Y-61478416D01*
X81665084Y-61355495D01*
X81721658Y-61218913D01*
X81750500Y-61073918D01*
X81750500Y-60926082D01*
X81750500Y-60926081D01*
X91249500Y-60926081D01*
X91249500Y-61073918D01*
X91278342Y-61218914D01*
X91326392Y-61334916D01*
X91334916Y-61355495D01*
X91417049Y-61478416D01*
X91521584Y-61582951D01*
X91644505Y-61665084D01*
X91781087Y-61721658D01*
X91926082Y-61750500D01*
X91926083Y-61750500D01*
X92073917Y-61750500D01*
X92073918Y-61750500D01*
X92218913Y-61721658D01*
X92355495Y-61665084D01*
X92478416Y-61582951D01*
X92582951Y-61478416D01*
X92665084Y-61355495D01*
X92721658Y-61218913D01*
X92750500Y-61073918D01*
X92750500Y-60926082D01*
X92721658Y-60781087D01*
X92665084Y-60644505D01*
X92582951Y-60521584D01*
X92478416Y-60417049D01*
X92355495Y-60334916D01*
X92355493Y-60334915D01*
X92218914Y-60278342D01*
X92073918Y-60249500D01*
X91926082Y-60249500D01*
X91926081Y-60249500D01*
X91781085Y-60278342D01*
X91644506Y-60334915D01*
X91521585Y-60417048D01*
X91417048Y-60521585D01*
X91334915Y-60644506D01*
X91278342Y-60781085D01*
X91249500Y-60926081D01*
X81750500Y-60926081D01*
X81721658Y-60781087D01*
X81665084Y-60644505D01*
X81582951Y-60521584D01*
X81478416Y-60417049D01*
X81355495Y-60334916D01*
X81355493Y-60334915D01*
X81218914Y-60278342D01*
X81073918Y-60249500D01*
X80926082Y-60249500D01*
X80926081Y-60249500D01*
X80781085Y-60278342D01*
X80644506Y-60334915D01*
X80521585Y-60417048D01*
X80417048Y-60521585D01*
X80334915Y-60644506D01*
X80278342Y-60781085D01*
X80249500Y-60926081D01*
X500500Y-60926081D01*
X500500Y-59926081D01*
X36249500Y-59926081D01*
X36249500Y-60073918D01*
X36278342Y-60218914D01*
X36326392Y-60334916D01*
X36334916Y-60355495D01*
X36417049Y-60478416D01*
X36521584Y-60582951D01*
X36644505Y-60665084D01*
X36781087Y-60721658D01*
X36926082Y-60750500D01*
X36926083Y-60750500D01*
X37073917Y-60750500D01*
X37073918Y-60750500D01*
X37218913Y-60721658D01*
X37355495Y-60665084D01*
X37478416Y-60582951D01*
X37582951Y-60478416D01*
X37665084Y-60355495D01*
X37721658Y-60218913D01*
X37750500Y-60073918D01*
X37750500Y-59935930D01*
X51349500Y-59935930D01*
X51349500Y-60064069D01*
X51374499Y-60189742D01*
X51374500Y-60189747D01*
X51423534Y-60308125D01*
X51423538Y-60308133D01*
X51455184Y-60355493D01*
X51494724Y-60414669D01*
X51585331Y-60505276D01*
X51648848Y-60547717D01*
X51691866Y-60576461D01*
X51691870Y-60576463D01*
X51691873Y-60576465D01*
X51810256Y-60625501D01*
X51935931Y-60650500D01*
X51935932Y-60650500D01*
X52064068Y-60650500D01*
X52064069Y-60650500D01*
X52189744Y-60625501D01*
X52308127Y-60576465D01*
X52414669Y-60505276D01*
X52505276Y-60414669D01*
X52576465Y-60308127D01*
X52625501Y-60189744D01*
X52650500Y-60064069D01*
X52650500Y-59935931D01*
X52648541Y-59926081D01*
X73249500Y-59926081D01*
X73249500Y-60073918D01*
X73278342Y-60218914D01*
X73326392Y-60334916D01*
X73334916Y-60355495D01*
X73417049Y-60478416D01*
X73521584Y-60582951D01*
X73644505Y-60665084D01*
X73781087Y-60721658D01*
X73926082Y-60750500D01*
X73926083Y-60750500D01*
X74073917Y-60750500D01*
X74073918Y-60750500D01*
X74218913Y-60721658D01*
X74355495Y-60665084D01*
X74478416Y-60582951D01*
X74582951Y-60478416D01*
X74665084Y-60355495D01*
X74721658Y-60218913D01*
X74750500Y-60073918D01*
X74750500Y-59926082D01*
X74721658Y-59781087D01*
X74665084Y-59644505D01*
X74582951Y-59521584D01*
X74478416Y-59417049D01*
X74355495Y-59334916D01*
X74355493Y-59334915D01*
X74218914Y-59278342D01*
X74073918Y-59249500D01*
X73926082Y-59249500D01*
X73926081Y-59249500D01*
X73781085Y-59278342D01*
X73644506Y-59334915D01*
X73521585Y-59417048D01*
X73417048Y-59521585D01*
X73334915Y-59644506D01*
X73278342Y-59781085D01*
X73249500Y-59926081D01*
X52648541Y-59926081D01*
X52625501Y-59810256D01*
X52576465Y-59691873D01*
X52576463Y-59691870D01*
X52576461Y-59691866D01*
X52544815Y-59644505D01*
X52505276Y-59585331D01*
X52414669Y-59494724D01*
X52372226Y-59466365D01*
X52308133Y-59423538D01*
X52308125Y-59423534D01*
X52189747Y-59374500D01*
X52189745Y-59374499D01*
X52189744Y-59374499D01*
X52064069Y-59349500D01*
X51935931Y-59349500D01*
X51935930Y-59349500D01*
X51873093Y-59361999D01*
X51810256Y-59374499D01*
X51810255Y-59374499D01*
X51810252Y-59374500D01*
X51691874Y-59423534D01*
X51691866Y-59423538D01*
X51585331Y-59494724D01*
X51585327Y-59494727D01*
X51494727Y-59585327D01*
X51494724Y-59585331D01*
X51423538Y-59691866D01*
X51423534Y-59691874D01*
X51374500Y-59810252D01*
X51374499Y-59810257D01*
X51349500Y-59935930D01*
X37750500Y-59935930D01*
X37750500Y-59926082D01*
X37721658Y-59781087D01*
X37665084Y-59644505D01*
X37582951Y-59521584D01*
X37478416Y-59417049D01*
X37355495Y-59334916D01*
X37355493Y-59334915D01*
X37218914Y-59278342D01*
X37073918Y-59249500D01*
X36926082Y-59249500D01*
X36926081Y-59249500D01*
X36781085Y-59278342D01*
X36644506Y-59334915D01*
X36521585Y-59417048D01*
X36417048Y-59521585D01*
X36334915Y-59644506D01*
X36278342Y-59781085D01*
X36249500Y-59926081D01*
X500500Y-59926081D01*
X500500Y-58926081D01*
X26249500Y-58926081D01*
X26249500Y-59073918D01*
X26278342Y-59218914D01*
X26326392Y-59334916D01*
X26334916Y-59355495D01*
X26417049Y-59478416D01*
X26521584Y-59582951D01*
X26644505Y-59665084D01*
X26781087Y-59721658D01*
X26926082Y-59750500D01*
X26926083Y-59750500D01*
X27073917Y-59750500D01*
X27073918Y-59750500D01*
X27218913Y-59721658D01*
X27355495Y-59665084D01*
X27478416Y-59582951D01*
X27582951Y-59478416D01*
X27665084Y-59355495D01*
X27721658Y-59218913D01*
X27750500Y-59073918D01*
X27750500Y-58926082D01*
X27721658Y-58781087D01*
X27665084Y-58644505D01*
X27582951Y-58521584D01*
X27478416Y-58417049D01*
X27355495Y-58334916D01*
X27355493Y-58334915D01*
X27218914Y-58278342D01*
X27073918Y-58249500D01*
X26926082Y-58249500D01*
X26926081Y-58249500D01*
X26781085Y-58278342D01*
X26644506Y-58334915D01*
X26521585Y-58417048D01*
X26417048Y-58521585D01*
X26334915Y-58644506D01*
X26278342Y-58781085D01*
X26249500Y-58926081D01*
X500500Y-58926081D01*
X500500Y-57935930D01*
X13349500Y-57935930D01*
X13349500Y-58064069D01*
X13374499Y-58189742D01*
X13374500Y-58189747D01*
X13423534Y-58308125D01*
X13423538Y-58308133D01*
X13455184Y-58355493D01*
X13494724Y-58414669D01*
X13585331Y-58505276D01*
X13648848Y-58547717D01*
X13691866Y-58576461D01*
X13691870Y-58576463D01*
X13691873Y-58576465D01*
X13810256Y-58625501D01*
X13935931Y-58650500D01*
X13935932Y-58650500D01*
X14064068Y-58650500D01*
X14064069Y-58650500D01*
X14189744Y-58625501D01*
X14308127Y-58576465D01*
X14414669Y-58505276D01*
X14505276Y-58414669D01*
X14576465Y-58308127D01*
X14625501Y-58189744D01*
X14650500Y-58064069D01*
X14650500Y-57935931D01*
X14650500Y-57935930D01*
X15899500Y-57935930D01*
X15899500Y-58064069D01*
X15924499Y-58189742D01*
X15924500Y-58189747D01*
X15973534Y-58308125D01*
X15973538Y-58308133D01*
X16005184Y-58355493D01*
X16044724Y-58414669D01*
X16135331Y-58505276D01*
X16198848Y-58547717D01*
X16241866Y-58576461D01*
X16241870Y-58576463D01*
X16241873Y-58576465D01*
X16360256Y-58625501D01*
X16485931Y-58650500D01*
X16485932Y-58650500D01*
X16614068Y-58650500D01*
X16614069Y-58650500D01*
X16739744Y-58625501D01*
X16858127Y-58576465D01*
X16964669Y-58505276D01*
X17055276Y-58414669D01*
X17126465Y-58308127D01*
X17175501Y-58189744D01*
X17200500Y-58064069D01*
X17200500Y-57935931D01*
X17198541Y-57926081D01*
X56249500Y-57926081D01*
X56249500Y-58073918D01*
X56278342Y-58218914D01*
X56326392Y-58334916D01*
X56334916Y-58355495D01*
X56417049Y-58478416D01*
X56521584Y-58582951D01*
X56644505Y-58665084D01*
X56781087Y-58721658D01*
X56926082Y-58750500D01*
X56926083Y-58750500D01*
X57073917Y-58750500D01*
X57073918Y-58750500D01*
X57218913Y-58721658D01*
X57355495Y-58665084D01*
X57478416Y-58582951D01*
X57582951Y-58478416D01*
X57665084Y-58355495D01*
X57721658Y-58218913D01*
X57750500Y-58073918D01*
X57750500Y-57926082D01*
X57750500Y-57926081D01*
X75249500Y-57926081D01*
X75249500Y-58073918D01*
X75278342Y-58218914D01*
X75326392Y-58334916D01*
X75334916Y-58355495D01*
X75417049Y-58478416D01*
X75521584Y-58582951D01*
X75644505Y-58665084D01*
X75781087Y-58721658D01*
X75926082Y-58750500D01*
X75926083Y-58750500D01*
X76073917Y-58750500D01*
X76073918Y-58750500D01*
X76218913Y-58721658D01*
X76355495Y-58665084D01*
X76478416Y-58582951D01*
X76582951Y-58478416D01*
X76665084Y-58355495D01*
X76721658Y-58218913D01*
X76750500Y-58073918D01*
X76750500Y-57926082D01*
X76721658Y-57781087D01*
X76665084Y-57644505D01*
X76582951Y-57521584D01*
X76478416Y-57417049D01*
X76355495Y-57334916D01*
X76355493Y-57334915D01*
X76218914Y-57278342D01*
X76073918Y-57249500D01*
X75926082Y-57249500D01*
X75926081Y-57249500D01*
X75781085Y-57278342D01*
X75644506Y-57334915D01*
X75521585Y-57417048D01*
X75417048Y-57521585D01*
X75334915Y-57644506D01*
X75278342Y-57781085D01*
X75249500Y-57926081D01*
X57750500Y-57926081D01*
X57721658Y-57781087D01*
X57665084Y-57644505D01*
X57582951Y-57521584D01*
X57478416Y-57417049D01*
X57355495Y-57334916D01*
X57355493Y-57334915D01*
X57218914Y-57278342D01*
X57073918Y-57249500D01*
X56926082Y-57249500D01*
X56926081Y-57249500D01*
X56781085Y-57278342D01*
X56644506Y-57334915D01*
X56521585Y-57417048D01*
X56417048Y-57521585D01*
X56334915Y-57644506D01*
X56278342Y-57781085D01*
X56249500Y-57926081D01*
X17198541Y-57926081D01*
X17175501Y-57810256D01*
X17126465Y-57691873D01*
X17126463Y-57691870D01*
X17126461Y-57691866D01*
X17094815Y-57644505D01*
X17055276Y-57585331D01*
X16964669Y-57494724D01*
X16922226Y-57466365D01*
X16858133Y-57423538D01*
X16858125Y-57423534D01*
X16739747Y-57374500D01*
X16739745Y-57374499D01*
X16739744Y-57374499D01*
X16614069Y-57349500D01*
X16485931Y-57349500D01*
X16485930Y-57349500D01*
X16423093Y-57361999D01*
X16360256Y-57374499D01*
X16360255Y-57374499D01*
X16360252Y-57374500D01*
X16241874Y-57423534D01*
X16241866Y-57423538D01*
X16135331Y-57494724D01*
X16135327Y-57494727D01*
X16044727Y-57585327D01*
X16044724Y-57585331D01*
X15973538Y-57691866D01*
X15973534Y-57691874D01*
X15924500Y-57810252D01*
X15924499Y-57810257D01*
X15899500Y-57935930D01*
X14650500Y-57935930D01*
X14625501Y-57810256D01*
X14576465Y-57691873D01*
X14576463Y-57691870D01*
X14576461Y-57691866D01*
X14544815Y-57644505D01*
X14505276Y-57585331D01*
X14414669Y-57494724D01*
X14372226Y-57466365D01*
X14308133Y-57423538D01*
X14308125Y-57423534D01*
X14189747Y-57374500D01*
X14189745Y-57374499D01*
X14189744Y-57374499D01*
X14064069Y-57349500D01*
X13935931Y-57349500D01*
X13935930Y-57349500D01*
X13873093Y-57361999D01*
X13810256Y-57374499D01*
X13810255Y-57374499D01*
X13810252Y-57374500D01*
X13691874Y-57423534D01*
X13691866Y-57423538D01*
X13585331Y-57494724D01*
X13585327Y-57494727D01*
X13494727Y-57585327D01*
X13494724Y-57585331D01*
X13423538Y-57691866D01*
X13423534Y-57691874D01*
X13374500Y-57810252D01*
X13374499Y-57810257D01*
X13349500Y-57935930D01*
X500500Y-57935930D01*
X500500Y-55927525D01*
X10449500Y-55927525D01*
X10449500Y-56072474D01*
X10487017Y-56212489D01*
X10559487Y-56338010D01*
X10559489Y-56338012D01*
X10559491Y-56338015D01*
X10661985Y-56440509D01*
X10661987Y-56440510D01*
X10661989Y-56440512D01*
X10787511Y-56512982D01*
X10787512Y-56512982D01*
X10787515Y-56512984D01*
X10927525Y-56550500D01*
X10927526Y-56550500D01*
X11072474Y-56550500D01*
X11072475Y-56550500D01*
X11212485Y-56512984D01*
X11212487Y-56512982D01*
X11212489Y-56512982D01*
X11338010Y-56440512D01*
X11338010Y-56440511D01*
X11338015Y-56440509D01*
X11440509Y-56338015D01*
X11512984Y-56212485D01*
X11550500Y-56072475D01*
X11550500Y-55927525D01*
X11512984Y-55787515D01*
X11512982Y-55787512D01*
X11512982Y-55787510D01*
X11440512Y-55661989D01*
X11440510Y-55661987D01*
X11440509Y-55661985D01*
X11338015Y-55559491D01*
X11338012Y-55559489D01*
X11338010Y-55559487D01*
X11212488Y-55487017D01*
X11212489Y-55487017D01*
X11182896Y-55479087D01*
X11072475Y-55449500D01*
X10927525Y-55449500D01*
X10865790Y-55466041D01*
X10787510Y-55487017D01*
X10661989Y-55559487D01*
X10559487Y-55661989D01*
X10487017Y-55787510D01*
X10449500Y-55927525D01*
X500500Y-55927525D01*
X500500Y-54927525D01*
X76724500Y-54927525D01*
X76724500Y-55072474D01*
X76762017Y-55212489D01*
X76834487Y-55338010D01*
X76834489Y-55338012D01*
X76834491Y-55338015D01*
X76936985Y-55440509D01*
X76936987Y-55440510D01*
X76936989Y-55440512D01*
X77062511Y-55512982D01*
X77062512Y-55512982D01*
X77062515Y-55512984D01*
X77202525Y-55550500D01*
X77202526Y-55550500D01*
X77347474Y-55550500D01*
X77347475Y-55550500D01*
X77487485Y-55512984D01*
X77487487Y-55512982D01*
X77487489Y-55512982D01*
X77613010Y-55440512D01*
X77613010Y-55440511D01*
X77613015Y-55440509D01*
X77715509Y-55338015D01*
X77787984Y-55212485D01*
X77825500Y-55072475D01*
X77825500Y-54927525D01*
X77787984Y-54787515D01*
X77787982Y-54787512D01*
X77787982Y-54787510D01*
X77715512Y-54661989D01*
X77715510Y-54661987D01*
X77715509Y-54661985D01*
X77613015Y-54559491D01*
X77613012Y-54559489D01*
X77613010Y-54559487D01*
X77487488Y-54487017D01*
X77487489Y-54487017D01*
X77455382Y-54478414D01*
X77347475Y-54449500D01*
X77202525Y-54449500D01*
X77140790Y-54466041D01*
X77062510Y-54487017D01*
X76936989Y-54559487D01*
X76834487Y-54661989D01*
X76762017Y-54787510D01*
X76724500Y-54927525D01*
X500500Y-54927525D01*
X500500Y-53926082D01*
X93249500Y-53926082D01*
X93249500Y-54073918D01*
X93278342Y-54218913D01*
X93334916Y-54355495D01*
X93417049Y-54478416D01*
X93521584Y-54582951D01*
X93644505Y-54665084D01*
X93781087Y-54721658D01*
X93926082Y-54750500D01*
X93926083Y-54750500D01*
X94073917Y-54750500D01*
X94073918Y-54750500D01*
X94218913Y-54721658D01*
X94355495Y-54665084D01*
X94478416Y-54582951D01*
X94582951Y-54478416D01*
X94665084Y-54355495D01*
X94721658Y-54218913D01*
X94750500Y-54073918D01*
X94750500Y-53926082D01*
X94721658Y-53781087D01*
X94665084Y-53644505D01*
X94582951Y-53521584D01*
X94478416Y-53417049D01*
X94355495Y-53334916D01*
X94355493Y-53334915D01*
X94218914Y-53278342D01*
X94073918Y-53249500D01*
X93926082Y-53249500D01*
X93926081Y-53249500D01*
X93781085Y-53278342D01*
X93644506Y-53334915D01*
X93521585Y-53417048D01*
X93417048Y-53521585D01*
X93334915Y-53644506D01*
X93278342Y-53781085D01*
X93278342Y-53781087D01*
X93249500Y-53926082D01*
X500500Y-53926082D01*
X500500Y-52926080D01*
X10249499Y-52926080D01*
X10249499Y-53073917D01*
X10278341Y-53218913D01*
X10326391Y-53334915D01*
X10334915Y-53355494D01*
X10417048Y-53478415D01*
X10521583Y-53582950D01*
X10644504Y-53665083D01*
X10781086Y-53721657D01*
X10926081Y-53750499D01*
X10926082Y-53750499D01*
X11073916Y-53750499D01*
X11073917Y-53750499D01*
X11218912Y-53721657D01*
X11355494Y-53665083D01*
X11478415Y-53582950D01*
X11582950Y-53478415D01*
X11665083Y-53355494D01*
X11721657Y-53218912D01*
X11750499Y-53073917D01*
X11750499Y-52926081D01*
X11721657Y-52781086D01*
X11665083Y-52644504D01*
X11582950Y-52521583D01*
X11478415Y-52417048D01*
X11355494Y-52334915D01*
X11355492Y-52334914D01*
X11218913Y-52278341D01*
X11073917Y-52249499D01*
X10926081Y-52249499D01*
X10926080Y-52249499D01*
X10781084Y-52278341D01*
X10644505Y-52334914D01*
X10521584Y-52417047D01*
X10417047Y-52521584D01*
X10334914Y-52644505D01*
X10278341Y-52781084D01*
X10249499Y-52926080D01*
X500500Y-52926080D01*
X500500Y-51927525D01*
X15449500Y-51927525D01*
X15449500Y-52072474D01*
X15487017Y-52212489D01*
X15559487Y-52338010D01*
X15559489Y-52338012D01*
X15559491Y-52338015D01*
X15661985Y-52440509D01*
X15661987Y-52440510D01*
X15661989Y-52440512D01*
X15787511Y-52512982D01*
X15787512Y-52512982D01*
X15787515Y-52512984D01*
X15927525Y-52550500D01*
X15927526Y-52550500D01*
X16072474Y-52550500D01*
X16072475Y-52550500D01*
X16212485Y-52512984D01*
X16212487Y-52512982D01*
X16212489Y-52512982D01*
X16338010Y-52440512D01*
X16338010Y-52440511D01*
X16338015Y-52440509D01*
X16440509Y-52338015D01*
X16491614Y-52249499D01*
X16512982Y-52212489D01*
X16512982Y-52212487D01*
X16512984Y-52212485D01*
X16550500Y-52072475D01*
X16550500Y-51927525D01*
X16512984Y-51787515D01*
X16512982Y-51787512D01*
X16512982Y-51787510D01*
X16440512Y-51661989D01*
X16440510Y-51661987D01*
X16440509Y-51661985D01*
X16338015Y-51559491D01*
X16338012Y-51559489D01*
X16338010Y-51559487D01*
X16212488Y-51487017D01*
X16212489Y-51487017D01*
X16182896Y-51479087D01*
X16072475Y-51449500D01*
X15927525Y-51449500D01*
X15865790Y-51466041D01*
X15787510Y-51487017D01*
X15661989Y-51559487D01*
X15559487Y-51661989D01*
X15487017Y-51787510D01*
X15449500Y-51927525D01*
X500500Y-51927525D01*
X500500Y-51126081D01*
X18979500Y-51126081D01*
X18979500Y-51273918D01*
X19008342Y-51418914D01*
X19064915Y-51555493D01*
X19064916Y-51555495D01*
X19147049Y-51678416D01*
X19251584Y-51782951D01*
X19374505Y-51865084D01*
X19511087Y-51921658D01*
X19656082Y-51950500D01*
X19656083Y-51950500D01*
X19803917Y-51950500D01*
X19803918Y-51950500D01*
X19919418Y-51927525D01*
X71949500Y-51927525D01*
X71949500Y-52072474D01*
X71987017Y-52212489D01*
X72059487Y-52338010D01*
X72059489Y-52338012D01*
X72059491Y-52338015D01*
X72161985Y-52440509D01*
X72161987Y-52440510D01*
X72161989Y-52440512D01*
X72287511Y-52512982D01*
X72287512Y-52512982D01*
X72287515Y-52512984D01*
X72427525Y-52550500D01*
X72427526Y-52550500D01*
X72572474Y-52550500D01*
X72572475Y-52550500D01*
X72712485Y-52512984D01*
X72712487Y-52512982D01*
X72712489Y-52512982D01*
X72838010Y-52440512D01*
X72838010Y-52440511D01*
X72838015Y-52440509D01*
X72940509Y-52338015D01*
X72991614Y-52249499D01*
X73012982Y-52212489D01*
X73012982Y-52212487D01*
X73012984Y-52212485D01*
X73050500Y-52072475D01*
X73050500Y-51927525D01*
X73050113Y-51926081D01*
X94499500Y-51926081D01*
X94499500Y-52073918D01*
X94528342Y-52218914D01*
X94584915Y-52355493D01*
X94584916Y-52355495D01*
X94667049Y-52478416D01*
X94771584Y-52582951D01*
X94894505Y-52665084D01*
X95031087Y-52721658D01*
X95176082Y-52750500D01*
X95176083Y-52750500D01*
X95323917Y-52750500D01*
X95323918Y-52750500D01*
X95468913Y-52721658D01*
X95605495Y-52665084D01*
X95728416Y-52582951D01*
X95832951Y-52478416D01*
X95915084Y-52355495D01*
X95971658Y-52218913D01*
X96000500Y-52073918D01*
X96000500Y-51926082D01*
X95971658Y-51781087D01*
X95915084Y-51644505D01*
X95832951Y-51521584D01*
X95728416Y-51417049D01*
X95605495Y-51334916D01*
X95605493Y-51334915D01*
X95468914Y-51278342D01*
X95323918Y-51249500D01*
X95176082Y-51249500D01*
X95176081Y-51249500D01*
X95031085Y-51278342D01*
X94894506Y-51334915D01*
X94771585Y-51417048D01*
X94667048Y-51521585D01*
X94584915Y-51644506D01*
X94528342Y-51781085D01*
X94499500Y-51926081D01*
X73050113Y-51926081D01*
X73012984Y-51787515D01*
X73012982Y-51787512D01*
X73012982Y-51787510D01*
X72940512Y-51661989D01*
X72940510Y-51661987D01*
X72940509Y-51661985D01*
X72838015Y-51559491D01*
X72838012Y-51559489D01*
X72838010Y-51559487D01*
X72712488Y-51487017D01*
X72712489Y-51487017D01*
X72682896Y-51479087D01*
X72572475Y-51449500D01*
X72427525Y-51449500D01*
X72365790Y-51466041D01*
X72287510Y-51487017D01*
X72161989Y-51559487D01*
X72059487Y-51661989D01*
X71987017Y-51787510D01*
X71949500Y-51927525D01*
X19919418Y-51927525D01*
X19948913Y-51921658D01*
X20085495Y-51865084D01*
X20208416Y-51782951D01*
X20312951Y-51678416D01*
X20395084Y-51555495D01*
X20451658Y-51418913D01*
X20480500Y-51273918D01*
X20480500Y-51127525D01*
X21429500Y-51127525D01*
X21429500Y-51272474D01*
X21467017Y-51412489D01*
X21539487Y-51538010D01*
X21539489Y-51538012D01*
X21539491Y-51538015D01*
X21641985Y-51640509D01*
X21641987Y-51640510D01*
X21641989Y-51640512D01*
X21767511Y-51712982D01*
X21767512Y-51712982D01*
X21767515Y-51712984D01*
X21907525Y-51750500D01*
X21907526Y-51750500D01*
X22052474Y-51750500D01*
X22052475Y-51750500D01*
X22192485Y-51712984D01*
X22192487Y-51712982D01*
X22192489Y-51712982D01*
X22318010Y-51640512D01*
X22318010Y-51640511D01*
X22318015Y-51640509D01*
X22420509Y-51538015D01*
X22429995Y-51521585D01*
X22492982Y-51412489D01*
X22492982Y-51412487D01*
X22492984Y-51412485D01*
X22530500Y-51272475D01*
X22530500Y-51127525D01*
X22492984Y-50987515D01*
X22492982Y-50987512D01*
X22492982Y-50987510D01*
X22420512Y-50861989D01*
X22420510Y-50861987D01*
X22420509Y-50861985D01*
X22318015Y-50759491D01*
X22318012Y-50759489D01*
X22318010Y-50759487D01*
X22192488Y-50687017D01*
X22192489Y-50687017D01*
X22162896Y-50679087D01*
X22052475Y-50649500D01*
X21907525Y-50649500D01*
X21845790Y-50666041D01*
X21767510Y-50687017D01*
X21641989Y-50759487D01*
X21539487Y-50861989D01*
X21467017Y-50987510D01*
X21429500Y-51127525D01*
X20480500Y-51127525D01*
X20480500Y-51126082D01*
X20451658Y-50981087D01*
X20395084Y-50844505D01*
X20312951Y-50721584D01*
X20208416Y-50617049D01*
X20085495Y-50534916D01*
X20085493Y-50534915D01*
X19948914Y-50478342D01*
X19803918Y-50449500D01*
X19656082Y-50449500D01*
X19656081Y-50449500D01*
X19511085Y-50478342D01*
X19374506Y-50534915D01*
X19251585Y-50617048D01*
X19147048Y-50721585D01*
X19064915Y-50844506D01*
X19008342Y-50981085D01*
X18979500Y-51126081D01*
X500500Y-51126081D01*
X500500Y-48663385D01*
X4899500Y-48663385D01*
X4899500Y-48836614D01*
X4926597Y-49007702D01*
X4926598Y-49007706D01*
X4980123Y-49172438D01*
X4980125Y-49172441D01*
X4980126Y-49172444D01*
X4980127Y-49172445D01*
X5058768Y-49326788D01*
X5160586Y-49466928D01*
X5283072Y-49589414D01*
X5423212Y-49691232D01*
X5577555Y-49769873D01*
X5577557Y-49769873D01*
X5577558Y-49769874D01*
X5577561Y-49769876D01*
X5742293Y-49823401D01*
X5742297Y-49823402D01*
X5913386Y-49850500D01*
X5913389Y-49850500D01*
X6086614Y-49850500D01*
X6257702Y-49823402D01*
X6257706Y-49823401D01*
X6422438Y-49769876D01*
X6422440Y-49769874D01*
X6422445Y-49769873D01*
X6576788Y-49691232D01*
X6716928Y-49589414D01*
X6839414Y-49466928D01*
X6941232Y-49326788D01*
X7019873Y-49172445D01*
X7019874Y-49172440D01*
X7019876Y-49172438D01*
X7073401Y-49007706D01*
X7073402Y-49007701D01*
X7086101Y-48927525D01*
X15449500Y-48927525D01*
X15449500Y-49072474D01*
X15487017Y-49212489D01*
X15559487Y-49338010D01*
X15559489Y-49338012D01*
X15559491Y-49338015D01*
X15661985Y-49440509D01*
X15661987Y-49440510D01*
X15661989Y-49440512D01*
X15787511Y-49512982D01*
X15787512Y-49512982D01*
X15787515Y-49512984D01*
X15927525Y-49550500D01*
X15927526Y-49550500D01*
X16072474Y-49550500D01*
X16072475Y-49550500D01*
X16212485Y-49512984D01*
X16212487Y-49512982D01*
X16212489Y-49512982D01*
X16338010Y-49440512D01*
X16338010Y-49440511D01*
X16338015Y-49440509D01*
X16440509Y-49338015D01*
X16446993Y-49326785D01*
X16512982Y-49212489D01*
X16512982Y-49212487D01*
X16512984Y-49212485D01*
X16550500Y-49072475D01*
X16550500Y-48927525D01*
X16550113Y-48926081D01*
X42249500Y-48926081D01*
X42249500Y-49073918D01*
X42278342Y-49218914D01*
X42334915Y-49355493D01*
X42334916Y-49355495D01*
X42417049Y-49478416D01*
X42521584Y-49582951D01*
X42644505Y-49665084D01*
X42781087Y-49721658D01*
X42926082Y-49750500D01*
X42926083Y-49750500D01*
X43073917Y-49750500D01*
X43073918Y-49750500D01*
X43218913Y-49721658D01*
X43355495Y-49665084D01*
X43381774Y-49647525D01*
X72469500Y-49647525D01*
X72469500Y-49792474D01*
X72507017Y-49932489D01*
X72579487Y-50058010D01*
X72579489Y-50058012D01*
X72579491Y-50058015D01*
X72681985Y-50160509D01*
X72681987Y-50160510D01*
X72681989Y-50160512D01*
X72807511Y-50232982D01*
X72807512Y-50232982D01*
X72807515Y-50232984D01*
X72947525Y-50270500D01*
X72947526Y-50270500D01*
X73092474Y-50270500D01*
X73092475Y-50270500D01*
X73232485Y-50232984D01*
X73232487Y-50232982D01*
X73232489Y-50232982D01*
X73358010Y-50160512D01*
X73358010Y-50160511D01*
X73358015Y-50160509D01*
X73460509Y-50058015D01*
X73532984Y-49932485D01*
X73570500Y-49792475D01*
X73570500Y-49647525D01*
X73532984Y-49507515D01*
X73532982Y-49507512D01*
X73532982Y-49507510D01*
X73511740Y-49470718D01*
X73485969Y-49426081D01*
X90749500Y-49426081D01*
X90749500Y-49573918D01*
X90778342Y-49718914D01*
X90832847Y-49850500D01*
X90834916Y-49855495D01*
X90917049Y-49978416D01*
X91021584Y-50082951D01*
X91144505Y-50165084D01*
X91281087Y-50221658D01*
X91426082Y-50250500D01*
X91426083Y-50250500D01*
X91573917Y-50250500D01*
X91573918Y-50250500D01*
X91718913Y-50221658D01*
X91855495Y-50165084D01*
X91978416Y-50082951D01*
X92082951Y-49978416D01*
X92165084Y-49855495D01*
X92221658Y-49718913D01*
X92250500Y-49573918D01*
X92250500Y-49426082D01*
X92221658Y-49281087D01*
X92165084Y-49144505D01*
X92082951Y-49021584D01*
X91978416Y-48917049D01*
X91855495Y-48834916D01*
X91855493Y-48834915D01*
X91718914Y-48778342D01*
X91573918Y-48749500D01*
X91426082Y-48749500D01*
X91426081Y-48749500D01*
X91281085Y-48778342D01*
X91144506Y-48834915D01*
X91021585Y-48917048D01*
X90917048Y-49021585D01*
X90834915Y-49144506D01*
X90778342Y-49281085D01*
X90749500Y-49426081D01*
X73485969Y-49426081D01*
X73460512Y-49381989D01*
X73460510Y-49381987D01*
X73460509Y-49381985D01*
X73358015Y-49279491D01*
X73358012Y-49279489D01*
X73358010Y-49279487D01*
X73232488Y-49207017D01*
X73232489Y-49207017D01*
X73202896Y-49199087D01*
X73092475Y-49169500D01*
X72947525Y-49169500D01*
X72885790Y-49186041D01*
X72807510Y-49207017D01*
X72681989Y-49279487D01*
X72579487Y-49381989D01*
X72507017Y-49507510D01*
X72469500Y-49647525D01*
X43381774Y-49647525D01*
X43478416Y-49582951D01*
X43582951Y-49478416D01*
X43665084Y-49355495D01*
X43721658Y-49218913D01*
X43750500Y-49073918D01*
X43750500Y-48926082D01*
X43721658Y-48781087D01*
X43665084Y-48644505D01*
X43582951Y-48521584D01*
X43478416Y-48417049D01*
X43355495Y-48334916D01*
X43355493Y-48334915D01*
X43218914Y-48278342D01*
X43073918Y-48249500D01*
X42926082Y-48249500D01*
X42926081Y-48249500D01*
X42781085Y-48278342D01*
X42644506Y-48334915D01*
X42521585Y-48417048D01*
X42417048Y-48521585D01*
X42334915Y-48644506D01*
X42278342Y-48781085D01*
X42249500Y-48926081D01*
X16550113Y-48926081D01*
X16512984Y-48787515D01*
X16512982Y-48787512D01*
X16512982Y-48787510D01*
X16440512Y-48661989D01*
X16440510Y-48661987D01*
X16440509Y-48661985D01*
X16338015Y-48559491D01*
X16338012Y-48559489D01*
X16338010Y-48559487D01*
X16212488Y-48487017D01*
X16212489Y-48487017D01*
X16182896Y-48479087D01*
X16072475Y-48449500D01*
X15927525Y-48449500D01*
X15865790Y-48466041D01*
X15787510Y-48487017D01*
X15661989Y-48559487D01*
X15559487Y-48661989D01*
X15487017Y-48787510D01*
X15449500Y-48927525D01*
X7086101Y-48927525D01*
X7089582Y-48905549D01*
X7100500Y-48836614D01*
X7100500Y-48663385D01*
X7073402Y-48492297D01*
X7073401Y-48492293D01*
X7019876Y-48327561D01*
X7019874Y-48327558D01*
X7019873Y-48327557D01*
X7019873Y-48327555D01*
X6941232Y-48173212D01*
X6839414Y-48033072D01*
X6733867Y-47927525D01*
X12099498Y-47927525D01*
X12099498Y-48072474D01*
X12137015Y-48212489D01*
X12209485Y-48338010D01*
X12209487Y-48338012D01*
X12209489Y-48338015D01*
X12311983Y-48440509D01*
X12311985Y-48440510D01*
X12311987Y-48440512D01*
X12437509Y-48512982D01*
X12437510Y-48512982D01*
X12437513Y-48512984D01*
X12577523Y-48550500D01*
X12577524Y-48550500D01*
X12722472Y-48550500D01*
X12722473Y-48550500D01*
X12862483Y-48512984D01*
X12862485Y-48512982D01*
X12862487Y-48512982D01*
X12988008Y-48440512D01*
X12988008Y-48440511D01*
X12988013Y-48440509D01*
X13090507Y-48338015D01*
X13096546Y-48327555D01*
X13162980Y-48212489D01*
X13162980Y-48212487D01*
X13162982Y-48212485D01*
X13200498Y-48072475D01*
X13200498Y-47927525D01*
X16449500Y-47927525D01*
X16449500Y-48072474D01*
X16487017Y-48212489D01*
X16559487Y-48338010D01*
X16559489Y-48338012D01*
X16559491Y-48338015D01*
X16661985Y-48440509D01*
X16661987Y-48440510D01*
X16661989Y-48440512D01*
X16787511Y-48512982D01*
X16787512Y-48512982D01*
X16787515Y-48512984D01*
X16927525Y-48550500D01*
X16927526Y-48550500D01*
X17072474Y-48550500D01*
X17072475Y-48550500D01*
X17212485Y-48512984D01*
X17212487Y-48512982D01*
X17212489Y-48512982D01*
X17338010Y-48440512D01*
X17338010Y-48440511D01*
X17338015Y-48440509D01*
X17440509Y-48338015D01*
X17446548Y-48327555D01*
X17512982Y-48212489D01*
X17512982Y-48212487D01*
X17512984Y-48212485D01*
X17550500Y-48072475D01*
X17550500Y-47927525D01*
X17512984Y-47787515D01*
X17512982Y-47787512D01*
X17512982Y-47787510D01*
X17440512Y-47661989D01*
X17440510Y-47661987D01*
X17440509Y-47661985D01*
X17338015Y-47559491D01*
X17338012Y-47559489D01*
X17338010Y-47559487D01*
X17212488Y-47487017D01*
X17212489Y-47487017D01*
X17180382Y-47478414D01*
X17072475Y-47449500D01*
X16927525Y-47449500D01*
X16865790Y-47466041D01*
X16787510Y-47487017D01*
X16661989Y-47559487D01*
X16559487Y-47661989D01*
X16487017Y-47787510D01*
X16449500Y-47927525D01*
X13200498Y-47927525D01*
X13162982Y-47787515D01*
X13162980Y-47787512D01*
X13162980Y-47787510D01*
X13090510Y-47661989D01*
X13090508Y-47661987D01*
X13090507Y-47661985D01*
X12988013Y-47559491D01*
X12988010Y-47559489D01*
X12988008Y-47559487D01*
X12862486Y-47487017D01*
X12862487Y-47487017D01*
X12830380Y-47478414D01*
X12722473Y-47449500D01*
X12577523Y-47449500D01*
X12515788Y-47466041D01*
X12437508Y-47487017D01*
X12311987Y-47559487D01*
X12209485Y-47661989D01*
X12137015Y-47787510D01*
X12099498Y-47927525D01*
X6733867Y-47927525D01*
X6716928Y-47910586D01*
X6576788Y-47808768D01*
X6576787Y-47808767D01*
X6576785Y-47808766D01*
X6422441Y-47730125D01*
X6422438Y-47730123D01*
X6257706Y-47676598D01*
X6257702Y-47676597D01*
X6086614Y-47649500D01*
X6086611Y-47649500D01*
X5913389Y-47649500D01*
X5913386Y-47649500D01*
X5742297Y-47676597D01*
X5742293Y-47676598D01*
X5577561Y-47730123D01*
X5577558Y-47730125D01*
X5423214Y-47808766D01*
X5283073Y-47910585D01*
X5160585Y-48033073D01*
X5058766Y-48173214D01*
X4980125Y-48327558D01*
X4980123Y-48327561D01*
X4926598Y-48492293D01*
X4926597Y-48492297D01*
X4899500Y-48663385D01*
X500500Y-48663385D01*
X500500Y-46163385D01*
X4899500Y-46163385D01*
X4899500Y-46336614D01*
X4926597Y-46507702D01*
X4926598Y-46507706D01*
X4980123Y-46672438D01*
X4980125Y-46672441D01*
X5058765Y-46826784D01*
X5058768Y-46826788D01*
X5160586Y-46966928D01*
X5283072Y-47089414D01*
X5423212Y-47191232D01*
X5577555Y-47269873D01*
X5577557Y-47269873D01*
X5577558Y-47269874D01*
X5577561Y-47269876D01*
X5742293Y-47323401D01*
X5742297Y-47323402D01*
X5913386Y-47350500D01*
X5913389Y-47350500D01*
X6086614Y-47350500D01*
X6257702Y-47323402D01*
X6257706Y-47323401D01*
X6422438Y-47269876D01*
X6422440Y-47269874D01*
X6422445Y-47269873D01*
X6576788Y-47191232D01*
X6716928Y-47089414D01*
X6839414Y-46966928D01*
X6921067Y-46854542D01*
X36849500Y-46854542D01*
X36849500Y-46982680D01*
X36870731Y-47089414D01*
X36874499Y-47108353D01*
X36874500Y-47108358D01*
X36923534Y-47226736D01*
X36923538Y-47226744D01*
X36964145Y-47287515D01*
X36994724Y-47333280D01*
X37085331Y-47423887D01*
X37123664Y-47449500D01*
X37191866Y-47495072D01*
X37191870Y-47495074D01*
X37191873Y-47495076D01*
X37310256Y-47544112D01*
X37435931Y-47569111D01*
X37435932Y-47569111D01*
X37564068Y-47569111D01*
X37564069Y-47569111D01*
X37689744Y-47544112D01*
X37808127Y-47495076D01*
X37914669Y-47423887D01*
X38005276Y-47333280D01*
X38076465Y-47226738D01*
X38125501Y-47108355D01*
X38150500Y-46982680D01*
X38150500Y-46927525D01*
X38449500Y-46927525D01*
X38449500Y-47072475D01*
X38479087Y-47182896D01*
X38487017Y-47212489D01*
X38559487Y-47338010D01*
X38559489Y-47338012D01*
X38559491Y-47338015D01*
X38661985Y-47440509D01*
X38661987Y-47440510D01*
X38661989Y-47440512D01*
X38787511Y-47512982D01*
X38787512Y-47512982D01*
X38787515Y-47512984D01*
X38927525Y-47550500D01*
X38927526Y-47550500D01*
X39072474Y-47550500D01*
X39072475Y-47550500D01*
X39212485Y-47512984D01*
X39212487Y-47512982D01*
X39212489Y-47512982D01*
X39338010Y-47440512D01*
X39338010Y-47440511D01*
X39338015Y-47440509D01*
X39350999Y-47427525D01*
X66449500Y-47427525D01*
X66449500Y-47572475D01*
X66477400Y-47676597D01*
X66487017Y-47712489D01*
X66559487Y-47838010D01*
X66559489Y-47838012D01*
X66559491Y-47838015D01*
X66661985Y-47940509D01*
X66661987Y-47940510D01*
X66661989Y-47940512D01*
X66787511Y-48012982D01*
X66787512Y-48012982D01*
X66787515Y-48012984D01*
X66927525Y-48050500D01*
X66927526Y-48050500D01*
X67072474Y-48050500D01*
X67072475Y-48050500D01*
X67212485Y-48012984D01*
X67212487Y-48012982D01*
X67212489Y-48012982D01*
X67338010Y-47940512D01*
X67338010Y-47940511D01*
X67338015Y-47940509D01*
X67440509Y-47838015D01*
X67491879Y-47749040D01*
X67512982Y-47712489D01*
X67512982Y-47712487D01*
X67512984Y-47712485D01*
X67550500Y-47572475D01*
X67550500Y-47427525D01*
X67512984Y-47287515D01*
X67512982Y-47287512D01*
X67512982Y-47287510D01*
X67440512Y-47161989D01*
X67440510Y-47161987D01*
X67440509Y-47161985D01*
X67338015Y-47059491D01*
X67338012Y-47059489D01*
X67338010Y-47059487D01*
X67247020Y-47006954D01*
X67212488Y-46987017D01*
X67212489Y-46987017D01*
X67137509Y-46966926D01*
X67072475Y-46949500D01*
X66927525Y-46949500D01*
X66865790Y-46966041D01*
X66787510Y-46987017D01*
X66661989Y-47059487D01*
X66559487Y-47161989D01*
X66487017Y-47287510D01*
X66460206Y-47387570D01*
X66449500Y-47427525D01*
X39350999Y-47427525D01*
X39440509Y-47338015D01*
X39448946Y-47323402D01*
X39512982Y-47212489D01*
X39512982Y-47212487D01*
X39512984Y-47212485D01*
X39550500Y-47072475D01*
X39550500Y-46927525D01*
X39550113Y-46926081D01*
X73249500Y-46926081D01*
X73249500Y-47073918D01*
X73278342Y-47218914D01*
X73332847Y-47350500D01*
X73334916Y-47355495D01*
X73417049Y-47478416D01*
X73521584Y-47582951D01*
X73644505Y-47665084D01*
X73781087Y-47721658D01*
X73926082Y-47750500D01*
X73926083Y-47750500D01*
X74073917Y-47750500D01*
X74073918Y-47750500D01*
X74218913Y-47721658D01*
X74354867Y-47665343D01*
X74415862Y-47660543D01*
X74468031Y-47692512D01*
X74491446Y-47749040D01*
X74488378Y-47782431D01*
X74449500Y-47927525D01*
X74449500Y-48072474D01*
X74487017Y-48212489D01*
X74559487Y-48338010D01*
X74559489Y-48338012D01*
X74559491Y-48338015D01*
X74661985Y-48440509D01*
X74661987Y-48440510D01*
X74661989Y-48440512D01*
X74787511Y-48512982D01*
X74787512Y-48512982D01*
X74787515Y-48512984D01*
X74927525Y-48550500D01*
X74927526Y-48550500D01*
X75072474Y-48550500D01*
X75072475Y-48550500D01*
X75212485Y-48512984D01*
X75212487Y-48512982D01*
X75212489Y-48512982D01*
X75338010Y-48440512D01*
X75338010Y-48440511D01*
X75338015Y-48440509D01*
X75440509Y-48338015D01*
X75446548Y-48327555D01*
X75512982Y-48212489D01*
X75512982Y-48212487D01*
X75512984Y-48212485D01*
X75550500Y-48072475D01*
X75550500Y-47927525D01*
X75512984Y-47787515D01*
X75512982Y-47787512D01*
X75512982Y-47787510D01*
X75440512Y-47661989D01*
X75440510Y-47661987D01*
X75440509Y-47661985D01*
X75338015Y-47559491D01*
X75338012Y-47559489D01*
X75338010Y-47559487D01*
X75212488Y-47487017D01*
X75212489Y-47487017D01*
X75180382Y-47478414D01*
X75072475Y-47449500D01*
X74927525Y-47449500D01*
X74855179Y-47468885D01*
X74782431Y-47488378D01*
X74721330Y-47485175D01*
X74673780Y-47446670D01*
X74657944Y-47387570D01*
X74665342Y-47354870D01*
X74721658Y-47218913D01*
X74750500Y-47073918D01*
X74750500Y-46926082D01*
X74721658Y-46781087D01*
X74665084Y-46644505D01*
X74582951Y-46521584D01*
X74478416Y-46417049D01*
X74355495Y-46334916D01*
X74254569Y-46293111D01*
X74218914Y-46278342D01*
X74073918Y-46249500D01*
X73926082Y-46249500D01*
X73926081Y-46249500D01*
X73781085Y-46278342D01*
X73644506Y-46334915D01*
X73521585Y-46417048D01*
X73417048Y-46521585D01*
X73334915Y-46644506D01*
X73278342Y-46781085D01*
X73249500Y-46926081D01*
X39550113Y-46926081D01*
X39512984Y-46787515D01*
X39512982Y-46787512D01*
X39512982Y-46787510D01*
X39440512Y-46661989D01*
X39440510Y-46661987D01*
X39440509Y-46661985D01*
X39338015Y-46559491D01*
X39338012Y-46559489D01*
X39338010Y-46559487D01*
X39212488Y-46487017D01*
X39212489Y-46487017D01*
X39182896Y-46479087D01*
X39072475Y-46449500D01*
X38927525Y-46449500D01*
X38865790Y-46466041D01*
X38787510Y-46487017D01*
X38661989Y-46559487D01*
X38559487Y-46661989D01*
X38487017Y-46787510D01*
X38469056Y-46854541D01*
X38449500Y-46927525D01*
X38150500Y-46927525D01*
X38150500Y-46854542D01*
X38125501Y-46728867D01*
X38076465Y-46610484D01*
X38076463Y-46610481D01*
X38076461Y-46610477D01*
X38047717Y-46567459D01*
X38005276Y-46503942D01*
X37914669Y-46413335D01*
X37872226Y-46384976D01*
X37808133Y-46342149D01*
X37808125Y-46342145D01*
X37689747Y-46293111D01*
X37689745Y-46293110D01*
X37689744Y-46293110D01*
X37564069Y-46268111D01*
X37435931Y-46268111D01*
X37435930Y-46268111D01*
X37384498Y-46278342D01*
X37310256Y-46293110D01*
X37310255Y-46293110D01*
X37310252Y-46293111D01*
X37191874Y-46342145D01*
X37191866Y-46342149D01*
X37085331Y-46413335D01*
X37085327Y-46413338D01*
X36994727Y-46503938D01*
X36994724Y-46503942D01*
X36923538Y-46610477D01*
X36923534Y-46610485D01*
X36874500Y-46728863D01*
X36874499Y-46728868D01*
X36855022Y-46826784D01*
X36849500Y-46854542D01*
X6921067Y-46854542D01*
X6941232Y-46826788D01*
X7019873Y-46672445D01*
X7019874Y-46672440D01*
X7019876Y-46672438D01*
X7073401Y-46507706D01*
X7073402Y-46507702D01*
X7100500Y-46336614D01*
X7100500Y-46163385D01*
X7073402Y-45992297D01*
X7073401Y-45992293D01*
X7019876Y-45827561D01*
X7019874Y-45827558D01*
X7019873Y-45827557D01*
X7019873Y-45827555D01*
X6941232Y-45673212D01*
X6839414Y-45533072D01*
X6716928Y-45410586D01*
X6576788Y-45308768D01*
X6576787Y-45308767D01*
X6576785Y-45308766D01*
X6422441Y-45230125D01*
X6422438Y-45230123D01*
X6257706Y-45176598D01*
X6257702Y-45176597D01*
X6086614Y-45149500D01*
X6086611Y-45149500D01*
X5913389Y-45149500D01*
X5913386Y-45149500D01*
X5742297Y-45176597D01*
X5742293Y-45176598D01*
X5577561Y-45230123D01*
X5577558Y-45230125D01*
X5423214Y-45308766D01*
X5283073Y-45410585D01*
X5160585Y-45533073D01*
X5058766Y-45673214D01*
X4980125Y-45827558D01*
X4980123Y-45827561D01*
X4926598Y-45992293D01*
X4926597Y-45992297D01*
X4899500Y-46163385D01*
X500500Y-46163385D01*
X500500Y-44935931D01*
X16349500Y-44935931D01*
X16349500Y-45064069D01*
X16372272Y-45178550D01*
X16374499Y-45189742D01*
X16374500Y-45189747D01*
X16423534Y-45308125D01*
X16423538Y-45308133D01*
X16455185Y-45355495D01*
X16494724Y-45414669D01*
X16494727Y-45414672D01*
X16580762Y-45500707D01*
X16608539Y-45555224D01*
X16598968Y-45615656D01*
X16580764Y-45640711D01*
X16560392Y-45661084D01*
X16559488Y-45661988D01*
X16559487Y-45661989D01*
X16487017Y-45787510D01*
X16449500Y-45927525D01*
X16449500Y-46072474D01*
X16487017Y-46212489D01*
X16559487Y-46338010D01*
X16559489Y-46338012D01*
X16559491Y-46338015D01*
X16661985Y-46440509D01*
X16661987Y-46440510D01*
X16661989Y-46440512D01*
X16787511Y-46512982D01*
X16787512Y-46512982D01*
X16787515Y-46512984D01*
X16927525Y-46550500D01*
X16927526Y-46550500D01*
X17072474Y-46550500D01*
X17072475Y-46550500D01*
X17212485Y-46512984D01*
X17212487Y-46512982D01*
X17212489Y-46512982D01*
X17338010Y-46440512D01*
X17338010Y-46440511D01*
X17338015Y-46440509D01*
X17440509Y-46338015D01*
X17442299Y-46334915D01*
X17512982Y-46212489D01*
X17512982Y-46212487D01*
X17512984Y-46212485D01*
X17550500Y-46072475D01*
X17550500Y-45927525D01*
X17517959Y-45806080D01*
X68369501Y-45806080D01*
X68369501Y-45953917D01*
X68398343Y-46098913D01*
X68425050Y-46163389D01*
X68454917Y-46235494D01*
X68537050Y-46358415D01*
X68641585Y-46462950D01*
X68764506Y-46545083D01*
X68901088Y-46601657D01*
X69046083Y-46630499D01*
X69046084Y-46630499D01*
X69193918Y-46630499D01*
X69193919Y-46630499D01*
X69338914Y-46601657D01*
X69475496Y-46545083D01*
X69598417Y-46462950D01*
X69702952Y-46358415D01*
X69785085Y-46235494D01*
X69841659Y-46098912D01*
X69870501Y-45953917D01*
X69870501Y-45880148D01*
X69889408Y-45821957D01*
X69938908Y-45785993D01*
X70000094Y-45785993D01*
X70049594Y-45821957D01*
X70055234Y-45830643D01*
X70059491Y-45838015D01*
X70161985Y-45940509D01*
X70161987Y-45940510D01*
X70161989Y-45940512D01*
X70287511Y-46012982D01*
X70287512Y-46012982D01*
X70287515Y-46012984D01*
X70427525Y-46050500D01*
X70427526Y-46050500D01*
X70572474Y-46050500D01*
X70572475Y-46050500D01*
X70712485Y-46012984D01*
X70712487Y-46012982D01*
X70712489Y-46012982D01*
X70838010Y-45940512D01*
X70838010Y-45940511D01*
X70838015Y-45940509D01*
X70940509Y-45838015D01*
X70970544Y-45785993D01*
X71012982Y-45712489D01*
X71012982Y-45712487D01*
X71012984Y-45712485D01*
X71050500Y-45572475D01*
X71050500Y-45427525D01*
X71018107Y-45306634D01*
X71021308Y-45245533D01*
X71059813Y-45197983D01*
X71118913Y-45182147D01*
X71133034Y-45183911D01*
X71251082Y-45207393D01*
X71251083Y-45207393D01*
X71398917Y-45207393D01*
X71398918Y-45207393D01*
X71543913Y-45178551D01*
X71680495Y-45121977D01*
X71803416Y-45039844D01*
X71907951Y-44935309D01*
X71914116Y-44926082D01*
X84249499Y-44926082D01*
X84249499Y-45073919D01*
X84278341Y-45218915D01*
X84334914Y-45355493D01*
X84334915Y-45355496D01*
X84417048Y-45478417D01*
X84521583Y-45582952D01*
X84644504Y-45665085D01*
X84781086Y-45721659D01*
X84926081Y-45750501D01*
X84926082Y-45750501D01*
X85073916Y-45750501D01*
X85073917Y-45750501D01*
X85218912Y-45721659D01*
X85355494Y-45665085D01*
X85478415Y-45582952D01*
X85582950Y-45478417D01*
X85665083Y-45355496D01*
X85721657Y-45218914D01*
X85750499Y-45073919D01*
X85750499Y-44926083D01*
X85721657Y-44781088D01*
X85665083Y-44644506D01*
X85582950Y-44521585D01*
X85478415Y-44417050D01*
X85355494Y-44334917D01*
X85355492Y-44334916D01*
X85218913Y-44278343D01*
X85073917Y-44249501D01*
X84926081Y-44249501D01*
X84926080Y-44249501D01*
X84781084Y-44278343D01*
X84644505Y-44334916D01*
X84521584Y-44417049D01*
X84417047Y-44521586D01*
X84334914Y-44644507D01*
X84278341Y-44781086D01*
X84249499Y-44926082D01*
X71914116Y-44926082D01*
X71990084Y-44812388D01*
X72046658Y-44675806D01*
X72075500Y-44530811D01*
X72075500Y-44382975D01*
X72046658Y-44237980D01*
X71990084Y-44101398D01*
X71907951Y-43978477D01*
X71803416Y-43873942D01*
X71680495Y-43791809D01*
X71654605Y-43781085D01*
X71543914Y-43735235D01*
X71398918Y-43706393D01*
X71251082Y-43706393D01*
X71251081Y-43706393D01*
X71106085Y-43735235D01*
X70969506Y-43791808D01*
X70846585Y-43873941D01*
X70742048Y-43978478D01*
X70659915Y-44101399D01*
X70603342Y-44237978D01*
X70579966Y-44355495D01*
X70574500Y-44382975D01*
X70574500Y-44530811D01*
X70603342Y-44675806D01*
X70659034Y-44810258D01*
X70660010Y-44812614D01*
X70664811Y-44873611D01*
X70632841Y-44925780D01*
X70576313Y-44949195D01*
X70568546Y-44949500D01*
X70427525Y-44949500D01*
X70365790Y-44966041D01*
X70287510Y-44987017D01*
X70161989Y-45059487D01*
X70059487Y-45161989D01*
X69987017Y-45287510D01*
X69949500Y-45427525D01*
X69949500Y-45444209D01*
X69930593Y-45502400D01*
X69881093Y-45538364D01*
X69819907Y-45538364D01*
X69770407Y-45502400D01*
X69768185Y-45499211D01*
X69735637Y-45450500D01*
X69702952Y-45401583D01*
X69598417Y-45297048D01*
X69475496Y-45214915D01*
X69475494Y-45214914D01*
X69338915Y-45158341D01*
X69193919Y-45129499D01*
X69046083Y-45129499D01*
X69046082Y-45129499D01*
X68901086Y-45158341D01*
X68764507Y-45214914D01*
X68641586Y-45297047D01*
X68537049Y-45401584D01*
X68454916Y-45524505D01*
X68398343Y-45661084D01*
X68369501Y-45806080D01*
X17517959Y-45806080D01*
X17512984Y-45787515D01*
X17512982Y-45787512D01*
X17512982Y-45787510D01*
X17440512Y-45661989D01*
X17440510Y-45661987D01*
X17440509Y-45661985D01*
X17419235Y-45640711D01*
X17391460Y-45586197D01*
X17401031Y-45525765D01*
X17419235Y-45500709D01*
X17505276Y-45414669D01*
X17576465Y-45308127D01*
X17625501Y-45189744D01*
X17650500Y-45064069D01*
X17650500Y-44935931D01*
X17648541Y-44926081D01*
X18979500Y-44926081D01*
X18979500Y-45073918D01*
X19008342Y-45218914D01*
X19047307Y-45312984D01*
X19064916Y-45355495D01*
X19147049Y-45478416D01*
X19251584Y-45582951D01*
X19374505Y-45665084D01*
X19511087Y-45721658D01*
X19656082Y-45750500D01*
X19656083Y-45750500D01*
X19803917Y-45750500D01*
X19803918Y-45750500D01*
X19948913Y-45721658D01*
X20085495Y-45665084D01*
X20208416Y-45582951D01*
X20312951Y-45478416D01*
X20395084Y-45355495D01*
X20417601Y-45301133D01*
X20457335Y-45254609D01*
X20516830Y-45240325D01*
X20573358Y-45263739D01*
X20579068Y-45269016D01*
X20615328Y-45305276D01*
X20678845Y-45347717D01*
X20721863Y-45376461D01*
X20721867Y-45376463D01*
X20721870Y-45376465D01*
X20840253Y-45425501D01*
X20965928Y-45450500D01*
X20965929Y-45450500D01*
X21094065Y-45450500D01*
X21094066Y-45450500D01*
X21219741Y-45425501D01*
X21338124Y-45376465D01*
X21444666Y-45305276D01*
X21530705Y-45219237D01*
X21585221Y-45191459D01*
X21645654Y-45201030D01*
X21670709Y-45219233D01*
X21691985Y-45240509D01*
X21691987Y-45240510D01*
X21691989Y-45240512D01*
X21817511Y-45312982D01*
X21817512Y-45312982D01*
X21817515Y-45312984D01*
X21957525Y-45350500D01*
X21957526Y-45350500D01*
X22102474Y-45350500D01*
X22102475Y-45350500D01*
X22242485Y-45312984D01*
X22242487Y-45312982D01*
X22242489Y-45312982D01*
X22368010Y-45240512D01*
X22368010Y-45240511D01*
X22368015Y-45240509D01*
X22470509Y-45138015D01*
X22542984Y-45012485D01*
X22563497Y-44935931D01*
X22566136Y-44926081D01*
X66249500Y-44926081D01*
X66249500Y-45073918D01*
X66278342Y-45218914D01*
X66317307Y-45312984D01*
X66334916Y-45355495D01*
X66417049Y-45478416D01*
X66521584Y-45582951D01*
X66644505Y-45665084D01*
X66781087Y-45721658D01*
X66926082Y-45750500D01*
X66926083Y-45750500D01*
X67073917Y-45750500D01*
X67073918Y-45750500D01*
X67218913Y-45721658D01*
X67355495Y-45665084D01*
X67478416Y-45582951D01*
X67582951Y-45478416D01*
X67665084Y-45355495D01*
X67721658Y-45218913D01*
X67750500Y-45073918D01*
X67750500Y-44926082D01*
X67721658Y-44781087D01*
X67665084Y-44644505D01*
X67582951Y-44521584D01*
X67478416Y-44417049D01*
X67355495Y-44334916D01*
X67355493Y-44334915D01*
X67218914Y-44278342D01*
X67073918Y-44249500D01*
X66926082Y-44249500D01*
X66926081Y-44249500D01*
X66781085Y-44278342D01*
X66644506Y-44334915D01*
X66521585Y-44417048D01*
X66417048Y-44521585D01*
X66334915Y-44644506D01*
X66278342Y-44781085D01*
X66249500Y-44926081D01*
X22566136Y-44926081D01*
X22574306Y-44895594D01*
X22580500Y-44872475D01*
X22580500Y-44727525D01*
X22566642Y-44675806D01*
X22542984Y-44587515D01*
X22542982Y-44587512D01*
X22542982Y-44587510D01*
X22470512Y-44461989D01*
X22470510Y-44461987D01*
X22470509Y-44461985D01*
X22368015Y-44359491D01*
X22368012Y-44359489D01*
X22368010Y-44359487D01*
X22242488Y-44287017D01*
X22242489Y-44287017D01*
X22210114Y-44278342D01*
X22102475Y-44249500D01*
X21957525Y-44249500D01*
X21895790Y-44266041D01*
X21817510Y-44287017D01*
X21691989Y-44359487D01*
X21691983Y-44359492D01*
X21670711Y-44380764D01*
X21616194Y-44408540D01*
X21555762Y-44398968D01*
X21530705Y-44380763D01*
X21444669Y-44294727D01*
X21444666Y-44294724D01*
X21402223Y-44266365D01*
X21338130Y-44223538D01*
X21338122Y-44223534D01*
X21219744Y-44174500D01*
X21219742Y-44174499D01*
X21219741Y-44174499D01*
X21094066Y-44149500D01*
X20965928Y-44149500D01*
X20965927Y-44149500D01*
X20903090Y-44161999D01*
X20840253Y-44174499D01*
X20840252Y-44174499D01*
X20840249Y-44174500D01*
X20721871Y-44223534D01*
X20721863Y-44223538D01*
X20615328Y-44294724D01*
X20615324Y-44294727D01*
X20524724Y-44385327D01*
X20524721Y-44385331D01*
X20452341Y-44493654D01*
X20404291Y-44531533D01*
X20343153Y-44533935D01*
X20300024Y-44508657D01*
X20208416Y-44417049D01*
X20085495Y-44334916D01*
X20085493Y-44334915D01*
X19948914Y-44278342D01*
X19803918Y-44249500D01*
X19656082Y-44249500D01*
X19656081Y-44249500D01*
X19511085Y-44278342D01*
X19374506Y-44334915D01*
X19251585Y-44417048D01*
X19147048Y-44521585D01*
X19064915Y-44644506D01*
X19008342Y-44781085D01*
X18979500Y-44926081D01*
X17648541Y-44926081D01*
X17625501Y-44810256D01*
X17576465Y-44691873D01*
X17576463Y-44691870D01*
X17576461Y-44691866D01*
X17521930Y-44610256D01*
X17505276Y-44585331D01*
X17414669Y-44494724D01*
X17365672Y-44461985D01*
X17308133Y-44423538D01*
X17308125Y-44423534D01*
X17189747Y-44374500D01*
X17189745Y-44374499D01*
X17189744Y-44374499D01*
X17064069Y-44349500D01*
X16935931Y-44349500D01*
X16935930Y-44349500D01*
X16885724Y-44359487D01*
X16810256Y-44374499D01*
X16810255Y-44374499D01*
X16810252Y-44374500D01*
X16691874Y-44423534D01*
X16691866Y-44423538D01*
X16585331Y-44494724D01*
X16585327Y-44494727D01*
X16494727Y-44585327D01*
X16494724Y-44585331D01*
X16423538Y-44691866D01*
X16423534Y-44691874D01*
X16374500Y-44810252D01*
X16374499Y-44810255D01*
X16374499Y-44810256D01*
X16349500Y-44935931D01*
X500500Y-44935931D01*
X500500Y-43926081D01*
X42249500Y-43926081D01*
X42249500Y-44073918D01*
X42278342Y-44218914D01*
X42326392Y-44334916D01*
X42334916Y-44355495D01*
X42417049Y-44478416D01*
X42521584Y-44582951D01*
X42644505Y-44665084D01*
X42781087Y-44721658D01*
X42926082Y-44750500D01*
X42926083Y-44750500D01*
X43073917Y-44750500D01*
X43073918Y-44750500D01*
X43218913Y-44721658D01*
X43355495Y-44665084D01*
X43478416Y-44582951D01*
X43582951Y-44478416D01*
X43665084Y-44355495D01*
X43721658Y-44218913D01*
X43750500Y-44073918D01*
X43750500Y-43926082D01*
X43721658Y-43781087D01*
X43665084Y-43644505D01*
X43582951Y-43521584D01*
X43478416Y-43417049D01*
X43355495Y-43334916D01*
X43355493Y-43334915D01*
X43218914Y-43278342D01*
X43073918Y-43249500D01*
X42926082Y-43249500D01*
X42926081Y-43249500D01*
X42781085Y-43278342D01*
X42644506Y-43334915D01*
X42521585Y-43417048D01*
X42417048Y-43521585D01*
X42334915Y-43644506D01*
X42278342Y-43781085D01*
X42249500Y-43926081D01*
X500500Y-43926081D01*
X500500Y-42206082D01*
X68748000Y-42206082D01*
X68748000Y-42353918D01*
X68776842Y-42498913D01*
X68833416Y-42635495D01*
X68915549Y-42758416D01*
X69020084Y-42862951D01*
X69143005Y-42945084D01*
X69279587Y-43001658D01*
X69424582Y-43030500D01*
X69424583Y-43030500D01*
X69572417Y-43030500D01*
X69572418Y-43030500D01*
X69717413Y-43001658D01*
X69853995Y-42945084D01*
X69976916Y-42862951D01*
X70081451Y-42758416D01*
X70163584Y-42635495D01*
X70220158Y-42498913D01*
X70249000Y-42353918D01*
X70249000Y-42206082D01*
X77101000Y-42206082D01*
X77101000Y-42353918D01*
X77129842Y-42498913D01*
X77186416Y-42635495D01*
X77268549Y-42758416D01*
X77373084Y-42862951D01*
X77496005Y-42945084D01*
X77632587Y-43001658D01*
X77777582Y-43030500D01*
X77777583Y-43030500D01*
X77925417Y-43030500D01*
X77925418Y-43030500D01*
X78070413Y-43001658D01*
X78206995Y-42945084D01*
X78329916Y-42862951D01*
X78434451Y-42758416D01*
X78516584Y-42635495D01*
X78573158Y-42498913D01*
X78602000Y-42353918D01*
X78602000Y-42206082D01*
X78573158Y-42061087D01*
X78516584Y-41924505D01*
X78434451Y-41801584D01*
X78329916Y-41697049D01*
X78206995Y-41614916D01*
X78206993Y-41614915D01*
X78070414Y-41558342D01*
X77925418Y-41529500D01*
X77777582Y-41529500D01*
X77777581Y-41529500D01*
X77632585Y-41558342D01*
X77496006Y-41614915D01*
X77373085Y-41697048D01*
X77268548Y-41801585D01*
X77186415Y-41924506D01*
X77129842Y-42061085D01*
X77129842Y-42061087D01*
X77101000Y-42206082D01*
X70249000Y-42206082D01*
X70220158Y-42061087D01*
X70163584Y-41924505D01*
X70081451Y-41801584D01*
X69976916Y-41697049D01*
X69853995Y-41614916D01*
X69853993Y-41614915D01*
X69717414Y-41558342D01*
X69572418Y-41529500D01*
X69424582Y-41529500D01*
X69424581Y-41529500D01*
X69279585Y-41558342D01*
X69143006Y-41614915D01*
X69020085Y-41697048D01*
X68915548Y-41801585D01*
X68833415Y-41924506D01*
X68776842Y-42061085D01*
X68776842Y-42061087D01*
X68748000Y-42206082D01*
X500500Y-42206082D01*
X500500Y-38926082D01*
X73999500Y-38926082D01*
X73999500Y-39073918D01*
X74028342Y-39218913D01*
X74084916Y-39355495D01*
X74167049Y-39478416D01*
X74271584Y-39582951D01*
X74394505Y-39665084D01*
X74531087Y-39721658D01*
X74676082Y-39750500D01*
X74676083Y-39750500D01*
X74823917Y-39750500D01*
X74823918Y-39750500D01*
X74968913Y-39721658D01*
X75105495Y-39665084D01*
X75228416Y-39582951D01*
X75332951Y-39478416D01*
X75415084Y-39355495D01*
X75471658Y-39218913D01*
X75500500Y-39073918D01*
X75500500Y-38926082D01*
X75471658Y-38781087D01*
X75463965Y-38762516D01*
X75459165Y-38701521D01*
X75491135Y-38649352D01*
X75547663Y-38625937D01*
X75607157Y-38640221D01*
X75610424Y-38642312D01*
X75644505Y-38665084D01*
X75781087Y-38721658D01*
X75926082Y-38750500D01*
X75926083Y-38750500D01*
X76073917Y-38750500D01*
X76073918Y-38750500D01*
X76218913Y-38721658D01*
X76355495Y-38665084D01*
X76478416Y-38582951D01*
X76582951Y-38478416D01*
X76665084Y-38355495D01*
X76721658Y-38218913D01*
X76750500Y-38073918D01*
X76750500Y-37926082D01*
X76721658Y-37781087D01*
X76665084Y-37644505D01*
X76582951Y-37521584D01*
X76478416Y-37417049D01*
X76355495Y-37334916D01*
X76355493Y-37334915D01*
X76218914Y-37278342D01*
X76073918Y-37249500D01*
X75926082Y-37249500D01*
X75926081Y-37249500D01*
X75781085Y-37278342D01*
X75644506Y-37334915D01*
X75521585Y-37417048D01*
X75417048Y-37521585D01*
X75334915Y-37644506D01*
X75278342Y-37781085D01*
X75278342Y-37781087D01*
X75249500Y-37926082D01*
X75249500Y-38073918D01*
X75278342Y-38218913D01*
X75286034Y-38237483D01*
X75290833Y-38298480D01*
X75258863Y-38350649D01*
X75202334Y-38374062D01*
X75142840Y-38359777D01*
X75139567Y-38357682D01*
X75105494Y-38334915D01*
X74968914Y-38278342D01*
X74823918Y-38249500D01*
X74676082Y-38249500D01*
X74676081Y-38249500D01*
X74531085Y-38278342D01*
X74394506Y-38334915D01*
X74271585Y-38417048D01*
X74167048Y-38521585D01*
X74084915Y-38644506D01*
X74028342Y-38781085D01*
X74028342Y-38781087D01*
X73999500Y-38926082D01*
X500500Y-38926082D01*
X500500Y-37927525D01*
X70449500Y-37927525D01*
X70449500Y-38072474D01*
X70487017Y-38212489D01*
X70559487Y-38338010D01*
X70559489Y-38338012D01*
X70559491Y-38338015D01*
X70661985Y-38440509D01*
X70661987Y-38440510D01*
X70661989Y-38440512D01*
X70787511Y-38512982D01*
X70787512Y-38512982D01*
X70787515Y-38512984D01*
X70927525Y-38550500D01*
X70927526Y-38550500D01*
X71072474Y-38550500D01*
X71072475Y-38550500D01*
X71212485Y-38512984D01*
X71212487Y-38512982D01*
X71212489Y-38512982D01*
X71338010Y-38440512D01*
X71338010Y-38440511D01*
X71338015Y-38440509D01*
X71440509Y-38338015D01*
X71463335Y-38298480D01*
X71512982Y-38212489D01*
X71512982Y-38212487D01*
X71512984Y-38212485D01*
X71550500Y-38072475D01*
X71550500Y-37927525D01*
X71512984Y-37787515D01*
X71512982Y-37787512D01*
X71512982Y-37787510D01*
X71440512Y-37661989D01*
X71440510Y-37661987D01*
X71440509Y-37661985D01*
X71338015Y-37559491D01*
X71338012Y-37559489D01*
X71338010Y-37559487D01*
X71212488Y-37487017D01*
X71212489Y-37487017D01*
X71182896Y-37479087D01*
X71072475Y-37449500D01*
X70927525Y-37449500D01*
X70865790Y-37466041D01*
X70787510Y-37487017D01*
X70661989Y-37559487D01*
X70559487Y-37661989D01*
X70487017Y-37787510D01*
X70449500Y-37927525D01*
X500500Y-37927525D01*
X500500Y-36935930D01*
X31349500Y-36935930D01*
X31349500Y-37064069D01*
X31374499Y-37189742D01*
X31374500Y-37189747D01*
X31423534Y-37308125D01*
X31423538Y-37308133D01*
X31466365Y-37372226D01*
X31494724Y-37414669D01*
X31585331Y-37505276D01*
X31648848Y-37547717D01*
X31691866Y-37576461D01*
X31691870Y-37576463D01*
X31691873Y-37576465D01*
X31810256Y-37625501D01*
X31935931Y-37650500D01*
X31935932Y-37650500D01*
X32064068Y-37650500D01*
X32064069Y-37650500D01*
X32189744Y-37625501D01*
X32308127Y-37576465D01*
X32414669Y-37505276D01*
X32505276Y-37414669D01*
X32576465Y-37308127D01*
X32625501Y-37189744D01*
X32650500Y-37064069D01*
X32650500Y-36935931D01*
X32625501Y-36810256D01*
X32625498Y-36810248D01*
X32604238Y-36758921D01*
X32591233Y-36727525D01*
X78449500Y-36727525D01*
X78449500Y-36872475D01*
X78479087Y-36982896D01*
X78487017Y-37012489D01*
X78559487Y-37138010D01*
X78559489Y-37138012D01*
X78559491Y-37138015D01*
X78661985Y-37240509D01*
X78661987Y-37240510D01*
X78661989Y-37240512D01*
X78787511Y-37312982D01*
X78787512Y-37312982D01*
X78787515Y-37312984D01*
X78927525Y-37350500D01*
X78927526Y-37350500D01*
X79072474Y-37350500D01*
X79072475Y-37350500D01*
X79212485Y-37312984D01*
X79212487Y-37312982D01*
X79212489Y-37312982D01*
X79338010Y-37240512D01*
X79338010Y-37240511D01*
X79338015Y-37240509D01*
X79440509Y-37138015D01*
X79512984Y-37012485D01*
X79550500Y-36872475D01*
X79550500Y-36727525D01*
X79512984Y-36587515D01*
X79512982Y-36587512D01*
X79512982Y-36587510D01*
X79440512Y-36461989D01*
X79440510Y-36461987D01*
X79440509Y-36461985D01*
X79338015Y-36359491D01*
X79338012Y-36359489D01*
X79338010Y-36359487D01*
X79212488Y-36287017D01*
X79212489Y-36287017D01*
X79182896Y-36279087D01*
X79072475Y-36249500D01*
X78927525Y-36249500D01*
X78865790Y-36266041D01*
X78787510Y-36287017D01*
X78661989Y-36359487D01*
X78559487Y-36461989D01*
X78487017Y-36587510D01*
X78487016Y-36587515D01*
X78449500Y-36727525D01*
X32591233Y-36727525D01*
X32576465Y-36691874D01*
X32576461Y-36691866D01*
X32547717Y-36648848D01*
X32505276Y-36585331D01*
X32414669Y-36494724D01*
X32365672Y-36461985D01*
X32308133Y-36423538D01*
X32308125Y-36423534D01*
X32189747Y-36374500D01*
X32189745Y-36374499D01*
X32189744Y-36374499D01*
X32064069Y-36349500D01*
X31935931Y-36349500D01*
X31935930Y-36349500D01*
X31885724Y-36359487D01*
X31810256Y-36374499D01*
X31810255Y-36374499D01*
X31810252Y-36374500D01*
X31691874Y-36423534D01*
X31691866Y-36423538D01*
X31585331Y-36494724D01*
X31585327Y-36494727D01*
X31494727Y-36585327D01*
X31494724Y-36585331D01*
X31423538Y-36691866D01*
X31423534Y-36691874D01*
X31374500Y-36810252D01*
X31374499Y-36810257D01*
X31349500Y-36935930D01*
X500500Y-36935930D01*
X500500Y-35926081D01*
X83249500Y-35926081D01*
X83249500Y-36073918D01*
X83278342Y-36218914D01*
X83332433Y-36349500D01*
X83334916Y-36355495D01*
X83417049Y-36478416D01*
X83521584Y-36582951D01*
X83644505Y-36665084D01*
X83781087Y-36721658D01*
X83926082Y-36750500D01*
X83926083Y-36750500D01*
X84073917Y-36750500D01*
X84073918Y-36750500D01*
X84218913Y-36721658D01*
X84355495Y-36665084D01*
X84478416Y-36582951D01*
X84582951Y-36478416D01*
X84665084Y-36355495D01*
X84721658Y-36218913D01*
X84750500Y-36073918D01*
X84750500Y-35926082D01*
X84721658Y-35781087D01*
X84665084Y-35644505D01*
X84582951Y-35521584D01*
X84478416Y-35417049D01*
X84355495Y-35334916D01*
X84355493Y-35334915D01*
X84218914Y-35278342D01*
X84073918Y-35249500D01*
X83926082Y-35249500D01*
X83926081Y-35249500D01*
X83781085Y-35278342D01*
X83644506Y-35334915D01*
X83521585Y-35417048D01*
X83417048Y-35521585D01*
X83334915Y-35644506D01*
X83278342Y-35781085D01*
X83249500Y-35926081D01*
X500500Y-35926081D01*
X500500Y-33877525D01*
X75449500Y-33877525D01*
X75449500Y-34022474D01*
X75487017Y-34162489D01*
X75559487Y-34288010D01*
X75559489Y-34288012D01*
X75559491Y-34288015D01*
X75661985Y-34390509D01*
X75661987Y-34390510D01*
X75661989Y-34390512D01*
X75787511Y-34462982D01*
X75787512Y-34462982D01*
X75787515Y-34462984D01*
X75927525Y-34500500D01*
X75927526Y-34500500D01*
X76072474Y-34500500D01*
X76072475Y-34500500D01*
X76212485Y-34462984D01*
X76212487Y-34462982D01*
X76212489Y-34462982D01*
X76338010Y-34390512D01*
X76338010Y-34390511D01*
X76338015Y-34390509D01*
X76440509Y-34288015D01*
X76512984Y-34162485D01*
X76550500Y-34022475D01*
X76550500Y-33877525D01*
X76512984Y-33737515D01*
X76512982Y-33737512D01*
X76512982Y-33737510D01*
X76440512Y-33611989D01*
X76440510Y-33611987D01*
X76440509Y-33611985D01*
X76338015Y-33509491D01*
X76338012Y-33509489D01*
X76338010Y-33509487D01*
X76212488Y-33437017D01*
X76212489Y-33437017D01*
X76182896Y-33429087D01*
X76072475Y-33399500D01*
X75927525Y-33399500D01*
X75865790Y-33416041D01*
X75787510Y-33437017D01*
X75661989Y-33509487D01*
X75559487Y-33611989D01*
X75487017Y-33737510D01*
X75449500Y-33877525D01*
X500500Y-33877525D01*
X500500Y-32927525D01*
X28449500Y-32927525D01*
X28449500Y-33072474D01*
X28487017Y-33212489D01*
X28559487Y-33338010D01*
X28559489Y-33338012D01*
X28559491Y-33338015D01*
X28661985Y-33440509D01*
X28661987Y-33440510D01*
X28661989Y-33440512D01*
X28787511Y-33512982D01*
X28787512Y-33512982D01*
X28787515Y-33512984D01*
X28927525Y-33550500D01*
X28927526Y-33550500D01*
X29072474Y-33550500D01*
X29072475Y-33550500D01*
X29212485Y-33512984D01*
X29212487Y-33512982D01*
X29212489Y-33512982D01*
X29338010Y-33440512D01*
X29338010Y-33440511D01*
X29338015Y-33440509D01*
X29440509Y-33338015D01*
X29512984Y-33212485D01*
X29550500Y-33072475D01*
X29550500Y-32927525D01*
X30449500Y-32927525D01*
X30449500Y-33072474D01*
X30487017Y-33212489D01*
X30559487Y-33338010D01*
X30559489Y-33338012D01*
X30559491Y-33338015D01*
X30661985Y-33440509D01*
X30661987Y-33440510D01*
X30661989Y-33440512D01*
X30787511Y-33512982D01*
X30787512Y-33512982D01*
X30787515Y-33512984D01*
X30927525Y-33550500D01*
X30927526Y-33550500D01*
X31072474Y-33550500D01*
X31072475Y-33550500D01*
X31212485Y-33512984D01*
X31212487Y-33512982D01*
X31212489Y-33512982D01*
X31338010Y-33440512D01*
X31338010Y-33440511D01*
X31338015Y-33440509D01*
X31440509Y-33338015D01*
X31512984Y-33212485D01*
X31550500Y-33072475D01*
X31550500Y-32927525D01*
X31512984Y-32787515D01*
X31512982Y-32787512D01*
X31512982Y-32787510D01*
X31440512Y-32661989D01*
X31440510Y-32661987D01*
X31440509Y-32661985D01*
X31338015Y-32559491D01*
X31338012Y-32559489D01*
X31338010Y-32559487D01*
X31212488Y-32487017D01*
X31212489Y-32487017D01*
X31182896Y-32479087D01*
X31072475Y-32449500D01*
X30927525Y-32449500D01*
X30865790Y-32466041D01*
X30787510Y-32487017D01*
X30661989Y-32559487D01*
X30559487Y-32661989D01*
X30487017Y-32787510D01*
X30449500Y-32927525D01*
X29550500Y-32927525D01*
X29512984Y-32787515D01*
X29512982Y-32787512D01*
X29512982Y-32787510D01*
X29440512Y-32661989D01*
X29440510Y-32661987D01*
X29440509Y-32661985D01*
X29338015Y-32559491D01*
X29338012Y-32559489D01*
X29338010Y-32559487D01*
X29212488Y-32487017D01*
X29212489Y-32487017D01*
X29182896Y-32479087D01*
X29072475Y-32449500D01*
X28927525Y-32449500D01*
X28865790Y-32466041D01*
X28787510Y-32487017D01*
X28661989Y-32559487D01*
X28559487Y-32661989D01*
X28487017Y-32787510D01*
X28449500Y-32927525D01*
X500500Y-32927525D01*
X500500Y-31265930D01*
X20019500Y-31265930D01*
X20019500Y-31394069D01*
X20044499Y-31519742D01*
X20044500Y-31519747D01*
X20093534Y-31638125D01*
X20093538Y-31638133D01*
X20136365Y-31702226D01*
X20164724Y-31744669D01*
X20255331Y-31835276D01*
X20318848Y-31877717D01*
X20361866Y-31906461D01*
X20361870Y-31906463D01*
X20361873Y-31906465D01*
X20480256Y-31955501D01*
X20605931Y-31980500D01*
X20605932Y-31980500D01*
X20734068Y-31980500D01*
X20734069Y-31980500D01*
X20859744Y-31955501D01*
X20927284Y-31927525D01*
X32449500Y-31927525D01*
X32449500Y-32072474D01*
X32487017Y-32212489D01*
X32559487Y-32338010D01*
X32559489Y-32338012D01*
X32559491Y-32338015D01*
X32661985Y-32440509D01*
X32661987Y-32440510D01*
X32661989Y-32440512D01*
X32787511Y-32512982D01*
X32787512Y-32512982D01*
X32787515Y-32512984D01*
X32927525Y-32550500D01*
X32927526Y-32550500D01*
X33072474Y-32550500D01*
X33072475Y-32550500D01*
X33212485Y-32512984D01*
X33212487Y-32512982D01*
X33212489Y-32512982D01*
X33338010Y-32440512D01*
X33338010Y-32440511D01*
X33338015Y-32440509D01*
X33440509Y-32338015D01*
X33512984Y-32212485D01*
X33550500Y-32072475D01*
X33550500Y-31927525D01*
X33512984Y-31787515D01*
X33512982Y-31787512D01*
X33512982Y-31787510D01*
X33440512Y-31661989D01*
X33440510Y-31661987D01*
X33440509Y-31661985D01*
X33338015Y-31559491D01*
X33338012Y-31559489D01*
X33338010Y-31559487D01*
X33212488Y-31487017D01*
X33212489Y-31487017D01*
X33182896Y-31479087D01*
X33072475Y-31449500D01*
X32927525Y-31449500D01*
X32865790Y-31466041D01*
X32787510Y-31487017D01*
X32661989Y-31559487D01*
X32559487Y-31661989D01*
X32487017Y-31787510D01*
X32449500Y-31927525D01*
X20927284Y-31927525D01*
X20978127Y-31906465D01*
X20978130Y-31906462D01*
X20978134Y-31906461D01*
X21037492Y-31866798D01*
X21084669Y-31835276D01*
X21175276Y-31744669D01*
X21246465Y-31638127D01*
X21295501Y-31519744D01*
X21320500Y-31394069D01*
X21320500Y-31265931D01*
X21295501Y-31140256D01*
X21246465Y-31021873D01*
X21246463Y-31021870D01*
X21246461Y-31021866D01*
X21217717Y-30978848D01*
X21175276Y-30915331D01*
X21084669Y-30824724D01*
X21042226Y-30796365D01*
X20978133Y-30753538D01*
X20978125Y-30753534D01*
X20859747Y-30704500D01*
X20859745Y-30704499D01*
X20859744Y-30704499D01*
X20734069Y-30679500D01*
X20605931Y-30679500D01*
X20605930Y-30679500D01*
X20543093Y-30691999D01*
X20480256Y-30704499D01*
X20480255Y-30704499D01*
X20480252Y-30704500D01*
X20361874Y-30753534D01*
X20361866Y-30753538D01*
X20255331Y-30824724D01*
X20255327Y-30824727D01*
X20164727Y-30915327D01*
X20164724Y-30915331D01*
X20093538Y-31021866D01*
X20093534Y-31021874D01*
X20044500Y-31140252D01*
X20044499Y-31140257D01*
X20019500Y-31265930D01*
X500500Y-31265930D01*
X500500Y-29927525D01*
X25449500Y-29927525D01*
X25449500Y-30072474D01*
X25487017Y-30212489D01*
X25559487Y-30338010D01*
X25559489Y-30338012D01*
X25559491Y-30338015D01*
X25661985Y-30440509D01*
X25661987Y-30440510D01*
X25661989Y-30440512D01*
X25787511Y-30512982D01*
X25787512Y-30512982D01*
X25787515Y-30512984D01*
X25927525Y-30550500D01*
X25927526Y-30550500D01*
X26072474Y-30550500D01*
X26072475Y-30550500D01*
X26212485Y-30512984D01*
X26212487Y-30512982D01*
X26212489Y-30512982D01*
X26338010Y-30440512D01*
X26338010Y-30440511D01*
X26338015Y-30440509D01*
X26440509Y-30338015D01*
X26512984Y-30212485D01*
X26550500Y-30072475D01*
X26550500Y-29927525D01*
X40449500Y-29927525D01*
X40449500Y-30072474D01*
X40487017Y-30212489D01*
X40559487Y-30338010D01*
X40559489Y-30338012D01*
X40559491Y-30338015D01*
X40661985Y-30440509D01*
X40661987Y-30440510D01*
X40661989Y-30440512D01*
X40787511Y-30512982D01*
X40787512Y-30512982D01*
X40787515Y-30512984D01*
X40927525Y-30550500D01*
X40927526Y-30550500D01*
X41072474Y-30550500D01*
X41072475Y-30550500D01*
X41212485Y-30512984D01*
X41212487Y-30512982D01*
X41212489Y-30512982D01*
X41338010Y-30440512D01*
X41338010Y-30440511D01*
X41338015Y-30440509D01*
X41440509Y-30338015D01*
X41512984Y-30212485D01*
X41550500Y-30072475D01*
X41550500Y-29927525D01*
X41512984Y-29787515D01*
X41512982Y-29787512D01*
X41512982Y-29787510D01*
X41440512Y-29661989D01*
X41440510Y-29661987D01*
X41440509Y-29661985D01*
X41338015Y-29559491D01*
X41338012Y-29559489D01*
X41338010Y-29559487D01*
X41212488Y-29487017D01*
X41212489Y-29487017D01*
X41180382Y-29478414D01*
X41072475Y-29449500D01*
X40927525Y-29449500D01*
X40865790Y-29466041D01*
X40787510Y-29487017D01*
X40661989Y-29559487D01*
X40559487Y-29661989D01*
X40487017Y-29787510D01*
X40449500Y-29927525D01*
X26550500Y-29927525D01*
X26512984Y-29787515D01*
X26512982Y-29787512D01*
X26512982Y-29787510D01*
X26440512Y-29661989D01*
X26440510Y-29661987D01*
X26440509Y-29661985D01*
X26338015Y-29559491D01*
X26338012Y-29559489D01*
X26338010Y-29559487D01*
X26212488Y-29487017D01*
X26212489Y-29487017D01*
X26180382Y-29478414D01*
X26072475Y-29449500D01*
X25927525Y-29449500D01*
X25865790Y-29466041D01*
X25787510Y-29487017D01*
X25661989Y-29559487D01*
X25559487Y-29661989D01*
X25487017Y-29787510D01*
X25449500Y-29927525D01*
X500500Y-29927525D01*
X500500Y-28927525D01*
X64449500Y-28927525D01*
X64449500Y-29072474D01*
X64487017Y-29212489D01*
X64559487Y-29338010D01*
X64559489Y-29338012D01*
X64559491Y-29338015D01*
X64661985Y-29440509D01*
X64661987Y-29440510D01*
X64661989Y-29440512D01*
X64787511Y-29512982D01*
X64787512Y-29512982D01*
X64787515Y-29512984D01*
X64927525Y-29550500D01*
X64927526Y-29550500D01*
X65072474Y-29550500D01*
X65072475Y-29550500D01*
X65212485Y-29512984D01*
X65212487Y-29512982D01*
X65212489Y-29512982D01*
X65338010Y-29440512D01*
X65338010Y-29440511D01*
X65338015Y-29440509D01*
X65440509Y-29338015D01*
X65440512Y-29338010D01*
X65512982Y-29212489D01*
X65512982Y-29212487D01*
X65512984Y-29212485D01*
X65550500Y-29072475D01*
X65550500Y-28927525D01*
X65550113Y-28926081D01*
X82249500Y-28926081D01*
X82249500Y-29073918D01*
X82278342Y-29218914D01*
X82334915Y-29355493D01*
X82334916Y-29355495D01*
X82417049Y-29478416D01*
X82521584Y-29582951D01*
X82644505Y-29665084D01*
X82781087Y-29721658D01*
X82926082Y-29750500D01*
X82926083Y-29750500D01*
X83073917Y-29750500D01*
X83073918Y-29750500D01*
X83218913Y-29721658D01*
X83355495Y-29665084D01*
X83478416Y-29582951D01*
X83582951Y-29478416D01*
X83665084Y-29355495D01*
X83721658Y-29218913D01*
X83750500Y-29073918D01*
X83750500Y-28926082D01*
X83721658Y-28781087D01*
X83665084Y-28644505D01*
X83582951Y-28521584D01*
X83478416Y-28417049D01*
X83355495Y-28334916D01*
X83355493Y-28334915D01*
X83218914Y-28278342D01*
X83073918Y-28249500D01*
X82926082Y-28249500D01*
X82926081Y-28249500D01*
X82781085Y-28278342D01*
X82644506Y-28334915D01*
X82521585Y-28417048D01*
X82417048Y-28521585D01*
X82334915Y-28644506D01*
X82278342Y-28781085D01*
X82249500Y-28926081D01*
X65550113Y-28926081D01*
X65512984Y-28787515D01*
X65512982Y-28787512D01*
X65512982Y-28787510D01*
X65440512Y-28661989D01*
X65440510Y-28661987D01*
X65440509Y-28661985D01*
X65338015Y-28559491D01*
X65338012Y-28559489D01*
X65338010Y-28559487D01*
X65212488Y-28487017D01*
X65212489Y-28487017D01*
X65182896Y-28479087D01*
X65072475Y-28449500D01*
X64927525Y-28449500D01*
X64865790Y-28466041D01*
X64787510Y-28487017D01*
X64661989Y-28559487D01*
X64559487Y-28661989D01*
X64487017Y-28787510D01*
X64449500Y-28927525D01*
X500500Y-28927525D01*
X500500Y-25927525D01*
X39449500Y-25927525D01*
X39449500Y-26072474D01*
X39487017Y-26212489D01*
X39559487Y-26338010D01*
X39559489Y-26338012D01*
X39559491Y-26338015D01*
X39661985Y-26440509D01*
X39661987Y-26440510D01*
X39661989Y-26440512D01*
X39787511Y-26512982D01*
X39787512Y-26512982D01*
X39787515Y-26512984D01*
X39927525Y-26550500D01*
X39927526Y-26550500D01*
X40072474Y-26550500D01*
X40072475Y-26550500D01*
X40212485Y-26512984D01*
X40212487Y-26512982D01*
X40212489Y-26512982D01*
X40338010Y-26440512D01*
X40338010Y-26440511D01*
X40338015Y-26440509D01*
X40440509Y-26338015D01*
X40512984Y-26212485D01*
X40550500Y-26072475D01*
X40550500Y-25927525D01*
X69449500Y-25927525D01*
X69449500Y-26072474D01*
X69487017Y-26212489D01*
X69559487Y-26338010D01*
X69559489Y-26338012D01*
X69559491Y-26338015D01*
X69661985Y-26440509D01*
X69661987Y-26440510D01*
X69661989Y-26440512D01*
X69787511Y-26512982D01*
X69787512Y-26512982D01*
X69787515Y-26512984D01*
X69927525Y-26550500D01*
X69927526Y-26550500D01*
X70072474Y-26550500D01*
X70072475Y-26550500D01*
X70212485Y-26512984D01*
X70212487Y-26512982D01*
X70212489Y-26512982D01*
X70338010Y-26440512D01*
X70338010Y-26440511D01*
X70338015Y-26440509D01*
X70440509Y-26338015D01*
X70512984Y-26212485D01*
X70550500Y-26072475D01*
X70550500Y-25927525D01*
X70512984Y-25787515D01*
X70512982Y-25787512D01*
X70512982Y-25787510D01*
X70440512Y-25661989D01*
X70440510Y-25661987D01*
X70440509Y-25661985D01*
X70338015Y-25559491D01*
X70338012Y-25559489D01*
X70338010Y-25559487D01*
X70212488Y-25487017D01*
X70212489Y-25487017D01*
X70180382Y-25478414D01*
X70072475Y-25449500D01*
X69927525Y-25449500D01*
X69865790Y-25466041D01*
X69787510Y-25487017D01*
X69661989Y-25559487D01*
X69559487Y-25661989D01*
X69487017Y-25787510D01*
X69449500Y-25927525D01*
X40550500Y-25927525D01*
X40512984Y-25787515D01*
X40512982Y-25787512D01*
X40512982Y-25787510D01*
X40440512Y-25661989D01*
X40440510Y-25661987D01*
X40440509Y-25661985D01*
X40338015Y-25559491D01*
X40338012Y-25559489D01*
X40338010Y-25559487D01*
X40212488Y-25487017D01*
X40212489Y-25487017D01*
X40180382Y-25478414D01*
X40072475Y-25449500D01*
X39927525Y-25449500D01*
X39865790Y-25466041D01*
X39787510Y-25487017D01*
X39661989Y-25559487D01*
X39559487Y-25661989D01*
X39487017Y-25787510D01*
X39449500Y-25927525D01*
X500500Y-25927525D01*
X500500Y-24926082D01*
X80074500Y-24926082D01*
X80074500Y-25073918D01*
X80103342Y-25218913D01*
X80159916Y-25355495D01*
X80242049Y-25478416D01*
X80346584Y-25582951D01*
X80469505Y-25665084D01*
X80606087Y-25721658D01*
X80751082Y-25750500D01*
X80751083Y-25750500D01*
X80898917Y-25750500D01*
X80898918Y-25750500D01*
X81043913Y-25721658D01*
X81180495Y-25665084D01*
X81303416Y-25582951D01*
X81407951Y-25478416D01*
X81490084Y-25355495D01*
X81546658Y-25218913D01*
X81575500Y-25073918D01*
X81575500Y-24926082D01*
X81546658Y-24781087D01*
X81490084Y-24644505D01*
X81407951Y-24521584D01*
X81303416Y-24417049D01*
X81180495Y-24334916D01*
X81180493Y-24334915D01*
X81043914Y-24278342D01*
X80898918Y-24249500D01*
X80751082Y-24249500D01*
X80751081Y-24249500D01*
X80606085Y-24278342D01*
X80469506Y-24334915D01*
X80346585Y-24417048D01*
X80242048Y-24521585D01*
X80159915Y-24644506D01*
X80103342Y-24781085D01*
X80103342Y-24781087D01*
X80074500Y-24926082D01*
X500500Y-24926082D01*
X500500Y-23220149D01*
X74485214Y-23220149D01*
X74485214Y-23367985D01*
X74514056Y-23512980D01*
X74570630Y-23649562D01*
X74652763Y-23772483D01*
X74757298Y-23877018D01*
X74880219Y-23959151D01*
X75016801Y-24015725D01*
X75161796Y-24044567D01*
X75161797Y-24044567D01*
X75309631Y-24044567D01*
X75309632Y-24044567D01*
X75454627Y-24015725D01*
X75591209Y-23959151D01*
X75714130Y-23877018D01*
X75818665Y-23772483D01*
X75900798Y-23649562D01*
X75957372Y-23512980D01*
X75986214Y-23367985D01*
X75986214Y-23220149D01*
X75957372Y-23075154D01*
X75900798Y-22938572D01*
X75818665Y-22815651D01*
X75714130Y-22711116D01*
X75591209Y-22628983D01*
X75591207Y-22628982D01*
X75454628Y-22572409D01*
X75309632Y-22543567D01*
X75161796Y-22543567D01*
X75161795Y-22543567D01*
X75016799Y-22572409D01*
X74880220Y-22628982D01*
X74757299Y-22711115D01*
X74652762Y-22815652D01*
X74570629Y-22938573D01*
X74514056Y-23075152D01*
X74514056Y-23075154D01*
X74485214Y-23220149D01*
X500500Y-23220149D01*
X500500Y-21752494D01*
X71127498Y-21752494D01*
X71127498Y-21900331D01*
X71156340Y-22045327D01*
X71212470Y-22180837D01*
X71212914Y-22181908D01*
X71295047Y-22304829D01*
X71399582Y-22409364D01*
X71522503Y-22491497D01*
X71659085Y-22548071D01*
X71804080Y-22576913D01*
X71804081Y-22576913D01*
X71951915Y-22576913D01*
X71951916Y-22576913D01*
X72096911Y-22548071D01*
X72233493Y-22491497D01*
X72356414Y-22409364D01*
X72460949Y-22304829D01*
X72543082Y-22181908D01*
X72599656Y-22045326D01*
X72628498Y-21900331D01*
X72628498Y-21752495D01*
X72599656Y-21607500D01*
X72543082Y-21470918D01*
X72460949Y-21347997D01*
X72356414Y-21243462D01*
X72287169Y-21197194D01*
X73335647Y-21197194D01*
X73420758Y-21220000D01*
X73539244Y-21220000D01*
X73544221Y-21218666D01*
X73605322Y-21221862D01*
X73652876Y-21260364D01*
X73668717Y-21319463D01*
X73652168Y-21369291D01*
X73584977Y-21469849D01*
X73528405Y-21606427D01*
X73499563Y-21751423D01*
X73499563Y-21899260D01*
X73528405Y-22044256D01*
X73528849Y-22045327D01*
X73584979Y-22180837D01*
X73667112Y-22303758D01*
X73771647Y-22408293D01*
X73894568Y-22490426D01*
X74031150Y-22547000D01*
X74176145Y-22575842D01*
X74176146Y-22575842D01*
X74323980Y-22575842D01*
X74323981Y-22575842D01*
X74468976Y-22547000D01*
X74605558Y-22490426D01*
X74728479Y-22408293D01*
X74833014Y-22303758D01*
X74915147Y-22180837D01*
X74971721Y-22044255D01*
X75000563Y-21899260D01*
X75000563Y-21751424D01*
X74971721Y-21606429D01*
X74915147Y-21469847D01*
X74833014Y-21346926D01*
X74805551Y-21319463D01*
X74728481Y-21242392D01*
X74709670Y-21229823D01*
X74694668Y-21217511D01*
X74388580Y-20911421D01*
X74276155Y-20798997D01*
X74227267Y-20750109D01*
X74430000Y-20750109D01*
X74430000Y-20789891D01*
X74445224Y-20826645D01*
X74473355Y-20854776D01*
X74510109Y-20870000D01*
X74549891Y-20870000D01*
X74586645Y-20854776D01*
X74614776Y-20826645D01*
X74630000Y-20789891D01*
X74630000Y-20770000D01*
X74812842Y-20770000D01*
X74957194Y-20914351D01*
X74980000Y-20829243D01*
X74980000Y-20710757D01*
X74957194Y-20625648D01*
X74812842Y-20770000D01*
X74630000Y-20770000D01*
X74630000Y-20750109D01*
X74614776Y-20713355D01*
X74586645Y-20685224D01*
X74549891Y-20670000D01*
X74510109Y-20670000D01*
X74473355Y-20685224D01*
X74445224Y-20713355D01*
X74430000Y-20750109D01*
X74227267Y-20750109D01*
X74102804Y-20625647D01*
X74102803Y-20625647D01*
X74100626Y-20633775D01*
X74067302Y-20685089D01*
X74010181Y-20707016D01*
X73951080Y-20691181D01*
X73912575Y-20643631D01*
X73909372Y-20633775D01*
X73907194Y-20625647D01*
X73335647Y-21197194D01*
X72287169Y-21197194D01*
X72233493Y-21161329D01*
X72233491Y-21161328D01*
X72096912Y-21104755D01*
X71951916Y-21075913D01*
X71804080Y-21075913D01*
X71804079Y-21075913D01*
X71659083Y-21104755D01*
X71522504Y-21161328D01*
X71399583Y-21243461D01*
X71295046Y-21347998D01*
X71212913Y-21470919D01*
X71156340Y-21607498D01*
X71127498Y-21752494D01*
X500500Y-21752494D01*
X500500Y-20926081D01*
X46249500Y-20926081D01*
X46249500Y-21073918D01*
X46278342Y-21218914D01*
X46334915Y-21355493D01*
X46334916Y-21355495D01*
X46417049Y-21478416D01*
X46521584Y-21582951D01*
X46644505Y-21665084D01*
X46781087Y-21721658D01*
X46926082Y-21750500D01*
X46926083Y-21750500D01*
X47073917Y-21750500D01*
X47073918Y-21750500D01*
X47218913Y-21721658D01*
X47355495Y-21665084D01*
X47478416Y-21582951D01*
X47582951Y-21478416D01*
X47665084Y-21355495D01*
X47721658Y-21218913D01*
X47750500Y-21073918D01*
X47750500Y-20926082D01*
X47750500Y-20926081D01*
X49249500Y-20926081D01*
X49249500Y-21073918D01*
X49278342Y-21218914D01*
X49334915Y-21355493D01*
X49334916Y-21355495D01*
X49417049Y-21478416D01*
X49521584Y-21582951D01*
X49644505Y-21665084D01*
X49781087Y-21721658D01*
X49926082Y-21750500D01*
X49926083Y-21750500D01*
X50073917Y-21750500D01*
X50073918Y-21750500D01*
X50218913Y-21721658D01*
X50355495Y-21665084D01*
X50478416Y-21582951D01*
X50582951Y-21478416D01*
X50665084Y-21355495D01*
X50721658Y-21218913D01*
X50750500Y-21073918D01*
X50750500Y-20927525D01*
X67449500Y-20927525D01*
X67449500Y-21072475D01*
X67473022Y-21160258D01*
X67487017Y-21212489D01*
X67559487Y-21338010D01*
X67559489Y-21338012D01*
X67559491Y-21338015D01*
X67661985Y-21440509D01*
X67661987Y-21440510D01*
X67661989Y-21440512D01*
X67787511Y-21512982D01*
X67787512Y-21512982D01*
X67787515Y-21512984D01*
X67927525Y-21550500D01*
X67927526Y-21550500D01*
X68072474Y-21550500D01*
X68072475Y-21550500D01*
X68212485Y-21512984D01*
X68212487Y-21512982D01*
X68212489Y-21512982D01*
X68338010Y-21440512D01*
X68338010Y-21440511D01*
X68338015Y-21440509D01*
X68440509Y-21338015D01*
X68485341Y-21260364D01*
X68512982Y-21212489D01*
X68512982Y-21212487D01*
X68512984Y-21212485D01*
X68550500Y-21072475D01*
X68550500Y-20927525D01*
X68512984Y-20787515D01*
X68468667Y-20710756D01*
X73030000Y-20710756D01*
X73030000Y-20829243D01*
X73052803Y-20914351D01*
X73052804Y-20914351D01*
X73197156Y-20770000D01*
X73177265Y-20750109D01*
X73380000Y-20750109D01*
X73380000Y-20789891D01*
X73395224Y-20826645D01*
X73423355Y-20854776D01*
X73460109Y-20870000D01*
X73499891Y-20870000D01*
X73536645Y-20854776D01*
X73564776Y-20826645D01*
X73580000Y-20789891D01*
X73580000Y-20750109D01*
X73564776Y-20713355D01*
X73536645Y-20685224D01*
X73499891Y-20670000D01*
X73460109Y-20670000D01*
X73423355Y-20685224D01*
X73395224Y-20713355D01*
X73380000Y-20750109D01*
X73177265Y-20750109D01*
X73052803Y-20625647D01*
X73030000Y-20710756D01*
X68468667Y-20710756D01*
X68440509Y-20661985D01*
X68338015Y-20559491D01*
X68338012Y-20559489D01*
X68338010Y-20559487D01*
X68212488Y-20487017D01*
X68212489Y-20487017D01*
X68182896Y-20479087D01*
X68072475Y-20449500D01*
X67927525Y-20449500D01*
X67865790Y-20466041D01*
X67787510Y-20487017D01*
X67661989Y-20559487D01*
X67559487Y-20661989D01*
X67487017Y-20787510D01*
X67476531Y-20826645D01*
X67449500Y-20927525D01*
X50750500Y-20927525D01*
X50750500Y-20926082D01*
X50721658Y-20781087D01*
X50665084Y-20644505D01*
X50582951Y-20521584D01*
X50488561Y-20427194D01*
X72585648Y-20427194D01*
X72670758Y-20450000D01*
X72789243Y-20450000D01*
X72874350Y-20427194D01*
X72861153Y-20413997D01*
X72861151Y-20413994D01*
X72832157Y-20385000D01*
X73377842Y-20385000D01*
X73479999Y-20487156D01*
X73582156Y-20385000D01*
X74427842Y-20385000D01*
X74529999Y-20487156D01*
X74589962Y-20427194D01*
X75135648Y-20427194D01*
X75220758Y-20450000D01*
X75339243Y-20450000D01*
X75424351Y-20427194D01*
X75280000Y-20282842D01*
X75135648Y-20427194D01*
X74589962Y-20427194D01*
X74632157Y-20384999D01*
X74530001Y-20282842D01*
X74427842Y-20385000D01*
X73582156Y-20385000D01*
X73582157Y-20384999D01*
X73480001Y-20282842D01*
X73377842Y-20385000D01*
X72832157Y-20385000D01*
X72730000Y-20282842D01*
X72585648Y-20427194D01*
X50488561Y-20427194D01*
X50478416Y-20417049D01*
X50355495Y-20334916D01*
X50355493Y-20334915D01*
X50218914Y-20278342D01*
X50073918Y-20249500D01*
X49926082Y-20249500D01*
X49926081Y-20249500D01*
X49781085Y-20278342D01*
X49644506Y-20334915D01*
X49521585Y-20417048D01*
X49417048Y-20521585D01*
X49334915Y-20644506D01*
X49278342Y-20781085D01*
X49249500Y-20926081D01*
X47750500Y-20926081D01*
X47721658Y-20781087D01*
X47665084Y-20644505D01*
X47582951Y-20521584D01*
X47478416Y-20417049D01*
X47355495Y-20334916D01*
X47355493Y-20334915D01*
X47218914Y-20278342D01*
X47073918Y-20249500D01*
X46926082Y-20249500D01*
X46926081Y-20249500D01*
X46781085Y-20278342D01*
X46644506Y-20334915D01*
X46521585Y-20417048D01*
X46417048Y-20521585D01*
X46334915Y-20644506D01*
X46278342Y-20781085D01*
X46249500Y-20926081D01*
X500500Y-20926081D01*
X500500Y-19927525D01*
X40449500Y-19927525D01*
X40449500Y-20072475D01*
X40463941Y-20126368D01*
X40487017Y-20212489D01*
X40559487Y-20338010D01*
X40559489Y-20338012D01*
X40559491Y-20338015D01*
X40661985Y-20440509D01*
X40661987Y-20440510D01*
X40661989Y-20440512D01*
X40787511Y-20512982D01*
X40787512Y-20512982D01*
X40787515Y-20512984D01*
X40927525Y-20550500D01*
X40927526Y-20550500D01*
X41072474Y-20550500D01*
X41072475Y-20550500D01*
X41212485Y-20512984D01*
X41212487Y-20512982D01*
X41212489Y-20512982D01*
X41338010Y-20440512D01*
X41338010Y-20440511D01*
X41338015Y-20440509D01*
X41440509Y-20338015D01*
X41472363Y-20282842D01*
X41512982Y-20212489D01*
X41512982Y-20212487D01*
X41512984Y-20212485D01*
X41550500Y-20072475D01*
X41550500Y-19927525D01*
X41512984Y-19787515D01*
X41512982Y-19787512D01*
X41512982Y-19787510D01*
X41440512Y-19661989D01*
X41440510Y-19661987D01*
X41440509Y-19661985D01*
X41338015Y-19559491D01*
X41338012Y-19559489D01*
X41338010Y-19559487D01*
X41212488Y-19487017D01*
X41212489Y-19487017D01*
X41144924Y-19468913D01*
X41072475Y-19449500D01*
X40927525Y-19449500D01*
X40865790Y-19466041D01*
X40787510Y-19487017D01*
X40661989Y-19559487D01*
X40559487Y-19661989D01*
X40487017Y-19787510D01*
X40466582Y-19863775D01*
X40449500Y-19927525D01*
X500500Y-19927525D01*
X500500Y-19151081D01*
X46024500Y-19151081D01*
X46024500Y-19298918D01*
X46053342Y-19443914D01*
X46101214Y-19559487D01*
X46109916Y-19580495D01*
X46192049Y-19703416D01*
X46296584Y-19807951D01*
X46419505Y-19890084D01*
X46556087Y-19946658D01*
X46701082Y-19975500D01*
X46701083Y-19975500D01*
X46848917Y-19975500D01*
X46848918Y-19975500D01*
X46993913Y-19946658D01*
X47008162Y-19940756D01*
X72280000Y-19940756D01*
X72280000Y-20059243D01*
X72302803Y-20144351D01*
X72302804Y-20144351D01*
X72447156Y-20000000D01*
X72427265Y-19980109D01*
X72630000Y-19980109D01*
X72630000Y-20019891D01*
X72645224Y-20056645D01*
X72673355Y-20084776D01*
X72710109Y-20100000D01*
X72749891Y-20100000D01*
X72786645Y-20084776D01*
X72814776Y-20056645D01*
X72830000Y-20019891D01*
X72830000Y-20000000D01*
X73012842Y-20000000D01*
X73104999Y-20092156D01*
X73197157Y-19999999D01*
X73177267Y-19980109D01*
X73380000Y-19980109D01*
X73380000Y-20019891D01*
X73395224Y-20056645D01*
X73423355Y-20084776D01*
X73460109Y-20100000D01*
X73499891Y-20100000D01*
X73536645Y-20084776D01*
X73564776Y-20056645D01*
X73580000Y-20019891D01*
X73580000Y-20000000D01*
X73762842Y-20000000D01*
X73907194Y-20144351D01*
X73909372Y-20136224D01*
X73942696Y-20084910D01*
X73999817Y-20062983D01*
X74058918Y-20078818D01*
X74097423Y-20126368D01*
X74100626Y-20136224D01*
X74102803Y-20144351D01*
X74102804Y-20144351D01*
X74247156Y-20000000D01*
X74227265Y-19980109D01*
X74430000Y-19980109D01*
X74430000Y-20019891D01*
X74445224Y-20056645D01*
X74473355Y-20084776D01*
X74510109Y-20100000D01*
X74549891Y-20100000D01*
X74586645Y-20084776D01*
X74614776Y-20056645D01*
X74630000Y-20019891D01*
X74630000Y-20000000D01*
X74812842Y-20000000D01*
X74904999Y-20092156D01*
X74997157Y-19999999D01*
X74977267Y-19980109D01*
X75180000Y-19980109D01*
X75180000Y-20019891D01*
X75195224Y-20056645D01*
X75223355Y-20084776D01*
X75260109Y-20100000D01*
X75299891Y-20100000D01*
X75336645Y-20084776D01*
X75364776Y-20056645D01*
X75380000Y-20019891D01*
X75380000Y-20000000D01*
X75562842Y-20000000D01*
X75707194Y-20144351D01*
X75723821Y-20082303D01*
X76544534Y-20082303D01*
X76544534Y-20230140D01*
X76573376Y-20375136D01*
X76629949Y-20511715D01*
X76629950Y-20511717D01*
X76712083Y-20634638D01*
X76816618Y-20739173D01*
X76939539Y-20821306D01*
X77076121Y-20877880D01*
X77221116Y-20906722D01*
X77221117Y-20906722D01*
X77368951Y-20906722D01*
X77368952Y-20906722D01*
X77513947Y-20877880D01*
X77650529Y-20821306D01*
X77773450Y-20739173D01*
X77877985Y-20634638D01*
X77960118Y-20511717D01*
X78016692Y-20375135D01*
X78045534Y-20230140D01*
X78045534Y-20082304D01*
X78016692Y-19937309D01*
X77960118Y-19800727D01*
X77877985Y-19677806D01*
X77773450Y-19573271D01*
X77650529Y-19491138D01*
X77640578Y-19487016D01*
X77513948Y-19434564D01*
X77368952Y-19405722D01*
X77221116Y-19405722D01*
X77221115Y-19405722D01*
X77076119Y-19434564D01*
X76939540Y-19491137D01*
X76816619Y-19573270D01*
X76712082Y-19677807D01*
X76629949Y-19800728D01*
X76573376Y-19937307D01*
X76544534Y-20082303D01*
X75723821Y-20082303D01*
X75730000Y-20059243D01*
X75730000Y-19940757D01*
X75707194Y-19855648D01*
X75562842Y-20000000D01*
X75380000Y-20000000D01*
X75380000Y-19980109D01*
X75364776Y-19943355D01*
X75336645Y-19915224D01*
X75299891Y-19900000D01*
X75260109Y-19900000D01*
X75223355Y-19915224D01*
X75195224Y-19943355D01*
X75180000Y-19980109D01*
X74977267Y-19980109D01*
X74905001Y-19907842D01*
X74812842Y-20000000D01*
X74630000Y-20000000D01*
X74630000Y-19980109D01*
X74614776Y-19943355D01*
X74586645Y-19915224D01*
X74549891Y-19900000D01*
X74510109Y-19900000D01*
X74473355Y-19915224D01*
X74445224Y-19943355D01*
X74430000Y-19980109D01*
X74227265Y-19980109D01*
X74102803Y-19855647D01*
X74100626Y-19863775D01*
X74067302Y-19915089D01*
X74010181Y-19937016D01*
X73951080Y-19921181D01*
X73912575Y-19873631D01*
X73909372Y-19863775D01*
X73907194Y-19855648D01*
X73762842Y-20000000D01*
X73580000Y-20000000D01*
X73580000Y-19980109D01*
X73564776Y-19943355D01*
X73536645Y-19915224D01*
X73499891Y-19900000D01*
X73460109Y-19900000D01*
X73423355Y-19915224D01*
X73395224Y-19943355D01*
X73380000Y-19980109D01*
X73177267Y-19980109D01*
X73105001Y-19907842D01*
X73012842Y-20000000D01*
X72830000Y-20000000D01*
X72830000Y-19980109D01*
X72814776Y-19943355D01*
X72786645Y-19915224D01*
X72749891Y-19900000D01*
X72710109Y-19900000D01*
X72673355Y-19915224D01*
X72645224Y-19943355D01*
X72630000Y-19980109D01*
X72427265Y-19980109D01*
X72302803Y-19855647D01*
X72280000Y-19940756D01*
X47008162Y-19940756D01*
X47130495Y-19890084D01*
X47253416Y-19807951D01*
X47357951Y-19703416D01*
X47440084Y-19580495D01*
X47496658Y-19443913D01*
X47525500Y-19298918D01*
X47525500Y-19151082D01*
X47496658Y-19006087D01*
X47463518Y-18926081D01*
X67249500Y-18926081D01*
X67249500Y-19073918D01*
X67278342Y-19218914D01*
X67334915Y-19355493D01*
X67334916Y-19355495D01*
X67417049Y-19478416D01*
X67521584Y-19582951D01*
X67644505Y-19665084D01*
X67781087Y-19721658D01*
X67926082Y-19750500D01*
X67926083Y-19750500D01*
X68073917Y-19750500D01*
X68073918Y-19750500D01*
X68218913Y-19721658D01*
X68355495Y-19665084D01*
X68478416Y-19582951D01*
X68488564Y-19572803D01*
X72585647Y-19572803D01*
X72730000Y-19717156D01*
X72832155Y-19615000D01*
X73377842Y-19615000D01*
X73479999Y-19717156D01*
X73582156Y-19615000D01*
X74427842Y-19615000D01*
X74529999Y-19717156D01*
X74632157Y-19614999D01*
X74589961Y-19572803D01*
X75135647Y-19572803D01*
X75280000Y-19717156D01*
X75424351Y-19572804D01*
X75424351Y-19572803D01*
X75339243Y-19550000D01*
X75220757Y-19550000D01*
X75135647Y-19572803D01*
X74589961Y-19572803D01*
X74530001Y-19512842D01*
X74427842Y-19615000D01*
X73582156Y-19615000D01*
X73582157Y-19614999D01*
X73480001Y-19512842D01*
X73377842Y-19615000D01*
X72832155Y-19615000D01*
X72874351Y-19572804D01*
X72874351Y-19572803D01*
X72789243Y-19550000D01*
X72670757Y-19550000D01*
X72585647Y-19572803D01*
X68488564Y-19572803D01*
X68582951Y-19478416D01*
X68665084Y-19355495D01*
X68721658Y-19218913D01*
X68731237Y-19170756D01*
X73030000Y-19170756D01*
X73030000Y-19289243D01*
X73052803Y-19374351D01*
X73052804Y-19374351D01*
X73197156Y-19230000D01*
X73177265Y-19210109D01*
X73380000Y-19210109D01*
X73380000Y-19249891D01*
X73395224Y-19286645D01*
X73423355Y-19314776D01*
X73460109Y-19330000D01*
X73499891Y-19330000D01*
X73536645Y-19314776D01*
X73564776Y-19286645D01*
X73580000Y-19249891D01*
X73580000Y-19230000D01*
X73762842Y-19230000D01*
X73907194Y-19374351D01*
X73909372Y-19366224D01*
X73942696Y-19314910D01*
X73999817Y-19292983D01*
X74058918Y-19308818D01*
X74097423Y-19356368D01*
X74100626Y-19366224D01*
X74102803Y-19374351D01*
X74102804Y-19374351D01*
X74247156Y-19230000D01*
X74227265Y-19210109D01*
X74430000Y-19210109D01*
X74430000Y-19249891D01*
X74445224Y-19286645D01*
X74473355Y-19314776D01*
X74510109Y-19330000D01*
X74549891Y-19330000D01*
X74586645Y-19314776D01*
X74614776Y-19286645D01*
X74630000Y-19249891D01*
X74630000Y-19230000D01*
X74812842Y-19230000D01*
X74957194Y-19374351D01*
X74980000Y-19289243D01*
X74980000Y-19176081D01*
X78499500Y-19176081D01*
X78499500Y-19323918D01*
X78528342Y-19468914D01*
X78575578Y-19582951D01*
X78584916Y-19605495D01*
X78667049Y-19728416D01*
X78771584Y-19832951D01*
X78894505Y-19915084D01*
X79031087Y-19971658D01*
X79176082Y-20000500D01*
X79176083Y-20000500D01*
X79323917Y-20000500D01*
X79323918Y-20000500D01*
X79468913Y-19971658D01*
X79605495Y-19915084D01*
X79728416Y-19832951D01*
X79832951Y-19728416D01*
X79915084Y-19605495D01*
X79971658Y-19468913D01*
X80000500Y-19323918D01*
X80000500Y-19176082D01*
X79971658Y-19031087D01*
X79915084Y-18894505D01*
X79832951Y-18771584D01*
X79728416Y-18667049D01*
X79605495Y-18584916D01*
X79605493Y-18584915D01*
X79468914Y-18528342D01*
X79323918Y-18499500D01*
X79176082Y-18499500D01*
X79176081Y-18499500D01*
X79031085Y-18528342D01*
X78894506Y-18584915D01*
X78771585Y-18667048D01*
X78667048Y-18771585D01*
X78584915Y-18894506D01*
X78528342Y-19031085D01*
X78499500Y-19176081D01*
X74980000Y-19176081D01*
X74980000Y-19170757D01*
X74957194Y-19085648D01*
X74812842Y-19230000D01*
X74630000Y-19230000D01*
X74630000Y-19210109D01*
X74614776Y-19173355D01*
X74586645Y-19145224D01*
X74549891Y-19130000D01*
X74510109Y-19130000D01*
X74473355Y-19145224D01*
X74445224Y-19173355D01*
X74430000Y-19210109D01*
X74227265Y-19210109D01*
X74102803Y-19085647D01*
X74100626Y-19093775D01*
X74067302Y-19145089D01*
X74010181Y-19167016D01*
X73951080Y-19151181D01*
X73912575Y-19103631D01*
X73909372Y-19093775D01*
X73907194Y-19085648D01*
X73762842Y-19230000D01*
X73580000Y-19230000D01*
X73580000Y-19210109D01*
X73564776Y-19173355D01*
X73536645Y-19145224D01*
X73499891Y-19130000D01*
X73460109Y-19130000D01*
X73423355Y-19145224D01*
X73395224Y-19173355D01*
X73380000Y-19210109D01*
X73177265Y-19210109D01*
X73052803Y-19085647D01*
X73030000Y-19170756D01*
X68731237Y-19170756D01*
X68750500Y-19073918D01*
X68750500Y-18926082D01*
X68725978Y-18802803D01*
X73335647Y-18802803D01*
X73480000Y-18947156D01*
X73624351Y-18802804D01*
X73624351Y-18802803D01*
X74385647Y-18802803D01*
X74530000Y-18947156D01*
X74674351Y-18802804D01*
X74674351Y-18802803D01*
X74589243Y-18780000D01*
X74470757Y-18780000D01*
X74385647Y-18802803D01*
X73624351Y-18802803D01*
X73539243Y-18780000D01*
X73420757Y-18780000D01*
X73335647Y-18802803D01*
X68725978Y-18802803D01*
X68721658Y-18781087D01*
X68665084Y-18644505D01*
X68582951Y-18521584D01*
X68478416Y-18417049D01*
X68355495Y-18334916D01*
X68355493Y-18334915D01*
X68218914Y-18278342D01*
X68073918Y-18249500D01*
X67926082Y-18249500D01*
X67926081Y-18249500D01*
X67781085Y-18278342D01*
X67644506Y-18334915D01*
X67521585Y-18417048D01*
X67417048Y-18521585D01*
X67334915Y-18644506D01*
X67278342Y-18781085D01*
X67249500Y-18926081D01*
X47463518Y-18926081D01*
X47462833Y-18924426D01*
X47440084Y-18869505D01*
X47357951Y-18746584D01*
X47253416Y-18642049D01*
X47130495Y-18559916D01*
X47130493Y-18559915D01*
X46993914Y-18503342D01*
X46848918Y-18474500D01*
X46701082Y-18474500D01*
X46701081Y-18474500D01*
X46556085Y-18503342D01*
X46419506Y-18559915D01*
X46296585Y-18642048D01*
X46192048Y-18746585D01*
X46109915Y-18869506D01*
X46053342Y-19006085D01*
X46024500Y-19151081D01*
X500500Y-19151081D01*
X500500Y-17977525D01*
X69449500Y-17977525D01*
X69449500Y-18122474D01*
X69487017Y-18262489D01*
X69559487Y-18388010D01*
X69559489Y-18388012D01*
X69559491Y-18388015D01*
X69661985Y-18490509D01*
X69661987Y-18490510D01*
X69661989Y-18490512D01*
X69787511Y-18562982D01*
X69787512Y-18562982D01*
X69787515Y-18562984D01*
X69927525Y-18600500D01*
X69927526Y-18600500D01*
X70072474Y-18600500D01*
X70072475Y-18600500D01*
X70212485Y-18562984D01*
X70212487Y-18562982D01*
X70212489Y-18562982D01*
X70338010Y-18490512D01*
X70338010Y-18490511D01*
X70338015Y-18490509D01*
X70440509Y-18388015D01*
X70471166Y-18334916D01*
X70512982Y-18262489D01*
X70512982Y-18262487D01*
X70512984Y-18262485D01*
X70550500Y-18122475D01*
X70550500Y-17977525D01*
X70512984Y-17837515D01*
X70512982Y-17837512D01*
X70512982Y-17837510D01*
X70440512Y-17711989D01*
X70440510Y-17711987D01*
X70440509Y-17711985D01*
X70338015Y-17609491D01*
X70338012Y-17609489D01*
X70338010Y-17609487D01*
X70212488Y-17537017D01*
X70212489Y-17537017D01*
X70182896Y-17529087D01*
X70072475Y-17499500D01*
X69927525Y-17499500D01*
X69865790Y-17516041D01*
X69787510Y-17537017D01*
X69661989Y-17609487D01*
X69559487Y-17711989D01*
X69487017Y-17837510D01*
X69449500Y-17977525D01*
X500500Y-17977525D01*
X500500Y-16926082D01*
X66249500Y-16926082D01*
X66249500Y-17073918D01*
X66278342Y-17218913D01*
X66334916Y-17355495D01*
X66417049Y-17478416D01*
X66521584Y-17582951D01*
X66644505Y-17665084D01*
X66781087Y-17721658D01*
X66926082Y-17750500D01*
X66926083Y-17750500D01*
X67073917Y-17750500D01*
X67073918Y-17750500D01*
X67218913Y-17721658D01*
X67355495Y-17665084D01*
X67478416Y-17582951D01*
X67582951Y-17478416D01*
X67665084Y-17355495D01*
X67721658Y-17218913D01*
X67750500Y-17073918D01*
X67750500Y-16926082D01*
X67721658Y-16781087D01*
X67665084Y-16644505D01*
X67582951Y-16521584D01*
X67478416Y-16417049D01*
X67355495Y-16334916D01*
X67239048Y-16286682D01*
X67218914Y-16278342D01*
X67073918Y-16249500D01*
X66926082Y-16249500D01*
X66926081Y-16249500D01*
X66781085Y-16278342D01*
X66644506Y-16334915D01*
X66521585Y-16417048D01*
X66417048Y-16521585D01*
X66334915Y-16644506D01*
X66278342Y-16781085D01*
X66278342Y-16781087D01*
X66249500Y-16926082D01*
X500500Y-16926082D01*
X500500Y-16200081D01*
X74523500Y-16200081D01*
X74523500Y-16347918D01*
X74552342Y-16492914D01*
X74584959Y-16571658D01*
X74608916Y-16629495D01*
X74691049Y-16752416D01*
X74795584Y-16856951D01*
X74918505Y-16939084D01*
X75055087Y-16995658D01*
X75200082Y-17024500D01*
X75200083Y-17024500D01*
X75347917Y-17024500D01*
X75347918Y-17024500D01*
X75492913Y-16995658D01*
X75629495Y-16939084D01*
X75752416Y-16856951D01*
X75856951Y-16752416D01*
X75939084Y-16629495D01*
X75995658Y-16492913D01*
X76024500Y-16347918D01*
X76024500Y-16200082D01*
X75995658Y-16055087D01*
X75939084Y-15918505D01*
X75856951Y-15795584D01*
X75837448Y-15776081D01*
X80074500Y-15776081D01*
X80074500Y-15776082D01*
X80074500Y-15923918D01*
X80103342Y-16068913D01*
X80159916Y-16205495D01*
X80242049Y-16328416D01*
X80346584Y-16432951D01*
X80469505Y-16515084D01*
X80606087Y-16571658D01*
X80751082Y-16600500D01*
X80751083Y-16600500D01*
X80898917Y-16600500D01*
X80898918Y-16600500D01*
X81043913Y-16571658D01*
X81180495Y-16515084D01*
X81303416Y-16432951D01*
X81407951Y-16328416D01*
X81490084Y-16205495D01*
X81546658Y-16068913D01*
X81575500Y-15923918D01*
X81575500Y-15776082D01*
X81546658Y-15631087D01*
X81490084Y-15494505D01*
X81407951Y-15371584D01*
X81303416Y-15267049D01*
X81180495Y-15184916D01*
X81180493Y-15184915D01*
X81043914Y-15128342D01*
X80898918Y-15099500D01*
X80751082Y-15099500D01*
X80751081Y-15099500D01*
X80606085Y-15128342D01*
X80469506Y-15184915D01*
X80346585Y-15267048D01*
X80242048Y-15371585D01*
X80159915Y-15494506D01*
X80103342Y-15631085D01*
X80074500Y-15776081D01*
X75837448Y-15776081D01*
X75752416Y-15691049D01*
X75629495Y-15608916D01*
X75629493Y-15608915D01*
X75492914Y-15552342D01*
X75347918Y-15523500D01*
X75200082Y-15523500D01*
X75200081Y-15523500D01*
X75055085Y-15552342D01*
X74918506Y-15608915D01*
X74795585Y-15691048D01*
X74691048Y-15795585D01*
X74608915Y-15918506D01*
X74552342Y-16055085D01*
X74523500Y-16200081D01*
X500500Y-16200081D01*
X500500Y-9935930D01*
X8349500Y-9935930D01*
X8349500Y-10064069D01*
X8374499Y-10189742D01*
X8374500Y-10189747D01*
X8423534Y-10308125D01*
X8423538Y-10308133D01*
X8466365Y-10372226D01*
X8494724Y-10414669D01*
X8585331Y-10505276D01*
X8648848Y-10547717D01*
X8691866Y-10576461D01*
X8691870Y-10576463D01*
X8691873Y-10576465D01*
X8810256Y-10625501D01*
X8935931Y-10650500D01*
X8935932Y-10650500D01*
X9064068Y-10650500D01*
X9064069Y-10650500D01*
X9189744Y-10625501D01*
X9308127Y-10576465D01*
X9414669Y-10505276D01*
X9505276Y-10414669D01*
X9576465Y-10308127D01*
X9625501Y-10189744D01*
X9650500Y-10064069D01*
X9650500Y-9935931D01*
X9625501Y-9810256D01*
X9576465Y-9691873D01*
X9576463Y-9691870D01*
X9576461Y-9691866D01*
X9547717Y-9648848D01*
X9505276Y-9585331D01*
X9414669Y-9494724D01*
X9372226Y-9466365D01*
X9308133Y-9423538D01*
X9308125Y-9423534D01*
X9189747Y-9374500D01*
X9189745Y-9374499D01*
X9189744Y-9374499D01*
X9064069Y-9349500D01*
X8935931Y-9349500D01*
X8935930Y-9349500D01*
X8873093Y-9361999D01*
X8810256Y-9374499D01*
X8810255Y-9374499D01*
X8810252Y-9374500D01*
X8691874Y-9423534D01*
X8691866Y-9423538D01*
X8585331Y-9494724D01*
X8585327Y-9494727D01*
X8494727Y-9585327D01*
X8494724Y-9585331D01*
X8423538Y-9691866D01*
X8423534Y-9691874D01*
X8374500Y-9810252D01*
X8374499Y-9810257D01*
X8349500Y-9935930D01*
X500500Y-9935930D01*
X500500Y-6927525D01*
X39449500Y-6927525D01*
X39449500Y-7072474D01*
X39487017Y-7212489D01*
X39559487Y-7338010D01*
X39559489Y-7338012D01*
X39559491Y-7338015D01*
X39661985Y-7440509D01*
X39661987Y-7440510D01*
X39661989Y-7440512D01*
X39787511Y-7512982D01*
X39787512Y-7512982D01*
X39787515Y-7512984D01*
X39927525Y-7550500D01*
X39927526Y-7550500D01*
X40072474Y-7550500D01*
X40072475Y-7550500D01*
X40212485Y-7512984D01*
X40212487Y-7512982D01*
X40212489Y-7512982D01*
X40338010Y-7440512D01*
X40338010Y-7440511D01*
X40338015Y-7440509D01*
X40440509Y-7338015D01*
X40512984Y-7212485D01*
X40550500Y-7072475D01*
X40550500Y-6927525D01*
X40512984Y-6787515D01*
X40512982Y-6787512D01*
X40512982Y-6787510D01*
X40440512Y-6661989D01*
X40440510Y-6661987D01*
X40440509Y-6661985D01*
X40338015Y-6559491D01*
X40338012Y-6559489D01*
X40338010Y-6559487D01*
X40212488Y-6487017D01*
X40212489Y-6487017D01*
X40182896Y-6479087D01*
X40072475Y-6449500D01*
X39927525Y-6449500D01*
X39865790Y-6466041D01*
X39787510Y-6487017D01*
X39661989Y-6559487D01*
X39559487Y-6661989D01*
X39487017Y-6787510D01*
X39449500Y-6927525D01*
X500500Y-6927525D01*
X500500Y-5002165D01*
X500594Y-4997847D01*
X503512Y-4931016D01*
X517434Y-4612144D01*
X518184Y-4603568D01*
X568293Y-4222949D01*
X569793Y-4214447D01*
X586813Y-4137675D01*
X647857Y-3862326D01*
X1899500Y-3862326D01*
X1899500Y-3913734D01*
X1899500Y-4137674D01*
X1935440Y-4410666D01*
X1938145Y-4420760D01*
X2006704Y-4676631D01*
X2112074Y-4931016D01*
X2112077Y-4931021D01*
X2249751Y-5169479D01*
X2417372Y-5387928D01*
X2612072Y-5582628D01*
X2830521Y-5750249D01*
X3068979Y-5887923D01*
X3068980Y-5887923D01*
X3068983Y-5887925D01*
X3323368Y-5993295D01*
X3589334Y-6064560D01*
X3862326Y-6100500D01*
X3862327Y-6100500D01*
X4137673Y-6100500D01*
X4137674Y-6100500D01*
X4410666Y-6064560D01*
X4676632Y-5993295D01*
X4931021Y-5887923D01*
X5169479Y-5750249D01*
X5387928Y-5582628D01*
X5582628Y-5387928D01*
X5750249Y-5169479D01*
X5887923Y-4931021D01*
X5993295Y-4676632D01*
X6064560Y-4410666D01*
X6100500Y-4137674D01*
X6100500Y-3862326D01*
X93899500Y-3862326D01*
X93899500Y-3913734D01*
X93899500Y-4137674D01*
X93935440Y-4410666D01*
X93938145Y-4420760D01*
X94006704Y-4676631D01*
X94112074Y-4931016D01*
X94112077Y-4931021D01*
X94249751Y-5169479D01*
X94417372Y-5387928D01*
X94612072Y-5582628D01*
X94830521Y-5750249D01*
X95068979Y-5887923D01*
X95068980Y-5887923D01*
X95068983Y-5887925D01*
X95323368Y-5993295D01*
X95589334Y-6064560D01*
X95862326Y-6100500D01*
X95862327Y-6100500D01*
X96137673Y-6100500D01*
X96137674Y-6100500D01*
X96410666Y-6064560D01*
X96676632Y-5993295D01*
X96931021Y-5887923D01*
X97169479Y-5750249D01*
X97387928Y-5582628D01*
X97582628Y-5387928D01*
X97750249Y-5169479D01*
X97887923Y-4931021D01*
X97993295Y-4676632D01*
X98064560Y-4410666D01*
X98100500Y-4137674D01*
X98100500Y-3862326D01*
X98064560Y-3589334D01*
X97993295Y-3323368D01*
X97887923Y-3068979D01*
X97750249Y-2830521D01*
X97582628Y-2612072D01*
X97387928Y-2417372D01*
X97169479Y-2249751D01*
X96931021Y-2112077D01*
X96931016Y-2112074D01*
X96676631Y-2006704D01*
X96555521Y-1974253D01*
X96410666Y-1935440D01*
X96410659Y-1935439D01*
X96137675Y-1899500D01*
X96137674Y-1899500D01*
X95862326Y-1899500D01*
X95862324Y-1899500D01*
X95589340Y-1935439D01*
X95589338Y-1935439D01*
X95589334Y-1935440D01*
X95488805Y-1962376D01*
X95323368Y-2006704D01*
X95068983Y-2112074D01*
X94830517Y-2249753D01*
X94612075Y-2417369D01*
X94417369Y-2612075D01*
X94249753Y-2830517D01*
X94112074Y-3068983D01*
X94006704Y-3323368D01*
X93969805Y-3461080D01*
X93935440Y-3589334D01*
X93935439Y-3589338D01*
X93935439Y-3589340D01*
X93903845Y-3829325D01*
X93899500Y-3862326D01*
X6100500Y-3862326D01*
X6064560Y-3589334D01*
X5993295Y-3323368D01*
X5887923Y-3068979D01*
X5750249Y-2830521D01*
X5582628Y-2612072D01*
X5387928Y-2417372D01*
X5169479Y-2249751D01*
X4931021Y-2112077D01*
X4931016Y-2112074D01*
X4676631Y-2006704D01*
X4555521Y-1974253D01*
X4410666Y-1935440D01*
X4410659Y-1935439D01*
X4137675Y-1899500D01*
X4137674Y-1899500D01*
X3862326Y-1899500D01*
X3862324Y-1899500D01*
X3589340Y-1935439D01*
X3589338Y-1935439D01*
X3589334Y-1935440D01*
X3488805Y-1962376D01*
X3323368Y-2006704D01*
X3068983Y-2112074D01*
X2830517Y-2249753D01*
X2612075Y-2417369D01*
X2417369Y-2612075D01*
X2249753Y-2830517D01*
X2112074Y-3068983D01*
X2006704Y-3323368D01*
X1969805Y-3461080D01*
X1935440Y-3589334D01*
X1935439Y-3589338D01*
X1935439Y-3589340D01*
X1903845Y-3829325D01*
X1899500Y-3862326D01*
X647857Y-3862326D01*
X652885Y-3839644D01*
X655103Y-3831364D01*
X655744Y-3829329D01*
X655748Y-3829325D01*
X655748Y-3829319D01*
X770555Y-3465194D01*
X773507Y-3457086D01*
X828895Y-3323368D01*
X920421Y-3102403D01*
X924056Y-3094609D01*
X1101325Y-2754079D01*
X1105632Y-2746618D01*
X1311913Y-2422820D01*
X1316851Y-2415769D01*
X1550564Y-2111189D01*
X1556083Y-2104612D01*
X1815481Y-1821528D01*
X1821528Y-1815481D01*
X2104612Y-1556083D01*
X2111189Y-1550564D01*
X2415769Y-1316851D01*
X2422820Y-1311913D01*
X2746618Y-1105632D01*
X2754079Y-1101325D01*
X3094609Y-924056D01*
X3102403Y-920421D01*
X3457093Y-773504D01*
X3465194Y-770555D01*
X3831345Y-655109D01*
X3839644Y-652885D01*
X4214451Y-569792D01*
X4222949Y-568293D01*
X4603568Y-518184D01*
X4612144Y-517434D01*
X4997847Y-500593D01*
X5002165Y-500500D01*
X5065892Y-500500D01*
X15401000Y-500500D01*
X15459191Y-519407D01*
G37*
%TD.AperFunction*%
%TD*%
M02*
