M48
; DRILL file KiCad 10.0.5 date 2026-08-31T14:20:34
; FORMAT={-:-/ absolute / metric / decimal}
; #@! TF.CreationDate,2026-08-31T14:20:34+05:30
; #@! TF.GenerationSoftware,Kicad,Pcbnew,10.0.5
; #@! TF.FileFunction,Plated,1,4,PTH
FMAT,2
METRIC
; #@! TA.AperFunction,Plated,PTH,ComponentDrill
T1C0.200
; #@! TA.AperFunction,Plated,PTH,ViaDrill
T2C0.300
; #@! TA.AperFunction,Plated,PTH,ViaDrill
T3C0.400
; #@! TA.AperFunction,Plated,PTH,ViaDrill
T4C0.500
; #@! TA.AperFunction,Plated,PTH,ComponentDrill
T5C0.500
; #@! TA.AperFunction,Plated,PTH,ComponentDrill
T6C0.600
; #@! TA.AperFunction,Plated,PTH,ComponentDrill
T7C0.800
; #@! TA.AperFunction,Plated,PTH,ComponentDrill
T8C1.000
; #@! TA.AperFunction,Plated,PTH,ComponentDrill
T9C1.200
; #@! TA.AperFunction,Plated,PTH,ComponentDrill
T10C1.300
%
G90
G05
T1
X72.73Y-20.0
X73.48Y-19.23
X73.48Y-20.0
X73.48Y-20.77
X74.53Y-19.23
X74.53Y-20.0
X74.53Y-20.77
X75.28Y-20.0
T2
X11.0Y-56.0
X12.325Y-65.0
X12.65Y-48.0
X14.0Y-63.0
X16.0Y-49.0
X16.0Y-52.0
X17.0Y-46.0
X17.0Y-48.0
X19.0Y-65.0
X21.98Y-51.2
X22.03Y-44.8
X25.64Y-64.91
X26.0Y-30.0
X29.0Y-33.0
X30.6Y-64.4
X31.0Y-33.0
X32.0Y-77.0
X33.0Y-32.0
X39.0Y-47.0
X40.0Y-7.0
X40.0Y-26.0
X41.0Y-20.0
X41.0Y-30.0
X54.0Y-46.0
X59.0Y-39.0
X61.0Y-51.0
X62.0Y-36.0
X62.0Y-49.0
X62.0Y-51.0
X65.0Y-29.0
X67.0Y-39.0
X67.0Y-54.0
X68.0Y-21.0
X70.0Y-18.05
X70.0Y-26.0
X70.0Y-40.0
X70.0Y-55.0
X70.5Y-45.5
X71.0Y-48.0
X71.72Y-51.72
X73.02Y-49.72
X74.0Y-52.0
X75.0Y-52.0
X77.275Y-55.0
X78.672Y-48.228
X79.0Y-36.9
T3
X4.0Y-28.0
X6.0Y-25.0
X7.0Y-16.0
X7.0Y-20.0
X7.0Y-38.0
X9.0Y-72.0
X9.0Y-77.0
X10.0Y-67.0
X14.0Y-58.0
X16.55Y-58.0
X17.0Y-45.0
X17.0Y-63.0
X19.0Y-2.0
X19.0Y-36.0
X19.0Y-53.0
X20.0Y-57.0
X20.0Y-60.0
X20.29Y-21.71
X20.67Y-31.33
X21.0Y-36.0
X21.0Y-53.0
X21.0Y-72.0
X21.0Y-76.0
X21.03Y-44.8
X22.0Y-69.0
X23.0Y-7.0
X25.0Y-50.0
X25.0Y-62.0
X27.0Y-51.0
X29.0Y-41.0
X32.0Y-37.0
X32.0Y-45.0
X32.0Y-55.0
X34.97Y-53.97
X36.0Y-38.0
X37.0Y-2.0
X38.0Y-55.0
X43.0Y-60.0
X46.0Y-15.0
X46.0Y-76.0
X47.0Y-25.0
X47.0Y-37.0
X47.0Y-73.0
X52.0Y-60.0
X52.0Y-73.0
X55.0Y-35.0
X55.0Y-42.0
X55.0Y-49.0
X56.225Y-42.0
X62.0Y-30.0
X62.0Y-68.0
X62.0Y-74.0
X65.0Y-40.0
X65.0Y-43.0
X67.0Y-14.0
X67.0Y-47.15
X69.0Y-28.0
X69.0Y-51.0
X70.817Y-18.978
X71.0Y-33.0
X71.927Y-40.886
X73.83Y-40.955
X74.0Y-51.0
X75.0Y-32.0
X75.63Y-43.484
X76.0Y-52.0
X78.88Y-49.72
X78.88Y-49.72
X81.0Y-31.0
X81.0Y-43.0
X81.0Y-69.0
X81.0Y-74.0
X83.0Y-50.0
X88.0Y-13.0
X88.0Y-19.0
X88.0Y-24.0
X96.0Y-36.0
X98.0Y-34.0
T4
X11.0Y-53.0
X19.73Y-45.0
X19.73Y-45.0
X19.73Y-51.2
X27.0Y-59.0
X27.0Y-59.0
X27.0Y-59.0
X37.0Y-60.0
X43.0Y-44.0
X43.0Y-49.0
X46.775Y-19.225
X47.0Y-21.0
X50.0Y-21.0
X53.0Y-64.0
X57.0Y-58.0
X61.0Y-62.0
X66.0Y-51.0
X66.0Y-71.0
X66.085Y-65.171
X67.0Y-17.0
X67.0Y-46.0
X68.0Y-19.0
X68.0Y-77.0
X68.881Y-46.119
X69.498Y-42.28
X71.325Y-44.457
X71.878Y-21.826
X74.0Y-47.0
X74.0Y-55.0
X74.0Y-60.0
X74.25Y-21.825
X75.0Y-39.0
X75.236Y-23.294
X75.274Y-16.274
X76.0Y-38.0
X76.0Y-58.0
X77.295Y-20.156
X77.852Y-42.28
X78.0Y-66.0
X78.0Y-77.0
X80.825Y-25.0
X81.0Y-61.0
X83.0Y-26.0
X83.0Y-77.0
X84.0Y-22.0
X84.0Y-36.0
X85.0Y-45.0
X85.0Y-55.0
X89.0Y-77.0
X91.0Y-71.0
X92.0Y-61.0
X97.0Y-58.0
T6
X12.1Y-72.79
X17.9Y-72.79
T8
X7.5Y-46.25
X7.5Y-48.75
T9
X33.0Y-71.6
X33.0Y-78.6
T10
X66.0Y-74.0
X71.0Y-74.0
X86.0Y-74.0
X91.0Y-74.0
T5
G00X30.6Y-70.5
M15
G01X30.6Y-69.5
M16
G05
G00X30.6Y-74.5
M15
G01X30.6Y-73.5
M16
G05
G00X30.6Y-77.5
M15
G01X30.6Y-76.5
M16
G05
G00X35.4Y-69.5
M15
G01X35.4Y-68.5
M16
G05
T7
G00X10.67Y-71.94
M15
G01X10.67Y-72.64
M16
G05
G00X10.67Y-76.27
M15
G01X10.67Y-76.67
M16
G05
G00X19.33Y-71.94
M15
G01X19.33Y-72.64
M16
G05
G00X19.33Y-76.27
M15
G01X19.33Y-76.67
M16
G05
T8
G00X45.4Y-69.5
M15
G01X47.9Y-69.5
M16
G05
G00X47.65Y-75.5
M15
G01X45.65Y-75.5
M16
G05
G00X51.35Y-71.5
M15
G01X51.35Y-73.5
M16
G05
M30
