%TF.GenerationSoftware,KiCad,Pcbnew,10.0.5*%
%TF.CreationDate,2026-09-24T00:42:10+05:30*%
%TF.ProjectId,AuraForge_50X,41757261-466f-4726-9765-5f3530582e6b,v2.0*%
%TF.SameCoordinates,Original*%
%TF.FileFunction,Copper,L4,Bot*%
%TF.FilePolarity,Positive*%
%FSLAX46Y46*%
G04 Gerber Fmt 4.6, Leading zero omitted, Abs format (unit mm)*
G04 Created by KiCad (PCBNEW 10.0.5) date 2026-09-24 00:42:10*
%MOMM*%
%LPD*%
G01*
G04 APERTURE LIST*
G04 Aperture macros list*
%AMRoundRect*
0 Rectangle with rounded corners*
0 $1 Rounding radius*
0 $2 $3 $4 $5 $6 $7 $8 $9 X,Y pos of 4 corners*
0 Add a 4 corners polygon primitive as box body*
4,1,4,$2,$3,$4,$5,$6,$7,$8,$9,$2,$3,0*
0 Add four circle primitives for the rounded corners*
1,1,$1+$1,$2,$3*
1,1,$1+$1,$4,$5*
1,1,$1+$1,$6,$7*
1,1,$1+$1,$8,$9*
0 Add four rect primitives between the rounded corners*
20,1,$1+$1,$2,$3,$4,$5,0*
20,1,$1+$1,$4,$5,$6,$7,0*
20,1,$1+$1,$6,$7,$8,$9,0*
20,1,$1+$1,$8,$9,$2,$3,0*%
G04 Aperture macros list end*
%TA.AperFunction,ComponentPad*%
%ADD10C,0.400000*%
%TD*%
%TA.AperFunction,ComponentPad*%
%ADD11O,4.500000X2.000000*%
%TD*%
%TA.AperFunction,ComponentPad*%
%ADD12O,4.000000X1.800000*%
%TD*%
%TA.AperFunction,ComponentPad*%
%ADD13O,1.800000X4.000000*%
%TD*%
%TA.AperFunction,ComponentPad*%
%ADD14C,1.700000*%
%TD*%
%TA.AperFunction,ComponentPad*%
%ADD15RoundRect,0.250000X-1.050000X-1.050000X1.050000X-1.050000X1.050000X1.050000X-1.050000X1.050000X0*%
%TD*%
%TA.AperFunction,ComponentPad*%
%ADD16C,2.600000*%
%TD*%
%TA.AperFunction,ComponentPad*%
%ADD17O,2.000000X1.000000*%
%TD*%
%TA.AperFunction,ViaPad*%
%ADD18C,1.000000*%
%TD*%
%TA.AperFunction,ViaPad*%
%ADD19C,0.800000*%
%TD*%
%TA.AperFunction,ViaPad*%
%ADD20C,0.600000*%
%TD*%
%TA.AperFunction,Conductor*%
%ADD21C,0.250000*%
%TD*%
G04 APERTURE END LIST*
D10*
%TO.P,U2,21,PGND_21*%
%TO.N,GND*%
X159737500Y-33412500D03*
X160487500Y-32642500D03*
X160487500Y-33412500D03*
X160487500Y-34182500D03*
X161537500Y-32642500D03*
X161537500Y-33412500D03*
X161537500Y-34182500D03*
X162287500Y-33412500D03*
%TD*%
D11*
%TO.P,J2,1,1_1*%
%TO.N,Net-(D3-A)*%
X143000000Y-85000000D03*
D12*
%TO.P,J2,2,2_2*%
%TO.N,GND*%
X143000000Y-91000000D03*
D13*
%TO.P,J2,3,3_3*%
X147700000Y-88000000D03*
%TD*%
D14*
%TO.P,J6,1,1_1*%
%TO.N,/+BAT_3V7*%
X120987500Y-94662500D03*
%TO.P,J6,2,2_2*%
%TO.N,/BAT_NEG*%
X123487500Y-94662500D03*
%TD*%
D15*
%TO.P,J4,1,Pin_1_1*%
%TO.N,/SPK_L_PLUS*%
X163998208Y-93585000D03*
D16*
%TO.P,J4,2,Pin_2_2*%
%TO.N,/SPK_L_MINUS*%
X168998208Y-93585000D03*
%TD*%
D15*
%TO.P,J5,1,Pin_1_1*%
%TO.N,/SPK_R_PLUS*%
X177498208Y-93585000D03*
D16*
%TO.P,J5,2,Pin_2_2*%
%TO.N,/SPK_R_MINUS*%
X182498208Y-93585000D03*
%TD*%
D17*
%TO.P,J3,2,2_2*%
%TO.N,/AUDIO_L*%
X98487500Y-46012500D03*
%TO.P,J3,3,3_3*%
%TO.N,/AUDIO_R*%
X101487500Y-46012500D03*
%TO.P,J3,4,4_4*%
%TO.N,/DAC_OUT_L*%
X105487500Y-46012500D03*
%TO.P,J3,5,5_5*%
%TO.N,GND*%
X106487500Y-50812500D03*
%TD*%
D18*
%TO.N,GND*%
X141000000Y-29000000D03*
X139000000Y-29000000D03*
X139000000Y-31000000D03*
X137000000Y-38000000D03*
X137000000Y-36000000D03*
X137000000Y-34000000D03*
X137000000Y-32000000D03*
X137000000Y-30000000D03*
X137000000Y-28000000D03*
X135000000Y-28000000D03*
X135000000Y-30000000D03*
X135000000Y-32000000D03*
X135000000Y-34000000D03*
X135000000Y-36000000D03*
X135000000Y-38000000D03*
X133000000Y-38000000D03*
X133000000Y-36000000D03*
X133000000Y-34000000D03*
X133000000Y-32000000D03*
X133000000Y-30000000D03*
X133000000Y-28000000D03*
X98000000Y-55000000D03*
X98000000Y-53000000D03*
X98000000Y-43000000D03*
X98000000Y-41000000D03*
X98000000Y-39000000D03*
X98000000Y-37000000D03*
X98000000Y-35000000D03*
X98000000Y-33000000D03*
X98000000Y-31000000D03*
X98000000Y-29000000D03*
X188000000Y-91000000D03*
X190000000Y-91000000D03*
X190000000Y-89000000D03*
X190000000Y-83000000D03*
X190000000Y-81000000D03*
X190000000Y-79000000D03*
X190000000Y-77000000D03*
X192000000Y-61000000D03*
X192000000Y-59000000D03*
X192000000Y-57000000D03*
X192000000Y-55000000D03*
X192000000Y-53000000D03*
X192000000Y-51000000D03*
X192000000Y-49000000D03*
X171000000Y-31000000D03*
X169000000Y-29000000D03*
X171000000Y-29000000D03*
X171000000Y-27000000D03*
X169000000Y-27000000D03*
X167000000Y-27000000D03*
X167000000Y-25000000D03*
X169000000Y-25000000D03*
X171000000Y-25000000D03*
X171000000Y-23000000D03*
X169000000Y-23000000D03*
X167000000Y-23000000D03*
X167000000Y-21000000D03*
X169000000Y-21000000D03*
X171000000Y-21000000D03*
X189000000Y-26000000D03*
X190000000Y-28000000D03*
X190000000Y-30000000D03*
X190000000Y-32000000D03*
X190000000Y-39000000D03*
X190000000Y-41000000D03*
X192000000Y-41000000D03*
X192000000Y-39000000D03*
X192000000Y-37000000D03*
X192000000Y-35000000D03*
X192000000Y-33000000D03*
X192000000Y-31000000D03*
X192000000Y-28000000D03*
X193000000Y-26000000D03*
X136000000Y-67000000D03*
X138000002Y-67000000D03*
X144000000Y-77000000D03*
X144000000Y-75000000D03*
X144000000Y-73000000D03*
X144000000Y-71000000D03*
X144000000Y-69000000D03*
X144000000Y-67000000D03*
X142000000Y-67000000D03*
X140000002Y-67000000D03*
X139000000Y-81000000D03*
X138000000Y-79000000D03*
X136000000Y-77000000D03*
X138000000Y-77000000D03*
X139000000Y-75000000D03*
X139000000Y-73000000D03*
X138000000Y-72000000D03*
X135000000Y-82000000D03*
X135000000Y-80000000D03*
X135000000Y-78000000D03*
X135000000Y-76000000D03*
X135000000Y-74000000D03*
X135000000Y-72000000D03*
X132000000Y-85000000D03*
X135000000Y-85000000D03*
X135000000Y-87000000D03*
X132000000Y-87000000D03*
X132000000Y-89000000D03*
X135000000Y-89000000D03*
X135000000Y-91000000D03*
X132000000Y-91000000D03*
X129000000Y-91000000D03*
X129000000Y-93000000D03*
X132000000Y-93000000D03*
X135000000Y-93000000D03*
X135000000Y-95000000D03*
X129000000Y-95000000D03*
X132000000Y-95000000D03*
X135000000Y-97000000D03*
X132000000Y-97000000D03*
X129000000Y-97000000D03*
X100000000Y-92000000D03*
X97000000Y-92000000D03*
X97000000Y-90000000D03*
X99000000Y-90000000D03*
X101000000Y-90000000D03*
X102000000Y-94000000D03*
X105000000Y-94000000D03*
X105000000Y-97000000D03*
X102000000Y-97000000D03*
X100000000Y-65000000D03*
X100000000Y-60000000D03*
X96000000Y-59000000D03*
X98000000Y-59000000D03*
X98000000Y-61000000D03*
X98000000Y-65000000D03*
X98000000Y-67000000D03*
X98000000Y-69000000D03*
X98000000Y-71000000D03*
X98000000Y-73000000D03*
X98000000Y-75000000D03*
X96000000Y-75000000D03*
X96000000Y-73000000D03*
X96000000Y-71000000D03*
X96000000Y-69000000D03*
X96000000Y-67000000D03*
X96000000Y-65000000D03*
X96000000Y-63000000D03*
X96000000Y-61000000D03*
X159000000Y-67000000D03*
X159000000Y-69000000D03*
X159000000Y-71000000D03*
X159000000Y-73000000D03*
X159000000Y-75000000D03*
X159000000Y-77000000D03*
X159000000Y-79000000D03*
X156000000Y-79000000D03*
X155000000Y-78000000D03*
X154000000Y-76000000D03*
X153000000Y-74000000D03*
X154000000Y-73000000D03*
X155000000Y-71000000D03*
X155000000Y-69000000D03*
X153000000Y-68000000D03*
X151000000Y-78000000D03*
X151000000Y-76000000D03*
X151000000Y-74000000D03*
X151000000Y-72000000D03*
X151000000Y-70000000D03*
X151000000Y-68000000D03*
X159000000Y-81000000D03*
X159000000Y-83000000D03*
X157000000Y-81000000D03*
X157000000Y-83000000D03*
X155000000Y-83000000D03*
X155000000Y-81000000D03*
X153000000Y-81000000D03*
X151000000Y-81000000D03*
X151000000Y-83000000D03*
X153000000Y-83000000D03*
X153000000Y-85000000D03*
X155000000Y-85000000D03*
X157000000Y-85000000D03*
X159000000Y-85000000D03*
X159000000Y-87000000D03*
X159000000Y-89000000D03*
X157000000Y-87000000D03*
X155000000Y-87000000D03*
X153000000Y-87000000D03*
X151000000Y-91000000D03*
X151000000Y-89000000D03*
X153000000Y-89000000D03*
X153000000Y-91000000D03*
X155000000Y-91000000D03*
X155000000Y-89000000D03*
X157000000Y-89000000D03*
X157000000Y-91000000D03*
X159000000Y-91000000D03*
X159000000Y-93000000D03*
X157000000Y-93000000D03*
X155000000Y-93000000D03*
X153000000Y-93000000D03*
X151000000Y-93000000D03*
X151000000Y-95000000D03*
X153000000Y-95000000D03*
X155000000Y-95000000D03*
X157000000Y-95000000D03*
X159000000Y-95000000D03*
X159000000Y-97000000D03*
X157000000Y-97000000D03*
X155000000Y-97000000D03*
X153000000Y-97000000D03*
X151000000Y-97000000D03*
X142000000Y-93000000D03*
X149000000Y-87000000D03*
X152000000Y-26000000D03*
X150000000Y-26000000D03*
X148000000Y-26000000D03*
X146000000Y-26000000D03*
X144000000Y-26000000D03*
X142000000Y-26000000D03*
X140000000Y-26000000D03*
X138000000Y-26000000D03*
X136000000Y-26000000D03*
X134000000Y-26000000D03*
X132000000Y-26000000D03*
X130000000Y-24000000D03*
X132000000Y-24000000D03*
X134000000Y-24000000D03*
X136000000Y-24000000D03*
X138000000Y-24000000D03*
X140000000Y-24000000D03*
X142000000Y-24000000D03*
X144000000Y-24000000D03*
X146000000Y-24000000D03*
X148000000Y-24000000D03*
X150000000Y-24000000D03*
X152000000Y-24000000D03*
X154000000Y-24000000D03*
X154000000Y-22000000D03*
X152000000Y-22000000D03*
X150000000Y-22000000D03*
X148000000Y-22000000D03*
X146000000Y-22000000D03*
X144000000Y-22000000D03*
X142000000Y-22000000D03*
X140000000Y-22000000D03*
X138000000Y-22000000D03*
X136000000Y-22000000D03*
X134000000Y-22000000D03*
X132000000Y-22000000D03*
X130000000Y-22000000D03*
%TO.N,/+21V_BOOST*%
X138487500Y-42412500D03*
X188712499Y-43287501D03*
X177636000Y-45000000D03*
X138487500Y-51412500D03*
D19*
%TO.N,GND*%
X116000000Y-30000000D03*
X116000000Y-28000000D03*
X126000000Y-88000000D03*
X187000000Y-38000000D03*
X159737500Y-33412500D03*
X105000000Y-21000000D03*
X112000000Y-87000000D03*
X117000000Y-68000000D03*
X121000000Y-65000000D03*
X172000000Y-60000000D03*
X184256603Y-44624911D03*
X173000000Y-86000000D03*
X111000000Y-26000000D03*
X110000000Y-29000000D03*
X162347498Y-34142498D03*
X161540445Y-32675513D03*
X104000000Y-89000000D03*
X118000000Y-89000000D03*
X191000000Y-46000000D03*
X160492820Y-34152452D03*
X122000000Y-64000000D03*
X113000000Y-32000000D03*
X122000000Y-51000000D03*
X111000000Y-84000000D03*
X170000000Y-61000000D03*
X104000000Y-86000000D03*
X117000000Y-87000000D03*
X190000000Y-72000000D03*
X113000000Y-26000000D03*
X167000000Y-36000000D03*
X167000000Y-39000000D03*
X111000000Y-30000000D03*
X179881034Y-44899084D03*
X167000000Y-34000000D03*
X154000000Y-32000000D03*
X183000000Y-73000000D03*
X106000000Y-83000000D03*
X153000000Y-36000000D03*
X173000000Y-48000000D03*
X109000000Y-40000000D03*
X181790782Y-37126511D03*
X125000000Y-21000000D03*
X134000000Y-52000000D03*
X117000000Y-29000000D03*
X115000000Y-26000000D03*
X156000000Y-25000000D03*
X117000000Y-65000000D03*
X162287500Y-33412500D03*
X115000000Y-32000000D03*
X114000000Y-87000000D03*
X181119041Y-44770118D03*
X115000000Y-81000000D03*
X108000000Y-51000000D03*
X102000000Y-75000000D03*
X162000000Y-26000000D03*
X111000000Y-87000000D03*
X191000000Y-44000000D03*
X112000000Y-85000000D03*
X106000000Y-66000000D03*
X101000000Y-26000000D03*
X161007500Y-33412500D03*
X101000000Y-23000000D03*
X160000000Y-40000000D03*
X152000000Y-34000000D03*
X184000000Y-34000000D03*
X178000000Y-34000000D03*
X104000000Y-78000000D03*
X176000000Y-37000000D03*
X101000000Y-21000000D03*
X165000000Y-26000000D03*
X113000000Y-51000000D03*
X111000000Y-59000000D03*
X114000000Y-85000000D03*
X175000000Y-38000000D03*
X182000000Y-34000000D03*
X173000000Y-44000000D03*
X111000000Y-32000000D03*
X113000000Y-84000000D03*
X111000000Y-28000000D03*
X124000000Y-52000000D03*
X177000000Y-54000000D03*
X157000000Y-38000000D03*
X187000000Y-86000000D03*
D20*
%TO.N,/AUDIO_R*%
X185342500Y-32003660D03*
X106487500Y-52412500D03*
%TO.N,/AUDIO_L*%
X104487500Y-56412500D03*
X179487500Y-30412500D03*
D18*
%TO.N,Net-(U1-OUTNR)*%
X168487500Y-76412500D03*
X186785779Y-51162500D03*
X183056774Y-44722113D03*
D19*
%TO.N,/+3V3_SYS*%
X132487500Y-62412500D03*
X144487500Y-62412500D03*
X137487500Y-62412500D03*
X131487500Y-41412500D03*
X128487500Y-39412500D03*
X170487501Y-44412498D03*
D18*
%TO.N,Net-(U1-OUTPR)*%
X175987500Y-74412500D03*
X189487500Y-52412500D03*
%TO.N,Net-(U6-D12-Pad1)*%
X127275850Y-86490313D03*
X127217500Y-79270850D03*
D20*
%TO.N,/ESP_IO0*%
X125487500Y-44412500D03*
X125487500Y-40412500D03*
%TO.N,/ESP_EN*%
X112487500Y-44412500D03*
X99487500Y-41412500D03*
%TO.N,/ESP_RXD0*%
X125487500Y-26412500D03*
X126487500Y-24412500D03*
D19*
%TO.N,/+5V_VBUS*%
X103976863Y-84905235D03*
X106487500Y-79412500D03*
X104487500Y-79412500D03*
D20*
%TO.N,/DAC_OUT_L*%
X104000000Y-40000000D03*
X102000000Y-39000000D03*
%TD*%
%TO.N,GND*%
D21*
X181806000Y-38692500D02*
X181806000Y-38194000D01*
X181806000Y-38194000D02*
X182000000Y-38000000D01*
%TO.N,Net-(U6-D12-Pad1)*%
X127275850Y-79270850D02*
X127217500Y-79212500D01*
%TD*%
%TA.AperFunction,Conductor*%
%TO.N,GND*%
G36*
X104446691Y-19806907D02*
G01*
X104482655Y-19856407D01*
X104487500Y-19887000D01*
X104487500Y-20412500D01*
X104487501Y-20412500D01*
X124987499Y-20412500D01*
X124987500Y-20412500D01*
X124987500Y-19887000D01*
X125006407Y-19828809D01*
X125055907Y-19792845D01*
X125086500Y-19788000D01*
X189433511Y-19788000D01*
X189485335Y-19788000D01*
X189489652Y-19788093D01*
X189886248Y-19805410D01*
X189894828Y-19806160D01*
X190286259Y-19857694D01*
X190294754Y-19859192D01*
X190680185Y-19944639D01*
X190688524Y-19946873D01*
X191065049Y-20065591D01*
X191073165Y-20068545D01*
X191437914Y-20219630D01*
X191445726Y-20223272D01*
X191606631Y-20307034D01*
X191795910Y-20405566D01*
X191803390Y-20409884D01*
X192136364Y-20622012D01*
X192143437Y-20626965D01*
X192456646Y-20867299D01*
X192463249Y-20872839D01*
X192636491Y-21031587D01*
X192754328Y-21139565D01*
X192760434Y-21145671D01*
X193027154Y-21436743D01*
X193032702Y-21443355D01*
X193105191Y-21537825D01*
X193273033Y-21756561D01*
X193277987Y-21763635D01*
X193490115Y-22096609D01*
X193494433Y-22104089D01*
X193676723Y-22454266D01*
X193680373Y-22462093D01*
X193831454Y-22826834D01*
X193834408Y-22834950D01*
X193953125Y-23211473D01*
X193955360Y-23219816D01*
X194040806Y-23605240D01*
X194042306Y-23613745D01*
X194093837Y-24005159D01*
X194094590Y-24013762D01*
X194111906Y-24410346D01*
X194112000Y-24414665D01*
X194112000Y-94410334D01*
X194111906Y-94414653D01*
X194094590Y-94811237D01*
X194093837Y-94819840D01*
X194042306Y-95211254D01*
X194040806Y-95219759D01*
X193955360Y-95605183D01*
X193953125Y-95613526D01*
X193834408Y-95990049D01*
X193831454Y-95998165D01*
X193680373Y-96362906D01*
X193676723Y-96370733D01*
X193494433Y-96720910D01*
X193490115Y-96728390D01*
X193277987Y-97061364D01*
X193273033Y-97068438D01*
X193032706Y-97381639D01*
X193027154Y-97388256D01*
X192760434Y-97679328D01*
X192754328Y-97685434D01*
X192463256Y-97952154D01*
X192456639Y-97957706D01*
X192143438Y-98198033D01*
X192136364Y-98202987D01*
X191803390Y-98415115D01*
X191795910Y-98419433D01*
X191445733Y-98601723D01*
X191437906Y-98605373D01*
X191073165Y-98756454D01*
X191065049Y-98759408D01*
X190688526Y-98878125D01*
X190680183Y-98880360D01*
X190294759Y-98965806D01*
X190286254Y-98967306D01*
X189894840Y-99018837D01*
X189886237Y-99019590D01*
X189549499Y-99034293D01*
X189489651Y-99036906D01*
X189485335Y-99037000D01*
X99489665Y-99037000D01*
X99485348Y-99036906D01*
X99425501Y-99034293D01*
X99088762Y-99019590D01*
X99080159Y-99018837D01*
X98688745Y-98967306D01*
X98680240Y-98965806D01*
X98294816Y-98880360D01*
X98286473Y-98878125D01*
X97909950Y-98759408D01*
X97901834Y-98756454D01*
X97537093Y-98605373D01*
X97529266Y-98601723D01*
X97179089Y-98419433D01*
X97171609Y-98415115D01*
X96838635Y-98202987D01*
X96831561Y-98198033D01*
X96518360Y-97957706D01*
X96511743Y-97952154D01*
X96443534Y-97889652D01*
X96220671Y-97685434D01*
X96214565Y-97679328D01*
X96085747Y-97538749D01*
X95947839Y-97388249D01*
X95942299Y-97381646D01*
X95701965Y-97068437D01*
X95697012Y-97061364D01*
X95484884Y-96728390D01*
X95480566Y-96720910D01*
X95419273Y-96603167D01*
X95298272Y-96370726D01*
X95294626Y-96362906D01*
X95286636Y-96343617D01*
X95143545Y-95998165D01*
X95140591Y-95990049D01*
X95021874Y-95613526D01*
X95019639Y-95605183D01*
X94952249Y-95301205D01*
X94948217Y-95283019D01*
X94948217Y-95283017D01*
X96512000Y-95283017D01*
X96512000Y-95541982D01*
X96520877Y-95609409D01*
X96545801Y-95798728D01*
X96582305Y-95934963D01*
X96612824Y-96048865D01*
X96711923Y-96288111D01*
X96841409Y-96512387D01*
X96911067Y-96603167D01*
X96999053Y-96717833D01*
X97182167Y-96900947D01*
X97387616Y-97058593D01*
X97611884Y-97188074D01*
X97611885Y-97188074D01*
X97611888Y-97188076D01*
X97851134Y-97287175D01*
X98101272Y-97354199D01*
X98358019Y-97388000D01*
X98358020Y-97388000D01*
X98616980Y-97388000D01*
X98616981Y-97388000D01*
X98873728Y-97354199D01*
X99123866Y-97287175D01*
X99363116Y-97188074D01*
X99587384Y-97058593D01*
X99792833Y-96900947D01*
X99975947Y-96717833D01*
X100133593Y-96512384D01*
X100263074Y-96288116D01*
X100362175Y-96048866D01*
X100429199Y-95798728D01*
X100463000Y-95541981D01*
X100463000Y-95283019D01*
X100429199Y-95026272D01*
X100362175Y-94776134D01*
X100279229Y-94575885D01*
X119887000Y-94575885D01*
X119887000Y-94749114D01*
X119914097Y-94920202D01*
X119914098Y-94920206D01*
X119967623Y-95084938D01*
X119967625Y-95084941D01*
X120046265Y-95239284D01*
X120046268Y-95239288D01*
X120148086Y-95379428D01*
X120270572Y-95501914D01*
X120410712Y-95603732D01*
X120565055Y-95682373D01*
X120565057Y-95682373D01*
X120565058Y-95682374D01*
X120565061Y-95682376D01*
X120729793Y-95735901D01*
X120729797Y-95735902D01*
X120900886Y-95763000D01*
X120900889Y-95763000D01*
X121074114Y-95763000D01*
X121245202Y-95735902D01*
X121245206Y-95735901D01*
X121409938Y-95682376D01*
X121409940Y-95682374D01*
X121409945Y-95682373D01*
X121564288Y-95603732D01*
X121704428Y-95501914D01*
X121826914Y-95379428D01*
X121928732Y-95239288D01*
X122007373Y-95084945D01*
X122007374Y-95084940D01*
X122007376Y-95084938D01*
X122060901Y-94920206D01*
X122060902Y-94920202D01*
X122088000Y-94749114D01*
X122088000Y-94575885D01*
X122387000Y-94575885D01*
X122387000Y-94749114D01*
X122414097Y-94920202D01*
X122414098Y-94920206D01*
X122467623Y-95084938D01*
X122467625Y-95084941D01*
X122546265Y-95239284D01*
X122546268Y-95239288D01*
X122648086Y-95379428D01*
X122770572Y-95501914D01*
X122910712Y-95603732D01*
X123065055Y-95682373D01*
X123065057Y-95682373D01*
X123065058Y-95682374D01*
X123065061Y-95682376D01*
X123229793Y-95735901D01*
X123229797Y-95735902D01*
X123400886Y-95763000D01*
X123400889Y-95763000D01*
X123574114Y-95763000D01*
X123745202Y-95735902D01*
X123745206Y-95735901D01*
X123909938Y-95682376D01*
X123909940Y-95682374D01*
X123909945Y-95682373D01*
X124064288Y-95603732D01*
X124204428Y-95501914D01*
X124326914Y-95379428D01*
X124396961Y-95283017D01*
X186522708Y-95283017D01*
X186522708Y-95541982D01*
X186531585Y-95609409D01*
X186556509Y-95798728D01*
X186593013Y-95934963D01*
X186623532Y-96048865D01*
X186722631Y-96288111D01*
X186852117Y-96512387D01*
X186921775Y-96603167D01*
X187009761Y-96717833D01*
X187192875Y-96900947D01*
X187398324Y-97058593D01*
X187622592Y-97188074D01*
X187622593Y-97188074D01*
X187622596Y-97188076D01*
X187861842Y-97287175D01*
X188111980Y-97354199D01*
X188368727Y-97388000D01*
X188368728Y-97388000D01*
X188627688Y-97388000D01*
X188627689Y-97388000D01*
X188884436Y-97354199D01*
X189134574Y-97287175D01*
X189373824Y-97188074D01*
X189598092Y-97058593D01*
X189803541Y-96900947D01*
X189986655Y-96717833D01*
X190144301Y-96512384D01*
X190273782Y-96288116D01*
X190372883Y-96048866D01*
X190439907Y-95798728D01*
X190473708Y-95541981D01*
X190473708Y-95283019D01*
X190439907Y-95026272D01*
X190372883Y-94776134D01*
X190334253Y-94682873D01*
X190273784Y-94536888D01*
X190273782Y-94536884D01*
X190144301Y-94312616D01*
X189986655Y-94107167D01*
X189803541Y-93924053D01*
X189671958Y-93823086D01*
X189598095Y-93766409D01*
X189373819Y-93636923D01*
X189134573Y-93537824D01*
X189020671Y-93507305D01*
X188884436Y-93470801D01*
X188884429Y-93470800D01*
X188627690Y-93437000D01*
X188627689Y-93437000D01*
X188368727Y-93437000D01*
X188368725Y-93437000D01*
X188111986Y-93470800D01*
X188111984Y-93470800D01*
X188111980Y-93470801D01*
X188017434Y-93496134D01*
X187861842Y-93537824D01*
X187622596Y-93636923D01*
X187398320Y-93766409D01*
X187192878Y-93924050D01*
X187009758Y-94107170D01*
X186852117Y-94312612D01*
X186722631Y-94536888D01*
X186623532Y-94776134D01*
X186584930Y-94920202D01*
X186556509Y-95026272D01*
X186556508Y-95026276D01*
X186556508Y-95026278D01*
X186522708Y-95283017D01*
X124396961Y-95283017D01*
X124428732Y-95239288D01*
X124507373Y-95084945D01*
X124507374Y-95084940D01*
X124507376Y-95084938D01*
X124560901Y-94920206D01*
X124560902Y-94920202D01*
X124588000Y-94749114D01*
X124588000Y-94575885D01*
X124560902Y-94404797D01*
X124560901Y-94404793D01*
X124507376Y-94240061D01*
X124507374Y-94240058D01*
X124507373Y-94240057D01*
X124507373Y-94240055D01*
X124428732Y-94085712D01*
X124326914Y-93945572D01*
X124204428Y-93823086D01*
X124064288Y-93721268D01*
X124064287Y-93721267D01*
X124064285Y-93721266D01*
X123909941Y-93642625D01*
X123909938Y-93642623D01*
X123745206Y-93589098D01*
X123745202Y-93589097D01*
X123574114Y-93562000D01*
X123574111Y-93562000D01*
X123400889Y-93562000D01*
X123400886Y-93562000D01*
X123229797Y-93589097D01*
X123229793Y-93589098D01*
X123065061Y-93642623D01*
X123065058Y-93642625D01*
X122910714Y-93721266D01*
X122770573Y-93823085D01*
X122648085Y-93945573D01*
X122546266Y-94085714D01*
X122467625Y-94240058D01*
X122467623Y-94240061D01*
X122414098Y-94404793D01*
X122414097Y-94404797D01*
X122387000Y-94575885D01*
X122088000Y-94575885D01*
X122060902Y-94404797D01*
X122060901Y-94404793D01*
X122007376Y-94240061D01*
X122007374Y-94240058D01*
X122007373Y-94240057D01*
X122007373Y-94240055D01*
X121928732Y-94085712D01*
X121826914Y-93945572D01*
X121704428Y-93823086D01*
X121564288Y-93721268D01*
X121564287Y-93721267D01*
X121564285Y-93721266D01*
X121409941Y-93642625D01*
X121409938Y-93642623D01*
X121245206Y-93589098D01*
X121245202Y-93589097D01*
X121074114Y-93562000D01*
X121074111Y-93562000D01*
X120900889Y-93562000D01*
X120900886Y-93562000D01*
X120729797Y-93589097D01*
X120729793Y-93589098D01*
X120565061Y-93642623D01*
X120565058Y-93642625D01*
X120410714Y-93721266D01*
X120270573Y-93823085D01*
X120148085Y-93945573D01*
X120046266Y-94085714D01*
X119967625Y-94240058D01*
X119967623Y-94240061D01*
X119914098Y-94404793D01*
X119914097Y-94404797D01*
X119887000Y-94575885D01*
X100279229Y-94575885D01*
X100263074Y-94536884D01*
X100133593Y-94312616D01*
X99975947Y-94107167D01*
X99792833Y-93924053D01*
X99661250Y-93823086D01*
X99587387Y-93766409D01*
X99363111Y-93636923D01*
X99123865Y-93537824D01*
X99009963Y-93507305D01*
X98873728Y-93470801D01*
X98873721Y-93470800D01*
X98616982Y-93437000D01*
X98616981Y-93437000D01*
X98358019Y-93437000D01*
X98358017Y-93437000D01*
X98101278Y-93470800D01*
X98101276Y-93470800D01*
X98101272Y-93470801D01*
X98006726Y-93496134D01*
X97851134Y-93537824D01*
X97611888Y-93636923D01*
X97387612Y-93766409D01*
X97182170Y-93924050D01*
X96999050Y-94107170D01*
X96841409Y-94312612D01*
X96711923Y-94536888D01*
X96612824Y-94776134D01*
X96574222Y-94920202D01*
X96545801Y-95026272D01*
X96545800Y-95026276D01*
X96545800Y-95026278D01*
X96512000Y-95283017D01*
X94948217Y-95283017D01*
X94934192Y-95219754D01*
X94932693Y-95211254D01*
X94922720Y-95135499D01*
X94881160Y-94819828D01*
X94880410Y-94811248D01*
X94863094Y-94414652D01*
X94863000Y-94410334D01*
X94863000Y-92487129D01*
X162447708Y-92487129D01*
X162447708Y-94682866D01*
X162447709Y-94682870D01*
X162454116Y-94742480D01*
X162454117Y-94742485D01*
X162504410Y-94877329D01*
X162590658Y-94992541D01*
X162590662Y-94992546D01*
X162590665Y-94992548D01*
X162590666Y-94992549D01*
X162705878Y-95078797D01*
X162840719Y-95129089D01*
X162840720Y-95129089D01*
X162840725Y-95129091D01*
X162900335Y-95135500D01*
X165096080Y-95135499D01*
X165155691Y-95129091D01*
X165274053Y-95084945D01*
X165290537Y-95078797D01*
X165290537Y-95078796D01*
X165290539Y-95078796D01*
X165405754Y-94992546D01*
X165492004Y-94877331D01*
X165516656Y-94811237D01*
X165542297Y-94742488D01*
X165542298Y-94742485D01*
X165542299Y-94742483D01*
X165548708Y-94682873D01*
X165548707Y-93462969D01*
X167447708Y-93462969D01*
X167447708Y-93707030D01*
X167485885Y-93948071D01*
X167561304Y-94180185D01*
X167672100Y-94397637D01*
X167684463Y-94414653D01*
X167815553Y-94595083D01*
X167988125Y-94767655D01*
X168048111Y-94811237D01*
X168185570Y-94911107D01*
X168249939Y-94943904D01*
X168403023Y-95021904D01*
X168635132Y-95097321D01*
X168635133Y-95097321D01*
X168635136Y-95097322D01*
X168876178Y-95135500D01*
X168876181Y-95135500D01*
X169120238Y-95135500D01*
X169361279Y-95097322D01*
X169361280Y-95097321D01*
X169361284Y-95097321D01*
X169593393Y-95021904D01*
X169810847Y-94911106D01*
X170008291Y-94767655D01*
X170180863Y-94595083D01*
X170324314Y-94397639D01*
X170435112Y-94180185D01*
X170510529Y-93948076D01*
X170510530Y-93948071D01*
X170548708Y-93707030D01*
X170548708Y-93462969D01*
X170510530Y-93221928D01*
X170510529Y-93221924D01*
X170435112Y-92989815D01*
X170324314Y-92772361D01*
X170180863Y-92574917D01*
X170093075Y-92487129D01*
X175947708Y-92487129D01*
X175947708Y-94682866D01*
X175947709Y-94682870D01*
X175954116Y-94742480D01*
X175954117Y-94742485D01*
X176004410Y-94877329D01*
X176090658Y-94992541D01*
X176090662Y-94992546D01*
X176090665Y-94992548D01*
X176090666Y-94992549D01*
X176205878Y-95078797D01*
X176340719Y-95129089D01*
X176340720Y-95129089D01*
X176340725Y-95129091D01*
X176400335Y-95135500D01*
X178596080Y-95135499D01*
X178655691Y-95129091D01*
X178774053Y-95084945D01*
X178790537Y-95078797D01*
X178790537Y-95078796D01*
X178790539Y-95078796D01*
X178905754Y-94992546D01*
X178992004Y-94877331D01*
X179016656Y-94811237D01*
X179042297Y-94742488D01*
X179042298Y-94742485D01*
X179042299Y-94742483D01*
X179048708Y-94682873D01*
X179048707Y-93462969D01*
X180947708Y-93462969D01*
X180947708Y-93707030D01*
X180985885Y-93948071D01*
X181061304Y-94180185D01*
X181172100Y-94397637D01*
X181184463Y-94414653D01*
X181315553Y-94595083D01*
X181488125Y-94767655D01*
X181548111Y-94811237D01*
X181685570Y-94911107D01*
X181749939Y-94943904D01*
X181903023Y-95021904D01*
X182135132Y-95097321D01*
X182135133Y-95097321D01*
X182135136Y-95097322D01*
X182376178Y-95135500D01*
X182376181Y-95135500D01*
X182620238Y-95135500D01*
X182861279Y-95097322D01*
X182861280Y-95097321D01*
X182861284Y-95097321D01*
X183093393Y-95021904D01*
X183310847Y-94911106D01*
X183508291Y-94767655D01*
X183680863Y-94595083D01*
X183824314Y-94397639D01*
X183935112Y-94180185D01*
X184010529Y-93948076D01*
X184010530Y-93948071D01*
X184048708Y-93707030D01*
X184048708Y-93462969D01*
X184010530Y-93221928D01*
X184010529Y-93221924D01*
X183935112Y-92989815D01*
X183824314Y-92772361D01*
X183680863Y-92574917D01*
X183508291Y-92402345D01*
X183357336Y-92292670D01*
X183310845Y-92258892D01*
X183093393Y-92148096D01*
X182861279Y-92072677D01*
X182620238Y-92034500D01*
X182620235Y-92034500D01*
X182376181Y-92034500D01*
X182376178Y-92034500D01*
X182135136Y-92072677D01*
X181903022Y-92148096D01*
X181685570Y-92258892D01*
X181488126Y-92402344D01*
X181315552Y-92574918D01*
X181172100Y-92772362D01*
X181061304Y-92989814D01*
X180985885Y-93221928D01*
X180947708Y-93462969D01*
X179048707Y-93462969D01*
X179048707Y-92487128D01*
X179042299Y-92427517D01*
X179042297Y-92427511D01*
X178992005Y-92292670D01*
X178905757Y-92177458D01*
X178905756Y-92177457D01*
X178905754Y-92177454D01*
X178905749Y-92177450D01*
X178790537Y-92091202D01*
X178655696Y-92040910D01*
X178655691Y-92040909D01*
X178655689Y-92040908D01*
X178655685Y-92040908D01*
X178624457Y-92037550D01*
X178596081Y-92034500D01*
X178596078Y-92034500D01*
X176400341Y-92034500D01*
X176400337Y-92034500D01*
X176400336Y-92034501D01*
X176393157Y-92035272D01*
X176340727Y-92040908D01*
X176340722Y-92040909D01*
X176205878Y-92091202D01*
X176090666Y-92177450D01*
X176090658Y-92177458D01*
X176004410Y-92292670D01*
X175954118Y-92427511D01*
X175954116Y-92427522D01*
X175947708Y-92487129D01*
X170093075Y-92487129D01*
X170008291Y-92402345D01*
X169857336Y-92292670D01*
X169810845Y-92258892D01*
X169593393Y-92148096D01*
X169361279Y-92072677D01*
X169120238Y-92034500D01*
X169120235Y-92034500D01*
X168876181Y-92034500D01*
X168876178Y-92034500D01*
X168635136Y-92072677D01*
X168403022Y-92148096D01*
X168185570Y-92258892D01*
X167988126Y-92402344D01*
X167815552Y-92574918D01*
X167672100Y-92772362D01*
X167561304Y-92989814D01*
X167485885Y-93221928D01*
X167447708Y-93462969D01*
X165548707Y-93462969D01*
X165548707Y-92487128D01*
X165542299Y-92427517D01*
X165542297Y-92427511D01*
X165492005Y-92292670D01*
X165405757Y-92177458D01*
X165405756Y-92177457D01*
X165405754Y-92177454D01*
X165405749Y-92177450D01*
X165290537Y-92091202D01*
X165155696Y-92040910D01*
X165155691Y-92040909D01*
X165155689Y-92040908D01*
X165155685Y-92040908D01*
X165124457Y-92037550D01*
X165096081Y-92034500D01*
X165096078Y-92034500D01*
X162900341Y-92034500D01*
X162900337Y-92034500D01*
X162900336Y-92034501D01*
X162893157Y-92035272D01*
X162840727Y-92040908D01*
X162840722Y-92040909D01*
X162705878Y-92091202D01*
X162590666Y-92177450D01*
X162590658Y-92177458D01*
X162504410Y-92292670D01*
X162454118Y-92427511D01*
X162454116Y-92427522D01*
X162447708Y-92487129D01*
X94863000Y-92487129D01*
X94863000Y-90799999D01*
X140767341Y-90799999D01*
X140767342Y-90800000D01*
X141538124Y-90800000D01*
X141534078Y-90807008D01*
X141500003Y-90934174D01*
X141500003Y-91065826D01*
X141534078Y-91192992D01*
X141538124Y-91200000D01*
X140767341Y-91200000D01*
X140778316Y-91269289D01*
X140834250Y-91441440D01*
X140916431Y-91602730D01*
X140916433Y-91602734D01*
X141022824Y-91749169D01*
X141150830Y-91877175D01*
X141297265Y-91983566D01*
X141297269Y-91983568D01*
X141458559Y-92065749D01*
X141630710Y-92121683D01*
X141809490Y-92150000D01*
X142799999Y-92150000D01*
X142800000Y-92149999D01*
X142800000Y-91499999D01*
X143200000Y-91499999D01*
X143200000Y-92149999D01*
X143200001Y-92150000D01*
X144190510Y-92150000D01*
X144369289Y-92121683D01*
X144541440Y-92065749D01*
X144702730Y-91983568D01*
X144702734Y-91983566D01*
X144849169Y-91877175D01*
X144977175Y-91749169D01*
X145083566Y-91602734D01*
X145083568Y-91602730D01*
X145165749Y-91441440D01*
X145221683Y-91269289D01*
X145232658Y-91200000D01*
X144461876Y-91200000D01*
X144465922Y-91192992D01*
X144499997Y-91065826D01*
X144499997Y-90934174D01*
X144465922Y-90807008D01*
X144461876Y-90800000D01*
X145232658Y-90800000D01*
X145232658Y-90799999D01*
X145221683Y-90730710D01*
X145165749Y-90558559D01*
X145083568Y-90397269D01*
X145083566Y-90397265D01*
X144977175Y-90250830D01*
X144849169Y-90122824D01*
X144702734Y-90016433D01*
X144702730Y-90016431D01*
X144541440Y-89934250D01*
X144369289Y-89878316D01*
X144190510Y-89850000D01*
X143200001Y-89850000D01*
X143200000Y-89850001D01*
X143200000Y-90500001D01*
X142800000Y-90500001D01*
X142800000Y-89850001D01*
X142799999Y-89850000D01*
X141809490Y-89850000D01*
X141630710Y-89878316D01*
X141458559Y-89934250D01*
X141297269Y-90016431D01*
X141297265Y-90016433D01*
X141150830Y-90122824D01*
X141022824Y-90250830D01*
X140916433Y-90397265D01*
X140916431Y-90397269D01*
X140834250Y-90558559D01*
X140778316Y-90730710D01*
X140767341Y-90799999D01*
X94863000Y-90799999D01*
X94863000Y-86666117D01*
X97042001Y-86666117D01*
X97042001Y-86818882D01*
X97071802Y-86968702D01*
X97071804Y-86968708D01*
X97130261Y-87109835D01*
X97198505Y-87211970D01*
X97215131Y-87236852D01*
X97323148Y-87344869D01*
X97450164Y-87429738D01*
X97591295Y-87488197D01*
X97741120Y-87517999D01*
X97741121Y-87517999D01*
X98293879Y-87517999D01*
X98293880Y-87517999D01*
X98443705Y-87488197D01*
X98584836Y-87429738D01*
X98711852Y-87344869D01*
X98819869Y-87236852D01*
X98904738Y-87109836D01*
X98963197Y-86968705D01*
X98992999Y-86818880D01*
X98992999Y-86666120D01*
X98992998Y-86666117D01*
X101072001Y-86666117D01*
X101072001Y-86818882D01*
X101101802Y-86968702D01*
X101101804Y-86968708D01*
X101160261Y-87109835D01*
X101228505Y-87211970D01*
X101245131Y-87236852D01*
X101353148Y-87344869D01*
X101480164Y-87429738D01*
X101621295Y-87488197D01*
X101771120Y-87517999D01*
X101771121Y-87517999D01*
X102623879Y-87517999D01*
X102623880Y-87517999D01*
X102773705Y-87488197D01*
X102914836Y-87429738D01*
X103041852Y-87344869D01*
X103149869Y-87236852D01*
X103234738Y-87109836D01*
X103293197Y-86968705D01*
X103322999Y-86818880D01*
X103322999Y-86666120D01*
X103293197Y-86516295D01*
X103251816Y-86416394D01*
X126525350Y-86416394D01*
X126525350Y-86564231D01*
X126550963Y-86692996D01*
X126554192Y-86709226D01*
X126610766Y-86845808D01*
X126692899Y-86968729D01*
X126797434Y-87073264D01*
X126920355Y-87155397D01*
X127056937Y-87211971D01*
X127201932Y-87240813D01*
X127201933Y-87240813D01*
X127349767Y-87240813D01*
X127349768Y-87240813D01*
X127494763Y-87211971D01*
X127631345Y-87155397D01*
X127754266Y-87073264D01*
X127858801Y-86968729D01*
X127940934Y-86845808D01*
X127955978Y-86809489D01*
X146550000Y-86809489D01*
X146550000Y-87799999D01*
X146550001Y-87800000D01*
X147200001Y-87800000D01*
X147200001Y-88200000D01*
X146550001Y-88200000D01*
X146550000Y-88200001D01*
X146550000Y-89190510D01*
X146578316Y-89369289D01*
X146634250Y-89541440D01*
X146716431Y-89702730D01*
X146716433Y-89702734D01*
X146822824Y-89849169D01*
X146950830Y-89977175D01*
X147097265Y-90083566D01*
X147097269Y-90083568D01*
X147258559Y-90165749D01*
X147430710Y-90221683D01*
X147430711Y-90221684D01*
X147499999Y-90232657D01*
X147500000Y-90232656D01*
X147500000Y-89461875D01*
X147507008Y-89465922D01*
X147634174Y-89499997D01*
X147765826Y-89499997D01*
X147892992Y-89465922D01*
X147900000Y-89461875D01*
X147900000Y-90232657D01*
X147969288Y-90221684D01*
X147969289Y-90221683D01*
X148141440Y-90165749D01*
X148302730Y-90083568D01*
X148302734Y-90083566D01*
X148449169Y-89977175D01*
X148577175Y-89849169D01*
X148683566Y-89702734D01*
X148683568Y-89702730D01*
X148765749Y-89541440D01*
X148821683Y-89369289D01*
X148850000Y-89190510D01*
X148850000Y-88200001D01*
X148849999Y-88200000D01*
X148199999Y-88200000D01*
X148199999Y-87800000D01*
X148849999Y-87800000D01*
X148850000Y-87799999D01*
X148850000Y-86809489D01*
X148821683Y-86630710D01*
X148765749Y-86458559D01*
X148683568Y-86297269D01*
X148683566Y-86297265D01*
X148577175Y-86150830D01*
X148449169Y-86022824D01*
X148302734Y-85916433D01*
X148302730Y-85916431D01*
X148141440Y-85834250D01*
X147969289Y-85778316D01*
X147900000Y-85767341D01*
X147900000Y-86538124D01*
X147892992Y-86534078D01*
X147765826Y-86500003D01*
X147634174Y-86500003D01*
X147507008Y-86534078D01*
X147500000Y-86538124D01*
X147500000Y-85767342D01*
X147499999Y-85767341D01*
X147430710Y-85778316D01*
X147258559Y-85834250D01*
X147097269Y-85916431D01*
X147097265Y-85916433D01*
X146950830Y-86022824D01*
X146822824Y-86150830D01*
X146716433Y-86297265D01*
X146716431Y-86297269D01*
X146634250Y-86458559D01*
X146578316Y-86630710D01*
X146550000Y-86809489D01*
X127955978Y-86809489D01*
X127997508Y-86709226D01*
X128026350Y-86564231D01*
X128026350Y-86416395D01*
X127997508Y-86271400D01*
X127940934Y-86134818D01*
X127858801Y-86011897D01*
X127754266Y-85907362D01*
X127631345Y-85825229D01*
X127631343Y-85825228D01*
X127494764Y-85768655D01*
X127349768Y-85739813D01*
X127201932Y-85739813D01*
X127201931Y-85739813D01*
X127056935Y-85768655D01*
X126920356Y-85825228D01*
X126797435Y-85907361D01*
X126692898Y-86011898D01*
X126610765Y-86134819D01*
X126554192Y-86271398D01*
X126525350Y-86416394D01*
X103251816Y-86416394D01*
X103234738Y-86375164D01*
X103149869Y-86248148D01*
X103041852Y-86140131D01*
X103033902Y-86134819D01*
X102914835Y-86055261D01*
X102773708Y-85996804D01*
X102773702Y-85996802D01*
X102623882Y-85967001D01*
X102623880Y-85967001D01*
X101771120Y-85967001D01*
X101771117Y-85967001D01*
X101621297Y-85996802D01*
X101621291Y-85996804D01*
X101480164Y-86055261D01*
X101353151Y-86140128D01*
X101245128Y-86248151D01*
X101160261Y-86375164D01*
X101101804Y-86516291D01*
X101101802Y-86516297D01*
X101072001Y-86666117D01*
X98992998Y-86666117D01*
X98963197Y-86516295D01*
X98904738Y-86375164D01*
X98819869Y-86248148D01*
X98711852Y-86140131D01*
X98703902Y-86134819D01*
X98584835Y-86055261D01*
X98443708Y-85996804D01*
X98443702Y-85996802D01*
X98293882Y-85967001D01*
X98293880Y-85967001D01*
X97741120Y-85967001D01*
X97741117Y-85967001D01*
X97591297Y-85996802D01*
X97591291Y-85996804D01*
X97450164Y-86055261D01*
X97323151Y-86140128D01*
X97215128Y-86248151D01*
X97130261Y-86375164D01*
X97071804Y-86516291D01*
X97071802Y-86516297D01*
X97042001Y-86666117D01*
X94863000Y-86666117D01*
X94863000Y-85266356D01*
X101347000Y-85266356D01*
X101347000Y-85358644D01*
X101370886Y-85447788D01*
X101417031Y-85527712D01*
X101482288Y-85592969D01*
X101562212Y-85639114D01*
X101651356Y-85663000D01*
X101651358Y-85663000D01*
X101743642Y-85663000D01*
X101743644Y-85663000D01*
X101832788Y-85639114D01*
X101912712Y-85592969D01*
X101977969Y-85527712D01*
X102024114Y-85447788D01*
X102048000Y-85358644D01*
X102048000Y-85266356D01*
X102024114Y-85177212D01*
X101977969Y-85097288D01*
X101912712Y-85032031D01*
X101832788Y-84985886D01*
X101743644Y-84962000D01*
X101651356Y-84962000D01*
X101562212Y-84985886D01*
X101562211Y-84985886D01*
X101562209Y-84985887D01*
X101482290Y-85032029D01*
X101417029Y-85097290D01*
X101370887Y-85177209D01*
X101370886Y-85177211D01*
X101370886Y-85177212D01*
X101347000Y-85266356D01*
X94863000Y-85266356D01*
X94863000Y-84841166D01*
X103326363Y-84841166D01*
X103326363Y-84969304D01*
X103329661Y-84985886D01*
X103351362Y-85094977D01*
X103351363Y-85094982D01*
X103400397Y-85213360D01*
X103400401Y-85213368D01*
X103435807Y-85266356D01*
X103471587Y-85319904D01*
X103562194Y-85410511D01*
X103617983Y-85447788D01*
X103668729Y-85481696D01*
X103668733Y-85481698D01*
X103668736Y-85481700D01*
X103787119Y-85530736D01*
X103912794Y-85555735D01*
X103912795Y-85555735D01*
X104040931Y-85555735D01*
X104040932Y-85555735D01*
X104166607Y-85530736D01*
X104284990Y-85481700D01*
X104391532Y-85410511D01*
X104482139Y-85319904D01*
X104553328Y-85213362D01*
X104602364Y-85094979D01*
X104627363Y-84969304D01*
X104627363Y-84901579D01*
X140499500Y-84901579D01*
X140499500Y-85098420D01*
X140530289Y-85292821D01*
X140591116Y-85480025D01*
X140615413Y-85527712D01*
X140680476Y-85655405D01*
X140796172Y-85814646D01*
X140935354Y-85953828D01*
X141094595Y-86069524D01*
X141269975Y-86158884D01*
X141457174Y-86219709D01*
X141457175Y-86219709D01*
X141457178Y-86219710D01*
X141651580Y-86250500D01*
X141651583Y-86250500D01*
X144348420Y-86250500D01*
X144542821Y-86219710D01*
X144542822Y-86219709D01*
X144542826Y-86219709D01*
X144730025Y-86158884D01*
X144905405Y-86069524D01*
X145064646Y-85953828D01*
X145203828Y-85814646D01*
X145319524Y-85655405D01*
X145408884Y-85480025D01*
X145469709Y-85292826D01*
X145473901Y-85266357D01*
X145500500Y-85098420D01*
X145500500Y-84901579D01*
X145469710Y-84707178D01*
X145469709Y-84707174D01*
X145408884Y-84519975D01*
X145319524Y-84344595D01*
X145203828Y-84185354D01*
X145064646Y-84046172D01*
X144905405Y-83930476D01*
X144905404Y-83930475D01*
X144905402Y-83930474D01*
X144730025Y-83841116D01*
X144542821Y-83780289D01*
X144348420Y-83749500D01*
X144348417Y-83749500D01*
X141651583Y-83749500D01*
X141651580Y-83749500D01*
X141457178Y-83780289D01*
X141269974Y-83841116D01*
X141094597Y-83930474D01*
X140935355Y-84046171D01*
X140796171Y-84185355D01*
X140680474Y-84344597D01*
X140591116Y-84519974D01*
X140530289Y-84707178D01*
X140499500Y-84901579D01*
X104627363Y-84901579D01*
X104627363Y-84841166D01*
X104602364Y-84715491D01*
X104553328Y-84597108D01*
X104553326Y-84597105D01*
X104553324Y-84597101D01*
X104501789Y-84519975D01*
X104482139Y-84490566D01*
X104391532Y-84399959D01*
X104349089Y-84371600D01*
X104284996Y-84328773D01*
X104284988Y-84328769D01*
X104166610Y-84279735D01*
X104166608Y-84279734D01*
X104166607Y-84279734D01*
X104040932Y-84254735D01*
X103912794Y-84254735D01*
X103912793Y-84254735D01*
X103849956Y-84267234D01*
X103787119Y-84279734D01*
X103787118Y-84279734D01*
X103787115Y-84279735D01*
X103668737Y-84328769D01*
X103668729Y-84328773D01*
X103562194Y-84399959D01*
X103562190Y-84399962D01*
X103471590Y-84490562D01*
X103471587Y-84490566D01*
X103400401Y-84597101D01*
X103400397Y-84597109D01*
X103351363Y-84715487D01*
X103351362Y-84715490D01*
X103351362Y-84715491D01*
X103326363Y-84841166D01*
X94863000Y-84841166D01*
X94863000Y-79466356D01*
X101347000Y-79466356D01*
X101347000Y-79558644D01*
X101370886Y-79647788D01*
X101417031Y-79727712D01*
X101482288Y-79792969D01*
X101562212Y-79839114D01*
X101651356Y-79863000D01*
X101651358Y-79863000D01*
X101743642Y-79863000D01*
X101743644Y-79863000D01*
X101832788Y-79839114D01*
X101912712Y-79792969D01*
X101977969Y-79727712D01*
X102024114Y-79647788D01*
X102048000Y-79558644D01*
X102048000Y-79466356D01*
X102024114Y-79377212D01*
X102007496Y-79348430D01*
X103837000Y-79348430D01*
X103837000Y-79476569D01*
X103861999Y-79602242D01*
X103862000Y-79602247D01*
X103911034Y-79720625D01*
X103911038Y-79720633D01*
X103953865Y-79784726D01*
X103982224Y-79827169D01*
X104072831Y-79917776D01*
X104136348Y-79960217D01*
X104179366Y-79988961D01*
X104179370Y-79988963D01*
X104179373Y-79988965D01*
X104297756Y-80038001D01*
X104423431Y-80063000D01*
X104423432Y-80063000D01*
X104551568Y-80063000D01*
X104551569Y-80063000D01*
X104677244Y-80038001D01*
X104795627Y-79988965D01*
X104902169Y-79917776D01*
X104992776Y-79827169D01*
X105063965Y-79720627D01*
X105113001Y-79602244D01*
X105138000Y-79476569D01*
X105138000Y-79348431D01*
X105138000Y-79348430D01*
X105837000Y-79348430D01*
X105837000Y-79476569D01*
X105861999Y-79602242D01*
X105862000Y-79602247D01*
X105911034Y-79720625D01*
X105911038Y-79720633D01*
X105953865Y-79784726D01*
X105982224Y-79827169D01*
X106072831Y-79917776D01*
X106136348Y-79960217D01*
X106179366Y-79988961D01*
X106179370Y-79988963D01*
X106179373Y-79988965D01*
X106297756Y-80038001D01*
X106423431Y-80063000D01*
X106423432Y-80063000D01*
X106551568Y-80063000D01*
X106551569Y-80063000D01*
X106677244Y-80038001D01*
X106795627Y-79988965D01*
X106902169Y-79917776D01*
X106992776Y-79827169D01*
X107063965Y-79720627D01*
X107113001Y-79602244D01*
X107138000Y-79476569D01*
X107138000Y-79348431D01*
X107113001Y-79222756D01*
X107102304Y-79196931D01*
X126467000Y-79196931D01*
X126467000Y-79344768D01*
X126495842Y-79489764D01*
X126524373Y-79558644D01*
X126552416Y-79626345D01*
X126634549Y-79749266D01*
X126739084Y-79853801D01*
X126862005Y-79935934D01*
X126998587Y-79992508D01*
X127143582Y-80021350D01*
X127143583Y-80021350D01*
X127291417Y-80021350D01*
X127291418Y-80021350D01*
X127436413Y-79992508D01*
X127572995Y-79935934D01*
X127695916Y-79853801D01*
X127800451Y-79749266D01*
X127882584Y-79626345D01*
X127939158Y-79489763D01*
X127968000Y-79344768D01*
X127968000Y-79196932D01*
X127939158Y-79051937D01*
X127882584Y-78915355D01*
X127800451Y-78792434D01*
X127695916Y-78687899D01*
X127572995Y-78605766D01*
X127572993Y-78605765D01*
X127436414Y-78549192D01*
X127291418Y-78520350D01*
X127143582Y-78520350D01*
X127143581Y-78520350D01*
X126998585Y-78549192D01*
X126862006Y-78605765D01*
X126739085Y-78687898D01*
X126634548Y-78792435D01*
X126552415Y-78915356D01*
X126495842Y-79051935D01*
X126467000Y-79196931D01*
X107102304Y-79196931D01*
X107063965Y-79104373D01*
X107063963Y-79104370D01*
X107063961Y-79104366D01*
X107028927Y-79051935D01*
X106992776Y-78997831D01*
X106902169Y-78907224D01*
X106859726Y-78878865D01*
X106795633Y-78836038D01*
X106795625Y-78836034D01*
X106677247Y-78787000D01*
X106677245Y-78786999D01*
X106677244Y-78786999D01*
X106551569Y-78762000D01*
X106423431Y-78762000D01*
X106423430Y-78762000D01*
X106360593Y-78774499D01*
X106297756Y-78786999D01*
X106297755Y-78786999D01*
X106297752Y-78787000D01*
X106179374Y-78836034D01*
X106179366Y-78836038D01*
X106072831Y-78907224D01*
X106072827Y-78907227D01*
X105982227Y-78997827D01*
X105982224Y-78997831D01*
X105911038Y-79104366D01*
X105911034Y-79104374D01*
X105862000Y-79222752D01*
X105862000Y-79222754D01*
X105861999Y-79222756D01*
X105860154Y-79232031D01*
X105837000Y-79348430D01*
X105138000Y-79348430D01*
X105113001Y-79222756D01*
X105063965Y-79104373D01*
X105063963Y-79104370D01*
X105063961Y-79104366D01*
X105028927Y-79051935D01*
X104992776Y-78997831D01*
X104902169Y-78907224D01*
X104859726Y-78878865D01*
X104795633Y-78836038D01*
X104795625Y-78836034D01*
X104677247Y-78787000D01*
X104677245Y-78786999D01*
X104677244Y-78786999D01*
X104551569Y-78762000D01*
X104423431Y-78762000D01*
X104423430Y-78762000D01*
X104360593Y-78774499D01*
X104297756Y-78786999D01*
X104297755Y-78786999D01*
X104297752Y-78787000D01*
X104179374Y-78836034D01*
X104179366Y-78836038D01*
X104072831Y-78907224D01*
X104072827Y-78907227D01*
X103982227Y-78997827D01*
X103982224Y-78997831D01*
X103911038Y-79104366D01*
X103911034Y-79104374D01*
X103862000Y-79222752D01*
X103862000Y-79222754D01*
X103861999Y-79222756D01*
X103860154Y-79232031D01*
X103837000Y-79348430D01*
X102007496Y-79348430D01*
X101977969Y-79297288D01*
X101912712Y-79232031D01*
X101896649Y-79222757D01*
X101832790Y-79185887D01*
X101832789Y-79185886D01*
X101832788Y-79185886D01*
X101743644Y-79162000D01*
X101651356Y-79162000D01*
X101562212Y-79185886D01*
X101562211Y-79185886D01*
X101562209Y-79185887D01*
X101482290Y-79232029D01*
X101417029Y-79297290D01*
X101370887Y-79377209D01*
X101370886Y-79377211D01*
X101370886Y-79377212D01*
X101347000Y-79466356D01*
X94863000Y-79466356D01*
X94863000Y-78006117D01*
X97042001Y-78006117D01*
X97042001Y-78158882D01*
X97071802Y-78308702D01*
X97071804Y-78308708D01*
X97130261Y-78449835D01*
X97196649Y-78549192D01*
X97215131Y-78576852D01*
X97323148Y-78684869D01*
X97450164Y-78769738D01*
X97591295Y-78828197D01*
X97741120Y-78857999D01*
X97741121Y-78857999D01*
X98293879Y-78857999D01*
X98293880Y-78857999D01*
X98443705Y-78828197D01*
X98584836Y-78769738D01*
X98711852Y-78684869D01*
X98819869Y-78576852D01*
X98904738Y-78449836D01*
X98963197Y-78308705D01*
X98992999Y-78158880D01*
X98992999Y-78006120D01*
X98992998Y-78006117D01*
X101072001Y-78006117D01*
X101072001Y-78158882D01*
X101101802Y-78308702D01*
X101101804Y-78308708D01*
X101160261Y-78449835D01*
X101226649Y-78549192D01*
X101245131Y-78576852D01*
X101353148Y-78684869D01*
X101480164Y-78769738D01*
X101621295Y-78828197D01*
X101771120Y-78857999D01*
X101771121Y-78857999D01*
X102623879Y-78857999D01*
X102623880Y-78857999D01*
X102773705Y-78828197D01*
X102914836Y-78769738D01*
X103041852Y-78684869D01*
X103149869Y-78576852D01*
X103234738Y-78449836D01*
X103293197Y-78308705D01*
X103322999Y-78158880D01*
X103322999Y-78006120D01*
X103293197Y-77856295D01*
X103234738Y-77715164D01*
X103149869Y-77588148D01*
X103041852Y-77480131D01*
X102914836Y-77395262D01*
X102914837Y-77395262D01*
X102914835Y-77395261D01*
X102773708Y-77336804D01*
X102773702Y-77336802D01*
X102623882Y-77307001D01*
X102623880Y-77307001D01*
X101771120Y-77307001D01*
X101771117Y-77307001D01*
X101621297Y-77336802D01*
X101621291Y-77336804D01*
X101480164Y-77395261D01*
X101353151Y-77480128D01*
X101245128Y-77588151D01*
X101160261Y-77715164D01*
X101101804Y-77856291D01*
X101101802Y-77856297D01*
X101072001Y-78006117D01*
X98992998Y-78006117D01*
X98963197Y-77856295D01*
X98904738Y-77715164D01*
X98819869Y-77588148D01*
X98711852Y-77480131D01*
X98584836Y-77395262D01*
X98584837Y-77395262D01*
X98584835Y-77395261D01*
X98443708Y-77336804D01*
X98443702Y-77336802D01*
X98293882Y-77307001D01*
X98293880Y-77307001D01*
X97741120Y-77307001D01*
X97741117Y-77307001D01*
X97591297Y-77336802D01*
X97591291Y-77336804D01*
X97450164Y-77395261D01*
X97323151Y-77480128D01*
X97215128Y-77588151D01*
X97130261Y-77715164D01*
X97071804Y-77856291D01*
X97071802Y-77856297D01*
X97042001Y-78006117D01*
X94863000Y-78006117D01*
X94863000Y-76338582D01*
X167737000Y-76338582D01*
X167737000Y-76486418D01*
X167765842Y-76631413D01*
X167822416Y-76767995D01*
X167904549Y-76890916D01*
X168009084Y-76995451D01*
X168132005Y-77077584D01*
X168268587Y-77134158D01*
X168413582Y-77163000D01*
X168413583Y-77163000D01*
X168561417Y-77163000D01*
X168561418Y-77163000D01*
X168706413Y-77134158D01*
X168842995Y-77077584D01*
X168965916Y-76995451D01*
X169070451Y-76890916D01*
X169152584Y-76767995D01*
X169209158Y-76631413D01*
X169238000Y-76486418D01*
X169238000Y-76338582D01*
X169209158Y-76193587D01*
X169152584Y-76057005D01*
X169070451Y-75934084D01*
X168965916Y-75829549D01*
X168842995Y-75747416D01*
X168842993Y-75747415D01*
X168706414Y-75690842D01*
X168561418Y-75662000D01*
X168413582Y-75662000D01*
X168413581Y-75662000D01*
X168268585Y-75690842D01*
X168132006Y-75747415D01*
X168009085Y-75829548D01*
X167904548Y-75934085D01*
X167822415Y-76057006D01*
X167765842Y-76193585D01*
X167765842Y-76193587D01*
X167737000Y-76338582D01*
X94863000Y-76338582D01*
X94863000Y-74338582D01*
X175237000Y-74338582D01*
X175237000Y-74486418D01*
X175265842Y-74631413D01*
X175322416Y-74767995D01*
X175404549Y-74890916D01*
X175509084Y-74995451D01*
X175632005Y-75077584D01*
X175768587Y-75134158D01*
X175913582Y-75163000D01*
X175913583Y-75163000D01*
X176061417Y-75163000D01*
X176061418Y-75163000D01*
X176206413Y-75134158D01*
X176342995Y-75077584D01*
X176465916Y-74995451D01*
X176570451Y-74890916D01*
X176652584Y-74767995D01*
X176709158Y-74631413D01*
X176738000Y-74486418D01*
X176738000Y-74338582D01*
X176709158Y-74193587D01*
X176652584Y-74057005D01*
X176570451Y-73934084D01*
X176465916Y-73829549D01*
X176342995Y-73747416D01*
X176342993Y-73747415D01*
X176206414Y-73690842D01*
X176061418Y-73662000D01*
X175913582Y-73662000D01*
X175913581Y-73662000D01*
X175768585Y-73690842D01*
X175632006Y-73747415D01*
X175509085Y-73829548D01*
X175404548Y-73934085D01*
X175322415Y-74057006D01*
X175265842Y-74193585D01*
X175265842Y-74193587D01*
X175237000Y-74338582D01*
X94863000Y-74338582D01*
X94863000Y-62348430D01*
X131837000Y-62348430D01*
X131837000Y-62476569D01*
X131861999Y-62602242D01*
X131862000Y-62602247D01*
X131911034Y-62720625D01*
X131911038Y-62720633D01*
X131953865Y-62784726D01*
X131982224Y-62827169D01*
X132072831Y-62917776D01*
X132136348Y-62960217D01*
X132179366Y-62988961D01*
X132179370Y-62988963D01*
X132179373Y-62988965D01*
X132297756Y-63038001D01*
X132423431Y-63063000D01*
X132423432Y-63063000D01*
X132551568Y-63063000D01*
X132551569Y-63063000D01*
X132677244Y-63038001D01*
X132795627Y-62988965D01*
X132902169Y-62917776D01*
X132992776Y-62827169D01*
X133063965Y-62720627D01*
X133113001Y-62602244D01*
X133138000Y-62476569D01*
X133138000Y-62348431D01*
X133138000Y-62348430D01*
X136837000Y-62348430D01*
X136837000Y-62476569D01*
X136861999Y-62602242D01*
X136862000Y-62602247D01*
X136911034Y-62720625D01*
X136911038Y-62720633D01*
X136953865Y-62784726D01*
X136982224Y-62827169D01*
X137072831Y-62917776D01*
X137136348Y-62960217D01*
X137179366Y-62988961D01*
X137179370Y-62988963D01*
X137179373Y-62988965D01*
X137297756Y-63038001D01*
X137423431Y-63063000D01*
X137423432Y-63063000D01*
X137551568Y-63063000D01*
X137551569Y-63063000D01*
X137677244Y-63038001D01*
X137795627Y-62988965D01*
X137902169Y-62917776D01*
X137992776Y-62827169D01*
X138063965Y-62720627D01*
X138113001Y-62602244D01*
X138138000Y-62476569D01*
X138138000Y-62348431D01*
X138138000Y-62348430D01*
X143837000Y-62348430D01*
X143837000Y-62476569D01*
X143861999Y-62602242D01*
X143862000Y-62602247D01*
X143911034Y-62720625D01*
X143911038Y-62720633D01*
X143953865Y-62784726D01*
X143982224Y-62827169D01*
X144072831Y-62917776D01*
X144136348Y-62960217D01*
X144179366Y-62988961D01*
X144179370Y-62988963D01*
X144179373Y-62988965D01*
X144297756Y-63038001D01*
X144423431Y-63063000D01*
X144423432Y-63063000D01*
X144551568Y-63063000D01*
X144551569Y-63063000D01*
X144677244Y-63038001D01*
X144795627Y-62988965D01*
X144902169Y-62917776D01*
X144992776Y-62827169D01*
X145063965Y-62720627D01*
X145113001Y-62602244D01*
X145138000Y-62476569D01*
X145138000Y-62348431D01*
X145113001Y-62222756D01*
X145063965Y-62104373D01*
X145063963Y-62104370D01*
X145063961Y-62104366D01*
X145035217Y-62061348D01*
X144992776Y-61997831D01*
X144902169Y-61907224D01*
X144859726Y-61878865D01*
X144795633Y-61836038D01*
X144795625Y-61836034D01*
X144677247Y-61787000D01*
X144677245Y-61786999D01*
X144677244Y-61786999D01*
X144551569Y-61762000D01*
X144423431Y-61762000D01*
X144423430Y-61762000D01*
X144360593Y-61774499D01*
X144297756Y-61786999D01*
X144297755Y-61786999D01*
X144297752Y-61787000D01*
X144179374Y-61836034D01*
X144179366Y-61836038D01*
X144072831Y-61907224D01*
X144072827Y-61907227D01*
X143982227Y-61997827D01*
X143982224Y-61997831D01*
X143911038Y-62104366D01*
X143911034Y-62104374D01*
X143862000Y-62222752D01*
X143861999Y-62222757D01*
X143837000Y-62348430D01*
X138138000Y-62348430D01*
X138113001Y-62222756D01*
X138063965Y-62104373D01*
X138063963Y-62104370D01*
X138063961Y-62104366D01*
X138035217Y-62061348D01*
X137992776Y-61997831D01*
X137902169Y-61907224D01*
X137859726Y-61878865D01*
X137795633Y-61836038D01*
X137795625Y-61836034D01*
X137677247Y-61787000D01*
X137677245Y-61786999D01*
X137677244Y-61786999D01*
X137551569Y-61762000D01*
X137423431Y-61762000D01*
X137423430Y-61762000D01*
X137360593Y-61774499D01*
X137297756Y-61786999D01*
X137297755Y-61786999D01*
X137297752Y-61787000D01*
X137179374Y-61836034D01*
X137179366Y-61836038D01*
X137072831Y-61907224D01*
X137072827Y-61907227D01*
X136982227Y-61997827D01*
X136982224Y-61997831D01*
X136911038Y-62104366D01*
X136911034Y-62104374D01*
X136862000Y-62222752D01*
X136861999Y-62222757D01*
X136837000Y-62348430D01*
X133138000Y-62348430D01*
X133113001Y-62222756D01*
X133063965Y-62104373D01*
X133063963Y-62104370D01*
X133063961Y-62104366D01*
X133035217Y-62061348D01*
X132992776Y-61997831D01*
X132902169Y-61907224D01*
X132859726Y-61878865D01*
X132795633Y-61836038D01*
X132795625Y-61836034D01*
X132677247Y-61787000D01*
X132677245Y-61786999D01*
X132677244Y-61786999D01*
X132551569Y-61762000D01*
X132423431Y-61762000D01*
X132423430Y-61762000D01*
X132360593Y-61774499D01*
X132297756Y-61786999D01*
X132297755Y-61786999D01*
X132297752Y-61787000D01*
X132179374Y-61836034D01*
X132179366Y-61836038D01*
X132072831Y-61907224D01*
X132072827Y-61907227D01*
X131982227Y-61997827D01*
X131982224Y-61997831D01*
X131911038Y-62104366D01*
X131911034Y-62104374D01*
X131862000Y-62222752D01*
X131861999Y-62222757D01*
X131837000Y-62348430D01*
X94863000Y-62348430D01*
X94863000Y-56340025D01*
X103937000Y-56340025D01*
X103937000Y-56484974D01*
X103974517Y-56624989D01*
X104046987Y-56750510D01*
X104046989Y-56750512D01*
X104046991Y-56750515D01*
X104149485Y-56853009D01*
X104149487Y-56853010D01*
X104149489Y-56853012D01*
X104275011Y-56925482D01*
X104275012Y-56925482D01*
X104275015Y-56925484D01*
X104415025Y-56963000D01*
X104415026Y-56963000D01*
X104559974Y-56963000D01*
X104559975Y-56963000D01*
X104699985Y-56925484D01*
X104699987Y-56925482D01*
X104699989Y-56925482D01*
X104825510Y-56853012D01*
X104825510Y-56853011D01*
X104825515Y-56853009D01*
X104928009Y-56750515D01*
X105000484Y-56624985D01*
X105038000Y-56484975D01*
X105038000Y-56340025D01*
X105000484Y-56200015D01*
X105000482Y-56200012D01*
X105000482Y-56200010D01*
X104928012Y-56074489D01*
X104928010Y-56074487D01*
X104928009Y-56074485D01*
X104825515Y-55971991D01*
X104825512Y-55971989D01*
X104825510Y-55971987D01*
X104699988Y-55899517D01*
X104699989Y-55899517D01*
X104670396Y-55891587D01*
X104559975Y-55862000D01*
X104415025Y-55862000D01*
X104353290Y-55878541D01*
X104275010Y-55899517D01*
X104149489Y-55971987D01*
X104046987Y-56074489D01*
X103974517Y-56200010D01*
X103937000Y-56340025D01*
X94863000Y-56340025D01*
X94863000Y-52340025D01*
X105937000Y-52340025D01*
X105937000Y-52484974D01*
X105974517Y-52624989D01*
X106046987Y-52750510D01*
X106046989Y-52750512D01*
X106046991Y-52750515D01*
X106149485Y-52853009D01*
X106149487Y-52853010D01*
X106149489Y-52853012D01*
X106275011Y-52925482D01*
X106275012Y-52925482D01*
X106275015Y-52925484D01*
X106415025Y-52963000D01*
X106415026Y-52963000D01*
X106559974Y-52963000D01*
X106559975Y-52963000D01*
X106699985Y-52925484D01*
X106699987Y-52925482D01*
X106699989Y-52925482D01*
X106825510Y-52853012D01*
X106825510Y-52853011D01*
X106825515Y-52853009D01*
X106928009Y-52750515D01*
X106928012Y-52750510D01*
X107000482Y-52624989D01*
X107000482Y-52624987D01*
X107000484Y-52624985D01*
X107038000Y-52484975D01*
X107038000Y-52340025D01*
X107037613Y-52338581D01*
X188737000Y-52338581D01*
X188737000Y-52486418D01*
X188765842Y-52631414D01*
X188822415Y-52767993D01*
X188822416Y-52767995D01*
X188904549Y-52890916D01*
X189009084Y-52995451D01*
X189132005Y-53077584D01*
X189268587Y-53134158D01*
X189413582Y-53163000D01*
X189413583Y-53163000D01*
X189561417Y-53163000D01*
X189561418Y-53163000D01*
X189706413Y-53134158D01*
X189842995Y-53077584D01*
X189965916Y-52995451D01*
X190070451Y-52890916D01*
X190152584Y-52767995D01*
X190209158Y-52631413D01*
X190238000Y-52486418D01*
X190238000Y-52338582D01*
X190209158Y-52193587D01*
X190152584Y-52057005D01*
X190070451Y-51934084D01*
X189965916Y-51829549D01*
X189842995Y-51747416D01*
X189838251Y-51745451D01*
X189706414Y-51690842D01*
X189561418Y-51662000D01*
X189413582Y-51662000D01*
X189413581Y-51662000D01*
X189268585Y-51690842D01*
X189132006Y-51747415D01*
X189009085Y-51829548D01*
X188904548Y-51934085D01*
X188822415Y-52057006D01*
X188765842Y-52193585D01*
X188737000Y-52338581D01*
X107037613Y-52338581D01*
X107000484Y-52200015D01*
X107000482Y-52200012D01*
X107000482Y-52200010D01*
X106928012Y-52074489D01*
X106928010Y-52074487D01*
X106928009Y-52074485D01*
X106825515Y-51971991D01*
X106825512Y-51971989D01*
X106825510Y-51971987D01*
X106699988Y-51899517D01*
X106699989Y-51899517D01*
X106642665Y-51884157D01*
X106559975Y-51862000D01*
X106415025Y-51862000D01*
X106353290Y-51878541D01*
X106275010Y-51899517D01*
X106149489Y-51971987D01*
X106046987Y-52074489D01*
X105974517Y-52200010D01*
X105937000Y-52340025D01*
X94863000Y-52340025D01*
X94863000Y-50612500D01*
X105262588Y-50612500D01*
X105833943Y-50612500D01*
X105775563Y-50670880D01*
X105737501Y-50762770D01*
X105737501Y-50862230D01*
X105775563Y-50954120D01*
X105833943Y-51012500D01*
X105262589Y-51012500D01*
X105266321Y-51031264D01*
X105266323Y-51031270D01*
X105322858Y-51167757D01*
X105404934Y-51290593D01*
X105509406Y-51395065D01*
X105632242Y-51477141D01*
X105768729Y-51533676D01*
X105768735Y-51533678D01*
X105913628Y-51562499D01*
X105913632Y-51562500D01*
X106287499Y-51562500D01*
X106287500Y-51562499D01*
X106287500Y-51062512D01*
X106687500Y-51062512D01*
X106687500Y-51562499D01*
X106687501Y-51562500D01*
X107061368Y-51562500D01*
X107061371Y-51562499D01*
X107206264Y-51533678D01*
X107206270Y-51533676D01*
X107342757Y-51477141D01*
X107465593Y-51395065D01*
X107522077Y-51338581D01*
X137737000Y-51338581D01*
X137737000Y-51486418D01*
X137765842Y-51631414D01*
X137813892Y-51747416D01*
X137822416Y-51767995D01*
X137904549Y-51890916D01*
X138009084Y-51995451D01*
X138132005Y-52077584D01*
X138268587Y-52134158D01*
X138413582Y-52163000D01*
X138413583Y-52163000D01*
X138561417Y-52163000D01*
X138561418Y-52163000D01*
X138706413Y-52134158D01*
X138842995Y-52077584D01*
X138965916Y-51995451D01*
X139070451Y-51890916D01*
X139152584Y-51767995D01*
X139209158Y-51631413D01*
X139238000Y-51486418D01*
X139238000Y-51338582D01*
X139209158Y-51193587D01*
X139198459Y-51167757D01*
X139179342Y-51121603D01*
X139165663Y-51088581D01*
X186035279Y-51088581D01*
X186035279Y-51236418D01*
X186064121Y-51381414D01*
X186107615Y-51486418D01*
X186120695Y-51517995D01*
X186202828Y-51640916D01*
X186307363Y-51745451D01*
X186430284Y-51827584D01*
X186566866Y-51884158D01*
X186711861Y-51913000D01*
X186711862Y-51913000D01*
X186859696Y-51913000D01*
X186859697Y-51913000D01*
X187004692Y-51884158D01*
X187141274Y-51827584D01*
X187264195Y-51745451D01*
X187368730Y-51640916D01*
X187450863Y-51517995D01*
X187507437Y-51381413D01*
X187536279Y-51236418D01*
X187536279Y-51088582D01*
X187507437Y-50943587D01*
X187450863Y-50807005D01*
X187368730Y-50684084D01*
X187264195Y-50579549D01*
X187141274Y-50497416D01*
X187141272Y-50497415D01*
X187004693Y-50440842D01*
X186859697Y-50412000D01*
X186711861Y-50412000D01*
X186711860Y-50412000D01*
X186566864Y-50440842D01*
X186430285Y-50497415D01*
X186307364Y-50579548D01*
X186202827Y-50684085D01*
X186120694Y-50807006D01*
X186064121Y-50943585D01*
X186035279Y-51088581D01*
X139165663Y-51088581D01*
X139152584Y-51057006D01*
X139152584Y-51057005D01*
X139070451Y-50934084D01*
X138965916Y-50829549D01*
X138842995Y-50747416D01*
X138842993Y-50747415D01*
X138706414Y-50690842D01*
X138561418Y-50662000D01*
X138413582Y-50662000D01*
X138413581Y-50662000D01*
X138268585Y-50690842D01*
X138132006Y-50747415D01*
X138009085Y-50829548D01*
X137904548Y-50934085D01*
X137822415Y-51057006D01*
X137765842Y-51193585D01*
X137737000Y-51338581D01*
X107522077Y-51338581D01*
X107570065Y-51290593D01*
X107578001Y-51278717D01*
X107652141Y-51167757D01*
X107708676Y-51031270D01*
X107708678Y-51031264D01*
X107712411Y-51012500D01*
X107141057Y-51012500D01*
X107199437Y-50954120D01*
X107237499Y-50862230D01*
X107237499Y-50762770D01*
X107199437Y-50670880D01*
X107141057Y-50612500D01*
X107712411Y-50612500D01*
X107708678Y-50593735D01*
X107708676Y-50593729D01*
X107652141Y-50457242D01*
X107570065Y-50334406D01*
X107465593Y-50229934D01*
X107342757Y-50147858D01*
X107206270Y-50091323D01*
X107206264Y-50091321D01*
X107061371Y-50062500D01*
X106687501Y-50062500D01*
X106687500Y-50062501D01*
X106687500Y-50562488D01*
X106287500Y-50562488D01*
X106287500Y-50062501D01*
X106287499Y-50062500D01*
X105913628Y-50062500D01*
X105768735Y-50091321D01*
X105768729Y-50091323D01*
X105632242Y-50147858D01*
X105509406Y-50229934D01*
X105404934Y-50334406D01*
X105322858Y-50457242D01*
X105266323Y-50593729D01*
X105266321Y-50593735D01*
X105262588Y-50612500D01*
X94863000Y-50612500D01*
X94863000Y-48348430D01*
X96237000Y-48348430D01*
X96237000Y-48476569D01*
X96261999Y-48602242D01*
X96262000Y-48602247D01*
X96311034Y-48720625D01*
X96311038Y-48720633D01*
X96353865Y-48784726D01*
X96382224Y-48827169D01*
X96472831Y-48917776D01*
X96536348Y-48960217D01*
X96579366Y-48988961D01*
X96579370Y-48988963D01*
X96579373Y-48988965D01*
X96697756Y-49038001D01*
X96823431Y-49063000D01*
X96823432Y-49063000D01*
X96951568Y-49063000D01*
X96951569Y-49063000D01*
X97077244Y-49038001D01*
X97195627Y-48988965D01*
X97302169Y-48917776D01*
X97392776Y-48827169D01*
X97463965Y-48720627D01*
X97513001Y-48602244D01*
X97538000Y-48476569D01*
X97538000Y-48348431D01*
X97538000Y-48348430D01*
X103237000Y-48348430D01*
X103237000Y-48476569D01*
X103261999Y-48602242D01*
X103262000Y-48602247D01*
X103311034Y-48720625D01*
X103311038Y-48720633D01*
X103353865Y-48784726D01*
X103382224Y-48827169D01*
X103472831Y-48917776D01*
X103536348Y-48960217D01*
X103579366Y-48988961D01*
X103579370Y-48988963D01*
X103579373Y-48988965D01*
X103697756Y-49038001D01*
X103823431Y-49063000D01*
X103823432Y-49063000D01*
X103951568Y-49063000D01*
X103951569Y-49063000D01*
X104077244Y-49038001D01*
X104195627Y-48988965D01*
X104302169Y-48917776D01*
X104392776Y-48827169D01*
X104463965Y-48720627D01*
X104513001Y-48602244D01*
X104538000Y-48476569D01*
X104538000Y-48348431D01*
X104513001Y-48222756D01*
X104463965Y-48104373D01*
X104463963Y-48104370D01*
X104463961Y-48104366D01*
X104435217Y-48061348D01*
X104392776Y-47997831D01*
X104302169Y-47907224D01*
X104259726Y-47878865D01*
X104195633Y-47836038D01*
X104195625Y-47836034D01*
X104077247Y-47787000D01*
X104077245Y-47786999D01*
X104077244Y-47786999D01*
X103951569Y-47762000D01*
X103823431Y-47762000D01*
X103823430Y-47762000D01*
X103760593Y-47774499D01*
X103697756Y-47786999D01*
X103697755Y-47786999D01*
X103697752Y-47787000D01*
X103579374Y-47836034D01*
X103579366Y-47836038D01*
X103472831Y-47907224D01*
X103472827Y-47907227D01*
X103382227Y-47997827D01*
X103382224Y-47997831D01*
X103311038Y-48104366D01*
X103311034Y-48104374D01*
X103262000Y-48222752D01*
X103261999Y-48222757D01*
X103237000Y-48348430D01*
X97538000Y-48348430D01*
X97513001Y-48222756D01*
X97463965Y-48104373D01*
X97463963Y-48104370D01*
X97463961Y-48104366D01*
X97435217Y-48061348D01*
X97392776Y-47997831D01*
X97302169Y-47907224D01*
X97259726Y-47878865D01*
X97195633Y-47836038D01*
X97195625Y-47836034D01*
X97077247Y-47787000D01*
X97077245Y-47786999D01*
X97077244Y-47786999D01*
X96951569Y-47762000D01*
X96823431Y-47762000D01*
X96823430Y-47762000D01*
X96760593Y-47774499D01*
X96697756Y-47786999D01*
X96697755Y-47786999D01*
X96697752Y-47787000D01*
X96579374Y-47836034D01*
X96579366Y-47836038D01*
X96472831Y-47907224D01*
X96472827Y-47907227D01*
X96382227Y-47997827D01*
X96382224Y-47997831D01*
X96311038Y-48104366D01*
X96311034Y-48104374D01*
X96262000Y-48222752D01*
X96261999Y-48222757D01*
X96237000Y-48348430D01*
X94863000Y-48348430D01*
X94863000Y-45938582D01*
X97237000Y-45938582D01*
X97237000Y-46086418D01*
X97265842Y-46231413D01*
X97322416Y-46367995D01*
X97404549Y-46490916D01*
X97509084Y-46595451D01*
X97632005Y-46677584D01*
X97768587Y-46734158D01*
X97913582Y-46763000D01*
X97913583Y-46763000D01*
X99061417Y-46763000D01*
X99061418Y-46763000D01*
X99206413Y-46734158D01*
X99342995Y-46677584D01*
X99465916Y-46595451D01*
X99570451Y-46490916D01*
X99652584Y-46367995D01*
X99709158Y-46231413D01*
X99738000Y-46086418D01*
X99738000Y-45938582D01*
X100237000Y-45938582D01*
X100237000Y-46086418D01*
X100265842Y-46231413D01*
X100322416Y-46367995D01*
X100404549Y-46490916D01*
X100509084Y-46595451D01*
X100632005Y-46677584D01*
X100768587Y-46734158D01*
X100913582Y-46763000D01*
X100913583Y-46763000D01*
X102061417Y-46763000D01*
X102061418Y-46763000D01*
X102206413Y-46734158D01*
X102342995Y-46677584D01*
X102465916Y-46595451D01*
X102570451Y-46490916D01*
X102652584Y-46367995D01*
X102709158Y-46231413D01*
X102738000Y-46086418D01*
X102738000Y-45938582D01*
X104237000Y-45938582D01*
X104237000Y-46086418D01*
X104265842Y-46231413D01*
X104322416Y-46367995D01*
X104404549Y-46490916D01*
X104509084Y-46595451D01*
X104632005Y-46677584D01*
X104768587Y-46734158D01*
X104913582Y-46763000D01*
X104913583Y-46763000D01*
X106061417Y-46763000D01*
X106061418Y-46763000D01*
X106206413Y-46734158D01*
X106342995Y-46677584D01*
X106465916Y-46595451D01*
X106570451Y-46490916D01*
X106652584Y-46367995D01*
X106709158Y-46231413D01*
X106738000Y-46086418D01*
X106738000Y-45938582D01*
X106709158Y-45793587D01*
X106652584Y-45657005D01*
X106570451Y-45534084D01*
X106465916Y-45429549D01*
X106342995Y-45347416D01*
X106342993Y-45347415D01*
X106206414Y-45290842D01*
X106061418Y-45262000D01*
X104913582Y-45262000D01*
X104913581Y-45262000D01*
X104768585Y-45290842D01*
X104632006Y-45347415D01*
X104509085Y-45429548D01*
X104404548Y-45534085D01*
X104322415Y-45657006D01*
X104265842Y-45793585D01*
X104265842Y-45793587D01*
X104237000Y-45938582D01*
X102738000Y-45938582D01*
X102709158Y-45793587D01*
X102652584Y-45657005D01*
X102570451Y-45534084D01*
X102465916Y-45429549D01*
X102342995Y-45347416D01*
X102342993Y-45347415D01*
X102206414Y-45290842D01*
X102061418Y-45262000D01*
X100913582Y-45262000D01*
X100913581Y-45262000D01*
X100768585Y-45290842D01*
X100632006Y-45347415D01*
X100509085Y-45429548D01*
X100404548Y-45534085D01*
X100322415Y-45657006D01*
X100265842Y-45793585D01*
X100265842Y-45793587D01*
X100237000Y-45938582D01*
X99738000Y-45938582D01*
X99709158Y-45793587D01*
X99652584Y-45657005D01*
X99570451Y-45534084D01*
X99465916Y-45429549D01*
X99342995Y-45347416D01*
X99342993Y-45347415D01*
X99206414Y-45290842D01*
X99061418Y-45262000D01*
X97913582Y-45262000D01*
X97913581Y-45262000D01*
X97768585Y-45290842D01*
X97632006Y-45347415D01*
X97509085Y-45429548D01*
X97404548Y-45534085D01*
X97322415Y-45657006D01*
X97265842Y-45793585D01*
X97265842Y-45793587D01*
X97237000Y-45938582D01*
X94863000Y-45938582D01*
X94863000Y-44340025D01*
X111937000Y-44340025D01*
X111937000Y-44484975D01*
X111946810Y-44521585D01*
X111974517Y-44624989D01*
X112046987Y-44750510D01*
X112046989Y-44750512D01*
X112046991Y-44750515D01*
X112149485Y-44853009D01*
X112149487Y-44853010D01*
X112149489Y-44853012D01*
X112275011Y-44925482D01*
X112275012Y-44925482D01*
X112275015Y-44925484D01*
X112415025Y-44963000D01*
X112415026Y-44963000D01*
X112559974Y-44963000D01*
X112559975Y-44963000D01*
X112699985Y-44925484D01*
X112699987Y-44925482D01*
X112699989Y-44925482D01*
X112825510Y-44853012D01*
X112825510Y-44853011D01*
X112825515Y-44853009D01*
X112928009Y-44750515D01*
X112945267Y-44720623D01*
X113000482Y-44624989D01*
X113000482Y-44624987D01*
X113000484Y-44624985D01*
X113038000Y-44484975D01*
X113038000Y-44340025D01*
X124937000Y-44340025D01*
X124937000Y-44484975D01*
X124946810Y-44521585D01*
X124974517Y-44624989D01*
X125046987Y-44750510D01*
X125046989Y-44750512D01*
X125046991Y-44750515D01*
X125149485Y-44853009D01*
X125149487Y-44853010D01*
X125149489Y-44853012D01*
X125275011Y-44925482D01*
X125275012Y-44925482D01*
X125275015Y-44925484D01*
X125415025Y-44963000D01*
X125415026Y-44963000D01*
X125559974Y-44963000D01*
X125559975Y-44963000D01*
X125699985Y-44925484D01*
X125699987Y-44925482D01*
X125699989Y-44925482D01*
X125825510Y-44853012D01*
X125825510Y-44853011D01*
X125825515Y-44853009D01*
X125928009Y-44750515D01*
X125945267Y-44720623D01*
X126000482Y-44624989D01*
X126000482Y-44624987D01*
X126000484Y-44624985D01*
X126038000Y-44484975D01*
X126038000Y-44348428D01*
X169837001Y-44348428D01*
X169837001Y-44476567D01*
X169862000Y-44602240D01*
X169862001Y-44602245D01*
X169911035Y-44720623D01*
X169911039Y-44720631D01*
X169951434Y-44781085D01*
X169982225Y-44827167D01*
X170072832Y-44917774D01*
X170107633Y-44941027D01*
X170179367Y-44988959D01*
X170179371Y-44988961D01*
X170179374Y-44988963D01*
X170297757Y-45037999D01*
X170423432Y-45062998D01*
X170423433Y-45062998D01*
X170551569Y-45062998D01*
X170551570Y-45062998D01*
X170677245Y-45037999D01*
X170795628Y-44988963D01*
X170889738Y-44926081D01*
X176885500Y-44926081D01*
X176885500Y-45073918D01*
X176914342Y-45218914D01*
X176970915Y-45355493D01*
X176970916Y-45355495D01*
X177053049Y-45478416D01*
X177157584Y-45582951D01*
X177280505Y-45665084D01*
X177417087Y-45721658D01*
X177562082Y-45750500D01*
X177562083Y-45750500D01*
X177709917Y-45750500D01*
X177709918Y-45750500D01*
X177854913Y-45721658D01*
X177991495Y-45665084D01*
X178114416Y-45582951D01*
X178218951Y-45478416D01*
X178301084Y-45355495D01*
X178357658Y-45218913D01*
X178386500Y-45073918D01*
X178386500Y-44926082D01*
X178357658Y-44781087D01*
X178302612Y-44648194D01*
X182306274Y-44648194D01*
X182306274Y-44796031D01*
X182335116Y-44941027D01*
X182391689Y-45077606D01*
X182391690Y-45077608D01*
X182473823Y-45200529D01*
X182578358Y-45305064D01*
X182701279Y-45387197D01*
X182837861Y-45443771D01*
X182982856Y-45472613D01*
X182982857Y-45472613D01*
X183130691Y-45472613D01*
X183130692Y-45472613D01*
X183275687Y-45443771D01*
X183412269Y-45387197D01*
X183535190Y-45305064D01*
X183639725Y-45200529D01*
X183721858Y-45077608D01*
X183778432Y-44941026D01*
X183807274Y-44796031D01*
X183807274Y-44648195D01*
X183778432Y-44503200D01*
X183721858Y-44366618D01*
X183639725Y-44243697D01*
X183535190Y-44139162D01*
X183412269Y-44057029D01*
X183412267Y-44057028D01*
X183275688Y-44000455D01*
X183130692Y-43971613D01*
X182982856Y-43971613D01*
X182982855Y-43971613D01*
X182837859Y-44000455D01*
X182701280Y-44057028D01*
X182578359Y-44139161D01*
X182473822Y-44243698D01*
X182391689Y-44366619D01*
X182335116Y-44503198D01*
X182306274Y-44648194D01*
X178302612Y-44648194D01*
X178301084Y-44644505D01*
X178218951Y-44521584D01*
X178114416Y-44417049D01*
X177991495Y-44334916D01*
X177991493Y-44334915D01*
X177854914Y-44278342D01*
X177709918Y-44249500D01*
X177562082Y-44249500D01*
X177562081Y-44249500D01*
X177417085Y-44278342D01*
X177280506Y-44334915D01*
X177157585Y-44417048D01*
X177053048Y-44521585D01*
X176970915Y-44644506D01*
X176914342Y-44781085D01*
X176885500Y-44926081D01*
X170889738Y-44926081D01*
X170902170Y-44917774D01*
X170992777Y-44827167D01*
X171063966Y-44720625D01*
X171113002Y-44602242D01*
X171138001Y-44476567D01*
X171138001Y-44348429D01*
X171113002Y-44222754D01*
X171063966Y-44104371D01*
X171063964Y-44104368D01*
X171063962Y-44104364D01*
X171000347Y-44009159D01*
X170992777Y-43997829D01*
X170902170Y-43907222D01*
X170847140Y-43870452D01*
X170795634Y-43836036D01*
X170795626Y-43836032D01*
X170677248Y-43786998D01*
X170677246Y-43786997D01*
X170677245Y-43786997D01*
X170551570Y-43761998D01*
X170423432Y-43761998D01*
X170423431Y-43761998D01*
X170403740Y-43765915D01*
X170297757Y-43786997D01*
X170297756Y-43786997D01*
X170297753Y-43786998D01*
X170179375Y-43836032D01*
X170179367Y-43836036D01*
X170072832Y-43907222D01*
X170072828Y-43907225D01*
X169982228Y-43997825D01*
X169982225Y-43997829D01*
X169911039Y-44104364D01*
X169911035Y-44104372D01*
X169862001Y-44222750D01*
X169862000Y-44222755D01*
X169837001Y-44348428D01*
X126038000Y-44348428D01*
X126038000Y-44340025D01*
X126000484Y-44200015D01*
X126000482Y-44200012D01*
X126000482Y-44200010D01*
X125928012Y-44074489D01*
X125928010Y-44074487D01*
X125928009Y-44074485D01*
X125825515Y-43971991D01*
X125825512Y-43971989D01*
X125825510Y-43971987D01*
X125699988Y-43899517D01*
X125699989Y-43899517D01*
X125670396Y-43891587D01*
X125559975Y-43862000D01*
X125415025Y-43862000D01*
X125353290Y-43878541D01*
X125275010Y-43899517D01*
X125149489Y-43971987D01*
X125046987Y-44074489D01*
X124974517Y-44200010D01*
X124962811Y-44243697D01*
X124937000Y-44340025D01*
X113038000Y-44340025D01*
X113000484Y-44200015D01*
X113000482Y-44200012D01*
X113000482Y-44200010D01*
X112928012Y-44074489D01*
X112928010Y-44074487D01*
X112928009Y-44074485D01*
X112825515Y-43971991D01*
X112825512Y-43971989D01*
X112825510Y-43971987D01*
X112699988Y-43899517D01*
X112699989Y-43899517D01*
X112670396Y-43891587D01*
X112559975Y-43862000D01*
X112415025Y-43862000D01*
X112353290Y-43878541D01*
X112275010Y-43899517D01*
X112149489Y-43971987D01*
X112046987Y-44074489D01*
X111974517Y-44200010D01*
X111962811Y-44243697D01*
X111937000Y-44340025D01*
X94863000Y-44340025D01*
X94863000Y-43213583D01*
X187961999Y-43213583D01*
X187961999Y-43361419D01*
X187990841Y-43506414D01*
X188047415Y-43642996D01*
X188129548Y-43765917D01*
X188234083Y-43870452D01*
X188357004Y-43952585D01*
X188493586Y-44009159D01*
X188638581Y-44038001D01*
X188638582Y-44038001D01*
X188786416Y-44038001D01*
X188786417Y-44038001D01*
X188931412Y-44009159D01*
X189067994Y-43952585D01*
X189190915Y-43870452D01*
X189295450Y-43765917D01*
X189377583Y-43642996D01*
X189434157Y-43506414D01*
X189462999Y-43361419D01*
X189462999Y-43213583D01*
X189434157Y-43068588D01*
X189377583Y-42932006D01*
X189295450Y-42809085D01*
X189190915Y-42704550D01*
X189067994Y-42622417D01*
X189067992Y-42622416D01*
X188931413Y-42565843D01*
X188786417Y-42537001D01*
X188638581Y-42537001D01*
X188638580Y-42537001D01*
X188493584Y-42565843D01*
X188357005Y-42622416D01*
X188234084Y-42704549D01*
X188129547Y-42809086D01*
X188047414Y-42932007D01*
X187990841Y-43068586D01*
X187981160Y-43117255D01*
X187961999Y-43213583D01*
X94863000Y-43213583D01*
X94863000Y-42338581D01*
X137737000Y-42338581D01*
X137737000Y-42486418D01*
X137764052Y-42622417D01*
X137765842Y-42631413D01*
X137822416Y-42767995D01*
X137904549Y-42890916D01*
X138009084Y-42995451D01*
X138132005Y-43077584D01*
X138268587Y-43134158D01*
X138413582Y-43163000D01*
X138413583Y-43163000D01*
X138561417Y-43163000D01*
X138561418Y-43163000D01*
X138706413Y-43134158D01*
X138842995Y-43077584D01*
X138965916Y-42995451D01*
X139070451Y-42890916D01*
X139152584Y-42767995D01*
X139209158Y-42631413D01*
X139238000Y-42486418D01*
X139238000Y-42338582D01*
X139209158Y-42193587D01*
X139152584Y-42057005D01*
X139070451Y-41934084D01*
X138965916Y-41829549D01*
X138842995Y-41747416D01*
X138842993Y-41747415D01*
X138706414Y-41690842D01*
X138561418Y-41662000D01*
X138413582Y-41662000D01*
X138413581Y-41662000D01*
X138268585Y-41690842D01*
X138132006Y-41747415D01*
X138009085Y-41829548D01*
X137904548Y-41934085D01*
X137822415Y-42057006D01*
X137765842Y-42193585D01*
X137737000Y-42338581D01*
X94863000Y-42338581D01*
X94863000Y-41340025D01*
X98937000Y-41340025D01*
X98937000Y-41484974D01*
X98974517Y-41624989D01*
X99046987Y-41750510D01*
X99046989Y-41750512D01*
X99046991Y-41750515D01*
X99149485Y-41853009D01*
X99149487Y-41853010D01*
X99149489Y-41853012D01*
X99275011Y-41925482D01*
X99275012Y-41925482D01*
X99275015Y-41925484D01*
X99415025Y-41963000D01*
X99415026Y-41963000D01*
X99559974Y-41963000D01*
X99559975Y-41963000D01*
X99699985Y-41925484D01*
X99699987Y-41925482D01*
X99699989Y-41925482D01*
X99825510Y-41853012D01*
X99825510Y-41853011D01*
X99825515Y-41853009D01*
X99928009Y-41750515D01*
X99929799Y-41747415D01*
X100000482Y-41624989D01*
X100000482Y-41624987D01*
X100000484Y-41624985D01*
X100038000Y-41484975D01*
X100038000Y-41348430D01*
X130837000Y-41348430D01*
X130837000Y-41476569D01*
X130861999Y-41602242D01*
X130862000Y-41602247D01*
X130911034Y-41720625D01*
X130911038Y-41720633D01*
X130931002Y-41750510D01*
X130982224Y-41827169D01*
X131072831Y-41917776D01*
X131136348Y-41960217D01*
X131179366Y-41988961D01*
X131179370Y-41988963D01*
X131179373Y-41988965D01*
X131297756Y-42038001D01*
X131423431Y-42063000D01*
X131423432Y-42063000D01*
X131551568Y-42063000D01*
X131551569Y-42063000D01*
X131677244Y-42038001D01*
X131795627Y-41988965D01*
X131902169Y-41917776D01*
X131992776Y-41827169D01*
X132063965Y-41720627D01*
X132113001Y-41602244D01*
X132138000Y-41476569D01*
X132138000Y-41348431D01*
X132113001Y-41222756D01*
X132063965Y-41104373D01*
X132063963Y-41104370D01*
X132063961Y-41104366D01*
X132035217Y-41061348D01*
X131992776Y-40997831D01*
X131902169Y-40907224D01*
X131859726Y-40878865D01*
X131795633Y-40836038D01*
X131795625Y-40836034D01*
X131677247Y-40787000D01*
X131677245Y-40786999D01*
X131677244Y-40786999D01*
X131551569Y-40762000D01*
X131423431Y-40762000D01*
X131423430Y-40762000D01*
X131360593Y-40774499D01*
X131297756Y-40786999D01*
X131297755Y-40786999D01*
X131297752Y-40787000D01*
X131179374Y-40836034D01*
X131179366Y-40836038D01*
X131072831Y-40907224D01*
X131072827Y-40907227D01*
X130982227Y-40997827D01*
X130982224Y-40997831D01*
X130911038Y-41104366D01*
X130911034Y-41104374D01*
X130862000Y-41222752D01*
X130861999Y-41222757D01*
X130837000Y-41348430D01*
X100038000Y-41348430D01*
X100038000Y-41340025D01*
X100000484Y-41200015D01*
X100000482Y-41200012D01*
X100000482Y-41200010D01*
X99928012Y-41074489D01*
X99928010Y-41074487D01*
X99928009Y-41074485D01*
X99825515Y-40971991D01*
X99825512Y-40971989D01*
X99825510Y-40971987D01*
X99699988Y-40899517D01*
X99699989Y-40899517D01*
X99670396Y-40891587D01*
X99559975Y-40862000D01*
X99415025Y-40862000D01*
X99353290Y-40878541D01*
X99275010Y-40899517D01*
X99149489Y-40971987D01*
X99046987Y-41074489D01*
X98974517Y-41200010D01*
X98937000Y-41340025D01*
X94863000Y-41340025D01*
X94863000Y-39927525D01*
X103449500Y-39927525D01*
X103449500Y-40072474D01*
X103487017Y-40212489D01*
X103559487Y-40338010D01*
X103559489Y-40338012D01*
X103559491Y-40338015D01*
X103661985Y-40440509D01*
X103661987Y-40440510D01*
X103661989Y-40440512D01*
X103787511Y-40512982D01*
X103787512Y-40512982D01*
X103787515Y-40512984D01*
X103927525Y-40550500D01*
X103927526Y-40550500D01*
X104072474Y-40550500D01*
X104072475Y-40550500D01*
X104212485Y-40512984D01*
X104212487Y-40512982D01*
X104212489Y-40512982D01*
X104338010Y-40440512D01*
X104338010Y-40440511D01*
X104338015Y-40440509D01*
X104438499Y-40340025D01*
X124937000Y-40340025D01*
X124937000Y-40484974D01*
X124974517Y-40624989D01*
X125046987Y-40750510D01*
X125046989Y-40750512D01*
X125046991Y-40750515D01*
X125149485Y-40853009D01*
X125149487Y-40853010D01*
X125149489Y-40853012D01*
X125275011Y-40925482D01*
X125275012Y-40925482D01*
X125275015Y-40925484D01*
X125415025Y-40963000D01*
X125415026Y-40963000D01*
X125559974Y-40963000D01*
X125559975Y-40963000D01*
X125699985Y-40925484D01*
X125699987Y-40925482D01*
X125699989Y-40925482D01*
X125825510Y-40853012D01*
X125825510Y-40853011D01*
X125825515Y-40853009D01*
X125928009Y-40750515D01*
X126000484Y-40624985D01*
X126038000Y-40484975D01*
X126038000Y-40340025D01*
X126000484Y-40200015D01*
X126000482Y-40200012D01*
X126000482Y-40200010D01*
X125928012Y-40074489D01*
X125928010Y-40074487D01*
X125928009Y-40074485D01*
X125825515Y-39971991D01*
X125825512Y-39971989D01*
X125825510Y-39971987D01*
X125699988Y-39899517D01*
X125699989Y-39899517D01*
X125670396Y-39891587D01*
X125559975Y-39862000D01*
X125415025Y-39862000D01*
X125353290Y-39878541D01*
X125275010Y-39899517D01*
X125149489Y-39971987D01*
X125046987Y-40074489D01*
X124974517Y-40200010D01*
X124937000Y-40340025D01*
X104438499Y-40340025D01*
X104440509Y-40338015D01*
X104458479Y-40306889D01*
X104471675Y-40284035D01*
X104494800Y-40243979D01*
X104512984Y-40212485D01*
X104550500Y-40072475D01*
X104550500Y-39927525D01*
X104512984Y-39787515D01*
X104512982Y-39787512D01*
X104512982Y-39787510D01*
X104440512Y-39661989D01*
X104440510Y-39661987D01*
X104440509Y-39661985D01*
X104338015Y-39559491D01*
X104338012Y-39559489D01*
X104338010Y-39559487D01*
X104212488Y-39487017D01*
X104212489Y-39487017D01*
X104173489Y-39476567D01*
X104072475Y-39449500D01*
X103927525Y-39449500D01*
X103865790Y-39466041D01*
X103787510Y-39487017D01*
X103661989Y-39559487D01*
X103559487Y-39661989D01*
X103487017Y-39787510D01*
X103449500Y-39927525D01*
X94863000Y-39927525D01*
X94863000Y-38927525D01*
X101449500Y-38927525D01*
X101449500Y-39072475D01*
X101479087Y-39182896D01*
X101487017Y-39212489D01*
X101559487Y-39338010D01*
X101559489Y-39338012D01*
X101559491Y-39338015D01*
X101661985Y-39440509D01*
X101661987Y-39440510D01*
X101661989Y-39440512D01*
X101787511Y-39512982D01*
X101787512Y-39512982D01*
X101787515Y-39512984D01*
X101927525Y-39550500D01*
X101927526Y-39550500D01*
X102072474Y-39550500D01*
X102072475Y-39550500D01*
X102212485Y-39512984D01*
X102212487Y-39512982D01*
X102212489Y-39512982D01*
X102338010Y-39440512D01*
X102338010Y-39440511D01*
X102338015Y-39440509D01*
X102430094Y-39348430D01*
X127837000Y-39348430D01*
X127837000Y-39476569D01*
X127861999Y-39602242D01*
X127862000Y-39602247D01*
X127911034Y-39720625D01*
X127911038Y-39720633D01*
X127953865Y-39784726D01*
X127982224Y-39827169D01*
X128072831Y-39917776D01*
X128136348Y-39960217D01*
X128179366Y-39988961D01*
X128179370Y-39988963D01*
X128179373Y-39988965D01*
X128297756Y-40038001D01*
X128423431Y-40063000D01*
X128423432Y-40063000D01*
X128551568Y-40063000D01*
X128551569Y-40063000D01*
X128677244Y-40038001D01*
X128795627Y-39988965D01*
X128902169Y-39917776D01*
X128992776Y-39827169D01*
X129063965Y-39720627D01*
X129113001Y-39602244D01*
X129138000Y-39476569D01*
X129138000Y-39348431D01*
X129113001Y-39222756D01*
X129063965Y-39104373D01*
X129063963Y-39104370D01*
X129063961Y-39104366D01*
X129035217Y-39061348D01*
X128992776Y-38997831D01*
X128902169Y-38907224D01*
X128859726Y-38878865D01*
X128795633Y-38836038D01*
X128795625Y-38836034D01*
X128677247Y-38787000D01*
X128677245Y-38786999D01*
X128677244Y-38786999D01*
X128551569Y-38762000D01*
X128423431Y-38762000D01*
X128423430Y-38762000D01*
X128360593Y-38774499D01*
X128297756Y-38786999D01*
X128297755Y-38786999D01*
X128297752Y-38787000D01*
X128179374Y-38836034D01*
X128179366Y-38836038D01*
X128072831Y-38907224D01*
X128072827Y-38907227D01*
X127982227Y-38997827D01*
X127982224Y-38997831D01*
X127911038Y-39104366D01*
X127911034Y-39104374D01*
X127862000Y-39222752D01*
X127861999Y-39222757D01*
X127837000Y-39348430D01*
X102430094Y-39348430D01*
X102440509Y-39338015D01*
X102507054Y-39222757D01*
X102512982Y-39212489D01*
X102512982Y-39212487D01*
X102512984Y-39212485D01*
X102550500Y-39072475D01*
X102550500Y-38927525D01*
X102512984Y-38787515D01*
X102512982Y-38787512D01*
X102512982Y-38787510D01*
X102440512Y-38661989D01*
X102440510Y-38661987D01*
X102440509Y-38661985D01*
X102338015Y-38559491D01*
X102338012Y-38559489D01*
X102338010Y-38559487D01*
X102212488Y-38487017D01*
X102212489Y-38487017D01*
X102182896Y-38479087D01*
X102072475Y-38449500D01*
X101927525Y-38449500D01*
X101865790Y-38466041D01*
X101787510Y-38487017D01*
X101661989Y-38559487D01*
X101559487Y-38661989D01*
X101487017Y-38787510D01*
X101487016Y-38787515D01*
X101449500Y-38927525D01*
X94863000Y-38927525D01*
X94863000Y-34609694D01*
X160343148Y-34609694D01*
X160428258Y-34632500D01*
X160546743Y-34632500D01*
X160631851Y-34609694D01*
X161393148Y-34609694D01*
X161478258Y-34632500D01*
X161596743Y-34632500D01*
X161681851Y-34609694D01*
X161537500Y-34465342D01*
X161393148Y-34609694D01*
X160631851Y-34609694D01*
X160487500Y-34465342D01*
X160343148Y-34609694D01*
X94863000Y-34609694D01*
X94863000Y-34123256D01*
X160037500Y-34123256D01*
X160037500Y-34241743D01*
X160060303Y-34326851D01*
X160060304Y-34326851D01*
X160204656Y-34182500D01*
X160184765Y-34162609D01*
X160387500Y-34162609D01*
X160387500Y-34202391D01*
X160402724Y-34239145D01*
X160430855Y-34267276D01*
X160467609Y-34282500D01*
X160507391Y-34282500D01*
X160544145Y-34267276D01*
X160572276Y-34239145D01*
X160587500Y-34202391D01*
X160587500Y-34182500D01*
X160770342Y-34182500D01*
X160914694Y-34326851D01*
X160916872Y-34318724D01*
X160950196Y-34267410D01*
X161007317Y-34245483D01*
X161066418Y-34261318D01*
X161104923Y-34308868D01*
X161108126Y-34318724D01*
X161110303Y-34326851D01*
X161110304Y-34326851D01*
X161254656Y-34182500D01*
X161234765Y-34162609D01*
X161437500Y-34162609D01*
X161437500Y-34202391D01*
X161452724Y-34239145D01*
X161480855Y-34267276D01*
X161517609Y-34282500D01*
X161557391Y-34282500D01*
X161594145Y-34267276D01*
X161622276Y-34239145D01*
X161637500Y-34202391D01*
X161637500Y-34182500D01*
X161820342Y-34182500D01*
X161964694Y-34326851D01*
X161987500Y-34241743D01*
X161987500Y-34123257D01*
X161964694Y-34038148D01*
X161820342Y-34182500D01*
X161637500Y-34182500D01*
X161637500Y-34162609D01*
X161622276Y-34125855D01*
X161594145Y-34097724D01*
X161557391Y-34082500D01*
X161517609Y-34082500D01*
X161480855Y-34097724D01*
X161452724Y-34125855D01*
X161437500Y-34162609D01*
X161234765Y-34162609D01*
X161110303Y-34038147D01*
X161108126Y-34046275D01*
X161074802Y-34097589D01*
X161017681Y-34119516D01*
X160958580Y-34103681D01*
X160920075Y-34056131D01*
X160916872Y-34046275D01*
X160914694Y-34038148D01*
X160770342Y-34182500D01*
X160587500Y-34182500D01*
X160587500Y-34162609D01*
X160572276Y-34125855D01*
X160544145Y-34097724D01*
X160507391Y-34082500D01*
X160467609Y-34082500D01*
X160430855Y-34097724D01*
X160402724Y-34125855D01*
X160387500Y-34162609D01*
X160184765Y-34162609D01*
X160060303Y-34038147D01*
X160037500Y-34123256D01*
X94863000Y-34123256D01*
X94863000Y-33839694D01*
X159593148Y-33839694D01*
X159678258Y-33862500D01*
X159796743Y-33862500D01*
X159881850Y-33839694D01*
X159868653Y-33826497D01*
X159868651Y-33826494D01*
X159839657Y-33797500D01*
X160385342Y-33797500D01*
X160487499Y-33899656D01*
X160589656Y-33797500D01*
X161435342Y-33797500D01*
X161537499Y-33899656D01*
X161597461Y-33839694D01*
X162143148Y-33839694D01*
X162228258Y-33862500D01*
X162346743Y-33862500D01*
X162431851Y-33839694D01*
X162287500Y-33695342D01*
X162143148Y-33839694D01*
X161597461Y-33839694D01*
X161639656Y-33797499D01*
X161537501Y-33695342D01*
X161435342Y-33797500D01*
X160589656Y-33797500D01*
X160589657Y-33797499D01*
X160487501Y-33695342D01*
X160385342Y-33797500D01*
X159839657Y-33797500D01*
X159737500Y-33695342D01*
X159593148Y-33839694D01*
X94863000Y-33839694D01*
X94863000Y-33353256D01*
X159287500Y-33353256D01*
X159287500Y-33471743D01*
X159310303Y-33556851D01*
X159310304Y-33556851D01*
X159454656Y-33412500D01*
X159434765Y-33392609D01*
X159637500Y-33392609D01*
X159637500Y-33432391D01*
X159652724Y-33469145D01*
X159680855Y-33497276D01*
X159717609Y-33512500D01*
X159757391Y-33512500D01*
X159794145Y-33497276D01*
X159822276Y-33469145D01*
X159837500Y-33432391D01*
X159837500Y-33412500D01*
X160020342Y-33412500D01*
X160112499Y-33504656D01*
X160204657Y-33412499D01*
X160184767Y-33392609D01*
X160387500Y-33392609D01*
X160387500Y-33432391D01*
X160402724Y-33469145D01*
X160430855Y-33497276D01*
X160467609Y-33512500D01*
X160507391Y-33512500D01*
X160544145Y-33497276D01*
X160572276Y-33469145D01*
X160587500Y-33432391D01*
X160587500Y-33412500D01*
X160770342Y-33412500D01*
X160914694Y-33556851D01*
X160916872Y-33548724D01*
X160950196Y-33497410D01*
X161007317Y-33475483D01*
X161066418Y-33491318D01*
X161104923Y-33538868D01*
X161108126Y-33548724D01*
X161110303Y-33556851D01*
X161110304Y-33556851D01*
X161254656Y-33412500D01*
X161234765Y-33392609D01*
X161437500Y-33392609D01*
X161437500Y-33432391D01*
X161452724Y-33469145D01*
X161480855Y-33497276D01*
X161517609Y-33512500D01*
X161557391Y-33512500D01*
X161594145Y-33497276D01*
X161622276Y-33469145D01*
X161637500Y-33432391D01*
X161637500Y-33412500D01*
X161820342Y-33412500D01*
X161912499Y-33504656D01*
X162004657Y-33412499D01*
X161984767Y-33392609D01*
X162187500Y-33392609D01*
X162187500Y-33432391D01*
X162202724Y-33469145D01*
X162230855Y-33497276D01*
X162267609Y-33512500D01*
X162307391Y-33512500D01*
X162344145Y-33497276D01*
X162372276Y-33469145D01*
X162387500Y-33432391D01*
X162387500Y-33412500D01*
X162570342Y-33412500D01*
X162714694Y-33556851D01*
X162737500Y-33471743D01*
X162737500Y-33353257D01*
X162714694Y-33268148D01*
X162570342Y-33412500D01*
X162387500Y-33412500D01*
X162387500Y-33392609D01*
X162372276Y-33355855D01*
X162344145Y-33327724D01*
X162307391Y-33312500D01*
X162267609Y-33312500D01*
X162230855Y-33327724D01*
X162202724Y-33355855D01*
X162187500Y-33392609D01*
X161984767Y-33392609D01*
X161912501Y-33320342D01*
X161820342Y-33412500D01*
X161637500Y-33412500D01*
X161637500Y-33392609D01*
X161622276Y-33355855D01*
X161594145Y-33327724D01*
X161557391Y-33312500D01*
X161517609Y-33312500D01*
X161480855Y-33327724D01*
X161452724Y-33355855D01*
X161437500Y-33392609D01*
X161234765Y-33392609D01*
X161110303Y-33268147D01*
X161108126Y-33276275D01*
X161074802Y-33327589D01*
X161017681Y-33349516D01*
X160958580Y-33333681D01*
X160920075Y-33286131D01*
X160916872Y-33276275D01*
X160914694Y-33268148D01*
X160770342Y-33412500D01*
X160587500Y-33412500D01*
X160587500Y-33392609D01*
X160572276Y-33355855D01*
X160544145Y-33327724D01*
X160507391Y-33312500D01*
X160467609Y-33312500D01*
X160430855Y-33327724D01*
X160402724Y-33355855D01*
X160387500Y-33392609D01*
X160184767Y-33392609D01*
X160112501Y-33320342D01*
X160020342Y-33412500D01*
X159837500Y-33412500D01*
X159837500Y-33392609D01*
X159822276Y-33355855D01*
X159794145Y-33327724D01*
X159757391Y-33312500D01*
X159717609Y-33312500D01*
X159680855Y-33327724D01*
X159652724Y-33355855D01*
X159637500Y-33392609D01*
X159434765Y-33392609D01*
X159310303Y-33268147D01*
X159287500Y-33353256D01*
X94863000Y-33353256D01*
X94863000Y-32985303D01*
X159593147Y-32985303D01*
X159737500Y-33129656D01*
X159839655Y-33027500D01*
X160385342Y-33027500D01*
X160487499Y-33129656D01*
X160589656Y-33027500D01*
X161435342Y-33027500D01*
X161537499Y-33129656D01*
X161639657Y-33027499D01*
X161597461Y-32985303D01*
X162143147Y-32985303D01*
X162287500Y-33129656D01*
X162431851Y-32985304D01*
X162431851Y-32985303D01*
X162346743Y-32962500D01*
X162228257Y-32962500D01*
X162143147Y-32985303D01*
X161597461Y-32985303D01*
X161537501Y-32925342D01*
X161435342Y-33027500D01*
X160589656Y-33027500D01*
X160589657Y-33027499D01*
X160487501Y-32925342D01*
X160385342Y-33027500D01*
X159839655Y-33027500D01*
X159881851Y-32985304D01*
X159881851Y-32985303D01*
X159796743Y-32962500D01*
X159678257Y-32962500D01*
X159593147Y-32985303D01*
X94863000Y-32985303D01*
X94863000Y-32583256D01*
X160037500Y-32583256D01*
X160037500Y-32701743D01*
X160060303Y-32786851D01*
X160060304Y-32786851D01*
X160204656Y-32642500D01*
X160184765Y-32622609D01*
X160387500Y-32622609D01*
X160387500Y-32662391D01*
X160402724Y-32699145D01*
X160430855Y-32727276D01*
X160467609Y-32742500D01*
X160507391Y-32742500D01*
X160544145Y-32727276D01*
X160572276Y-32699145D01*
X160587500Y-32662391D01*
X160587500Y-32642500D01*
X160770342Y-32642500D01*
X160914694Y-32786851D01*
X160916872Y-32778724D01*
X160950196Y-32727410D01*
X161007317Y-32705483D01*
X161066418Y-32721318D01*
X161104923Y-32768868D01*
X161108126Y-32778724D01*
X161110303Y-32786851D01*
X161110304Y-32786851D01*
X161254656Y-32642500D01*
X161234765Y-32622609D01*
X161437500Y-32622609D01*
X161437500Y-32662391D01*
X161452724Y-32699145D01*
X161480855Y-32727276D01*
X161517609Y-32742500D01*
X161557391Y-32742500D01*
X161594145Y-32727276D01*
X161622276Y-32699145D01*
X161637500Y-32662391D01*
X161637500Y-32642500D01*
X161820342Y-32642500D01*
X161964694Y-32786851D01*
X161987500Y-32701743D01*
X161987500Y-32583257D01*
X161964694Y-32498148D01*
X161820342Y-32642500D01*
X161637500Y-32642500D01*
X161637500Y-32622609D01*
X161622276Y-32585855D01*
X161594145Y-32557724D01*
X161557391Y-32542500D01*
X161517609Y-32542500D01*
X161480855Y-32557724D01*
X161452724Y-32585855D01*
X161437500Y-32622609D01*
X161234765Y-32622609D01*
X161110303Y-32498147D01*
X161108126Y-32506275D01*
X161074802Y-32557589D01*
X161017681Y-32579516D01*
X160958580Y-32563681D01*
X160920075Y-32516131D01*
X160916872Y-32506275D01*
X160914694Y-32498148D01*
X160770342Y-32642500D01*
X160587500Y-32642500D01*
X160587500Y-32622609D01*
X160572276Y-32585855D01*
X160544145Y-32557724D01*
X160507391Y-32542500D01*
X160467609Y-32542500D01*
X160430855Y-32557724D01*
X160402724Y-32585855D01*
X160387500Y-32622609D01*
X160184765Y-32622609D01*
X160060303Y-32498147D01*
X160037500Y-32583256D01*
X94863000Y-32583256D01*
X94863000Y-32215303D01*
X160343147Y-32215303D01*
X160487500Y-32359656D01*
X160631851Y-32215304D01*
X160631851Y-32215303D01*
X161393147Y-32215303D01*
X161537500Y-32359656D01*
X161681851Y-32215304D01*
X161681851Y-32215303D01*
X161596743Y-32192500D01*
X161478257Y-32192500D01*
X161393147Y-32215303D01*
X160631851Y-32215303D01*
X160546743Y-32192500D01*
X160428257Y-32192500D01*
X160343147Y-32215303D01*
X94863000Y-32215303D01*
X94863000Y-31931185D01*
X184792000Y-31931185D01*
X184792000Y-32076134D01*
X184829517Y-32216149D01*
X184901987Y-32341670D01*
X184901989Y-32341672D01*
X184901991Y-32341675D01*
X185004485Y-32444169D01*
X185004487Y-32444170D01*
X185004489Y-32444172D01*
X185130011Y-32516642D01*
X185130012Y-32516642D01*
X185130015Y-32516644D01*
X185270025Y-32554160D01*
X185270026Y-32554160D01*
X185414974Y-32554160D01*
X185414975Y-32554160D01*
X185554985Y-32516644D01*
X185554987Y-32516642D01*
X185554989Y-32516642D01*
X185680510Y-32444172D01*
X185680510Y-32444171D01*
X185680515Y-32444169D01*
X185783009Y-32341675D01*
X185855484Y-32216145D01*
X185893000Y-32076135D01*
X185893000Y-31931185D01*
X185855484Y-31791175D01*
X185855482Y-31791172D01*
X185855482Y-31791170D01*
X185783012Y-31665649D01*
X185783010Y-31665647D01*
X185783009Y-31665645D01*
X185680515Y-31563151D01*
X185680512Y-31563149D01*
X185680510Y-31563147D01*
X185554988Y-31490677D01*
X185554989Y-31490677D01*
X185525396Y-31482747D01*
X185414975Y-31453160D01*
X185270025Y-31453160D01*
X185208290Y-31469701D01*
X185130010Y-31490677D01*
X185004489Y-31563147D01*
X184901987Y-31665649D01*
X184829517Y-31791170D01*
X184792000Y-31931185D01*
X94863000Y-31931185D01*
X94863000Y-30340025D01*
X178937000Y-30340025D01*
X178937000Y-30484974D01*
X178974517Y-30624989D01*
X179046987Y-30750510D01*
X179046989Y-30750512D01*
X179046991Y-30750515D01*
X179149485Y-30853009D01*
X179149487Y-30853010D01*
X179149489Y-30853012D01*
X179275011Y-30925482D01*
X179275012Y-30925482D01*
X179275015Y-30925484D01*
X179415025Y-30963000D01*
X179415026Y-30963000D01*
X179559974Y-30963000D01*
X179559975Y-30963000D01*
X179699985Y-30925484D01*
X179699987Y-30925482D01*
X179699989Y-30925482D01*
X179825510Y-30853012D01*
X179825510Y-30853011D01*
X179825515Y-30853009D01*
X179928009Y-30750515D01*
X180000484Y-30624985D01*
X180038000Y-30484975D01*
X180038000Y-30340025D01*
X180000484Y-30200015D01*
X180000482Y-30200012D01*
X180000482Y-30200010D01*
X179928012Y-30074489D01*
X179928010Y-30074487D01*
X179928009Y-30074485D01*
X179825515Y-29971991D01*
X179825512Y-29971989D01*
X179825510Y-29971987D01*
X179699988Y-29899517D01*
X179699989Y-29899517D01*
X179670396Y-29891587D01*
X179559975Y-29862000D01*
X179415025Y-29862000D01*
X179353290Y-29878541D01*
X179275010Y-29899517D01*
X179149489Y-29971987D01*
X179046987Y-30074489D01*
X178974517Y-30200010D01*
X178937000Y-30340025D01*
X94863000Y-30340025D01*
X94863000Y-26340025D01*
X124937000Y-26340025D01*
X124937000Y-26484974D01*
X124974517Y-26624989D01*
X125046987Y-26750510D01*
X125046989Y-26750512D01*
X125046991Y-26750515D01*
X125149485Y-26853009D01*
X125149487Y-26853010D01*
X125149489Y-26853012D01*
X125275011Y-26925482D01*
X125275012Y-26925482D01*
X125275015Y-26925484D01*
X125415025Y-26963000D01*
X125415026Y-26963000D01*
X125559974Y-26963000D01*
X125559975Y-26963000D01*
X125699985Y-26925484D01*
X125699987Y-26925482D01*
X125699989Y-26925482D01*
X125825510Y-26853012D01*
X125825510Y-26853011D01*
X125825515Y-26853009D01*
X125928009Y-26750515D01*
X126000484Y-26624985D01*
X126038000Y-26484975D01*
X126038000Y-26340025D01*
X126000484Y-26200015D01*
X126000482Y-26200012D01*
X126000482Y-26200010D01*
X125928012Y-26074489D01*
X125928010Y-26074487D01*
X125928009Y-26074485D01*
X125825515Y-25971991D01*
X125825512Y-25971989D01*
X125825510Y-25971987D01*
X125699988Y-25899517D01*
X125699989Y-25899517D01*
X125670396Y-25891587D01*
X125559975Y-25862000D01*
X125415025Y-25862000D01*
X125353290Y-25878541D01*
X125275010Y-25899517D01*
X125149489Y-25971987D01*
X125046987Y-26074489D01*
X124974517Y-26200010D01*
X124937000Y-26340025D01*
X94863000Y-26340025D01*
X94863000Y-24414665D01*
X94863094Y-24410347D01*
X94865158Y-24363065D01*
X94880410Y-24013749D01*
X94881160Y-24005173D01*
X94932694Y-23613736D01*
X94934193Y-23605240D01*
X94948218Y-23541981D01*
X95005627Y-23283019D01*
X96512000Y-23283019D01*
X96512000Y-23316427D01*
X96512000Y-23541981D01*
X96545801Y-23798728D01*
X96572807Y-23899516D01*
X96612824Y-24048865D01*
X96711923Y-24288111D01*
X96711926Y-24288116D01*
X96825582Y-24484975D01*
X96841409Y-24512387D01*
X96934131Y-24633225D01*
X96999053Y-24717833D01*
X97182167Y-24900947D01*
X97387616Y-25058593D01*
X97611884Y-25188074D01*
X97611885Y-25188074D01*
X97611888Y-25188076D01*
X97851134Y-25287175D01*
X98101272Y-25354199D01*
X98358019Y-25388000D01*
X98358020Y-25388000D01*
X98616980Y-25388000D01*
X98616981Y-25388000D01*
X98873728Y-25354199D01*
X99123866Y-25287175D01*
X99363116Y-25188074D01*
X99587384Y-25058593D01*
X99792833Y-24900947D01*
X99975947Y-24717833D01*
X100133593Y-24512384D01*
X100233104Y-24340025D01*
X125937000Y-24340025D01*
X125937000Y-24484975D01*
X125944345Y-24512387D01*
X125974517Y-24624989D01*
X126046987Y-24750510D01*
X126046989Y-24750512D01*
X126046991Y-24750515D01*
X126149485Y-24853009D01*
X126149487Y-24853010D01*
X126149489Y-24853012D01*
X126275011Y-24925482D01*
X126275012Y-24925482D01*
X126275015Y-24925484D01*
X126415025Y-24963000D01*
X126415026Y-24963000D01*
X126559974Y-24963000D01*
X126559975Y-24963000D01*
X126699985Y-24925484D01*
X126699987Y-24925482D01*
X126699989Y-24925482D01*
X126825510Y-24853012D01*
X126825510Y-24853011D01*
X126825515Y-24853009D01*
X126928009Y-24750515D01*
X127000484Y-24624985D01*
X127038000Y-24484975D01*
X127038000Y-24340025D01*
X127000484Y-24200015D01*
X127000482Y-24200012D01*
X127000482Y-24200010D01*
X126928012Y-24074489D01*
X126928010Y-24074487D01*
X126928009Y-24074485D01*
X126825515Y-23971991D01*
X126825512Y-23971989D01*
X126825510Y-23971987D01*
X126699988Y-23899517D01*
X126699989Y-23899517D01*
X126631241Y-23881096D01*
X126559975Y-23862000D01*
X126415025Y-23862000D01*
X126353290Y-23878541D01*
X126275010Y-23899517D01*
X126149489Y-23971987D01*
X126046987Y-24074489D01*
X125974517Y-24200010D01*
X125950910Y-24288111D01*
X125937000Y-24340025D01*
X100233104Y-24340025D01*
X100263074Y-24288116D01*
X100362175Y-24048866D01*
X100429199Y-23798728D01*
X100463000Y-23541981D01*
X100463000Y-23283019D01*
X188512000Y-23283019D01*
X188512000Y-23316427D01*
X188512000Y-23541981D01*
X188545801Y-23798728D01*
X188572807Y-23899516D01*
X188612824Y-24048865D01*
X188711923Y-24288111D01*
X188711926Y-24288116D01*
X188825582Y-24484975D01*
X188841409Y-24512387D01*
X188934131Y-24633225D01*
X188999053Y-24717833D01*
X189182167Y-24900947D01*
X189387616Y-25058593D01*
X189611884Y-25188074D01*
X189611885Y-25188074D01*
X189611888Y-25188076D01*
X189851134Y-25287175D01*
X190101272Y-25354199D01*
X190358019Y-25388000D01*
X190358020Y-25388000D01*
X190616980Y-25388000D01*
X190616981Y-25388000D01*
X190873728Y-25354199D01*
X191123866Y-25287175D01*
X191363116Y-25188074D01*
X191587384Y-25058593D01*
X191792833Y-24900947D01*
X191975947Y-24717833D01*
X192133593Y-24512384D01*
X192263074Y-24288116D01*
X192362175Y-24048866D01*
X192429199Y-23798728D01*
X192463000Y-23541981D01*
X192463000Y-23283019D01*
X192429199Y-23026272D01*
X192362175Y-22776134D01*
X192263074Y-22536884D01*
X192133593Y-22312616D01*
X191975947Y-22107167D01*
X191792833Y-21924053D01*
X191587384Y-21766407D01*
X191363116Y-21636926D01*
X191363111Y-21636923D01*
X191123865Y-21537824D01*
X191009963Y-21507305D01*
X190873728Y-21470801D01*
X190873721Y-21470800D01*
X190616982Y-21437000D01*
X190616981Y-21437000D01*
X190358019Y-21437000D01*
X190358017Y-21437000D01*
X190101278Y-21470800D01*
X190101276Y-21470800D01*
X190101272Y-21470801D01*
X190006726Y-21496134D01*
X189851134Y-21537824D01*
X189611888Y-21636923D01*
X189387612Y-21766409D01*
X189182170Y-21924050D01*
X188999050Y-22107170D01*
X188841409Y-22312612D01*
X188711923Y-22536888D01*
X188612824Y-22776134D01*
X188571134Y-22931726D01*
X188545801Y-23026272D01*
X188545800Y-23026276D01*
X188545800Y-23026278D01*
X188515248Y-23258351D01*
X188512000Y-23283019D01*
X100463000Y-23283019D01*
X100429199Y-23026272D01*
X100362175Y-22776134D01*
X100263074Y-22536884D01*
X100133593Y-22312616D01*
X99975947Y-22107167D01*
X99792833Y-21924053D01*
X99587384Y-21766407D01*
X99363116Y-21636926D01*
X99363111Y-21636923D01*
X99123865Y-21537824D01*
X99009963Y-21507305D01*
X98873728Y-21470801D01*
X98873721Y-21470800D01*
X98616982Y-21437000D01*
X98616981Y-21437000D01*
X98358019Y-21437000D01*
X98358017Y-21437000D01*
X98101278Y-21470800D01*
X98101276Y-21470800D01*
X98101272Y-21470801D01*
X98006726Y-21496134D01*
X97851134Y-21537824D01*
X97611888Y-21636923D01*
X97387612Y-21766409D01*
X97182170Y-21924050D01*
X96999050Y-22107170D01*
X96841409Y-22312612D01*
X96711923Y-22536888D01*
X96612824Y-22776134D01*
X96571134Y-22931726D01*
X96545801Y-23026272D01*
X96545800Y-23026276D01*
X96545800Y-23026278D01*
X96515248Y-23258351D01*
X96512000Y-23283019D01*
X95005627Y-23283019D01*
X95019642Y-23219802D01*
X95021874Y-23211473D01*
X95140591Y-22834950D01*
X95143545Y-22826834D01*
X95165968Y-22772701D01*
X95294633Y-22462076D01*
X95298268Y-22454282D01*
X95480571Y-22104079D01*
X95484878Y-22096618D01*
X95697019Y-21763623D01*
X95701957Y-21756572D01*
X95942308Y-21443341D01*
X95947829Y-21436761D01*
X96214571Y-21145664D01*
X96220664Y-21139571D01*
X96511761Y-20872829D01*
X96518341Y-20867308D01*
X96831572Y-20626957D01*
X96838623Y-20622019D01*
X97171618Y-20409878D01*
X97179079Y-20405571D01*
X97529282Y-20223268D01*
X97537076Y-20219633D01*
X97901841Y-20068542D01*
X97909942Y-20065593D01*
X98286481Y-19946871D01*
X98294808Y-19944641D01*
X98680249Y-19859191D01*
X98688736Y-19857694D01*
X99080173Y-19806160D01*
X99088749Y-19805410D01*
X99485347Y-19788093D01*
X99489665Y-19788000D01*
X99541489Y-19788000D01*
X104388500Y-19788000D01*
X104446691Y-19806907D01*
G37*
%TD.AperFunction*%
%TD*%
M02*
