M48
; DRILL file KiCad 10.0.5 date 2026-09-24T00:42:17
; FORMAT={-:-/ absolute / metric / decimal}
; #@! TF.CreationDate,2026-09-24T00:42:17+05:30
; #@! TF.GenerationSoftware,Kicad,Pcbnew,10.0.5
; #@! TF.FileFunction,Plated,1,4,PTH
FMAT,2
METRIC
; #@! TA.AperFunction,Plated,PTH,ComponentDrill
T1C0.200
; #@! TA.AperFunction,Plated,PTH,ViaDrill
T2C0.300
; #@! TA.AperFunction,Plated,PTH,ViaDrill
T3C0.400
; #@! TA.AperFunction,Plated,PTH,ViaDrill
T4C0.500
; #@! TA.AperFunction,Plated,PTH,ComponentDrill
T5C0.500
; #@! TA.AperFunction,Plated,PTH,ComponentDrill
T6C1.000
; #@! TA.AperFunction,Plated,PTH,ComponentDrill
T7C1.300
%
G90
G05
T1
X159.737Y-33.413
X160.487Y-32.642
X160.487Y-33.413
X160.487Y-34.182
X161.537Y-32.642
X161.537Y-33.413
X161.537Y-34.182
X162.287Y-33.413
T2
X99.487Y-41.413
X102.0Y-39.0
X104.0Y-40.0
X104.487Y-56.412
X106.487Y-52.412
X112.487Y-44.413
X125.487Y-26.412
X125.487Y-40.413
X125.487Y-44.413
X126.487Y-24.412
X179.487Y-30.412
X185.343Y-32.004
T3
X101.0Y-21.0
X101.0Y-23.0
X101.0Y-26.0
X102.0Y-75.0
X103.977Y-84.905
X104.0Y-78.0
X104.0Y-86.0
X104.0Y-89.0
X104.487Y-79.412
X105.0Y-21.0
X106.0Y-66.0
X106.0Y-83.0
X106.487Y-79.412
X108.0Y-51.0
X109.0Y-40.0
X110.0Y-29.0
X111.0Y-26.0
X111.0Y-28.0
X111.0Y-30.0
X111.0Y-32.0
X111.0Y-59.0
X111.0Y-84.0
X111.0Y-87.0
X112.0Y-85.0
X112.0Y-87.0
X113.0Y-26.0
X113.0Y-32.0
X113.0Y-51.0
X113.0Y-84.0
X114.0Y-85.0
X114.0Y-87.0
X115.0Y-26.0
X115.0Y-32.0
X115.0Y-81.0
X116.0Y-28.0
X116.0Y-30.0
X117.0Y-29.0
X117.0Y-65.0
X117.0Y-68.0
X117.0Y-87.0
X118.0Y-89.0
X121.0Y-65.0
X122.0Y-51.0
X122.0Y-64.0
X124.0Y-52.0
X125.0Y-21.0
X126.0Y-88.0
X128.487Y-39.413
X131.487Y-41.413
X132.487Y-62.412
X134.0Y-52.0
X137.487Y-62.412
X144.487Y-62.412
X152.0Y-34.0
X153.0Y-36.0
X154.0Y-32.0
X156.0Y-25.0
X157.0Y-38.0
X159.737Y-33.413
X160.0Y-40.0
X160.493Y-34.152
X161.007Y-33.413
X161.54Y-32.676
X162.0Y-26.0
X162.287Y-33.413
X162.347Y-34.142
X165.0Y-26.0
X167.0Y-34.0
X167.0Y-36.0
X167.0Y-39.0
X170.0Y-61.0
X170.488Y-44.412
X172.0Y-60.0
X173.0Y-44.0
X173.0Y-48.0
X173.0Y-86.0
X175.0Y-38.0
X176.0Y-37.0
X177.0Y-54.0
X178.0Y-34.0
X179.881Y-44.899
X181.119Y-44.77
X181.791Y-37.127
X182.0Y-34.0
X183.0Y-73.0
X184.0Y-34.0
X184.257Y-44.625
X187.0Y-38.0
X187.0Y-86.0
X190.0Y-72.0
X191.0Y-44.0
X191.0Y-46.0
T4
X96.0Y-59.0
X96.0Y-61.0
X96.0Y-63.0
X96.0Y-65.0
X96.0Y-67.0
X96.0Y-69.0
X96.0Y-71.0
X96.0Y-73.0
X96.0Y-75.0
X97.0Y-90.0
X97.0Y-92.0
X98.0Y-29.0
X98.0Y-31.0
X98.0Y-33.0
X98.0Y-35.0
X98.0Y-37.0
X98.0Y-39.0
X98.0Y-41.0
X98.0Y-43.0
X98.0Y-53.0
X98.0Y-55.0
X98.0Y-59.0
X98.0Y-61.0
X98.0Y-65.0
X98.0Y-67.0
X98.0Y-69.0
X98.0Y-71.0
X98.0Y-73.0
X98.0Y-75.0
X99.0Y-90.0
X100.0Y-60.0
X100.0Y-65.0
X100.0Y-92.0
X101.0Y-90.0
X102.0Y-94.0
X102.0Y-97.0
X105.0Y-94.0
X105.0Y-97.0
X127.218Y-79.271
X127.276Y-86.49
X129.0Y-91.0
X129.0Y-93.0
X129.0Y-95.0
X129.0Y-97.0
X130.0Y-22.0
X130.0Y-24.0
X132.0Y-22.0
X132.0Y-24.0
X132.0Y-26.0
X132.0Y-85.0
X132.0Y-87.0
X132.0Y-89.0
X132.0Y-91.0
X132.0Y-93.0
X132.0Y-95.0
X132.0Y-97.0
X133.0Y-28.0
X133.0Y-30.0
X133.0Y-32.0
X133.0Y-34.0
X133.0Y-36.0
X133.0Y-38.0
X134.0Y-22.0
X134.0Y-24.0
X134.0Y-26.0
X135.0Y-28.0
X135.0Y-30.0
X135.0Y-32.0
X135.0Y-34.0
X135.0Y-36.0
X135.0Y-38.0
X135.0Y-72.0
X135.0Y-74.0
X135.0Y-76.0
X135.0Y-78.0
X135.0Y-80.0
X135.0Y-82.0
X135.0Y-85.0
X135.0Y-87.0
X135.0Y-89.0
X135.0Y-91.0
X135.0Y-93.0
X135.0Y-95.0
X135.0Y-97.0
X136.0Y-22.0
X136.0Y-24.0
X136.0Y-26.0
X136.0Y-67.0
X136.0Y-77.0
X137.0Y-28.0
X137.0Y-30.0
X137.0Y-32.0
X137.0Y-34.0
X137.0Y-36.0
X137.0Y-38.0
X138.0Y-22.0
X138.0Y-24.0
X138.0Y-26.0
X138.0Y-72.0
X138.0Y-77.0
X138.0Y-79.0
X138.0Y-67.0
X138.487Y-42.413
X138.487Y-51.412
X139.0Y-29.0
X139.0Y-31.0
X139.0Y-73.0
X139.0Y-75.0
X139.0Y-81.0
X140.0Y-22.0
X140.0Y-24.0
X140.0Y-26.0
X140.0Y-67.0
X141.0Y-29.0
X142.0Y-22.0
X142.0Y-24.0
X142.0Y-26.0
X142.0Y-67.0
X142.0Y-93.0
X144.0Y-22.0
X144.0Y-24.0
X144.0Y-26.0
X144.0Y-67.0
X144.0Y-69.0
X144.0Y-71.0
X144.0Y-73.0
X144.0Y-75.0
X144.0Y-77.0
X146.0Y-22.0
X146.0Y-24.0
X146.0Y-26.0
X148.0Y-22.0
X148.0Y-24.0
X148.0Y-26.0
X149.0Y-87.0
X150.0Y-22.0
X150.0Y-24.0
X150.0Y-26.0
X151.0Y-68.0
X151.0Y-70.0
X151.0Y-72.0
X151.0Y-74.0
X151.0Y-76.0
X151.0Y-78.0
X151.0Y-81.0
X151.0Y-83.0
X151.0Y-89.0
X151.0Y-91.0
X151.0Y-93.0
X151.0Y-95.0
X151.0Y-97.0
X152.0Y-22.0
X152.0Y-24.0
X152.0Y-26.0
X153.0Y-68.0
X153.0Y-74.0
X153.0Y-81.0
X153.0Y-83.0
X153.0Y-85.0
X153.0Y-87.0
X153.0Y-89.0
X153.0Y-91.0
X153.0Y-93.0
X153.0Y-95.0
X153.0Y-97.0
X154.0Y-22.0
X154.0Y-24.0
X154.0Y-73.0
X154.0Y-76.0
X155.0Y-69.0
X155.0Y-71.0
X155.0Y-78.0
X155.0Y-81.0
X155.0Y-83.0
X155.0Y-85.0
X155.0Y-87.0
X155.0Y-89.0
X155.0Y-91.0
X155.0Y-93.0
X155.0Y-95.0
X155.0Y-97.0
X156.0Y-79.0
X157.0Y-81.0
X157.0Y-83.0
X157.0Y-85.0
X157.0Y-87.0
X157.0Y-89.0
X157.0Y-91.0
X157.0Y-93.0
X157.0Y-95.0
X157.0Y-97.0
X159.0Y-67.0
X159.0Y-69.0
X159.0Y-71.0
X159.0Y-73.0
X159.0Y-75.0
X159.0Y-77.0
X159.0Y-79.0
X159.0Y-81.0
X159.0Y-83.0
X159.0Y-85.0
X159.0Y-87.0
X159.0Y-89.0
X159.0Y-91.0
X159.0Y-93.0
X159.0Y-95.0
X159.0Y-97.0
X167.0Y-21.0
X167.0Y-23.0
X167.0Y-25.0
X167.0Y-27.0
X168.487Y-76.412
X169.0Y-21.0
X169.0Y-23.0
X169.0Y-25.0
X169.0Y-27.0
X169.0Y-29.0
X171.0Y-21.0
X171.0Y-23.0
X171.0Y-25.0
X171.0Y-27.0
X171.0Y-29.0
X171.0Y-31.0
X175.987Y-74.412
X177.636Y-45.0
X183.057Y-44.722
X186.786Y-51.162
X188.0Y-91.0
X188.712Y-43.288
X189.0Y-26.0
X189.487Y-52.412
X190.0Y-28.0
X190.0Y-30.0
X190.0Y-32.0
X190.0Y-39.0
X190.0Y-41.0
X190.0Y-77.0
X190.0Y-79.0
X190.0Y-81.0
X190.0Y-83.0
X190.0Y-89.0
X190.0Y-91.0
X192.0Y-28.0
X192.0Y-31.0
X192.0Y-33.0
X192.0Y-35.0
X192.0Y-37.0
X192.0Y-39.0
X192.0Y-41.0
X192.0Y-49.0
X192.0Y-51.0
X192.0Y-53.0
X192.0Y-55.0
X192.0Y-57.0
X192.0Y-59.0
X192.0Y-61.0
X193.0Y-26.0
T6
X120.987Y-94.662
X123.487Y-94.662
T7
X163.998Y-93.585
X168.998Y-93.585
X177.498Y-93.585
X182.498Y-93.585
T5
G00X97.988Y-46.012
M15
G01X98.987Y-46.012
M16
G05
G00X100.988Y-46.012
M15
G01X101.987Y-46.012
M16
G05
G00X104.988Y-46.012
M15
G01X105.987Y-46.012
M16
G05
G00X105.988Y-50.812
M15
G01X106.987Y-50.812
M16
G05
T6
G00X141.75Y-85.0
M15
G01X144.25Y-85.0
M16
G05
G00X144.0Y-91.0
M15
G01X142.0Y-91.0
M16
G05
G00X147.7Y-87.0
M15
G01X147.7Y-89.0
M16
G05
M30
